<?xml version="1.0" encoding="UTF-8" standalone="no"?>
<!DOCTYPE svg PUBLIC "-//W3C//DTD SVG 1.1//EN"
 "http://www.w3.org/Graphics/SVG/1.1/DTD/svg11.dtd">
<!-- Generated by graphviz version 2.40.1 (20161225.0304)
 -->
<!-- Title: snakemake_dag Pages: 1 -->
<svg width="1350pt" height="836pt"
 viewBox="0.00 0.00 1350.42 836.00" xmlns="http://www.w3.org/2000/svg" xmlns:xlink="http://www.w3.org/1999/xlink">
<g id="graph0" class="graph" transform="scale(1 1) rotate(0) translate(4 832)">
<title>snakemake_dag</title>
<polygon fill="#ffffff" stroke="transparent" points="-4,4 -4,-832 1346.4192,-832 1346.4192,4 -4,4"/>
<!-- 0 -->
<g id="node1" class="node">
<title>0</title>
<path fill="none" stroke="#c6d856" stroke-width="2" d="M369.4192,-108C369.4192,-108 297.4192,-108 297.4192,-108 291.4192,-108 285.4192,-102 285.4192,-96 285.4192,-96 285.4192,-84 285.4192,-84 285.4192,-78 291.4192,-72 297.4192,-72 297.4192,-72 369.4192,-72 369.4192,-72 375.4192,-72 381.4192,-78 381.4192,-84 381.4192,-84 381.4192,-96 381.4192,-96 381.4192,-102 375.4192,-108 369.4192,-108"/>
<text text-anchor="middle" x="333.4192" y="-87.5" font-family="sans" font-size="10.00" fill="#000000">clustered_genes</text>
</g>
<!-- 1 -->
<g id="node2" class="node">
<title>1</title>
<path fill="none" stroke="#b6d856" stroke-width="2" d="M701.9192,-324C701.9192,-324 618.9192,-324 618.9192,-324 612.9192,-324 606.9192,-318 606.9192,-312 606.9192,-312 606.9192,-300 606.9192,-300 606.9192,-294 612.9192,-288 618.9192,-288 618.9192,-288 701.9192,-288 701.9192,-288 707.9192,-288 713.9192,-294 713.9192,-300 713.9192,-300 713.9192,-312 713.9192,-312 713.9192,-318 707.9192,-324 701.9192,-324"/>
<text text-anchor="middle" x="660.4192" y="-303.5" font-family="sans" font-size="10.00" fill="#000000">transcriptome_pca</text>
</g>
<!-- 2 -->
<g id="node3" class="node">
<title>2</title>
<path fill="none" stroke="#d85e56" stroke-width="2" d="M853.9192,-180C853.9192,-180 770.9192,-180 770.9192,-180 764.9192,-180 758.9192,-174 758.9192,-168 758.9192,-168 758.9192,-156 758.9192,-156 758.9192,-150 764.9192,-144 770.9192,-144 770.9192,-144 853.9192,-144 853.9192,-144 859.9192,-144 865.9192,-150 865.9192,-156 865.9192,-156 865.9192,-168 865.9192,-168 865.9192,-174 859.9192,-180 853.9192,-180"/>
<text text-anchor="middle" x="812.4192" y="-159.5" font-family="sans" font-size="10.00" fill="#000000">distance_heatmap</text>
</g>
<!-- 3 -->
<g id="node4" class="node">
<title>3</title>
<path fill="none" stroke="#56d86b" stroke-width="2" d="M1031.9192,-828C1031.9192,-828 954.9192,-828 954.9192,-828 948.9192,-828 942.9192,-822 942.9192,-816 942.9192,-816 942.9192,-804 942.9192,-804 942.9192,-798 948.9192,-792 954.9192,-792 954.9192,-792 1031.9192,-792 1031.9192,-792 1037.9192,-792 1043.9192,-798 1043.9192,-804 1043.9192,-804 1043.9192,-816 1043.9192,-816 1043.9192,-822 1037.9192,-828 1031.9192,-828"/>
<text text-anchor="middle" x="993.4192" y="-807.5" font-family="sans" font-size="10.00" fill="#000000">phenotyping_mpl</text>
</g>
<!-- 4 -->
<g id="node5" class="node">
<title>4</title>
<path fill="none" stroke="#9fd856" stroke-width="2" d="M216.9192,-108C216.9192,-108 167.9192,-108 167.9192,-108 161.9192,-108 155.9192,-102 155.9192,-96 155.9192,-96 155.9192,-84 155.9192,-84 155.9192,-78 161.9192,-72 167.9192,-72 167.9192,-72 216.9192,-72 216.9192,-72 222.9192,-72 228.9192,-78 228.9192,-84 228.9192,-84 228.9192,-96 228.9192,-96 228.9192,-102 222.9192,-108 216.9192,-108"/>
<text text-anchor="middle" x="192.4192" y="-87.5" font-family="sans" font-size="10.00" fill="#000000">dom_genes</text>
</g>
<!-- 5 -->
<g id="node6" class="node">
<title>5</title>
<path fill="none" stroke="#56a9d8" stroke-width="2" d="M524.9192,-36C524.9192,-36 417.9192,-36 417.9192,-36 411.9192,-36 405.9192,-30 405.9192,-24 405.9192,-24 405.9192,-12 405.9192,-12 405.9192,-6 411.9192,0 417.9192,0 417.9192,0 524.9192,0 524.9192,0 530.9192,0 536.9192,-6 536.9192,-12 536.9192,-12 536.9192,-24 536.9192,-24 536.9192,-30 530.9192,-36 524.9192,-36"/>
<text text-anchor="middle" x="471.4192" y="-15.5" font-family="sans" font-size="10.00" fill="#000000">cluster_phenotype_corr</text>
</g>
<!-- 6 -->
<g id="node7" class="node">
<title>6</title>
<path fill="none" stroke="#56d873" stroke-width="2" d="M679.4192,-36C679.4192,-36 569.4192,-36 569.4192,-36 563.4192,-36 557.4192,-30 557.4192,-24 557.4192,-24 557.4192,-12 557.4192,-12 557.4192,-6 563.4192,0 569.4192,0 569.4192,0 679.4192,0 679.4192,0 685.4192,0 691.4192,-6 691.4192,-12 691.4192,-12 691.4192,-24 691.4192,-24 691.4192,-30 685.4192,-36 679.4192,-36"/>
<text text-anchor="middle" x="624.4192" y="-15.5" font-family="sans" font-size="10.00" fill="#000000">phenotype_all_varieties</text>
</g>
<!-- 7 -->
<g id="node8" class="node">
<title>7</title>
<path fill="none" stroke="#97d856" stroke-width="2" d="M1104.4192,-828C1104.4192,-828 1074.4192,-828 1074.4192,-828 1068.4192,-828 1062.4192,-822 1062.4192,-816 1062.4192,-816 1062.4192,-804 1062.4192,-804 1062.4192,-798 1068.4192,-792 1074.4192,-792 1074.4192,-792 1104.4192,-792 1104.4192,-792 1110.4192,-792 1116.4192,-798 1116.4192,-804 1116.4192,-804 1116.4192,-816 1116.4192,-816 1116.4192,-822 1110.4192,-828 1104.4192,-828"/>
<text text-anchor="middle" x="1089.4192" y="-807.5" font-family="sans" font-size="10.00" fill="#000000">md5</text>
</g>
<!-- 8 -->
<g id="node9" class="node">
<title>8</title>
<path fill="none" stroke="#56d892" stroke-width="2" d="M125.9192,-108C125.9192,-108 28.9192,-108 28.9192,-108 22.9192,-108 16.9192,-102 16.9192,-96 16.9192,-96 16.9192,-84 16.9192,-84 16.9192,-78 22.9192,-72 28.9192,-72 28.9192,-72 125.9192,-72 125.9192,-72 131.9192,-72 137.9192,-78 137.9192,-84 137.9192,-84 137.9192,-96 137.9192,-96 137.9192,-102 131.9192,-108 125.9192,-108"/>
<text text-anchor="middle" x="77.4192" y="-87.5" font-family="sans" font-size="10.00" fill="#000000">de_genes_interaction</text>
</g>
<!-- 9 -->
<g id="node10" class="node">
<title>9</title>
<path fill="none" stroke="#56d0d8" stroke-width="2" d="M1220.4192,-828C1220.4192,-828 1146.4192,-828 1146.4192,-828 1140.4192,-828 1134.4192,-822 1134.4192,-816 1134.4192,-816 1134.4192,-804 1134.4192,-804 1134.4192,-798 1140.4192,-792 1146.4192,-792 1146.4192,-792 1220.4192,-792 1220.4192,-792 1226.4192,-792 1232.4192,-798 1232.4192,-804 1232.4192,-804 1232.4192,-816 1232.4192,-816 1232.4192,-822 1226.4192,-828 1220.4192,-828"/>
<text text-anchor="middle" x="1183.4192" y="-807.5" font-family="sans" font-size="10.00" fill="#000000">panicle_mutants</text>
</g>
<!-- 10 -->
<g id="node11" class="node">
<title>10</title>
<path fill="none" stroke="#d87556" stroke-width="2" d="M576.4192,-324C576.4192,-324 472.4192,-324 472.4192,-324 466.4192,-324 460.4192,-318 460.4192,-312 460.4192,-312 460.4192,-300 460.4192,-300 460.4192,-294 466.4192,-288 472.4192,-288 472.4192,-288 576.4192,-288 576.4192,-288 582.4192,-288 588.4192,-294 588.4192,-300 588.4192,-300 588.4192,-312 588.4192,-312 588.4192,-318 582.4192,-324 576.4192,-324"/>
<text text-anchor="middle" x="524.4192" y="-303.5" font-family="sans" font-size="10.00" fill="#000000">fgsea_enrichment_test</text>
</g>
<!-- 11 -->
<g id="node12" class="node">
<title>11</title>
<path fill="none" stroke="#56d8c1" stroke-width="2" d="M1002.9192,-396C1002.9192,-396 965.9192,-396 965.9192,-396 959.9192,-396 953.9192,-390 953.9192,-384 953.9192,-384 953.9192,-372 953.9192,-372 953.9192,-366 959.9192,-360 965.9192,-360 965.9192,-360 1002.9192,-360 1002.9192,-360 1008.9192,-360 1014.9192,-366 1014.9192,-372 1014.9192,-372 1014.9192,-384 1014.9192,-384 1014.9192,-390 1008.9192,-396 1002.9192,-396"/>
<text text-anchor="middle" x="984.4192" y="-375.5" font-family="sans" font-size="10.00" fill="#000000">star_logs</text>
</g>
<!-- 12 -->
<g id="node13" class="node">
<title>12</title>
<path fill="none" stroke="#78d856" stroke-width="2" d="M788.9192,-36C788.9192,-36 721.9192,-36 721.9192,-36 715.9192,-36 709.9192,-30 709.9192,-24 709.9192,-24 709.9192,-12 709.9192,-12 709.9192,-6 715.9192,0 721.9192,0 721.9192,0 788.9192,0 788.9192,0 794.9192,0 800.9192,-6 800.9192,-12 800.9192,-12 800.9192,-24 800.9192,-24 800.9192,-30 794.9192,-36 788.9192,-36"/>
<text text-anchor="middle" x="755.4192" y="-15.5" font-family="sans" font-size="10.00" fill="#000000">phenotype_pca</text>
</g>
<!-- 13 -->
<g id="node14" class="node">
<title>13</title>
<path fill="none" stroke="#56d8d0" stroke-width="2" d="M1330.4192,-828C1330.4192,-828 1262.4192,-828 1262.4192,-828 1256.4192,-828 1250.4192,-822 1250.4192,-816 1250.4192,-816 1250.4192,-804 1250.4192,-804 1250.4192,-798 1256.4192,-792 1262.4192,-792 1262.4192,-792 1330.4192,-792 1330.4192,-792 1336.4192,-792 1342.4192,-798 1342.4192,-804 1342.4192,-804 1342.4192,-816 1342.4192,-816 1342.4192,-822 1336.4192,-828 1330.4192,-828"/>
<text text-anchor="middle" x="1296.4192" y="-807.5" font-family="sans" font-size="10.00" fill="#000000">lmd_paper_ap2</text>
</g>
<!-- 14 -->
<g id="node15" class="node">
<title>14</title>
<path fill="none" stroke="#d87d56" stroke-width="2" d="M430.4192,-324C430.4192,-324 338.4192,-324 338.4192,-324 332.4192,-324 326.4192,-318 326.4192,-312 326.4192,-312 326.4192,-300 326.4192,-300 326.4192,-294 332.4192,-288 338.4192,-288 338.4192,-288 430.4192,-288 430.4192,-288 436.4192,-288 442.4192,-294 442.4192,-300 442.4192,-300 442.4192,-312 442.4192,-312 442.4192,-318 436.4192,-324 430.4192,-324"/>
<text text-anchor="middle" x="384.4192" y="-303.5" font-family="sans" font-size="10.00" fill="#000000">mads_ap2_heatmap</text>
</g>
<!-- 15 -->
<g id="node16" class="node">
<title>15</title>
<path fill="none" stroke="#5663d8" stroke-width="2" d="M950.9192,-108C950.9192,-108 879.9192,-108 879.9192,-108 873.9192,-108 867.9192,-102 867.9192,-96 867.9192,-96 867.9192,-84 867.9192,-84 867.9192,-78 873.9192,-72 879.9192,-72 879.9192,-72 950.9192,-72 950.9192,-72 956.9192,-72 962.9192,-78 962.9192,-84 962.9192,-84 962.9192,-96 962.9192,-96 962.9192,-102 956.9192,-108 950.9192,-108"/>
<text text-anchor="middle" x="915.4192" y="-87.5" font-family="sans" font-size="10.00" fill="#000000">de_genes_stage</text>
</g>
<!-- 16 -->
<g id="node17" class="node">
<title>16</title>
<path fill="none" stroke="#56c9d8" stroke-width="2" d="M350.9192,-180C350.9192,-180 309.9192,-180 309.9192,-180 303.9192,-180 297.9192,-174 297.9192,-168 297.9192,-168 297.9192,-156 297.9192,-156 297.9192,-150 303.9192,-144 309.9192,-144 309.9192,-144 350.9192,-144 350.9192,-144 356.9192,-144 362.9192,-150 362.9192,-156 362.9192,-156 362.9192,-168 362.9192,-168 362.9192,-174 356.9192,-180 350.9192,-180"/>
<text text-anchor="middle" x="330.4192" y="-159.5" font-family="sans" font-size="10.00" fill="#000000">mfuzz_tfs</text>
</g>
<!-- 16&#45;&gt;0 -->
<g id="edge1" class="edge">
<title>16&#45;&gt;0</title>
<path fill="none" stroke="#c0c0c0" stroke-width="2" d="M331.1762,-143.8314C331.497,-136.131 331.8786,-126.9743 332.2351,-118.4166"/>
<polygon fill="#c0c0c0" stroke="#c0c0c0" stroke-width="2" points="335.7325,-118.5503 332.6519,-108.4133 328.7386,-118.2589 335.7325,-118.5503"/>
</g>
<!-- 16&#45;&gt;5 -->
<g id="edge8" class="edge">
<title>16&#45;&gt;5</title>
<path fill="none" stroke="#c0c0c0" stroke-width="2" d="M306.2912,-143.663C284.5948,-124.9264 258.6573,-95.349 276.4192,-72 291.2178,-52.5463 347.5508,-38.2855 395.8885,-29.3206"/>
<polygon fill="#c0c0c0" stroke="#c0c0c0" stroke-width="2" points="396.5285,-32.7617 405.749,-27.5431 395.2866,-25.8727 396.5285,-32.7617"/>
</g>
<!-- 20 -->
<g id="node21" class="node">
<title>20</title>
<path fill="none" stroke="#56d88a" stroke-width="2" d="M643.4192,-108C643.4192,-108 611.4192,-108 611.4192,-108 605.4192,-108 599.4192,-102 599.4192,-96 599.4192,-96 599.4192,-84 599.4192,-84 599.4192,-78 605.4192,-72 611.4192,-72 611.4192,-72 643.4192,-72 643.4192,-72 649.4192,-72 655.4192,-78 655.4192,-84 655.4192,-84 655.4192,-96 655.4192,-96 655.4192,-102 649.4192,-108 643.4192,-108"/>
<text text-anchor="middle" x="627.4192" y="-87.5" font-family="sans" font-size="10.00" fill="#000000">cali_pca</text>
</g>
<!-- 16&#45;&gt;20 -->
<g id="edge29" class="edge">
<title>16&#45;&gt;20</title>
<path fill="none" stroke="#c0c0c0" stroke-width="2" d="M363.0529,-154.0888C418.3506,-140.6833 530.1873,-113.5714 589.1096,-99.2872"/>
<polygon fill="#c0c0c0" stroke="#c0c0c0" stroke-width="2" points="590.2331,-102.6163 599.127,-96.8587 588.5839,-95.8133 590.2331,-102.6163"/>
</g>
<!-- 21 -->
<g id="node22" class="node">
<title>21</title>
<path fill="none" stroke="#5682d8" stroke-width="2" d="M530.9192,-108C530.9192,-108 411.9192,-108 411.9192,-108 405.9192,-108 399.9192,-102 399.9192,-96 399.9192,-96 399.9192,-84 399.9192,-84 399.9192,-78 405.9192,-72 411.9192,-72 411.9192,-72 530.9192,-72 530.9192,-72 536.9192,-72 542.9192,-78 542.9192,-84 542.9192,-84 542.9192,-96 542.9192,-96 542.9192,-102 536.9192,-108 530.9192,-108"/>
<text text-anchor="middle" x="471.4192" y="-87.5" font-family="sans" font-size="10.00" fill="#000000">correlate_clusters_to_mtp</text>
</g>
<!-- 16&#45;&gt;21 -->
<g id="edge31" class="edge">
<title>16&#45;&gt;21</title>
<path fill="none" stroke="#c0c0c0" stroke-width="2" d="M363.1218,-145.3008C382.1139,-135.6027 406.3019,-123.2513 426.999,-112.6826"/>
<polygon fill="#c0c0c0" stroke="#c0c0c0" stroke-width="2" points="428.6156,-115.7871 435.9299,-108.1222 425.4321,-109.5529 428.6156,-115.7871"/>
</g>
<!-- 17 -->
<g id="node18" class="node">
<title>17</title>
<path fill="none" stroke="#56c1d8" stroke-width="2" d="M609.4192,-396C609.4192,-396 575.4192,-396 575.4192,-396 569.4192,-396 563.4192,-390 563.4192,-384 563.4192,-384 563.4192,-372 563.4192,-372 563.4192,-366 569.4192,-360 575.4192,-360 575.4192,-360 609.4192,-360 609.4192,-360 615.4192,-360 621.4192,-366 621.4192,-372 621.4192,-372 621.4192,-384 621.4192,-384 621.4192,-390 615.4192,-396 609.4192,-396"/>
<text text-anchor="middle" x="592.4192" y="-375.5" font-family="sans" font-size="10.00" fill="#000000">rlog_pca</text>
</g>
<!-- 17&#45;&gt;1 -->
<g id="edge2" class="edge">
<title>17&#45;&gt;1</title>
<path fill="none" stroke="#c0c0c0" stroke-width="2" d="M609.5784,-359.8314C617.5703,-351.3694 627.223,-341.1489 635.9608,-331.8971"/>
<polygon fill="#c0c0c0" stroke="#c0c0c0" stroke-width="2" points="638.7071,-334.0866 643.0288,-324.4133 633.618,-329.2802 638.7071,-334.0866"/>
</g>
<!-- 17&#45;&gt;10 -->
<g id="edge13" class="edge">
<title>17&#45;&gt;10</title>
<path fill="none" stroke="#c0c0c0" stroke-width="2" d="M575.2599,-359.8314C567.268,-351.3694 557.6153,-341.1489 548.8775,-331.8971"/>
<polygon fill="#c0c0c0" stroke="#c0c0c0" stroke-width="2" points="551.2203,-329.2802 541.8095,-324.4133 546.1312,-334.0866 551.2203,-329.2802"/>
</g>
<!-- 17&#45;&gt;14 -->
<g id="edge19" class="edge">
<title>17&#45;&gt;14</title>
<path fill="none" stroke="#c0c0c0" stroke-width="2" d="M563.059,-367.8369C532.8113,-357.3665 484.7599,-340.7333 446.1082,-327.3539"/>
<polygon fill="#c0c0c0" stroke="#c0c0c0" stroke-width="2" points="447.0954,-323.9919 436.5006,-324.0282 444.8056,-330.6068 447.0954,-323.9919"/>
</g>
<!-- 18 -->
<g id="node19" class="node">
<title>18</title>
<path fill="none" stroke="#d85656" stroke-width="2" d="M860.4192,-252C860.4192,-252 774.4192,-252 774.4192,-252 768.4192,-252 762.4192,-246 762.4192,-240 762.4192,-240 762.4192,-228 762.4192,-228 762.4192,-222 768.4192,-216 774.4192,-216 774.4192,-216 860.4192,-216 860.4192,-216 866.4192,-216 872.4192,-222 872.4192,-228 872.4192,-228 872.4192,-240 872.4192,-240 872.4192,-246 866.4192,-252 860.4192,-252"/>
<text text-anchor="middle" x="817.4192" y="-231.5" font-family="sans" font-size="10.00" fill="#000000">filter_deseq_object</text>
</g>
<!-- 18&#45;&gt;2 -->
<g id="edge3" class="edge">
<title>18&#45;&gt;2</title>
<path fill="none" stroke="#c0c0c0" stroke-width="2" d="M816.1574,-215.8314C815.6227,-208.131 814.9868,-198.9743 814.3925,-190.4166"/>
<polygon fill="#c0c0c0" stroke="#c0c0c0" stroke-width="2" points="817.8823,-190.1467 813.6978,-180.4133 810.8991,-190.6317 817.8823,-190.1467"/>
</g>
<!-- 28 -->
<g id="node29" class="node">
<title>28</title>
<path fill="none" stroke="#80d856" stroke-width="2" d="M934.9192,-180C934.9192,-180 895.9192,-180 895.9192,-180 889.9192,-180 883.9192,-174 883.9192,-168 883.9192,-168 883.9192,-156 883.9192,-156 883.9192,-150 889.9192,-144 895.9192,-144 895.9192,-144 934.9192,-144 934.9192,-144 940.9192,-144 946.9192,-150 946.9192,-156 946.9192,-156 946.9192,-168 946.9192,-168 946.9192,-174 940.9192,-180 934.9192,-180"/>
<text text-anchor="middle" x="915.4192" y="-159.5" font-family="sans" font-size="10.00" fill="#000000">deseq_all</text>
</g>
<!-- 18&#45;&gt;28 -->
<g id="edge40" class="edge">
<title>18&#45;&gt;28</title>
<path fill="none" stroke="#c0c0c0" stroke-width="2" d="M842.1487,-215.8314C854.3353,-206.8779 869.2015,-195.9558 882.3503,-186.2955"/>
<polygon fill="#c0c0c0" stroke="#c0c0c0" stroke-width="2" points="884.711,-188.9042 890.6975,-180.1628 880.5664,-183.263 884.711,-188.9042"/>
</g>
<!-- 19 -->
<g id="node20" class="node">
<title>19</title>
<path fill="none" stroke="#d89556" stroke-width="2" d="M155.4192,-180C155.4192,-180 115.4192,-180 115.4192,-180 109.4192,-180 103.4192,-174 103.4192,-168 103.4192,-168 103.4192,-156 103.4192,-156 103.4192,-150 109.4192,-144 115.4192,-144 115.4192,-144 155.4192,-144 155.4192,-144 161.4192,-144 167.4192,-150 167.4192,-156 167.4192,-156 167.4192,-168 167.4192,-168 167.4192,-174 161.4192,-180 155.4192,-180"/>
<text text-anchor="middle" x="135.4192" y="-159.5" font-family="sans" font-size="10.00" fill="#000000">deseq_tfs</text>
</g>
<!-- 19&#45;&gt;4 -->
<g id="edge4" class="edge">
<title>19&#45;&gt;4</title>
<path fill="none" stroke="#c0c0c0" stroke-width="2" d="M149.8027,-143.8314C156.3677,-135.5386 164.2698,-125.557 171.4769,-116.4533"/>
<polygon fill="#c0c0c0" stroke="#c0c0c0" stroke-width="2" points="174.3791,-118.4262 177.842,-108.4133 168.8907,-114.0813 174.3791,-118.4262"/>
</g>
<!-- 19&#45;&gt;5 -->
<g id="edge5" class="edge">
<title>19&#45;&gt;5</title>
<path fill="none" stroke="#c0c0c0" stroke-width="2" d="M103.3462,-158.3803C72.8628,-153.047 28.6206,-139.9553 7.4192,-108 -1.4265,-94.6676 -3.2206,-83.9498 7.4192,-72 32.7286,-43.5742 270.4202,-27.8005 395.4084,-21.4086"/>
<polygon fill="#c0c0c0" stroke="#c0c0c0" stroke-width="2" points="395.8639,-24.8902 405.6752,-20.8917 395.5118,-17.899 395.8639,-24.8902"/>
</g>
<!-- 19&#45;&gt;8 -->
<g id="edge12" class="edge">
<title>19&#45;&gt;8</title>
<path fill="none" stroke="#c0c0c0" stroke-width="2" d="M120.7833,-143.8314C114.103,-135.5386 106.0623,-125.557 98.7288,-116.4533"/>
<polygon fill="#c0c0c0" stroke="#c0c0c0" stroke-width="2" points="101.251,-114.0052 92.2521,-108.4133 95.7997,-118.3965 101.251,-114.0052"/>
</g>
<!-- 20&#45;&gt;5 -->
<g id="edge7" class="edge">
<title>20&#45;&gt;5</title>
<path fill="none" stroke="#c0c0c0" stroke-width="2" d="M599.1687,-76.9613C577.1166,-66.7834 545.9591,-52.403 519.9357,-40.3922"/>
<polygon fill="#c0c0c0" stroke="#c0c0c0" stroke-width="2" points="521.1531,-37.0994 510.6068,-36.0866 518.2196,-43.4551 521.1531,-37.0994"/>
</g>
<!-- 20&#45;&gt;6 -->
<g id="edge10" class="edge">
<title>20&#45;&gt;6</title>
<path fill="none" stroke="#c0c0c0" stroke-width="2" d="M626.6621,-71.8314C626.3413,-64.131 625.9597,-54.9743 625.6032,-46.4166"/>
<polygon fill="#c0c0c0" stroke="#c0c0c0" stroke-width="2" points="629.0997,-46.2589 625.1864,-36.4133 622.1058,-46.5503 629.0997,-46.2589"/>
</g>
<!-- 20&#45;&gt;12 -->
<g id="edge16" class="edge">
<title>20&#45;&gt;12</title>
<path fill="none" stroke="#c0c0c0" stroke-width="2" d="M655.5093,-74.1993C672.7895,-64.4792 695.2338,-51.8543 714.4709,-41.0334"/>
<polygon fill="#c0c0c0" stroke="#c0c0c0" stroke-width="2" points="716.3363,-43.9999 723.3361,-36.0467 712.9044,-37.8988 716.3363,-43.9999"/>
</g>
<!-- 21&#45;&gt;5 -->
<g id="edge9" class="edge">
<title>21&#45;&gt;5</title>
<path fill="none" stroke="#c0c0c0" stroke-width="2" d="M471.4192,-71.8314C471.4192,-64.131 471.4192,-54.9743 471.4192,-46.4166"/>
<polygon fill="#c0c0c0" stroke="#c0c0c0" stroke-width="2" points="474.9193,-46.4132 471.4192,-36.4133 467.9193,-46.4133 474.9193,-46.4132"/>
</g>
<!-- 22 -->
<g id="node23" class="node">
<title>22</title>
<path fill="none" stroke="#56d882" stroke-width="2" d="M858.4192,-324C858.4192,-324 782.4192,-324 782.4192,-324 776.4192,-324 770.4192,-318 770.4192,-312 770.4192,-312 770.4192,-300 770.4192,-300 770.4192,-294 776.4192,-288 782.4192,-288 782.4192,-288 858.4192,-288 858.4192,-288 864.4192,-288 870.4192,-294 870.4192,-300 870.4192,-300 870.4192,-312 870.4192,-312 870.4192,-318 864.4192,-324 858.4192,-324"/>
<text text-anchor="middle" x="820.4192" y="-303.5" font-family="sans" font-size="10.00" fill="#000000">calculate_cutoffs</text>
</g>
<!-- 22&#45;&gt;5 -->
<g id="edge6" class="edge">
<title>22&#45;&gt;5</title>
<path fill="none" stroke="#c0c0c0" stroke-width="2" d="M771.4248,-287.8441C723.0993,-267.8165 649.7844,-231.4637 602.4192,-180 566.4715,-140.9418 585.9846,-112.2866 551.4192,-72 541.3125,-60.2205 528.0464,-49.8958 515.2303,-41.5153"/>
<polygon fill="#c0c0c0" stroke="#c0c0c0" stroke-width="2" points="516.8065,-38.3726 506.4739,-36.03 513.0904,-44.3048 516.8065,-38.3726"/>
</g>
<!-- 22&#45;&gt;18 -->
<g id="edge26" class="edge">
<title>22&#45;&gt;18</title>
<path fill="none" stroke="#c0c0c0" stroke-width="2" d="M819.6621,-287.8314C819.3413,-280.131 818.9597,-270.9743 818.6032,-262.4166"/>
<polygon fill="#c0c0c0" stroke="#c0c0c0" stroke-width="2" points="822.0997,-262.2589 818.1864,-252.4133 815.1058,-262.5503 822.0997,-262.2589"/>
</g>
<!-- 29 -->
<g id="node30" class="node">
<title>29</title>
<path fill="none" stroke="#d86e56" stroke-width="2" d="M258.4192,-252C258.4192,-252 224.4192,-252 224.4192,-252 218.4192,-252 212.4192,-246 212.4192,-240 212.4192,-240 212.4192,-228 212.4192,-228 212.4192,-222 218.4192,-216 224.4192,-216 224.4192,-216 258.4192,-216 258.4192,-216 264.4192,-216 270.4192,-222 270.4192,-228 270.4192,-228 270.4192,-240 270.4192,-240 270.4192,-246 264.4192,-252 258.4192,-252"/>
<text text-anchor="middle" x="241.4192" y="-231.5" font-family="sans" font-size="10.00" fill="#000000">filter_tfs</text>
</g>
<!-- 22&#45;&gt;29 -->
<g id="edge41" class="edge">
<title>22&#45;&gt;29</title>
<path fill="none" stroke="#c0c0c0" stroke-width="2" d="M770.1722,-296.0745C754.8762,-293.2411 737.9916,-290.3014 722.4192,-288 558.9623,-263.8435 362.8327,-244.9377 280.655,-237.4681"/>
<polygon fill="#c0c0c0" stroke="#c0c0c0" stroke-width="2" points="280.7923,-233.9663 270.5179,-236.5523 280.1624,-240.9379 280.7923,-233.9663"/>
</g>
<!-- 23 -->
<g id="node24" class="node">
<title>23</title>
<path fill="none" stroke="#56b1d8" stroke-width="2" d="M718.9192,-180C718.9192,-180 623.9192,-180 623.9192,-180 617.9192,-180 611.9192,-174 611.9192,-168 611.9192,-168 611.9192,-156 611.9192,-156 611.9192,-150 617.9192,-144 623.9192,-144 623.9192,-144 718.9192,-144 718.9192,-144 724.9192,-144 730.9192,-150 730.9192,-156 730.9192,-156 730.9192,-168 730.9192,-168 730.9192,-174 724.9192,-180 718.9192,-180"/>
<text text-anchor="middle" x="671.4192" y="-159.5" font-family="sans" font-size="10.00" fill="#000000">tidy_phenotype_data</text>
</g>
<!-- 23&#45;&gt;6 -->
<g id="edge11" class="edge">
<title>23&#45;&gt;6</title>
<path fill="none" stroke="#c0c0c0" stroke-width="2" d="M672.8913,-143.7816C673.7425,-125.1395 673.2508,-95.6362 664.4192,-72 660.7439,-62.164 654.709,-52.5698 648.4278,-44.263"/>
<polygon fill="#c0c0c0" stroke="#c0c0c0" stroke-width="2" points="651.1289,-42.0366 642.1427,-36.424 645.6675,-46.4154 651.1289,-42.0366"/>
</g>
<!-- 23&#45;&gt;12 -->
<g id="edge17" class="edge">
<title>23&#45;&gt;12</title>
<path fill="none" stroke="#c0c0c0" stroke-width="2" d="M682.0578,-143.7623C696.6377,-118.7682 722.9319,-73.6924 739.762,-44.8409"/>
<polygon fill="#c0c0c0" stroke="#c0c0c0" stroke-width="2" points="742.8513,-46.491 744.8669,-36.0896 736.8049,-42.9639 742.8513,-46.491"/>
</g>
<!-- 23&#45;&gt;20 -->
<g id="edge30" class="edge">
<title>23&#45;&gt;20</title>
<path fill="none" stroke="#c0c0c0" stroke-width="2" d="M660.3161,-143.8314C655.3517,-135.7079 649.397,-125.9637 643.9264,-117.0118"/>
<polygon fill="#c0c0c0" stroke="#c0c0c0" stroke-width="2" points="646.8727,-115.121 638.6717,-108.4133 640.8998,-118.7712 646.8727,-115.121"/>
</g>
<!-- 23&#45;&gt;21 -->
<g id="edge32" class="edge">
<title>23&#45;&gt;21</title>
<path fill="none" stroke="#c0c0c0" stroke-width="2" d="M621.2089,-143.9243C593.8677,-134.0815 559.8597,-121.8386 531.1616,-111.5073"/>
<polygon fill="#c0c0c0" stroke="#c0c0c0" stroke-width="2" points="532.2445,-108.1773 521.6501,-108.0831 529.8734,-114.7635 532.2445,-108.1773"/>
</g>
<!-- 24 -->
<g id="node25" class="node">
<title>24</title>
<path fill="none" stroke="#56d8a2" stroke-width="2" d="M517.9192,-396C517.9192,-396 460.9192,-396 460.9192,-396 454.9192,-396 448.9192,-390 448.9192,-384 448.9192,-384 448.9192,-372 448.9192,-372 448.9192,-366 454.9192,-360 460.9192,-360 460.9192,-360 517.9192,-360 517.9192,-360 523.9192,-360 529.9192,-366 529.9192,-372 529.9192,-372 529.9192,-384 529.9192,-384 529.9192,-390 523.9192,-396 517.9192,-396"/>
<text text-anchor="middle" x="489.4192" y="-375.5" font-family="sans" font-size="10.00" fill="#000000">tfdb_families</text>
</g>
<!-- 24&#45;&gt;10 -->
<g id="edge14" class="edge">
<title>24&#45;&gt;10</title>
<path fill="none" stroke="#c0c0c0" stroke-width="2" d="M498.2511,-359.8314C502.1178,-351.8771 506.7398,-342.369 511.016,-333.5723"/>
<polygon fill="#c0c0c0" stroke="#c0c0c0" stroke-width="2" points="514.2441,-334.9371 515.4683,-324.4133 507.9485,-331.8768 514.2441,-334.9371"/>
</g>
<!-- 24&#45;&gt;14 -->
<g id="edge20" class="edge">
<title>24&#45;&gt;14</title>
<path fill="none" stroke="#c0c0c0" stroke-width="2" d="M462.9232,-359.8314C449.7418,-350.7927 433.6344,-339.7476 419.448,-330.0198"/>
<polygon fill="#c0c0c0" stroke="#c0c0c0" stroke-width="2" points="421.1333,-326.9316 410.9066,-324.1628 417.1745,-332.7047 421.1333,-326.9316"/>
</g>
<!-- 25 -->
<g id="node26" class="node">
<title>25</title>
<path fill="none" stroke="#56a2d8" stroke-width="2" d="M988.9192,-468C988.9192,-468 919.9192,-468 919.9192,-468 913.9192,-468 907.9192,-462 907.9192,-456 907.9192,-456 907.9192,-444 907.9192,-444 907.9192,-438 913.9192,-432 919.9192,-432 919.9192,-432 988.9192,-432 988.9192,-432 994.9192,-432 1000.9192,-438 1000.9192,-444 1000.9192,-444 1000.9192,-456 1000.9192,-456 1000.9192,-462 994.9192,-468 988.9192,-468"/>
<text text-anchor="middle" x="954.4192" y="-447.5" font-family="sans" font-size="10.00" fill="#000000">parse_star_logs</text>
</g>
<!-- 25&#45;&gt;11 -->
<g id="edge15" class="edge">
<title>25&#45;&gt;11</title>
<path fill="none" stroke="#c0c0c0" stroke-width="2" d="M961.9894,-431.8314C965.2684,-423.9617 969.1812,-414.5712 972.8136,-405.8533"/>
<polygon fill="#c0c0c0" stroke="#c0c0c0" stroke-width="2" points="976.1315,-406.9902 976.747,-396.4133 969.67,-404.2979 976.1315,-406.9902"/>
</g>
<!-- 25&#45;&gt;22 -->
<g id="edge33" class="edge">
<title>25&#45;&gt;22</title>
<path fill="none" stroke="#c0c0c0" stroke-width="2" d="M947.9474,-431.7167C940.3472,-412.2086 926.2158,-381.2488 906.4192,-360 895.2794,-348.0431 880.9314,-337.6652 867.159,-329.2905"/>
<polygon fill="#c0c0c0" stroke="#c0c0c0" stroke-width="2" points="868.6322,-326.0978 858.2312,-324.08 865.1037,-332.1435 868.6322,-326.0978"/>
</g>
<!-- 30 -->
<g id="node31" class="node">
<title>30</title>
<path fill="none" stroke="#56d8b1" stroke-width="2" d="M885.4192,-396C885.4192,-396 823.4192,-396 823.4192,-396 817.4192,-396 811.4192,-390 811.4192,-384 811.4192,-384 811.4192,-372 811.4192,-372 811.4192,-366 817.4192,-360 823.4192,-360 823.4192,-360 885.4192,-360 885.4192,-360 891.4192,-360 897.4192,-366 897.4192,-372 897.4192,-372 897.4192,-384 897.4192,-384 897.4192,-390 891.4192,-396 885.4192,-396"/>
<text text-anchor="middle" x="854.4192" y="-375.5" font-family="sans" font-size="10.00" fill="#000000">calculate_tpm</text>
</g>
<!-- 25&#45;&gt;30 -->
<g id="edge44" class="edge">
<title>25&#45;&gt;30</title>
<path fill="none" stroke="#c0c0c0" stroke-width="2" d="M929.1849,-431.8314C916.6312,-422.7927 901.2908,-411.7476 887.78,-402.0198"/>
<polygon fill="#c0c0c0" stroke="#c0c0c0" stroke-width="2" points="889.8057,-399.1655 879.6453,-396.1628 885.7156,-404.8463 889.8057,-399.1655"/>
</g>
<!-- 26 -->
<g id="node27" class="node">
<title>26</title>
<path fill="none" stroke="#d6d856" stroke-width="2" d="M323.4192,-396C323.4192,-396 273.4192,-396 273.4192,-396 267.4192,-396 261.4192,-390 261.4192,-384 261.4192,-384 261.4192,-372 261.4192,-372 261.4192,-366 267.4192,-360 273.4192,-360 273.4192,-360 323.4192,-360 323.4192,-360 329.4192,-360 335.4192,-366 335.4192,-372 335.4192,-372 335.4192,-384 335.4192,-384 335.4192,-390 329.4192,-396 323.4192,-396"/>
<text text-anchor="middle" x="298.4192" y="-375.5" font-family="sans" font-size="10.00" fill="#000000">format_tfdb</text>
</g>
<!-- 26&#45;&gt;14 -->
<g id="edge21" class="edge">
<title>26&#45;&gt;14</title>
<path fill="none" stroke="#c0c0c0" stroke-width="2" d="M320.1206,-359.8314C330.6113,-351.0485 343.3647,-340.3712 354.7386,-330.8489"/>
<polygon fill="#c0c0c0" stroke="#c0c0c0" stroke-width="2" points="357.3039,-333.2659 362.7247,-324.1628 352.8103,-327.8986 357.3039,-333.2659"/>
</g>
<!-- 26&#45;&gt;16 -->
<g id="edge24" class="edge">
<title>26&#45;&gt;16</title>
<path fill="none" stroke="#c0c0c0" stroke-width="2" d="M301.0924,-359.9555C306.6689,-322.3144 319.5767,-235.1867 326.2526,-190.1246"/>
<polygon fill="#c0c0c0" stroke="#c0c0c0" stroke-width="2" points="329.7276,-190.5501 327.731,-180.1451 322.8032,-189.5242 329.7276,-190.5501"/>
</g>
<!-- 26&#45;&gt;29 -->
<g id="edge43" class="edge">
<title>26&#45;&gt;29</title>
<path fill="none" stroke="#c0c0c0" stroke-width="2" d="M291.2001,-359.7623C281.3922,-334.9846 263.7724,-290.4714 252.3417,-261.5939"/>
<polygon fill="#c0c0c0" stroke="#c0c0c0" stroke-width="2" points="255.5145,-260.0995 248.5796,-252.0896 249.0058,-262.6759 255.5145,-260.0995"/>
</g>
<!-- 27 -->
<g id="node28" class="node">
<title>27</title>
<path fill="none" stroke="#568ad8" stroke-width="2" d="M716.4192,-468C716.4192,-468 610.4192,-468 610.4192,-468 604.4192,-468 598.4192,-462 598.4192,-456 598.4192,-456 598.4192,-444 598.4192,-444 598.4192,-438 604.4192,-432 610.4192,-432 610.4192,-432 716.4192,-432 716.4192,-432 722.4192,-432 728.4192,-438 728.4192,-444 728.4192,-444 728.4192,-456 728.4192,-456 728.4192,-462 722.4192,-468 716.4192,-468"/>
<text text-anchor="middle" x="663.4192" y="-447.5" font-family="sans" font-size="10.00" fill="#000000">generate_deseq_object</text>
</g>
<!-- 27&#45;&gt;14 -->
<g id="edge18" class="edge">
<title>27&#45;&gt;14</title>
<path fill="none" stroke="#c0c0c0" stroke-width="2" d="M598.3083,-439.9854C541.559,-430.2477 464.5212,-414.2793 439.4192,-396 418.0477,-380.4373 403.2886,-353.8031 394.481,-333.5352"/>
<polygon fill="#c0c0c0" stroke="#c0c0c0" stroke-width="2" points="397.6718,-332.0915 390.6324,-324.1733 391.1975,-334.753 397.6718,-332.0915"/>
</g>
<!-- 27&#45;&gt;17 -->
<g id="edge25" class="edge">
<title>27&#45;&gt;17</title>
<path fill="none" stroke="#c0c0c0" stroke-width="2" d="M645.5029,-431.8314C637.075,-423.2848 626.8781,-412.9443 617.6832,-403.6198"/>
<polygon fill="#c0c0c0" stroke="#c0c0c0" stroke-width="2" points="620.0903,-401.0761 610.5767,-396.4133 615.106,-405.9912 620.0903,-401.0761"/>
</g>
<!-- 27&#45;&gt;18 -->
<g id="edge27" class="edge">
<title>27&#45;&gt;18</title>
<path fill="none" stroke="#c0c0c0" stroke-width="2" d="M672.4537,-431.7557C688.2674,-400.6782 722.9623,-336.1629 761.4192,-288 769.5173,-277.858 779.4263,-267.7214 788.6456,-259.015"/>
<polygon fill="#c0c0c0" stroke="#c0c0c0" stroke-width="2" points="791.197,-261.4232 796.1728,-252.0694 786.45,-256.2787 791.197,-261.4232"/>
</g>
<!-- 27&#45;&gt;22 -->
<g id="edge36" class="edge">
<title>27&#45;&gt;22</title>
<path fill="none" stroke="#c0c0c0" stroke-width="2" d="M683.3033,-431.7623C711.1436,-406.2272 761.8368,-359.7316 793.1725,-330.9906"/>
<polygon fill="#c0c0c0" stroke="#c0c0c0" stroke-width="2" points="795.6926,-333.4284 800.6964,-324.0896 790.961,-328.2697 795.6926,-333.4284"/>
</g>
<!-- 27&#45;&gt;29 -->
<g id="edge42" class="edge">
<title>27&#45;&gt;29</title>
<path fill="none" stroke="#c0c0c0" stroke-width="2" d="M598.0454,-445.9035C488.0599,-438.3617 275.666,-420.7556 252.4192,-396 218.7852,-360.1832 225.851,-298.0435 233.7872,-262.0269"/>
<polygon fill="#c0c0c0" stroke="#c0c0c0" stroke-width="2" points="237.2215,-262.713 236.1246,-252.1751 230.4106,-261.097 237.2215,-262.713"/>
</g>
<!-- 27&#45;&gt;30 -->
<g id="edge45" class="edge">
<title>27&#45;&gt;30</title>
<path fill="none" stroke="#c0c0c0" stroke-width="2" d="M711.6165,-431.8314C738.9998,-421.5089 773.3247,-408.5696 801.4588,-397.9641"/>
<polygon fill="#c0c0c0" stroke="#c0c0c0" stroke-width="2" points="803.0079,-401.1207 811.1305,-394.3182 800.5387,-394.5706 803.0079,-401.1207"/>
</g>
<!-- 28&#45;&gt;15 -->
<g id="edge22" class="edge">
<title>28&#45;&gt;15</title>
<path fill="none" stroke="#c0c0c0" stroke-width="2" d="M915.4192,-143.8314C915.4192,-136.131 915.4192,-126.9743 915.4192,-118.4166"/>
<polygon fill="#c0c0c0" stroke="#c0c0c0" stroke-width="2" points="918.9193,-118.4132 915.4192,-108.4133 911.9193,-118.4133 918.9193,-118.4132"/>
</g>
<!-- 29&#45;&gt;16 -->
<g id="edge23" class="edge">
<title>29&#45;&gt;16</title>
<path fill="none" stroke="#c0c0c0" stroke-width="2" d="M263.8776,-215.8314C274.8396,-206.9632 288.189,-196.1637 300.0456,-186.5718"/>
<polygon fill="#c0c0c0" stroke="#c0c0c0" stroke-width="2" points="302.3947,-189.1734 307.9679,-180.1628 297.992,-183.7313 302.3947,-189.1734"/>
</g>
<!-- 29&#45;&gt;19 -->
<g id="edge28" class="edge">
<title>29&#45;&gt;19</title>
<path fill="none" stroke="#c0c0c0" stroke-width="2" d="M214.6709,-215.8314C201.3639,-206.7927 185.1031,-195.7476 170.7817,-186.0198"/>
<polygon fill="#c0c0c0" stroke="#c0c0c0" stroke-width="2" points="172.3977,-182.8864 162.1589,-180.1628 168.4644,-188.677 172.3977,-182.8864"/>
</g>
<!-- 30&#45;&gt;22 -->
<g id="edge34" class="edge">
<title>30&#45;&gt;22</title>
<path fill="none" stroke="#c0c0c0" stroke-width="2" d="M845.8395,-359.8314C842.0833,-351.8771 837.5934,-342.369 833.4394,-333.5723"/>
<polygon fill="#c0c0c0" stroke="#c0c0c0" stroke-width="2" points="836.5493,-331.9612 829.1143,-324.4133 830.2196,-334.9503 836.5493,-331.9612"/>
</g>
<!-- 31 -->
<g id="node32" class="node">
<title>31</title>
<path fill="none" stroke="#d8b456" stroke-width="2" d="M877.9192,-468C877.9192,-468 758.9192,-468 758.9192,-468 752.9192,-468 746.9192,-462 746.9192,-456 746.9192,-456 746.9192,-444 746.9192,-444 746.9192,-438 752.9192,-432 758.9192,-432 758.9192,-432 877.9192,-432 877.9192,-432 883.9192,-432 889.9192,-438 889.9192,-444 889.9192,-444 889.9192,-456 889.9192,-456 889.9192,-462 883.9192,-468 877.9192,-468"/>
<text text-anchor="middle" x="818.4192" y="-447.5" font-family="sans" font-size="10.00" fill="#000000">calculate_feature_lengths</text>
</g>
<!-- 31&#45;&gt;22 -->
<g id="edge37" class="edge">
<title>31&#45;&gt;22</title>
<path fill="none" stroke="#c0c0c0" stroke-width="2" d="M811.5997,-431.7996C808.0911,-421.4645 804.1875,-408.1925 802.4192,-396 800.1227,-380.1657 799.8562,-375.7934 802.4192,-360 803.8371,-351.2621 806.4667,-342.0275 809.2863,-333.7136"/>
<polygon fill="#c0c0c0" stroke="#c0c0c0" stroke-width="2" points="812.6445,-334.7187 812.7512,-324.1244 806.0611,-332.3399 812.6445,-334.7187"/>
</g>
<!-- 31&#45;&gt;30 -->
<g id="edge46" class="edge">
<title>31&#45;&gt;30</title>
<path fill="none" stroke="#c0c0c0" stroke-width="2" d="M827.5035,-431.8314C831.4806,-423.8771 836.2346,-414.369 840.633,-405.5723"/>
<polygon fill="#c0c0c0" stroke="#c0c0c0" stroke-width="2" points="843.8708,-406.9228 845.2125,-396.4133 837.6098,-403.7923 843.8708,-406.9228"/>
</g>
<!-- 32 -->
<g id="node33" class="node">
<title>32</title>
<path fill="none" stroke="#d89c56" stroke-width="2" d="M1178.4192,-396C1178.4192,-396 1044.4192,-396 1044.4192,-396 1038.4192,-396 1032.4192,-390 1032.4192,-384 1032.4192,-384 1032.4192,-372 1032.4192,-372 1032.4192,-366 1038.4192,-360 1044.4192,-360 1044.4192,-360 1178.4192,-360 1178.4192,-360 1184.4192,-360 1190.4192,-366 1190.4192,-372 1190.4192,-372 1190.4192,-384 1190.4192,-384 1190.4192,-390 1184.4192,-396 1178.4192,-396"/>
<text text-anchor="middle" x="1111.4192" y="-375.5" font-family="sans" font-size="10.00" fill="#000000">combine_background_counts</text>
</g>
<!-- 32&#45;&gt;22 -->
<g id="edge35" class="edge">
<title>32&#45;&gt;22</title>
<path fill="none" stroke="#c0c0c0" stroke-width="2" d="M1038.3632,-359.9243C989.5828,-347.8549 926.2172,-332.1768 880.3954,-320.8395"/>
<polygon fill="#c0c0c0" stroke="#c0c0c0" stroke-width="2" points="881.1529,-317.4214 870.6049,-318.4171 879.4715,-324.2165 881.1529,-317.4214"/>
</g>
<!-- 33 -->
<g id="node34" class="node">
<title>33</title>
<path fill="none" stroke="#d8ac56" stroke-width="2" d="M987.9192,-540C987.9192,-540 912.9192,-540 912.9192,-540 906.9192,-540 900.9192,-534 900.9192,-528 900.9192,-528 900.9192,-516 900.9192,-516 900.9192,-510 906.9192,-504 912.9192,-504 912.9192,-504 987.9192,-504 987.9192,-504 993.9192,-504 999.9192,-510 999.9192,-516 999.9192,-516 999.9192,-528 999.9192,-528 999.9192,-534 993.9192,-540 987.9192,-540"/>
<text text-anchor="middle" x="950.4192" y="-519.5" font-family="sans" font-size="10.00" fill="#000000">second_mapping</text>
</g>
<!-- 33&#45;&gt;25 -->
<g id="edge38" class="edge">
<title>33&#45;&gt;25</title>
<path fill="none" stroke="#c0c0c0" stroke-width="2" d="M951.4285,-503.8314C951.8563,-496.131 952.365,-486.9743 952.8404,-478.4166"/>
<polygon fill="#c0c0c0" stroke="#c0c0c0" stroke-width="2" points="956.336,-478.592 953.3962,-468.4133 949.3468,-478.2037 956.336,-478.592"/>
</g>
<!-- 33&#45;&gt;27 -->
<g id="edge39" class="edge">
<title>33&#45;&gt;27</title>
<path fill="none" stroke="#c0c0c0" stroke-width="2" d="M900.7552,-509.5408C855.9908,-498.3107 789.5323,-481.6381 738.3183,-468.79"/>
<polygon fill="#c0c0c0" stroke="#c0c0c0" stroke-width="2" points="739.1672,-465.3946 728.6161,-466.356 737.4638,-472.1842 739.1672,-465.3946"/>
</g>
<!-- 35 -->
<g id="node36" class="node">
<title>35</title>
<path fill="none" stroke="#a7d856" stroke-width="2" d="M1120.4192,-468C1120.4192,-468 1038.4192,-468 1038.4192,-468 1032.4192,-468 1026.4192,-462 1026.4192,-456 1026.4192,-456 1026.4192,-444 1026.4192,-444 1026.4192,-438 1032.4192,-432 1038.4192,-432 1038.4192,-432 1120.4192,-432 1120.4192,-432 1126.4192,-432 1132.4192,-438 1132.4192,-444 1132.4192,-444 1132.4192,-456 1132.4192,-456 1132.4192,-462 1126.4192,-468 1120.4192,-468"/>
<text text-anchor="middle" x="1079.4192" y="-447.5" font-family="sans" font-size="10.00" fill="#000000">count_background</text>
</g>
<!-- 33&#45;&gt;35 -->
<g id="edge52" class="edge">
<title>33&#45;&gt;35</title>
<path fill="none" stroke="#c0c0c0" stroke-width="2" d="M982.9713,-503.8314C999.624,-494.5368 1020.0777,-483.1208 1037.8577,-473.1971"/>
<polygon fill="#c0c0c0" stroke="#c0c0c0" stroke-width="2" points="1039.8512,-476.0927 1046.8774,-468.1628 1036.4396,-469.9803 1039.8512,-476.0927"/>
</g>
<!-- 34 -->
<g id="node35" class="node">
<title>34</title>
<path fill="none" stroke="#566bd8" stroke-width="2" d="M1025.9192,-756C1025.9192,-756 970.9192,-756 970.9192,-756 964.9192,-756 958.9192,-750 958.9192,-744 958.9192,-744 958.9192,-732 958.9192,-732 958.9192,-726 964.9192,-720 970.9192,-720 970.9192,-720 1025.9192,-720 1025.9192,-720 1031.9192,-720 1037.9192,-726 1037.9192,-732 1037.9192,-732 1037.9192,-744 1037.9192,-744 1037.9192,-750 1031.9192,-756 1025.9192,-756"/>
<text text-anchor="middle" x="998.4192" y="-735.5" font-family="sans" font-size="10.00" fill="#000000">generate_gtf</text>
</g>
<!-- 34&#45;&gt;31 -->
<g id="edge47" class="edge">
<title>34&#45;&gt;31</title>
<path fill="none" stroke="#c0c0c0" stroke-width="2" d="M958.8779,-724.6159C920.7851,-711.3756 867.9779,-691.9705 861.4192,-684 812.1308,-624.1022 812.0164,-526.159 815.4539,-478.2228"/>
<polygon fill="#c0c0c0" stroke="#c0c0c0" stroke-width="2" points="818.9431,-478.496 816.275,-468.2427 811.9667,-477.922 818.9431,-478.496"/>
</g>
<!-- 38 -->
<g id="node39" class="node">
<title>38</title>
<path fill="none" stroke="#d8cb56" stroke-width="2" d="M1038.9192,-684C1038.9192,-684 957.9192,-684 957.9192,-684 951.9192,-684 945.9192,-678 945.9192,-672 945.9192,-672 945.9192,-660 945.9192,-660 945.9192,-654 951.9192,-648 957.9192,-648 957.9192,-648 1038.9192,-648 1038.9192,-648 1044.9192,-648 1050.9192,-654 1050.9192,-660 1050.9192,-660 1050.9192,-672 1050.9192,-672 1050.9192,-678 1044.9192,-684 1038.9192,-684"/>
<text text-anchor="middle" x="998.4192" y="-663.5" font-family="sans" font-size="10.00" fill="#000000">generate_genome</text>
</g>
<!-- 34&#45;&gt;38 -->
<g id="edge57" class="edge">
<title>34&#45;&gt;38</title>
<path fill="none" stroke="#c0c0c0" stroke-width="2" d="M998.4192,-719.8314C998.4192,-712.131 998.4192,-702.9743 998.4192,-694.4166"/>
<polygon fill="#c0c0c0" stroke="#c0c0c0" stroke-width="2" points="1001.9193,-694.4132 998.4192,-684.4133 994.9193,-694.4133 1001.9193,-694.4132"/>
</g>
<!-- 39 -->
<g id="node40" class="node">
<title>39</title>
<path fill="none" stroke="#56d863" stroke-width="2" d="M1101.9192,-612C1101.9192,-612 1056.9192,-612 1056.9192,-612 1050.9192,-612 1044.9192,-606 1044.9192,-600 1044.9192,-600 1044.9192,-588 1044.9192,-588 1044.9192,-582 1050.9192,-576 1056.9192,-576 1056.9192,-576 1101.9192,-576 1101.9192,-576 1107.9192,-576 1113.9192,-582 1113.9192,-588 1113.9192,-588 1113.9192,-600 1113.9192,-600 1113.9192,-606 1107.9192,-612 1101.9192,-612"/>
<text text-anchor="middle" x="1079.4192" y="-591.5" font-family="sans" font-size="10.00" fill="#000000">shuffle_gtf</text>
</g>
<!-- 34&#45;&gt;39 -->
<g id="edge58" class="edge">
<title>34&#45;&gt;39</title>
<path fill="none" stroke="#c0c0c0" stroke-width="2" d="M1026.5584,-719.7818C1038.7484,-710.4882 1052.1043,-698.1536 1060.4192,-684 1071.441,-665.2384 1076.1126,-640.952 1078.0714,-622.3372"/>
<polygon fill="#c0c0c0" stroke="#c0c0c0" stroke-width="2" points="1081.5805,-622.3772 1078.9387,-612.117 1074.6056,-621.7852 1081.5805,-622.3772"/>
</g>
<!-- 35&#45;&gt;32 -->
<g id="edge48" class="edge">
<title>35&#45;&gt;32</title>
<path fill="none" stroke="#c0c0c0" stroke-width="2" d="M1087.4941,-431.8314C1091.0293,-423.8771 1095.2551,-414.369 1099.1648,-405.5723"/>
<polygon fill="#c0c0c0" stroke="#c0c0c0" stroke-width="2" points="1102.3724,-406.9729 1103.2355,-396.4133 1095.9757,-404.1299 1102.3724,-406.9729"/>
</g>
<!-- 36 -->
<g id="node37" class="node">
<title>36</title>
<path fill="none" stroke="#5673d8" stroke-width="2" d="M912.4192,-684C912.4192,-684 882.4192,-684 882.4192,-684 876.4192,-684 870.4192,-678 870.4192,-672 870.4192,-672 870.4192,-660 870.4192,-660 870.4192,-654 876.4192,-648 882.4192,-648 882.4192,-648 912.4192,-648 912.4192,-648 918.4192,-648 924.4192,-654 924.4192,-660 924.4192,-660 924.4192,-672 924.4192,-672 924.4192,-678 918.4192,-684 912.4192,-684"/>
<text text-anchor="middle" x="897.4192" y="-663.5" font-family="sans" font-size="10.00" fill="#000000">gzip</text>
</g>
<!-- 36&#45;&gt;33 -->
<g id="edge49" class="edge">
<title>36&#45;&gt;33</title>
<path fill="none" stroke="#c0c0c0" stroke-width="2" d="M892.8458,-647.9513C889.0259,-629.1859 885.6229,-599.3468 895.4192,-576 900.0244,-565.0247 908.0689,-555.1573 916.6068,-546.9529"/>
<polygon fill="#c0c0c0" stroke="#c0c0c0" stroke-width="2" points="919.0492,-549.464 924.1629,-540.1849 914.3788,-544.2497 919.0492,-549.464"/>
</g>
<!-- 37 -->
<g id="node38" class="node">
<title>37</title>
<path fill="none" stroke="#d8d356" stroke-width="2" d="M976.4192,-612C976.4192,-612 916.4192,-612 916.4192,-612 910.4192,-612 904.4192,-606 904.4192,-600 904.4192,-600 904.4192,-588 904.4192,-588 904.4192,-582 910.4192,-576 916.4192,-576 916.4192,-576 976.4192,-576 976.4192,-576 982.4192,-576 988.4192,-582 988.4192,-588 988.4192,-588 988.4192,-600 988.4192,-600 988.4192,-606 982.4192,-612 976.4192,-612"/>
<text text-anchor="middle" x="946.4192" y="-591.5" font-family="sans" font-size="10.00" fill="#000000">first_mapping</text>
</g>
<!-- 36&#45;&gt;37 -->
<g id="edge55" class="edge">
<title>36&#45;&gt;37</title>
<path fill="none" stroke="#c0c0c0" stroke-width="2" d="M909.7839,-647.8314C915.37,-639.6232 922.0821,-629.7606 928.2263,-620.7323"/>
<polygon fill="#c0c0c0" stroke="#c0c0c0" stroke-width="2" points="931.1551,-622.6496 933.8879,-612.4133 925.3681,-618.7112 931.1551,-622.6496"/>
</g>
<!-- 37&#45;&gt;33 -->
<g id="edge51" class="edge">
<title>37&#45;&gt;33</title>
<path fill="none" stroke="#c0c0c0" stroke-width="2" d="M947.4285,-575.8314C947.8563,-568.131 948.365,-558.9743 948.8404,-550.4166"/>
<polygon fill="#c0c0c0" stroke="#c0c0c0" stroke-width="2" points="952.336,-550.592 949.3962,-540.4133 945.3468,-550.2037 952.336,-550.592"/>
</g>
<!-- 38&#45;&gt;33 -->
<g id="edge50" class="edge">
<title>38&#45;&gt;33</title>
<path fill="none" stroke="#c0c0c0" stroke-width="2" d="M1001.8051,-647.7306C1004.4561,-629.0478 1006.3676,-599.5125 997.4192,-576 993.466,-565.6129 986.5399,-555.8936 979.2002,-547.6429"/>
<polygon fill="#c0c0c0" stroke="#c0c0c0" stroke-width="2" points="981.5509,-545.0362 972.1199,-540.2086 976.482,-549.8638 981.5509,-545.0362"/>
</g>
<!-- 38&#45;&gt;37 -->
<g id="edge56" class="edge">
<title>38&#45;&gt;37</title>
<path fill="none" stroke="#c0c0c0" stroke-width="2" d="M985.2974,-647.8314C979.3693,-639.6232 972.2462,-629.7606 965.7258,-620.7323"/>
<polygon fill="#c0c0c0" stroke="#c0c0c0" stroke-width="2" points="968.41,-618.4708 959.7176,-612.4133 962.7352,-622.5693 968.41,-618.4708"/>
</g>
<!-- 38&#45;&gt;39 -->
<g id="edge59" class="edge">
<title>38&#45;&gt;39</title>
<path fill="none" stroke="#c0c0c0" stroke-width="2" d="M1018.8589,-647.8314C1028.7396,-639.0485 1040.7516,-628.3712 1051.4642,-618.8489"/>
<polygon fill="#c0c0c0" stroke="#c0c0c0" stroke-width="2" points="1053.8371,-621.4224 1058.986,-612.1628 1049.1866,-616.1906 1053.8371,-621.4224"/>
</g>
<!-- 39&#45;&gt;35 -->
<g id="edge53" class="edge">
<title>39&#45;&gt;35</title>
<path fill="none" stroke="#c0c0c0" stroke-width="2" d="M1079.4192,-575.7623C1079.4192,-551.201 1079.4192,-507.2474 1079.4192,-478.3541"/>
<polygon fill="#c0c0c0" stroke="#c0c0c0" stroke-width="2" points="1082.9192,-478.0896 1079.4192,-468.0896 1075.9192,-478.0897 1082.9192,-478.0896"/>
</g>
<!-- 40 -->
<g id="node41" class="node">
<title>40</title>
<path fill="none" stroke="#d8bc56" stroke-width="2" d="M914.9192,-756C914.9192,-756 879.9192,-756 879.9192,-756 873.9192,-756 867.9192,-750 867.9192,-744 867.9192,-744 867.9192,-732 867.9192,-732 867.9192,-726 873.9192,-720 879.9192,-720 879.9192,-720 914.9192,-720 914.9192,-720 920.9192,-720 926.9192,-726 926.9192,-732 926.9192,-732 926.9192,-744 926.9192,-744 926.9192,-750 920.9192,-756 914.9192,-756"/>
<text text-anchor="middle" x="897.4192" y="-735.5" font-family="sans" font-size="10.00" fill="#000000">cutadapt</text>
</g>
<!-- 40&#45;&gt;36 -->
<g id="edge54" class="edge">
<title>40&#45;&gt;36</title>
<path fill="none" stroke="#c0c0c0" stroke-width="2" d="M897.4192,-719.8314C897.4192,-712.131 897.4192,-702.9743 897.4192,-694.4166"/>
<polygon fill="#c0c0c0" stroke="#c0c0c0" stroke-width="2" points="900.9193,-694.4132 897.4192,-684.4133 893.9193,-694.4133 900.9193,-694.4132"/>
</g>
<!-- 41 -->
<g id="node42" class="node">
<title>41</title>
<path fill="none" stroke="#59d856" stroke-width="2" d="M912.4192,-828C912.4192,-828 882.4192,-828 882.4192,-828 876.4192,-828 870.4192,-822 870.4192,-816 870.4192,-816 870.4192,-804 870.4192,-804 870.4192,-798 876.4192,-792 882.4192,-792 882.4192,-792 912.4192,-792 912.4192,-792 918.4192,-792 924.4192,-798 924.4192,-804 924.4192,-804 924.4192,-816 924.4192,-816 924.4192,-822 918.4192,-828 912.4192,-828"/>
<text text-anchor="middle" x="897.4192" y="-807.5" font-family="sans" font-size="10.00" fill="#000000">repair</text>
</g>
<!-- 41&#45;&gt;40 -->
<g id="edge60" class="edge">
<title>41&#45;&gt;40</title>
<path fill="none" stroke="#c0c0c0" stroke-width="2" d="M897.4192,-791.8314C897.4192,-784.131 897.4192,-774.9743 897.4192,-766.4166"/>
<polygon fill="#c0c0c0" stroke="#c0c0c0" stroke-width="2" points="900.9193,-766.4132 897.4192,-756.4133 893.9193,-766.4133 900.9193,-766.4132"/>
</g>
</g>
</svg>
