<?xml version="1.0" encoding="UTF-8" standalone="no"?>
<!DOCTYPE svg PUBLIC "-//W3C//DTD SVG 1.1//EN"
 "http://www.w3.org/Graphics/SVG/1.1/DTD/svg11.dtd">
<!-- Generated by graphviz version 2.40.1 (20161225.0304)
 -->
<!-- Title: snakemake_dag Pages: 1 -->
<svg width="1248pt" height="836pt"
 viewBox="0.00 0.00 1248.00 836.00" xmlns="http://www.w3.org/2000/svg" xmlns:xlink="http://www.w3.org/1999/xlink">
<g id="graph0" class="graph" transform="scale(1 1) rotate(0) translate(4 832)">
<title>snakemake_dag</title>
<polygon fill="#ffffff" stroke="transparent" points="-4,4 -4,-832 1244,-832 1244,4 -4,4"/>
<!-- 0 -->
<g id="node1" class="node">
<title>0</title>
<path fill="none" stroke="#97d856" stroke-width="2" d="M880,-108C880,-108 783,-108 783,-108 777,-108 771,-102 771,-96 771,-96 771,-84 771,-84 771,-78 777,-72 783,-72 783,-72 880,-72 880,-72 886,-72 892,-78 892,-84 892,-84 892,-96 892,-96 892,-102 886,-108 880,-108"/>
<text text-anchor="middle" x="831.5" y="-87.5" font-family="sans" font-size="10.00" fill="#000000">de_genes_interaction</text>
</g>
<!-- 1 -->
<g id="node2" class="node">
<title>1</title>
<path fill="none" stroke="#56d8a9" stroke-width="2" d="M618.5,-324C618.5,-324 526.5,-324 526.5,-324 520.5,-324 514.5,-318 514.5,-312 514.5,-312 514.5,-300 514.5,-300 514.5,-294 520.5,-288 526.5,-288 526.5,-288 618.5,-288 618.5,-288 624.5,-288 630.5,-294 630.5,-300 630.5,-300 630.5,-312 630.5,-312 630.5,-318 624.5,-324 618.5,-324"/>
<text text-anchor="middle" x="572.5" y="-303.5" font-family="sans" font-size="10.00" fill="#000000">mads_ap2_heatmap</text>
</g>
<!-- 2 -->
<g id="node3" class="node">
<title>2</title>
<path fill="none" stroke="#56d8b9" stroke-width="2" d="M744,-324C744,-324 661,-324 661,-324 655,-324 649,-318 649,-312 649,-312 649,-300 649,-300 649,-294 655,-288 661,-288 661,-288 744,-288 744,-288 750,-288 756,-294 756,-300 756,-300 756,-312 756,-312 756,-318 750,-324 744,-324"/>
<text text-anchor="middle" x="702.5" y="-303.5" font-family="sans" font-size="10.00" fill="#000000">transcriptome_pca</text>
</g>
<!-- 3 -->
<g id="node4" class="node">
<title>3</title>
<path fill="none" stroke="#5692d8" stroke-width="2" d="M920,-396C920,-396 883,-396 883,-396 877,-396 871,-390 871,-384 871,-384 871,-372 871,-372 871,-366 877,-360 883,-360 883,-360 920,-360 920,-360 926,-360 932,-366 932,-372 932,-372 932,-384 932,-384 932,-390 926,-396 920,-396"/>
<text text-anchor="middle" x="901.5" y="-375.5" font-family="sans" font-size="10.00" fill="#000000">star_logs</text>
</g>
<!-- 4 -->
<g id="node5" class="node">
<title>4</title>
<path fill="none" stroke="#567bd8" stroke-width="2" d="M553,-36C553,-36 446,-36 446,-36 440,-36 434,-30 434,-24 434,-24 434,-12 434,-12 434,-6 440,0 446,0 446,0 553,0 553,0 559,0 565,-6 565,-12 565,-12 565,-24 565,-24 565,-30 559,-36 553,-36"/>
<text text-anchor="middle" x="499.5" y="-15.5" font-family="sans" font-size="10.00" fill="#000000">cluster_phenotype_corr</text>
</g>
<!-- 5 -->
<g id="node6" class="node">
<title>5</title>
<path fill="none" stroke="#68d856" stroke-width="2" d="M174,-36C174,-36 107,-36 107,-36 101,-36 95,-30 95,-24 95,-24 95,-12 95,-12 95,-6 101,0 107,0 107,0 174,0 174,0 180,0 186,-6 186,-12 186,-12 186,-24 186,-24 186,-30 180,-36 174,-36"/>
<text text-anchor="middle" x="140.5" y="-15.5" font-family="sans" font-size="10.00" fill="#000000">phenotype_pca</text>
</g>
<!-- 6 -->
<g id="node7" class="node">
<title>6</title>
<path fill="none" stroke="#59d856" stroke-width="2" d="M987,-828C987,-828 910,-828 910,-828 904,-828 898,-822 898,-816 898,-816 898,-804 898,-804 898,-798 904,-792 910,-792 910,-792 987,-792 987,-792 993,-792 999,-798 999,-804 999,-804 999,-816 999,-816 999,-822 993,-828 987,-828"/>
<text text-anchor="middle" x="948.5" y="-807.5" font-family="sans" font-size="10.00" fill="#000000">phenotyping_mpl</text>
</g>
<!-- 7 -->
<g id="node8" class="node">
<title>7</title>
<path fill="none" stroke="#56d8d0" stroke-width="2" d="M95,-180C95,-180 12,-180 12,-180 6,-180 0,-174 0,-168 0,-168 0,-156 0,-156 0,-150 6,-144 12,-144 12,-144 95,-144 95,-144 101,-144 107,-150 107,-156 107,-156 107,-168 107,-168 107,-174 101,-180 95,-180"/>
<text text-anchor="middle" x="53.5" y="-159.5" font-family="sans" font-size="10.00" fill="#000000">distance_heatmap</text>
</g>
<!-- 8 -->
<g id="node9" class="node">
<title>8</title>
<path fill="none" stroke="#56d85b" stroke-width="2" d="M741,-108C741,-108 692,-108 692,-108 686,-108 680,-102 680,-96 680,-96 680,-84 680,-84 680,-78 686,-72 692,-72 692,-72 741,-72 741,-72 747,-72 753,-78 753,-84 753,-84 753,-96 753,-96 753,-102 747,-108 741,-108"/>
<text text-anchor="middle" x="716.5" y="-87.5" font-family="sans" font-size="10.00" fill="#000000">dom_genes</text>
</g>
<!-- 9 -->
<g id="node10" class="node">
<title>9</title>
<path fill="none" stroke="#5663d8" stroke-width="2" d="M611.5,-108C611.5,-108 539.5,-108 539.5,-108 533.5,-108 527.5,-102 527.5,-96 527.5,-96 527.5,-84 527.5,-84 527.5,-78 533.5,-72 539.5,-72 539.5,-72 611.5,-72 611.5,-72 617.5,-72 623.5,-78 623.5,-84 623.5,-84 623.5,-96 623.5,-96 623.5,-102 617.5,-108 611.5,-108"/>
<text text-anchor="middle" x="575.5" y="-87.5" font-family="sans" font-size="10.00" fill="#000000">clustered_genes</text>
</g>
<!-- 10 -->
<g id="node11" class="node">
<title>10</title>
<path fill="none" stroke="#56d892" stroke-width="2" d="M298,-108C298,-108 227,-108 227,-108 221,-108 215,-102 215,-96 215,-96 215,-84 215,-84 215,-78 221,-72 227,-72 227,-72 298,-72 298,-72 304,-72 310,-78 310,-84 310,-84 310,-96 310,-96 310,-102 304,-108 298,-108"/>
<text text-anchor="middle" x="262.5" y="-87.5" font-family="sans" font-size="10.00" fill="#000000">de_genes_stage</text>
</g>
<!-- 11 -->
<g id="node12" class="node">
<title>11</title>
<path fill="none" stroke="#d8cb56" stroke-width="2" d="M703.5,-180C703.5,-180 663.5,-180 663.5,-180 657.5,-180 651.5,-174 651.5,-168 651.5,-168 651.5,-156 651.5,-156 651.5,-150 657.5,-144 663.5,-144 663.5,-144 703.5,-144 703.5,-144 709.5,-144 715.5,-150 715.5,-156 715.5,-156 715.5,-168 715.5,-168 715.5,-174 709.5,-180 703.5,-180"/>
<text text-anchor="middle" x="683.5" y="-159.5" font-family="sans" font-size="10.00" fill="#000000">deseq_tfs</text>
</g>
<!-- 11&#45;&gt;0 -->
<g id="edge1" class="edge">
<title>11&#45;&gt;0</title>
<path fill="none" stroke="#c0c0c0" stroke-width="2" d="M715.6138,-146.3771C736.0126,-136.4533 762.743,-123.4494 785.3907,-112.4316"/>
<polygon fill="#c0c0c0" stroke="#c0c0c0" stroke-width="2" points="787.0307,-115.526 794.4919,-108.0039 783.9684,-109.2313 787.0307,-115.526"/>
</g>
<!-- 11&#45;&gt;4 -->
<g id="edge11" class="edge">
<title>11&#45;&gt;4</title>
<path fill="none" stroke="#c0c0c0" stroke-width="2" d="M677.329,-143.7431C669.6969,-123.6717 654.9041,-91.6683 632.5,-72 616.0091,-57.5228 595.1273,-46.6161 574.8264,-38.5364"/>
<polygon fill="#c0c0c0" stroke="#c0c0c0" stroke-width="2" points="575.8361,-35.1762 565.2446,-34.9074 573.3567,-41.7224 575.8361,-35.1762"/>
</g>
<!-- 11&#45;&gt;8 -->
<g id="edge16" class="edge">
<title>11&#45;&gt;8</title>
<path fill="none" stroke="#c0c0c0" stroke-width="2" d="M691.8273,-143.8314C695.473,-135.8771 699.8309,-126.369 703.8627,-117.5723"/>
<polygon fill="#c0c0c0" stroke="#c0c0c0" stroke-width="2" points="707.0757,-118.9622 708.0606,-108.4133 700.7123,-116.0456 707.0757,-118.9622"/>
</g>
<!-- 12 -->
<g id="node13" class="node">
<title>12</title>
<path fill="none" stroke="#d8bc56" stroke-width="2" d="M446.5,-396C446.5,-396 396.5,-396 396.5,-396 390.5,-396 384.5,-390 384.5,-384 384.5,-384 384.5,-372 384.5,-372 384.5,-366 390.5,-360 396.5,-360 396.5,-360 446.5,-360 446.5,-360 452.5,-360 458.5,-366 458.5,-372 458.5,-372 458.5,-384 458.5,-384 458.5,-390 452.5,-396 446.5,-396"/>
<text text-anchor="middle" x="421.5" y="-375.5" font-family="sans" font-size="10.00" fill="#000000">format_tfdb</text>
</g>
<!-- 12&#45;&gt;1 -->
<g id="edge5" class="edge">
<title>12&#45;&gt;1</title>
<path fill="none" stroke="#c0c0c0" stroke-width="2" d="M458.8259,-360.2022C478.9101,-350.6256 503.8853,-338.7169 525.306,-328.5031"/>
<polygon fill="#c0c0c0" stroke="#c0c0c0" stroke-width="2" points="527.0347,-331.5564 534.5547,-324.0931 524.0219,-325.2379 527.0347,-331.5564"/>
</g>
<!-- 18 -->
<g id="node19" class="node">
<title>18</title>
<path fill="none" stroke="#56d88a" stroke-width="2" d="M447,-180C447,-180 406,-180 406,-180 400,-180 394,-174 394,-168 394,-168 394,-156 394,-156 394,-150 400,-144 406,-144 406,-144 447,-144 447,-144 453,-144 459,-150 459,-156 459,-156 459,-168 459,-168 459,-174 453,-180 447,-180"/>
<text text-anchor="middle" x="426.5" y="-159.5" font-family="sans" font-size="10.00" fill="#000000">mfuzz_tfs</text>
</g>
<!-- 12&#45;&gt;18 -->
<g id="edge29" class="edge">
<title>12&#45;&gt;18</title>
<path fill="none" stroke="#c0c0c0" stroke-width="2" d="M421.9177,-359.9555C422.7872,-322.3938 424.7974,-235.5541 425.8424,-190.4103"/>
<polygon fill="#c0c0c0" stroke="#c0c0c0" stroke-width="2" points="429.3475,-190.2234 426.08,-180.1451 422.3494,-190.0614 429.3475,-190.2234"/>
</g>
<!-- 24 -->
<g id="node25" class="node">
<title>24</title>
<path fill="none" stroke="#566bd8" stroke-width="2" d="M503,-252C503,-252 470,-252 470,-252 464,-252 458,-246 458,-240 458,-240 458,-228 458,-228 458,-222 464,-216 470,-216 470,-216 503,-216 503,-216 509,-216 515,-222 515,-228 515,-228 515,-240 515,-240 515,-246 509,-252 503,-252"/>
<text text-anchor="middle" x="486.5" y="-231.5" font-family="sans" font-size="10.00" fill="#000000">filter_tfs</text>
</g>
<!-- 12&#45;&gt;24 -->
<g id="edge39" class="edge">
<title>12&#45;&gt;24</title>
<path fill="none" stroke="#c0c0c0" stroke-width="2" d="M429.7323,-359.7623C440.9655,-334.8764 461.1851,-290.0822 474.2148,-261.2165"/>
<polygon fill="#c0c0c0" stroke="#c0c0c0" stroke-width="2" points="477.4104,-262.6441 478.3345,-252.0896 471.0302,-259.7641 477.4104,-262.6441"/>
</g>
<!-- 13 -->
<g id="node14" class="node">
<title>13</title>
<path fill="none" stroke="#88d856" stroke-width="2" d="M584,-396C584,-396 527,-396 527,-396 521,-396 515,-390 515,-384 515,-384 515,-372 515,-372 515,-366 521,-360 527,-360 527,-360 584,-360 584,-360 590,-360 596,-366 596,-372 596,-372 596,-384 596,-384 596,-390 590,-396 584,-396"/>
<text text-anchor="middle" x="555.5" y="-375.5" font-family="sans" font-size="10.00" fill="#000000">tfdb_families</text>
</g>
<!-- 13&#45;&gt;1 -->
<g id="edge2" class="edge">
<title>13&#45;&gt;1</title>
<path fill="none" stroke="#c0c0c0" stroke-width="2" d="M559.7898,-359.8314C561.608,-352.131 563.7699,-342.9743 565.7905,-334.4166"/>
<polygon fill="#c0c0c0" stroke="#c0c0c0" stroke-width="2" points="569.2608,-334.95 568.1524,-324.4133 562.4481,-333.3414 569.2608,-334.95"/>
</g>
<!-- 14 -->
<g id="node15" class="node">
<title>14</title>
<path fill="none" stroke="#56d8a2" stroke-width="2" d="M734.5,-468C734.5,-468 628.5,-468 628.5,-468 622.5,-468 616.5,-462 616.5,-456 616.5,-456 616.5,-444 616.5,-444 616.5,-438 622.5,-432 628.5,-432 628.5,-432 734.5,-432 734.5,-432 740.5,-432 746.5,-438 746.5,-444 746.5,-444 746.5,-456 746.5,-456 746.5,-462 740.5,-468 734.5,-468"/>
<text text-anchor="middle" x="681.5" y="-447.5" font-family="sans" font-size="10.00" fill="#000000">generate_deseq_object</text>
</g>
<!-- 14&#45;&gt;1 -->
<g id="edge4" class="edge">
<title>14&#45;&gt;1</title>
<path fill="none" stroke="#c0c0c0" stroke-width="2" d="M667.6951,-431.7623C648.6122,-406.5518 614.0641,-360.9103 592.2526,-332.0952"/>
<polygon fill="#c0c0c0" stroke="#c0c0c0" stroke-width="2" points="595.0189,-329.9506 586.1928,-324.0896 589.4376,-334.1754 595.0189,-329.9506"/>
</g>
<!-- 15 -->
<g id="node16" class="node">
<title>15</title>
<path fill="none" stroke="#d86e56" stroke-width="2" d="M698.5,-396C698.5,-396 664.5,-396 664.5,-396 658.5,-396 652.5,-390 652.5,-384 652.5,-384 652.5,-372 652.5,-372 652.5,-366 658.5,-360 664.5,-360 664.5,-360 698.5,-360 698.5,-360 704.5,-360 710.5,-366 710.5,-372 710.5,-372 710.5,-384 710.5,-384 710.5,-390 704.5,-396 698.5,-396"/>
<text text-anchor="middle" x="681.5" y="-375.5" font-family="sans" font-size="10.00" fill="#000000">rlog_pca</text>
</g>
<!-- 14&#45;&gt;15 -->
<g id="edge21" class="edge">
<title>14&#45;&gt;15</title>
<path fill="none" stroke="#c0c0c0" stroke-width="2" d="M681.5,-431.8314C681.5,-424.131 681.5,-414.9743 681.5,-406.4166"/>
<polygon fill="#c0c0c0" stroke="#c0c0c0" stroke-width="2" points="685.0001,-406.4132 681.5,-396.4133 678.0001,-406.4133 685.0001,-406.4132"/>
</g>
<!-- 17 -->
<g id="node18" class="node">
<title>17</title>
<path fill="none" stroke="#56c9d8" stroke-width="2" d="M904,-324C904,-324 829,-324 829,-324 823,-324 817,-318 817,-312 817,-312 817,-300 817,-300 817,-294 823,-288 829,-288 829,-288 904,-288 904,-288 910,-288 916,-294 916,-300 916,-300 916,-312 916,-312 916,-318 910,-324 904,-324"/>
<text text-anchor="middle" x="866.5" y="-303.5" font-family="sans" font-size="10.00" fill="#000000">calculate_cutoffs</text>
</g>
<!-- 14&#45;&gt;17 -->
<g id="edge27" class="edge">
<title>14&#45;&gt;17</title>
<path fill="none" stroke="#c0c0c0" stroke-width="2" d="M693.4146,-431.8588C707.0465,-412.1863 730.9413,-380.8154 757.5,-360 773.4238,-347.5197 792.6941,-336.818 810.5762,-328.3114"/>
<polygon fill="#c0c0c0" stroke="#c0c0c0" stroke-width="2" points="812.163,-331.4339 819.7758,-324.0653 809.2295,-325.0782 812.163,-331.4339"/>
</g>
<!-- 22 -->
<g id="node23" class="node">
<title>22</title>
<path fill="none" stroke="#56d86b" stroke-width="2" d="M365,-252C365,-252 280,-252 280,-252 274,-252 268,-246 268,-240 268,-240 268,-228 268,-228 268,-222 274,-216 280,-216 280,-216 365,-216 365,-216 371,-216 377,-222 377,-228 377,-228 377,-240 377,-240 377,-246 371,-252 365,-252"/>
<text text-anchor="middle" x="322.5" y="-231.5" font-family="sans" font-size="10.00" fill="#000000">filter_deseq_object</text>
</g>
<!-- 14&#45;&gt;22 -->
<g id="edge34" class="edge">
<title>14&#45;&gt;22</title>
<path fill="none" stroke="#c0c0c0" stroke-width="2" d="M616.2894,-446.2448C537.3636,-440.4098 410.6441,-426.4922 375.5,-396 336.3389,-362.0225 325.9561,-298.6729 323.3031,-262.0703"/>
<polygon fill="#c0c0c0" stroke="#c0c0c0" stroke-width="2" points="326.7961,-261.8474 322.7231,-252.0668 319.8079,-262.2526 326.7961,-261.8474"/>
</g>
<!-- 14&#45;&gt;24 -->
<g id="edge37" class="edge">
<title>14&#45;&gt;24</title>
<path fill="none" stroke="#c0c0c0" stroke-width="2" d="M616.06,-437.6794C572.2231,-428.0348 519.9795,-413.3689 505.5,-396 474.1957,-358.449 476.4723,-297.8699 481.2742,-262.3997"/>
<polygon fill="#c0c0c0" stroke="#c0c0c0" stroke-width="2" points="484.7742,-262.6624 482.8111,-252.251 477.8531,-261.6142 484.7742,-262.6624"/>
</g>
<!-- 28 -->
<g id="node29" class="node">
<title>28</title>
<path fill="none" stroke="#d89c56" stroke-width="2" d="M840.5,-396C840.5,-396 778.5,-396 778.5,-396 772.5,-396 766.5,-390 766.5,-384 766.5,-384 766.5,-372 766.5,-372 766.5,-366 772.5,-360 778.5,-360 778.5,-360 840.5,-360 840.5,-360 846.5,-360 852.5,-366 852.5,-372 852.5,-372 852.5,-384 852.5,-384 852.5,-390 846.5,-396 840.5,-396"/>
<text text-anchor="middle" x="809.5" y="-375.5" font-family="sans" font-size="10.00" fill="#000000">calculate_tpm</text>
</g>
<!-- 14&#45;&gt;28 -->
<g id="edge45" class="edge">
<title>14&#45;&gt;28</title>
<path fill="none" stroke="#c0c0c0" stroke-width="2" d="M713.7998,-431.8314C730.3234,-422.5368 750.6186,-411.1208 768.2607,-401.1971"/>
<polygon fill="#c0c0c0" stroke="#c0c0c0" stroke-width="2" points="770.2107,-404.116 777.2105,-396.1628 766.7788,-398.015 770.2107,-404.116"/>
</g>
<!-- 15&#45;&gt;1 -->
<g id="edge3" class="edge">
<title>15&#45;&gt;1</title>
<path fill="none" stroke="#c0c0c0" stroke-width="2" d="M653.9947,-359.8314C640.182,-350.7074 623.2744,-339.539 608.4471,-329.7449"/>
<polygon fill="#c0c0c0" stroke="#c0c0c0" stroke-width="2" points="610.2696,-326.7541 599.9965,-324.1628 606.4114,-332.5949 610.2696,-326.7541"/>
</g>
<!-- 15&#45;&gt;2 -->
<g id="edge6" class="edge">
<title>15&#45;&gt;2</title>
<path fill="none" stroke="#c0c0c0" stroke-width="2" d="M686.7992,-359.8314C689.0698,-352.0463 691.7746,-342.7729 694.294,-334.1347"/>
<polygon fill="#c0c0c0" stroke="#c0c0c0" stroke-width="2" points="697.6894,-334.9933 697.1295,-324.4133 690.9694,-333.0332 697.6894,-334.9933"/>
</g>
<!-- 16 -->
<g id="node17" class="node">
<title>16</title>
<path fill="none" stroke="#d8a456" stroke-width="2" d="M936,-468C936,-468 867,-468 867,-468 861,-468 855,-462 855,-456 855,-456 855,-444 855,-444 855,-438 861,-432 867,-432 867,-432 936,-432 936,-432 942,-432 948,-438 948,-444 948,-444 948,-456 948,-456 948,-462 942,-468 936,-468"/>
<text text-anchor="middle" x="901.5" y="-447.5" font-family="sans" font-size="10.00" fill="#000000">parse_star_logs</text>
</g>
<!-- 16&#45;&gt;3 -->
<g id="edge7" class="edge">
<title>16&#45;&gt;3</title>
<path fill="none" stroke="#c0c0c0" stroke-width="2" d="M901.5,-431.8314C901.5,-424.131 901.5,-414.9743 901.5,-406.4166"/>
<polygon fill="#c0c0c0" stroke="#c0c0c0" stroke-width="2" points="905.0001,-406.4132 901.5,-396.4133 898.0001,-406.4133 905.0001,-406.4132"/>
</g>
<!-- 16&#45;&gt;17 -->
<g id="edge25" class="edge">
<title>16&#45;&gt;17</title>
<path fill="none" stroke="#c0c0c0" stroke-width="2" d="M919.0476,-431.7706C934.5238,-413.3734 952.8443,-384.2895 940.5,-360 934.3561,-347.9109 924.0957,-337.8843 913.1426,-329.8874"/>
<polygon fill="#c0c0c0" stroke="#c0c0c0" stroke-width="2" points="914.932,-326.8723 904.6883,-324.1672 911.0093,-332.6699 914.932,-326.8723"/>
</g>
<!-- 16&#45;&gt;28 -->
<g id="edge47" class="edge">
<title>16&#45;&gt;28</title>
<path fill="none" stroke="#c0c0c0" stroke-width="2" d="M878.2845,-431.8314C866.953,-422.9632 853.1536,-412.1637 840.8973,-402.5718"/>
<polygon fill="#c0c0c0" stroke="#c0c0c0" stroke-width="2" points="842.7402,-399.5697 832.7081,-396.1628 838.426,-405.0822 842.7402,-399.5697"/>
</g>
<!-- 17&#45;&gt;4 -->
<g id="edge10" class="edge">
<title>17&#45;&gt;4</title>
<path fill="none" stroke="#c0c0c0" stroke-width="2" d="M877.5036,-287.8117C902.0967,-244.5721 955.2186,-134.5811 900.5,-72 879.4538,-47.9297 685.5179,-30.7836 575.2543,-22.8876"/>
<polygon fill="#c0c0c0" stroke="#c0c0c0" stroke-width="2" points="575.402,-19.3893 565.18,-22.1752 574.9082,-26.3719 575.402,-19.3893"/>
</g>
<!-- 17&#45;&gt;22 -->
<g id="edge35" class="edge">
<title>17&#45;&gt;22</title>
<path fill="none" stroke="#c0c0c0" stroke-width="2" d="M816.7936,-296.5994C800.1986,-293.6289 781.5839,-290.4782 764.5,-288 624.6112,-267.708 588.7025,-269.997 448.5,-252 428.5296,-249.4365 406.8131,-246.4176 387.1233,-243.5921"/>
<polygon fill="#c0c0c0" stroke="#c0c0c0" stroke-width="2" points="387.429,-240.1 377.0315,-242.1356 386.429,-247.0282 387.429,-240.1"/>
</g>
<!-- 17&#45;&gt;24 -->
<g id="edge38" class="edge">
<title>17&#45;&gt;24</title>
<path fill="none" stroke="#c0c0c0" stroke-width="2" d="M816.8216,-296.5873C740.2794,-282.0845 595.0904,-254.575 525.5446,-241.3979"/>
<polygon fill="#c0c0c0" stroke="#c0c0c0" stroke-width="2" points="525.9286,-237.9085 515.4519,-239.4856 524.6255,-244.7861 525.9286,-237.9085"/>
</g>
<!-- 18&#45;&gt;4 -->
<g id="edge12" class="edge">
<title>18&#45;&gt;4</title>
<path fill="none" stroke="#c0c0c0" stroke-width="2" d="M449.3825,-143.9604C460.0653,-134.3723 472.0419,-121.738 479.5,-108 489.8417,-88.9503 494.8387,-64.87 497.2517,-46.4121"/>
<polygon fill="#c0c0c0" stroke="#c0c0c0" stroke-width="2" points="500.7521,-46.6037 498.3946,-36.2745 493.7962,-45.8194 500.7521,-46.6037"/>
</g>
<!-- 18&#45;&gt;9 -->
<g id="edge17" class="edge">
<title>18&#45;&gt;9</title>
<path fill="none" stroke="#c0c0c0" stroke-width="2" d="M459.1987,-146.1993C479.678,-136.3032 506.3882,-123.3963 529.0459,-112.4476"/>
<polygon fill="#c0c0c0" stroke="#c0c0c0" stroke-width="2" points="530.6723,-115.549 538.1534,-108.0467 527.6267,-109.2463 530.6723,-115.549"/>
</g>
<!-- 19 -->
<g id="node20" class="node">
<title>19</title>
<path fill="none" stroke="#56d8c1" stroke-width="2" d="M459,-108C459,-108 340,-108 340,-108 334,-108 328,-102 328,-96 328,-96 328,-84 328,-84 328,-78 334,-72 340,-72 340,-72 459,-72 459,-72 465,-72 471,-78 471,-84 471,-84 471,-96 471,-96 471,-102 465,-108 459,-108"/>
<text text-anchor="middle" x="399.5" y="-87.5" font-family="sans" font-size="10.00" fill="#000000">correlate_clusters_to_mtp</text>
</g>
<!-- 18&#45;&gt;19 -->
<g id="edge31" class="edge">
<title>18&#45;&gt;19</title>
<path fill="none" stroke="#c0c0c0" stroke-width="2" d="M419.6868,-143.8314C416.7356,-135.9617 413.2142,-126.5712 409.945,-117.8533"/>
<polygon fill="#c0c0c0" stroke="#c0c0c0" stroke-width="2" points="413.1934,-116.5476 406.405,-108.4133 406.6391,-119.0055 413.1934,-116.5476"/>
</g>
<!-- 20 -->
<g id="node21" class="node">
<title>20</title>
<path fill="none" stroke="#d87556" stroke-width="2" d="M184.5,-108C184.5,-108 152.5,-108 152.5,-108 146.5,-108 140.5,-102 140.5,-96 140.5,-96 140.5,-84 140.5,-84 140.5,-78 146.5,-72 152.5,-72 152.5,-72 184.5,-72 184.5,-72 190.5,-72 196.5,-78 196.5,-84 196.5,-84 196.5,-96 196.5,-96 196.5,-102 190.5,-108 184.5,-108"/>
<text text-anchor="middle" x="168.5" y="-87.5" font-family="sans" font-size="10.00" fill="#000000">cali_pca</text>
</g>
<!-- 18&#45;&gt;20 -->
<g id="edge33" class="edge">
<title>18&#45;&gt;20</title>
<path fill="none" stroke="#c0c0c0" stroke-width="2" d="M393.6149,-153.9881C340.4529,-141.0334 238.8734,-116.268 206.2363,-107.3019"/>
<polygon fill="#c0c0c0" stroke="#c0c0c0" stroke-width="2" points="207.0975,-103.9063 196.5138,-104.3932 205.0911,-110.6126 207.0975,-103.9063"/>
</g>
<!-- 19&#45;&gt;4 -->
<g id="edge8" class="edge">
<title>19&#45;&gt;4</title>
<path fill="none" stroke="#c0c0c0" stroke-width="2" d="M424.7342,-71.8314C437.288,-62.7927 452.6283,-51.7476 466.1391,-42.0198"/>
<polygon fill="#c0c0c0" stroke="#c0c0c0" stroke-width="2" points="468.2036,-44.8463 474.2739,-36.1628 464.1134,-39.1655 468.2036,-44.8463"/>
</g>
<!-- 20&#45;&gt;4 -->
<g id="edge9" class="edge">
<title>20&#45;&gt;4</title>
<path fill="none" stroke="#c0c0c0" stroke-width="2" d="M196.8632,-75.2564C199.7383,-74.0491 202.6495,-72.9358 205.5,-72 277.6288,-48.3201 363.3257,-34.0702 423.5315,-26.2054"/>
<polygon fill="#c0c0c0" stroke="#c0c0c0" stroke-width="2" points="424.2412,-29.6433 433.7169,-24.904 423.3539,-22.6998 424.2412,-29.6433"/>
</g>
<!-- 20&#45;&gt;5 -->
<g id="edge13" class="edge">
<title>20&#45;&gt;5</title>
<path fill="none" stroke="#c0c0c0" stroke-width="2" d="M161.4344,-71.8314C158.374,-63.9617 154.7221,-54.5712 151.3318,-45.8533"/>
<polygon fill="#c0c0c0" stroke="#c0c0c0" stroke-width="2" points="154.5473,-44.4647 147.6607,-36.4133 148.0232,-47.0019 154.5473,-44.4647"/>
</g>
<!-- 21 -->
<g id="node22" class="node">
<title>21</title>
<path fill="none" stroke="#d88556" stroke-width="2" d="M232,-180C232,-180 137,-180 137,-180 131,-180 125,-174 125,-168 125,-168 125,-156 125,-156 125,-150 131,-144 137,-144 137,-144 232,-144 232,-144 238,-144 244,-150 244,-156 244,-156 244,-168 244,-168 244,-174 238,-180 232,-180"/>
<text text-anchor="middle" x="184.5" y="-159.5" font-family="sans" font-size="10.00" fill="#000000">tidy_phenotype_data</text>
</g>
<!-- 21&#45;&gt;5 -->
<g id="edge14" class="edge">
<title>21&#45;&gt;5</title>
<path fill="none" stroke="#c0c0c0" stroke-width="2" d="M159.4572,-143.8695C148.688,-134.5148 137.2654,-122.105 131.5,-108 123.4664,-88.3458 126.43,-64.3457 131.0149,-46.0736"/>
<polygon fill="#c0c0c0" stroke="#c0c0c0" stroke-width="2" points="134.4213,-46.8886 133.7498,-36.315 127.681,-44.9995 134.4213,-46.8886"/>
</g>
<!-- 21&#45;&gt;19 -->
<g id="edge30" class="edge">
<title>21&#45;&gt;19</title>
<path fill="none" stroke="#c0c0c0" stroke-width="2" d="M238.4761,-143.9243C267.9956,-134.0387 304.7444,-121.7321 335.6789,-111.3726"/>
<polygon fill="#c0c0c0" stroke="#c0c0c0" stroke-width="2" points="337.1308,-114.5776 345.5017,-108.0831 334.9079,-107.9399 337.1308,-114.5776"/>
</g>
<!-- 21&#45;&gt;20 -->
<g id="edge32" class="edge">
<title>21&#45;&gt;20</title>
<path fill="none" stroke="#c0c0c0" stroke-width="2" d="M180.4625,-143.8314C178.7513,-136.131 176.7165,-126.9743 174.8148,-118.4166"/>
<polygon fill="#c0c0c0" stroke="#c0c0c0" stroke-width="2" points="178.1779,-117.4159 172.5918,-108.4133 171.3446,-118.9344 178.1779,-117.4159"/>
</g>
<!-- 22&#45;&gt;7 -->
<g id="edge15" class="edge">
<title>22&#45;&gt;7</title>
<path fill="none" stroke="#c0c0c0" stroke-width="2" d="M267.9121,-220.194C228.3974,-210.1009 173.4675,-195.8677 117.0472,-180.3972"/>
<polygon fill="#c0c0c0" stroke="#c0c0c0" stroke-width="2" points="117.8132,-176.9779 107.243,-177.7003 115.9566,-183.7272 117.8132,-176.9779"/>
</g>
<!-- 23 -->
<g id="node24" class="node">
<title>23</title>
<path fill="none" stroke="#c6d856" stroke-width="2" d="M332,-180C332,-180 293,-180 293,-180 287,-180 281,-174 281,-168 281,-168 281,-156 281,-156 281,-150 287,-144 293,-144 293,-144 332,-144 332,-144 338,-144 344,-150 344,-156 344,-156 344,-168 344,-168 344,-174 338,-180 332,-180"/>
<text text-anchor="middle" x="312.5" y="-159.5" font-family="sans" font-size="10.00" fill="#000000">deseq_all</text>
</g>
<!-- 22&#45;&gt;23 -->
<g id="edge36" class="edge">
<title>22&#45;&gt;23</title>
<path fill="none" stroke="#c0c0c0" stroke-width="2" d="M319.9766,-215.8314C318.9071,-208.131 317.6353,-198.9743 316.4468,-190.4166"/>
<polygon fill="#c0c0c0" stroke="#c0c0c0" stroke-width="2" points="319.8999,-189.8367 315.0574,-180.4133 312.9664,-190.7997 319.8999,-189.8367"/>
</g>
<!-- 23&#45;&gt;10 -->
<g id="edge18" class="edge">
<title>23&#45;&gt;10</title>
<path fill="none" stroke="#c0c0c0" stroke-width="2" d="M299.8829,-143.8314C294.1828,-135.6232 287.3337,-125.7606 281.0641,-116.7323"/>
<polygon fill="#c0c0c0" stroke="#c0c0c0" stroke-width="2" points="283.8658,-114.6306 275.287,-108.4133 278.1162,-118.6234 283.8658,-114.6306"/>
</g>
<!-- 24&#45;&gt;11 -->
<g id="edge19" class="edge">
<title>24&#45;&gt;11</title>
<path fill="none" stroke="#c0c0c0" stroke-width="2" d="M515.1455,-223.5306C548.3539,-211.3935 603.3873,-191.2798 641.4476,-177.3694"/>
<polygon fill="#c0c0c0" stroke="#c0c0c0" stroke-width="2" points="643.0258,-180.5191 651.2167,-173.799 640.6229,-173.9444 643.0258,-180.5191"/>
</g>
<!-- 24&#45;&gt;18 -->
<g id="edge28" class="edge">
<title>24&#45;&gt;18</title>
<path fill="none" stroke="#c0c0c0" stroke-width="2" d="M471.3595,-215.8314C464.3783,-207.454 455.9609,-197.3531 448.3124,-188.1749"/>
<polygon fill="#c0c0c0" stroke="#c0c0c0" stroke-width="2" points="450.9351,-185.8548 441.8444,-180.4133 445.5575,-190.3362 450.9351,-185.8548"/>
</g>
<!-- 25 -->
<g id="node26" class="node">
<title>25</title>
<path fill="none" stroke="#5682d8" stroke-width="2" d="M939,-540C939,-540 864,-540 864,-540 858,-540 852,-534 852,-528 852,-528 852,-516 852,-516 852,-510 858,-504 864,-504 864,-504 939,-504 939,-504 945,-504 951,-510 951,-516 951,-516 951,-528 951,-528 951,-534 945,-540 939,-540"/>
<text text-anchor="middle" x="901.5" y="-519.5" font-family="sans" font-size="10.00" fill="#000000">second_mapping</text>
</g>
<!-- 25&#45;&gt;14 -->
<g id="edge20" class="edge">
<title>25&#45;&gt;14</title>
<path fill="none" stroke="#c0c0c0" stroke-width="2" d="M851.8534,-505.752C820.71,-495.5596 780.2184,-482.3078 746.5266,-471.2814"/>
<polygon fill="#c0c0c0" stroke="#c0c0c0" stroke-width="2" points="747.3561,-467.8703 736.7635,-468.0862 745.1788,-474.5231 747.3561,-467.8703"/>
</g>
<!-- 25&#45;&gt;16 -->
<g id="edge22" class="edge">
<title>25&#45;&gt;16</title>
<path fill="none" stroke="#c0c0c0" stroke-width="2" d="M901.5,-503.8314C901.5,-496.131 901.5,-486.9743 901.5,-478.4166"/>
<polygon fill="#c0c0c0" stroke="#c0c0c0" stroke-width="2" points="905.0001,-478.4132 901.5,-468.4133 898.0001,-478.4133 905.0001,-478.4132"/>
</g>
<!-- 32 -->
<g id="node33" class="node">
<title>32</title>
<path fill="none" stroke="#d85656" stroke-width="2" d="M1066.5,-468C1066.5,-468 984.5,-468 984.5,-468 978.5,-468 972.5,-462 972.5,-456 972.5,-456 972.5,-444 972.5,-444 972.5,-438 978.5,-432 984.5,-432 984.5,-432 1066.5,-432 1066.5,-432 1072.5,-432 1078.5,-438 1078.5,-444 1078.5,-444 1078.5,-456 1078.5,-456 1078.5,-462 1072.5,-468 1066.5,-468"/>
<text text-anchor="middle" x="1025.5" y="-447.5" font-family="sans" font-size="10.00" fill="#000000">count_background</text>
</g>
<!-- 25&#45;&gt;32 -->
<g id="edge52" class="edge">
<title>25&#45;&gt;32</title>
<path fill="none" stroke="#c0c0c0" stroke-width="2" d="M932.7904,-503.8314C948.7977,-494.5368 968.4586,-483.1208 985.5494,-473.1971"/>
<polygon fill="#c0c0c0" stroke="#c0c0c0" stroke-width="2" points="987.3292,-476.211 994.2196,-468.1628 983.8142,-470.1575 987.3292,-476.211"/>
</g>
<!-- 26 -->
<g id="node27" class="node">
<title>26</title>
<path fill="none" stroke="#80d856" stroke-width="2" d="M1134.5,-396C1134.5,-396 1000.5,-396 1000.5,-396 994.5,-396 988.5,-390 988.5,-384 988.5,-384 988.5,-372 988.5,-372 988.5,-366 994.5,-360 1000.5,-360 1000.5,-360 1134.5,-360 1134.5,-360 1140.5,-360 1146.5,-366 1146.5,-372 1146.5,-372 1146.5,-384 1146.5,-384 1146.5,-390 1140.5,-396 1134.5,-396"/>
<text text-anchor="middle" x="1067.5" y="-375.5" font-family="sans" font-size="10.00" fill="#000000">combine_background_counts</text>
</g>
<!-- 26&#45;&gt;17 -->
<g id="edge23" class="edge">
<title>26&#45;&gt;17</title>
<path fill="none" stroke="#c0c0c0" stroke-width="2" d="M1017.0387,-359.9243C989.3518,-350.0066 954.8625,-337.6523 925.8841,-327.2719"/>
<polygon fill="#c0c0c0" stroke="#c0c0c0" stroke-width="2" points="926.8803,-323.911 916.2857,-323.8337 924.5197,-330.501 926.8803,-323.911"/>
</g>
<!-- 27 -->
<g id="node28" class="node">
<title>27</title>
<path fill="none" stroke="#56a9d8" stroke-width="2" d="M1228,-468C1228,-468 1109,-468 1109,-468 1103,-468 1097,-462 1097,-456 1097,-456 1097,-444 1097,-444 1097,-438 1103,-432 1109,-432 1109,-432 1228,-432 1228,-432 1234,-432 1240,-438 1240,-444 1240,-444 1240,-456 1240,-456 1240,-462 1234,-468 1228,-468"/>
<text text-anchor="middle" x="1168.5" y="-447.5" font-family="sans" font-size="10.00" fill="#000000">calculate_feature_lengths</text>
</g>
<!-- 27&#45;&gt;17 -->
<g id="edge26" class="edge">
<title>27&#45;&gt;17</title>
<path fill="none" stroke="#c0c0c0" stroke-width="2" d="M1171.4976,-431.8277C1173.7244,-411.5268 1173.7539,-379.0232 1155.5,-360 1124.6589,-327.8591 1001.5311,-314.4436 926.295,-309.1602"/>
<polygon fill="#c0c0c0" stroke="#c0c0c0" stroke-width="2" points="926.2239,-305.6476 916.0113,-308.4676 925.7534,-312.6318 926.2239,-305.6476"/>
</g>
<!-- 27&#45;&gt;28 -->
<g id="edge46" class="edge">
<title>27&#45;&gt;28</title>
<path fill="none" stroke="#c0c0c0" stroke-width="2" d="M1096.9951,-433.8631C1093.7895,-433.2176 1090.6132,-432.5933 1087.5,-432 990.7096,-413.5542 961.9436,-420.2707 862.5807,-396.0461"/>
<polygon fill="#c0c0c0" stroke="#c0c0c0" stroke-width="2" points="863.2886,-392.6157 852.7399,-393.6034 861.6022,-399.4095 863.2886,-392.6157"/>
</g>
<!-- 28&#45;&gt;17 -->
<g id="edge24" class="edge">
<title>28&#45;&gt;17</title>
<path fill="none" stroke="#c0c0c0" stroke-width="2" d="M823.8835,-359.8314C830.4486,-351.5386 838.3507,-341.557 845.5578,-332.4533"/>
<polygon fill="#c0c0c0" stroke="#c0c0c0" stroke-width="2" points="848.4599,-334.4262 851.9228,-324.4133 842.9716,-330.0813 848.4599,-334.4262"/>
</g>
<!-- 29 -->
<g id="node30" class="node">
<title>29</title>
<path fill="none" stroke="#569ad8" stroke-width="2" d="M867.5,-684C867.5,-684 837.5,-684 837.5,-684 831.5,-684 825.5,-678 825.5,-672 825.5,-672 825.5,-660 825.5,-660 825.5,-654 831.5,-648 837.5,-648 837.5,-648 867.5,-648 867.5,-648 873.5,-648 879.5,-654 879.5,-660 879.5,-660 879.5,-672 879.5,-672 879.5,-678 873.5,-684 867.5,-684"/>
<text text-anchor="middle" x="852.5" y="-663.5" font-family="sans" font-size="10.00" fill="#000000">gzip</text>
</g>
<!-- 29&#45;&gt;25 -->
<g id="edge41" class="edge">
<title>29&#45;&gt;25</title>
<path fill="none" stroke="#c0c0c0" stroke-width="2" d="M848.0376,-647.6767C844.3915,-628.9511 841.2037,-599.3822 850.5,-576 854.7676,-565.2659 862.2931,-555.4321 870.2739,-547.1828"/>
<polygon fill="#c0c0c0" stroke="#c0c0c0" stroke-width="2" points="872.8801,-549.5319 877.6509,-540.072 868.0221,-544.4921 872.8801,-549.5319"/>
</g>
<!-- 31 -->
<g id="node32" class="node">
<title>31</title>
<path fill="none" stroke="#d8b456" stroke-width="2" d="M931,-612C931,-612 872,-612 872,-612 866,-612 860,-606 860,-600 860,-600 860,-588 860,-588 860,-582 866,-576 872,-576 872,-576 931,-576 931,-576 937,-576 943,-582 943,-588 943,-588 943,-600 943,-600 943,-606 937,-612 931,-612"/>
<text text-anchor="middle" x="901.5" y="-591.5" font-family="sans" font-size="10.00" fill="#000000">first_mapping</text>
</g>
<!-- 29&#45;&gt;31 -->
<g id="edge51" class="edge">
<title>29&#45;&gt;31</title>
<path fill="none" stroke="#c0c0c0" stroke-width="2" d="M864.8648,-647.8314C870.4509,-639.6232 877.163,-629.7606 883.3072,-620.7323"/>
<polygon fill="#c0c0c0" stroke="#c0c0c0" stroke-width="2" points="886.236,-622.6496 888.9687,-612.4133 880.449,-618.7112 886.236,-622.6496"/>
</g>
<!-- 30 -->
<g id="node31" class="node">
<title>30</title>
<path fill="none" stroke="#56d882" stroke-width="2" d="M1012,-684C1012,-684 931,-684 931,-684 925,-684 919,-678 919,-672 919,-672 919,-660 919,-660 919,-654 925,-648 931,-648 931,-648 1012,-648 1012,-648 1018,-648 1024,-654 1024,-660 1024,-660 1024,-672 1024,-672 1024,-678 1018,-684 1012,-684"/>
<text text-anchor="middle" x="971.5" y="-663.5" font-family="sans" font-size="10.00" fill="#000000">generate_genome</text>
</g>
<!-- 30&#45;&gt;25 -->
<g id="edge40" class="edge">
<title>30&#45;&gt;25</title>
<path fill="none" stroke="#c0c0c0" stroke-width="2" d="M970.26,-647.7973C968.3498,-628.9063 963.5386,-598.966 951.5,-576 946.0501,-565.6033 938.072,-555.7138 930.0824,-547.3067"/>
<polygon fill="#c0c0c0" stroke="#c0c0c0" stroke-width="2" points="932.3574,-544.6318 922.8139,-540.0305 927.4051,-549.5789 932.3574,-544.6318"/>
</g>
<!-- 30&#45;&gt;31 -->
<g id="edge50" class="edge">
<title>30&#45;&gt;31</title>
<path fill="none" stroke="#c0c0c0" stroke-width="2" d="M953.836,-647.8314C945.5268,-639.2848 935.4736,-628.9443 926.4082,-619.6198"/>
<polygon fill="#c0c0c0" stroke="#c0c0c0" stroke-width="2" points="928.8821,-617.1435 919.4018,-612.4133 923.8631,-622.023 928.8821,-617.1435"/>
</g>
<!-- 35 -->
<g id="node36" class="node">
<title>35</title>
<path fill="none" stroke="#d88d56" stroke-width="2" d="M1055.5,-612C1055.5,-612 1011.5,-612 1011.5,-612 1005.5,-612 999.5,-606 999.5,-600 999.5,-600 999.5,-588 999.5,-588 999.5,-582 1005.5,-576 1011.5,-576 1011.5,-576 1055.5,-576 1055.5,-576 1061.5,-576 1067.5,-582 1067.5,-588 1067.5,-588 1067.5,-600 1067.5,-600 1067.5,-606 1061.5,-612 1055.5,-612"/>
<text text-anchor="middle" x="1033.5" y="-591.5" font-family="sans" font-size="10.00" fill="#000000">shuffle_gtf</text>
</g>
<!-- 30&#45;&gt;35 -->
<g id="edge55" class="edge">
<title>30&#45;&gt;35</title>
<path fill="none" stroke="#c0c0c0" stroke-width="2" d="M987.1452,-647.8314C994.3591,-639.454 1003.057,-629.3531 1010.9605,-620.1749"/>
<polygon fill="#c0c0c0" stroke="#c0c0c0" stroke-width="2" points="1013.7711,-622.2748 1017.6441,-612.4133 1008.4667,-617.7071 1013.7711,-622.2748"/>
</g>
<!-- 31&#45;&gt;25 -->
<g id="edge42" class="edge">
<title>31&#45;&gt;25</title>
<path fill="none" stroke="#c0c0c0" stroke-width="2" d="M901.5,-575.8314C901.5,-568.131 901.5,-558.9743 901.5,-550.4166"/>
<polygon fill="#c0c0c0" stroke="#c0c0c0" stroke-width="2" points="905.0001,-550.4132 901.5,-540.4133 898.0001,-550.4133 905.0001,-550.4132"/>
</g>
<!-- 32&#45;&gt;26 -->
<g id="edge43" class="edge">
<title>32&#45;&gt;26</title>
<path fill="none" stroke="#c0c0c0" stroke-width="2" d="M1036.0984,-431.8314C1040.7877,-423.7925 1046.4028,-414.1666 1051.5798,-405.2918"/>
<polygon fill="#c0c0c0" stroke="#c0c0c0" stroke-width="2" points="1054.7434,-406.8146 1056.7589,-396.4133 1048.6969,-403.2875 1054.7434,-406.8146"/>
</g>
<!-- 33 -->
<g id="node34" class="node">
<title>33</title>
<path fill="none" stroke="#9fd856" stroke-width="2" d="M1080,-756C1080,-756 1025,-756 1025,-756 1019,-756 1013,-750 1013,-744 1013,-744 1013,-732 1013,-732 1013,-726 1019,-720 1025,-720 1025,-720 1080,-720 1080,-720 1086,-720 1092,-726 1092,-732 1092,-732 1092,-744 1092,-744 1092,-750 1086,-756 1080,-756"/>
<text text-anchor="middle" x="1052.5" y="-735.5" font-family="sans" font-size="10.00" fill="#000000">generate_gtf</text>
</g>
<!-- 33&#45;&gt;27 -->
<g id="edge44" class="edge">
<title>33&#45;&gt;27</title>
<path fill="none" stroke="#c0c0c0" stroke-width="2" d="M1059.7563,-719.9843C1079.4491,-671.0919 1133.9906,-535.6785 1157.4921,-477.33"/>
<polygon fill="#c0c0c0" stroke="#c0c0c0" stroke-width="2" points="1160.7568,-478.5924 1161.2464,-468.0089 1154.2637,-475.9771 1160.7568,-478.5924"/>
</g>
<!-- 33&#45;&gt;30 -->
<g id="edge49" class="edge">
<title>33&#45;&gt;30</title>
<path fill="none" stroke="#c0c0c0" stroke-width="2" d="M1032.0603,-719.8314C1022.1795,-711.0485 1010.1676,-700.3712 999.455,-690.8489"/>
<polygon fill="#c0c0c0" stroke="#c0c0c0" stroke-width="2" points="1001.7326,-688.1906 991.9332,-684.1628 997.082,-693.4224 1001.7326,-688.1906"/>
</g>
<!-- 33&#45;&gt;35 -->
<g id="edge56" class="edge">
<title>33&#45;&gt;35</title>
<path fill="none" stroke="#c0c0c0" stroke-width="2" d="M1050.0936,-719.7623C1046.8529,-695.201 1041.0535,-651.2474 1037.2412,-622.3541"/>
<polygon fill="#c0c0c0" stroke="#c0c0c0" stroke-width="2" points="1040.6649,-621.5458 1035.8868,-612.0896 1033.7251,-622.4616 1040.6649,-621.5458"/>
</g>
<!-- 34 -->
<g id="node35" class="node">
<title>34</title>
<path fill="none" stroke="#afd856" stroke-width="2" d="M870,-756C870,-756 835,-756 835,-756 829,-756 823,-750 823,-744 823,-744 823,-732 823,-732 823,-726 829,-720 835,-720 835,-720 870,-720 870,-720 876,-720 882,-726 882,-732 882,-732 882,-744 882,-744 882,-750 876,-756 870,-756"/>
<text text-anchor="middle" x="852.5" y="-735.5" font-family="sans" font-size="10.00" fill="#000000">cutadapt</text>
</g>
<!-- 34&#45;&gt;29 -->
<g id="edge48" class="edge">
<title>34&#45;&gt;29</title>
<path fill="none" stroke="#c0c0c0" stroke-width="2" d="M852.5,-719.8314C852.5,-712.131 852.5,-702.9743 852.5,-694.4166"/>
<polygon fill="#c0c0c0" stroke="#c0c0c0" stroke-width="2" points="856.0001,-694.4132 852.5,-684.4133 849.0001,-694.4133 856.0001,-694.4132"/>
</g>
<!-- 35&#45;&gt;32 -->
<g id="edge53" class="edge">
<title>35&#45;&gt;32</title>
<path fill="none" stroke="#c0c0c0" stroke-width="2" d="M1032.4868,-575.7623C1031.1223,-551.201 1028.6804,-507.2474 1027.0752,-478.3541"/>
<polygon fill="#c0c0c0" stroke="#c0c0c0" stroke-width="2" points="1030.5544,-477.88 1026.505,-468.0896 1023.5652,-478.2684 1030.5544,-477.88"/>
</g>
<!-- 36 -->
<g id="node37" class="node">
<title>36</title>
<path fill="none" stroke="#56d873" stroke-width="2" d="M867.5,-828C867.5,-828 837.5,-828 837.5,-828 831.5,-828 825.5,-822 825.5,-816 825.5,-816 825.5,-804 825.5,-804 825.5,-798 831.5,-792 837.5,-792 837.5,-792 867.5,-792 867.5,-792 873.5,-792 879.5,-798 879.5,-804 879.5,-804 879.5,-816 879.5,-816 879.5,-822 873.5,-828 867.5,-828"/>
<text text-anchor="middle" x="852.5" y="-807.5" font-family="sans" font-size="10.00" fill="#000000">repair</text>
</g>
<!-- 36&#45;&gt;34 -->
<g id="edge54" class="edge">
<title>36&#45;&gt;34</title>
<path fill="none" stroke="#c0c0c0" stroke-width="2" d="M852.5,-791.8314C852.5,-784.131 852.5,-774.9743 852.5,-766.4166"/>
<polygon fill="#c0c0c0" stroke="#c0c0c0" stroke-width="2" points="856.0001,-766.4132 852.5,-756.4133 849.0001,-766.4133 856.0001,-766.4132"/>
</g>
</g>
</svg>
