<?xml version="1.0" encoding="UTF-8" standalone="no"?>
<!DOCTYPE svg PUBLIC "-//W3C//DTD SVG 1.1//EN"
 "http://www.w3.org/Graphics/SVG/1.1/DTD/svg11.dtd">
<!-- Generated by graphviz version 2.40.1 (20161225.0304)
 -->
<!-- Title: snakemake_dag Pages: 1 -->
<svg width="1166pt" height="836pt"
 viewBox="0.00 0.00 1165.50 836.00" xmlns="http://www.w3.org/2000/svg" xmlns:xlink="http://www.w3.org/1999/xlink">
<g id="graph0" class="graph" transform="scale(1 1) rotate(0) translate(4 832)">
<title>snakemake_dag</title>
<polygon fill="#ffffff" stroke="transparent" points="-4,4 -4,-832 1161.5,-832 1161.5,4 -4,4"/>
<!-- 0 -->
<g id="node1" class="node">
<title>0</title>
<path fill="none" stroke="#56c1d8" stroke-width="2" d="M496.5,-108C496.5,-108 424.5,-108 424.5,-108 418.5,-108 412.5,-102 412.5,-96 412.5,-96 412.5,-84 412.5,-84 412.5,-78 418.5,-72 424.5,-72 424.5,-72 496.5,-72 496.5,-72 502.5,-72 508.5,-78 508.5,-84 508.5,-84 508.5,-96 508.5,-96 508.5,-102 502.5,-108 496.5,-108"/>
<text text-anchor="middle" x="460.5" y="-87.5" font-family="sans" font-size="10.00" fill="#000000">clustered_genes</text>
</g>
<!-- 1 -->
<g id="node2" class="node">
<title>1</title>
<path fill="none" stroke="#d85656" stroke-width="2" d="M79,-36C79,-36 12,-36 12,-36 6,-36 0,-30 0,-24 0,-24 0,-12 0,-12 0,-6 6,0 12,0 12,0 79,0 79,0 85,0 91,-6 91,-12 91,-12 91,-24 91,-24 91,-30 85,-36 79,-36"/>
<text text-anchor="middle" x="45.5" y="-15.5" font-family="sans" font-size="10.00" fill="#000000">phenotype_pca</text>
</g>
<!-- 2 -->
<g id="node3" class="node">
<title>2</title>
<path fill="none" stroke="#56b9d8" stroke-width="2" d="M872,-396C872,-396 835,-396 835,-396 829,-396 823,-390 823,-384 823,-384 823,-372 823,-372 823,-366 829,-360 835,-360 835,-360 872,-360 872,-360 878,-360 884,-366 884,-372 884,-372 884,-384 884,-384 884,-390 878,-396 872,-396"/>
<text text-anchor="middle" x="853.5" y="-375.5" font-family="sans" font-size="10.00" fill="#000000">star_logs</text>
</g>
<!-- 3 -->
<g id="node4" class="node">
<title>3</title>
<path fill="none" stroke="#56d882" stroke-width="2" d="M326,-324C326,-324 243,-324 243,-324 237,-324 231,-318 231,-312 231,-312 231,-300 231,-300 231,-294 237,-288 243,-288 243,-288 326,-288 326,-288 332,-288 338,-294 338,-300 338,-300 338,-312 338,-312 338,-318 332,-324 326,-324"/>
<text text-anchor="middle" x="284.5" y="-303.5" font-family="sans" font-size="10.00" fill="#000000">transcriptome_pca</text>
</g>
<!-- 4 -->
<g id="node5" class="node">
<title>4</title>
<path fill="none" stroke="#56d87b" stroke-width="2" d="M837.5,-828C837.5,-828 769.5,-828 769.5,-828 763.5,-828 757.5,-822 757.5,-816 757.5,-816 757.5,-804 757.5,-804 757.5,-798 763.5,-792 769.5,-792 769.5,-792 837.5,-792 837.5,-792 843.5,-792 849.5,-798 849.5,-804 849.5,-804 849.5,-816 849.5,-816 849.5,-822 843.5,-828 837.5,-828"/>
<text text-anchor="middle" x="803.5" y="-807.5" font-family="sans" font-size="10.00" fill="#000000">lmd_paper_ap2</text>
</g>
<!-- 5 -->
<g id="node6" class="node">
<title>5</title>
<path fill="none" stroke="#56d873" stroke-width="2" d="M438,-36C438,-36 331,-36 331,-36 325,-36 319,-30 319,-24 319,-24 319,-12 319,-12 319,-6 325,0 331,0 331,0 438,0 438,0 444,0 450,-6 450,-12 450,-12 450,-24 450,-24 450,-30 444,-36 438,-36"/>
<text text-anchor="middle" x="384.5" y="-15.5" font-family="sans" font-size="10.00" fill="#000000">cluster_phenotype_corr</text>
</g>
<!-- 6 -->
<g id="node7" class="node">
<title>6</title>
<path fill="none" stroke="#5692d8" stroke-width="2" d="M953.5,-828C953.5,-828 879.5,-828 879.5,-828 873.5,-828 867.5,-822 867.5,-816 867.5,-816 867.5,-804 867.5,-804 867.5,-798 873.5,-792 879.5,-792 879.5,-792 953.5,-792 953.5,-792 959.5,-792 965.5,-798 965.5,-804 965.5,-804 965.5,-816 965.5,-816 965.5,-822 959.5,-828 953.5,-828"/>
<text text-anchor="middle" x="916.5" y="-807.5" font-family="sans" font-size="10.00" fill="#000000">panicle_mutants</text>
</g>
<!-- 7 -->
<g id="node8" class="node">
<title>7</title>
<path fill="none" stroke="#d86e56" stroke-width="2" d="M782,-180C782,-180 699,-180 699,-180 693,-180 687,-174 687,-168 687,-168 687,-156 687,-156 687,-150 693,-144 699,-144 699,-144 782,-144 782,-144 788,-144 794,-150 794,-156 794,-156 794,-168 794,-168 794,-174 788,-180 782,-180"/>
<text text-anchor="middle" x="740.5" y="-159.5" font-family="sans" font-size="10.00" fill="#000000">distance_heatmap</text>
</g>
<!-- 8 -->
<g id="node9" class="node">
<title>8</title>
<path fill="none" stroke="#d87d56" stroke-width="2" d="M1073,-828C1073,-828 996,-828 996,-828 990,-828 984,-822 984,-816 984,-816 984,-804 984,-804 984,-798 990,-792 996,-792 996,-792 1073,-792 1073,-792 1079,-792 1085,-798 1085,-804 1085,-804 1085,-816 1085,-816 1085,-822 1079,-828 1073,-828"/>
<text text-anchor="middle" x="1034.5" y="-807.5" font-family="sans" font-size="10.00" fill="#000000">phenotyping_mpl</text>
</g>
<!-- 9 -->
<g id="node10" class="node">
<title>9</title>
<path fill="none" stroke="#88d856" stroke-width="2" d="M727,-108C727,-108 678,-108 678,-108 672,-108 666,-102 666,-96 666,-96 666,-84 666,-84 666,-78 672,-72 678,-72 678,-72 727,-72 727,-72 733,-72 739,-78 739,-84 739,-84 739,-96 739,-96 739,-102 733,-108 727,-108"/>
<text text-anchor="middle" x="702.5" y="-87.5" font-family="sans" font-size="10.00" fill="#000000">dom_genes</text>
</g>
<!-- 10 -->
<g id="node11" class="node">
<title>10</title>
<path fill="none" stroke="#78d856" stroke-width="2" d="M231.5,-36C231.5,-36 121.5,-36 121.5,-36 115.5,-36 109.5,-30 109.5,-24 109.5,-24 109.5,-12 109.5,-12 109.5,-6 115.5,0 121.5,0 121.5,0 231.5,0 231.5,0 237.5,0 243.5,-6 243.5,-12 243.5,-12 243.5,-24 243.5,-24 243.5,-30 237.5,-36 231.5,-36"/>
<text text-anchor="middle" x="176.5" y="-15.5" font-family="sans" font-size="10.00" fill="#000000">phenotype_all_varieties</text>
</g>
<!-- 11 -->
<g id="node12" class="node">
<title>11</title>
<path fill="none" stroke="#d8a456" stroke-width="2" d="M636,-108C636,-108 539,-108 539,-108 533,-108 527,-102 527,-96 527,-96 527,-84 527,-84 527,-78 533,-72 539,-72 539,-72 636,-72 636,-72 642,-72 648,-78 648,-84 648,-84 648,-96 648,-96 648,-102 642,-108 636,-108"/>
<text text-anchor="middle" x="587.5" y="-87.5" font-family="sans" font-size="10.00" fill="#000000">de_genes_interaction</text>
</g>
<!-- 12 -->
<g id="node13" class="node">
<title>12</title>
<path fill="none" stroke="#d8b456" stroke-width="2" d="M879,-108C879,-108 808,-108 808,-108 802,-108 796,-102 796,-96 796,-96 796,-84 796,-84 796,-78 802,-72 808,-72 808,-72 879,-72 879,-72 885,-72 891,-78 891,-84 891,-84 891,-96 891,-96 891,-102 885,-108 879,-108"/>
<text text-anchor="middle" x="843.5" y="-87.5" font-family="sans" font-size="10.00" fill="#000000">de_genes_stage</text>
</g>
<!-- 13 -->
<g id="node14" class="node">
<title>13</title>
<path fill="none" stroke="#d8c356" stroke-width="2" d="M460.5,-324C460.5,-324 368.5,-324 368.5,-324 362.5,-324 356.5,-318 356.5,-312 356.5,-312 356.5,-300 356.5,-300 356.5,-294 362.5,-288 368.5,-288 368.5,-288 460.5,-288 460.5,-288 466.5,-288 472.5,-294 472.5,-300 472.5,-300 472.5,-312 472.5,-312 472.5,-318 466.5,-324 460.5,-324"/>
<text text-anchor="middle" x="414.5" y="-303.5" font-family="sans" font-size="10.00" fill="#000000">mads_ap2_heatmap</text>
</g>
<!-- 14 -->
<g id="node15" class="node">
<title>14</title>
<path fill="none" stroke="#56d8d8" stroke-width="2" d="M1145.5,-828C1145.5,-828 1115.5,-828 1115.5,-828 1109.5,-828 1103.5,-822 1103.5,-816 1103.5,-816 1103.5,-804 1103.5,-804 1103.5,-798 1109.5,-792 1115.5,-792 1115.5,-792 1145.5,-792 1145.5,-792 1151.5,-792 1157.5,-798 1157.5,-804 1157.5,-804 1157.5,-816 1157.5,-816 1157.5,-822 1151.5,-828 1145.5,-828"/>
<text text-anchor="middle" x="1130.5" y="-807.5" font-family="sans" font-size="10.00" fill="#000000">md5</text>
</g>
<!-- 15 -->
<g id="node16" class="node">
<title>15</title>
<path fill="none" stroke="#566bd8" stroke-width="2" d="M443,-180C443,-180 402,-180 402,-180 396,-180 390,-174 390,-168 390,-168 390,-156 390,-156 390,-150 396,-144 402,-144 402,-144 443,-144 443,-144 449,-144 455,-150 455,-156 455,-156 455,-168 455,-168 455,-174 449,-180 443,-180"/>
<text text-anchor="middle" x="422.5" y="-159.5" font-family="sans" font-size="10.00" fill="#000000">mfuzz_tfs</text>
</g>
<!-- 15&#45;&gt;0 -->
<g id="edge1" class="edge">
<title>15&#45;&gt;0</title>
<path fill="none" stroke="#c0c0c0" stroke-width="2" d="M432.089,-143.8314C436.3317,-135.7925 441.4121,-126.1666 446.096,-117.2918"/>
<polygon fill="#c0c0c0" stroke="#c0c0c0" stroke-width="2" points="449.2096,-118.8908 450.7819,-108.4133 443.0189,-115.6235 449.2096,-118.8908"/>
</g>
<!-- 15&#45;&gt;5 -->
<g id="edge9" class="edge">
<title>15&#45;&gt;5</title>
<path fill="none" stroke="#c0c0c0" stroke-width="2" d="M415.3911,-143.6955C411.5341,-133.3278 406.8786,-120.058 403.5,-108 397.7642,-87.5291 392.8558,-64.0109 389.4655,-46.1505"/>
<polygon fill="#c0c0c0" stroke="#c0c0c0" stroke-width="2" points="392.8661,-45.2923 387.6034,-36.097 385.9832,-46.5672 392.8661,-45.2923"/>
</g>
<!-- 17 -->
<g id="node18" class="node">
<title>17</title>
<path fill="none" stroke="#59d856" stroke-width="2" d="M182.5,-108C182.5,-108 150.5,-108 150.5,-108 144.5,-108 138.5,-102 138.5,-96 138.5,-96 138.5,-84 138.5,-84 138.5,-78 144.5,-72 150.5,-72 150.5,-72 182.5,-72 182.5,-72 188.5,-72 194.5,-78 194.5,-84 194.5,-84 194.5,-96 194.5,-96 194.5,-102 188.5,-108 182.5,-108"/>
<text text-anchor="middle" x="166.5" y="-87.5" font-family="sans" font-size="10.00" fill="#000000">cali_pca</text>
</g>
<!-- 15&#45;&gt;17 -->
<g id="edge24" class="edge">
<title>15&#45;&gt;17</title>
<path fill="none" stroke="#c0c0c0" stroke-width="2" d="M389.9535,-156.2074C348.4785,-148.3459 274.6347,-132.7394 204.0066,-107.8023"/>
<polygon fill="#c0c0c0" stroke="#c0c0c0" stroke-width="2" points="205.1106,-104.4799 194.5161,-104.3868 202.7402,-111.0663 205.1106,-104.4799"/>
</g>
<!-- 22 -->
<g id="node23" class="node">
<title>22</title>
<path fill="none" stroke="#d88d56" stroke-width="2" d="M344,-108C344,-108 225,-108 225,-108 219,-108 213,-102 213,-96 213,-96 213,-84 213,-84 213,-78 219,-72 225,-72 225,-72 344,-72 344,-72 350,-72 356,-78 356,-84 356,-84 356,-96 356,-96 356,-102 350,-108 344,-108"/>
<text text-anchor="middle" x="284.5" y="-87.5" font-family="sans" font-size="10.00" fill="#000000">correlate_clusters_to_mtp</text>
</g>
<!-- 15&#45;&gt;22 -->
<g id="edge34" class="edge">
<title>15&#45;&gt;22</title>
<path fill="none" stroke="#c0c0c0" stroke-width="2" d="M389.7959,-144.937C371.4104,-135.3446 348.2186,-123.2445 328.2832,-112.8434"/>
<polygon fill="#c0c0c0" stroke="#c0c0c0" stroke-width="2" points="329.8666,-109.7218 319.3817,-108.1992 326.6286,-115.9279 329.8666,-109.7218"/>
</g>
<!-- 16 -->
<g id="node17" class="node">
<title>16</title>
<path fill="none" stroke="#afd856" stroke-width="2" d="M186,-180C186,-180 91,-180 91,-180 85,-180 79,-174 79,-168 79,-168 79,-156 79,-156 79,-150 85,-144 91,-144 91,-144 186,-144 186,-144 192,-144 198,-150 198,-156 198,-156 198,-168 198,-168 198,-174 192,-180 186,-180"/>
<text text-anchor="middle" x="138.5" y="-159.5" font-family="sans" font-size="10.00" fill="#000000">tidy_phenotype_data</text>
</g>
<!-- 16&#45;&gt;1 -->
<g id="edge2" class="edge">
<title>16&#45;&gt;1</title>
<path fill="none" stroke="#c0c0c0" stroke-width="2" d="M126.7215,-143.7623C110.5795,-118.7682 81.468,-73.6924 62.8347,-44.8409"/>
<polygon fill="#c0c0c0" stroke="#c0c0c0" stroke-width="2" points="65.5483,-42.5912 57.1829,-36.0896 59.668,-46.3889 65.5483,-42.5912"/>
</g>
<!-- 16&#45;&gt;10 -->
<g id="edge13" class="edge">
<title>16&#45;&gt;10</title>
<path fill="none" stroke="#c0c0c0" stroke-width="2" d="M132.0409,-143.7989C126.4831,-125.1706 120.6389,-95.678 129.5,-72 133.3954,-61.5911 140.3041,-51.8652 147.6456,-43.6152"/>
<polygon fill="#c0c0c0" stroke="#c0c0c0" stroke-width="2" points="150.3643,-45.8358 154.7328,-36.1835 145.2986,-41.0048 150.3643,-45.8358"/>
</g>
<!-- 16&#45;&gt;17 -->
<g id="edge23" class="edge">
<title>16&#45;&gt;17</title>
<path fill="none" stroke="#c0c0c0" stroke-width="2" d="M145.5656,-143.8314C148.626,-135.9617 152.2779,-126.5712 155.6682,-117.8533"/>
<polygon fill="#c0c0c0" stroke="#c0c0c0" stroke-width="2" points="158.9768,-119.0019 159.3393,-108.4133 152.4527,-116.4647 158.9768,-119.0019"/>
</g>
<!-- 16&#45;&gt;22 -->
<g id="edge33" class="edge">
<title>16&#45;&gt;22</title>
<path fill="none" stroke="#c0c0c0" stroke-width="2" d="M175.342,-143.8314C194.6082,-134.3302 218.3699,-122.6121 238.7992,-112.5374"/>
<polygon fill="#c0c0c0" stroke="#c0c0c0" stroke-width="2" points="240.5023,-115.6 247.923,-108.038 237.4062,-109.3219 240.5023,-115.6"/>
</g>
<!-- 17&#45;&gt;1 -->
<g id="edge3" class="edge">
<title>17&#45;&gt;1</title>
<path fill="none" stroke="#c0c0c0" stroke-width="2" d="M138.436,-73.3008C122.5032,-63.8201 102.3093,-51.8039 84.8185,-41.3962"/>
<polygon fill="#c0c0c0" stroke="#c0c0c0" stroke-width="2" points="86.3387,-38.228 75.9553,-36.1222 82.7592,-44.2436 86.3387,-38.228"/>
</g>
<!-- 17&#45;&gt;5 -->
<g id="edge8" class="edge">
<title>17&#45;&gt;5</title>
<path fill="none" stroke="#c0c0c0" stroke-width="2" d="M194.5709,-75.759C197.5561,-74.4208 200.5711,-73.1406 203.5,-72 237.4231,-58.7895 275.9626,-46.8815 308.7351,-37.6307"/>
<polygon fill="#c0c0c0" stroke="#c0c0c0" stroke-width="2" points="310.0185,-40.9064 318.7093,-34.8466 308.1365,-34.1641 310.0185,-40.9064"/>
</g>
<!-- 17&#45;&gt;10 -->
<g id="edge14" class="edge">
<title>17&#45;&gt;10</title>
<path fill="none" stroke="#c0c0c0" stroke-width="2" d="M169.0234,-71.8314C170.0929,-64.131 171.3647,-54.9743 172.5532,-46.4166"/>
<polygon fill="#c0c0c0" stroke="#c0c0c0" stroke-width="2" points="176.0336,-46.7997 173.9426,-36.4133 169.1001,-45.8367 176.0336,-46.7997"/>
</g>
<!-- 18 -->
<g id="node19" class="node">
<title>18</title>
<path fill="none" stroke="#d89556" stroke-width="2" d="M796,-468C796,-468 727,-468 727,-468 721,-468 715,-462 715,-456 715,-456 715,-444 715,-444 715,-438 721,-432 727,-432 727,-432 796,-432 796,-432 802,-432 808,-438 808,-444 808,-444 808,-456 808,-456 808,-462 802,-468 796,-468"/>
<text text-anchor="middle" x="761.5" y="-447.5" font-family="sans" font-size="10.00" fill="#000000">parse_star_logs</text>
</g>
<!-- 18&#45;&gt;2 -->
<g id="edge4" class="edge">
<title>18&#45;&gt;2</title>
<path fill="none" stroke="#c0c0c0" stroke-width="2" d="M784.7155,-431.8314C796.047,-422.9632 809.8464,-412.1637 822.1027,-402.5718"/>
<polygon fill="#c0c0c0" stroke="#c0c0c0" stroke-width="2" points="824.574,-405.0822 830.2919,-396.1628 820.2598,-399.5697 824.574,-405.0822"/>
</g>
<!-- 21 -->
<g id="node22" class="node">
<title>21</title>
<path fill="none" stroke="#a7d856" stroke-width="2" d="M789.5,-324C789.5,-324 713.5,-324 713.5,-324 707.5,-324 701.5,-318 701.5,-312 701.5,-312 701.5,-300 701.5,-300 701.5,-294 707.5,-288 713.5,-288 713.5,-288 789.5,-288 789.5,-288 795.5,-288 801.5,-294 801.5,-300 801.5,-300 801.5,-312 801.5,-312 801.5,-318 795.5,-324 789.5,-324"/>
<text text-anchor="middle" x="751.5" y="-303.5" font-family="sans" font-size="10.00" fill="#000000">calculate_cutoffs</text>
</g>
<!-- 18&#45;&gt;21 -->
<g id="edge31" class="edge">
<title>18&#45;&gt;21</title>
<path fill="none" stroke="#c0c0c0" stroke-width="2" d="M736.9199,-431.7772C726.3518,-422.4022 715.1457,-410.0021 709.5,-396 703.5168,-381.1608 704.3074,-375.134 709.5,-360 712.969,-349.8894 719.1899,-340.2137 725.799,-331.9166"/>
<polygon fill="#c0c0c0" stroke="#c0c0c0" stroke-width="2" points="728.6265,-333.9949 732.45,-324.1141 723.2992,-329.4539 728.6265,-333.9949"/>
</g>
<!-- 32 -->
<g id="node33" class="node">
<title>32</title>
<path fill="none" stroke="#56d89a" stroke-width="2" d="M792.5,-396C792.5,-396 730.5,-396 730.5,-396 724.5,-396 718.5,-390 718.5,-384 718.5,-384 718.5,-372 718.5,-372 718.5,-366 724.5,-360 730.5,-360 730.5,-360 792.5,-360 792.5,-360 798.5,-360 804.5,-366 804.5,-372 804.5,-372 804.5,-384 804.5,-384 804.5,-390 798.5,-396 792.5,-396"/>
<text text-anchor="middle" x="761.5" y="-375.5" font-family="sans" font-size="10.00" fill="#000000">calculate_tpm</text>
</g>
<!-- 18&#45;&gt;32 -->
<g id="edge48" class="edge">
<title>18&#45;&gt;32</title>
<path fill="none" stroke="#c0c0c0" stroke-width="2" d="M761.5,-431.8314C761.5,-424.131 761.5,-414.9743 761.5,-406.4166"/>
<polygon fill="#c0c0c0" stroke="#c0c0c0" stroke-width="2" points="765.0001,-406.4132 761.5,-396.4133 758.0001,-406.4133 765.0001,-406.4132"/>
</g>
<!-- 19 -->
<g id="node20" class="node">
<title>19</title>
<path fill="none" stroke="#c6d856" stroke-width="2" d="M306.5,-396C306.5,-396 272.5,-396 272.5,-396 266.5,-396 260.5,-390 260.5,-384 260.5,-384 260.5,-372 260.5,-372 260.5,-366 266.5,-360 272.5,-360 272.5,-360 306.5,-360 306.5,-360 312.5,-360 318.5,-366 318.5,-372 318.5,-372 318.5,-384 318.5,-384 318.5,-390 312.5,-396 306.5,-396"/>
<text text-anchor="middle" x="289.5" y="-375.5" font-family="sans" font-size="10.00" fill="#000000">rlog_pca</text>
</g>
<!-- 19&#45;&gt;3 -->
<g id="edge5" class="edge">
<title>19&#45;&gt;3</title>
<path fill="none" stroke="#c0c0c0" stroke-width="2" d="M288.2383,-359.8314C287.7035,-352.131 287.0677,-342.9743 286.4734,-334.4166"/>
<polygon fill="#c0c0c0" stroke="#c0c0c0" stroke-width="2" points="289.9632,-334.1467 285.7787,-324.4133 282.98,-334.6317 289.9632,-334.1467"/>
</g>
<!-- 19&#45;&gt;13 -->
<g id="edge18" class="edge">
<title>19&#45;&gt;13</title>
<path fill="none" stroke="#c0c0c0" stroke-width="2" d="M318.8069,-361.1192C335.2754,-351.6334 356.0752,-339.6527 374.0731,-329.2859"/>
<polygon fill="#c0c0c0" stroke="#c0c0c0" stroke-width="2" points="376.2732,-332.0578 383.1916,-324.0336 372.7793,-325.992 376.2732,-332.0578"/>
</g>
<!-- 20 -->
<g id="node21" class="node">
<title>20</title>
<path fill="none" stroke="#5663d8" stroke-width="2" d="M636.5,-180C636.5,-180 596.5,-180 596.5,-180 590.5,-180 584.5,-174 584.5,-168 584.5,-168 584.5,-156 584.5,-156 584.5,-150 590.5,-144 596.5,-144 596.5,-144 636.5,-144 636.5,-144 642.5,-144 648.5,-150 648.5,-156 648.5,-156 648.5,-168 648.5,-168 648.5,-174 642.5,-180 636.5,-180"/>
<text text-anchor="middle" x="616.5" y="-159.5" font-family="sans" font-size="10.00" fill="#000000">deseq_tfs</text>
</g>
<!-- 20&#45;&gt;5 -->
<g id="edge10" class="edge">
<title>20&#45;&gt;5</title>
<path fill="none" stroke="#c0c0c0" stroke-width="2" d="M648.6248,-150.8689C685.4952,-137.7735 741.6671,-116.7134 747.5,-108 756.4005,-94.7041 757.9483,-84.1175 747.5,-72 729.0216,-50.5695 561.3849,-32.8781 460.5023,-24.0563"/>
<polygon fill="#c0c0c0" stroke="#c0c0c0" stroke-width="2" points="460.6176,-20.5533 450.3533,-23.179 460.0147,-27.5273 460.6176,-20.5533"/>
</g>
<!-- 20&#45;&gt;9 -->
<g id="edge12" class="edge">
<title>20&#45;&gt;9</title>
<path fill="none" stroke="#c0c0c0" stroke-width="2" d="M638.2014,-143.8314C648.6921,-135.0485 661.4455,-124.3712 672.8194,-114.8489"/>
<polygon fill="#c0c0c0" stroke="#c0c0c0" stroke-width="2" points="675.3847,-117.2659 680.8055,-108.1628 670.8911,-111.8986 675.3847,-117.2659"/>
</g>
<!-- 20&#45;&gt;11 -->
<g id="edge15" class="edge">
<title>20&#45;&gt;11</title>
<path fill="none" stroke="#c0c0c0" stroke-width="2" d="M609.1821,-143.8314C606.0124,-135.9617 602.23,-126.5712 598.7187,-117.8533"/>
<polygon fill="#c0c0c0" stroke="#c0c0c0" stroke-width="2" points="601.8992,-116.3815 594.9165,-108.4133 595.4061,-118.9968 601.8992,-116.3815"/>
</g>
<!-- 21&#45;&gt;5 -->
<g id="edge6" class="edge">
<title>21&#45;&gt;5</title>
<path fill="none" stroke="#c0c0c0" stroke-width="2" d="M778.4467,-287.872C836.6817,-246.5889 963.9981,-143.6146 899.5,-72 870.6953,-40.0171 596.7746,-25.6659 460.5951,-20.4651"/>
<polygon fill="#c0c0c0" stroke="#c0c0c0" stroke-width="2" points="460.3631,-16.954 450.239,-20.0771 460.1009,-23.9491 460.3631,-16.954"/>
</g>
<!-- 23 -->
<g id="node24" class="node">
<title>23</title>
<path fill="none" stroke="#56d8a9" stroke-width="2" d="M788.5,-252C788.5,-252 702.5,-252 702.5,-252 696.5,-252 690.5,-246 690.5,-240 690.5,-240 690.5,-228 690.5,-228 690.5,-222 696.5,-216 702.5,-216 702.5,-216 788.5,-216 788.5,-216 794.5,-216 800.5,-222 800.5,-228 800.5,-228 800.5,-240 800.5,-240 800.5,-246 794.5,-252 788.5,-252"/>
<text text-anchor="middle" x="745.5" y="-231.5" font-family="sans" font-size="10.00" fill="#000000">filter_deseq_object</text>
</g>
<!-- 21&#45;&gt;23 -->
<g id="edge36" class="edge">
<title>21&#45;&gt;23</title>
<path fill="none" stroke="#c0c0c0" stroke-width="2" d="M749.9859,-287.8314C749.3442,-280.131 748.5812,-270.9743 747.8681,-262.4166"/>
<polygon fill="#c0c0c0" stroke="#c0c0c0" stroke-width="2" points="751.3529,-262.088 747.0344,-252.4133 744.3771,-262.6694 751.3529,-262.088"/>
</g>
<!-- 28 -->
<g id="node29" class="node">
<title>28</title>
<path fill="none" stroke="#56d8b1" stroke-width="2" d="M593.5,-252C593.5,-252 559.5,-252 559.5,-252 553.5,-252 547.5,-246 547.5,-240 547.5,-240 547.5,-228 547.5,-228 547.5,-222 553.5,-216 559.5,-216 559.5,-216 593.5,-216 593.5,-216 599.5,-216 605.5,-222 605.5,-228 605.5,-228 605.5,-240 605.5,-240 605.5,-246 599.5,-252 593.5,-252"/>
<text text-anchor="middle" x="576.5" y="-231.5" font-family="sans" font-size="10.00" fill="#000000">filter_tfs</text>
</g>
<!-- 21&#45;&gt;28 -->
<g id="edge41" class="edge">
<title>21&#45;&gt;28</title>
<path fill="none" stroke="#c0c0c0" stroke-width="2" d="M707.3401,-287.8314C678.9335,-276.1441 642.3736,-261.1023 615.1244,-249.8912"/>
<polygon fill="#c0c0c0" stroke="#c0c0c0" stroke-width="2" points="616.1184,-246.5155 605.5388,-245.9474 613.455,-252.9891 616.1184,-246.5155"/>
</g>
<!-- 22&#45;&gt;5 -->
<g id="edge7" class="edge">
<title>22&#45;&gt;5</title>
<path fill="none" stroke="#c0c0c0" stroke-width="2" d="M309.7342,-71.8314C322.288,-62.7927 337.6283,-51.7476 351.1391,-42.0198"/>
<polygon fill="#c0c0c0" stroke="#c0c0c0" stroke-width="2" points="353.2036,-44.8463 359.2739,-36.1628 349.1134,-39.1655 353.2036,-44.8463"/>
</g>
<!-- 23&#45;&gt;7 -->
<g id="edge11" class="edge">
<title>23&#45;&gt;7</title>
<path fill="none" stroke="#c0c0c0" stroke-width="2" d="M744.2383,-215.8314C743.7035,-208.131 743.0677,-198.9743 742.4734,-190.4166"/>
<polygon fill="#c0c0c0" stroke="#c0c0c0" stroke-width="2" points="745.9632,-190.1467 741.7787,-180.4133 738.98,-190.6317 745.9632,-190.1467"/>
</g>
<!-- 24 -->
<g id="node25" class="node">
<title>24</title>
<path fill="none" stroke="#ced856" stroke-width="2" d="M863,-180C863,-180 824,-180 824,-180 818,-180 812,-174 812,-168 812,-168 812,-156 812,-156 812,-150 818,-144 824,-144 824,-144 863,-144 863,-144 869,-144 875,-150 875,-156 875,-156 875,-168 875,-168 875,-174 869,-180 863,-180"/>
<text text-anchor="middle" x="843.5" y="-159.5" font-family="sans" font-size="10.00" fill="#000000">deseq_all</text>
</g>
<!-- 23&#45;&gt;24 -->
<g id="edge37" class="edge">
<title>23&#45;&gt;24</title>
<path fill="none" stroke="#c0c0c0" stroke-width="2" d="M770.2295,-215.8314C782.4162,-206.8779 797.2823,-195.9558 810.4312,-186.2955"/>
<polygon fill="#c0c0c0" stroke="#c0c0c0" stroke-width="2" points="812.7918,-188.9042 818.7784,-180.1628 808.6473,-183.263 812.7918,-188.9042"/>
</g>
<!-- 24&#45;&gt;12 -->
<g id="edge16" class="edge">
<title>24&#45;&gt;12</title>
<path fill="none" stroke="#c0c0c0" stroke-width="2" d="M843.5,-143.8314C843.5,-136.131 843.5,-126.9743 843.5,-118.4166"/>
<polygon fill="#c0c0c0" stroke="#c0c0c0" stroke-width="2" points="847.0001,-118.4132 843.5,-108.4133 840.0001,-118.4133 847.0001,-118.4132"/>
</g>
<!-- 25 -->
<g id="node26" class="node">
<title>25</title>
<path fill="none" stroke="#56d8d0" stroke-width="2" d="M406,-396C406,-396 349,-396 349,-396 343,-396 337,-390 337,-384 337,-384 337,-372 337,-372 337,-366 343,-360 349,-360 349,-360 406,-360 406,-360 412,-360 418,-366 418,-372 418,-372 418,-384 418,-384 418,-390 412,-396 406,-396"/>
<text text-anchor="middle" x="377.5" y="-375.5" font-family="sans" font-size="10.00" fill="#000000">tfdb_families</text>
</g>
<!-- 25&#45;&gt;13 -->
<g id="edge19" class="edge">
<title>25&#45;&gt;13</title>
<path fill="none" stroke="#c0c0c0" stroke-width="2" d="M386.8367,-359.8314C390.9243,-351.8771 395.8104,-342.369 400.3309,-333.5723"/>
<polygon fill="#c0c0c0" stroke="#c0c0c0" stroke-width="2" points="403.5799,-334.9074 405.0376,-324.4133 397.3539,-331.7078 403.5799,-334.9074"/>
</g>
<!-- 26 -->
<g id="node27" class="node">
<title>26</title>
<path fill="none" stroke="#56a9d8" stroke-width="2" d="M536.5,-396C536.5,-396 486.5,-396 486.5,-396 480.5,-396 474.5,-390 474.5,-384 474.5,-384 474.5,-372 474.5,-372 474.5,-366 480.5,-360 486.5,-360 486.5,-360 536.5,-360 536.5,-360 542.5,-360 548.5,-366 548.5,-372 548.5,-372 548.5,-384 548.5,-384 548.5,-390 542.5,-396 536.5,-396"/>
<text text-anchor="middle" x="511.5" y="-375.5" font-family="sans" font-size="10.00" fill="#000000">format_tfdb</text>
</g>
<!-- 26&#45;&gt;13 -->
<g id="edge20" class="edge">
<title>26&#45;&gt;13</title>
<path fill="none" stroke="#c0c0c0" stroke-width="2" d="M487.0228,-359.8314C474.9605,-350.8779 460.246,-339.9558 447.2314,-330.2955"/>
<polygon fill="#c0c0c0" stroke="#c0c0c0" stroke-width="2" points="449.0852,-327.3127 438.9694,-324.1628 444.913,-332.9335 449.0852,-327.3127"/>
</g>
<!-- 26&#45;&gt;15 -->
<g id="edge22" class="edge">
<title>26&#45;&gt;15</title>
<path fill="none" stroke="#c0c0c0" stroke-width="2" d="M506.1298,-359.8484C500.5468,-341.5118 491.2707,-312.474 481.5,-288 467.6028,-253.1898 448.8753,-214.2849 436.2795,-189.0395"/>
<polygon fill="#c0c0c0" stroke="#c0c0c0" stroke-width="2" points="439.3906,-187.4355 431.7751,-180.0697 433.1351,-190.5769 439.3906,-187.4355"/>
</g>
<!-- 26&#45;&gt;28 -->
<g id="edge40" class="edge">
<title>26&#45;&gt;28</title>
<path fill="none" stroke="#c0c0c0" stroke-width="2" d="M519.7323,-359.7623C530.9655,-334.8764 551.1851,-290.0822 564.2148,-261.2165"/>
<polygon fill="#c0c0c0" stroke="#c0c0c0" stroke-width="2" points="567.4104,-262.6441 568.3345,-252.0896 561.0302,-259.7641 567.4104,-262.6441"/>
</g>
<!-- 27 -->
<g id="node28" class="node">
<title>27</title>
<path fill="none" stroke="#68d856" stroke-width="2" d="M667.5,-468C667.5,-468 561.5,-468 561.5,-468 555.5,-468 549.5,-462 549.5,-456 549.5,-456 549.5,-444 549.5,-444 549.5,-438 555.5,-432 561.5,-432 561.5,-432 667.5,-432 667.5,-432 673.5,-432 679.5,-438 679.5,-444 679.5,-444 679.5,-456 679.5,-456 679.5,-462 673.5,-468 667.5,-468"/>
<text text-anchor="middle" x="614.5" y="-447.5" font-family="sans" font-size="10.00" fill="#000000">generate_deseq_object</text>
</g>
<!-- 27&#45;&gt;13 -->
<g id="edge17" class="edge">
<title>27&#45;&gt;13</title>
<path fill="none" stroke="#c0c0c0" stroke-width="2" d="M549.1967,-437.0577C521.0649,-428.9372 489.2505,-416.0645 465.5,-396 445.9006,-379.4423 432.2935,-353.3362 424.0944,-333.4955"/>
<polygon fill="#c0c0c0" stroke="#c0c0c0" stroke-width="2" points="427.3025,-332.0889 420.399,-324.052 420.7838,-334.6398 427.3025,-332.0889"/>
</g>
<!-- 27&#45;&gt;19 -->
<g id="edge26" class="edge">
<title>27&#45;&gt;19</title>
<path fill="none" stroke="#c0c0c0" stroke-width="2" d="M549.4869,-442.6051C492.8354,-435.0753 408.6472,-421.2624 328.4168,-395.8732"/>
<polygon fill="#c0c0c0" stroke="#c0c0c0" stroke-width="2" points="329.2461,-392.463 318.6543,-392.7192 327.094,-399.124 329.2461,-392.463"/>
</g>
<!-- 27&#45;&gt;21 -->
<g id="edge32" class="edge">
<title>27&#45;&gt;21</title>
<path fill="none" stroke="#c0c0c0" stroke-width="2" d="M631.8511,-431.7623C656.042,-406.3354 700.0058,-360.1253 727.3758,-331.3569"/>
<polygon fill="#c0c0c0" stroke="#c0c0c0" stroke-width="2" points="729.9327,-333.7471 734.2897,-324.0896 724.8612,-328.9221 729.9327,-333.7471"/>
</g>
<!-- 27&#45;&gt;23 -->
<g id="edge35" class="edge">
<title>27&#45;&gt;23</title>
<path fill="none" stroke="#c0c0c0" stroke-width="2" d="M620.9462,-431.9462C632.5133,-400.8785 658.7667,-336.0204 692.5,-288 699.625,-277.8574 708.6981,-267.8553 717.3153,-259.2681"/>
<polygon fill="#c0c0c0" stroke="#c0c0c0" stroke-width="2" points="719.9539,-261.5854 724.7101,-252.1181 715.0881,-256.553 719.9539,-261.5854"/>
</g>
<!-- 27&#45;&gt;28 -->
<g id="edge39" class="edge">
<title>27&#45;&gt;28</title>
<path fill="none" stroke="#c0c0c0" stroke-width="2" d="M609.215,-431.6189C606.3583,-421.2272 602.9289,-407.9589 600.5,-396 591.0432,-349.4382 583.706,-294.6349 579.7508,-262.1903"/>
<polygon fill="#c0c0c0" stroke="#c0c0c0" stroke-width="2" points="583.2054,-261.6015 578.541,-252.0887 576.2551,-262.4339 583.2054,-261.6015"/>
</g>
<!-- 27&#45;&gt;32 -->
<g id="edge47" class="edge">
<title>27&#45;&gt;32</title>
<path fill="none" stroke="#c0c0c0" stroke-width="2" d="M651.5943,-431.8314C670.9926,-422.3302 694.917,-410.6121 715.4862,-400.5374"/>
<polygon fill="#c0c0c0" stroke="#c0c0c0" stroke-width="2" points="717.2314,-403.5799 724.6724,-396.038 714.1522,-397.2935 717.2314,-403.5799"/>
</g>
<!-- 28&#45;&gt;15 -->
<g id="edge21" class="edge">
<title>28&#45;&gt;15</title>
<path fill="none" stroke="#c0c0c0" stroke-width="2" d="M547.1713,-220.2879C523.7764,-209.35 490.702,-193.8866 464.4978,-181.6354"/>
<polygon fill="#c0c0c0" stroke="#c0c0c0" stroke-width="2" points="465.7264,-178.3461 455.1852,-177.2814 462.7617,-184.6873 465.7264,-178.3461"/>
</g>
<!-- 28&#45;&gt;20 -->
<g id="edge27" class="edge">
<title>28&#45;&gt;20</title>
<path fill="none" stroke="#c0c0c0" stroke-width="2" d="M586.5937,-215.8314C591.0597,-207.7925 596.4075,-198.1666 601.3379,-189.2918"/>
<polygon fill="#c0c0c0" stroke="#c0c0c0" stroke-width="2" points="604.4735,-190.8546 606.2704,-180.4133 598.3544,-187.4551 604.4735,-190.8546"/>
</g>
<!-- 29 -->
<g id="node30" class="node">
<title>29</title>
<path fill="none" stroke="#bed856" stroke-width="2" d="M799,-540C799,-540 724,-540 724,-540 718,-540 712,-534 712,-528 712,-528 712,-516 712,-516 712,-510 718,-504 724,-504 724,-504 799,-504 799,-504 805,-504 811,-510 811,-516 811,-516 811,-528 811,-528 811,-534 805,-540 799,-540"/>
<text text-anchor="middle" x="761.5" y="-519.5" font-family="sans" font-size="10.00" fill="#000000">second_mapping</text>
</g>
<!-- 29&#45;&gt;18 -->
<g id="edge25" class="edge">
<title>29&#45;&gt;18</title>
<path fill="none" stroke="#c0c0c0" stroke-width="2" d="M761.5,-503.8314C761.5,-496.131 761.5,-486.9743 761.5,-478.4166"/>
<polygon fill="#c0c0c0" stroke="#c0c0c0" stroke-width="2" points="765.0001,-478.4132 761.5,-468.4133 758.0001,-478.4133 765.0001,-478.4132"/>
</g>
<!-- 29&#45;&gt;27 -->
<g id="edge38" class="edge">
<title>29&#45;&gt;27</title>
<path fill="none" stroke="#c0c0c0" stroke-width="2" d="M724.4057,-503.8314C705.0074,-494.3302 681.083,-482.6121 660.5138,-472.5374"/>
<polygon fill="#c0c0c0" stroke="#c0c0c0" stroke-width="2" points="661.8478,-469.2935 651.3276,-468.038 658.7686,-475.5799 661.8478,-469.2935"/>
</g>
<!-- 37 -->
<g id="node38" class="node">
<title>37</title>
<path fill="none" stroke="#70d856" stroke-width="2" d="M924.5,-468C924.5,-468 842.5,-468 842.5,-468 836.5,-468 830.5,-462 830.5,-456 830.5,-456 830.5,-444 830.5,-444 830.5,-438 836.5,-432 842.5,-432 842.5,-432 924.5,-432 924.5,-432 930.5,-432 936.5,-438 936.5,-444 936.5,-444 936.5,-456 936.5,-456 936.5,-462 930.5,-468 924.5,-468"/>
<text text-anchor="middle" x="883.5" y="-447.5" font-family="sans" font-size="10.00" fill="#000000">count_background</text>
</g>
<!-- 29&#45;&gt;37 -->
<g id="edge55" class="edge">
<title>29&#45;&gt;37</title>
<path fill="none" stroke="#c0c0c0" stroke-width="2" d="M792.2858,-503.8314C807.8903,-494.6221 827.024,-483.3301 843.7303,-473.4706"/>
<polygon fill="#c0c0c0" stroke="#c0c0c0" stroke-width="2" points="845.8909,-476.2596 852.7241,-468.1628 842.3331,-470.2312 845.8909,-476.2596"/>
</g>
<!-- 30 -->
<g id="node31" class="node">
<title>30</title>
<path fill="none" stroke="#9fd856" stroke-width="2" d="M1086,-468C1086,-468 967,-468 967,-468 961,-468 955,-462 955,-456 955,-456 955,-444 955,-444 955,-438 961,-432 967,-432 967,-432 1086,-432 1086,-432 1092,-432 1098,-438 1098,-444 1098,-444 1098,-456 1098,-456 1098,-462 1092,-468 1086,-468"/>
<text text-anchor="middle" x="1026.5" y="-447.5" font-family="sans" font-size="10.00" fill="#000000">calculate_feature_lengths</text>
</g>
<!-- 30&#45;&gt;21 -->
<g id="edge30" class="edge">
<title>30&#45;&gt;21</title>
<path fill="none" stroke="#c0c0c0" stroke-width="2" d="M1045.9411,-431.8564C1064.3728,-412.4677 1086.7395,-381.6093 1068.5,-360 1052.1336,-340.6099 899.1397,-321.5262 811.828,-312.0927"/>
<polygon fill="#c0c0c0" stroke="#c0c0c0" stroke-width="2" points="812.0939,-308.6013 801.7784,-311.0181 811.3496,-315.5616 812.0939,-308.6013"/>
</g>
<!-- 30&#45;&gt;32 -->
<g id="edge49" class="edge">
<title>30&#45;&gt;32</title>
<path fill="none" stroke="#c0c0c0" stroke-width="2" d="M954.5983,-433.382C915.5458,-423.9789 866.2716,-411.5087 814.277,-396.1207"/>
<polygon fill="#c0c0c0" stroke="#c0c0c0" stroke-width="2" points="815.122,-392.7204 804.5387,-393.2135 813.1196,-399.4279 815.122,-392.7204"/>
</g>
<!-- 31 -->
<g id="node32" class="node">
<title>31</title>
<path fill="none" stroke="#d87556" stroke-width="2" d="M1047.5,-396C1047.5,-396 913.5,-396 913.5,-396 907.5,-396 901.5,-390 901.5,-384 901.5,-384 901.5,-372 901.5,-372 901.5,-366 907.5,-360 913.5,-360 913.5,-360 1047.5,-360 1047.5,-360 1053.5,-360 1059.5,-366 1059.5,-372 1059.5,-372 1059.5,-384 1059.5,-384 1059.5,-390 1053.5,-396 1047.5,-396"/>
<text text-anchor="middle" x="980.5" y="-375.5" font-family="sans" font-size="10.00" fill="#000000">combine_background_counts</text>
</g>
<!-- 31&#45;&gt;21 -->
<g id="edge29" class="edge">
<title>31&#45;&gt;21</title>
<path fill="none" stroke="#c0c0c0" stroke-width="2" d="M923.0092,-359.9243C889.0041,-349.2327 845.9923,-335.7094 811.5493,-324.8801"/>
<polygon fill="#c0c0c0" stroke="#c0c0c0" stroke-width="2" points="812.2062,-321.4178 801.6168,-321.7572 810.1066,-328.0955 812.2062,-321.4178"/>
</g>
<!-- 32&#45;&gt;21 -->
<g id="edge28" class="edge">
<title>32&#45;&gt;21</title>
<path fill="none" stroke="#c0c0c0" stroke-width="2" d="M758.9766,-359.8314C757.9071,-352.131 756.6353,-342.9743 755.4468,-334.4166"/>
<polygon fill="#c0c0c0" stroke="#c0c0c0" stroke-width="2" points="758.8999,-333.8367 754.0574,-324.4133 751.9664,-334.7997 758.8999,-333.8367"/>
</g>
<!-- 33 -->
<g id="node34" class="node">
<title>33</title>
<path fill="none" stroke="#568ad8" stroke-width="2" d="M791.5,-612C791.5,-612 731.5,-612 731.5,-612 725.5,-612 719.5,-606 719.5,-600 719.5,-600 719.5,-588 719.5,-588 719.5,-582 725.5,-576 731.5,-576 731.5,-576 791.5,-576 791.5,-576 797.5,-576 803.5,-582 803.5,-588 803.5,-588 803.5,-600 803.5,-600 803.5,-606 797.5,-612 791.5,-612"/>
<text text-anchor="middle" x="761.5" y="-591.5" font-family="sans" font-size="10.00" fill="#000000">first_mapping</text>
</g>
<!-- 33&#45;&gt;29 -->
<g id="edge43" class="edge">
<title>33&#45;&gt;29</title>
<path fill="none" stroke="#c0c0c0" stroke-width="2" d="M761.5,-575.8314C761.5,-568.131 761.5,-558.9743 761.5,-550.4166"/>
<polygon fill="#c0c0c0" stroke="#c0c0c0" stroke-width="2" points="765.0001,-550.4132 761.5,-540.4133 758.0001,-550.4133 765.0001,-550.4132"/>
</g>
<!-- 34 -->
<g id="node35" class="node">
<title>34</title>
<path fill="none" stroke="#56d892" stroke-width="2" d="M727.5,-684C727.5,-684 697.5,-684 697.5,-684 691.5,-684 685.5,-678 685.5,-672 685.5,-672 685.5,-660 685.5,-660 685.5,-654 691.5,-648 697.5,-648 697.5,-648 727.5,-648 727.5,-648 733.5,-648 739.5,-654 739.5,-660 739.5,-660 739.5,-672 739.5,-672 739.5,-678 733.5,-684 727.5,-684"/>
<text text-anchor="middle" x="712.5" y="-663.5" font-family="sans" font-size="10.00" fill="#000000">gzip</text>
</g>
<!-- 34&#45;&gt;29 -->
<g id="edge44" class="edge">
<title>34&#45;&gt;29</title>
<path fill="none" stroke="#c0c0c0" stroke-width="2" d="M708.0376,-647.6767C704.3915,-628.9511 701.2037,-599.3822 710.5,-576 714.7676,-565.2659 722.2931,-555.4321 730.2739,-547.1828"/>
<polygon fill="#c0c0c0" stroke="#c0c0c0" stroke-width="2" points="732.8801,-549.5319 737.6509,-540.072 728.0221,-544.4921 732.8801,-549.5319"/>
</g>
<!-- 34&#45;&gt;33 -->
<g id="edge50" class="edge">
<title>34&#45;&gt;33</title>
<path fill="none" stroke="#c0c0c0" stroke-width="2" d="M724.8648,-647.8314C730.4509,-639.6232 737.163,-629.7606 743.3072,-620.7323"/>
<polygon fill="#c0c0c0" stroke="#c0c0c0" stroke-width="2" points="746.236,-622.6496 748.9687,-612.4133 740.449,-618.7112 746.236,-622.6496"/>
</g>
<!-- 35 -->
<g id="node36" class="node">
<title>35</title>
<path fill="none" stroke="#5682d8" stroke-width="2" d="M872,-684C872,-684 791,-684 791,-684 785,-684 779,-678 779,-672 779,-672 779,-660 779,-660 779,-654 785,-648 791,-648 791,-648 872,-648 872,-648 878,-648 884,-654 884,-660 884,-660 884,-672 884,-672 884,-678 878,-684 872,-684"/>
<text text-anchor="middle" x="831.5" y="-663.5" font-family="sans" font-size="10.00" fill="#000000">generate_genome</text>
</g>
<!-- 35&#45;&gt;29 -->
<g id="edge42" class="edge">
<title>35&#45;&gt;29</title>
<path fill="none" stroke="#c0c0c0" stroke-width="2" d="M830.5509,-647.7777C828.9229,-628.8708 824.5025,-598.9176 812.5,-576 807.0492,-565.5922 799.0185,-555.7529 790.9346,-547.3956"/>
<polygon fill="#c0c0c0" stroke="#c0c0c0" stroke-width="2" points="793.156,-544.6717 783.5682,-540.1634 788.252,-549.6667 793.156,-544.6717"/>
</g>
<!-- 35&#45;&gt;33 -->
<g id="edge51" class="edge">
<title>35&#45;&gt;33</title>
<path fill="none" stroke="#c0c0c0" stroke-width="2" d="M813.836,-647.8314C805.5268,-639.2848 795.4736,-628.9443 786.4082,-619.6198"/>
<polygon fill="#c0c0c0" stroke="#c0c0c0" stroke-width="2" points="788.8821,-617.1435 779.4018,-612.4133 783.8631,-622.023 788.8821,-617.1435"/>
</g>
<!-- 39 -->
<g id="node40" class="node">
<title>39</title>
<path fill="none" stroke="#56a2d8" stroke-width="2" d="M917,-612C917,-612 872,-612 872,-612 866,-612 860,-606 860,-600 860,-600 860,-588 860,-588 860,-582 866,-576 872,-576 872,-576 917,-576 917,-576 923,-576 929,-582 929,-588 929,-588 929,-600 929,-600 929,-606 923,-612 917,-612"/>
<text text-anchor="middle" x="894.5" y="-591.5" font-family="sans" font-size="10.00" fill="#000000">shuffle_gtf</text>
</g>
<!-- 35&#45;&gt;39 -->
<g id="edge57" class="edge">
<title>35&#45;&gt;39</title>
<path fill="none" stroke="#c0c0c0" stroke-width="2" d="M847.3976,-647.8314C854.7278,-639.454 863.566,-629.3531 871.5969,-620.1749"/>
<polygon fill="#c0c0c0" stroke="#c0c0c0" stroke-width="2" points="874.4373,-622.2438 878.3884,-612.4133 869.1693,-617.6343 874.4373,-622.2438"/>
</g>
<!-- 36 -->
<g id="node37" class="node">
<title>36</title>
<path fill="none" stroke="#56c9d8" stroke-width="2" d="M940,-756C940,-756 885,-756 885,-756 879,-756 873,-750 873,-744 873,-744 873,-732 873,-732 873,-726 879,-720 885,-720 885,-720 940,-720 940,-720 946,-720 952,-726 952,-732 952,-732 952,-744 952,-744 952,-750 946,-756 940,-756"/>
<text text-anchor="middle" x="912.5" y="-735.5" font-family="sans" font-size="10.00" fill="#000000">generate_gtf</text>
</g>
<!-- 36&#45;&gt;30 -->
<g id="edge45" class="edge">
<title>36&#45;&gt;30</title>
<path fill="none" stroke="#c0c0c0" stroke-width="2" d="M919.6312,-719.9843C938.9845,-671.0919 992.5856,-535.6785 1015.6819,-477.33"/>
<polygon fill="#c0c0c0" stroke="#c0c0c0" stroke-width="2" points="1018.9453,-478.5951 1019.3715,-468.0089 1012.4366,-476.0188 1018.9453,-478.5951"/>
</g>
<!-- 36&#45;&gt;35 -->
<g id="edge53" class="edge">
<title>36&#45;&gt;35</title>
<path fill="none" stroke="#c0c0c0" stroke-width="2" d="M892.0603,-719.8314C882.1795,-711.0485 870.1676,-700.3712 859.455,-690.8489"/>
<polygon fill="#c0c0c0" stroke="#c0c0c0" stroke-width="2" points="861.7326,-688.1906 851.9332,-684.1628 857.082,-693.4224 861.7326,-688.1906"/>
</g>
<!-- 36&#45;&gt;39 -->
<g id="edge58" class="edge">
<title>36&#45;&gt;39</title>
<path fill="none" stroke="#c0c0c0" stroke-width="2" d="M910.2203,-719.7623C907.1501,-695.201 901.6559,-651.2474 898.0443,-622.3541"/>
<polygon fill="#c0c0c0" stroke="#c0c0c0" stroke-width="2" points="901.4746,-621.5782 896.7612,-612.0896 894.5287,-622.4465 901.4746,-621.5782"/>
</g>
<!-- 37&#45;&gt;31 -->
<g id="edge46" class="edge">
<title>37&#45;&gt;31</title>
<path fill="none" stroke="#c0c0c0" stroke-width="2" d="M907.9772,-431.8314C920.0395,-422.8779 934.754,-411.9558 947.7686,-402.2955"/>
<polygon fill="#c0c0c0" stroke="#c0c0c0" stroke-width="2" points="950.087,-404.9335 956.0306,-396.1628 945.9148,-399.3127 950.087,-404.9335"/>
</g>
<!-- 38 -->
<g id="node39" class="node">
<title>38</title>
<path fill="none" stroke="#d8cb56" stroke-width="2" d="M730,-756C730,-756 695,-756 695,-756 689,-756 683,-750 683,-744 683,-744 683,-732 683,-732 683,-726 689,-720 695,-720 695,-720 730,-720 730,-720 736,-720 742,-726 742,-732 742,-732 742,-744 742,-744 742,-750 736,-756 730,-756"/>
<text text-anchor="middle" x="712.5" y="-735.5" font-family="sans" font-size="10.00" fill="#000000">cutadapt</text>
</g>
<!-- 38&#45;&gt;34 -->
<g id="edge52" class="edge">
<title>38&#45;&gt;34</title>
<path fill="none" stroke="#c0c0c0" stroke-width="2" d="M712.5,-719.8314C712.5,-712.131 712.5,-702.9743 712.5,-694.4166"/>
<polygon fill="#c0c0c0" stroke="#c0c0c0" stroke-width="2" points="716.0001,-694.4132 712.5,-684.4133 709.0001,-694.4133 716.0001,-694.4132"/>
</g>
<!-- 39&#45;&gt;37 -->
<g id="edge54" class="edge">
<title>39&#45;&gt;37</title>
<path fill="none" stroke="#c0c0c0" stroke-width="2" d="M893.1068,-575.7623C891.2306,-551.201 887.8731,-507.2474 885.6659,-478.3541"/>
<polygon fill="#c0c0c0" stroke="#c0c0c0" stroke-width="2" points="889.1334,-477.794 884.8818,-468.0896 882.1538,-478.3272 889.1334,-477.794"/>
</g>
<!-- 40 -->
<g id="node41" class="node">
<title>40</title>
<path fill="none" stroke="#d8ac56" stroke-width="2" d="M727.5,-828C727.5,-828 697.5,-828 697.5,-828 691.5,-828 685.5,-822 685.5,-816 685.5,-816 685.5,-804 685.5,-804 685.5,-798 691.5,-792 697.5,-792 697.5,-792 727.5,-792 727.5,-792 733.5,-792 739.5,-798 739.5,-804 739.5,-804 739.5,-816 739.5,-816 739.5,-822 733.5,-828 727.5,-828"/>
<text text-anchor="middle" x="712.5" y="-807.5" font-family="sans" font-size="10.00" fill="#000000">repair</text>
</g>
<!-- 40&#45;&gt;38 -->
<g id="edge56" class="edge">
<title>40&#45;&gt;38</title>
<path fill="none" stroke="#c0c0c0" stroke-width="2" d="M712.5,-791.8314C712.5,-784.131 712.5,-774.9743 712.5,-766.4166"/>
<polygon fill="#c0c0c0" stroke="#c0c0c0" stroke-width="2" points="716.0001,-766.4132 712.5,-756.4133 709.0001,-766.4133 716.0001,-766.4132"/>
</g>
</g>
</svg>
