<?xml version="1.0" encoding="UTF-8" standalone="no"?>
<!DOCTYPE svg PUBLIC "-//W3C//DTD SVG 1.1//EN"
 "http://www.w3.org/Graphics/SVG/1.1/DTD/svg11.dtd">
<!-- Generated by graphviz version 2.38.0 (20140413.2041)
 -->
<!-- Title: snakemake_dag Pages: 1 -->
<svg width="536pt" height="620pt"
 viewBox="0.00 0.00 535.50 620.00" xmlns="http://www.w3.org/2000/svg" xmlns:xlink="http://www.w3.org/1999/xlink">
<g id="graph0" class="graph" transform="scale(1 1) rotate(0) translate(4 616)">
<title>snakemake_dag</title>
<polygon fill="white" stroke="none" points="-4,4 -4,-616 531.5,-616 531.5,4 -4,4"/>
<!-- 0 -->
<g id="node1" class="node"><title>0</title>
<path fill="none" stroke="#bed856" stroke-width="2" d="M150.5,-36C150.5,-36 65.5,-36 65.5,-36 59.5,-36 53.5,-30 53.5,-24 53.5,-24 53.5,-12 53.5,-12 53.5,-6 59.5,-0 65.5,-0 65.5,-0 150.5,-0 150.5,-0 156.5,-0 162.5,-6 162.5,-12 162.5,-12 162.5,-24 162.5,-24 162.5,-30 156.5,-36 150.5,-36"/>
<text text-anchor="middle" x="108" y="-15.5" font-family="sans" font-size="10.00">filter_deseq_object</text>
</g>
<!-- 1 -->
<g id="node2" class="node"><title>1</title>
<path fill="none" stroke="#9fd856" stroke-width="2" d="M118,-252C118,-252 12,-252 12,-252 6,-252 0,-246 0,-240 0,-240 0,-228 0,-228 0,-222 6,-216 12,-216 12,-216 118,-216 118,-216 124,-216 130,-222 130,-228 130,-228 130,-240 130,-240 130,-246 124,-252 118,-252"/>
<text text-anchor="middle" x="65" y="-231.5" font-family="sans" font-size="10.00">generate_deseq_object</text>
</g>
<!-- 1&#45;&gt;0 -->
<g id="edge1" class="edge"><title>1&#45;&gt;0</title>
<path fill="none" stroke="grey" stroke-width="2" d="M65.3255,-215.806C65.9057,-197.783 67.5184,-168.705 72,-144 78.2707,-109.432 90.2142,-70.717 98.6204,-45.6604"/>
<polygon fill="grey" stroke="grey" stroke-width="2" points="101.956,-46.7225 101.869,-36.128 95.3303,-44.4641 101.956,-46.7225"/>
</g>
<!-- 2 -->
<g id="node3" class="node"><title>2</title>
<path fill="none" stroke="#d8d356" stroke-width="2" d="M217.5,-108C217.5,-108 142.5,-108 142.5,-108 136.5,-108 130.5,-102 130.5,-96 130.5,-96 130.5,-84 130.5,-84 130.5,-78 136.5,-72 142.5,-72 142.5,-72 217.5,-72 217.5,-72 223.5,-72 229.5,-78 229.5,-84 229.5,-84 229.5,-96 229.5,-96 229.5,-102 223.5,-108 217.5,-108"/>
<text text-anchor="middle" x="180" y="-87.5" font-family="sans" font-size="10.00">calculate_cutoffs</text>
</g>
<!-- 1&#45;&gt;2 -->
<g id="edge4" class="edge"><title>1&#45;&gt;2</title>
<path fill="none" stroke="grey" stroke-width="2" d="M66.7532,-215.932C69.49,-196.684 76.3247,-165.3 93,-144 102.838,-131.434 116.549,-121.142 130.182,-113.081"/>
<polygon fill="grey" stroke="grey" stroke-width="2" points="132.064,-116.039 139.087,-108.106 128.65,-109.928 132.064,-116.039"/>
</g>
<!-- 5 -->
<g id="node6" class="node"><title>5</title>
<path fill="none" stroke="#5692d8" stroke-width="2" d="M176,-180C176,-180 114,-180 114,-180 108,-180 102,-174 102,-168 102,-168 102,-156 102,-156 102,-150 108,-144 114,-144 114,-144 176,-144 176,-144 182,-144 188,-150 188,-156 188,-156 188,-168 188,-168 188,-174 182,-180 176,-180"/>
<text text-anchor="middle" x="145" y="-159.5" font-family="sans" font-size="10.00">calculate_tpm</text>
</g>
<!-- 1&#45;&gt;5 -->
<g id="edge14" class="edge"><title>1&#45;&gt;5</title>
<path fill="none" stroke="grey" stroke-width="2" d="M84.7753,-215.697C94.7537,-206.965 107.011,-196.24 117.857,-186.75"/>
<polygon fill="grey" stroke="grey" stroke-width="2" points="120.231,-189.323 125.452,-180.104 115.622,-184.055 120.231,-189.323"/>
</g>
<!-- 2&#45;&gt;0 -->
<g id="edge2" class="edge"><title>2&#45;&gt;0</title>
<path fill="none" stroke="grey" stroke-width="2" d="M162.202,-71.6966C153.396,-63.135 142.618,-52.6562 132.999,-43.3045"/>
<polygon fill="grey" stroke="grey" stroke-width="2" points="135.203,-40.5657 125.593,-36.1043 130.323,-45.5846 135.203,-40.5657"/>
</g>
<!-- 3 -->
<g id="node4" class="node"><title>3</title>
<path fill="none" stroke="#56b1d8" stroke-width="2" d="M232.5,-324C232.5,-324 157.5,-324 157.5,-324 151.5,-324 145.5,-318 145.5,-312 145.5,-312 145.5,-300 145.5,-300 145.5,-294 151.5,-288 157.5,-288 157.5,-288 232.5,-288 232.5,-288 238.5,-288 244.5,-294 244.5,-300 244.5,-300 244.5,-312 244.5,-312 244.5,-318 238.5,-324 232.5,-324"/>
<text text-anchor="middle" x="195" y="-303.5" font-family="sans" font-size="10.00">second_mapping</text>
</g>
<!-- 3&#45;&gt;1 -->
<g id="edge3" class="edge"><title>3&#45;&gt;1</title>
<path fill="none" stroke="grey" stroke-width="2" d="M163.198,-287.876C145.886,-278.554 124.279,-266.919 105.744,-256.939"/>
<polygon fill="grey" stroke="grey" stroke-width="2" points="107.388,-253.849 96.9238,-252.19 104.069,-260.012 107.388,-253.849"/>
</g>
<!-- 7 -->
<g id="node8" class="node"><title>7</title>
<path fill="none" stroke="#88d856" stroke-width="2" d="M229.5,-252C229.5,-252 160.5,-252 160.5,-252 154.5,-252 148.5,-246 148.5,-240 148.5,-240 148.5,-228 148.5,-228 148.5,-222 154.5,-216 160.5,-216 160.5,-216 229.5,-216 229.5,-216 235.5,-216 241.5,-222 241.5,-228 241.5,-228 241.5,-240 241.5,-240 241.5,-246 235.5,-252 229.5,-252"/>
<text text-anchor="middle" x="195" y="-231.5" font-family="sans" font-size="10.00">parse_star_logs</text>
</g>
<!-- 3&#45;&gt;7 -->
<g id="edge17" class="edge"><title>3&#45;&gt;7</title>
<path fill="none" stroke="grey" stroke-width="2" d="M195,-287.697C195,-279.983 195,-270.712 195,-262.112"/>
<polygon fill="grey" stroke="grey" stroke-width="2" points="198.5,-262.104 195,-252.104 191.5,-262.104 198.5,-262.104"/>
</g>
<!-- 12 -->
<g id="node13" class="node"><title>12</title>
<path fill="none" stroke="#56d863" stroke-width="2" d="M354,-252C354,-252 272,-252 272,-252 266,-252 260,-246 260,-240 260,-240 260,-228 260,-228 260,-222 266,-216 272,-216 272,-216 354,-216 354,-216 360,-216 366,-222 366,-228 366,-228 366,-240 366,-240 366,-246 360,-252 354,-252"/>
<text text-anchor="middle" x="313" y="-231.5" font-family="sans" font-size="10.00">count_background</text>
</g>
<!-- 3&#45;&gt;12 -->
<g id="edge23" class="edge"><title>3&#45;&gt;12</title>
<path fill="none" stroke="grey" stroke-width="2" d="M223.866,-287.876C239.295,-278.724 258.481,-267.342 275.097,-257.485"/>
<polygon fill="grey" stroke="grey" stroke-width="2" points="277.208,-260.302 284.023,-252.19 273.637,-254.282 277.208,-260.302"/>
</g>
<!-- 4 -->
<g id="node5" class="node"><title>4</title>
<path fill="none" stroke="#56d8a2" stroke-width="2" d="M515.5,-252C515.5,-252 396.5,-252 396.5,-252 390.5,-252 384.5,-246 384.5,-240 384.5,-240 384.5,-228 384.5,-228 384.5,-222 390.5,-216 396.5,-216 396.5,-216 515.5,-216 515.5,-216 521.5,-216 527.5,-222 527.5,-228 527.5,-228 527.5,-240 527.5,-240 527.5,-246 521.5,-252 515.5,-252"/>
<text text-anchor="middle" x="456" y="-231.5" font-family="sans" font-size="10.00">calculate_feature_lengths</text>
</g>
<!-- 4&#45;&gt;2 -->
<g id="edge6" class="edge"><title>4&#45;&gt;2</title>
<path fill="none" stroke="grey" stroke-width="2" d="M452.024,-215.758C446.417,-195.436 434.179,-162.142 411,-144 362.044,-105.683 290.411,-94.1333 239.921,-91.1023"/>
<polygon fill="grey" stroke="grey" stroke-width="2" points="239.965,-87.6001 229.801,-90.5912 239.612,-94.5912 239.965,-87.6001"/>
</g>
<!-- 4&#45;&gt;5 -->
<g id="edge13" class="edge"><title>4&#45;&gt;5</title>
<path fill="none" stroke="grey" stroke-width="2" d="M384.26,-216.853C327.417,-204.058 249.289,-186.473 197.996,-174.928"/>
<polygon fill="grey" stroke="grey" stroke-width="2" points="198.634,-171.484 188.109,-172.703 197.097,-178.314 198.634,-171.484"/>
</g>
<!-- 5&#45;&gt;2 -->
<g id="edge7" class="edge"><title>5&#45;&gt;2</title>
<path fill="none" stroke="grey" stroke-width="2" d="M153.652,-143.697C157.636,-135.728 162.45,-126.1 166.868,-117.264"/>
<polygon fill="grey" stroke="grey" stroke-width="2" points="170.106,-118.614 171.448,-108.104 163.845,-115.483 170.106,-118.614"/>
</g>
<!-- 6 -->
<g id="node7" class="node"><title>6</title>
<path fill="none" stroke="#5673d8" stroke-width="2" d="M390,-180C390,-180 256,-180 256,-180 250,-180 244,-174 244,-168 244,-168 244,-156 244,-156 244,-150 250,-144 256,-144 256,-144 390,-144 390,-144 396,-144 402,-150 402,-156 402,-156 402,-168 402,-168 402,-174 396,-180 390,-180"/>
<text text-anchor="middle" x="323" y="-159.5" font-family="sans" font-size="10.00">combine_background_counts</text>
</g>
<!-- 6&#45;&gt;2 -->
<g id="edge5" class="edge"><title>6&#45;&gt;2</title>
<path fill="none" stroke="grey" stroke-width="2" d="M288.018,-143.876C268.802,-134.469 244.774,-122.708 224.263,-112.667"/>
<polygon fill="grey" stroke="grey" stroke-width="2" points="225.637,-109.443 215.116,-108.19 222.559,-115.73 225.637,-109.443"/>
</g>
<!-- 7&#45;&gt;2 -->
<g id="edge8" class="edge"><title>7&#45;&gt;2</title>
<path fill="none" stroke="grey" stroke-width="2" d="M197.176,-215.819C199.041,-197.806 200.87,-168.737 197,-144 195.641,-135.312 193.1,-126.104 190.389,-117.843"/>
<polygon fill="grey" stroke="grey" stroke-width="2" points="193.669,-116.62 187.066,-108.335 187.061,-118.93 193.669,-116.62"/>
</g>
<!-- 7&#45;&gt;5 -->
<g id="edge15" class="edge"><title>7&#45;&gt;5</title>
<path fill="none" stroke="grey" stroke-width="2" d="M182.64,-215.697C176.767,-207.474 169.631,-197.483 163.158,-188.421"/>
<polygon fill="grey" stroke="grey" stroke-width="2" points="165.878,-186.207 157.217,-180.104 160.182,-190.276 165.878,-186.207"/>
</g>
<!-- 8 -->
<g id="node9" class="node"><title>8</title>
<path fill="none" stroke="#d87556" stroke-width="2" d="M224.5,-396C224.5,-396 165.5,-396 165.5,-396 159.5,-396 153.5,-390 153.5,-384 153.5,-384 153.5,-372 153.5,-372 153.5,-366 159.5,-360 165.5,-360 165.5,-360 224.5,-360 224.5,-360 230.5,-360 236.5,-366 236.5,-372 236.5,-372 236.5,-384 236.5,-384 236.5,-390 230.5,-396 224.5,-396"/>
<text text-anchor="middle" x="195" y="-375.5" font-family="sans" font-size="10.00">first_mapping</text>
</g>
<!-- 8&#45;&gt;3 -->
<g id="edge9" class="edge"><title>8&#45;&gt;3</title>
<path fill="none" stroke="grey" stroke-width="2" d="M195,-359.697C195,-351.983 195,-342.712 195,-334.112"/>
<polygon fill="grey" stroke="grey" stroke-width="2" points="198.5,-334.104 195,-324.104 191.5,-334.104 198.5,-334.104"/>
</g>
<!-- 9 -->
<g id="node10" class="node"><title>9</title>
<path fill="none" stroke="#d89556" stroke-width="2" d="M161,-468C161,-468 131,-468 131,-468 125,-468 119,-462 119,-456 119,-456 119,-444 119,-444 119,-438 125,-432 131,-432 131,-432 161,-432 161,-432 167,-432 173,-438 173,-444 173,-444 173,-456 173,-456 173,-462 167,-468 161,-468"/>
<text text-anchor="middle" x="146" y="-447.5" font-family="sans" font-size="10.00">gzip</text>
</g>
<!-- 9&#45;&gt;3 -->
<g id="edge10" class="edge"><title>9&#45;&gt;3</title>
<path fill="none" stroke="grey" stroke-width="2" d="M141.74,-431.887C138.011,-413.423 134.526,-383.509 144,-360 148.349,-349.209 156.062,-339.386 164.194,-331.209"/>
<polygon fill="grey" stroke="grey" stroke-width="2" points="166.79,-333.572 171.695,-324.181 162.004,-328.464 166.79,-333.572"/>
</g>
<!-- 9&#45;&gt;8 -->
<g id="edge18" class="edge"><title>9&#45;&gt;8</title>
<path fill="none" stroke="grey" stroke-width="2" d="M158.112,-431.697C163.868,-423.474 170.862,-413.483 177.206,-404.421"/>
<polygon fill="grey" stroke="grey" stroke-width="2" points="180.16,-406.304 183.027,-396.104 174.425,-402.29 180.16,-406.304"/>
</g>
<!-- 10 -->
<g id="node11" class="node"><title>10</title>
<path fill="none" stroke="#56d882" stroke-width="2" d="M305.5,-468C305.5,-468 224.5,-468 224.5,-468 218.5,-468 212.5,-462 212.5,-456 212.5,-456 212.5,-444 212.5,-444 212.5,-438 218.5,-432 224.5,-432 224.5,-432 305.5,-432 305.5,-432 311.5,-432 317.5,-438 317.5,-444 317.5,-444 317.5,-456 317.5,-456 317.5,-462 311.5,-468 305.5,-468"/>
<text text-anchor="middle" x="265" y="-447.5" font-family="sans" font-size="10.00">generate_genome</text>
</g>
<!-- 10&#45;&gt;3 -->
<g id="edge11" class="edge"><title>10&#45;&gt;3</title>
<path fill="none" stroke="grey" stroke-width="2" d="M263.832,-431.664C261.971,-413.008 257.193,-382.932 245,-360 239.453,-349.567 231.298,-339.692 223.175,-331.356"/>
<polygon fill="grey" stroke="grey" stroke-width="2" points="225.403,-328.64 215.802,-324.161 220.515,-333.65 225.403,-328.64"/>
</g>
<!-- 10&#45;&gt;8 -->
<g id="edge19" class="edge"><title>10&#45;&gt;8</title>
<path fill="none" stroke="grey" stroke-width="2" d="M247.697,-431.697C239.135,-423.135 228.656,-412.656 219.304,-403.304"/>
<polygon fill="grey" stroke="grey" stroke-width="2" points="221.65,-400.701 212.104,-396.104 216.701,-405.65 221.65,-400.701"/>
</g>
<!-- 14 -->
<g id="node15" class="node"><title>14</title>
<path fill="none" stroke="#56d8c1" stroke-width="2" d="M349,-396C349,-396 305,-396 305,-396 299,-396 293,-390 293,-384 293,-384 293,-372 293,-372 293,-366 299,-360 305,-360 305,-360 349,-360 349,-360 355,-360 361,-366 361,-372 361,-372 361,-384 361,-384 361,-390 355,-396 349,-396"/>
<text text-anchor="middle" x="327" y="-375.5" font-family="sans" font-size="10.00">shuffle_gtf</text>
</g>
<!-- 10&#45;&gt;14 -->
<g id="edge26" class="edge"><title>10&#45;&gt;14</title>
<path fill="none" stroke="grey" stroke-width="2" d="M280.326,-431.697C287.759,-423.305 296.823,-413.07 304.98,-403.861"/>
<polygon fill="grey" stroke="grey" stroke-width="2" points="307.84,-405.911 311.85,-396.104 302.6,-401.27 307.84,-405.911"/>
</g>
<!-- 11 -->
<g id="node12" class="node"><title>11</title>
<path fill="none" stroke="#68d856" stroke-width="2" d="M373.5,-540C373.5,-540 318.5,-540 318.5,-540 312.5,-540 306.5,-534 306.5,-528 306.5,-528 306.5,-516 306.5,-516 306.5,-510 312.5,-504 318.5,-504 318.5,-504 373.5,-504 373.5,-504 379.5,-504 385.5,-510 385.5,-516 385.5,-516 385.5,-528 385.5,-528 385.5,-534 379.5,-540 373.5,-540"/>
<text text-anchor="middle" x="346" y="-519.5" font-family="sans" font-size="10.00">generate_gtf</text>
</g>
<!-- 11&#45;&gt;4 -->
<g id="edge12" class="edge"><title>11&#45;&gt;4</title>
<path fill="none" stroke="grey" stroke-width="2" d="M352.552,-503.966C370.964,-456.093 423.285,-320.06 445.652,-261.904"/>
<polygon fill="grey" stroke="grey" stroke-width="2" points="449.021,-262.896 449.344,-252.306 442.487,-260.383 449.021,-262.896"/>
</g>
<!-- 11&#45;&gt;10 -->
<g id="edge21" class="edge"><title>11&#45;&gt;10</title>
<path fill="none" stroke="grey" stroke-width="2" d="M325.978,-503.697C315.874,-494.965 303.464,-484.24 292.482,-474.75"/>
<polygon fill="grey" stroke="grey" stroke-width="2" points="294.647,-471.995 284.792,-468.104 290.07,-477.291 294.647,-471.995"/>
</g>
<!-- 11&#45;&gt;14 -->
<g id="edge25" class="edge"><title>11&#45;&gt;14</title>
<path fill="none" stroke="grey" stroke-width="2" d="M343.708,-503.871C340.47,-479.67 334.521,-435.211 330.665,-406.393"/>
<polygon fill="grey" stroke="grey" stroke-width="2" points="334.095,-405.637 329.3,-396.189 327.157,-406.565 334.095,-405.637"/>
</g>
<!-- 12&#45;&gt;6 -->
<g id="edge16" class="edge"><title>12&#45;&gt;6</title>
<path fill="none" stroke="grey" stroke-width="2" d="M315.472,-215.697C316.574,-207.983 317.898,-198.712 319.127,-190.112"/>
<polygon fill="grey" stroke="grey" stroke-width="2" points="322.607,-190.499 320.557,-180.104 315.677,-189.509 322.607,-190.499"/>
</g>
<!-- 13 -->
<g id="node14" class="node"><title>13</title>
<path fill="none" stroke="#d8b456" stroke-width="2" d="M163.5,-540C163.5,-540 128.5,-540 128.5,-540 122.5,-540 116.5,-534 116.5,-528 116.5,-528 116.5,-516 116.5,-516 116.5,-510 122.5,-504 128.5,-504 128.5,-504 163.5,-504 163.5,-504 169.5,-504 175.5,-510 175.5,-516 175.5,-516 175.5,-528 175.5,-528 175.5,-534 169.5,-540 163.5,-540"/>
<text text-anchor="middle" x="146" y="-519.5" font-family="sans" font-size="10.00">cutadapt</text>
</g>
<!-- 13&#45;&gt;9 -->
<g id="edge20" class="edge"><title>13&#45;&gt;9</title>
<path fill="none" stroke="grey" stroke-width="2" d="M146,-503.697C146,-495.983 146,-486.712 146,-478.112"/>
<polygon fill="grey" stroke="grey" stroke-width="2" points="149.5,-478.104 146,-468.104 142.5,-478.104 149.5,-478.104"/>
</g>
<!-- 14&#45;&gt;12 -->
<g id="edge22" class="edge"><title>14&#45;&gt;12</title>
<path fill="none" stroke="grey" stroke-width="2" d="M325.311,-359.871C322.925,-335.67 318.542,-291.211 315.701,-262.393"/>
<polygon fill="grey" stroke="grey" stroke-width="2" points="319.159,-261.798 314.695,-252.189 312.193,-262.484 319.159,-261.798"/>
</g>
<!-- 15 -->
<g id="node16" class="node"><title>15</title>
<path fill="none" stroke="#d85656" stroke-width="2" d="M161,-612C161,-612 131,-612 131,-612 125,-612 119,-606 119,-600 119,-600 119,-588 119,-588 119,-582 125,-576 131,-576 131,-576 161,-576 161,-576 167,-576 173,-582 173,-588 173,-588 173,-600 173,-600 173,-606 167,-612 161,-612"/>
<text text-anchor="middle" x="146" y="-591.5" font-family="sans" font-size="10.00">repair</text>
</g>
<!-- 15&#45;&gt;13 -->
<g id="edge24" class="edge"><title>15&#45;&gt;13</title>
<path fill="none" stroke="grey" stroke-width="2" d="M146,-575.697C146,-567.983 146,-558.712 146,-550.112"/>
<polygon fill="grey" stroke="grey" stroke-width="2" points="149.5,-550.104 146,-540.104 142.5,-550.104 149.5,-550.104"/>
</g>
</g>
</svg>
