<?xml version="1.0" encoding="UTF-8" standalone="no"?>
<!DOCTYPE svg PUBLIC "-//W3C//DTD SVG 1.1//EN"
 "http://www.w3.org/Graphics/SVG/1.1/DTD/svg11.dtd">
<!-- Generated by graphviz version 2.40.1 (20161225.0304)
 -->
<!-- Title: snakemake_dag Pages: 1 -->
<svg width="1229pt" height="836pt"
 viewBox="0.00 0.00 1229.00 836.00" xmlns="http://www.w3.org/2000/svg" xmlns:xlink="http://www.w3.org/1999/xlink">
<g id="graph0" class="graph" transform="scale(1 1) rotate(0) translate(4 832)">
<title>snakemake_dag</title>
<polygon fill="#ffffff" stroke="transparent" points="-4,4 -4,-832 1225,-832 1225,4 -4,4"/>
<!-- 0 -->
<g id="node1" class="node">
<title>0</title>
<path fill="none" stroke="#d6d856" stroke-width="2" d="M366,-828C366,-828 298,-828 298,-828 292,-828 286,-822 286,-816 286,-816 286,-804 286,-804 286,-798 292,-792 298,-792 298,-792 366,-792 366,-792 372,-792 378,-798 378,-804 378,-804 378,-816 378,-816 378,-822 372,-828 366,-828"/>
<text text-anchor="middle" x="332" y="-807.5" font-family="sans" font-size="10.00" fill="#000000">lmd_paper_ap2</text>
</g>
<!-- 1 -->
<g id="node2" class="node">
<title>1</title>
<path fill="none" stroke="#68d856" stroke-width="2" d="M482,-828C482,-828 408,-828 408,-828 402,-828 396,-822 396,-816 396,-816 396,-804 396,-804 396,-798 402,-792 408,-792 408,-792 482,-792 482,-792 488,-792 494,-798 494,-804 494,-804 494,-816 494,-816 494,-822 488,-828 482,-828"/>
<text text-anchor="middle" x="445" y="-807.5" font-family="sans" font-size="10.00" fill="#000000">panicle_mutants</text>
</g>
<!-- 2 -->
<g id="node3" class="node">
<title>2</title>
<path fill="none" stroke="#70d856" stroke-width="2" d="M529.5,-180C529.5,-180 446.5,-180 446.5,-180 440.5,-180 434.5,-174 434.5,-168 434.5,-168 434.5,-156 434.5,-156 434.5,-150 440.5,-144 446.5,-144 446.5,-144 529.5,-144 529.5,-144 535.5,-144 541.5,-150 541.5,-156 541.5,-156 541.5,-168 541.5,-168 541.5,-174 535.5,-180 529.5,-180"/>
<text text-anchor="middle" x="488" y="-159.5" font-family="sans" font-size="10.00" fill="#000000">distance_heatmap</text>
</g>
<!-- 3 -->
<g id="node4" class="node">
<title>3</title>
<path fill="none" stroke="#78d856" stroke-width="2" d="M1075,-36C1075,-36 965,-36 965,-36 959,-36 953,-30 953,-24 953,-24 953,-12 953,-12 953,-6 959,0 965,0 965,0 1075,0 1075,0 1081,0 1087,-6 1087,-12 1087,-12 1087,-24 1087,-24 1087,-30 1081,-36 1075,-36"/>
<text text-anchor="middle" x="1020" y="-15.5" font-family="sans" font-size="10.00" fill="#000000">fgsea_enrichment_table</text>
</g>
<!-- 4 -->
<g id="node5" class="node">
<title>4</title>
<path fill="none" stroke="#d86e56" stroke-width="2" d="M122,-36C122,-36 12,-36 12,-36 6,-36 0,-30 0,-24 0,-24 0,-12 0,-12 0,-6 6,0 12,0 12,0 122,0 122,0 128,0 134,-6 134,-12 134,-12 134,-24 134,-24 134,-30 128,-36 122,-36"/>
<text text-anchor="middle" x="67" y="-15.5" font-family="sans" font-size="10.00" fill="#000000">phenotype_all_varieties</text>
</g>
<!-- 5 -->
<g id="node6" class="node">
<title>5</title>
<path fill="none" stroke="#569ad8" stroke-width="2" d="M847.5,-108C847.5,-108 750.5,-108 750.5,-108 744.5,-108 738.5,-102 738.5,-96 738.5,-96 738.5,-84 738.5,-84 738.5,-78 744.5,-72 750.5,-72 750.5,-72 847.5,-72 847.5,-72 853.5,-72 859.5,-78 859.5,-84 859.5,-84 859.5,-96 859.5,-96 859.5,-102 853.5,-108 847.5,-108"/>
<text text-anchor="middle" x="799" y="-87.5" font-family="sans" font-size="10.00" fill="#000000">de_genes_interaction</text>
</g>
<!-- 6 -->
<g id="node7" class="node">
<title>6</title>
<path fill="none" stroke="#afd856" stroke-width="2" d="M1209,-36C1209,-36 1117,-36 1117,-36 1111,-36 1105,-30 1105,-24 1105,-24 1105,-12 1105,-12 1105,-6 1111,0 1117,0 1117,0 1209,0 1209,0 1215,0 1221,-6 1221,-12 1221,-12 1221,-24 1221,-24 1221,-30 1215,-36 1209,-36"/>
<text text-anchor="middle" x="1163" y="-15.5" font-family="sans" font-size="10.00" fill="#000000">mads_ap2_heatmap</text>
</g>
<!-- 7 -->
<g id="node8" class="node">
<title>7</title>
<path fill="none" stroke="#56d87b" stroke-width="2" d="M938.5,-108C938.5,-108 889.5,-108 889.5,-108 883.5,-108 877.5,-102 877.5,-96 877.5,-96 877.5,-84 877.5,-84 877.5,-78 883.5,-72 889.5,-72 889.5,-72 938.5,-72 938.5,-72 944.5,-72 950.5,-78 950.5,-84 950.5,-84 950.5,-96 950.5,-96 950.5,-102 944.5,-108 938.5,-108"/>
<text text-anchor="middle" x="914" y="-87.5" font-family="sans" font-size="10.00" fill="#000000">dom_genes</text>
</g>
<!-- 8 -->
<g id="node9" class="node">
<title>8</title>
<path fill="none" stroke="#56d85b" stroke-width="2" d="M537.5,-396C537.5,-396 500.5,-396 500.5,-396 494.5,-396 488.5,-390 488.5,-384 488.5,-384 488.5,-372 488.5,-372 488.5,-366 494.5,-360 500.5,-360 500.5,-360 537.5,-360 537.5,-360 543.5,-360 549.5,-366 549.5,-372 549.5,-372 549.5,-384 549.5,-384 549.5,-390 543.5,-396 537.5,-396"/>
<text text-anchor="middle" x="519" y="-375.5" font-family="sans" font-size="10.00" fill="#000000">star_logs</text>
</g>
<!-- 9 -->
<g id="node10" class="node">
<title>9</title>
<path fill="none" stroke="#56d882" stroke-width="2" d="M673.5,-828C673.5,-828 596.5,-828 596.5,-828 590.5,-828 584.5,-822 584.5,-816 584.5,-816 584.5,-804 584.5,-804 584.5,-798 590.5,-792 596.5,-792 596.5,-792 673.5,-792 673.5,-792 679.5,-792 685.5,-798 685.5,-804 685.5,-804 685.5,-816 685.5,-816 685.5,-822 679.5,-828 673.5,-828"/>
<text text-anchor="middle" x="635" y="-807.5" font-family="sans" font-size="10.00" fill="#000000">phenotyping_mpl</text>
</g>
<!-- 10 -->
<g id="node11" class="node">
<title>10</title>
<path fill="none" stroke="#d89c56" stroke-width="2" d="M724.5,-324C724.5,-324 641.5,-324 641.5,-324 635.5,-324 629.5,-318 629.5,-312 629.5,-312 629.5,-300 629.5,-300 629.5,-294 635.5,-288 641.5,-288 641.5,-288 724.5,-288 724.5,-288 730.5,-288 736.5,-294 736.5,-300 736.5,-300 736.5,-312 736.5,-312 736.5,-318 730.5,-324 724.5,-324"/>
<text text-anchor="middle" x="683" y="-303.5" font-family="sans" font-size="10.00" fill="#000000">transcriptome_pca</text>
</g>
<!-- 11 -->
<g id="node12" class="node">
<title>11</title>
<path fill="none" stroke="#97d856" stroke-width="2" d="M669.5,-108C669.5,-108 598.5,-108 598.5,-108 592.5,-108 586.5,-102 586.5,-96 586.5,-96 586.5,-84 586.5,-84 586.5,-78 592.5,-72 598.5,-72 598.5,-72 669.5,-72 669.5,-72 675.5,-72 681.5,-78 681.5,-84 681.5,-84 681.5,-96 681.5,-96 681.5,-102 675.5,-108 669.5,-108"/>
<text text-anchor="middle" x="634" y="-87.5" font-family="sans" font-size="10.00" fill="#000000">de_genes_stage</text>
</g>
<!-- 12 -->
<g id="node13" class="node">
<title>12</title>
<path fill="none" stroke="#8fd856" stroke-width="2" d="M459.5,-36C459.5,-36 352.5,-36 352.5,-36 346.5,-36 340.5,-30 340.5,-24 340.5,-24 340.5,-12 340.5,-12 340.5,-6 346.5,0 352.5,0 352.5,0 459.5,0 459.5,0 465.5,0 471.5,-6 471.5,-12 471.5,-12 471.5,-24 471.5,-24 471.5,-30 465.5,-36 459.5,-36"/>
<text text-anchor="middle" x="406" y="-15.5" font-family="sans" font-size="10.00" fill="#000000">cluster_phenotype_corr</text>
</g>
<!-- 13 -->
<g id="node14" class="node">
<title>13</title>
<path fill="none" stroke="#56d89a" stroke-width="2" d="M746,-828C746,-828 716,-828 716,-828 710,-828 704,-822 704,-816 704,-816 704,-804 704,-804 704,-798 710,-792 716,-792 716,-792 746,-792 746,-792 752,-792 758,-798 758,-804 758,-804 758,-816 758,-816 758,-822 752,-828 746,-828"/>
<text text-anchor="middle" x="731" y="-807.5" font-family="sans" font-size="10.00" fill="#000000">md5</text>
</g>
<!-- 14 -->
<g id="node15" class="node">
<title>14</title>
<path fill="none" stroke="#56d8c1" stroke-width="2" d="M231.5,-36C231.5,-36 164.5,-36 164.5,-36 158.5,-36 152.5,-30 152.5,-24 152.5,-24 152.5,-12 152.5,-12 152.5,-6 158.5,0 164.5,0 164.5,0 231.5,0 231.5,0 237.5,0 243.5,-6 243.5,-12 243.5,-12 243.5,-24 243.5,-24 243.5,-30 237.5,-36 231.5,-36"/>
<text text-anchor="middle" x="198" y="-15.5" font-family="sans" font-size="10.00" fill="#000000">phenotype_pca</text>
</g>
<!-- 15 -->
<g id="node16" class="node">
<title>15</title>
<path fill="none" stroke="#56d0d8" stroke-width="2" d="M518,-108C518,-108 446,-108 446,-108 440,-108 434,-102 434,-96 434,-96 434,-84 434,-84 434,-78 440,-72 446,-72 446,-72 518,-72 518,-72 524,-72 530,-78 530,-84 530,-84 530,-96 530,-96 530,-102 524,-108 518,-108"/>
<text text-anchor="middle" x="482" y="-87.5" font-family="sans" font-size="10.00" fill="#000000">clustered_genes</text>
</g>
<!-- 16 -->
<g id="node17" class="node">
<title>16</title>
<path fill="none" stroke="#d8c356" stroke-width="2" d="M591,-252C591,-252 505,-252 505,-252 499,-252 493,-246 493,-240 493,-240 493,-228 493,-228 493,-222 499,-216 505,-216 505,-216 591,-216 591,-216 597,-216 603,-222 603,-228 603,-228 603,-240 603,-240 603,-246 597,-252 591,-252"/>
<text text-anchor="middle" x="548" y="-231.5" font-family="sans" font-size="10.00" fill="#000000">filter_deseq_object</text>
</g>
<!-- 16&#45;&gt;2 -->
<g id="edge1" class="edge">
<title>16&#45;&gt;2</title>
<path fill="none" stroke="#c0c0c0" stroke-width="2" d="M532.8595,-215.8314C525.8783,-207.454 517.4609,-197.3531 509.8124,-188.1749"/>
<polygon fill="#c0c0c0" stroke="#c0c0c0" stroke-width="2" points="512.4351,-185.8548 503.3444,-180.4133 507.0575,-190.3362 512.4351,-185.8548"/>
</g>
<!-- 26 -->
<g id="node27" class="node">
<title>26</title>
<path fill="none" stroke="#56d8b9" stroke-width="2" d="M693.5,-180C693.5,-180 654.5,-180 654.5,-180 648.5,-180 642.5,-174 642.5,-168 642.5,-168 642.5,-156 642.5,-156 642.5,-150 648.5,-144 654.5,-144 654.5,-144 693.5,-144 693.5,-144 699.5,-144 705.5,-150 705.5,-156 705.5,-156 705.5,-168 705.5,-168 705.5,-174 699.5,-180 693.5,-180"/>
<text text-anchor="middle" x="674" y="-159.5" font-family="sans" font-size="10.00" fill="#000000">deseq_all</text>
</g>
<!-- 16&#45;&gt;26 -->
<g id="edge32" class="edge">
<title>16&#45;&gt;26</title>
<path fill="none" stroke="#c0c0c0" stroke-width="2" d="M579.7951,-215.8314C596.0605,-206.5368 616.0386,-195.1208 633.4051,-185.1971"/>
<polygon fill="#c0c0c0" stroke="#c0c0c0" stroke-width="2" points="635.2691,-188.1631 642.2151,-180.1628 631.7961,-182.0854 635.2691,-188.1631"/>
</g>
<!-- 17 -->
<g id="node18" class="node">
<title>17</title>
<path fill="none" stroke="#56d863" stroke-width="2" d="M1085,-108C1085,-108 981,-108 981,-108 975,-108 969,-102 969,-96 969,-96 969,-84 969,-84 969,-78 975,-72 981,-72 981,-72 1085,-72 1085,-72 1091,-72 1097,-78 1097,-84 1097,-84 1097,-96 1097,-96 1097,-102 1091,-108 1085,-108"/>
<text text-anchor="middle" x="1033" y="-87.5" font-family="sans" font-size="10.00" fill="#000000">fgsea_enrichment_test</text>
</g>
<!-- 17&#45;&gt;3 -->
<g id="edge2" class="edge">
<title>17&#45;&gt;3</title>
<path fill="none" stroke="#c0c0c0" stroke-width="2" d="M1029.7196,-71.8314C1028.3292,-64.131 1026.6759,-54.9743 1025.1308,-46.4166"/>
<polygon fill="#c0c0c0" stroke="#c0c0c0" stroke-width="2" points="1028.5458,-45.6322 1023.3246,-36.4133 1021.6572,-46.8761 1028.5458,-45.6322"/>
</g>
<!-- 17&#45;&gt;6 -->
<g id="edge7" class="edge">
<title>17&#45;&gt;6</title>
<path fill="none" stroke="#c0c0c0" stroke-width="2" d="M1065.8045,-71.8314C1082.5862,-62.5368 1103.1985,-51.1208 1121.1163,-41.1971"/>
<polygon fill="#c0c0c0" stroke="#c0c0c0" stroke-width="2" points="1123.1538,-44.0696 1130.206,-36.1628 1119.7623,-37.9461 1123.1538,-44.0696"/>
</g>
<!-- 18 -->
<g id="node19" class="node">
<title>18</title>
<path fill="none" stroke="#d8bc56" stroke-width="2" d="M207.5,-180C207.5,-180 112.5,-180 112.5,-180 106.5,-180 100.5,-174 100.5,-168 100.5,-168 100.5,-156 100.5,-156 100.5,-150 106.5,-144 112.5,-144 112.5,-144 207.5,-144 207.5,-144 213.5,-144 219.5,-150 219.5,-156 219.5,-156 219.5,-168 219.5,-168 219.5,-174 213.5,-180 207.5,-180"/>
<text text-anchor="middle" x="160" y="-159.5" font-family="sans" font-size="10.00" fill="#000000">tidy_phenotype_data</text>
</g>
<!-- 18&#45;&gt;4 -->
<g id="edge3" class="edge">
<title>18&#45;&gt;4</title>
<path fill="none" stroke="#c0c0c0" stroke-width="2" d="M148.2215,-143.7623C132.0795,-118.7682 102.968,-73.6924 84.3347,-44.8409"/>
<polygon fill="#c0c0c0" stroke="#c0c0c0" stroke-width="2" points="87.0483,-42.5912 78.6829,-36.0896 81.168,-46.3889 87.0483,-42.5912"/>
</g>
<!-- 18&#45;&gt;14 -->
<g id="edge19" class="edge">
<title>18&#45;&gt;14</title>
<path fill="none" stroke="#c0c0c0" stroke-width="2" d="M153.5409,-143.7989C147.9831,-125.1706 142.1389,-95.678 151,-72 154.8954,-61.5911 161.8041,-51.8652 169.1456,-43.6152"/>
<polygon fill="#c0c0c0" stroke="#c0c0c0" stroke-width="2" points="171.8643,-45.8358 176.2328,-36.1835 166.7986,-41.0048 171.8643,-45.8358"/>
</g>
<!-- 19 -->
<g id="node20" class="node">
<title>19</title>
<path fill="none" stroke="#566bd8" stroke-width="2" d="M204,-108C204,-108 172,-108 172,-108 166,-108 160,-102 160,-96 160,-96 160,-84 160,-84 160,-78 166,-72 172,-72 172,-72 204,-72 204,-72 210,-72 216,-78 216,-84 216,-84 216,-96 216,-96 216,-102 210,-108 204,-108"/>
<text text-anchor="middle" x="188" y="-87.5" font-family="sans" font-size="10.00" fill="#000000">cali_pca</text>
</g>
<!-- 18&#45;&gt;19 -->
<g id="edge26" class="edge">
<title>18&#45;&gt;19</title>
<path fill="none" stroke="#c0c0c0" stroke-width="2" d="M167.0656,-143.8314C170.126,-135.9617 173.7779,-126.5712 177.1682,-117.8533"/>
<polygon fill="#c0c0c0" stroke="#c0c0c0" stroke-width="2" points="180.4768,-119.0019 180.8393,-108.4133 173.9527,-116.4647 180.4768,-119.0019"/>
</g>
<!-- 28 -->
<g id="node29" class="node">
<title>28</title>
<path fill="none" stroke="#ced856" stroke-width="2" d="M365.5,-108C365.5,-108 246.5,-108 246.5,-108 240.5,-108 234.5,-102 234.5,-96 234.5,-96 234.5,-84 234.5,-84 234.5,-78 240.5,-72 246.5,-72 246.5,-72 365.5,-72 365.5,-72 371.5,-72 377.5,-78 377.5,-84 377.5,-84 377.5,-96 377.5,-96 377.5,-102 371.5,-108 365.5,-108"/>
<text text-anchor="middle" x="306" y="-87.5" font-family="sans" font-size="10.00" fill="#000000">correlate_clusters_to_mtp</text>
</g>
<!-- 18&#45;&gt;28 -->
<g id="edge38" class="edge">
<title>18&#45;&gt;28</title>
<path fill="none" stroke="#c0c0c0" stroke-width="2" d="M196.842,-143.8314C216.1082,-134.3302 239.8699,-122.6121 260.2992,-112.5374"/>
<polygon fill="#c0c0c0" stroke="#c0c0c0" stroke-width="2" points="262.0023,-115.6 269.423,-108.038 258.9062,-109.3219 262.0023,-115.6"/>
</g>
<!-- 19&#45;&gt;4 -->
<g id="edge4" class="edge">
<title>19&#45;&gt;4</title>
<path fill="none" stroke="#c0c0c0" stroke-width="2" d="M159.936,-73.3008C144.0032,-63.8201 123.8093,-51.8039 106.3185,-41.3962"/>
<polygon fill="#c0c0c0" stroke="#c0c0c0" stroke-width="2" points="107.8387,-38.228 97.4553,-36.1222 104.2592,-44.2436 107.8387,-38.228"/>
</g>
<!-- 19&#45;&gt;12 -->
<g id="edge17" class="edge">
<title>19&#45;&gt;12</title>
<path fill="none" stroke="#c0c0c0" stroke-width="2" d="M216.0709,-75.759C219.0561,-74.4208 222.0711,-73.1406 225,-72 258.9231,-58.7895 297.4626,-46.8815 330.2351,-37.6307"/>
<polygon fill="#c0c0c0" stroke="#c0c0c0" stroke-width="2" points="331.5185,-40.9064 340.2093,-34.8466 329.6365,-34.1641 331.5185,-40.9064"/>
</g>
<!-- 19&#45;&gt;14 -->
<g id="edge20" class="edge">
<title>19&#45;&gt;14</title>
<path fill="none" stroke="#c0c0c0" stroke-width="2" d="M190.5234,-71.8314C191.5929,-64.131 192.8647,-54.9743 194.0532,-46.4166"/>
<polygon fill="#c0c0c0" stroke="#c0c0c0" stroke-width="2" points="197.5336,-46.7997 195.4426,-36.4133 190.6001,-45.8367 197.5336,-46.7997"/>
</g>
<!-- 20 -->
<g id="node21" class="node">
<title>20</title>
<path fill="none" stroke="#5692d8" stroke-width="2" d="M817,-180C817,-180 777,-180 777,-180 771,-180 765,-174 765,-168 765,-168 765,-156 765,-156 765,-150 771,-144 777,-144 777,-144 817,-144 817,-144 823,-144 829,-150 829,-156 829,-156 829,-168 829,-168 829,-174 823,-180 817,-180"/>
<text text-anchor="middle" x="797" y="-159.5" font-family="sans" font-size="10.00" fill="#000000">deseq_tfs</text>
</g>
<!-- 20&#45;&gt;5 -->
<g id="edge5" class="edge">
<title>20&#45;&gt;5</title>
<path fill="none" stroke="#c0c0c0" stroke-width="2" d="M797.5047,-143.8314C797.7186,-136.131 797.9729,-126.9743 798.2106,-118.4166"/>
<polygon fill="#c0c0c0" stroke="#c0c0c0" stroke-width="2" points="801.7094,-118.5066 798.4885,-108.4133 794.7121,-118.3122 801.7094,-118.5066"/>
</g>
<!-- 20&#45;&gt;7 -->
<g id="edge10" class="edge">
<title>20&#45;&gt;7</title>
<path fill="none" stroke="#c0c0c0" stroke-width="2" d="M826.524,-143.8314C841.4891,-134.6221 859.8386,-123.3301 875.8603,-113.4706"/>
<polygon fill="#c0c0c0" stroke="#c0c0c0" stroke-width="2" points="877.8032,-116.3847 884.4854,-108.1628 874.1345,-110.423 877.8032,-116.3847"/>
</g>
<!-- 20&#45;&gt;12 -->
<g id="edge15" class="edge">
<title>20&#45;&gt;12</title>
<path fill="none" stroke="#c0c0c0" stroke-width="2" d="M773.3636,-143.9266C760.1245,-133.6311 743.4262,-120.3567 729,-108 711.0845,-92.6546 711.0668,-82.6128 690,-72 654.3276,-54.0293 553.2228,-37.5298 481.8434,-27.6193"/>
<polygon fill="#c0c0c0" stroke="#c0c0c0" stroke-width="2" points="481.922,-24.0973 471.5391,-26.2055 480.9705,-31.0324 481.922,-24.0973"/>
</g>
<!-- 21 -->
<g id="node22" class="node">
<title>21</title>
<path fill="none" stroke="#56d892" stroke-width="2" d="M817,-324C817,-324 767,-324 767,-324 761,-324 755,-318 755,-312 755,-312 755,-300 755,-300 755,-294 761,-288 767,-288 767,-288 817,-288 817,-288 823,-288 829,-294 829,-300 829,-300 829,-312 829,-312 829,-318 823,-324 817,-324"/>
<text text-anchor="middle" x="792" y="-303.5" font-family="sans" font-size="10.00" fill="#000000">format_tfdb</text>
</g>
<!-- 21&#45;&gt;6 -->
<g id="edge9" class="edge">
<title>21&#45;&gt;6</title>
<path fill="none" stroke="#c0c0c0" stroke-width="2" d="M829.0528,-301.8938C895.5493,-292.5514 1035.4214,-263.5997 1113,-180 1147.6561,-142.6541 1158.3057,-81.7485 1161.5688,-46.2164"/>
<polygon fill="#c0c0c0" stroke="#c0c0c0" stroke-width="2" points="1165.0728,-46.3004 1162.3627,-36.058 1158.0941,-45.7549 1165.0728,-46.3004"/>
</g>
<!-- 29 -->
<g id="node30" class="node">
<title>29</title>
<path fill="none" stroke="#56b9d8" stroke-width="2" d="M612.5,-180C612.5,-180 571.5,-180 571.5,-180 565.5,-180 559.5,-174 559.5,-168 559.5,-168 559.5,-156 559.5,-156 559.5,-150 565.5,-144 571.5,-144 571.5,-144 612.5,-144 612.5,-144 618.5,-144 624.5,-150 624.5,-156 624.5,-156 624.5,-168 624.5,-168 624.5,-174 618.5,-180 612.5,-180"/>
<text text-anchor="middle" x="592" y="-159.5" font-family="sans" font-size="10.00" fill="#000000">mfuzz_tfs</text>
</g>
<!-- 21&#45;&gt;29 -->
<g id="edge41" class="edge">
<title>21&#45;&gt;29</title>
<path fill="none" stroke="#c0c0c0" stroke-width="2" d="M766.6699,-287.7623C730.8288,-261.9567 665.2558,-214.7442 625.4489,-186.0832"/>
<polygon fill="#c0c0c0" stroke="#c0c0c0" stroke-width="2" points="627.2849,-183.0923 617.1245,-180.0896 623.1947,-188.7731 627.2849,-183.0923"/>
</g>
<!-- 30 -->
<g id="node31" class="node">
<title>30</title>
<path fill="none" stroke="#88d856" stroke-width="2" d="M809,-252C809,-252 775,-252 775,-252 769,-252 763,-246 763,-240 763,-240 763,-228 763,-228 763,-222 769,-216 775,-216 775,-216 809,-216 809,-216 815,-216 821,-222 821,-228 821,-228 821,-240 821,-240 821,-246 815,-252 809,-252"/>
<text text-anchor="middle" x="792" y="-231.5" font-family="sans" font-size="10.00" fill="#000000">filter_tfs</text>
</g>
<!-- 21&#45;&gt;30 -->
<g id="edge44" class="edge">
<title>21&#45;&gt;30</title>
<path fill="none" stroke="#c0c0c0" stroke-width="2" d="M792,-287.8314C792,-280.131 792,-270.9743 792,-262.4166"/>
<polygon fill="#c0c0c0" stroke="#c0c0c0" stroke-width="2" points="795.5001,-262.4132 792,-252.4133 788.5001,-262.4133 795.5001,-262.4132"/>
</g>
<!-- 22 -->
<g id="node23" class="node">
<title>22</title>
<path fill="none" stroke="#d87d56" stroke-width="2" d="M1091.5,-180C1091.5,-180 1034.5,-180 1034.5,-180 1028.5,-180 1022.5,-174 1022.5,-168 1022.5,-168 1022.5,-156 1022.5,-156 1022.5,-150 1028.5,-144 1034.5,-144 1034.5,-144 1091.5,-144 1091.5,-144 1097.5,-144 1103.5,-150 1103.5,-156 1103.5,-156 1103.5,-168 1103.5,-168 1103.5,-174 1097.5,-180 1091.5,-180"/>
<text text-anchor="middle" x="1063" y="-159.5" font-family="sans" font-size="10.00" fill="#000000">tfdb_families</text>
</g>
<!-- 22&#45;&gt;6 -->
<g id="edge6" class="edge">
<title>22&#45;&gt;6</title>
<path fill="none" stroke="#c0c0c0" stroke-width="2" d="M1078.2304,-143.8848C1086.691,-133.5762 1097.2445,-120.3026 1106,-108 1120.6115,-87.469 1135.8159,-63.2985 1146.8431,-45.1782"/>
<polygon fill="#c0c0c0" stroke="#c0c0c0" stroke-width="2" points="1150.0283,-46.6744 1152.2036,-36.3053 1144.0368,-43.0547 1150.0283,-46.6744"/>
</g>
<!-- 22&#45;&gt;17 -->
<g id="edge24" class="edge">
<title>22&#45;&gt;17</title>
<path fill="none" stroke="#c0c0c0" stroke-width="2" d="M1055.4297,-143.8314C1052.1507,-135.9617 1048.238,-126.5712 1044.6055,-117.8533"/>
<polygon fill="#c0c0c0" stroke="#c0c0c0" stroke-width="2" points="1047.7492,-116.2979 1040.6722,-108.4133 1041.2876,-118.9902 1047.7492,-116.2979"/>
</g>
<!-- 23 -->
<g id="node24" class="node">
<title>23</title>
<path fill="none" stroke="#56b1d8" stroke-width="2" d="M670,-468C670,-468 564,-468 564,-468 558,-468 552,-462 552,-456 552,-456 552,-444 552,-444 552,-438 558,-432 564,-432 564,-432 670,-432 670,-432 676,-432 682,-438 682,-444 682,-444 682,-456 682,-456 682,-462 676,-468 670,-468"/>
<text text-anchor="middle" x="617" y="-447.5" font-family="sans" font-size="10.00" fill="#000000">generate_deseq_object</text>
</g>
<!-- 23&#45;&gt;6 -->
<g id="edge8" class="edge">
<title>23&#45;&gt;6</title>
<path fill="none" stroke="#c0c0c0" stroke-width="2" d="M682.0107,-447.655C834.2332,-440.3994 1201,-411.9267 1201,-306 1201,-306 1201,-306 1201,-162 1201,-120.3681 1185.9672,-74.14 1174.8119,-45.567"/>
<polygon fill="#c0c0c0" stroke="#c0c0c0" stroke-width="2" points="1178.0368,-44.2055 1171.0588,-36.2332 1171.5422,-46.817 1178.0368,-44.2055"/>
</g>
<!-- 23&#45;&gt;16 -->
<g id="edge22" class="edge">
<title>23&#45;&gt;16</title>
<path fill="none" stroke="#c0c0c0" stroke-width="2" d="M611.2358,-431.9555C599.1862,-394.235 571.2616,-306.8188 556.8933,-261.8399"/>
<polygon fill="#c0c0c0" stroke="#c0c0c0" stroke-width="2" points="560.1734,-260.6058 553.7963,-252.1451 553.5053,-262.7359 560.1734,-260.6058"/>
</g>
<!-- 25 -->
<g id="node26" class="node">
<title>25</title>
<path fill="none" stroke="#bed856" stroke-width="2" d="M699,-396C699,-396 665,-396 665,-396 659,-396 653,-390 653,-384 653,-384 653,-372 653,-372 653,-366 659,-360 665,-360 665,-360 699,-360 699,-360 705,-360 711,-366 711,-372 711,-372 711,-384 711,-384 711,-390 705,-396 699,-396"/>
<text text-anchor="middle" x="682" y="-375.5" font-family="sans" font-size="10.00" fill="#000000">rlog_pca</text>
</g>
<!-- 23&#45;&gt;25 -->
<g id="edge31" class="edge">
<title>23&#45;&gt;25</title>
<path fill="none" stroke="#c0c0c0" stroke-width="2" d="M633.4022,-431.8314C641.0415,-423.3694 650.2683,-413.1489 658.6207,-403.8971"/>
<polygon fill="#c0c0c0" stroke="#c0c0c0" stroke-width="2" points="661.2738,-406.1813 665.3769,-396.4133 656.0779,-401.4906 661.2738,-406.1813"/>
</g>
<!-- 27 -->
<g id="node28" class="node">
<title>27</title>
<path fill="none" stroke="#56d8c9" stroke-width="2" d="M463,-324C463,-324 387,-324 387,-324 381,-324 375,-318 375,-312 375,-312 375,-300 375,-300 375,-294 381,-288 387,-288 387,-288 463,-288 463,-288 469,-288 475,-294 475,-300 475,-300 475,-312 475,-312 475,-318 469,-324 463,-324"/>
<text text-anchor="middle" x="425" y="-303.5" font-family="sans" font-size="10.00" fill="#000000">calculate_cutoffs</text>
</g>
<!-- 23&#45;&gt;27 -->
<g id="edge34" class="edge">
<title>23&#45;&gt;27</title>
<path fill="none" stroke="#c0c0c0" stroke-width="2" d="M609.1337,-431.7535C599.6525,-411.6913 581.9569,-379.6962 558,-360 536.8421,-342.605 509.336,-330.1928 484.8328,-321.6912"/>
<polygon fill="#c0c0c0" stroke="#c0c0c0" stroke-width="2" points="485.849,-318.3408 475.2555,-318.5098 483.6423,-324.9838 485.849,-318.3408"/>
</g>
<!-- 23&#45;&gt;30 -->
<g id="edge42" class="edge">
<title>23&#45;&gt;30</title>
<path fill="none" stroke="#c0c0c0" stroke-width="2" d="M682.0882,-432.9727C734.8039,-415.322 805.466,-381.9634 838,-324 850.0243,-302.5772 835.1397,-277.6691 819.1817,-259.4947"/>
<polygon fill="#c0c0c0" stroke="#c0c0c0" stroke-width="2" points="821.7241,-257.089 812.3521,-252.1477 816.5971,-261.855 821.7241,-257.089"/>
</g>
<!-- 34 -->
<g id="node35" class="node">
<title>34</title>
<path fill="none" stroke="#5682d8" stroke-width="2" d="M458,-396C458,-396 396,-396 396,-396 390,-396 384,-390 384,-384 384,-384 384,-372 384,-372 384,-366 390,-360 396,-360 396,-360 458,-360 458,-360 464,-360 470,-366 470,-372 470,-372 470,-384 470,-384 470,-390 464,-396 458,-396"/>
<text text-anchor="middle" x="427" y="-375.5" font-family="sans" font-size="10.00" fill="#000000">calculate_tpm</text>
</g>
<!-- 23&#45;&gt;34 -->
<g id="edge50" class="edge">
<title>23&#45;&gt;34</title>
<path fill="none" stroke="#c0c0c0" stroke-width="2" d="M569.055,-431.8314C541.8151,-421.5089 507.6699,-408.5696 479.683,-397.9641"/>
<polygon fill="#c0c0c0" stroke="#c0c0c0" stroke-width="2" points="480.6534,-394.589 470.062,-394.3182 478.1728,-401.1348 480.6534,-394.589"/>
</g>
<!-- 24 -->
<g id="node25" class="node">
<title>24</title>
<path fill="none" stroke="#d8d356" stroke-width="2" d="M521.5,-468C521.5,-468 452.5,-468 452.5,-468 446.5,-468 440.5,-462 440.5,-456 440.5,-456 440.5,-444 440.5,-444 440.5,-438 446.5,-432 452.5,-432 452.5,-432 521.5,-432 521.5,-432 527.5,-432 533.5,-438 533.5,-444 533.5,-444 533.5,-456 533.5,-456 533.5,-462 527.5,-468 521.5,-468"/>
<text text-anchor="middle" x="487" y="-447.5" font-family="sans" font-size="10.00" fill="#000000">parse_star_logs</text>
</g>
<!-- 24&#45;&gt;8 -->
<g id="edge11" class="edge">
<title>24&#45;&gt;8</title>
<path fill="none" stroke="#c0c0c0" stroke-width="2" d="M495.075,-431.8314C498.6102,-423.8771 502.836,-414.369 506.7456,-405.5723"/>
<polygon fill="#c0c0c0" stroke="#c0c0c0" stroke-width="2" points="509.9532,-406.9729 510.8163,-396.4133 503.5565,-404.1299 509.9532,-406.9729"/>
</g>
<!-- 24&#45;&gt;27 -->
<g id="edge37" class="edge">
<title>24&#45;&gt;27</title>
<path fill="none" stroke="#c0c0c0" stroke-width="2" d="M440.4793,-433.3624C413.2445,-422.5752 382.7206,-408.2936 375,-396 361.6913,-374.8084 377.8926,-349.8786 395.3076,-331.6371"/>
<polygon fill="#c0c0c0" stroke="#c0c0c0" stroke-width="2" points="398.117,-333.781 402.763,-324.2592 393.1931,-328.8055 398.117,-333.781"/>
</g>
<!-- 24&#45;&gt;34 -->
<g id="edge52" class="edge">
<title>24&#45;&gt;34</title>
<path fill="none" stroke="#c0c0c0" stroke-width="2" d="M471.8595,-431.8314C464.8783,-423.454 456.4609,-413.3531 448.8124,-404.1749"/>
<polygon fill="#c0c0c0" stroke="#c0c0c0" stroke-width="2" points="451.4351,-401.8548 442.3444,-396.4133 446.0575,-406.3362 451.4351,-401.8548"/>
</g>
<!-- 25&#45;&gt;10 -->
<g id="edge12" class="edge">
<title>25&#45;&gt;10</title>
<path fill="none" stroke="#c0c0c0" stroke-width="2" d="M682.2523,-359.8314C682.3593,-352.131 682.4865,-342.9743 682.6053,-334.4166"/>
<polygon fill="#c0c0c0" stroke="#c0c0c0" stroke-width="2" points="686.1049,-334.4609 682.7443,-324.4133 679.1056,-334.3637 686.1049,-334.4609"/>
</g>
<!-- 26&#45;&gt;11 -->
<g id="edge13" class="edge">
<title>26&#45;&gt;11</title>
<path fill="none" stroke="#c0c0c0" stroke-width="2" d="M663.9063,-143.8314C659.4403,-135.7925 654.0925,-126.1666 649.1621,-117.2918"/>
<polygon fill="#c0c0c0" stroke="#c0c0c0" stroke-width="2" points="652.1456,-115.4551 644.2296,-108.4133 646.0265,-118.8546 652.1456,-115.4551"/>
</g>
<!-- 26&#45;&gt;17 -->
<g id="edge25" class="edge">
<title>26&#45;&gt;17</title>
<path fill="none" stroke="#c0c0c0" stroke-width="2" d="M705.8693,-154.6893C721.0248,-151.2935 739.416,-147.2893 756,-144 845.8791,-126.1733 869.3273,-126.8378 959,-108 959.1011,-107.9788 959.2023,-107.9575 959.3035,-107.9362"/>
<polygon fill="#c0c0c0" stroke="#c0c0c0" stroke-width="2" points="959.8503,-111.3991 968.881,-105.8586 958.3663,-104.5581 959.8503,-111.3991"/>
</g>
<!-- 27&#45;&gt;12 -->
<g id="edge16" class="edge">
<title>27&#45;&gt;12</title>
<path fill="none" stroke="#c0c0c0" stroke-width="2" d="M423.8115,-287.9843C420.5993,-239.2939 411.7261,-104.7961 407.851,-46.0573"/>
<polygon fill="#c0c0c0" stroke="#c0c0c0" stroke-width="2" points="411.3389,-45.7568 407.1881,-36.0089 404.3541,-46.2176 411.3389,-45.7568"/>
</g>
<!-- 27&#45;&gt;16 -->
<g id="edge23" class="edge">
<title>27&#45;&gt;16</title>
<path fill="none" stroke="#c0c0c0" stroke-width="2" d="M456.0381,-287.8314C471.7705,-278.6221 491.0611,-267.3301 507.9044,-257.4706"/>
<polygon fill="#c0c0c0" stroke="#c0c0c0" stroke-width="2" points="510.1098,-260.2352 516.9718,-252.1628 506.5735,-254.1941 510.1098,-260.2352"/>
</g>
<!-- 27&#45;&gt;30 -->
<g id="edge43" class="edge">
<title>27&#45;&gt;30</title>
<path fill="none" stroke="#c0c0c0" stroke-width="2" d="M475.2603,-296.1397C549.0524,-281.6628 685.2143,-254.9498 752.3936,-241.7702"/>
<polygon fill="#c0c0c0" stroke="#c0c0c0" stroke-width="2" points="753.424,-245.1348 762.5631,-239.7751 752.0763,-238.2658 753.424,-245.1348"/>
</g>
<!-- 28&#45;&gt;12 -->
<g id="edge14" class="edge">
<title>28&#45;&gt;12</title>
<path fill="none" stroke="#c0c0c0" stroke-width="2" d="M331.2342,-71.8314C343.788,-62.7927 359.1283,-51.7476 372.6391,-42.0198"/>
<polygon fill="#c0c0c0" stroke="#c0c0c0" stroke-width="2" points="374.7036,-44.8463 380.7739,-36.1628 370.6134,-39.1655 374.7036,-44.8463"/>
</g>
<!-- 29&#45;&gt;12 -->
<g id="edge18" class="edge">
<title>29&#45;&gt;12</title>
<path fill="none" stroke="#c0c0c0" stroke-width="2" d="M585.4027,-143.7435C577.3059,-123.6724 561.7854,-91.6694 539,-72 522.389,-57.6607 501.4699,-46.797 481.1715,-38.7144"/>
<polygon fill="#c0c0c0" stroke="#c0c0c0" stroke-width="2" points="482.185,-35.3555 471.5937,-35.0808 479.7019,-41.9004 482.185,-35.3555"/>
</g>
<!-- 29&#45;&gt;15 -->
<g id="edge21" class="edge">
<title>29&#45;&gt;15</title>
<path fill="none" stroke="#c0c0c0" stroke-width="2" d="M564.2424,-143.8314C550.303,-134.7074 533.2402,-123.539 518.2769,-113.7449"/>
<polygon fill="#c0c0c0" stroke="#c0c0c0" stroke-width="2" points="520.0326,-110.711 509.7488,-108.1628 516.199,-116.5679 520.0326,-110.711"/>
</g>
<!-- 29&#45;&gt;19 -->
<g id="edge27" class="edge">
<title>29&#45;&gt;19</title>
<path fill="none" stroke="#c0c0c0" stroke-width="2" d="M559.3093,-146.9076C556.2035,-145.8037 553.0685,-144.8084 550,-144 412.624,-107.807 366.6693,-146.5581 226.1362,-107.7572"/>
<polygon fill="#c0c0c0" stroke="#c0c0c0" stroke-width="2" points="226.8732,-104.3281 216.2971,-104.958 224.9576,-111.0609 226.8732,-104.3281"/>
</g>
<!-- 29&#45;&gt;28 -->
<g id="edge39" class="edge">
<title>29&#45;&gt;28</title>
<path fill="none" stroke="#c0c0c0" stroke-width="2" d="M559.2071,-147.2572C556.1228,-146.0799 553.0207,-144.9721 550,-144 496.8869,-126.9075 435.5613,-113.3606 387.6779,-104.1104"/>
<polygon fill="#c0c0c0" stroke="#c0c0c0" stroke-width="2" points="388.1506,-100.6376 377.6719,-102.202 386.8391,-107.5136 388.1506,-100.6376"/>
</g>
<!-- 30&#45;&gt;20 -->
<g id="edge28" class="edge">
<title>30&#45;&gt;20</title>
<path fill="none" stroke="#c0c0c0" stroke-width="2" d="M793.2617,-215.8314C793.7965,-208.131 794.4323,-198.9743 795.0266,-190.4166"/>
<polygon fill="#c0c0c0" stroke="#c0c0c0" stroke-width="2" points="798.52,-190.6317 795.7213,-180.4133 791.5368,-190.1467 798.52,-190.6317"/>
</g>
<!-- 30&#45;&gt;29 -->
<g id="edge40" class="edge">
<title>30&#45;&gt;29</title>
<path fill="none" stroke="#c0c0c0" stroke-width="2" d="M762.7151,-224.8914C732.488,-215.3075 683.8299,-199.3741 633.9012,-180.2149"/>
<polygon fill="#c0c0c0" stroke="#c0c0c0" stroke-width="2" points="635.1569,-176.948 624.5677,-176.6007 632.6291,-183.4757 635.1569,-176.948"/>
</g>
<!-- 31 -->
<g id="node32" class="node">
<title>31</title>
<path fill="none" stroke="#568ad8" stroke-width="2" d="M524.5,-540C524.5,-540 449.5,-540 449.5,-540 443.5,-540 437.5,-534 437.5,-528 437.5,-528 437.5,-516 437.5,-516 437.5,-510 443.5,-504 449.5,-504 449.5,-504 524.5,-504 524.5,-504 530.5,-504 536.5,-510 536.5,-516 536.5,-516 536.5,-528 536.5,-528 536.5,-534 530.5,-540 524.5,-540"/>
<text text-anchor="middle" x="487" y="-519.5" font-family="sans" font-size="10.00" fill="#000000">second_mapping</text>
</g>
<!-- 31&#45;&gt;23 -->
<g id="edge29" class="edge">
<title>31&#45;&gt;23</title>
<path fill="none" stroke="#c0c0c0" stroke-width="2" d="M519.8045,-503.8314C536.5862,-494.5368 557.1985,-483.1208 575.1163,-473.1971"/>
<polygon fill="#c0c0c0" stroke="#c0c0c0" stroke-width="2" points="577.1538,-476.0696 584.206,-468.1628 573.7623,-469.9461 577.1538,-476.0696"/>
</g>
<!-- 31&#45;&gt;24 -->
<g id="edge30" class="edge">
<title>31&#45;&gt;24</title>
<path fill="none" stroke="#c0c0c0" stroke-width="2" d="M487,-503.8314C487,-496.131 487,-486.9743 487,-478.4166"/>
<polygon fill="#c0c0c0" stroke="#c0c0c0" stroke-width="2" points="490.5001,-478.4132 487,-468.4133 483.5001,-478.4133 490.5001,-478.4132"/>
</g>
<!-- 38 -->
<g id="node39" class="node">
<title>38</title>
<path fill="none" stroke="#9fd856" stroke-width="2" d="M249,-468C249,-468 167,-468 167,-468 161,-468 155,-462 155,-456 155,-456 155,-444 155,-444 155,-438 161,-432 167,-432 167,-432 249,-432 249,-432 255,-432 261,-438 261,-444 261,-444 261,-456 261,-456 261,-462 255,-468 249,-468"/>
<text text-anchor="middle" x="208" y="-447.5" font-family="sans" font-size="10.00" fill="#000000">count_background</text>
</g>
<!-- 31&#45;&gt;38 -->
<g id="edge57" class="edge">
<title>31&#45;&gt;38</title>
<path fill="none" stroke="#c0c0c0" stroke-width="2" d="M437.3029,-510.2113C395.3806,-500.1359 333.5642,-484.9747 270.7422,-468.1544"/>
<polygon fill="#c0c0c0" stroke="#c0c0c0" stroke-width="2" points="271.6279,-464.7682 261.062,-465.5513 269.8101,-471.5281 271.6279,-464.7682"/>
</g>
<!-- 32 -->
<g id="node33" class="node">
<title>32</title>
<path fill="none" stroke="#d85656" stroke-width="2" d="M277,-396C277,-396 143,-396 143,-396 137,-396 131,-390 131,-384 131,-384 131,-372 131,-372 131,-366 137,-360 143,-360 143,-360 277,-360 277,-360 283,-360 289,-366 289,-372 289,-372 289,-384 289,-384 289,-390 283,-396 277,-396"/>
<text text-anchor="middle" x="210" y="-375.5" font-family="sans" font-size="10.00" fill="#000000">combine_background_counts</text>
</g>
<!-- 32&#45;&gt;27 -->
<g id="edge33" class="edge">
<title>32&#45;&gt;27</title>
<path fill="none" stroke="#c0c0c0" stroke-width="2" d="M263.9761,-359.9243C294.7507,-349.6184 333.3824,-336.6813 365.092,-326.0622"/>
<polygon fill="#c0c0c0" stroke="#c0c0c0" stroke-width="2" points="366.3234,-329.3409 374.6944,-322.8465 364.1005,-322.7033 366.3234,-329.3409"/>
</g>
<!-- 33 -->
<g id="node34" class="node">
<title>33</title>
<path fill="none" stroke="#d8b456" stroke-width="2" d="M410.5,-468C410.5,-468 291.5,-468 291.5,-468 285.5,-468 279.5,-462 279.5,-456 279.5,-456 279.5,-444 279.5,-444 279.5,-438 285.5,-432 291.5,-432 291.5,-432 410.5,-432 410.5,-432 416.5,-432 422.5,-438 422.5,-444 422.5,-444 422.5,-456 422.5,-456 422.5,-462 416.5,-468 410.5,-468"/>
<text text-anchor="middle" x="351" y="-447.5" font-family="sans" font-size="10.00" fill="#000000">calculate_feature_lengths</text>
</g>
<!-- 33&#45;&gt;27 -->
<g id="edge35" class="edge">
<title>33&#45;&gt;27</title>
<path fill="none" stroke="#c0c0c0" stroke-width="2" d="M350.9037,-431.9922C351.5272,-412.9943 354.6318,-382.7197 367,-360 372.9614,-349.0492 381.9705,-339.0845 391.1226,-330.78"/>
<polygon fill="#c0c0c0" stroke="#c0c0c0" stroke-width="2" points="393.47,-333.3776 398.7801,-324.2095 388.9117,-328.0652 393.47,-333.3776"/>
</g>
<!-- 33&#45;&gt;34 -->
<g id="edge51" class="edge">
<title>33&#45;&gt;34</title>
<path fill="none" stroke="#c0c0c0" stroke-width="2" d="M370.178,-431.8314C379.3588,-423.1337 390.5006,-412.5783 400.4776,-403.1265"/>
<polygon fill="#c0c0c0" stroke="#c0c0c0" stroke-width="2" points="402.9757,-405.5811 407.8281,-396.1628 398.1615,-400.4995 402.9757,-405.5811"/>
</g>
<!-- 34&#45;&gt;27 -->
<g id="edge36" class="edge">
<title>34&#45;&gt;27</title>
<path fill="none" stroke="#c0c0c0" stroke-width="2" d="M426.4953,-359.8314C426.2814,-352.131 426.0271,-342.9743 425.7894,-334.4166"/>
<polygon fill="#c0c0c0" stroke="#c0c0c0" stroke-width="2" points="429.2879,-334.3122 425.5115,-324.4133 422.2906,-334.5066 429.2879,-334.3122"/>
</g>
<!-- 35 -->
<g id="node36" class="node">
<title>35</title>
<path fill="none" stroke="#d89556" stroke-width="2" d="M517,-612C517,-612 457,-612 457,-612 451,-612 445,-606 445,-600 445,-600 445,-588 445,-588 445,-582 451,-576 457,-576 457,-576 517,-576 517,-576 523,-576 529,-582 529,-588 529,-588 529,-600 529,-600 529,-606 523,-612 517,-612"/>
<text text-anchor="middle" x="487" y="-591.5" font-family="sans" font-size="10.00" fill="#000000">first_mapping</text>
</g>
<!-- 35&#45;&gt;31 -->
<g id="edge46" class="edge">
<title>35&#45;&gt;31</title>
<path fill="none" stroke="#c0c0c0" stroke-width="2" d="M487,-575.8314C487,-568.131 487,-558.9743 487,-550.4166"/>
<polygon fill="#c0c0c0" stroke="#c0c0c0" stroke-width="2" points="490.5001,-550.4132 487,-540.4133 483.5001,-550.4133 490.5001,-550.4132"/>
</g>
<!-- 36 -->
<g id="node37" class="node">
<title>36</title>
<path fill="none" stroke="#d85e56" stroke-width="2" d="M464.5,-684C464.5,-684 383.5,-684 383.5,-684 377.5,-684 371.5,-678 371.5,-672 371.5,-672 371.5,-660 371.5,-660 371.5,-654 377.5,-648 383.5,-648 383.5,-648 464.5,-648 464.5,-648 470.5,-648 476.5,-654 476.5,-660 476.5,-660 476.5,-672 476.5,-672 476.5,-678 470.5,-684 464.5,-684"/>
<text text-anchor="middle" x="424" y="-663.5" font-family="sans" font-size="10.00" fill="#000000">generate_genome</text>
</g>
<!-- 36&#45;&gt;31 -->
<g id="edge47" class="edge">
<title>36&#45;&gt;31</title>
<path fill="none" stroke="#c0c0c0" stroke-width="2" d="M423.2223,-647.8324C423.1272,-628.9701 425.0147,-599.0529 436,-576 441.0116,-565.483 448.8376,-555.6638 456.8675,-547.3596"/>
<polygon fill="#c0c0c0" stroke="#c0c0c0" stroke-width="2" points="459.5102,-549.671 464.2242,-540.1827 454.6221,-544.6604 459.5102,-549.671"/>
</g>
<!-- 36&#45;&gt;35 -->
<g id="edge54" class="edge">
<title>36&#45;&gt;35</title>
<path fill="none" stroke="#c0c0c0" stroke-width="2" d="M439.8976,-647.8314C447.2278,-639.454 456.066,-629.3531 464.0969,-620.1749"/>
<polygon fill="#c0c0c0" stroke="#c0c0c0" stroke-width="2" points="466.9373,-622.2438 470.8884,-612.4133 461.6693,-617.6343 466.9373,-622.2438"/>
</g>
<!-- 41 -->
<g id="node42" class="node">
<title>41</title>
<path fill="none" stroke="#d87556" stroke-width="2" d="M302.5,-612C302.5,-612 257.5,-612 257.5,-612 251.5,-612 245.5,-606 245.5,-600 245.5,-600 245.5,-588 245.5,-588 245.5,-582 251.5,-576 257.5,-576 257.5,-576 302.5,-576 302.5,-576 308.5,-576 314.5,-582 314.5,-588 314.5,-588 314.5,-600 314.5,-600 314.5,-606 308.5,-612 302.5,-612"/>
<text text-anchor="middle" x="280" y="-591.5" font-family="sans" font-size="10.00" fill="#000000">shuffle_gtf</text>
</g>
<!-- 36&#45;&gt;41 -->
<g id="edge60" class="edge">
<title>36&#45;&gt;41</title>
<path fill="none" stroke="#c0c0c0" stroke-width="2" d="M387.6627,-647.8314C368.2991,-638.1495 344.3314,-626.1657 323.9292,-615.9646"/>
<polygon fill="#c0c0c0" stroke="#c0c0c0" stroke-width="2" points="325.345,-612.7594 314.8354,-611.4177 322.2144,-619.0204 325.345,-612.7594"/>
</g>
<!-- 37 -->
<g id="node38" class="node">
<title>37</title>
<path fill="none" stroke="#d8a456" stroke-width="2" d="M554,-684C554,-684 524,-684 524,-684 518,-684 512,-678 512,-672 512,-672 512,-660 512,-660 512,-654 518,-648 524,-648 524,-648 554,-648 554,-648 560,-648 566,-654 566,-660 566,-660 566,-672 566,-672 566,-678 560,-684 554,-684"/>
<text text-anchor="middle" x="539" y="-663.5" font-family="sans" font-size="10.00" fill="#000000">gzip</text>
</g>
<!-- 37&#45;&gt;31 -->
<g id="edge45" class="edge">
<title>37&#45;&gt;31</title>
<path fill="none" stroke="#c0c0c0" stroke-width="2" d="M542.5825,-647.6535C545.3901,-628.9093 547.4243,-599.3259 538,-576 533.6728,-565.2898 526.1295,-555.4632 518.1505,-547.2131"/>
<polygon fill="#c0c0c0" stroke="#c0c0c0" stroke-width="2" points="520.4062,-544.5259 510.7803,-540.0996 515.545,-549.5626 520.4062,-544.5259"/>
</g>
<!-- 37&#45;&gt;35 -->
<g id="edge53" class="edge">
<title>37&#45;&gt;35</title>
<path fill="none" stroke="#c0c0c0" stroke-width="2" d="M525.8782,-647.8314C519.9501,-639.6232 512.8271,-629.7606 506.3067,-620.7323"/>
<polygon fill="#c0c0c0" stroke="#c0c0c0" stroke-width="2" points="508.9908,-618.4708 500.2985,-612.4133 503.316,-622.5693 508.9908,-618.4708"/>
</g>
<!-- 38&#45;&gt;32 -->
<g id="edge48" class="edge">
<title>38&#45;&gt;32</title>
<path fill="none" stroke="#c0c0c0" stroke-width="2" d="M208.5047,-431.8314C208.7186,-424.131 208.9729,-414.9743 209.2106,-406.4166"/>
<polygon fill="#c0c0c0" stroke="#c0c0c0" stroke-width="2" points="212.7094,-406.5066 209.4885,-396.4133 205.7121,-406.3122 212.7094,-406.5066"/>
</g>
<!-- 39 -->
<g id="node40" class="node">
<title>39</title>
<path fill="none" stroke="#b6d856" stroke-width="2" d="M370.5,-756C370.5,-756 315.5,-756 315.5,-756 309.5,-756 303.5,-750 303.5,-744 303.5,-744 303.5,-732 303.5,-732 303.5,-726 309.5,-720 315.5,-720 315.5,-720 370.5,-720 370.5,-720 376.5,-720 382.5,-726 382.5,-732 382.5,-732 382.5,-744 382.5,-744 382.5,-750 376.5,-756 370.5,-756"/>
<text text-anchor="middle" x="343" y="-735.5" font-family="sans" font-size="10.00" fill="#000000">generate_gtf</text>
</g>
<!-- 39&#45;&gt;33 -->
<g id="edge49" class="edge">
<title>39&#45;&gt;33</title>
<path fill="none" stroke="#c0c0c0" stroke-width="2" d="M343.5004,-719.9843C344.8529,-671.2939 348.589,-536.7961 350.2206,-478.0573"/>
<polygon fill="#c0c0c0" stroke="#c0c0c0" stroke-width="2" points="353.7206,-478.1022 350.4998,-468.0089 346.7233,-477.9078 353.7206,-478.1022"/>
</g>
<!-- 39&#45;&gt;36 -->
<g id="edge55" class="edge">
<title>39&#45;&gt;36</title>
<path fill="none" stroke="#c0c0c0" stroke-width="2" d="M363.4397,-719.8314C373.3205,-711.0485 385.3324,-700.3712 396.045,-690.8489"/>
<polygon fill="#c0c0c0" stroke="#c0c0c0" stroke-width="2" points="398.418,-693.4224 403.5668,-684.1628 393.7674,-688.1906 398.418,-693.4224"/>
</g>
<!-- 39&#45;&gt;41 -->
<g id="edge61" class="edge">
<title>39&#45;&gt;41</title>
<path fill="none" stroke="#c0c0c0" stroke-width="2" d="M335.021,-719.7623C324.1808,-694.9846 304.7062,-650.4714 292.0723,-621.5939"/>
<polygon fill="#c0c0c0" stroke="#c0c0c0" stroke-width="2" points="295.129,-619.8483 287.9142,-612.0896 288.7159,-622.6541 295.129,-619.8483"/>
</g>
<!-- 40 -->
<g id="node41" class="node">
<title>40</title>
<path fill="none" stroke="#5673d8" stroke-width="2" d="M556.5,-756C556.5,-756 521.5,-756 521.5,-756 515.5,-756 509.5,-750 509.5,-744 509.5,-744 509.5,-732 509.5,-732 509.5,-726 515.5,-720 521.5,-720 521.5,-720 556.5,-720 556.5,-720 562.5,-720 568.5,-726 568.5,-732 568.5,-732 568.5,-744 568.5,-744 568.5,-750 562.5,-756 556.5,-756"/>
<text text-anchor="middle" x="539" y="-735.5" font-family="sans" font-size="10.00" fill="#000000">cutadapt</text>
</g>
<!-- 40&#45;&gt;37 -->
<g id="edge56" class="edge">
<title>40&#45;&gt;37</title>
<path fill="none" stroke="#c0c0c0" stroke-width="2" d="M539,-719.8314C539,-712.131 539,-702.9743 539,-694.4166"/>
<polygon fill="#c0c0c0" stroke="#c0c0c0" stroke-width="2" points="542.5001,-694.4132 539,-684.4133 535.5001,-694.4133 542.5001,-694.4132"/>
</g>
<!-- 41&#45;&gt;38 -->
<g id="edge58" class="edge">
<title>41&#45;&gt;38</title>
<path fill="none" stroke="#c0c0c0" stroke-width="2" d="M270.8812,-575.7623C258.4382,-550.8764 236.0411,-506.0822 221.6082,-477.2165"/>
<polygon fill="#c0c0c0" stroke="#c0c0c0" stroke-width="2" points="224.6475,-475.4686 217.0448,-468.0896 218.3865,-478.5992 224.6475,-475.4686"/>
</g>
<!-- 42 -->
<g id="node43" class="node">
<title>42</title>
<path fill="none" stroke="#56c9d8" stroke-width="2" d="M554,-828C554,-828 524,-828 524,-828 518,-828 512,-822 512,-816 512,-816 512,-804 512,-804 512,-798 518,-792 524,-792 524,-792 554,-792 554,-792 560,-792 566,-798 566,-804 566,-804 566,-816 566,-816 566,-822 560,-828 554,-828"/>
<text text-anchor="middle" x="539" y="-807.5" font-family="sans" font-size="10.00" fill="#000000">repair</text>
</g>
<!-- 42&#45;&gt;40 -->
<g id="edge59" class="edge">
<title>42&#45;&gt;40</title>
<path fill="none" stroke="#c0c0c0" stroke-width="2" d="M539,-791.8314C539,-784.131 539,-774.9743 539,-766.4166"/>
<polygon fill="#c0c0c0" stroke="#c0c0c0" stroke-width="2" points="542.5001,-766.4132 539,-756.4133 535.5001,-766.4133 542.5001,-766.4132"/>
</g>
</g>
</svg>
