<?xml version="1.0" encoding="UTF-8" standalone="no"?>
<!DOCTYPE svg PUBLIC "-//W3C//DTD SVG 1.1//EN"
 "http://www.w3.org/Graphics/SVG/1.1/DTD/svg11.dtd">
<!-- Generated by graphviz version 2.40.1 (20161225.0304)
 -->
<!-- Title: snakemake_dag Pages: 1 -->
<svg width="1244pt" height="836pt"
 viewBox="0.00 0.00 1244.00 836.00" xmlns="http://www.w3.org/2000/svg" xmlns:xlink="http://www.w3.org/1999/xlink">
<g id="graph0" class="graph" transform="scale(1 1) rotate(0) translate(4 832)">
<title>snakemake_dag</title>
<polygon fill="#ffffff" stroke="transparent" points="-4,4 -4,-832 1240,-832 1240,4 -4,4"/>
<!-- 0 -->
<g id="node1" class="node">
<title>0</title>
<path fill="none" stroke="#d85656" stroke-width="2" d="M79,-36C79,-36 12,-36 12,-36 6,-36 0,-30 0,-24 0,-24 0,-12 0,-12 0,-6 6,0 12,0 12,0 79,0 79,0 85,0 91,-6 91,-12 91,-12 91,-24 91,-24 91,-30 85,-36 79,-36"/>
<text text-anchor="middle" x="45.5" y="-15.5" font-family="sans" font-size="10.00" fill="#000000">phenotype_pca</text>
</g>
<!-- 1 -->
<g id="node2" class="node">
<title>1</title>
<path fill="none" stroke="#bed856" stroke-width="2" d="M916,-396C916,-396 879,-396 879,-396 873,-396 867,-390 867,-384 867,-384 867,-372 867,-372 867,-366 873,-360 879,-360 879,-360 916,-360 916,-360 922,-360 928,-366 928,-372 928,-372 928,-384 928,-384 928,-390 922,-396 916,-396"/>
<text text-anchor="middle" x="897.5" y="-375.5" font-family="sans" font-size="10.00" fill="#000000">star_logs</text>
</g>
<!-- 2 -->
<g id="node3" class="node">
<title>2</title>
<path fill="none" stroke="#d85e56" stroke-width="2" d="M659,-324C659,-324 576,-324 576,-324 570,-324 564,-318 564,-312 564,-312 564,-300 564,-300 564,-294 570,-288 576,-288 576,-288 659,-288 659,-288 665,-288 671,-294 671,-300 671,-300 671,-312 671,-312 671,-318 665,-324 659,-324"/>
<text text-anchor="middle" x="617.5" y="-303.5" font-family="sans" font-size="10.00" fill="#000000">transcriptome_pca</text>
</g>
<!-- 3 -->
<g id="node4" class="node">
<title>3</title>
<path fill="none" stroke="#70d856" stroke-width="2" d="M672,-108C672,-108 623,-108 623,-108 617,-108 611,-102 611,-96 611,-96 611,-84 611,-84 611,-78 617,-72 623,-72 623,-72 672,-72 672,-72 678,-72 684,-78 684,-84 684,-84 684,-96 684,-96 684,-102 678,-108 672,-108"/>
<text text-anchor="middle" x="647.5" y="-87.5" font-family="sans" font-size="10.00" fill="#000000">dom_genes</text>
</g>
<!-- 4 -->
<g id="node5" class="node">
<title>4</title>
<path fill="none" stroke="#b6d856" stroke-width="2" d="M935.5,-828C935.5,-828 905.5,-828 905.5,-828 899.5,-828 893.5,-822 893.5,-816 893.5,-816 893.5,-804 893.5,-804 893.5,-798 899.5,-792 905.5,-792 905.5,-792 935.5,-792 935.5,-792 941.5,-792 947.5,-798 947.5,-804 947.5,-804 947.5,-816 947.5,-816 947.5,-822 941.5,-828 935.5,-828"/>
<text text-anchor="middle" x="920.5" y="-807.5" font-family="sans" font-size="10.00" fill="#000000">md5</text>
</g>
<!-- 5 -->
<g id="node6" class="node">
<title>5</title>
<path fill="none" stroke="#56c9d8" stroke-width="2" d="M785,-180C785,-180 702,-180 702,-180 696,-180 690,-174 690,-168 690,-168 690,-156 690,-156 690,-150 696,-144 702,-144 702,-144 785,-144 785,-144 791,-144 797,-150 797,-156 797,-156 797,-168 797,-168 797,-174 791,-180 785,-180"/>
<text text-anchor="middle" x="743.5" y="-159.5" font-family="sans" font-size="10.00" fill="#000000">distance_heatmap</text>
</g>
<!-- 6 -->
<g id="node7" class="node">
<title>6</title>
<path fill="none" stroke="#80d856" stroke-width="2" d="M1051.5,-828C1051.5,-828 977.5,-828 977.5,-828 971.5,-828 965.5,-822 965.5,-816 965.5,-816 965.5,-804 965.5,-804 965.5,-798 971.5,-792 977.5,-792 977.5,-792 1051.5,-792 1051.5,-792 1057.5,-792 1063.5,-798 1063.5,-804 1063.5,-804 1063.5,-816 1063.5,-816 1063.5,-822 1057.5,-828 1051.5,-828"/>
<text text-anchor="middle" x="1014.5" y="-807.5" font-family="sans" font-size="10.00" fill="#000000">panicle_mutants</text>
</g>
<!-- 7 -->
<g id="node8" class="node">
<title>7</title>
<path fill="none" stroke="#56d88a" stroke-width="2" d="M365.5,-108C365.5,-108 293.5,-108 293.5,-108 287.5,-108 281.5,-102 281.5,-96 281.5,-96 281.5,-84 281.5,-84 281.5,-78 287.5,-72 293.5,-72 293.5,-72 365.5,-72 365.5,-72 371.5,-72 377.5,-78 377.5,-84 377.5,-84 377.5,-96 377.5,-96 377.5,-102 371.5,-108 365.5,-108"/>
<text text-anchor="middle" x="329.5" y="-87.5" font-family="sans" font-size="10.00" fill="#000000">clustered_genes</text>
</g>
<!-- 8 -->
<g id="node9" class="node">
<title>8</title>
<path fill="none" stroke="#a7d856" stroke-width="2" d="M785,-108C785,-108 714,-108 714,-108 708,-108 702,-102 702,-96 702,-96 702,-84 702,-84 702,-78 708,-72 714,-72 714,-72 785,-72 785,-72 791,-72 797,-78 797,-84 797,-84 797,-96 797,-96 797,-102 791,-108 785,-108"/>
<text text-anchor="middle" x="749.5" y="-87.5" font-family="sans" font-size="10.00" fill="#000000">de_genes_stage</text>
</g>
<!-- 9 -->
<g id="node10" class="node">
<title>9</title>
<path fill="none" stroke="#d8ac56" stroke-width="2" d="M1171,-828C1171,-828 1094,-828 1094,-828 1088,-828 1082,-822 1082,-816 1082,-816 1082,-804 1082,-804 1082,-798 1088,-792 1094,-792 1094,-792 1171,-792 1171,-792 1177,-792 1183,-798 1183,-804 1183,-804 1183,-816 1183,-816 1183,-822 1177,-828 1171,-828"/>
<text text-anchor="middle" x="1132.5" y="-807.5" font-family="sans" font-size="10.00" fill="#000000">phenotyping_mpl</text>
</g>
<!-- 10 -->
<g id="node11" class="node">
<title>10</title>
<path fill="none" stroke="#56d8a2" stroke-width="2" d="M459,-36C459,-36 352,-36 352,-36 346,-36 340,-30 340,-24 340,-24 340,-12 340,-12 340,-6 346,0 352,0 352,0 459,0 459,0 465,0 471,-6 471,-12 471,-12 471,-24 471,-24 471,-30 465,-36 459,-36"/>
<text text-anchor="middle" x="405.5" y="-15.5" font-family="sans" font-size="10.00" fill="#000000">cluster_phenotype_corr</text>
</g>
<!-- 11 -->
<g id="node12" class="node">
<title>11</title>
<path fill="none" stroke="#5663d8" stroke-width="2" d="M581,-108C581,-108 484,-108 484,-108 478,-108 472,-102 472,-96 472,-96 472,-84 472,-84 472,-78 478,-72 484,-72 484,-72 581,-72 581,-72 587,-72 593,-78 593,-84 593,-84 593,-96 593,-96 593,-102 587,-108 581,-108"/>
<text text-anchor="middle" x="532.5" y="-87.5" font-family="sans" font-size="10.00" fill="#000000">de_genes_interaction</text>
</g>
<!-- 12 -->
<g id="node13" class="node">
<title>12</title>
<path fill="none" stroke="#56d8b1" stroke-width="2" d="M533.5,-324C533.5,-324 441.5,-324 441.5,-324 435.5,-324 429.5,-318 429.5,-312 429.5,-312 429.5,-300 429.5,-300 429.5,-294 435.5,-288 441.5,-288 441.5,-288 533.5,-288 533.5,-288 539.5,-288 545.5,-294 545.5,-300 545.5,-300 545.5,-312 545.5,-312 545.5,-318 539.5,-324 533.5,-324"/>
<text text-anchor="middle" x="487.5" y="-303.5" font-family="sans" font-size="10.00" fill="#000000">mads_ap2_heatmap</text>
</g>
<!-- 13 -->
<g id="node14" class="node">
<title>13</title>
<path fill="none" stroke="#56d863" stroke-width="2" d="M121,-180C121,-180 26,-180 26,-180 20,-180 14,-174 14,-168 14,-168 14,-156 14,-156 14,-150 20,-144 26,-144 26,-144 121,-144 121,-144 127,-144 133,-150 133,-156 133,-156 133,-168 133,-168 133,-174 127,-180 121,-180"/>
<text text-anchor="middle" x="73.5" y="-159.5" font-family="sans" font-size="10.00" fill="#000000">tidy_phenotype_data</text>
</g>
<!-- 13&#45;&gt;0 -->
<g id="edge2" class="edge">
<title>13&#45;&gt;0</title>
<path fill="none" stroke="#c0c0c0" stroke-width="2" d="M57.0719,-143.989C49.1975,-134.1289 40.602,-121.2441 36.5,-108 30.2473,-87.8122 33.0565,-63.976 37.1276,-45.9072"/>
<polygon fill="#c0c0c0" stroke="#c0c0c0" stroke-width="2" points="40.5729,-46.5573 39.6115,-36.0061 33.7833,-44.8539 40.5729,-46.5573"/>
</g>
<!-- 14 -->
<g id="node15" class="node">
<title>14</title>
<path fill="none" stroke="#56d85b" stroke-width="2" d="M89.5,-108C89.5,-108 57.5,-108 57.5,-108 51.5,-108 45.5,-102 45.5,-96 45.5,-96 45.5,-84 45.5,-84 45.5,-78 51.5,-72 57.5,-72 57.5,-72 89.5,-72 89.5,-72 95.5,-72 101.5,-78 101.5,-84 101.5,-84 101.5,-96 101.5,-96 101.5,-102 95.5,-108 89.5,-108"/>
<text text-anchor="middle" x="73.5" y="-87.5" font-family="sans" font-size="10.00" fill="#000000">cali_pca</text>
</g>
<!-- 13&#45;&gt;14 -->
<g id="edge19" class="edge">
<title>13&#45;&gt;14</title>
<path fill="none" stroke="#c0c0c0" stroke-width="2" d="M73.5,-143.8314C73.5,-136.131 73.5,-126.9743 73.5,-118.4166"/>
<polygon fill="#c0c0c0" stroke="#c0c0c0" stroke-width="2" points="77.0001,-118.4132 73.5,-108.4133 70.0001,-118.4133 77.0001,-118.4132"/>
</g>
<!-- 21 -->
<g id="node22" class="node">
<title>21</title>
<path fill="none" stroke="#8fd856" stroke-width="2" d="M251,-108C251,-108 132,-108 132,-108 126,-108 120,-102 120,-96 120,-96 120,-84 120,-84 120,-78 126,-72 132,-72 132,-72 251,-72 251,-72 257,-72 263,-78 263,-84 263,-84 263,-96 263,-96 263,-102 257,-108 251,-108"/>
<text text-anchor="middle" x="191.5" y="-87.5" font-family="sans" font-size="10.00" fill="#000000">correlate_clusters_to_mtp</text>
</g>
<!-- 13&#45;&gt;21 -->
<g id="edge29" class="edge">
<title>13&#45;&gt;21</title>
<path fill="none" stroke="#c0c0c0" stroke-width="2" d="M103.2764,-143.8314C118.3693,-134.6221 136.8757,-123.3301 153.0343,-113.4706"/>
<polygon fill="#c0c0c0" stroke="#c0c0c0" stroke-width="2" points="155.0198,-116.3593 161.7331,-108.1628 151.3737,-110.3838 155.0198,-116.3593"/>
</g>
<!-- 14&#45;&gt;0 -->
<g id="edge1" class="edge">
<title>14&#45;&gt;0</title>
<path fill="none" stroke="#c0c0c0" stroke-width="2" d="M66.4344,-71.8314C63.374,-63.9617 59.7221,-54.5712 56.3318,-45.8533"/>
<polygon fill="#c0c0c0" stroke="#c0c0c0" stroke-width="2" points="59.5473,-44.4647 52.6607,-36.4133 53.0232,-47.0019 59.5473,-44.4647"/>
</g>
<!-- 14&#45;&gt;10 -->
<g id="edge9" class="edge">
<title>14&#45;&gt;10</title>
<path fill="none" stroke="#c0c0c0" stroke-width="2" d="M101.8626,-75.2546C104.7379,-74.0477 107.6492,-72.935 110.5,-72 182.9902,-48.2256 269.1397,-33.9761 329.5652,-26.1365"/>
<polygon fill="#c0c0c0" stroke="#c0c0c0" stroke-width="2" points="330.3065,-29.5706 339.7864,-24.8397 329.4254,-22.6263 330.3065,-29.5706"/>
</g>
<!-- 15 -->
<g id="node16" class="node">
<title>15</title>
<path fill="none" stroke="#56d8a9" stroke-width="2" d="M932,-468C932,-468 863,-468 863,-468 857,-468 851,-462 851,-456 851,-456 851,-444 851,-444 851,-438 857,-432 863,-432 863,-432 932,-432 932,-432 938,-432 944,-438 944,-444 944,-444 944,-456 944,-456 944,-462 938,-468 932,-468"/>
<text text-anchor="middle" x="897.5" y="-447.5" font-family="sans" font-size="10.00" fill="#000000">parse_star_logs</text>
</g>
<!-- 15&#45;&gt;1 -->
<g id="edge3" class="edge">
<title>15&#45;&gt;1</title>
<path fill="none" stroke="#c0c0c0" stroke-width="2" d="M897.5,-431.8314C897.5,-424.131 897.5,-414.9743 897.5,-406.4166"/>
<polygon fill="#c0c0c0" stroke="#c0c0c0" stroke-width="2" points="901.0001,-406.4132 897.5,-396.4133 894.0001,-406.4133 901.0001,-406.4132"/>
</g>
<!-- 22 -->
<g id="node23" class="node">
<title>22</title>
<path fill="none" stroke="#d6d856" stroke-width="2" d="M850.5,-324C850.5,-324 774.5,-324 774.5,-324 768.5,-324 762.5,-318 762.5,-312 762.5,-312 762.5,-300 762.5,-300 762.5,-294 768.5,-288 774.5,-288 774.5,-288 850.5,-288 850.5,-288 856.5,-288 862.5,-294 862.5,-300 862.5,-300 862.5,-312 862.5,-312 862.5,-318 856.5,-324 850.5,-324"/>
<text text-anchor="middle" x="812.5" y="-303.5" font-family="sans" font-size="10.00" fill="#000000">calculate_cutoffs</text>
</g>
<!-- 15&#45;&gt;22 -->
<g id="edge35" class="edge">
<title>15&#45;&gt;22</title>
<path fill="none" stroke="#c0c0c0" stroke-width="2" d="M915.8729,-431.8705C932.6555,-413.0393 952.7151,-383.1471 937.5,-360 922.827,-337.6776 896.7526,-324.5404 872.2009,-316.8288"/>
<polygon fill="#c0c0c0" stroke="#c0c0c0" stroke-width="2" points="873.113,-313.4493 862.5345,-314.0359 871.1699,-320.1742 873.113,-313.4493"/>
</g>
<!-- 30 -->
<g id="node31" class="node">
<title>30</title>
<path fill="none" stroke="#56d0d8" stroke-width="2" d="M836.5,-396C836.5,-396 774.5,-396 774.5,-396 768.5,-396 762.5,-390 762.5,-384 762.5,-384 762.5,-372 762.5,-372 762.5,-366 768.5,-360 774.5,-360 774.5,-360 836.5,-360 836.5,-360 842.5,-360 848.5,-366 848.5,-372 848.5,-372 848.5,-384 848.5,-384 848.5,-390 842.5,-396 836.5,-396"/>
<text text-anchor="middle" x="805.5" y="-375.5" font-family="sans" font-size="10.00" fill="#000000">calculate_tpm</text>
</g>
<!-- 15&#45;&gt;30 -->
<g id="edge47" class="edge">
<title>15&#45;&gt;30</title>
<path fill="none" stroke="#c0c0c0" stroke-width="2" d="M874.2845,-431.8314C862.953,-422.9632 849.1536,-412.1637 836.8973,-402.5718"/>
<polygon fill="#c0c0c0" stroke="#c0c0c0" stroke-width="2" points="838.7402,-399.5697 828.7081,-396.1628 834.426,-405.0822 838.7402,-399.5697"/>
</g>
<!-- 16 -->
<g id="node17" class="node">
<title>16</title>
<path fill="none" stroke="#d86e56" stroke-width="2" d="M648.5,-396C648.5,-396 614.5,-396 614.5,-396 608.5,-396 602.5,-390 602.5,-384 602.5,-384 602.5,-372 602.5,-372 602.5,-366 608.5,-360 614.5,-360 614.5,-360 648.5,-360 648.5,-360 654.5,-360 660.5,-366 660.5,-372 660.5,-372 660.5,-384 660.5,-384 660.5,-390 654.5,-396 648.5,-396"/>
<text text-anchor="middle" x="631.5" y="-375.5" font-family="sans" font-size="10.00" fill="#000000">rlog_pca</text>
</g>
<!-- 16&#45;&gt;2 -->
<g id="edge4" class="edge">
<title>16&#45;&gt;2</title>
<path fill="none" stroke="#c0c0c0" stroke-width="2" d="M627.9672,-359.8314C626.4699,-352.131 624.6895,-342.9743 623.0255,-334.4166"/>
<polygon fill="#c0c0c0" stroke="#c0c0c0" stroke-width="2" points="626.4248,-333.5614 621.0804,-324.4133 619.5535,-334.8975 626.4248,-333.5614"/>
</g>
<!-- 16&#45;&gt;12 -->
<g id="edge17" class="edge">
<title>16&#45;&gt;12</title>
<path fill="none" stroke="#c0c0c0" stroke-width="2" d="M602.3595,-363.4297C582.4239,-353.4619 555.5959,-340.0479 532.8815,-328.6907"/>
<polygon fill="#c0c0c0" stroke="#c0c0c0" stroke-width="2" points="534.2655,-325.4697 523.7559,-324.128 531.1349,-331.7307 534.2655,-325.4697"/>
</g>
<!-- 17 -->
<g id="node18" class="node">
<title>17</title>
<path fill="none" stroke="#566bd8" stroke-width="2" d="M507.5,-180C507.5,-180 467.5,-180 467.5,-180 461.5,-180 455.5,-174 455.5,-168 455.5,-168 455.5,-156 455.5,-156 455.5,-150 461.5,-144 467.5,-144 467.5,-144 507.5,-144 507.5,-144 513.5,-144 519.5,-150 519.5,-156 519.5,-156 519.5,-168 519.5,-168 519.5,-174 513.5,-180 507.5,-180"/>
<text text-anchor="middle" x="487.5" y="-159.5" font-family="sans" font-size="10.00" fill="#000000">deseq_tfs</text>
</g>
<!-- 17&#45;&gt;3 -->
<g id="edge5" class="edge">
<title>17&#45;&gt;3</title>
<path fill="none" stroke="#c0c0c0" stroke-width="2" d="M519.8784,-147.4297C543.3816,-136.8533 575.5069,-122.3969 601.6456,-110.6345"/>
<polygon fill="#c0c0c0" stroke="#c0c0c0" stroke-width="2" points="603.2947,-113.7305 610.9777,-106.4351 600.4221,-107.347 603.2947,-113.7305"/>
</g>
<!-- 17&#45;&gt;10 -->
<g id="edge11" class="edge">
<title>17&#45;&gt;10</title>
<path fill="none" stroke="#c0c0c0" stroke-width="2" d="M477.1146,-143.7623C462.8819,-118.7682 437.2137,-73.6924 420.7844,-44.8409"/>
<polygon fill="#c0c0c0" stroke="#c0c0c0" stroke-width="2" points="423.7909,-43.0475 415.801,-36.0896 417.708,-46.5114 423.7909,-43.0475"/>
</g>
<!-- 17&#45;&gt;11 -->
<g id="edge14" class="edge">
<title>17&#45;&gt;11</title>
<path fill="none" stroke="#c0c0c0" stroke-width="2" d="M498.8554,-143.8314C503.9326,-135.7079 510.0227,-125.9637 515.6176,-117.0118"/>
<polygon fill="#c0c0c0" stroke="#c0c0c0" stroke-width="2" points="518.6597,-118.7483 520.9917,-108.4133 512.7237,-115.0383 518.6597,-118.7483"/>
</g>
<!-- 18 -->
<g id="node19" class="node">
<title>18</title>
<path fill="none" stroke="#56d873" stroke-width="2" d="M753.5,-252C753.5,-252 667.5,-252 667.5,-252 661.5,-252 655.5,-246 655.5,-240 655.5,-240 655.5,-228 655.5,-228 655.5,-222 661.5,-216 667.5,-216 667.5,-216 753.5,-216 753.5,-216 759.5,-216 765.5,-222 765.5,-228 765.5,-228 765.5,-240 765.5,-240 765.5,-246 759.5,-252 753.5,-252"/>
<text text-anchor="middle" x="710.5" y="-231.5" font-family="sans" font-size="10.00" fill="#000000">filter_deseq_object</text>
</g>
<!-- 18&#45;&gt;5 -->
<g id="edge6" class="edge">
<title>18&#45;&gt;5</title>
<path fill="none" stroke="#c0c0c0" stroke-width="2" d="M718.8273,-215.8314C722.473,-207.8771 726.8309,-198.369 730.8627,-189.5723"/>
<polygon fill="#c0c0c0" stroke="#c0c0c0" stroke-width="2" points="734.0757,-190.9622 735.0606,-180.4133 727.7123,-188.0456 734.0757,-190.9622"/>
</g>
<!-- 20 -->
<g id="node21" class="node">
<title>20</title>
<path fill="none" stroke="#56d87b" stroke-width="2" d="M660,-180C660,-180 621,-180 621,-180 615,-180 609,-174 609,-168 609,-168 609,-156 609,-156 609,-150 615,-144 621,-144 621,-144 660,-144 660,-144 666,-144 672,-150 672,-156 672,-156 672,-168 672,-168 672,-174 666,-180 660,-180"/>
<text text-anchor="middle" x="640.5" y="-159.5" font-family="sans" font-size="10.00" fill="#000000">deseq_all</text>
</g>
<!-- 18&#45;&gt;20 -->
<g id="edge28" class="edge">
<title>18&#45;&gt;20</title>
<path fill="none" stroke="#c0c0c0" stroke-width="2" d="M692.836,-215.8314C684.5268,-207.2848 674.4736,-196.9443 665.4082,-187.6198"/>
<polygon fill="#c0c0c0" stroke="#c0c0c0" stroke-width="2" points="667.8821,-185.1435 658.4018,-180.4133 662.8631,-190.023 667.8821,-185.1435"/>
</g>
<!-- 19 -->
<g id="node20" class="node">
<title>19</title>
<path fill="none" stroke="#d89c56" stroke-width="2" d="M377,-180C377,-180 336,-180 336,-180 330,-180 324,-174 324,-168 324,-168 324,-156 324,-156 324,-150 330,-144 336,-144 336,-144 377,-144 377,-144 383,-144 389,-150 389,-156 389,-156 389,-168 389,-168 389,-174 383,-180 377,-180"/>
<text text-anchor="middle" x="356.5" y="-159.5" font-family="sans" font-size="10.00" fill="#000000">mfuzz_tfs</text>
</g>
<!-- 19&#45;&gt;7 -->
<g id="edge7" class="edge">
<title>19&#45;&gt;7</title>
<path fill="none" stroke="#c0c0c0" stroke-width="2" d="M349.6868,-143.8314C346.7356,-135.9617 343.2142,-126.5712 339.945,-117.8533"/>
<polygon fill="#c0c0c0" stroke="#c0c0c0" stroke-width="2" points="343.1934,-116.5476 336.405,-108.4133 336.6391,-119.0055 343.1934,-116.5476"/>
</g>
<!-- 19&#45;&gt;10 -->
<g id="edge10" class="edge">
<title>19&#45;&gt;10</title>
<path fill="none" stroke="#c0c0c0" stroke-width="2" d="M368.4904,-143.6709C374.6614,-133.5161 381.8454,-120.4574 386.5,-108 394.0225,-87.8669 398.8868,-64.0279 401.8088,-45.9441"/>
<polygon fill="#c0c0c0" stroke="#c0c0c0" stroke-width="2" points="405.2728,-46.4446 403.3102,-36.0332 398.3518,-45.3961 405.2728,-46.4446"/>
</g>
<!-- 19&#45;&gt;14 -->
<g id="edge20" class="edge">
<title>19&#45;&gt;14</title>
<path fill="none" stroke="#c0c0c0" stroke-width="2" d="M323.9868,-157.3785C278.1252,-150.3223 191.92,-135.0859 111.6539,-108.0028"/>
<polygon fill="#c0c0c0" stroke="#c0c0c0" stroke-width="2" points="112.4926,-104.5899 101.8979,-104.641 110.2121,-111.208 112.4926,-104.5899"/>
</g>
<!-- 19&#45;&gt;21 -->
<g id="edge30" class="edge">
<title>19&#45;&gt;21</title>
<path fill="none" stroke="#c0c0c0" stroke-width="2" d="M323.9013,-147.7751C300.5458,-137.5836 268.6436,-123.6626 242.0067,-112.0393"/>
<polygon fill="#c0c0c0" stroke="#c0c0c0" stroke-width="2" points="243.3923,-108.8253 232.8271,-108.0336 240.5927,-115.241 243.3923,-108.8253"/>
</g>
<!-- 20&#45;&gt;8 -->
<g id="edge8" class="edge">
<title>20&#45;&gt;8</title>
<path fill="none" stroke="#c0c0c0" stroke-width="2" d="M668.0053,-143.8314C681.818,-134.7074 698.7256,-123.539 713.5529,-113.7449"/>
<polygon fill="#c0c0c0" stroke="#c0c0c0" stroke-width="2" points="715.5886,-116.5949 722.0035,-108.1628 711.7304,-110.7541 715.5886,-116.5949"/>
</g>
<!-- 21&#45;&gt;10 -->
<g id="edge12" class="edge">
<title>21&#45;&gt;10</title>
<path fill="none" stroke="#c0c0c0" stroke-width="2" d="M245.225,-71.9243C274.6073,-62.0387 311.1852,-49.7321 341.9758,-39.3726"/>
<polygon fill="#c0c0c0" stroke="#c0c0c0" stroke-width="2" points="343.3911,-42.5893 351.7529,-36.0831 341.1588,-35.9548 343.3911,-42.5893"/>
</g>
<!-- 22&#45;&gt;10 -->
<g id="edge13" class="edge">
<title>22&#45;&gt;10</title>
<path fill="none" stroke="#c0c0c0" stroke-width="2" d="M818.9192,-287.9594C833.0848,-244.5637 861.593,-133.403 806.5,-72 785.147,-48.2014 591.3407,-30.9406 481.1776,-22.9555"/>
<polygon fill="#c0c0c0" stroke="#c0c0c0" stroke-width="2" points="481.337,-19.4581 471.1125,-22.2349 480.837,-26.4402 481.337,-19.4581"/>
</g>
<!-- 22&#45;&gt;18 -->
<g id="edge25" class="edge">
<title>22&#45;&gt;18</title>
<path fill="none" stroke="#c0c0c0" stroke-width="2" d="M786.7611,-287.8314C773.9563,-278.7927 758.3091,-267.7476 744.5281,-258.0198"/>
<polygon fill="#c0c0c0" stroke="#c0c0c0" stroke-width="2" points="746.4188,-255.0703 736.2307,-252.1628 742.382,-260.7891 746.4188,-255.0703"/>
</g>
<!-- 27 -->
<g id="node28" class="node">
<title>27</title>
<path fill="none" stroke="#d8bc56" stroke-width="2" d="M437.5,-252C437.5,-252 403.5,-252 403.5,-252 397.5,-252 391.5,-246 391.5,-240 391.5,-240 391.5,-228 391.5,-228 391.5,-222 397.5,-216 403.5,-216 403.5,-216 437.5,-216 437.5,-216 443.5,-216 449.5,-222 449.5,-228 449.5,-228 449.5,-240 449.5,-240 449.5,-246 443.5,-252 437.5,-252"/>
<text text-anchor="middle" x="420.5" y="-231.5" font-family="sans" font-size="10.00" fill="#000000">filter_tfs</text>
</g>
<!-- 22&#45;&gt;27 -->
<g id="edge42" class="edge">
<title>22&#45;&gt;27</title>
<path fill="none" stroke="#c0c0c0" stroke-width="2" d="M762.4548,-296.808C683.3702,-282.2823 531.1466,-254.3228 459.5413,-241.1708"/>
<polygon fill="#c0c0c0" stroke="#c0c0c0" stroke-width="2" points="460.0476,-237.7054 449.5798,-239.3412 458.783,-244.5902 460.0476,-237.7054"/>
</g>
<!-- 23 -->
<g id="node24" class="node">
<title>23</title>
<path fill="none" stroke="#d87556" stroke-width="2" d="M749.5,-468C749.5,-468 643.5,-468 643.5,-468 637.5,-468 631.5,-462 631.5,-456 631.5,-456 631.5,-444 631.5,-444 631.5,-438 637.5,-432 643.5,-432 643.5,-432 749.5,-432 749.5,-432 755.5,-432 761.5,-438 761.5,-444 761.5,-444 761.5,-456 761.5,-456 761.5,-462 755.5,-468 749.5,-468"/>
<text text-anchor="middle" x="696.5" y="-447.5" font-family="sans" font-size="10.00" fill="#000000">generate_deseq_object</text>
</g>
<!-- 23&#45;&gt;12 -->
<g id="edge16" class="edge">
<title>23&#45;&gt;12</title>
<path fill="none" stroke="#c0c0c0" stroke-width="2" d="M631.2726,-440.8351C579.1522,-432.0753 512.0217,-417.0748 494.5,-396 480.4666,-379.1209 479.6937,-353.771 481.8719,-334.272"/>
<polygon fill="#c0c0c0" stroke="#c0c0c0" stroke-width="2" points="485.371,-334.5265 483.3202,-324.1321 478.4413,-333.5367 485.371,-334.5265"/>
</g>
<!-- 23&#45;&gt;16 -->
<g id="edge22" class="edge">
<title>23&#45;&gt;16</title>
<path fill="none" stroke="#c0c0c0" stroke-width="2" d="M680.0978,-431.8314C672.4585,-423.3694 663.2317,-413.1489 654.8793,-403.8971"/>
<polygon fill="#c0c0c0" stroke="#c0c0c0" stroke-width="2" points="657.4221,-401.4906 648.1231,-396.4133 652.2262,-406.1813 657.4221,-401.4906"/>
</g>
<!-- 23&#45;&gt;18 -->
<g id="edge24" class="edge">
<title>23&#45;&gt;18</title>
<path fill="none" stroke="#c0c0c0" stroke-width="2" d="M697.6696,-431.9555C700.1093,-394.3144 705.7564,-307.1867 708.6771,-262.1246"/>
<polygon fill="#c0c0c0" stroke="#c0c0c0" stroke-width="2" points="712.1697,-262.3505 709.3239,-252.1451 705.1844,-261.8977 712.1697,-262.3505"/>
</g>
<!-- 23&#45;&gt;22 -->
<g id="edge31" class="edge">
<title>23&#45;&gt;22</title>
<path fill="none" stroke="#c0c0c0" stroke-width="2" d="M706.1313,-431.7998C716.5483,-412.9109 734.2646,-382.9722 753.5,-360 762.0816,-349.7513 772.552,-339.5746 782.2773,-330.8649"/>
<polygon fill="#c0c0c0" stroke="#c0c0c0" stroke-width="2" points="784.6478,-333.4414 789.8666,-324.2211 780.037,-328.1744 784.6478,-333.4414"/>
</g>
<!-- 23&#45;&gt;27 -->
<g id="edge40" class="edge">
<title>23&#45;&gt;27</title>
<path fill="none" stroke="#c0c0c0" stroke-width="2" d="M631.1585,-444.1964C537.1874,-435.1805 373.1635,-416.6808 355.5,-396 320.8806,-355.4669 364.5226,-294.1527 395.2229,-259.751"/>
<polygon fill="#c0c0c0" stroke="#c0c0c0" stroke-width="2" points="398.1321,-261.757 402.31,-252.0207 392.9723,-257.0266 398.1321,-261.757"/>
</g>
<!-- 23&#45;&gt;30 -->
<g id="edge45" class="edge">
<title>23&#45;&gt;30</title>
<path fill="none" stroke="#c0c0c0" stroke-width="2" d="M724.0053,-431.8314C737.818,-422.7074 754.7256,-411.539 769.5529,-401.7449"/>
<polygon fill="#c0c0c0" stroke="#c0c0c0" stroke-width="2" points="771.5886,-404.5949 778.0035,-396.1628 767.7304,-398.7541 771.5886,-404.5949"/>
</g>
<!-- 24 -->
<g id="node25" class="node">
<title>24</title>
<path fill="none" stroke="#d88d56" stroke-width="2" d="M426.5,-396C426.5,-396 376.5,-396 376.5,-396 370.5,-396 364.5,-390 364.5,-384 364.5,-384 364.5,-372 364.5,-372 364.5,-366 370.5,-360 376.5,-360 376.5,-360 426.5,-360 426.5,-360 432.5,-360 438.5,-366 438.5,-372 438.5,-372 438.5,-384 438.5,-384 438.5,-390 432.5,-396 426.5,-396"/>
<text text-anchor="middle" x="401.5" y="-375.5" font-family="sans" font-size="10.00" fill="#000000">format_tfdb</text>
</g>
<!-- 24&#45;&gt;12 -->
<g id="edge15" class="edge">
<title>24&#45;&gt;12</title>
<path fill="none" stroke="#c0c0c0" stroke-width="2" d="M423.2014,-359.8314C433.6921,-351.0485 446.4455,-340.3712 457.8194,-330.8489"/>
<polygon fill="#c0c0c0" stroke="#c0c0c0" stroke-width="2" points="460.3847,-333.2659 465.8055,-324.1628 455.8911,-327.8986 460.3847,-333.2659"/>
</g>
<!-- 24&#45;&gt;19 -->
<g id="edge26" class="edge">
<title>24&#45;&gt;19</title>
<path fill="none" stroke="#c0c0c0" stroke-width="2" d="M397.7407,-359.9555C389.8988,-322.3144 371.7472,-235.1867 362.3593,-190.1246"/>
<polygon fill="#c0c0c0" stroke="#c0c0c0" stroke-width="2" points="365.7463,-189.221 360.2802,-180.1451 358.8934,-190.6487 365.7463,-189.221"/>
</g>
<!-- 24&#45;&gt;27 -->
<g id="edge41" class="edge">
<title>24&#45;&gt;27</title>
<path fill="none" stroke="#c0c0c0" stroke-width="2" d="M403.9064,-359.7623C407.1471,-335.201 412.9465,-291.2474 416.7588,-262.3541"/>
<polygon fill="#c0c0c0" stroke="#c0c0c0" stroke-width="2" points="420.2749,-262.4616 418.1132,-252.0896 413.3351,-261.5458 420.2749,-262.4616"/>
</g>
<!-- 25 -->
<g id="node26" class="node">
<title>25</title>
<path fill="none" stroke="#ced856" stroke-width="2" d="M572,-396C572,-396 515,-396 515,-396 509,-396 503,-390 503,-384 503,-384 503,-372 503,-372 503,-366 509,-360 515,-360 515,-360 572,-360 572,-360 578,-360 584,-366 584,-372 584,-372 584,-384 584,-384 584,-390 578,-396 572,-396"/>
<text text-anchor="middle" x="543.5" y="-375.5" font-family="sans" font-size="10.00" fill="#000000">tfdb_families</text>
</g>
<!-- 25&#45;&gt;12 -->
<g id="edge18" class="edge">
<title>25&#45;&gt;12</title>
<path fill="none" stroke="#c0c0c0" stroke-width="2" d="M529.3688,-359.8314C522.9189,-351.5386 515.1555,-341.557 508.0748,-332.4533"/>
<polygon fill="#c0c0c0" stroke="#c0c0c0" stroke-width="2" points="510.7236,-330.158 501.8214,-324.4133 505.1981,-334.4556 510.7236,-330.158"/>
</g>
<!-- 26 -->
<g id="node27" class="node">
<title>26</title>
<path fill="none" stroke="#d8d356" stroke-width="2" d="M935,-540C935,-540 860,-540 860,-540 854,-540 848,-534 848,-528 848,-528 848,-516 848,-516 848,-510 854,-504 860,-504 860,-504 935,-504 935,-504 941,-504 947,-510 947,-516 947,-516 947,-528 947,-528 947,-534 941,-540 935,-540"/>
<text text-anchor="middle" x="897.5" y="-519.5" font-family="sans" font-size="10.00" fill="#000000">second_mapping</text>
</g>
<!-- 26&#45;&gt;15 -->
<g id="edge21" class="edge">
<title>26&#45;&gt;15</title>
<path fill="none" stroke="#c0c0c0" stroke-width="2" d="M897.5,-503.8314C897.5,-496.131 897.5,-486.9743 897.5,-478.4166"/>
<polygon fill="#c0c0c0" stroke="#c0c0c0" stroke-width="2" points="901.0001,-478.4132 897.5,-468.4133 894.0001,-478.4133 901.0001,-478.4132"/>
</g>
<!-- 26&#45;&gt;23 -->
<g id="edge36" class="edge">
<title>26&#45;&gt;23</title>
<path fill="none" stroke="#c0c0c0" stroke-width="2" d="M847.8146,-504.2022C820.2407,-494.325 785.7412,-481.967 756.6504,-471.5464"/>
<polygon fill="#c0c0c0" stroke="#c0c0c0" stroke-width="2" points="757.6045,-468.1705 747.01,-468.0931 755.2439,-474.7604 757.6045,-468.1705"/>
</g>
<!-- 35 -->
<g id="node36" class="node">
<title>35</title>
<path fill="none" stroke="#56d8c9" stroke-width="2" d="M1062.5,-468C1062.5,-468 980.5,-468 980.5,-468 974.5,-468 968.5,-462 968.5,-456 968.5,-456 968.5,-444 968.5,-444 968.5,-438 974.5,-432 980.5,-432 980.5,-432 1062.5,-432 1062.5,-432 1068.5,-432 1074.5,-438 1074.5,-444 1074.5,-444 1074.5,-456 1074.5,-456 1074.5,-462 1068.5,-468 1062.5,-468"/>
<text text-anchor="middle" x="1021.5" y="-447.5" font-family="sans" font-size="10.00" fill="#000000">count_background</text>
</g>
<!-- 26&#45;&gt;35 -->
<g id="edge52" class="edge">
<title>26&#45;&gt;35</title>
<path fill="none" stroke="#c0c0c0" stroke-width="2" d="M928.7904,-503.8314C944.7977,-494.5368 964.4586,-483.1208 981.5494,-473.1971"/>
<polygon fill="#c0c0c0" stroke="#c0c0c0" stroke-width="2" points="983.3292,-476.211 990.2196,-468.1628 979.8142,-470.1575 983.3292,-476.211"/>
</g>
<!-- 27&#45;&gt;17 -->
<g id="edge23" class="edge">
<title>27&#45;&gt;17</title>
<path fill="none" stroke="#c0c0c0" stroke-width="2" d="M437.4069,-215.8314C445.2813,-207.3694 454.792,-197.1489 463.4013,-187.8971"/>
<polygon fill="#c0c0c0" stroke="#c0c0c0" stroke-width="2" points="466.1153,-190.1183 470.3654,-180.4133 460.9908,-185.3497 466.1153,-190.1183"/>
</g>
<!-- 27&#45;&gt;19 -->
<g id="edge27" class="edge">
<title>27&#45;&gt;19</title>
<path fill="none" stroke="#c0c0c0" stroke-width="2" d="M404.3501,-215.8314C396.8283,-207.3694 387.7435,-197.1489 379.5196,-187.8971"/>
<polygon fill="#c0c0c0" stroke="#c0c0c0" stroke-width="2" points="382.127,-185.5621 372.8673,-180.4133 376.8951,-190.2127 382.127,-185.5621"/>
</g>
<!-- 28 -->
<g id="node29" class="node">
<title>28</title>
<path fill="none" stroke="#568ad8" stroke-width="2" d="M1224,-468C1224,-468 1105,-468 1105,-468 1099,-468 1093,-462 1093,-456 1093,-456 1093,-444 1093,-444 1093,-438 1099,-432 1105,-432 1105,-432 1224,-432 1224,-432 1230,-432 1236,-438 1236,-444 1236,-444 1236,-456 1236,-456 1236,-462 1230,-468 1224,-468"/>
<text text-anchor="middle" x="1164.5" y="-447.5" font-family="sans" font-size="10.00" fill="#000000">calculate_feature_lengths</text>
</g>
<!-- 28&#45;&gt;22 -->
<g id="edge34" class="edge">
<title>28&#45;&gt;22</title>
<path fill="none" stroke="#c0c0c0" stroke-width="2" d="M1167.5892,-431.7385C1169.9002,-411.3558 1170.0068,-378.7773 1151.5,-360 1132.2209,-340.439 964.9317,-321.0493 872.786,-311.7268"/>
<polygon fill="#c0c0c0" stroke="#c0c0c0" stroke-width="2" points="873.0508,-308.2359 862.7516,-310.7213 872.3528,-315.201 873.0508,-308.2359"/>
</g>
<!-- 28&#45;&gt;30 -->
<g id="edge46" class="edge">
<title>28&#45;&gt;30</title>
<path fill="none" stroke="#c0c0c0" stroke-width="2" d="M1092.9946,-433.8658C1089.7891,-433.2195 1086.613,-432.5944 1083.5,-432 984.0251,-413.007 956.7959,-420.3703 858.5,-396 858.3998,-395.9752 858.2995,-395.9502 858.1991,-395.9252"/>
<polygon fill="#c0c0c0" stroke="#c0c0c0" stroke-width="2" points="859.2773,-392.5914 848.7088,-393.3381 857.4362,-399.345 859.2773,-392.5914"/>
</g>
<!-- 29 -->
<g id="node30" class="node">
<title>29</title>
<path fill="none" stroke="#d88556" stroke-width="2" d="M1130.5,-396C1130.5,-396 996.5,-396 996.5,-396 990.5,-396 984.5,-390 984.5,-384 984.5,-384 984.5,-372 984.5,-372 984.5,-366 990.5,-360 996.5,-360 996.5,-360 1130.5,-360 1130.5,-360 1136.5,-360 1142.5,-366 1142.5,-372 1142.5,-372 1142.5,-384 1142.5,-384 1142.5,-390 1136.5,-396 1130.5,-396"/>
<text text-anchor="middle" x="1063.5" y="-375.5" font-family="sans" font-size="10.00" fill="#000000">combine_background_counts</text>
</g>
<!-- 29&#45;&gt;22 -->
<g id="edge33" class="edge">
<title>29&#45;&gt;22</title>
<path fill="none" stroke="#c0c0c0" stroke-width="2" d="M1000.4861,-359.9243C961.4278,-348.7203 911.5287,-334.4066 872.9572,-323.3423"/>
<polygon fill="#c0c0c0" stroke="#c0c0c0" stroke-width="2" points="873.4813,-319.8516 862.9039,-320.4585 871.5512,-326.5802 873.4813,-319.8516"/>
</g>
<!-- 30&#45;&gt;22 -->
<g id="edge32" class="edge">
<title>30&#45;&gt;22</title>
<path fill="none" stroke="#c0c0c0" stroke-width="2" d="M807.2664,-359.8314C808.015,-352.131 808.9053,-342.9743 809.7373,-334.4166"/>
<polygon fill="#c0c0c0" stroke="#c0c0c0" stroke-width="2" points="813.2256,-334.7051 810.7098,-324.4133 806.2585,-334.0276 813.2256,-334.7051"/>
</g>
<!-- 31 -->
<g id="node32" class="node">
<title>31</title>
<path fill="none" stroke="#9fd856" stroke-width="2" d="M863.5,-684C863.5,-684 833.5,-684 833.5,-684 827.5,-684 821.5,-678 821.5,-672 821.5,-672 821.5,-660 821.5,-660 821.5,-654 827.5,-648 833.5,-648 833.5,-648 863.5,-648 863.5,-648 869.5,-648 875.5,-654 875.5,-660 875.5,-660 875.5,-672 875.5,-672 875.5,-678 869.5,-684 863.5,-684"/>
<text text-anchor="middle" x="848.5" y="-663.5" font-family="sans" font-size="10.00" fill="#000000">gzip</text>
</g>
<!-- 31&#45;&gt;26 -->
<g id="edge37" class="edge">
<title>31&#45;&gt;26</title>
<path fill="none" stroke="#c0c0c0" stroke-width="2" d="M844.0376,-647.6767C840.3915,-628.9511 837.2037,-599.3822 846.5,-576 850.7676,-565.2659 858.2931,-555.4321 866.2739,-547.1828"/>
<polygon fill="#c0c0c0" stroke="#c0c0c0" stroke-width="2" points="868.8801,-549.5319 873.6509,-540.072 864.0221,-544.4921 868.8801,-549.5319"/>
</g>
<!-- 32 -->
<g id="node33" class="node">
<title>32</title>
<path fill="none" stroke="#567bd8" stroke-width="2" d="M927.5,-612C927.5,-612 867.5,-612 867.5,-612 861.5,-612 855.5,-606 855.5,-600 855.5,-600 855.5,-588 855.5,-588 855.5,-582 861.5,-576 867.5,-576 867.5,-576 927.5,-576 927.5,-576 933.5,-576 939.5,-582 939.5,-588 939.5,-588 939.5,-600 939.5,-600 939.5,-606 933.5,-612 927.5,-612"/>
<text text-anchor="middle" x="897.5" y="-591.5" font-family="sans" font-size="10.00" fill="#000000">first_mapping</text>
</g>
<!-- 31&#45;&gt;32 -->
<g id="edge49" class="edge">
<title>31&#45;&gt;32</title>
<path fill="none" stroke="#c0c0c0" stroke-width="2" d="M860.8648,-647.8314C866.4509,-639.6232 873.163,-629.7606 879.3072,-620.7323"/>
<polygon fill="#c0c0c0" stroke="#c0c0c0" stroke-width="2" points="882.236,-622.6496 884.9687,-612.4133 876.449,-618.7112 882.236,-622.6496"/>
</g>
<!-- 32&#45;&gt;26 -->
<g id="edge38" class="edge">
<title>32&#45;&gt;26</title>
<path fill="none" stroke="#c0c0c0" stroke-width="2" d="M897.5,-575.8314C897.5,-568.131 897.5,-558.9743 897.5,-550.4166"/>
<polygon fill="#c0c0c0" stroke="#c0c0c0" stroke-width="2" points="901.0001,-550.4132 897.5,-540.4133 894.0001,-550.4133 901.0001,-550.4132"/>
</g>
<!-- 33 -->
<g id="node34" class="node">
<title>33</title>
<path fill="none" stroke="#5682d8" stroke-width="2" d="M1008,-684C1008,-684 927,-684 927,-684 921,-684 915,-678 915,-672 915,-672 915,-660 915,-660 915,-654 921,-648 927,-648 927,-648 1008,-648 1008,-648 1014,-648 1020,-654 1020,-660 1020,-660 1020,-672 1020,-672 1020,-678 1014,-684 1008,-684"/>
<text text-anchor="middle" x="967.5" y="-663.5" font-family="sans" font-size="10.00" fill="#000000">generate_genome</text>
</g>
<!-- 33&#45;&gt;26 -->
<g id="edge39" class="edge">
<title>33&#45;&gt;26</title>
<path fill="none" stroke="#c0c0c0" stroke-width="2" d="M966.5509,-647.7777C964.9229,-628.8708 960.5025,-598.9176 948.5,-576 943.0492,-565.5922 935.0185,-555.7529 926.9346,-547.3956"/>
<polygon fill="#c0c0c0" stroke="#c0c0c0" stroke-width="2" points="929.156,-544.6717 919.5682,-540.1634 924.252,-549.6667 929.156,-544.6717"/>
</g>
<!-- 33&#45;&gt;32 -->
<g id="edge50" class="edge">
<title>33&#45;&gt;32</title>
<path fill="none" stroke="#c0c0c0" stroke-width="2" d="M949.836,-647.8314C941.5268,-639.2848 931.4736,-628.9443 922.4082,-619.6198"/>
<polygon fill="#c0c0c0" stroke="#c0c0c0" stroke-width="2" points="924.8821,-617.1435 915.4018,-612.4133 919.8631,-622.023 924.8821,-617.1435"/>
</g>
<!-- 37 -->
<g id="node38" class="node">
<title>37</title>
<path fill="none" stroke="#56a2d8" stroke-width="2" d="M1053,-612C1053,-612 1008,-612 1008,-612 1002,-612 996,-606 996,-600 996,-600 996,-588 996,-588 996,-582 1002,-576 1008,-576 1008,-576 1053,-576 1053,-576 1059,-576 1065,-582 1065,-588 1065,-588 1065,-600 1065,-600 1065,-606 1059,-612 1053,-612"/>
<text text-anchor="middle" x="1030.5" y="-591.5" font-family="sans" font-size="10.00" fill="#000000">shuffle_gtf</text>
</g>
<!-- 33&#45;&gt;37 -->
<g id="edge56" class="edge">
<title>33&#45;&gt;37</title>
<path fill="none" stroke="#c0c0c0" stroke-width="2" d="M983.3976,-647.8314C990.7278,-639.454 999.566,-629.3531 1007.5969,-620.1749"/>
<polygon fill="#c0c0c0" stroke="#c0c0c0" stroke-width="2" points="1010.4373,-622.2438 1014.3884,-612.4133 1005.1693,-617.6343 1010.4373,-622.2438"/>
</g>
<!-- 34 -->
<g id="node35" class="node">
<title>34</title>
<path fill="none" stroke="#d8a456" stroke-width="2" d="M1076,-756C1076,-756 1021,-756 1021,-756 1015,-756 1009,-750 1009,-744 1009,-744 1009,-732 1009,-732 1009,-726 1015,-720 1021,-720 1021,-720 1076,-720 1076,-720 1082,-720 1088,-726 1088,-732 1088,-732 1088,-744 1088,-744 1088,-750 1082,-756 1076,-756"/>
<text text-anchor="middle" x="1048.5" y="-735.5" font-family="sans" font-size="10.00" fill="#000000">generate_gtf</text>
</g>
<!-- 34&#45;&gt;28 -->
<g id="edge43" class="edge">
<title>34&#45;&gt;28</title>
<path fill="none" stroke="#c0c0c0" stroke-width="2" d="M1055.7563,-719.9843C1075.4491,-671.0919 1129.9906,-535.6785 1153.4921,-477.33"/>
<polygon fill="#c0c0c0" stroke="#c0c0c0" stroke-width="2" points="1156.7568,-478.5924 1157.2464,-468.0089 1150.2637,-475.9771 1156.7568,-478.5924"/>
</g>
<!-- 34&#45;&gt;33 -->
<g id="edge51" class="edge">
<title>34&#45;&gt;33</title>
<path fill="none" stroke="#c0c0c0" stroke-width="2" d="M1028.0603,-719.8314C1018.1795,-711.0485 1006.1676,-700.3712 995.455,-690.8489"/>
<polygon fill="#c0c0c0" stroke="#c0c0c0" stroke-width="2" points="997.7326,-688.1906 987.9332,-684.1628 993.082,-693.4224 997.7326,-688.1906"/>
</g>
<!-- 34&#45;&gt;37 -->
<g id="edge55" class="edge">
<title>34&#45;&gt;37</title>
<path fill="none" stroke="#c0c0c0" stroke-width="2" d="M1046.2203,-719.7623C1043.1501,-695.201 1037.6559,-651.2474 1034.0443,-622.3541"/>
<polygon fill="#c0c0c0" stroke="#c0c0c0" stroke-width="2" points="1037.4746,-621.5782 1032.7612,-612.0896 1030.5287,-622.4465 1037.4746,-621.5782"/>
</g>
<!-- 35&#45;&gt;29 -->
<g id="edge44" class="edge">
<title>35&#45;&gt;29</title>
<path fill="none" stroke="#c0c0c0" stroke-width="2" d="M1032.0984,-431.8314C1036.7877,-423.7925 1042.4028,-414.1666 1047.5798,-405.2918"/>
<polygon fill="#c0c0c0" stroke="#c0c0c0" stroke-width="2" points="1050.7434,-406.8146 1052.7589,-396.4133 1044.6969,-403.2875 1050.7434,-406.8146"/>
</g>
<!-- 36 -->
<g id="node37" class="node">
<title>36</title>
<path fill="none" stroke="#56b1d8" stroke-width="2" d="M866,-756C866,-756 831,-756 831,-756 825,-756 819,-750 819,-744 819,-744 819,-732 819,-732 819,-726 825,-720 831,-720 831,-720 866,-720 866,-720 872,-720 878,-726 878,-732 878,-732 878,-744 878,-744 878,-750 872,-756 866,-756"/>
<text text-anchor="middle" x="848.5" y="-735.5" font-family="sans" font-size="10.00" fill="#000000">cutadapt</text>
</g>
<!-- 36&#45;&gt;31 -->
<g id="edge48" class="edge">
<title>36&#45;&gt;31</title>
<path fill="none" stroke="#c0c0c0" stroke-width="2" d="M848.5,-719.8314C848.5,-712.131 848.5,-702.9743 848.5,-694.4166"/>
<polygon fill="#c0c0c0" stroke="#c0c0c0" stroke-width="2" points="852.0001,-694.4132 848.5,-684.4133 845.0001,-694.4133 852.0001,-694.4132"/>
</g>
<!-- 37&#45;&gt;35 -->
<g id="edge53" class="edge">
<title>37&#45;&gt;35</title>
<path fill="none" stroke="#c0c0c0" stroke-width="2" d="M1029.3601,-575.7623C1027.8251,-551.201 1025.078,-507.2474 1023.2721,-478.3541"/>
<polygon fill="#c0c0c0" stroke="#c0c0c0" stroke-width="2" points="1026.7477,-477.8518 1022.6306,-468.0896 1019.7613,-478.2885 1026.7477,-477.8518"/>
</g>
<!-- 38 -->
<g id="node39" class="node">
<title>38</title>
<path fill="none" stroke="#569ad8" stroke-width="2" d="M863.5,-828C863.5,-828 833.5,-828 833.5,-828 827.5,-828 821.5,-822 821.5,-816 821.5,-816 821.5,-804 821.5,-804 821.5,-798 827.5,-792 833.5,-792 833.5,-792 863.5,-792 863.5,-792 869.5,-792 875.5,-798 875.5,-804 875.5,-804 875.5,-816 875.5,-816 875.5,-822 869.5,-828 863.5,-828"/>
<text text-anchor="middle" x="848.5" y="-807.5" font-family="sans" font-size="10.00" fill="#000000">repair</text>
</g>
<!-- 38&#45;&gt;36 -->
<g id="edge54" class="edge">
<title>38&#45;&gt;36</title>
<path fill="none" stroke="#c0c0c0" stroke-width="2" d="M848.5,-791.8314C848.5,-784.131 848.5,-774.9743 848.5,-766.4166"/>
<polygon fill="#c0c0c0" stroke="#c0c0c0" stroke-width="2" points="852.0001,-766.4132 848.5,-756.4133 845.0001,-766.4133 852.0001,-766.4132"/>
</g>
</g>
</svg>
