<?xml version="1.0" encoding="UTF-8" standalone="no"?>
<!DOCTYPE svg PUBLIC "-//W3C//DTD SVG 1.1//EN"
 "http://www.w3.org/Graphics/SVG/1.1/DTD/svg11.dtd">
<!-- Generated by graphviz version 2.38.0 (20140413.2041)
 -->
<!-- Title: snakemake_dag Pages: 1 -->
<svg width="590pt" height="692pt"
 viewBox="0.00 0.00 590.00 692.00" xmlns="http://www.w3.org/2000/svg" xmlns:xlink="http://www.w3.org/1999/xlink">
<g id="graph0" class="graph" transform="scale(1 1) rotate(0) translate(4 688)">
<title>snakemake_dag</title>
<polygon fill="white" stroke="none" points="-4,4 -4,-688 586,-688 586,4 -4,4"/>
<!-- 0 -->
<g id="node1" class="node"><title>0</title>
<path fill="none" stroke="#56d8c1" stroke-width="2" d="M252.5,-36C252.5,-36 203.5,-36 203.5,-36 197.5,-36 191.5,-30 191.5,-24 191.5,-24 191.5,-12 191.5,-12 191.5,-6 197.5,-0 203.5,-0 203.5,-0 252.5,-0 252.5,-0 258.5,-0 264.5,-6 264.5,-12 264.5,-12 264.5,-24 264.5,-24 264.5,-30 258.5,-36 252.5,-36"/>
<text text-anchor="middle" x="228" y="-15.5" font-family="sans" font-size="10.00">deseq_expr</text>
</g>
<!-- 1 -->
<g id="node2" class="node"><title>1</title>
<path fill="none" stroke="#5682d8" stroke-width="2" d="M140,-36C140,-36 100,-36 100,-36 94,-36 88,-30 88,-24 88,-24 88,-12 88,-12 88,-6 94,-0 100,-0 100,-0 140,-0 140,-0 146,-0 152,-6 152,-12 152,-12 152,-24 152,-24 152,-30 146,-36 140,-36"/>
<text text-anchor="middle" x="120" y="-15.5" font-family="sans" font-size="10.00">deseq_tfs</text>
</g>
<!-- 2 -->
<g id="node3" class="node"><title>2</title>
<path fill="none" stroke="#56a9d8" stroke-width="2" d="M57.5,-36C57.5,-36 16.5,-36 16.5,-36 10.5,-36 4.5,-30 4.5,-24 4.5,-24 4.5,-12 4.5,-12 4.5,-6 10.5,-0 16.5,-0 16.5,-0 57.5,-0 57.5,-0 63.5,-0 69.5,-6 69.5,-12 69.5,-12 69.5,-24 69.5,-24 69.5,-30 63.5,-36 57.5,-36"/>
<text text-anchor="middle" x="37" y="-15.5" font-family="sans" font-size="10.00">mfuzz_tfs</text>
</g>
<!-- 3 -->
<g id="node4" class="node"><title>3</title>
<path fill="none" stroke="#afd856" stroke-width="2" d="M270.5,-108C270.5,-108 185.5,-108 185.5,-108 179.5,-108 173.5,-102 173.5,-96 173.5,-96 173.5,-84 173.5,-84 173.5,-78 179.5,-72 185.5,-72 185.5,-72 270.5,-72 270.5,-72 276.5,-72 282.5,-78 282.5,-84 282.5,-84 282.5,-96 282.5,-96 282.5,-102 276.5,-108 270.5,-108"/>
<text text-anchor="middle" x="228" y="-87.5" font-family="sans" font-size="10.00">filter_deseq_object</text>
</g>
<!-- 3&#45;&gt;0 -->
<g id="edge1" class="edge"><title>3&#45;&gt;0</title>
<path fill="none" stroke="grey" stroke-width="2" d="M228,-71.6966C228,-63.9827 228,-54.7125 228,-46.1124"/>
<polygon fill="grey" stroke="grey" stroke-width="2" points="231.5,-46.1043 228,-36.1043 224.5,-46.1044 231.5,-46.1043"/>
</g>
<!-- 4 -->
<g id="node5" class="node"><title>4</title>
<path fill="none" stroke="#56d8d8" stroke-width="2" d="M118.5,-108C118.5,-108 85.5,-108 85.5,-108 79.5,-108 73.5,-102 73.5,-96 73.5,-96 73.5,-84 73.5,-84 73.5,-78 79.5,-72 85.5,-72 85.5,-72 118.5,-72 118.5,-72 124.5,-72 130.5,-78 130.5,-84 130.5,-84 130.5,-96 130.5,-96 130.5,-102 124.5,-108 118.5,-108"/>
<text text-anchor="middle" x="102" y="-87.5" font-family="sans" font-size="10.00">filter_tfs</text>
</g>
<!-- 4&#45;&gt;1 -->
<g id="edge2" class="edge"><title>4&#45;&gt;1</title>
<path fill="none" stroke="grey" stroke-width="2" d="M106.449,-71.6966C108.455,-63.8979 110.869,-54.5085 113.101,-45.8292"/>
<polygon fill="grey" stroke="grey" stroke-width="2" points="116.501,-46.6609 115.602,-36.1043 109.722,-44.9176 116.501,-46.6609"/>
</g>
<!-- 4&#45;&gt;2 -->
<g id="edge3" class="edge"><title>4&#45;&gt;2</title>
<path fill="none" stroke="grey" stroke-width="2" d="M85.9326,-71.6966C78.0612,-63.2198 68.4447,-52.8636 59.8267,-43.5826"/>
<polygon fill="grey" stroke="grey" stroke-width="2" points="62.2519,-41.0507 52.8826,-36.1043 57.1224,-45.8139 62.2519,-41.0507"/>
</g>
<!-- 5 -->
<g id="node6" class="node"><title>5</title>
<path fill="none" stroke="#97d856" stroke-width="2" d="M62,-180C62,-180 12,-180 12,-180 6,-180 0,-174 0,-168 0,-168 0,-156 0,-156 0,-150 6,-144 12,-144 12,-144 62,-144 62,-144 68,-144 74,-150 74,-156 74,-156 74,-168 74,-168 74,-174 68,-180 62,-180"/>
<text text-anchor="middle" x="37" y="-159.5" font-family="sans" font-size="10.00">format_tfdb</text>
</g>
<!-- 5&#45;&gt;2 -->
<g id="edge4" class="edge"><title>5&#45;&gt;2</title>
<path fill="none" stroke="grey" stroke-width="2" d="M37,-143.871C37,-119.67 37,-75.2108 37,-46.3932"/>
<polygon fill="grey" stroke="grey" stroke-width="2" points="40.5001,-46.1892 37,-36.1893 33.5001,-46.1893 40.5001,-46.1892"/>
</g>
<!-- 5&#45;&gt;4 -->
<g id="edge9" class="edge"><title>5&#45;&gt;4</title>
<path fill="none" stroke="grey" stroke-width="2" d="M53.0674,-143.697C60.9388,-135.22 70.5553,-124.864 79.1733,-115.583"/>
<polygon fill="grey" stroke="grey" stroke-width="2" points="81.8776,-117.814 86.1174,-108.104 76.7481,-113.051 81.8776,-117.814"/>
</g>
<!-- 6 -->
<g id="node7" class="node"><title>6</title>
<path fill="none" stroke="#d89556" stroke-width="2" d="M172,-324C172,-324 66,-324 66,-324 60,-324 54,-318 54,-312 54,-312 54,-300 54,-300 54,-294 60,-288 66,-288 66,-288 172,-288 172,-288 178,-288 184,-294 184,-300 184,-300 184,-312 184,-312 184,-318 178,-324 172,-324"/>
<text text-anchor="middle" x="119" y="-303.5" font-family="sans" font-size="10.00">generate_deseq_object</text>
</g>
<!-- 6&#45;&gt;3 -->
<g id="edge5" class="edge"><title>6&#45;&gt;3</title>
<path fill="none" stroke="grey" stroke-width="2" d="M125.163,-287.992C136.319,-258.001 161.378,-194.143 190,-144 195.388,-134.56 202.079,-124.747 208.338,-116.168"/>
<polygon fill="grey" stroke="grey" stroke-width="2" points="211.213,-118.168 214.388,-108.06 205.603,-113.982 211.213,-118.168"/>
</g>
<!-- 6&#45;&gt;4 -->
<g id="edge7" class="edge"><title>6&#45;&gt;4</title>
<path fill="none" stroke="grey" stroke-width="2" d="M117.638,-287.849C114.697,-250.832 107.734,-163.181 104.176,-118.386"/>
<polygon fill="grey" stroke="grey" stroke-width="2" points="107.65,-117.924 103.369,-108.232 100.672,-118.478 107.65,-117.924"/>
</g>
<!-- 7 -->
<g id="node8" class="node"><title>7</title>
<path fill="none" stroke="#d6d856" stroke-width="2" d="M286.5,-180C286.5,-180 211.5,-180 211.5,-180 205.5,-180 199.5,-174 199.5,-168 199.5,-168 199.5,-156 199.5,-156 199.5,-150 205.5,-144 211.5,-144 211.5,-144 286.5,-144 286.5,-144 292.5,-144 298.5,-150 298.5,-156 298.5,-156 298.5,-168 298.5,-168 298.5,-174 292.5,-180 286.5,-180"/>
<text text-anchor="middle" x="249" y="-159.5" font-family="sans" font-size="10.00">calculate_cutoffs</text>
</g>
<!-- 6&#45;&gt;7 -->
<g id="edge12" class="edge"><title>6&#45;&gt;7</title>
<path fill="none" stroke="grey" stroke-width="2" d="M133.672,-287.685C149.144,-269.562 174.367,-240.404 197,-216 205.765,-206.548 215.617,-196.394 224.37,-187.527"/>
<polygon fill="grey" stroke="grey" stroke-width="2" points="226.856,-189.99 231.415,-180.426 221.887,-185.06 226.856,-189.99"/>
</g>
<!-- 11 -->
<g id="node12" class="node"><title>11</title>
<path fill="none" stroke="#566bd8" stroke-width="2" d="M280,-252C280,-252 218,-252 218,-252 212,-252 206,-246 206,-240 206,-240 206,-228 206,-228 206,-222 212,-216 218,-216 218,-216 280,-216 280,-216 286,-216 292,-222 292,-228 292,-228 292,-240 292,-240 292,-246 286,-252 280,-252"/>
<text text-anchor="middle" x="249" y="-231.5" font-family="sans" font-size="10.00">calculate_tpm</text>
</g>
<!-- 6&#45;&gt;11 -->
<g id="edge21" class="edge"><title>6&#45;&gt;11</title>
<path fill="none" stroke="grey" stroke-width="2" d="M150.802,-287.876C168.114,-278.554 189.721,-266.919 208.256,-256.939"/>
<polygon fill="grey" stroke="grey" stroke-width="2" points="209.931,-260.012 217.076,-252.19 206.612,-253.849 209.931,-260.012"/>
</g>
<!-- 7&#45;&gt;3 -->
<g id="edge6" class="edge"><title>7&#45;&gt;3</title>
<path fill="none" stroke="grey" stroke-width="2" d="M243.809,-143.697C241.469,-135.898 238.653,-126.509 236.049,-117.829"/>
<polygon fill="grey" stroke="grey" stroke-width="2" points="239.357,-116.677 233.131,-108.104 232.652,-118.688 239.357,-116.677"/>
</g>
<!-- 7&#45;&gt;4 -->
<g id="edge8" class="edge"><title>7&#45;&gt;4</title>
<path fill="none" stroke="grey" stroke-width="2" d="M213.04,-143.876C190.876,-133.322 162.488,-119.804 139.963,-109.078"/>
<polygon fill="grey" stroke="grey" stroke-width="2" points="141.238,-105.808 130.704,-104.669 138.228,-112.128 141.238,-105.808"/>
</g>
<!-- 8 -->
<g id="node9" class="node"><title>8</title>
<path fill="none" stroke="#59d856" stroke-width="2" d="M286.5,-396C286.5,-396 211.5,-396 211.5,-396 205.5,-396 199.5,-390 199.5,-384 199.5,-384 199.5,-372 199.5,-372 199.5,-366 205.5,-360 211.5,-360 211.5,-360 286.5,-360 286.5,-360 292.5,-360 298.5,-366 298.5,-372 298.5,-372 298.5,-384 298.5,-384 298.5,-390 292.5,-396 286.5,-396"/>
<text text-anchor="middle" x="249" y="-375.5" font-family="sans" font-size="10.00">second_mapping</text>
</g>
<!-- 8&#45;&gt;6 -->
<g id="edge10" class="edge"><title>8&#45;&gt;6</title>
<path fill="none" stroke="grey" stroke-width="2" d="M217.198,-359.876C199.886,-350.554 178.279,-338.919 159.744,-328.939"/>
<polygon fill="grey" stroke="grey" stroke-width="2" points="161.388,-325.849 150.924,-324.19 158.069,-332.012 161.388,-325.849"/>
</g>
<!-- 9 -->
<g id="node10" class="node"><title>9</title>
<path fill="none" stroke="#56c1d8" stroke-width="2" d="M283.5,-324C283.5,-324 214.5,-324 214.5,-324 208.5,-324 202.5,-318 202.5,-312 202.5,-312 202.5,-300 202.5,-300 202.5,-294 208.5,-288 214.5,-288 214.5,-288 283.5,-288 283.5,-288 289.5,-288 295.5,-294 295.5,-300 295.5,-300 295.5,-312 295.5,-312 295.5,-318 289.5,-324 283.5,-324"/>
<text text-anchor="middle" x="249" y="-303.5" font-family="sans" font-size="10.00">parse_star_logs</text>
</g>
<!-- 8&#45;&gt;9 -->
<g id="edge19" class="edge"><title>8&#45;&gt;9</title>
<path fill="none" stroke="grey" stroke-width="2" d="M249,-359.697C249,-351.983 249,-342.712 249,-334.112"/>
<polygon fill="grey" stroke="grey" stroke-width="2" points="252.5,-334.104 249,-324.104 245.5,-334.104 252.5,-334.104"/>
</g>
<!-- 17 -->
<g id="node18" class="node"><title>17</title>
<path fill="none" stroke="#c6d856" stroke-width="2" d="M569,-324C569,-324 487,-324 487,-324 481,-324 475,-318 475,-312 475,-312 475,-300 475,-300 475,-294 481,-288 487,-288 487,-288 569,-288 569,-288 575,-288 581,-294 581,-300 581,-300 581,-312 581,-312 581,-318 575,-324 569,-324"/>
<text text-anchor="middle" x="528" y="-303.5" font-family="sans" font-size="10.00">count_background</text>
</g>
<!-- 8&#45;&gt;17 -->
<g id="edge29" class="edge"><title>8&#45;&gt;17</title>
<path fill="none" stroke="grey" stroke-width="2" d="M298.841,-365.114C342.672,-354.579 408.164,-338.639 465,-324 465.099,-323.974 465.199,-323.949 465.299,-323.923"/>
<polygon fill="grey" stroke="grey" stroke-width="2" points="465.952,-327.37 474.747,-321.462 464.187,-320.596 465.952,-327.37"/>
</g>
<!-- 9&#45;&gt;7 -->
<g id="edge13" class="edge"><title>9&#45;&gt;7</title>
<path fill="none" stroke="grey" stroke-width="2" d="M272.752,-287.91C283.553,-278.651 295.197,-266.2 301,-252 307.052,-237.189 307.052,-230.811 301,-216 296.512,-205.017 288.53,-195.081 280.146,-186.858"/>
<polygon fill="grey" stroke="grey" stroke-width="2" points="282.492,-184.261 272.752,-180.09 277.765,-189.424 282.492,-184.261"/>
</g>
<!-- 9&#45;&gt;11 -->
<g id="edge22" class="edge"><title>9&#45;&gt;11</title>
<path fill="none" stroke="grey" stroke-width="2" d="M249,-287.697C249,-279.983 249,-270.712 249,-262.112"/>
<polygon fill="grey" stroke="grey" stroke-width="2" points="252.5,-262.104 249,-252.104 245.5,-262.104 252.5,-262.104"/>
</g>
<!-- 10 -->
<g id="node11" class="node"><title>10</title>
<path fill="none" stroke="#569ad8" stroke-width="2" d="M444.5,-324C444.5,-324 325.5,-324 325.5,-324 319.5,-324 313.5,-318 313.5,-312 313.5,-312 313.5,-300 313.5,-300 313.5,-294 319.5,-288 325.5,-288 325.5,-288 444.5,-288 444.5,-288 450.5,-288 456.5,-294 456.5,-300 456.5,-300 456.5,-312 456.5,-312 456.5,-318 450.5,-324 444.5,-324"/>
<text text-anchor="middle" x="385" y="-303.5" font-family="sans" font-size="10.00">calculate_feature_lengths</text>
</g>
<!-- 10&#45;&gt;7 -->
<g id="edge14" class="edge"><title>10&#45;&gt;7</title>
<path fill="none" stroke="grey" stroke-width="2" d="M374.133,-287.853C361.797,-269.092 340.455,-238.674 318,-216 307.394,-205.291 294.574,-194.878 282.876,-186.158"/>
<polygon fill="grey" stroke="grey" stroke-width="2" points="284.747,-183.19 274.604,-180.127 280.623,-188.846 284.747,-183.19"/>
</g>
<!-- 10&#45;&gt;11 -->
<g id="edge23" class="edge"><title>10&#45;&gt;11</title>
<path fill="none" stroke="grey" stroke-width="2" d="M351.731,-287.876C333.537,-278.512 310.809,-266.814 291.36,-256.803"/>
<polygon fill="grey" stroke="grey" stroke-width="2" points="292.89,-253.654 282.397,-252.19 289.687,-259.878 292.89,-253.654"/>
</g>
<!-- 11&#45;&gt;7 -->
<g id="edge15" class="edge"><title>11&#45;&gt;7</title>
<path fill="none" stroke="grey" stroke-width="2" d="M249,-215.697C249,-207.983 249,-198.712 249,-190.112"/>
<polygon fill="grey" stroke="grey" stroke-width="2" points="252.5,-190.104 249,-180.104 245.5,-190.104 252.5,-190.104"/>
</g>
<!-- 12 -->
<g id="node13" class="node"><title>12</title>
<path fill="none" stroke="#d86e56" stroke-width="2" d="M570,-252C570,-252 436,-252 436,-252 430,-252 424,-246 424,-240 424,-240 424,-228 424,-228 424,-222 430,-216 436,-216 436,-216 570,-216 570,-216 576,-216 582,-222 582,-228 582,-228 582,-240 582,-240 582,-246 576,-252 570,-252"/>
<text text-anchor="middle" x="503" y="-231.5" font-family="sans" font-size="10.00">combine_background_counts</text>
</g>
<!-- 12&#45;&gt;7 -->
<g id="edge11" class="edge"><title>12&#45;&gt;7</title>
<path fill="none" stroke="grey" stroke-width="2" d="M441.189,-215.966C400.848,-204.848 348.467,-190.412 308.581,-179.42"/>
<polygon fill="grey" stroke="grey" stroke-width="2" points="309.295,-175.986 298.724,-176.704 307.435,-182.735 309.295,-175.986"/>
</g>
<!-- 13 -->
<g id="node14" class="node"><title>13</title>
<path fill="none" stroke="#d85656" stroke-width="2" d="M278.5,-468C278.5,-468 219.5,-468 219.5,-468 213.5,-468 207.5,-462 207.5,-456 207.5,-456 207.5,-444 207.5,-444 207.5,-438 213.5,-432 219.5,-432 219.5,-432 278.5,-432 278.5,-432 284.5,-432 290.5,-438 290.5,-444 290.5,-444 290.5,-456 290.5,-456 290.5,-462 284.5,-468 278.5,-468"/>
<text text-anchor="middle" x="249" y="-447.5" font-family="sans" font-size="10.00">first_mapping</text>
</g>
<!-- 13&#45;&gt;8 -->
<g id="edge18" class="edge"><title>13&#45;&gt;8</title>
<path fill="none" stroke="grey" stroke-width="2" d="M249,-431.697C249,-423.983 249,-414.712 249,-406.112"/>
<polygon fill="grey" stroke="grey" stroke-width="2" points="252.5,-406.104 249,-396.104 245.5,-406.104 252.5,-406.104"/>
</g>
<!-- 14 -->
<g id="node15" class="node"><title>14</title>
<path fill="none" stroke="#56d882" stroke-width="2" d="M207,-540C207,-540 177,-540 177,-540 171,-540 165,-534 165,-528 165,-528 165,-516 165,-516 165,-510 171,-504 177,-504 177,-504 207,-504 207,-504 213,-504 219,-510 219,-516 219,-516 219,-528 219,-528 219,-534 213,-540 207,-540"/>
<text text-anchor="middle" x="192" y="-519.5" font-family="sans" font-size="10.00">gzip</text>
</g>
<!-- 14&#45;&gt;8 -->
<g id="edge17" class="edge"><title>14&#45;&gt;8</title>
<path fill="none" stroke="grey" stroke-width="2" d="M189.785,-503.777C188.148,-485.218 187.719,-455.224 198,-432 202.749,-421.272 210.658,-411.418 218.847,-403.192"/>
<polygon fill="grey" stroke="grey" stroke-width="2" points="221.481,-405.52 226.364,-396.117 216.683,-400.422 221.481,-405.52"/>
</g>
<!-- 14&#45;&gt;13 -->
<g id="edge26" class="edge"><title>14&#45;&gt;13</title>
<path fill="none" stroke="grey" stroke-width="2" d="M206.09,-503.697C212.923,-495.305 221.257,-485.07 228.756,-475.861"/>
<polygon fill="grey" stroke="grey" stroke-width="2" points="231.472,-478.069 235.072,-468.104 226.044,-473.649 231.472,-478.069"/>
</g>
<!-- 15 -->
<g id="node16" class="node"><title>15</title>
<path fill="none" stroke="#68d856" stroke-width="2" d="M351.5,-540C351.5,-540 270.5,-540 270.5,-540 264.5,-540 258.5,-534 258.5,-528 258.5,-528 258.5,-516 258.5,-516 258.5,-510 264.5,-504 270.5,-504 270.5,-504 351.5,-504 351.5,-504 357.5,-504 363.5,-510 363.5,-516 363.5,-516 363.5,-528 363.5,-528 363.5,-534 357.5,-540 351.5,-540"/>
<text text-anchor="middle" x="311" y="-519.5" font-family="sans" font-size="10.00">generate_genome</text>
</g>
<!-- 15&#45;&gt;8 -->
<g id="edge16" class="edge"><title>15&#45;&gt;8</title>
<path fill="none" stroke="grey" stroke-width="2" d="M311.73,-503.72C311.838,-485.113 310.01,-455.078 299,-432 293.954,-421.423 286.012,-411.561 277.931,-403.281"/>
<polygon fill="grey" stroke="grey" stroke-width="2" points="280.173,-400.58 270.55,-396.146 275.308,-405.613 280.173,-400.58"/>
</g>
<!-- 15&#45;&gt;13 -->
<g id="edge25" class="edge"><title>15&#45;&gt;13</title>
<path fill="none" stroke="grey" stroke-width="2" d="M295.674,-503.697C288.241,-495.305 279.177,-485.07 271.02,-475.861"/>
<polygon fill="grey" stroke="grey" stroke-width="2" points="273.4,-473.27 264.15,-468.104 268.16,-477.911 273.4,-473.27"/>
</g>
<!-- 19 -->
<g id="node20" class="node"><title>19</title>
<path fill="none" stroke="#56d89a" stroke-width="2" d="M476,-468C476,-468 432,-468 432,-468 426,-468 420,-462 420,-456 420,-456 420,-444 420,-444 420,-438 426,-432 432,-432 432,-432 476,-432 476,-432 482,-432 488,-438 488,-444 488,-444 488,-456 488,-456 488,-462 482,-468 476,-468"/>
<text text-anchor="middle" x="454" y="-447.5" font-family="sans" font-size="10.00">shuffle_gtf</text>
</g>
<!-- 15&#45;&gt;19 -->
<g id="edge32" class="edge"><title>15&#45;&gt;19</title>
<path fill="none" stroke="grey" stroke-width="2" d="M345.982,-503.876C365.485,-494.329 389.944,-482.356 410.653,-472.219"/>
<polygon fill="grey" stroke="grey" stroke-width="2" points="412.43,-475.246 419.873,-467.706 409.352,-468.959 412.43,-475.246"/>
</g>
<!-- 16 -->
<g id="node17" class="node"><title>16</title>
<path fill="none" stroke="#56d8a9" stroke-width="2" d="M419.5,-612C419.5,-612 364.5,-612 364.5,-612 358.5,-612 352.5,-606 352.5,-600 352.5,-600 352.5,-588 352.5,-588 352.5,-582 358.5,-576 364.5,-576 364.5,-576 419.5,-576 419.5,-576 425.5,-576 431.5,-582 431.5,-588 431.5,-588 431.5,-600 431.5,-600 431.5,-606 425.5,-612 419.5,-612"/>
<text text-anchor="middle" x="392" y="-591.5" font-family="sans" font-size="10.00">generate_gtf</text>
</g>
<!-- 16&#45;&gt;10 -->
<g id="edge20" class="edge"><title>16&#45;&gt;10</title>
<path fill="none" stroke="grey" stroke-width="2" d="M391.583,-575.966C390.416,-528.291 387.109,-393.185 385.676,-334.63"/>
<polygon fill="grey" stroke="grey" stroke-width="2" points="389.167,-334.218 385.424,-324.306 382.169,-334.389 389.167,-334.218"/>
</g>
<!-- 16&#45;&gt;15 -->
<g id="edge28" class="edge"><title>16&#45;&gt;15</title>
<path fill="none" stroke="grey" stroke-width="2" d="M371.978,-575.697C361.874,-566.965 349.464,-556.24 338.482,-546.75"/>
<polygon fill="grey" stroke="grey" stroke-width="2" points="340.647,-543.995 330.792,-540.104 336.07,-549.291 340.647,-543.995"/>
</g>
<!-- 16&#45;&gt;19 -->
<g id="edge33" class="edge"><title>16&#45;&gt;19</title>
<path fill="none" stroke="grey" stroke-width="2" d="M399.479,-575.871C410.138,-551.457 429.8,-506.426 442.371,-477.635"/>
<polygon fill="grey" stroke="grey" stroke-width="2" points="445.701,-478.754 446.495,-468.189 439.286,-475.953 445.701,-478.754"/>
</g>
<!-- 17&#45;&gt;12 -->
<g id="edge24" class="edge"><title>17&#45;&gt;12</title>
<path fill="none" stroke="grey" stroke-width="2" d="M521.82,-287.697C519.005,-279.813 515.609,-270.304 512.481,-261.546"/>
<polygon fill="grey" stroke="grey" stroke-width="2" points="515.768,-260.345 509.109,-252.104 509.176,-262.699 515.768,-260.345"/>
</g>
<!-- 18 -->
<g id="node19" class="node"><title>18</title>
<path fill="none" stroke="#56d86b" stroke-width="2" d="M209.5,-612C209.5,-612 174.5,-612 174.5,-612 168.5,-612 162.5,-606 162.5,-600 162.5,-600 162.5,-588 162.5,-588 162.5,-582 168.5,-576 174.5,-576 174.5,-576 209.5,-576 209.5,-576 215.5,-576 221.5,-582 221.5,-588 221.5,-588 221.5,-600 221.5,-600 221.5,-606 215.5,-612 209.5,-612"/>
<text text-anchor="middle" x="192" y="-591.5" font-family="sans" font-size="10.00">cutadapt</text>
</g>
<!-- 18&#45;&gt;14 -->
<g id="edge27" class="edge"><title>18&#45;&gt;14</title>
<path fill="none" stroke="grey" stroke-width="2" d="M192,-575.697C192,-567.983 192,-558.712 192,-550.112"/>
<polygon fill="grey" stroke="grey" stroke-width="2" points="195.5,-550.104 192,-540.104 188.5,-550.104 195.5,-550.104"/>
</g>
<!-- 19&#45;&gt;17 -->
<g id="edge30" class="edge"><title>19&#45;&gt;17</title>
<path fill="none" stroke="grey" stroke-width="2" d="M462.926,-431.871C475.705,-407.35 499.321,-362.032 514.316,-333.259"/>
<polygon fill="grey" stroke="grey" stroke-width="2" points="517.525,-334.675 519.042,-324.189 511.317,-331.44 517.525,-334.675"/>
</g>
<!-- 20 -->
<g id="node21" class="node"><title>20</title>
<path fill="none" stroke="#d88556" stroke-width="2" d="M207,-684C207,-684 177,-684 177,-684 171,-684 165,-678 165,-672 165,-672 165,-660 165,-660 165,-654 171,-648 177,-648 177,-648 207,-648 207,-648 213,-648 219,-654 219,-660 219,-660 219,-672 219,-672 219,-678 213,-684 207,-684"/>
<text text-anchor="middle" x="192" y="-663.5" font-family="sans" font-size="10.00">repair</text>
</g>
<!-- 20&#45;&gt;18 -->
<g id="edge31" class="edge"><title>20&#45;&gt;18</title>
<path fill="none" stroke="grey" stroke-width="2" d="M192,-647.697C192,-639.983 192,-630.712 192,-622.112"/>
<polygon fill="grey" stroke="grey" stroke-width="2" points="195.5,-622.104 192,-612.104 188.5,-622.104 195.5,-622.104"/>
</g>
</g>
</svg>
