<?xml version="1.0" encoding="UTF-8" standalone="no"?>
<!DOCTYPE svg PUBLIC "-//W3C//DTD SVG 1.1//EN"
 "http://www.w3.org/Graphics/SVG/1.1/DTD/svg11.dtd">
<!-- Generated by graphviz version 2.38.0 (20140413.2041)
 -->
<!-- Title: snakemake_dag Pages: 1 -->
<svg width="562pt" height="692pt"
 viewBox="0.00 0.00 561.50 692.00" xmlns="http://www.w3.org/2000/svg" xmlns:xlink="http://www.w3.org/1999/xlink">
<g id="graph0" class="graph" transform="scale(1 1) rotate(0) translate(4 688)">
<title>snakemake_dag</title>
<polygon fill="white" stroke="none" points="-4,4 -4,-688 557.5,-688 557.5,4 -4,4"/>
<!-- 0 -->
<g id="node1" class="node"><title>0</title>
<path fill="none" stroke="#bed856" stroke-width="2" d="M212.5,-36C212.5,-36 172.5,-36 172.5,-36 166.5,-36 160.5,-30 160.5,-24 160.5,-24 160.5,-12 160.5,-12 160.5,-6 166.5,-0 172.5,-0 172.5,-0 212.5,-0 212.5,-0 218.5,-0 224.5,-6 224.5,-12 224.5,-12 224.5,-24 224.5,-24 224.5,-30 218.5,-36 212.5,-36"/>
<text text-anchor="middle" x="192.5" y="-15.5" font-family="sans" font-size="10.00">deseq_tfs</text>
</g>
<!-- 1 -->
<g id="node2" class="node"><title>1</title>
<path fill="none" stroke="#78d856" stroke-width="2" d="M294.5,-36C294.5,-36 254.5,-36 254.5,-36 248.5,-36 242.5,-30 242.5,-24 242.5,-24 242.5,-12 242.5,-12 242.5,-6 248.5,-0 254.5,-0 254.5,-0 294.5,-0 294.5,-0 300.5,-0 306.5,-6 306.5,-12 306.5,-12 306.5,-24 306.5,-24 306.5,-30 300.5,-36 294.5,-36"/>
<text text-anchor="middle" x="274.5" y="-15.5" font-family="sans" font-size="10.00">mfuzz_all</text>
</g>
<!-- 2 -->
<g id="node3" class="node"><title>2</title>
<path fill="none" stroke="#d8c356" stroke-width="2" d="M130,-36C130,-36 89,-36 89,-36 83,-36 77,-30 77,-24 77,-24 77,-12 77,-12 77,-6 83,-0 89,-0 89,-0 130,-0 130,-0 136,-0 142,-6 142,-12 142,-12 142,-24 142,-24 142,-30 136,-36 130,-36"/>
<text text-anchor="middle" x="109.5" y="-15.5" font-family="sans" font-size="10.00">mfuzz_tfs</text>
</g>
<!-- 3 -->
<g id="node4" class="node"><title>3</title>
<path fill="none" stroke="#56d8b9" stroke-width="2" d="M376,-36C376,-36 337,-36 337,-36 331,-36 325,-30 325,-24 325,-24 325,-12 325,-12 325,-6 331,-0 337,-0 337,-0 376,-0 376,-0 382,-0 388,-6 388,-12 388,-12 388,-24 388,-24 388,-30 382,-36 376,-36"/>
<text text-anchor="middle" x="356.5" y="-15.5" font-family="sans" font-size="10.00">deseq_all</text>
</g>
<!-- 4 -->
<g id="node5" class="node"><title>4</title>
<path fill="none" stroke="#a7d856" stroke-width="2" d="M201,-108C201,-108 168,-108 168,-108 162,-108 156,-102 156,-96 156,-96 156,-84 156,-84 156,-78 162,-72 168,-72 168,-72 201,-72 201,-72 207,-72 213,-78 213,-84 213,-84 213,-96 213,-96 213,-102 207,-108 201,-108"/>
<text text-anchor="middle" x="184.5" y="-87.5" font-family="sans" font-size="10.00">filter_tfs</text>
</g>
<!-- 4&#45;&gt;0 -->
<g id="edge1" class="edge"><title>4&#45;&gt;0</title>
<path fill="none" stroke="grey" stroke-width="2" d="M186.478,-71.6966C187.359,-63.9827 188.419,-54.7125 189.401,-46.1124"/>
<polygon fill="grey" stroke="grey" stroke-width="2" points="192.887,-46.4371 190.545,-36.1043 185.932,-45.6422 192.887,-46.4371"/>
</g>
<!-- 4&#45;&gt;2 -->
<g id="edge4" class="edge"><title>4&#45;&gt;2</title>
<path fill="none" stroke="grey" stroke-width="2" d="M165.961,-71.6966C156.697,-63.0503 145.338,-52.4486 135.243,-43.027"/>
<polygon fill="grey" stroke="grey" stroke-width="2" points="137.525,-40.3688 127.826,-36.1043 132.749,-45.4863 137.525,-40.3688"/>
</g>
<!-- 5 -->
<g id="node6" class="node"><title>5</title>
<path fill="none" stroke="#56d8d0" stroke-width="2" d="M394,-108C394,-108 309,-108 309,-108 303,-108 297,-102 297,-96 297,-96 297,-84 297,-84 297,-78 303,-72 309,-72 309,-72 394,-72 394,-72 400,-72 406,-78 406,-84 406,-84 406,-96 406,-96 406,-102 400,-108 394,-108"/>
<text text-anchor="middle" x="351.5" y="-87.5" font-family="sans" font-size="10.00">filter_deseq_object</text>
</g>
<!-- 5&#45;&gt;1 -->
<g id="edge2" class="edge"><title>5&#45;&gt;1</title>
<path fill="none" stroke="grey" stroke-width="2" d="M332.466,-71.6966C322.955,-63.0503 311.293,-52.4486 300.93,-43.027"/>
<polygon fill="grey" stroke="grey" stroke-width="2" points="303.069,-40.2413 293.315,-36.1043 298.36,-45.4209 303.069,-40.2413"/>
</g>
<!-- 5&#45;&gt;3 -->
<g id="edge6" class="edge"><title>5&#45;&gt;3</title>
<path fill="none" stroke="grey" stroke-width="2" d="M352.736,-71.6966C353.287,-63.9827 353.949,-54.7125 354.563,-46.1124"/>
<polygon fill="grey" stroke="grey" stroke-width="2" points="358.057,-46.3283 355.278,-36.1043 351.075,-45.8295 358.057,-46.3283"/>
</g>
<!-- 6 -->
<g id="node7" class="node"><title>6</title>
<path fill="none" stroke="#d88556" stroke-width="2" d="M209.5,-180C209.5,-180 159.5,-180 159.5,-180 153.5,-180 147.5,-174 147.5,-168 147.5,-168 147.5,-156 147.5,-156 147.5,-150 153.5,-144 159.5,-144 159.5,-144 209.5,-144 209.5,-144 215.5,-144 221.5,-150 221.5,-156 221.5,-156 221.5,-168 221.5,-168 221.5,-174 215.5,-180 209.5,-180"/>
<text text-anchor="middle" x="184.5" y="-159.5" font-family="sans" font-size="10.00">format_tfdb</text>
</g>
<!-- 6&#45;&gt;1 -->
<g id="edge3" class="edge"><title>6&#45;&gt;1</title>
<path fill="none" stroke="grey" stroke-width="2" d="M197.157,-143.551C204.459,-133.317 213.709,-120.067 221.5,-108 234.956,-87.1574 249.301,-62.9333 259.668,-45.0246"/>
<polygon fill="grey" stroke="grey" stroke-width="2" points="262.743,-46.6988 264.702,-36.2866 256.677,-43.2047 262.743,-46.6988"/>
</g>
<!-- 6&#45;&gt;2 -->
<g id="edge5" class="edge"><title>6&#45;&gt;2</title>
<path fill="none" stroke="grey" stroke-width="2" d="M170.787,-143.997C163.05,-133.912 153.55,-120.662 146.5,-108 135.357,-87.9857 125.551,-63.9268 118.839,-45.872"/>
<polygon fill="grey" stroke="grey" stroke-width="2" points="122.053,-44.4708 115.348,-36.2678 115.474,-46.8619 122.053,-44.4708"/>
</g>
<!-- 6&#45;&gt;4 -->
<g id="edge9" class="edge"><title>6&#45;&gt;4</title>
<path fill="none" stroke="grey" stroke-width="2" d="M184.5,-143.697C184.5,-135.983 184.5,-126.712 184.5,-118.112"/>
<polygon fill="grey" stroke="grey" stroke-width="2" points="188,-118.104 184.5,-108.104 181,-118.104 188,-118.104"/>
</g>
<!-- 7 -->
<g id="node8" class="node"><title>7</title>
<path fill="none" stroke="#56c9d8" stroke-width="2" d="M327,-180C327,-180 252,-180 252,-180 246,-180 240,-174 240,-168 240,-168 240,-156 240,-156 240,-150 246,-144 252,-144 252,-144 327,-144 327,-144 333,-144 339,-150 339,-156 339,-156 339,-168 339,-168 339,-174 333,-180 327,-180"/>
<text text-anchor="middle" x="289.5" y="-159.5" font-family="sans" font-size="10.00">calculate_cutoffs</text>
</g>
<!-- 7&#45;&gt;4 -->
<g id="edge8" class="edge"><title>7&#45;&gt;4</title>
<path fill="none" stroke="grey" stroke-width="2" d="M263.814,-143.876C250.212,-134.808 233.328,-123.552 218.639,-113.759"/>
<polygon fill="grey" stroke="grey" stroke-width="2" points="220.547,-110.825 210.285,-108.19 216.664,-116.649 220.547,-110.825"/>
</g>
<!-- 7&#45;&gt;5 -->
<g id="edge11" class="edge"><title>7&#45;&gt;5</title>
<path fill="none" stroke="grey" stroke-width="2" d="M304.826,-143.697C312.259,-135.305 321.323,-125.07 329.48,-115.861"/>
<polygon fill="grey" stroke="grey" stroke-width="2" points="332.34,-117.911 336.35,-108.104 327.1,-113.27 332.34,-117.911"/>
</g>
<!-- 8 -->
<g id="node9" class="node"><title>8</title>
<path fill="none" stroke="#566bd8" stroke-width="2" d="M279.5,-324C279.5,-324 173.5,-324 173.5,-324 167.5,-324 161.5,-318 161.5,-312 161.5,-312 161.5,-300 161.5,-300 161.5,-294 167.5,-288 173.5,-288 173.5,-288 279.5,-288 279.5,-288 285.5,-288 291.5,-294 291.5,-300 291.5,-300 291.5,-312 291.5,-312 291.5,-318 285.5,-324 279.5,-324"/>
<text text-anchor="middle" x="226.5" y="-303.5" font-family="sans" font-size="10.00">generate_deseq_object</text>
</g>
<!-- 8&#45;&gt;4 -->
<g id="edge7" class="edge"><title>8&#45;&gt;4</title>
<path fill="none" stroke="grey" stroke-width="2" d="M209.119,-287.905C187.677,-265.468 152.362,-223.771 138.5,-180 133.669,-164.747 132.903,-158.989 138.5,-144 142.376,-133.621 149.303,-123.927 156.624,-115.743"/>
<polygon fill="grey" stroke="grey" stroke-width="2" points="159.284,-118.026 163.677,-108.385 154.231,-113.182 159.284,-118.026"/>
</g>
<!-- 8&#45;&gt;5 -->
<g id="edge10" class="edge"><title>8&#45;&gt;5</title>
<path fill="none" stroke="grey" stroke-width="2" d="M262.69,-287.788C278.799,-278.807 297.11,-266.626 310.5,-252 334.794,-225.463 338.258,-214.771 347.5,-180 352.889,-159.727 353.69,-135.956 353.253,-118.083"/>
<polygon fill="grey" stroke="grey" stroke-width="2" points="356.749,-117.913 352.864,-108.056 349.754,-118.184 356.749,-117.913"/>
</g>
<!-- 8&#45;&gt;7 -->
<g id="edge16" class="edge"><title>8&#45;&gt;7</title>
<path fill="none" stroke="grey" stroke-width="2" d="M215.955,-287.944C205.882,-269.264 193.944,-238.916 206.5,-216 213.441,-203.332 224.842,-193.252 237.003,-185.433"/>
<polygon fill="grey" stroke="grey" stroke-width="2" points="239.122,-188.245 245.939,-180.134 235.552,-182.224 239.122,-188.245"/>
</g>
<!-- 11 -->
<g id="node12" class="node"><title>11</title>
<path fill="none" stroke="#d89c56" stroke-width="2" d="M289.5,-252C289.5,-252 227.5,-252 227.5,-252 221.5,-252 215.5,-246 215.5,-240 215.5,-240 215.5,-228 215.5,-228 215.5,-222 221.5,-216 227.5,-216 227.5,-216 289.5,-216 289.5,-216 295.5,-216 301.5,-222 301.5,-228 301.5,-228 301.5,-240 301.5,-240 301.5,-246 295.5,-252 289.5,-252"/>
<text text-anchor="middle" x="258.5" y="-231.5" font-family="sans" font-size="10.00">calculate_tpm</text>
</g>
<!-- 8&#45;&gt;11 -->
<g id="edge20" class="edge"><title>8&#45;&gt;11</title>
<path fill="none" stroke="grey" stroke-width="2" d="M234.41,-287.697C238.053,-279.728 242.454,-270.1 246.494,-261.264"/>
<polygon fill="grey" stroke="grey" stroke-width="2" points="249.706,-262.654 250.681,-252.104 243.34,-259.744 249.706,-262.654"/>
</g>
<!-- 9 -->
<g id="node10" class="node"><title>9</title>
<path fill="none" stroke="#56d8a2" stroke-width="2" d="M541.5,-252C541.5,-252 407.5,-252 407.5,-252 401.5,-252 395.5,-246 395.5,-240 395.5,-240 395.5,-228 395.5,-228 395.5,-222 401.5,-216 407.5,-216 407.5,-216 541.5,-216 541.5,-216 547.5,-216 553.5,-222 553.5,-228 553.5,-228 553.5,-240 553.5,-240 553.5,-246 547.5,-252 541.5,-252"/>
<text text-anchor="middle" x="474.5" y="-231.5" font-family="sans" font-size="10.00">combine_background_counts</text>
</g>
<!-- 9&#45;&gt;7 -->
<g id="edge14" class="edge"><title>9&#45;&gt;7</title>
<path fill="none" stroke="grey" stroke-width="2" d="M429.244,-215.876C403.504,-206.137 371.092,-193.872 343.964,-183.608"/>
<polygon fill="grey" stroke="grey" stroke-width="2" points="345.201,-180.334 334.609,-180.068 342.723,-186.881 345.201,-180.334"/>
</g>
<!-- 10 -->
<g id="node11" class="node"><title>10</title>
<path fill="none" stroke="#d85656" stroke-width="2" d="M131,-324C131,-324 12,-324 12,-324 6,-324 0,-318 0,-312 0,-312 0,-300 0,-300 0,-294 6,-288 12,-288 12,-288 131,-288 131,-288 137,-288 143,-294 143,-300 143,-300 143,-312 143,-312 143,-318 137,-324 131,-324"/>
<text text-anchor="middle" x="71.5" y="-303.5" font-family="sans" font-size="10.00">calculate_feature_lengths</text>
</g>
<!-- 10&#45;&gt;7 -->
<g id="edge12" class="edge"><title>10&#45;&gt;7</title>
<path fill="none" stroke="grey" stroke-width="2" d="M94.2846,-287.945C119.191,-269.53 160.494,-239.658 197.5,-216 214.142,-205.361 232.971,-194.342 249.241,-185.126"/>
<polygon fill="grey" stroke="grey" stroke-width="2" points="250.987,-188.159 257.986,-180.205 247.554,-182.059 250.987,-188.159"/>
</g>
<!-- 10&#45;&gt;11 -->
<g id="edge21" class="edge"><title>10&#45;&gt;11</title>
<path fill="none" stroke="grey" stroke-width="2" d="M117.245,-287.876C144.038,-277.847 177.981,-265.141 205.879,-254.698"/>
<polygon fill="grey" stroke="grey" stroke-width="2" points="207.334,-257.89 215.473,-251.106 204.88,-251.334 207.334,-257.89"/>
</g>
<!-- 11&#45;&gt;7 -->
<g id="edge13" class="edge"><title>11&#45;&gt;7</title>
<path fill="none" stroke="grey" stroke-width="2" d="M266.163,-215.697C269.692,-207.728 273.956,-198.1 277.869,-189.264"/>
<polygon fill="grey" stroke="grey" stroke-width="2" points="281.076,-190.665 281.925,-180.104 274.676,-187.831 281.076,-190.665"/>
</g>
<!-- 12 -->
<g id="node13" class="node"><title>12</title>
<path fill="none" stroke="#56d87b" stroke-width="2" d="M391,-324C391,-324 322,-324 322,-324 316,-324 310,-318 310,-312 310,-312 310,-300 310,-300 310,-294 316,-288 322,-288 322,-288 391,-288 391,-288 397,-288 403,-294 403,-300 403,-300 403,-312 403,-312 403,-318 397,-324 391,-324"/>
<text text-anchor="middle" x="356.5" y="-303.5" font-family="sans" font-size="10.00">parse_star_logs</text>
</g>
<!-- 12&#45;&gt;7 -->
<g id="edge15" class="edge"><title>12&#45;&gt;7</title>
<path fill="none" stroke="grey" stroke-width="2" d="M348.418,-287.871C336.848,-263.35 315.466,-218.032 301.89,-189.259"/>
<polygon fill="grey" stroke="grey" stroke-width="2" points="305.043,-187.74 297.61,-180.189 298.712,-190.727 305.043,-187.74"/>
</g>
<!-- 12&#45;&gt;11 -->
<g id="edge22" class="edge"><title>12&#45;&gt;11</title>
<path fill="none" stroke="grey" stroke-width="2" d="M332.527,-287.876C319.95,-278.893 304.368,-267.763 290.748,-258.034"/>
<polygon fill="grey" stroke="grey" stroke-width="2" points="292.737,-255.154 282.566,-252.19 288.669,-260.85 292.737,-255.154"/>
</g>
<!-- 13 -->
<g id="node14" class="node"><title>13</title>
<path fill="none" stroke="#d6d856" stroke-width="2" d="M387,-396C387,-396 312,-396 312,-396 306,-396 300,-390 300,-384 300,-384 300,-372 300,-372 300,-366 306,-360 312,-360 312,-360 387,-360 387,-360 393,-360 399,-366 399,-372 399,-372 399,-384 399,-384 399,-390 393,-396 387,-396"/>
<text text-anchor="middle" x="349.5" y="-375.5" font-family="sans" font-size="10.00">second_mapping</text>
</g>
<!-- 13&#45;&gt;8 -->
<g id="edge17" class="edge"><title>13&#45;&gt;8</title>
<path fill="none" stroke="grey" stroke-width="2" d="M319.411,-359.876C303.18,-350.639 282.958,-339.131 265.529,-329.212"/>
<polygon fill="grey" stroke="grey" stroke-width="2" points="267.127,-326.094 256.705,-324.19 263.665,-332.178 267.127,-326.094"/>
</g>
<!-- 13&#45;&gt;12 -->
<g id="edge23" class="edge"><title>13&#45;&gt;12</title>
<path fill="none" stroke="grey" stroke-width="2" d="M351.23,-359.697C352.002,-351.983 352.929,-342.712 353.789,-334.112"/>
<polygon fill="grey" stroke="grey" stroke-width="2" points="357.277,-334.403 354.79,-324.104 350.312,-333.706 357.277,-334.403"/>
</g>
<!-- 14 -->
<g id="node15" class="node"><title>14</title>
<path fill="none" stroke="#5682d8" stroke-width="2" d="M515.5,-324C515.5,-324 433.5,-324 433.5,-324 427.5,-324 421.5,-318 421.5,-312 421.5,-312 421.5,-300 421.5,-300 421.5,-294 427.5,-288 433.5,-288 433.5,-288 515.5,-288 515.5,-288 521.5,-288 527.5,-294 527.5,-300 527.5,-300 527.5,-312 527.5,-312 527.5,-318 521.5,-324 515.5,-324"/>
<text text-anchor="middle" x="474.5" y="-303.5" font-family="sans" font-size="10.00">count_background</text>
</g>
<!-- 13&#45;&gt;14 -->
<g id="edge27" class="edge"><title>13&#45;&gt;14</title>
<path fill="none" stroke="grey" stroke-width="2" d="M380.078,-359.876C396.574,-350.639 417.124,-339.131 434.836,-329.212"/>
<polygon fill="grey" stroke="grey" stroke-width="2" points="436.789,-332.13 443.804,-324.19 433.369,-326.022 436.789,-332.13"/>
</g>
<!-- 14&#45;&gt;9 -->
<g id="edge18" class="edge"><title>14&#45;&gt;9</title>
<path fill="none" stroke="grey" stroke-width="2" d="M474.5,-287.697C474.5,-279.983 474.5,-270.712 474.5,-262.112"/>
<polygon fill="grey" stroke="grey" stroke-width="2" points="478,-262.104 474.5,-252.104 471,-262.104 478,-262.104"/>
</g>
<!-- 15 -->
<g id="node16" class="node"><title>15</title>
<path fill="none" stroke="#8fd856" stroke-width="2" d="M421,-612C421,-612 366,-612 366,-612 360,-612 354,-606 354,-600 354,-600 354,-588 354,-588 354,-582 360,-576 366,-576 366,-576 421,-576 421,-576 427,-576 433,-582 433,-588 433,-588 433,-600 433,-600 433,-606 427,-612 421,-612"/>
<text text-anchor="middle" x="393.5" y="-591.5" font-family="sans" font-size="10.00">generate_gtf</text>
</g>
<!-- 15&#45;&gt;10 -->
<g id="edge19" class="edge"><title>15&#45;&gt;10</title>
<path fill="none" stroke="grey" stroke-width="2" d="M353.977,-585.163C322.795,-577.527 279.388,-563.547 247.5,-540 169.477,-482.387 109.774,-380.752 84.5862,-333.072"/>
<polygon fill="grey" stroke="grey" stroke-width="2" points="87.5965,-331.275 79.877,-324.018 81.3862,-334.505 87.5965,-331.275"/>
</g>
<!-- 18 -->
<g id="node19" class="node"><title>18</title>
<path fill="none" stroke="#569ad8" stroke-width="2" d="M434,-540C434,-540 353,-540 353,-540 347,-540 341,-534 341,-528 341,-528 341,-516 341,-516 341,-510 347,-504 353,-504 353,-504 434,-504 434,-504 440,-504 446,-510 446,-516 446,-516 446,-528 446,-528 446,-534 440,-540 434,-540"/>
<text text-anchor="middle" x="393.5" y="-519.5" font-family="sans" font-size="10.00">generate_genome</text>
</g>
<!-- 15&#45;&gt;18 -->
<g id="edge32" class="edge"><title>15&#45;&gt;18</title>
<path fill="none" stroke="grey" stroke-width="2" d="M393.5,-575.697C393.5,-567.983 393.5,-558.712 393.5,-550.112"/>
<polygon fill="grey" stroke="grey" stroke-width="2" points="397,-550.104 393.5,-540.104 390,-550.104 397,-550.104"/>
</g>
<!-- 19 -->
<g id="node20" class="node"><title>19</title>
<path fill="none" stroke="#61d856" stroke-width="2" d="M496.5,-468C496.5,-468 452.5,-468 452.5,-468 446.5,-468 440.5,-462 440.5,-456 440.5,-456 440.5,-444 440.5,-444 440.5,-438 446.5,-432 452.5,-432 452.5,-432 496.5,-432 496.5,-432 502.5,-432 508.5,-438 508.5,-444 508.5,-444 508.5,-456 508.5,-456 508.5,-462 502.5,-468 496.5,-468"/>
<text text-anchor="middle" x="474.5" y="-447.5" font-family="sans" font-size="10.00">shuffle_gtf</text>
</g>
<!-- 15&#45;&gt;19 -->
<g id="edge33" class="edge"><title>15&#45;&gt;19</title>
<path fill="none" stroke="grey" stroke-width="2" d="M420.169,-575.792C432.39,-566.585 446.014,-554.214 454.5,-540 465.698,-521.245 470.635,-496.864 472.807,-478.364"/>
<polygon fill="grey" stroke="grey" stroke-width="2" points="476.307,-478.53 473.793,-468.238 469.34,-477.851 476.307,-478.53"/>
</g>
<!-- 16 -->
<g id="node17" class="node"><title>16</title>
<path fill="none" stroke="#56b1d8" stroke-width="2" d="M372,-468C372,-468 313,-468 313,-468 307,-468 301,-462 301,-456 301,-456 301,-444 301,-444 301,-438 307,-432 313,-432 313,-432 372,-432 372,-432 378,-432 384,-438 384,-444 384,-444 384,-456 384,-456 384,-462 378,-468 372,-468"/>
<text text-anchor="middle" x="342.5" y="-447.5" font-family="sans" font-size="10.00">first_mapping</text>
</g>
<!-- 16&#45;&gt;13 -->
<g id="edge24" class="edge"><title>16&#45;&gt;13</title>
<path fill="none" stroke="grey" stroke-width="2" d="M344.23,-431.697C345.002,-423.983 345.929,-414.712 346.789,-406.112"/>
<polygon fill="grey" stroke="grey" stroke-width="2" points="350.277,-406.403 347.79,-396.104 343.312,-405.706 350.277,-406.403"/>
</g>
<!-- 17 -->
<g id="node18" class="node"><title>17</title>
<path fill="none" stroke="#d86e56" stroke-width="2" d="M298.5,-540C298.5,-540 268.5,-540 268.5,-540 262.5,-540 256.5,-534 256.5,-528 256.5,-528 256.5,-516 256.5,-516 256.5,-510 262.5,-504 268.5,-504 268.5,-504 298.5,-504 298.5,-504 304.5,-504 310.5,-510 310.5,-516 310.5,-516 310.5,-528 310.5,-528 310.5,-534 304.5,-540 298.5,-540"/>
<text text-anchor="middle" x="283.5" y="-519.5" font-family="sans" font-size="10.00">gzip</text>
</g>
<!-- 17&#45;&gt;13 -->
<g id="edge25" class="edge"><title>17&#45;&gt;13</title>
<path fill="none" stroke="grey" stroke-width="2" d="M281.506,-503.952C280.097,-485.279 280.135,-454.936 291.5,-432 297.083,-420.733 306.166,-410.707 315.505,-402.49"/>
<polygon fill="grey" stroke="grey" stroke-width="2" points="317.853,-405.091 323.338,-396.026 313.398,-399.692 317.853,-405.091"/>
</g>
<!-- 17&#45;&gt;16 -->
<g id="edge29" class="edge"><title>17&#45;&gt;16</title>
<path fill="none" stroke="grey" stroke-width="2" d="M298.084,-503.697C305.158,-495.305 313.783,-485.07 321.545,-475.861"/>
<polygon fill="grey" stroke="grey" stroke-width="2" points="324.315,-478.006 328.083,-468.104 318.963,-473.495 324.315,-478.006"/>
</g>
<!-- 18&#45;&gt;13 -->
<g id="edge26" class="edge"><title>18&#45;&gt;13</title>
<path fill="none" stroke="grey" stroke-width="2" d="M396.586,-503.677C399.119,-485.295 401.052,-455.691 392.5,-432 388.781,-421.696 382.139,-411.922 375.172,-403.639"/>
<polygon fill="grey" stroke="grey" stroke-width="2" points="377.763,-401.286 368.476,-396.186 372.555,-405.964 377.763,-401.286"/>
</g>
<!-- 18&#45;&gt;16 -->
<g id="edge30" class="edge"><title>18&#45;&gt;16</title>
<path fill="none" stroke="grey" stroke-width="2" d="M380.893,-503.697C374.903,-495.474 367.624,-485.483 361.021,-476.421"/>
<polygon fill="grey" stroke="grey" stroke-width="2" points="363.679,-474.126 354.962,-468.104 358.022,-478.248 363.679,-474.126"/>
</g>
<!-- 18&#45;&gt;19 -->
<g id="edge34" class="edge"><title>18&#45;&gt;19</title>
<path fill="none" stroke="grey" stroke-width="2" d="M413.522,-503.697C423.626,-494.965 436.036,-484.24 447.018,-474.75"/>
<polygon fill="grey" stroke="grey" stroke-width="2" points="449.43,-477.291 454.708,-468.104 444.853,-471.995 449.43,-477.291"/>
</g>
<!-- 19&#45;&gt;14 -->
<g id="edge28" class="edge"><title>19&#45;&gt;14</title>
<path fill="none" stroke="grey" stroke-width="2" d="M474.5,-431.871C474.5,-407.67 474.5,-363.211 474.5,-334.393"/>
<polygon fill="grey" stroke="grey" stroke-width="2" points="478,-334.189 474.5,-324.189 471,-334.189 478,-334.189"/>
</g>
<!-- 20 -->
<g id="node21" class="node"><title>20</title>
<path fill="none" stroke="#d8b456" stroke-width="2" d="M301,-612C301,-612 266,-612 266,-612 260,-612 254,-606 254,-600 254,-600 254,-588 254,-588 254,-582 260,-576 266,-576 266,-576 301,-576 301,-576 307,-576 313,-582 313,-588 313,-588 313,-600 313,-600 313,-606 307,-612 301,-612"/>
<text text-anchor="middle" x="283.5" y="-591.5" font-family="sans" font-size="10.00">cutadapt</text>
</g>
<!-- 20&#45;&gt;17 -->
<g id="edge31" class="edge"><title>20&#45;&gt;17</title>
<path fill="none" stroke="grey" stroke-width="2" d="M283.5,-575.697C283.5,-567.983 283.5,-558.712 283.5,-550.112"/>
<polygon fill="grey" stroke="grey" stroke-width="2" points="287,-550.104 283.5,-540.104 280,-550.104 287,-550.104"/>
</g>
<!-- 21 -->
<g id="node22" class="node"><title>21</title>
<path fill="none" stroke="#56d892" stroke-width="2" d="M298.5,-684C298.5,-684 268.5,-684 268.5,-684 262.5,-684 256.5,-678 256.5,-672 256.5,-672 256.5,-660 256.5,-660 256.5,-654 262.5,-648 268.5,-648 268.5,-648 298.5,-648 298.5,-648 304.5,-648 310.5,-654 310.5,-660 310.5,-660 310.5,-672 310.5,-672 310.5,-678 304.5,-684 298.5,-684"/>
<text text-anchor="middle" x="283.5" y="-663.5" font-family="sans" font-size="10.00">repair</text>
</g>
<!-- 21&#45;&gt;20 -->
<g id="edge35" class="edge"><title>21&#45;&gt;20</title>
<path fill="none" stroke="grey" stroke-width="2" d="M283.5,-647.697C283.5,-639.983 283.5,-630.712 283.5,-622.112"/>
<polygon fill="grey" stroke="grey" stroke-width="2" points="287,-622.104 283.5,-612.104 280,-622.104 287,-622.104"/>
</g>
</g>
</svg>
