<?xml version="1.0" encoding="UTF-8" standalone="no"?>
<!DOCTYPE svg PUBLIC "-//W3C//DTD SVG 1.1//EN"
 "http://www.w3.org/Graphics/SVG/1.1/DTD/svg11.dtd">
<!-- Generated by graphviz version 2.38.0 (20140413.2041)
 -->
<!-- Title: snakemake_dag Pages: 1 -->
<svg width="467pt" height="476pt"
 viewBox="0.00 0.00 466.50 476.00" xmlns="http://www.w3.org/2000/svg" xmlns:xlink="http://www.w3.org/1999/xlink">
<g id="graph0" class="graph" transform="scale(1 1) rotate(0) translate(4 472)">
<title>snakemake_dag</title>
<polygon fill="white" stroke="none" points="-4,4 -4,-472 462.5,-472 462.5,4 -4,4"/>
<!-- 0 -->
<g id="node1" class="node"><title>0</title>
<path fill="none" stroke="#d85656" stroke-width="2" d="M146,-36C146,-36 12,-36 12,-36 6,-36 1.42109e-14,-30 1.42109e-14,-24 1.42109e-14,-24 1.42109e-14,-12 1.42109e-14,-12 1.42109e-14,-6 6,-0 12,-0 12,-0 146,-0 146,-0 152,-0 158,-6 158,-12 158,-12 158,-24 158,-24 158,-30 152,-36 146,-36"/>
<text text-anchor="middle" x="79" y="-15.5" font-family="sans" font-size="10.00">combine_background_counts</text>
</g>
<!-- 1 -->
<g id="node2" class="node"><title>1</title>
<path fill="none" stroke="#afd856" stroke-width="2" d="M376,-36C376,-36 314,-36 314,-36 308,-36 302,-30 302,-24 302,-24 302,-12 302,-12 302,-6 308,-0 314,-0 314,-0 376,-0 376,-0 382,-0 388,-6 388,-12 388,-12 388,-24 388,-24 388,-30 382,-36 376,-36"/>
<text text-anchor="middle" x="345" y="-15.5" font-family="sans" font-size="10.00">calculate_tpm</text>
</g>
<!-- 2 -->
<g id="node3" class="node"><title>2</title>
<path fill="none" stroke="#68d856" stroke-width="2" d="M120,-108C120,-108 38,-108 38,-108 32,-108 26,-102 26,-96 26,-96 26,-84 26,-84 26,-78 32,-72 38,-72 38,-72 120,-72 120,-72 126,-72 132,-78 132,-84 132,-84 132,-96 132,-96 132,-102 126,-108 120,-108"/>
<text text-anchor="middle" x="79" y="-87.5" font-family="sans" font-size="10.00">count_background</text>
</g>
<!-- 2&#45;&gt;0 -->
<g id="edge1" class="edge"><title>2&#45;&gt;0</title>
<path fill="none" stroke="grey" stroke-width="2" d="M79,-71.6966C79,-63.9827 79,-54.7125 79,-46.1124"/>
<polygon fill="grey" stroke="grey" stroke-width="2" points="82.5001,-46.1043 79,-36.1043 75.5001,-46.1044 82.5001,-46.1043"/>
</g>
<!-- 3 -->
<g id="node4" class="node"><title>3</title>
<path fill="none" stroke="#ced856" stroke-width="2" d="M446.5,-180C446.5,-180 327.5,-180 327.5,-180 321.5,-180 315.5,-174 315.5,-168 315.5,-168 315.5,-156 315.5,-156 315.5,-150 321.5,-144 327.5,-144 327.5,-144 446.5,-144 446.5,-144 452.5,-144 458.5,-150 458.5,-156 458.5,-156 458.5,-168 458.5,-168 458.5,-174 452.5,-180 446.5,-180"/>
<text text-anchor="middle" x="387" y="-159.5" font-family="sans" font-size="10.00">calculate_feature_lengths</text>
</g>
<!-- 3&#45;&gt;1 -->
<g id="edge2" class="edge"><title>3&#45;&gt;1</title>
<path fill="none" stroke="grey" stroke-width="2" d="M394.712,-143.91C401.866,-125.465 410.019,-95.568 400,-72 395.265,-60.8623 386.916,-50.9298 378.132,-42.7587"/>
<polygon fill="grey" stroke="grey" stroke-width="2" points="380.23,-39.9461 370.38,-36.0455 375.648,-45.2377 380.23,-39.9461"/>
</g>
<!-- 4 -->
<g id="node5" class="node"><title>4</title>
<path fill="none" stroke="#567bd8" stroke-width="2" d="M268,-108C268,-108 162,-108 162,-108 156,-108 150,-102 150,-96 150,-96 150,-84 150,-84 150,-78 156,-72 162,-72 162,-72 268,-72 268,-72 274,-72 280,-78 280,-84 280,-84 280,-96 280,-96 280,-102 274,-108 268,-108"/>
<text text-anchor="middle" x="215" y="-87.5" font-family="sans" font-size="10.00">generate_deseq_object</text>
</g>
<!-- 4&#45;&gt;1 -->
<g id="edge4" class="edge"><title>4&#45;&gt;1</title>
<path fill="none" stroke="grey" stroke-width="2" d="M246.802,-71.8761C264.114,-62.5541 285.721,-50.9194 304.256,-40.939"/>
<polygon fill="grey" stroke="grey" stroke-width="2" points="305.931,-44.0125 313.076,-36.1898 302.612,-37.8491 305.931,-44.0125"/>
</g>
<!-- 5 -->
<g id="node6" class="node"><title>5</title>
<path fill="none" stroke="#56d8a9" stroke-width="2" d="M379.5,-108C379.5,-108 310.5,-108 310.5,-108 304.5,-108 298.5,-102 298.5,-96 298.5,-96 298.5,-84 298.5,-84 298.5,-78 304.5,-72 310.5,-72 310.5,-72 379.5,-72 379.5,-72 385.5,-72 391.5,-78 391.5,-84 391.5,-84 391.5,-96 391.5,-96 391.5,-102 385.5,-108 379.5,-108"/>
<text text-anchor="middle" x="345" y="-87.5" font-family="sans" font-size="10.00">parse_star_logs</text>
</g>
<!-- 5&#45;&gt;1 -->
<g id="edge3" class="edge"><title>5&#45;&gt;1</title>
<path fill="none" stroke="grey" stroke-width="2" d="M345,-71.6966C345,-63.9827 345,-54.7125 345,-46.1124"/>
<polygon fill="grey" stroke="grey" stroke-width="2" points="348.5,-46.1043 345,-36.1043 341.5,-46.1044 348.5,-46.1043"/>
</g>
<!-- 6 -->
<g id="node7" class="node"><title>6</title>
<path fill="none" stroke="#d87556" stroke-width="2" d="M252.5,-180C252.5,-180 177.5,-180 177.5,-180 171.5,-180 165.5,-174 165.5,-168 165.5,-168 165.5,-156 165.5,-156 165.5,-150 171.5,-144 177.5,-144 177.5,-144 252.5,-144 252.5,-144 258.5,-144 264.5,-150 264.5,-156 264.5,-156 264.5,-168 264.5,-168 264.5,-174 258.5,-180 252.5,-180"/>
<text text-anchor="middle" x="215" y="-159.5" font-family="sans" font-size="10.00">second_mapping</text>
</g>
<!-- 6&#45;&gt;2 -->
<g id="edge5" class="edge"><title>6&#45;&gt;2</title>
<path fill="none" stroke="grey" stroke-width="2" d="M181.731,-143.876C163.537,-134.512 140.809,-122.814 121.36,-112.803"/>
<polygon fill="grey" stroke="grey" stroke-width="2" points="122.89,-109.654 112.397,-108.19 119.687,-115.878 122.89,-109.654"/>
</g>
<!-- 6&#45;&gt;4 -->
<g id="edge8" class="edge"><title>6&#45;&gt;4</title>
<path fill="none" stroke="grey" stroke-width="2" d="M215,-143.697C215,-135.983 215,-126.712 215,-118.112"/>
<polygon fill="grey" stroke="grey" stroke-width="2" points="218.5,-118.104 215,-108.104 211.5,-118.104 218.5,-118.104"/>
</g>
<!-- 6&#45;&gt;5 -->
<g id="edge9" class="edge"><title>6&#45;&gt;5</title>
<path fill="none" stroke="grey" stroke-width="2" d="M246.802,-143.876C264.114,-134.554 285.721,-122.919 304.256,-112.939"/>
<polygon fill="grey" stroke="grey" stroke-width="2" points="305.931,-116.012 313.076,-108.19 302.612,-109.849 305.931,-116.012"/>
</g>
<!-- 7 -->
<g id="node8" class="node"><title>7</title>
<path fill="none" stroke="#d8bc56" stroke-width="2" d="M104,-252C104,-252 60,-252 60,-252 54,-252 48,-246 48,-240 48,-240 48,-228 48,-228 48,-222 54,-216 60,-216 60,-216 104,-216 104,-216 110,-216 116,-222 116,-228 116,-228 116,-240 116,-240 116,-246 110,-252 104,-252"/>
<text text-anchor="middle" x="82" y="-231.5" font-family="sans" font-size="10.00">shuffle_gtf</text>
</g>
<!-- 7&#45;&gt;2 -->
<g id="edge6" class="edge"><title>7&#45;&gt;2</title>
<path fill="none" stroke="grey" stroke-width="2" d="M81.6381,-215.871C81.1268,-191.67 80.1876,-147.211 79.5787,-118.393"/>
<polygon fill="grey" stroke="grey" stroke-width="2" points="83.0737,-118.113 79.3632,-108.189 76.0753,-118.261 83.0737,-118.113"/>
</g>
<!-- 8 -->
<g id="node9" class="node"><title>8</title>
<path fill="none" stroke="#56d8d0" stroke-width="2" d="M190.5,-396C190.5,-396 135.5,-396 135.5,-396 129.5,-396 123.5,-390 123.5,-384 123.5,-384 123.5,-372 123.5,-372 123.5,-366 129.5,-360 135.5,-360 135.5,-360 190.5,-360 190.5,-360 196.5,-360 202.5,-366 202.5,-372 202.5,-372 202.5,-384 202.5,-384 202.5,-390 196.5,-396 190.5,-396"/>
<text text-anchor="middle" x="163" y="-375.5" font-family="sans" font-size="10.00">generate_gtf</text>
</g>
<!-- 8&#45;&gt;3 -->
<g id="edge7" class="edge"><title>8&#45;&gt;3</title>
<path fill="none" stroke="grey" stroke-width="2" d="M202.79,-366.225C240.286,-355.433 293.031,-338.404 309,-324 349.338,-287.614 370.966,-225.793 380.621,-190.278"/>
<polygon fill="grey" stroke="grey" stroke-width="2" points="384.123,-190.716 383.241,-180.158 377.346,-188.962 384.123,-190.716"/>
</g>
<!-- 8&#45;&gt;7 -->
<g id="edge13" class="edge"><title>8&#45;&gt;7</title>
<path fill="none" stroke="grey" stroke-width="2" d="M135.825,-359.918C123.387,-350.741 109.547,-338.358 101,-324 89.8536,-305.274 85.2027,-280.891 83.2837,-262.382"/>
<polygon fill="grey" stroke="grey" stroke-width="2" points="86.7579,-261.926 82.441,-252.251 79.782,-262.507 86.7579,-261.926"/>
</g>
<!-- 9 -->
<g id="node10" class="node"><title>9</title>
<path fill="none" stroke="#56d86b" stroke-width="2" d="M203.5,-324C203.5,-324 122.5,-324 122.5,-324 116.5,-324 110.5,-318 110.5,-312 110.5,-312 110.5,-300 110.5,-300 110.5,-294 116.5,-288 122.5,-288 122.5,-288 203.5,-288 203.5,-288 209.5,-288 215.5,-294 215.5,-300 215.5,-300 215.5,-312 215.5,-312 215.5,-318 209.5,-324 203.5,-324"/>
<text text-anchor="middle" x="163" y="-303.5" font-family="sans" font-size="10.00">generate_genome</text>
</g>
<!-- 8&#45;&gt;9 -->
<g id="edge15" class="edge"><title>8&#45;&gt;9</title>
<path fill="none" stroke="grey" stroke-width="2" d="M163,-359.697C163,-351.983 163,-342.712 163,-334.112"/>
<polygon fill="grey" stroke="grey" stroke-width="2" points="166.5,-334.104 163,-324.104 159.5,-334.104 166.5,-334.104"/>
</g>
<!-- 9&#45;&gt;6 -->
<g id="edge12" class="edge"><title>9&#45;&gt;6</title>
<path fill="none" stroke="grey" stroke-width="2" d="M159.573,-287.865C156.687,-269.381 154.396,-239.451 164,-216 168.409,-205.234 176.14,-195.418 184.269,-187.239"/>
<polygon fill="grey" stroke="grey" stroke-width="2" points="186.865,-189.603 191.763,-180.208 182.075,-184.498 186.865,-189.603"/>
</g>
<!-- 9&#45;&gt;7 -->
<g id="edge14" class="edge"><title>9&#45;&gt;7</title>
<path fill="none" stroke="grey" stroke-width="2" d="M142.978,-287.697C132.874,-278.965 120.464,-268.24 109.482,-258.75"/>
<polygon fill="grey" stroke="grey" stroke-width="2" points="111.647,-255.995 101.792,-252.104 107.07,-261.291 111.647,-255.995"/>
</g>
<!-- 10 -->
<g id="node11" class="node"><title>10</title>
<path fill="none" stroke="#88d856" stroke-width="2" d="M244.5,-252C244.5,-252 185.5,-252 185.5,-252 179.5,-252 173.5,-246 173.5,-240 173.5,-240 173.5,-228 173.5,-228 173.5,-222 179.5,-216 185.5,-216 185.5,-216 244.5,-216 244.5,-216 250.5,-216 256.5,-222 256.5,-228 256.5,-228 256.5,-240 256.5,-240 256.5,-246 250.5,-252 244.5,-252"/>
<text text-anchor="middle" x="215" y="-231.5" font-family="sans" font-size="10.00">first_mapping</text>
</g>
<!-- 9&#45;&gt;10 -->
<g id="edge17" class="edge"><title>9&#45;&gt;10</title>
<path fill="none" stroke="grey" stroke-width="2" d="M175.854,-287.697C182.025,-279.389 189.537,-269.277 196.324,-260.141"/>
<polygon fill="grey" stroke="grey" stroke-width="2" points="199.14,-262.219 202.294,-252.104 193.521,-258.045 199.14,-262.219"/>
</g>
<!-- 10&#45;&gt;6 -->
<g id="edge10" class="edge"><title>10&#45;&gt;6</title>
<path fill="none" stroke="grey" stroke-width="2" d="M215,-215.697C215,-207.983 215,-198.712 215,-190.112"/>
<polygon fill="grey" stroke="grey" stroke-width="2" points="218.5,-190.104 215,-180.104 211.5,-190.104 218.5,-190.104"/>
</g>
<!-- 11 -->
<g id="node12" class="node"><title>11</title>
<path fill="none" stroke="#56d88a" stroke-width="2" d="M288,-324C288,-324 258,-324 258,-324 252,-324 246,-318 246,-312 246,-312 246,-300 246,-300 246,-294 252,-288 258,-288 258,-288 288,-288 288,-288 294,-288 300,-294 300,-300 300,-300 300,-312 300,-312 300,-318 294,-324 288,-324"/>
<text text-anchor="middle" x="273" y="-303.5" font-family="sans" font-size="10.00">gzip</text>
</g>
<!-- 11&#45;&gt;6 -->
<g id="edge11" class="edge"><title>11&#45;&gt;6</title>
<path fill="none" stroke="grey" stroke-width="2" d="M274.689,-287.767C275.789,-269.201 275.443,-239.2 265,-216 260.19,-205.314 252.313,-195.421 244.22,-187.147"/>
<polygon fill="grey" stroke="grey" stroke-width="2" points="246.444,-184.431 236.807,-180.027 241.595,-189.479 246.444,-184.431"/>
</g>
<!-- 11&#45;&gt;10 -->
<g id="edge16" class="edge"><title>11&#45;&gt;10</title>
<path fill="none" stroke="grey" stroke-width="2" d="M258.663,-287.697C251.709,-279.305 243.23,-269.07 235.599,-259.861"/>
<polygon fill="grey" stroke="grey" stroke-width="2" points="238.247,-257.571 229.172,-252.104 232.857,-262.038 238.247,-257.571"/>
</g>
<!-- 12 -->
<g id="node13" class="node"><title>12</title>
<path fill="none" stroke="#d89c56" stroke-width="2" d="M290.5,-396C290.5,-396 255.5,-396 255.5,-396 249.5,-396 243.5,-390 243.5,-384 243.5,-384 243.5,-372 243.5,-372 243.5,-366 249.5,-360 255.5,-360 255.5,-360 290.5,-360 290.5,-360 296.5,-360 302.5,-366 302.5,-372 302.5,-372 302.5,-384 302.5,-384 302.5,-390 296.5,-396 290.5,-396"/>
<text text-anchor="middle" x="273" y="-375.5" font-family="sans" font-size="10.00">cutadapt</text>
</g>
<!-- 12&#45;&gt;11 -->
<g id="edge18" class="edge"><title>12&#45;&gt;11</title>
<path fill="none" stroke="grey" stroke-width="2" d="M273,-359.697C273,-351.983 273,-342.712 273,-334.112"/>
<polygon fill="grey" stroke="grey" stroke-width="2" points="276.5,-334.104 273,-324.104 269.5,-334.104 276.5,-334.104"/>
</g>
<!-- 13 -->
<g id="node14" class="node"><title>13</title>
<path fill="none" stroke="#56c1d8" stroke-width="2" d="M288,-468C288,-468 258,-468 258,-468 252,-468 246,-462 246,-456 246,-456 246,-444 246,-444 246,-438 252,-432 258,-432 258,-432 288,-432 288,-432 294,-432 300,-438 300,-444 300,-444 300,-456 300,-456 300,-462 294,-468 288,-468"/>
<text text-anchor="middle" x="273" y="-447.5" font-family="sans" font-size="10.00">repair</text>
</g>
<!-- 13&#45;&gt;12 -->
<g id="edge19" class="edge"><title>13&#45;&gt;12</title>
<path fill="none" stroke="grey" stroke-width="2" d="M273,-431.697C273,-423.983 273,-414.712 273,-406.112"/>
<polygon fill="grey" stroke="grey" stroke-width="2" points="276.5,-406.104 273,-396.104 269.5,-406.104 276.5,-406.104"/>
</g>
</g>
</svg>
