<?xml version="1.0" encoding="UTF-8" standalone="no"?>
<!DOCTYPE svg PUBLIC "-//W3C//DTD SVG 1.1//EN"
 "http://www.w3.org/Graphics/SVG/1.1/DTD/svg11.dtd">
<!-- Generated by graphviz version 2.38.0 (20140413.2041)
 -->
<!-- Title: snakemake_dag Pages: 1 -->
<svg width="268pt" height="404pt"
 viewBox="0.00 0.00 267.50 404.00" xmlns="http://www.w3.org/2000/svg" xmlns:xlink="http://www.w3.org/1999/xlink">
<g id="graph0" class="graph" transform="scale(1 1) rotate(0) translate(4 400)">
<title>snakemake_dag</title>
<polygon fill="white" stroke="none" points="-4,4 -4,-400 263.5,-400 263.5,4 -4,4"/>
<!-- 0 -->
<g id="node1" class="node"><title>0</title>
<path fill="none" stroke="#ced856" stroke-width="2" d="M120,-36C120,-36 51,-36 51,-36 45,-36 39,-30 39,-24 39,-24 39,-12 39,-12 39,-6 45,-0 51,-0 51,-0 120,-0 120,-0 126,-0 132,-6 132,-12 132,-12 132,-24 132,-24 132,-30 126,-36 120,-36"/>
<text text-anchor="middle" x="85.5" y="-15.5" font-family="sans" font-size="10.00">parse_star_logs</text>
</g>
<!-- 1 -->
<g id="node2" class="node"><title>1</title>
<path fill="none" stroke="#56d8c9" stroke-width="2" d="M247.5,-36C247.5,-36 165.5,-36 165.5,-36 159.5,-36 153.5,-30 153.5,-24 153.5,-24 153.5,-12 153.5,-12 153.5,-6 159.5,-0 165.5,-0 165.5,-0 247.5,-0 247.5,-0 253.5,-0 259.5,-6 259.5,-12 259.5,-12 259.5,-24 259.5,-24 259.5,-30 253.5,-36 247.5,-36"/>
<text text-anchor="middle" x="206.5" y="-15.5" font-family="sans" font-size="10.00">count_background</text>
</g>
<!-- 2 -->
<g id="node3" class="node"><title>2</title>
<path fill="none" stroke="#d8b456" stroke-width="2" d="M123,-108C123,-108 48,-108 48,-108 42,-108 36,-102 36,-96 36,-96 36,-84 36,-84 36,-78 42,-72 48,-72 48,-72 123,-72 123,-72 129,-72 135,-78 135,-84 135,-84 135,-96 135,-96 135,-102 129,-108 123,-108"/>
<text text-anchor="middle" x="85.5" y="-87.5" font-family="sans" font-size="10.00">second_mapping</text>
</g>
<!-- 2&#45;&gt;0 -->
<g id="edge1" class="edge"><title>2&#45;&gt;0</title>
<path fill="none" stroke="grey" stroke-width="2" d="M85.5,-71.6966C85.5,-63.9827 85.5,-54.7125 85.5,-46.1124"/>
<polygon fill="grey" stroke="grey" stroke-width="2" points="89.0001,-46.1043 85.5,-36.1043 82.0001,-46.1044 89.0001,-46.1043"/>
</g>
<!-- 2&#45;&gt;1 -->
<g id="edge3" class="edge"><title>2&#45;&gt;1</title>
<path fill="none" stroke="grey" stroke-width="2" d="M115.1,-71.8761C131.067,-62.6388 150.96,-51.1308 168.106,-41.2116"/>
<polygon fill="grey" stroke="grey" stroke-width="2" points="169.883,-44.2269 176.786,-36.1898 166.378,-38.1678 169.883,-44.2269"/>
</g>
<!-- 3 -->
<g id="node4" class="node"><title>3</title>
<path fill="none" stroke="#70d856" stroke-width="2" d="M237.5,-180C237.5,-180 193.5,-180 193.5,-180 187.5,-180 181.5,-174 181.5,-168 181.5,-168 181.5,-156 181.5,-156 181.5,-150 187.5,-144 193.5,-144 193.5,-144 237.5,-144 237.5,-144 243.5,-144 249.5,-150 249.5,-156 249.5,-156 249.5,-168 249.5,-168 249.5,-174 243.5,-180 237.5,-180"/>
<text text-anchor="middle" x="215.5" y="-159.5" font-family="sans" font-size="10.00">shuffle_gtf</text>
</g>
<!-- 3&#45;&gt;1 -->
<g id="edge2" class="edge"><title>3&#45;&gt;1</title>
<path fill="none" stroke="grey" stroke-width="2" d="M214.414,-143.871C212.881,-119.67 210.063,-75.2108 208.236,-46.3932"/>
<polygon fill="grey" stroke="grey" stroke-width="2" points="211.715,-45.9478 207.589,-36.1893 204.729,-46.3907 211.715,-45.9478"/>
</g>
<!-- 4 -->
<g id="node5" class="node"><title>4</title>
<path fill="none" stroke="#56d86b" stroke-width="2" d="M113,-180C113,-180 54,-180 54,-180 48,-180 42,-174 42,-168 42,-168 42,-156 42,-156 42,-150 48,-144 54,-144 54,-144 113,-144 113,-144 119,-144 125,-150 125,-156 125,-156 125,-168 125,-168 125,-174 119,-180 113,-180"/>
<text text-anchor="middle" x="83.5" y="-159.5" font-family="sans" font-size="10.00">first_mapping</text>
</g>
<!-- 4&#45;&gt;2 -->
<g id="edge4" class="edge"><title>4&#45;&gt;2</title>
<path fill="none" stroke="grey" stroke-width="2" d="M83.9944,-143.697C84.2148,-135.983 84.4796,-126.712 84.7254,-118.112"/>
<polygon fill="grey" stroke="grey" stroke-width="2" points="88.2242,-118.2 85.0113,-108.104 81.227,-118 88.2242,-118.2"/>
</g>
<!-- 5 -->
<g id="node6" class="node"><title>5</title>
<path fill="none" stroke="#d88556" stroke-width="2" d="M184,-252C184,-252 103,-252 103,-252 97,-252 91,-246 91,-240 91,-240 91,-228 91,-228 91,-222 97,-216 103,-216 103,-216 184,-216 184,-216 190,-216 196,-222 196,-228 196,-228 196,-240 196,-240 196,-246 190,-252 184,-252"/>
<text text-anchor="middle" x="143.5" y="-231.5" font-family="sans" font-size="10.00">generate_genome</text>
</g>
<!-- 5&#45;&gt;2 -->
<g id="edge5" class="edge"><title>5&#45;&gt;2</title>
<path fill="none" stroke="grey" stroke-width="2" d="M144.618,-215.784C145.143,-197.231 143.989,-167.243 133.5,-144 128.73,-133.431 121.051,-123.519 113.221,-115.191"/>
<polygon fill="grey" stroke="grey" stroke-width="2" points="115.605,-112.625 106.066,-108.015 110.648,-117.568 115.605,-112.625"/>
</g>
<!-- 5&#45;&gt;3 -->
<g id="edge8" class="edge"><title>5&#45;&gt;3</title>
<path fill="none" stroke="grey" stroke-width="2" d="M161.298,-215.697C170.104,-207.135 180.882,-196.656 190.501,-187.304"/>
<polygon fill="grey" stroke="grey" stroke-width="2" points="193.177,-189.585 197.907,-180.104 188.297,-184.566 193.177,-189.585"/>
</g>
<!-- 5&#45;&gt;4 -->
<g id="edge9" class="edge"><title>5&#45;&gt;4</title>
<path fill="none" stroke="grey" stroke-width="2" d="M128.669,-215.697C121.475,-207.305 112.703,-197.07 104.81,-187.861"/>
<polygon fill="grey" stroke="grey" stroke-width="2" points="107.326,-185.419 98.1609,-180.104 102.011,-189.975 107.326,-185.419"/>
</g>
<!-- 6 -->
<g id="node7" class="node"><title>6</title>
<path fill="none" stroke="#5682d8" stroke-width="2" d="M44.5,-252C44.5,-252 14.5,-252 14.5,-252 8.5,-252 2.5,-246 2.5,-240 2.5,-240 2.5,-228 2.5,-228 2.5,-222 8.5,-216 14.5,-216 14.5,-216 44.5,-216 44.5,-216 50.5,-216 56.5,-222 56.5,-228 56.5,-228 56.5,-240 56.5,-240 56.5,-246 50.5,-252 44.5,-252"/>
<text text-anchor="middle" x="29.5" y="-231.5" font-family="sans" font-size="10.00">gzip</text>
</g>
<!-- 6&#45;&gt;2 -->
<g id="edge6" class="edge"><title>6&#45;&gt;2</title>
<path fill="none" stroke="grey" stroke-width="2" d="M26.4721,-215.79C24.0123,-197.242 22.4039,-167.258 32.5,-144 37.2691,-133.014 45.4597,-123.076 53.9952,-114.854"/>
<polygon fill="grey" stroke="grey" stroke-width="2" points="56.4204,-117.38 61.5074,-108.086 51.7351,-112.179 56.4204,-117.38"/>
</g>
<!-- 6&#45;&gt;4 -->
<g id="edge10" class="edge"><title>6&#45;&gt;4</title>
<path fill="none" stroke="grey" stroke-width="2" d="M42.8483,-215.697C49.2568,-207.389 57.0577,-197.277 64.1057,-188.141"/>
<polygon fill="grey" stroke="grey" stroke-width="2" points="66.9684,-190.16 70.3052,-180.104 61.4259,-185.884 66.9684,-190.16"/>
</g>
<!-- 7 -->
<g id="node8" class="node"><title>7</title>
<path fill="none" stroke="#d85656" stroke-width="2" d="M211,-324C211,-324 156,-324 156,-324 150,-324 144,-318 144,-312 144,-312 144,-300 144,-300 144,-294 150,-288 156,-288 156,-288 211,-288 211,-288 217,-288 223,-294 223,-300 223,-300 223,-312 223,-312 223,-318 217,-324 211,-324"/>
<text text-anchor="middle" x="183.5" y="-303.5" font-family="sans" font-size="10.00">generate_gtf</text>
</g>
<!-- 7&#45;&gt;3 -->
<g id="edge7" class="edge"><title>7&#45;&gt;3</title>
<path fill="none" stroke="grey" stroke-width="2" d="M191.648,-287.706C196.114,-277.524 201.364,-264.274 204.5,-252 209.694,-231.668 212.468,-208.073 213.93,-190.288"/>
<polygon fill="grey" stroke="grey" stroke-width="2" points="217.422,-190.532 214.665,-180.302 210.441,-190.019 217.422,-190.532"/>
</g>
<!-- 7&#45;&gt;5 -->
<g id="edge11" class="edge"><title>7&#45;&gt;5</title>
<path fill="none" stroke="grey" stroke-width="2" d="M173.612,-287.697C169.011,-279.644 163.44,-269.894 158.347,-260.982"/>
<polygon fill="grey" stroke="grey" stroke-width="2" points="161.274,-259.05 153.274,-252.104 155.196,-262.523 161.274,-259.05"/>
</g>
<!-- 8 -->
<g id="node9" class="node"><title>8</title>
<path fill="none" stroke="#56b1d8" stroke-width="2" d="M47,-324C47,-324 12,-324 12,-324 6,-324 0,-318 0,-312 0,-312 0,-300 0,-300 0,-294 6,-288 12,-288 12,-288 47,-288 47,-288 53,-288 59,-294 59,-300 59,-300 59,-312 59,-312 59,-318 53,-324 47,-324"/>
<text text-anchor="middle" x="29.5" y="-303.5" font-family="sans" font-size="10.00">cutadapt</text>
</g>
<!-- 8&#45;&gt;6 -->
<g id="edge12" class="edge"><title>8&#45;&gt;6</title>
<path fill="none" stroke="grey" stroke-width="2" d="M29.5,-287.697C29.5,-279.983 29.5,-270.712 29.5,-262.112"/>
<polygon fill="grey" stroke="grey" stroke-width="2" points="33.0001,-262.104 29.5,-252.104 26.0001,-262.104 33.0001,-262.104"/>
</g>
<!-- 9 -->
<g id="node10" class="node"><title>9</title>
<path fill="none" stroke="#9fd856" stroke-width="2" d="M44.5,-396C44.5,-396 14.5,-396 14.5,-396 8.5,-396 2.5,-390 2.5,-384 2.5,-384 2.5,-372 2.5,-372 2.5,-366 8.5,-360 14.5,-360 14.5,-360 44.5,-360 44.5,-360 50.5,-360 56.5,-366 56.5,-372 56.5,-372 56.5,-384 56.5,-384 56.5,-390 50.5,-396 44.5,-396"/>
<text text-anchor="middle" x="29.5" y="-375.5" font-family="sans" font-size="10.00">repair</text>
</g>
<!-- 9&#45;&gt;8 -->
<g id="edge13" class="edge"><title>9&#45;&gt;8</title>
<path fill="none" stroke="grey" stroke-width="2" d="M29.5,-359.697C29.5,-351.983 29.5,-342.712 29.5,-334.112"/>
<polygon fill="grey" stroke="grey" stroke-width="2" points="33.0001,-334.104 29.5,-324.104 26.0001,-334.104 33.0001,-334.104"/>
</g>
</g>
</svg>
