<?xml version="1.0" encoding="UTF-8" standalone="no"?>
<!DOCTYPE svg PUBLIC "-//W3C//DTD SVG 1.1//EN"
 "http://www.w3.org/Graphics/SVG/1.1/DTD/svg11.dtd">
<!-- Generated by graphviz version 2.40.1 (20161225.0304)
 -->
<!-- Title: snakemake_dag Pages: 1 -->
<svg width="536pt" height="836pt"
 viewBox="0.00 0.00 535.50 836.00" xmlns="http://www.w3.org/2000/svg" xmlns:xlink="http://www.w3.org/1999/xlink">
<g id="graph0" class="graph" transform="scale(1 1) rotate(0) translate(4 832)">
<title>snakemake_dag</title>
<polygon fill="#ffffff" stroke="transparent" points="-4,4 -4,-832 531.5,-832 531.5,4 -4,4"/>
<!-- 0 -->
<g id="node1" class="node">
<title>0</title>
<path fill="none" stroke="#56d87b" stroke-width="2" d="M174.5,-36C174.5,-36 107.5,-36 107.5,-36 101.5,-36 95.5,-30 95.5,-24 95.5,-24 95.5,-12 95.5,-12 95.5,-6 101.5,0 107.5,0 107.5,0 174.5,0 174.5,0 180.5,0 186.5,-6 186.5,-12 186.5,-12 186.5,-24 186.5,-24 186.5,-30 180.5,-36 174.5,-36"/>
<text text-anchor="middle" x="141" y="-15.5" font-family="sans" font-size="10.00" fill="#000000">phenotype_pca</text>
</g>
<!-- 1 -->
<g id="node2" class="node">
<title>1</title>
<path fill="none" stroke="#56b1d8" stroke-width="2" d="M160.5,-180C160.5,-180 65.5,-180 65.5,-180 59.5,-180 53.5,-174 53.5,-168 53.5,-168 53.5,-156 53.5,-156 53.5,-150 59.5,-144 65.5,-144 65.5,-144 160.5,-144 160.5,-144 166.5,-144 172.5,-150 172.5,-156 172.5,-156 172.5,-168 172.5,-168 172.5,-174 166.5,-180 160.5,-180"/>
<text text-anchor="middle" x="113" y="-159.5" font-family="sans" font-size="10.00" fill="#000000">tidy_phenotype_data</text>
</g>
<!-- 1&#45;&gt;0 -->
<g id="edge2" class="edge">
<title>1&#45;&gt;0</title>
<path fill="none" stroke="#c0c0c0" stroke-width="2" d="M116.5462,-143.7623C121.3431,-119.0928 129.9439,-74.8598 135.5608,-45.9731"/>
<polygon fill="#c0c0c0" stroke="#c0c0c0" stroke-width="2" points="139.0095,-46.5738 137.4826,-36.0896 132.1381,-45.2377 139.0095,-46.5738"/>
</g>
<!-- 2 -->
<g id="node3" class="node">
<title>2</title>
<path fill="none" stroke="#d8cb56" stroke-width="2" d="M185,-108C185,-108 153,-108 153,-108 147,-108 141,-102 141,-96 141,-96 141,-84 141,-84 141,-78 147,-72 153,-72 153,-72 185,-72 185,-72 191,-72 197,-78 197,-84 197,-84 197,-96 197,-96 197,-102 191,-108 185,-108"/>
<text text-anchor="middle" x="169" y="-87.5" font-family="sans" font-size="10.00" fill="#000000">cali_pca</text>
</g>
<!-- 1&#45;&gt;2 -->
<g id="edge4" class="edge">
<title>1&#45;&gt;2</title>
<path fill="none" stroke="#c0c0c0" stroke-width="2" d="M127.1312,-143.8314C133.5811,-135.5386 141.3445,-125.557 148.4252,-116.4533"/>
<polygon fill="#c0c0c0" stroke="#c0c0c0" stroke-width="2" points="151.3019,-118.4556 154.6786,-108.4133 145.7764,-114.158 151.3019,-118.4556"/>
</g>
<!-- 2&#45;&gt;0 -->
<g id="edge1" class="edge">
<title>2&#45;&gt;0</title>
<path fill="none" stroke="#c0c0c0" stroke-width="2" d="M161.9344,-71.8314C158.874,-63.9617 155.2221,-54.5712 151.8318,-45.8533"/>
<polygon fill="#c0c0c0" stroke="#c0c0c0" stroke-width="2" points="155.0473,-44.4647 148.1607,-36.4133 148.5232,-47.0019 155.0473,-44.4647"/>
</g>
<!-- 3 -->
<g id="node4" class="node">
<title>3</title>
<path fill="none" stroke="#d8a456" stroke-width="2" d="M243.5,-180C243.5,-180 202.5,-180 202.5,-180 196.5,-180 190.5,-174 190.5,-168 190.5,-168 190.5,-156 190.5,-156 190.5,-150 196.5,-144 202.5,-144 202.5,-144 243.5,-144 243.5,-144 249.5,-144 255.5,-150 255.5,-156 255.5,-156 255.5,-168 255.5,-168 255.5,-174 249.5,-180 243.5,-180"/>
<text text-anchor="middle" x="223" y="-159.5" font-family="sans" font-size="10.00" fill="#000000">mfuzz_tfs</text>
</g>
<!-- 3&#45;&gt;2 -->
<g id="edge3" class="edge">
<title>3&#45;&gt;2</title>
<path fill="none" stroke="#c0c0c0" stroke-width="2" d="M209.3735,-143.8314C203.154,-135.5386 195.6678,-125.557 188.84,-116.4533"/>
<polygon fill="#c0c0c0" stroke="#c0c0c0" stroke-width="2" points="191.61,-114.3133 182.81,-108.4133 186.01,-118.5133 191.61,-114.3133"/>
</g>
<!-- 4 -->
<g id="node5" class="node">
<title>4</title>
<path fill="none" stroke="#56a2d8" stroke-width="2" d="M204.5,-252C204.5,-252 171.5,-252 171.5,-252 165.5,-252 159.5,-246 159.5,-240 159.5,-240 159.5,-228 159.5,-228 159.5,-222 165.5,-216 171.5,-216 171.5,-216 204.5,-216 204.5,-216 210.5,-216 216.5,-222 216.5,-228 216.5,-228 216.5,-240 216.5,-240 216.5,-246 210.5,-252 204.5,-252"/>
<text text-anchor="middle" x="188" y="-231.5" font-family="sans" font-size="10.00" fill="#000000">filter_tfs</text>
</g>
<!-- 4&#45;&gt;3 -->
<g id="edge6" class="edge">
<title>4&#45;&gt;3</title>
<path fill="none" stroke="#c0c0c0" stroke-width="2" d="M196.832,-215.8314C200.6986,-207.8771 205.3206,-198.369 209.5968,-189.5723"/>
<polygon fill="#c0c0c0" stroke="#c0c0c0" stroke-width="2" points="212.8249,-190.9371 214.0491,-180.4133 206.5293,-187.8768 212.8249,-190.9371"/>
</g>
<!-- 5 -->
<g id="node6" class="node">
<title>5</title>
<path fill="none" stroke="#5663d8" stroke-width="2" d="M294,-324C294,-324 244,-324 244,-324 238,-324 232,-318 232,-312 232,-312 232,-300 232,-300 232,-294 238,-288 244,-288 244,-288 294,-288 294,-288 300,-288 306,-294 306,-300 306,-300 306,-312 306,-312 306,-318 300,-324 294,-324"/>
<text text-anchor="middle" x="269" y="-303.5" font-family="sans" font-size="10.00" fill="#000000">format_tfdb</text>
</g>
<!-- 5&#45;&gt;3 -->
<g id="edge5" class="edge">
<title>5&#45;&gt;3</title>
<path fill="none" stroke="#c0c0c0" stroke-width="2" d="M263.1741,-287.7623C255.2935,-263.0928 241.1635,-218.8598 231.9358,-189.9731"/>
<polygon fill="#c0c0c0" stroke="#c0c0c0" stroke-width="2" points="235.1557,-188.5503 228.7786,-180.0896 228.4876,-190.6805 235.1557,-188.5503"/>
</g>
<!-- 5&#45;&gt;4 -->
<g id="edge9" class="edge">
<title>5&#45;&gt;4</title>
<path fill="none" stroke="#c0c0c0" stroke-width="2" d="M248.5603,-287.8314C238.6795,-279.0485 226.6676,-268.3712 215.955,-258.8489"/>
<polygon fill="#c0c0c0" stroke="#c0c0c0" stroke-width="2" points="218.2326,-256.1906 208.4332,-252.1628 213.582,-261.4224 218.2326,-256.1906"/>
</g>
<!-- 6 -->
<g id="node7" class="node">
<title>6</title>
<path fill="none" stroke="#70d856" stroke-width="2" d="M201.5,-324C201.5,-324 126.5,-324 126.5,-324 120.5,-324 114.5,-318 114.5,-312 114.5,-312 114.5,-300 114.5,-300 114.5,-294 120.5,-288 126.5,-288 126.5,-288 201.5,-288 201.5,-288 207.5,-288 213.5,-294 213.5,-300 213.5,-300 213.5,-312 213.5,-312 213.5,-318 207.5,-324 201.5,-324"/>
<text text-anchor="middle" x="164" y="-303.5" font-family="sans" font-size="10.00" fill="#000000">calculate_cutoffs</text>
</g>
<!-- 6&#45;&gt;4 -->
<g id="edge7" class="edge">
<title>6&#45;&gt;4</title>
<path fill="none" stroke="#c0c0c0" stroke-width="2" d="M170.0562,-287.8314C172.6512,-280.0463 175.7424,-270.7729 178.6218,-262.1347"/>
<polygon fill="#c0c0c0" stroke="#c0c0c0" stroke-width="2" points="182.0203,-263.0069 181.8622,-252.4133 175.3795,-260.7933 182.0203,-263.0069"/>
</g>
<!-- 7 -->
<g id="node8" class="node">
<title>7</title>
<path fill="none" stroke="#56d0d8" stroke-width="2" d="M118,-468C118,-468 12,-468 12,-468 6,-468 0,-462 0,-456 0,-456 0,-444 0,-444 0,-438 6,-432 12,-432 12,-432 118,-432 118,-432 124,-432 130,-438 130,-444 130,-444 130,-456 130,-456 130,-462 124,-468 118,-468"/>
<text text-anchor="middle" x="65" y="-447.5" font-family="sans" font-size="10.00" fill="#000000">generate_deseq_object</text>
</g>
<!-- 7&#45;&gt;4 -->
<g id="edge8" class="edge">
<title>7&#45;&gt;4</title>
<path fill="none" stroke="#c0c0c0" stroke-width="2" d="M65.2558,-431.9423C66.5561,-400.0125 73.1905,-332.7425 105,-288 116.3245,-272.0713 133.9598,-259.6404 150.0674,-250.7421"/>
<polygon fill="#c0c0c0" stroke="#c0c0c0" stroke-width="2" points="152.0723,-253.6436 159.3155,-245.9114 148.8314,-247.4391 152.0723,-253.6436"/>
</g>
<!-- 7&#45;&gt;6 -->
<g id="edge10" class="edge">
<title>7&#45;&gt;6</title>
<path fill="none" stroke="#c0c0c0" stroke-width="2" d="M77.5384,-431.7623C94.7962,-406.66 125.9801,-361.3017 145.8039,-332.4671"/>
<polygon fill="#c0c0c0" stroke="#c0c0c0" stroke-width="2" points="148.7822,-334.3129 151.5634,-324.0896 143.0139,-330.3472 148.7822,-334.3129"/>
</g>
<!-- 11 -->
<g id="node12" class="node">
<title>11</title>
<path fill="none" stroke="#56d89a" stroke-width="2" d="M230,-396C230,-396 168,-396 168,-396 162,-396 156,-390 156,-384 156,-384 156,-372 156,-372 156,-366 162,-360 168,-360 168,-360 230,-360 230,-360 236,-360 242,-366 242,-372 242,-372 242,-384 242,-384 242,-390 236,-396 230,-396"/>
<text text-anchor="middle" x="199" y="-375.5" font-family="sans" font-size="10.00" fill="#000000">calculate_tpm</text>
</g>
<!-- 7&#45;&gt;11 -->
<g id="edge21" class="edge">
<title>7&#45;&gt;11</title>
<path fill="none" stroke="#c0c0c0" stroke-width="2" d="M98.8139,-431.8314C116.2707,-422.4516 137.7487,-410.9112 156.3352,-400.9244"/>
<polygon fill="#c0c0c0" stroke="#c0c0c0" stroke-width="2" points="158.0446,-403.9792 165.197,-396.1628 154.7314,-397.8129 158.0446,-403.9792"/>
</g>
<!-- 8 -->
<g id="node9" class="node">
<title>8</title>
<path fill="none" stroke="#97d856" stroke-width="2" d="M515.5,-468C515.5,-468 396.5,-468 396.5,-468 390.5,-468 384.5,-462 384.5,-456 384.5,-456 384.5,-444 384.5,-444 384.5,-438 390.5,-432 396.5,-432 396.5,-432 515.5,-432 515.5,-432 521.5,-432 527.5,-438 527.5,-444 527.5,-444 527.5,-456 527.5,-456 527.5,-462 521.5,-468 515.5,-468"/>
<text text-anchor="middle" x="456" y="-447.5" font-family="sans" font-size="10.00" fill="#000000">calculate_feature_lengths</text>
</g>
<!-- 8&#45;&gt;6 -->
<g id="edge11" class="edge">
<title>8&#45;&gt;6</title>
<path fill="none" stroke="#c0c0c0" stroke-width="2" d="M455.4458,-431.8306C453.783,-411.2175 447.7908,-378.1204 427,-360 359.966,-301.5762 315.6377,-342.4548 223.7174,-323.856"/>
<polygon fill="#c0c0c0" stroke="#c0c0c0" stroke-width="2" points="224.2972,-320.3996 213.7765,-321.6508 222.7813,-327.2334 224.2972,-320.3996"/>
</g>
<!-- 8&#45;&gt;11 -->
<g id="edge19" class="edge">
<title>8&#45;&gt;11</title>
<path fill="none" stroke="#c0c0c0" stroke-width="2" d="M384.4721,-432.5724C347.3148,-423.1868 301.0182,-410.9787 251.6333,-396.0937"/>
<polygon fill="#c0c0c0" stroke="#c0c0c0" stroke-width="2" points="252.6336,-392.7397 242.0481,-393.1824 250.5993,-399.4375 252.6336,-392.7397"/>
</g>
<!-- 9 -->
<g id="node10" class="node">
<title>9</title>
<path fill="none" stroke="#d8ac56" stroke-width="2" d="M406,-396C406,-396 272,-396 272,-396 266,-396 260,-390 260,-384 260,-384 260,-372 260,-372 260,-366 266,-360 272,-360 272,-360 406,-360 406,-360 412,-360 418,-366 418,-372 418,-372 418,-384 418,-384 418,-390 412,-396 406,-396"/>
<text text-anchor="middle" x="339" y="-375.5" font-family="sans" font-size="10.00" fill="#000000">combine_background_counts</text>
</g>
<!-- 9&#45;&gt;6 -->
<g id="edge14" class="edge">
<title>9&#45;&gt;6</title>
<path fill="none" stroke="#c0c0c0" stroke-width="2" d="M294.8401,-359.8314C271.2268,-350.1162 241.9798,-338.0831 217.13,-327.8592"/>
<polygon fill="#c0c0c0" stroke="#c0c0c0" stroke-width="2" points="218.4219,-324.6061 207.8423,-324.038 215.7585,-331.0797 218.4219,-324.6061"/>
</g>
<!-- 10 -->
<g id="node11" class="node">
<title>10</title>
<path fill="none" stroke="#56c1d8" stroke-width="2" d="M229.5,-468C229.5,-468 160.5,-468 160.5,-468 154.5,-468 148.5,-462 148.5,-456 148.5,-456 148.5,-444 148.5,-444 148.5,-438 154.5,-432 160.5,-432 160.5,-432 229.5,-432 229.5,-432 235.5,-432 241.5,-438 241.5,-444 241.5,-444 241.5,-456 241.5,-456 241.5,-462 235.5,-468 229.5,-468"/>
<text text-anchor="middle" x="195" y="-447.5" font-family="sans" font-size="10.00" fill="#000000">parse_star_logs</text>
</g>
<!-- 10&#45;&gt;6 -->
<g id="edge12" class="edge">
<title>10&#45;&gt;6</title>
<path fill="none" stroke="#c0c0c0" stroke-width="2" d="M172.7787,-431.9032C162.8692,-422.3888 152.26,-409.8349 147,-396 139.3235,-375.8092 144.5807,-351.7044 151.2069,-333.5247"/>
<polygon fill="#c0c0c0" stroke="#c0c0c0" stroke-width="2" points="154.513,-334.6826 154.9556,-324.097 148.0083,-332.0962 154.513,-334.6826"/>
</g>
<!-- 10&#45;&gt;11 -->
<g id="edge20" class="edge">
<title>10&#45;&gt;11</title>
<path fill="none" stroke="#c0c0c0" stroke-width="2" d="M196.0094,-431.8314C196.4372,-424.131 196.9459,-414.9743 197.4213,-406.4166"/>
<polygon fill="#c0c0c0" stroke="#c0c0c0" stroke-width="2" points="200.9169,-406.592 197.977,-396.4133 193.9276,-406.2037 200.9169,-406.592"/>
</g>
<!-- 11&#45;&gt;6 -->
<g id="edge13" class="edge">
<title>11&#45;&gt;6</title>
<path fill="none" stroke="#c0c0c0" stroke-width="2" d="M190.168,-359.8314C186.3014,-351.8771 181.6794,-342.369 177.4032,-333.5723"/>
<polygon fill="#c0c0c0" stroke="#c0c0c0" stroke-width="2" points="180.4707,-331.8768 172.9509,-324.4133 174.1751,-334.9371 180.4707,-331.8768"/>
</g>
<!-- 12 -->
<g id="node13" class="node">
<title>12</title>
<path fill="none" stroke="#5682d8" stroke-width="2" d="M232.5,-540C232.5,-540 157.5,-540 157.5,-540 151.5,-540 145.5,-534 145.5,-528 145.5,-528 145.5,-516 145.5,-516 145.5,-510 151.5,-504 157.5,-504 157.5,-504 232.5,-504 232.5,-504 238.5,-504 244.5,-510 244.5,-516 244.5,-516 244.5,-528 244.5,-528 244.5,-534 238.5,-540 232.5,-540"/>
<text text-anchor="middle" x="195" y="-519.5" font-family="sans" font-size="10.00" fill="#000000">second_mapping</text>
</g>
<!-- 12&#45;&gt;7 -->
<g id="edge15" class="edge">
<title>12&#45;&gt;7</title>
<path fill="none" stroke="#c0c0c0" stroke-width="2" d="M162.1955,-503.8314C145.4138,-494.5368 124.8015,-483.1208 106.8837,-473.1971"/>
<polygon fill="#c0c0c0" stroke="#c0c0c0" stroke-width="2" points="108.2377,-469.9461 97.794,-468.1628 104.8462,-476.0696 108.2377,-469.9461"/>
</g>
<!-- 12&#45;&gt;10 -->
<g id="edge18" class="edge">
<title>12&#45;&gt;10</title>
<path fill="none" stroke="#c0c0c0" stroke-width="2" d="M195,-503.8314C195,-496.131 195,-486.9743 195,-478.4166"/>
<polygon fill="#c0c0c0" stroke="#c0c0c0" stroke-width="2" points="198.5001,-478.4132 195,-468.4133 191.5001,-478.4133 198.5001,-478.4132"/>
</g>
<!-- 14 -->
<g id="node15" class="node">
<title>14</title>
<path fill="none" stroke="#61d856" stroke-width="2" d="M354,-468C354,-468 272,-468 272,-468 266,-468 260,-462 260,-456 260,-456 260,-444 260,-444 260,-438 266,-432 272,-432 272,-432 354,-432 354,-432 360,-432 366,-438 366,-444 366,-444 366,-456 366,-456 366,-462 360,-468 354,-468"/>
<text text-anchor="middle" x="313" y="-447.5" font-family="sans" font-size="10.00" fill="#000000">count_background</text>
</g>
<!-- 12&#45;&gt;14 -->
<g id="edge25" class="edge">
<title>12&#45;&gt;14</title>
<path fill="none" stroke="#c0c0c0" stroke-width="2" d="M224.7764,-503.8314C239.8693,-494.6221 258.3757,-483.3301 274.5343,-473.4706"/>
<polygon fill="#c0c0c0" stroke="#c0c0c0" stroke-width="2" points="276.5198,-476.3593 283.2331,-468.1628 272.8737,-470.3838 276.5198,-476.3593"/>
</g>
<!-- 13 -->
<g id="node14" class="node">
<title>13</title>
<path fill="none" stroke="#d87556" stroke-width="2" d="M373.5,-756C373.5,-756 318.5,-756 318.5,-756 312.5,-756 306.5,-750 306.5,-744 306.5,-744 306.5,-732 306.5,-732 306.5,-726 312.5,-720 318.5,-720 318.5,-720 373.5,-720 373.5,-720 379.5,-720 385.5,-726 385.5,-732 385.5,-732 385.5,-744 385.5,-744 385.5,-750 379.5,-756 373.5,-756"/>
<text text-anchor="middle" x="346" y="-735.5" font-family="sans" font-size="10.00" fill="#000000">generate_gtf</text>
</g>
<!-- 13&#45;&gt;8 -->
<g id="edge16" class="edge">
<title>13&#45;&gt;8</title>
<path fill="none" stroke="#c0c0c0" stroke-width="2" d="M352.881,-719.9843C371.5166,-671.1929 423.062,-536.2377 445.4229,-477.6927"/>
<polygon fill="#c0c0c0" stroke="#c0c0c0" stroke-width="2" points="448.8231,-478.5995 449.1216,-468.0089 442.2839,-476.1018 448.8231,-478.5995"/>
</g>
<!-- 16 -->
<g id="node17" class="node">
<title>16</title>
<path fill="none" stroke="#d86656" stroke-width="2" d="M305.5,-684C305.5,-684 224.5,-684 224.5,-684 218.5,-684 212.5,-678 212.5,-672 212.5,-672 212.5,-660 212.5,-660 212.5,-654 218.5,-648 224.5,-648 224.5,-648 305.5,-648 305.5,-648 311.5,-648 317.5,-654 317.5,-660 317.5,-660 317.5,-672 317.5,-672 317.5,-678 311.5,-684 305.5,-684"/>
<text text-anchor="middle" x="265" y="-663.5" font-family="sans" font-size="10.00" fill="#000000">generate_genome</text>
</g>
<!-- 13&#45;&gt;16 -->
<g id="edge29" class="edge">
<title>13&#45;&gt;16</title>
<path fill="none" stroke="#c0c0c0" stroke-width="2" d="M325.5603,-719.8314C315.6795,-711.0485 303.6676,-700.3712 292.955,-690.8489"/>
<polygon fill="#c0c0c0" stroke="#c0c0c0" stroke-width="2" points="295.2326,-688.1906 285.4332,-684.1628 290.582,-693.4224 295.2326,-688.1906"/>
</g>
<!-- 18 -->
<g id="node19" class="node">
<title>18</title>
<path fill="none" stroke="#88d856" stroke-width="2" d="M349,-612C349,-612 305,-612 305,-612 299,-612 293,-606 293,-600 293,-600 293,-588 293,-588 293,-582 299,-576 305,-576 305,-576 349,-576 349,-576 355,-576 361,-582 361,-588 361,-588 361,-600 361,-600 361,-606 355,-612 349,-612"/>
<text text-anchor="middle" x="327" y="-591.5" font-family="sans" font-size="10.00" fill="#000000">shuffle_gtf</text>
</g>
<!-- 13&#45;&gt;18 -->
<g id="edge32" class="edge">
<title>13&#45;&gt;18</title>
<path fill="none" stroke="#c0c0c0" stroke-width="2" d="M343.5936,-719.7623C340.3529,-695.201 334.5535,-651.2474 330.7412,-622.3541"/>
<polygon fill="#c0c0c0" stroke="#c0c0c0" stroke-width="2" points="334.1649,-621.5458 329.3868,-612.0896 327.2251,-622.4616 334.1649,-621.5458"/>
</g>
<!-- 14&#45;&gt;9 -->
<g id="edge17" class="edge">
<title>14&#45;&gt;9</title>
<path fill="none" stroke="#c0c0c0" stroke-width="2" d="M319.5609,-431.8314C322.4027,-423.9617 325.7937,-414.5712 328.9419,-405.8533"/>
<polygon fill="#c0c0c0" stroke="#c0c0c0" stroke-width="2" points="332.2462,-407.0076 332.3508,-396.4133 325.6623,-404.63 332.2462,-407.0076"/>
</g>
<!-- 15 -->
<g id="node16" class="node">
<title>15</title>
<path fill="none" stroke="#5673d8" stroke-width="2" d="M224.5,-612C224.5,-612 165.5,-612 165.5,-612 159.5,-612 153.5,-606 153.5,-600 153.5,-600 153.5,-588 153.5,-588 153.5,-582 159.5,-576 165.5,-576 165.5,-576 224.5,-576 224.5,-576 230.5,-576 236.5,-582 236.5,-588 236.5,-588 236.5,-600 236.5,-600 236.5,-606 230.5,-612 224.5,-612"/>
<text text-anchor="middle" x="195" y="-591.5" font-family="sans" font-size="10.00" fill="#000000">first_mapping</text>
</g>
<!-- 15&#45;&gt;12 -->
<g id="edge24" class="edge">
<title>15&#45;&gt;12</title>
<path fill="none" stroke="#c0c0c0" stroke-width="2" d="M195,-575.8314C195,-568.131 195,-558.9743 195,-550.4166"/>
<polygon fill="#c0c0c0" stroke="#c0c0c0" stroke-width="2" points="198.5001,-550.4132 195,-540.4133 191.5001,-550.4133 198.5001,-550.4132"/>
</g>
<!-- 16&#45;&gt;12 -->
<g id="edge23" class="edge">
<title>16&#45;&gt;12</title>
<path fill="none" stroke="#c0c0c0" stroke-width="2" d="M263.76,-647.7973C261.8498,-628.9063 257.0386,-598.966 245,-576 239.5501,-565.6033 231.572,-555.7138 223.5824,-547.3067"/>
<polygon fill="#c0c0c0" stroke="#c0c0c0" stroke-width="2" points="225.8574,-544.6318 216.3139,-540.0305 220.9051,-549.5789 225.8574,-544.6318"/>
</g>
<!-- 16&#45;&gt;15 -->
<g id="edge28" class="edge">
<title>16&#45;&gt;15</title>
<path fill="none" stroke="#c0c0c0" stroke-width="2" d="M247.336,-647.8314C239.0268,-639.2848 228.9736,-628.9443 219.9082,-619.6198"/>
<polygon fill="#c0c0c0" stroke="#c0c0c0" stroke-width="2" points="222.3821,-617.1435 212.9018,-612.4133 217.3631,-622.023 222.3821,-617.1435"/>
</g>
<!-- 16&#45;&gt;18 -->
<g id="edge31" class="edge">
<title>16&#45;&gt;18</title>
<path fill="none" stroke="#c0c0c0" stroke-width="2" d="M280.6452,-647.8314C287.8591,-639.454 296.557,-629.3531 304.4605,-620.1749"/>
<polygon fill="#c0c0c0" stroke="#c0c0c0" stroke-width="2" points="307.2711,-622.2748 311.1441,-612.4133 301.9667,-617.7071 307.2711,-622.2748"/>
</g>
<!-- 17 -->
<g id="node18" class="node">
<title>17</title>
<path fill="none" stroke="#d8bc56" stroke-width="2" d="M161,-684C161,-684 131,-684 131,-684 125,-684 119,-678 119,-672 119,-672 119,-660 119,-660 119,-654 125,-648 131,-648 131,-648 161,-648 161,-648 167,-648 173,-654 173,-660 173,-660 173,-672 173,-672 173,-678 167,-684 161,-684"/>
<text text-anchor="middle" x="146" y="-663.5" font-family="sans" font-size="10.00" fill="#000000">gzip</text>
</g>
<!-- 17&#45;&gt;12 -->
<g id="edge22" class="edge">
<title>17&#45;&gt;12</title>
<path fill="none" stroke="#c0c0c0" stroke-width="2" d="M141.5376,-647.6767C137.8915,-628.9511 134.7037,-599.3822 144,-576 148.2676,-565.2659 155.7931,-555.4321 163.7739,-547.1828"/>
<polygon fill="#c0c0c0" stroke="#c0c0c0" stroke-width="2" points="166.3801,-549.5319 171.1509,-540.072 161.5221,-544.4921 166.3801,-549.5319"/>
</g>
<!-- 17&#45;&gt;15 -->
<g id="edge27" class="edge">
<title>17&#45;&gt;15</title>
<path fill="none" stroke="#c0c0c0" stroke-width="2" d="M158.3648,-647.8314C163.9509,-639.6232 170.663,-629.7606 176.8072,-620.7323"/>
<polygon fill="#c0c0c0" stroke="#c0c0c0" stroke-width="2" points="179.736,-622.6496 182.4687,-612.4133 173.949,-618.7112 179.736,-622.6496"/>
</g>
<!-- 18&#45;&gt;14 -->
<g id="edge26" class="edge">
<title>18&#45;&gt;14</title>
<path fill="none" stroke="#c0c0c0" stroke-width="2" d="M325.2269,-575.7623C322.839,-551.201 318.5657,-507.2474 315.7566,-478.3541"/>
<polygon fill="#c0c0c0" stroke="#c0c0c0" stroke-width="2" points="319.21,-477.704 314.7587,-468.0896 312.2429,-478.3814 319.21,-477.704"/>
</g>
<!-- 19 -->
<g id="node20" class="node">
<title>19</title>
<path fill="none" stroke="#c6d856" stroke-width="2" d="M163.5,-756C163.5,-756 128.5,-756 128.5,-756 122.5,-756 116.5,-750 116.5,-744 116.5,-744 116.5,-732 116.5,-732 116.5,-726 122.5,-720 128.5,-720 128.5,-720 163.5,-720 163.5,-720 169.5,-720 175.5,-726 175.5,-732 175.5,-732 175.5,-744 175.5,-744 175.5,-750 169.5,-756 163.5,-756"/>
<text text-anchor="middle" x="146" y="-735.5" font-family="sans" font-size="10.00" fill="#000000">cutadapt</text>
</g>
<!-- 19&#45;&gt;17 -->
<g id="edge30" class="edge">
<title>19&#45;&gt;17</title>
<path fill="none" stroke="#c0c0c0" stroke-width="2" d="M146,-719.8314C146,-712.131 146,-702.9743 146,-694.4166"/>
<polygon fill="#c0c0c0" stroke="#c0c0c0" stroke-width="2" points="149.5001,-694.4132 146,-684.4133 142.5001,-694.4133 149.5001,-694.4132"/>
</g>
<!-- 20 -->
<g id="node21" class="node">
<title>20</title>
<path fill="none" stroke="#d6d856" stroke-width="2" d="M161,-828C161,-828 131,-828 131,-828 125,-828 119,-822 119,-816 119,-816 119,-804 119,-804 119,-798 125,-792 131,-792 131,-792 161,-792 161,-792 167,-792 173,-798 173,-804 173,-804 173,-816 173,-816 173,-822 167,-828 161,-828"/>
<text text-anchor="middle" x="146" y="-807.5" font-family="sans" font-size="10.00" fill="#000000">repair</text>
</g>
<!-- 20&#45;&gt;19 -->
<g id="edge33" class="edge">
<title>20&#45;&gt;19</title>
<path fill="none" stroke="#c0c0c0" stroke-width="2" d="M146,-791.8314C146,-784.131 146,-774.9743 146,-766.4166"/>
<polygon fill="#c0c0c0" stroke="#c0c0c0" stroke-width="2" points="149.5001,-766.4132 146,-756.4133 142.5001,-766.4133 149.5001,-766.4132"/>
</g>
</g>
</svg>
