<?xml version="1.0" encoding="UTF-8" standalone="no"?>
<!DOCTYPE svg PUBLIC "-//W3C//DTD SVG 1.1//EN"
 "http://www.w3.org/Graphics/SVG/1.1/DTD/svg11.dtd">
<!-- Generated by graphviz version 2.40.1 (20161225.0304)
 -->
<!-- Title: snakemake_dag Pages: 1 -->
<svg width="862pt" height="764pt"
 viewBox="0.00 0.00 862.00 764.00" xmlns="http://www.w3.org/2000/svg" xmlns:xlink="http://www.w3.org/1999/xlink">
<g id="graph0" class="graph" transform="scale(1 1) rotate(0) translate(4 760)">
<title>snakemake_dag</title>
<polygon fill="#ffffff" stroke="transparent" points="-4,4 -4,-760 858,-760 858,4 -4,4"/>
<!-- 0 -->
<g id="node1" class="node">
<title>0</title>
<path fill="none" stroke="#56d86b" stroke-width="2" d="M514,-108C514,-108 475,-108 475,-108 469,-108 463,-102 463,-96 463,-96 463,-84 463,-84 463,-78 469,-72 475,-72 475,-72 514,-72 514,-72 520,-72 526,-78 526,-84 526,-84 526,-96 526,-96 526,-102 520,-108 514,-108"/>
<text text-anchor="middle" x="494.5" y="-87.5" font-family="sans" font-size="10.00" fill="#000000">deseq_all</text>
</g>
<!-- 1 -->
<g id="node2" class="node">
<title>1</title>
<path fill="none" stroke="#d86656" stroke-width="2" d="M179,-36C179,-36 60,-36 60,-36 54,-36 48,-30 48,-24 48,-24 48,-12 48,-12 48,-6 54,0 60,0 60,0 179,0 179,0 185,0 191,-6 191,-12 191,-12 191,-24 191,-24 191,-30 185,-36 179,-36"/>
<text text-anchor="middle" x="119.5" y="-15.5" font-family="sans" font-size="10.00" fill="#000000">correlate_clusters_to_mtp</text>
</g>
<!-- 2 -->
<g id="node3" class="node">
<title>2</title>
<path fill="none" stroke="#d87556" stroke-width="2" d="M253.5,-36C253.5,-36 221.5,-36 221.5,-36 215.5,-36 209.5,-30 209.5,-24 209.5,-24 209.5,-12 209.5,-12 209.5,-6 215.5,0 221.5,0 221.5,0 253.5,0 253.5,0 259.5,0 265.5,-6 265.5,-12 265.5,-12 265.5,-24 265.5,-24 265.5,-30 259.5,-36 253.5,-36"/>
<text text-anchor="middle" x="237.5" y="-15.5" font-family="sans" font-size="10.00" fill="#000000">cali_pca</text>
</g>
<!-- 3 -->
<g id="node4" class="node">
<title>3</title>
<path fill="none" stroke="#56d87b" stroke-width="2" d="M486.5,-324C486.5,-324 452.5,-324 452.5,-324 446.5,-324 440.5,-318 440.5,-312 440.5,-312 440.5,-300 440.5,-300 440.5,-294 446.5,-288 452.5,-288 452.5,-288 486.5,-288 486.5,-288 492.5,-288 498.5,-294 498.5,-300 498.5,-300 498.5,-312 498.5,-312 498.5,-318 492.5,-324 486.5,-324"/>
<text text-anchor="middle" x="469.5" y="-303.5" font-family="sans" font-size="10.00" fill="#000000">rlog_pca</text>
</g>
<!-- 4 -->
<g id="node5" class="node">
<title>4</title>
<path fill="none" stroke="#d8b456" stroke-width="2" d="M256,-108C256,-108 215,-108 215,-108 209,-108 203,-102 203,-96 203,-96 203,-84 203,-84 203,-78 209,-72 215,-72 215,-72 256,-72 256,-72 262,-72 268,-78 268,-84 268,-84 268,-96 268,-96 268,-102 262,-108 256,-108"/>
<text text-anchor="middle" x="235.5" y="-87.5" font-family="sans" font-size="10.00" fill="#000000">mfuzz_tfs</text>
</g>
<!-- 4&#45;&gt;1 -->
<g id="edge2" class="edge">
<title>4&#45;&gt;1</title>
<path fill="none" stroke="#c0c0c0" stroke-width="2" d="M206.2283,-71.8314C191.3912,-62.6221 173.1985,-51.3301 157.3138,-41.4706"/>
<polygon fill="#c0c0c0" stroke="#c0c0c0" stroke-width="2" points="159.1045,-38.4628 148.7623,-36.1628 155.413,-44.4102 159.1045,-38.4628"/>
</g>
<!-- 4&#45;&gt;2 -->
<g id="edge4" class="edge">
<title>4&#45;&gt;2</title>
<path fill="none" stroke="#c0c0c0" stroke-width="2" d="M236.0047,-71.8314C236.2186,-64.131 236.4729,-54.9743 236.7106,-46.4166"/>
<polygon fill="#c0c0c0" stroke="#c0c0c0" stroke-width="2" points="240.2094,-46.5066 236.9885,-36.4133 233.2121,-46.3122 240.2094,-46.5066"/>
</g>
<!-- 5 -->
<g id="node6" class="node">
<title>5</title>
<path fill="none" stroke="#5692d8" stroke-width="2" d="M782,-108C782,-108 727,-108 727,-108 721,-108 715,-102 715,-96 715,-96 715,-84 715,-84 715,-78 721,-72 727,-72 727,-72 782,-72 782,-72 788,-72 794,-78 794,-84 794,-84 794,-96 794,-96 794,-102 788,-108 782,-108"/>
<text text-anchor="middle" x="754.5" y="-87.5" font-family="sans" font-size="10.00" fill="#000000">call_variants</text>
</g>
<!-- 6 -->
<g id="node7" class="node">
<title>6</title>
<path fill="none" stroke="#d8d356" stroke-width="2" d="M343.5,-108C343.5,-108 303.5,-108 303.5,-108 297.5,-108 291.5,-102 291.5,-96 291.5,-96 291.5,-84 291.5,-84 291.5,-78 297.5,-72 303.5,-72 303.5,-72 343.5,-72 343.5,-72 349.5,-72 355.5,-78 355.5,-84 355.5,-84 355.5,-96 355.5,-96 355.5,-102 349.5,-108 343.5,-108"/>
<text text-anchor="middle" x="323.5" y="-87.5" font-family="sans" font-size="10.00" fill="#000000">deseq_tfs</text>
</g>
<!-- 7 -->
<g id="node8" class="node">
<title>7</title>
<path fill="none" stroke="#9fd856" stroke-width="2" d="M537,-180C537,-180 452,-180 452,-180 446,-180 440,-174 440,-168 440,-168 440,-156 440,-156 440,-150 446,-144 452,-144 452,-144 537,-144 537,-144 543,-144 549,-150 549,-156 549,-156 549,-168 549,-168 549,-174 543,-180 537,-180"/>
<text text-anchor="middle" x="494.5" y="-159.5" font-family="sans" font-size="10.00" fill="#000000">filter_deseq_object</text>
</g>
<!-- 7&#45;&gt;0 -->
<g id="edge1" class="edge">
<title>7&#45;&gt;0</title>
<path fill="none" stroke="#c0c0c0" stroke-width="2" d="M494.5,-143.8314C494.5,-136.131 494.5,-126.9743 494.5,-118.4166"/>
<polygon fill="#c0c0c0" stroke="#c0c0c0" stroke-width="2" points="498.0001,-118.4132 494.5,-108.4133 491.0001,-118.4133 498.0001,-118.4132"/>
</g>
<!-- 8 -->
<g id="node9" class="node">
<title>8</title>
<path fill="none" stroke="#ced856" stroke-width="2" d="M171,-108C171,-108 76,-108 76,-108 70,-108 64,-102 64,-96 64,-96 64,-84 64,-84 64,-78 70,-72 76,-72 76,-72 171,-72 171,-72 177,-72 183,-78 183,-84 183,-84 183,-96 183,-96 183,-102 177,-108 171,-108"/>
<text text-anchor="middle" x="123.5" y="-87.5" font-family="sans" font-size="10.00" fill="#000000">tidy_phenotype_data</text>
</g>
<!-- 8&#45;&gt;1 -->
<g id="edge3" class="edge">
<title>8&#45;&gt;1</title>
<path fill="none" stroke="#c0c0c0" stroke-width="2" d="M122.4906,-71.8314C122.0628,-64.131 121.5541,-54.9743 121.0787,-46.4166"/>
<polygon fill="#c0c0c0" stroke="#c0c0c0" stroke-width="2" points="124.5724,-46.2037 120.523,-36.4133 117.5831,-46.592 124.5724,-46.2037"/>
</g>
<!-- 8&#45;&gt;2 -->
<g id="edge5" class="edge">
<title>8&#45;&gt;2</title>
<path fill="none" stroke="#c0c0c0" stroke-width="2" d="M152.267,-71.8314C166.8236,-62.6377 184.6667,-51.3684 200.2587,-41.5208"/>
<polygon fill="#c0c0c0" stroke="#c0c0c0" stroke-width="2" points="202.5512,-44.2126 209.1371,-35.9134 198.8132,-38.2942 202.5512,-44.2126"/>
</g>
<!-- 9 -->
<g id="node10" class="node">
<title>9</title>
<path fill="none" stroke="#bed856" stroke-width="2" d="M522.5,-396C522.5,-396 416.5,-396 416.5,-396 410.5,-396 404.5,-390 404.5,-384 404.5,-384 404.5,-372 404.5,-372 404.5,-366 410.5,-360 416.5,-360 416.5,-360 522.5,-360 522.5,-360 528.5,-360 534.5,-366 534.5,-372 534.5,-372 534.5,-384 534.5,-384 534.5,-390 528.5,-396 522.5,-396"/>
<text text-anchor="middle" x="469.5" y="-375.5" font-family="sans" font-size="10.00" fill="#000000">generate_deseq_object</text>
</g>
<!-- 9&#45;&gt;3 -->
<g id="edge6" class="edge">
<title>9&#45;&gt;3</title>
<path fill="none" stroke="#c0c0c0" stroke-width="2" d="M469.5,-359.8314C469.5,-352.131 469.5,-342.9743 469.5,-334.4166"/>
<polygon fill="#c0c0c0" stroke="#c0c0c0" stroke-width="2" points="473.0001,-334.4132 469.5,-324.4133 466.0001,-334.4133 473.0001,-334.4132"/>
</g>
<!-- 9&#45;&gt;7 -->
<g id="edge12" class="edge">
<title>9&#45;&gt;7</title>
<path fill="none" stroke="#c0c0c0" stroke-width="2" d="M495.7563,-359.8151C506.8422,-350.5285 518.5458,-338.1902 524.5,-324 543.3361,-279.1093 523.8658,-222.3028 508.6986,-189.267"/>
<polygon fill="#c0c0c0" stroke="#c0c0c0" stroke-width="2" points="511.8423,-187.7279 504.3738,-180.213 505.5259,-190.7451 511.8423,-187.7279"/>
</g>
<!-- 11 -->
<g id="node12" class="node">
<title>11</title>
<path fill="none" stroke="#56d85b" stroke-width="2" d="M340,-180C340,-180 307,-180 307,-180 301,-180 295,-174 295,-168 295,-168 295,-156 295,-156 295,-150 301,-144 307,-144 307,-144 340,-144 340,-144 346,-144 352,-150 352,-156 352,-156 352,-168 352,-168 352,-174 346,-180 340,-180"/>
<text text-anchor="middle" x="323.5" y="-159.5" font-family="sans" font-size="10.00" fill="#000000">filter_tfs</text>
</g>
<!-- 9&#45;&gt;11 -->
<g id="edge16" class="edge">
<title>9&#45;&gt;11</title>
<path fill="none" stroke="#c0c0c0" stroke-width="2" d="M454.8026,-359.8135C447.1297,-349.7005 438.0107,-336.6362 431.5,-324 408.1939,-278.7666 423.3146,-257.235 393.5,-216 384.7436,-203.8895 372.5219,-193.1796 360.7376,-184.5569"/>
<polygon fill="#c0c0c0" stroke="#c0c0c0" stroke-width="2" points="362.4924,-181.5133 352.2899,-178.6568 358.4842,-187.2522 362.4924,-181.5133"/>
</g>
<!-- 13 -->
<g id="node14" class="node">
<title>13</title>
<path fill="none" stroke="#56d88a" stroke-width="2" d="M372,-252C372,-252 297,-252 297,-252 291,-252 285,-246 285,-240 285,-240 285,-228 285,-228 285,-222 291,-216 297,-216 297,-216 372,-216 372,-216 378,-216 384,-222 384,-228 384,-228 384,-240 384,-240 384,-246 378,-252 372,-252"/>
<text text-anchor="middle" x="334.5" y="-231.5" font-family="sans" font-size="10.00" fill="#000000">calculate_cutoffs</text>
</g>
<!-- 9&#45;&gt;13 -->
<g id="edge23" class="edge">
<title>9&#45;&gt;13</title>
<path fill="none" stroke="#c0c0c0" stroke-width="2" d="M487.3862,-359.8147C503.995,-340.6685 523.8793,-310.2713 507.5,-288 493.7655,-269.3248 438.5233,-254.2573 394.1083,-244.8318"/>
<polygon fill="#c0c0c0" stroke="#c0c0c0" stroke-width="2" points="394.741,-241.3886 384.2394,-242.7909 393.3234,-248.2436 394.741,-241.3886"/>
</g>
<!-- 18 -->
<g id="node19" class="node">
<title>18</title>
<path fill="none" stroke="#56d8a9" stroke-width="2" d="M372.5,-324C372.5,-324 310.5,-324 310.5,-324 304.5,-324 298.5,-318 298.5,-312 298.5,-312 298.5,-300 298.5,-300 298.5,-294 304.5,-288 310.5,-288 310.5,-288 372.5,-288 372.5,-288 378.5,-288 384.5,-294 384.5,-300 384.5,-300 384.5,-312 384.5,-312 384.5,-318 378.5,-324 372.5,-324"/>
<text text-anchor="middle" x="341.5" y="-303.5" font-family="sans" font-size="10.00" fill="#000000">calculate_tpm</text>
</g>
<!-- 9&#45;&gt;18 -->
<g id="edge32" class="edge">
<title>9&#45;&gt;18</title>
<path fill="none" stroke="#c0c0c0" stroke-width="2" d="M437.2002,-359.8314C420.6766,-350.5368 400.3814,-339.1208 382.7393,-329.1971"/>
<polygon fill="#c0c0c0" stroke="#c0c0c0" stroke-width="2" points="384.2212,-326.015 373.7895,-324.1628 380.7893,-332.116 384.2212,-326.015"/>
</g>
<!-- 10 -->
<g id="node11" class="node">
<title>10</title>
<path fill="none" stroke="#56d8c9" stroke-width="2" d="M254.5,-252C254.5,-252 204.5,-252 204.5,-252 198.5,-252 192.5,-246 192.5,-240 192.5,-240 192.5,-228 192.5,-228 192.5,-222 198.5,-216 204.5,-216 204.5,-216 254.5,-216 254.5,-216 260.5,-216 266.5,-222 266.5,-228 266.5,-228 266.5,-240 266.5,-240 266.5,-246 260.5,-252 254.5,-252"/>
<text text-anchor="middle" x="229.5" y="-231.5" font-family="sans" font-size="10.00" fill="#000000">format_tfdb</text>
</g>
<!-- 10&#45;&gt;4 -->
<g id="edge7" class="edge">
<title>10&#45;&gt;4</title>
<path fill="none" stroke="#c0c0c0" stroke-width="2" d="M230.2599,-215.7623C231.2833,-191.201 233.1147,-147.2474 234.3186,-118.3541"/>
<polygon fill="#c0c0c0" stroke="#c0c0c0" stroke-width="2" points="237.8268,-118.2267 234.7463,-108.0896 230.8329,-117.9352 237.8268,-118.2267"/>
</g>
<!-- 10&#45;&gt;11 -->
<g id="edge14" class="edge">
<title>10&#45;&gt;11</title>
<path fill="none" stroke="#c0c0c0" stroke-width="2" d="M253.2202,-215.8314C264.9094,-206.8779 279.1688,-195.9558 291.7809,-186.2955"/>
<polygon fill="#c0c0c0" stroke="#c0c0c0" stroke-width="2" points="293.9769,-189.0222 299.7874,-180.1628 289.7203,-183.4651 293.9769,-189.0222"/>
</g>
<!-- 11&#45;&gt;4 -->
<g id="edge8" class="edge">
<title>11&#45;&gt;4</title>
<path fill="none" stroke="#c0c0c0" stroke-width="2" d="M301.2939,-143.8314C290.455,-134.9632 277.2556,-124.1637 265.5322,-114.5718"/>
<polygon fill="#c0c0c0" stroke="#c0c0c0" stroke-width="2" points="267.655,-111.7864 257.699,-108.1628 263.2223,-117.2041 267.655,-111.7864"/>
</g>
<!-- 11&#45;&gt;6 -->
<g id="edge10" class="edge">
<title>11&#45;&gt;6</title>
<path fill="none" stroke="#c0c0c0" stroke-width="2" d="M323.5,-143.8314C323.5,-136.131 323.5,-126.9743 323.5,-118.4166"/>
<polygon fill="#c0c0c0" stroke="#c0c0c0" stroke-width="2" points="327.0001,-118.4132 323.5,-108.4133 320.0001,-118.4133 327.0001,-118.4132"/>
</g>
<!-- 12 -->
<g id="node13" class="node">
<title>12</title>
<path fill="none" stroke="#5663d8" stroke-width="2" d="M770.5,-180C770.5,-180 738.5,-180 738.5,-180 732.5,-180 726.5,-174 726.5,-168 726.5,-168 726.5,-156 726.5,-156 726.5,-150 732.5,-144 738.5,-144 738.5,-144 770.5,-144 770.5,-144 776.5,-144 782.5,-150 782.5,-156 782.5,-156 782.5,-168 782.5,-168 782.5,-174 776.5,-180 770.5,-180"/>
<text text-anchor="middle" x="754.5" y="-159.5" font-family="sans" font-size="10.00" fill="#000000">mpileup</text>
</g>
<!-- 12&#45;&gt;5 -->
<g id="edge9" class="edge">
<title>12&#45;&gt;5</title>
<path fill="none" stroke="#c0c0c0" stroke-width="2" d="M754.5,-143.8314C754.5,-136.131 754.5,-126.9743 754.5,-118.4166"/>
<polygon fill="#c0c0c0" stroke="#c0c0c0" stroke-width="2" points="758.0001,-118.4132 754.5,-108.4133 751.0001,-118.4133 758.0001,-118.4132"/>
</g>
<!-- 13&#45;&gt;7 -->
<g id="edge11" class="edge">
<title>13&#45;&gt;7</title>
<path fill="none" stroke="#c0c0c0" stroke-width="2" d="M374.8748,-215.8314C396.1787,-206.2446 422.4983,-194.4008 445.0211,-184.2655"/>
<polygon fill="#c0c0c0" stroke="#c0c0c0" stroke-width="2" points="446.7326,-187.3334 454.4156,-180.038 443.8601,-180.95 446.7326,-187.3334"/>
</g>
<!-- 13&#45;&gt;11 -->
<g id="edge15" class="edge">
<title>13&#45;&gt;11</title>
<path fill="none" stroke="#c0c0c0" stroke-width="2" d="M331.7242,-215.8314C330.5478,-208.131 329.1489,-198.9743 327.8414,-190.4166"/>
<polygon fill="#c0c0c0" stroke="#c0c0c0" stroke-width="2" points="331.2833,-189.7699 326.3131,-180.4133 324.3636,-190.8272 331.2833,-189.7699"/>
</g>
<!-- 14 -->
<g id="node15" class="node">
<title>14</title>
<path fill="none" stroke="#70d856" stroke-width="2" d="M380,-468C380,-468 305,-468 305,-468 299,-468 293,-462 293,-456 293,-456 293,-444 293,-444 293,-438 299,-432 305,-432 305,-432 380,-432 380,-432 386,-432 392,-438 392,-444 392,-444 392,-456 392,-456 392,-462 386,-468 380,-468"/>
<text text-anchor="middle" x="342.5" y="-447.5" font-family="sans" font-size="10.00" fill="#000000">second_mapping</text>
</g>
<!-- 14&#45;&gt;9 -->
<g id="edge13" class="edge">
<title>14&#45;&gt;9</title>
<path fill="none" stroke="#c0c0c0" stroke-width="2" d="M374.5475,-431.8314C390.942,-422.5368 411.0786,-411.1208 428.5829,-401.1971"/>
<polygon fill="#c0c0c0" stroke="#c0c0c0" stroke-width="2" points="430.4897,-404.1395 437.4628,-396.1628 427.0374,-398.05 430.4897,-404.1395"/>
</g>
<!-- 20 -->
<g id="node21" class="node">
<title>20</title>
<path fill="none" stroke="#56d0d8" stroke-width="2" d="M374,-396C374,-396 305,-396 305,-396 299,-396 293,-390 293,-384 293,-384 293,-372 293,-372 293,-366 299,-360 305,-360 305,-360 374,-360 374,-360 380,-360 386,-366 386,-372 386,-372 386,-384 386,-384 386,-390 380,-396 374,-396"/>
<text text-anchor="middle" x="339.5" y="-375.5" font-family="sans" font-size="10.00" fill="#000000">parse_star_logs</text>
</g>
<!-- 14&#45;&gt;20 -->
<g id="edge35" class="edge">
<title>14&#45;&gt;20</title>
<path fill="none" stroke="#c0c0c0" stroke-width="2" d="M341.743,-431.8314C341.4221,-424.131 341.0406,-414.9743 340.684,-406.4166"/>
<polygon fill="#c0c0c0" stroke="#c0c0c0" stroke-width="2" points="344.1806,-406.2589 340.2672,-396.4133 337.1867,-406.5503 344.1806,-406.2589"/>
</g>
<!-- 25 -->
<g id="node26" class="node">
<title>25</title>
<path fill="none" stroke="#56d8b9" stroke-width="2" d="M668,-396C668,-396 609,-396 609,-396 603,-396 597,-390 597,-384 597,-384 597,-372 597,-372 597,-366 603,-360 609,-360 609,-360 668,-360 668,-360 674,-360 680,-366 680,-372 680,-372 680,-384 680,-384 680,-390 674,-396 668,-396"/>
<text text-anchor="middle" x="638.5" y="-375.5" font-family="sans" font-size="10.00" fill="#000000">sort_bamfiles</text>
</g>
<!-- 14&#45;&gt;25 -->
<g id="edge41" class="edge">
<title>14&#45;&gt;25</title>
<path fill="none" stroke="#c0c0c0" stroke-width="2" d="M392.0437,-437.9488C446.116,-424.7961 532.2776,-403.8379 587.0791,-390.5078"/>
<polygon fill="#c0c0c0" stroke="#c0c0c0" stroke-width="2" points="588.0426,-393.8756 596.932,-388.1111 586.3881,-387.0739 588.0426,-393.8756"/>
</g>
<!-- 27 -->
<g id="node28" class="node">
<title>27</title>
<path fill="none" stroke="#61d856" stroke-width="2" d="M255.5,-396C255.5,-396 173.5,-396 173.5,-396 167.5,-396 161.5,-390 161.5,-384 161.5,-384 161.5,-372 161.5,-372 161.5,-366 167.5,-360 173.5,-360 173.5,-360 255.5,-360 255.5,-360 261.5,-360 267.5,-366 267.5,-372 267.5,-372 267.5,-384 267.5,-384 267.5,-390 261.5,-396 255.5,-396"/>
<text text-anchor="middle" x="214.5" y="-375.5" font-family="sans" font-size="10.00" fill="#000000">count_background</text>
</g>
<!-- 14&#45;&gt;27 -->
<g id="edge43" class="edge">
<title>14&#45;&gt;27</title>
<path fill="none" stroke="#c0c0c0" stroke-width="2" d="M310.2002,-431.8314C293.6766,-422.5368 273.3814,-411.1208 255.7393,-401.1971"/>
<polygon fill="#c0c0c0" stroke="#c0c0c0" stroke-width="2" points="257.2212,-398.015 246.7895,-396.1628 253.7893,-404.116 257.2212,-398.015"/>
</g>
<!-- 15 -->
<g id="node16" class="node">
<title>15</title>
<path fill="none" stroke="#5682d8" stroke-width="2" d="M750.5,-252C750.5,-252 678.5,-252 678.5,-252 672.5,-252 666.5,-246 666.5,-240 666.5,-240 666.5,-228 666.5,-228 666.5,-222 672.5,-216 678.5,-216 678.5,-216 750.5,-216 750.5,-216 756.5,-216 762.5,-222 762.5,-228 762.5,-228 762.5,-240 762.5,-240 762.5,-246 756.5,-252 750.5,-252"/>
<text text-anchor="middle" x="714.5" y="-231.5" font-family="sans" font-size="10.00" fill="#000000">subset_bamfiles</text>
</g>
<!-- 15&#45;&gt;12 -->
<g id="edge17" class="edge">
<title>15&#45;&gt;12</title>
<path fill="none" stroke="#c0c0c0" stroke-width="2" d="M724.5937,-215.8314C729.0597,-207.7925 734.4075,-198.1666 739.3379,-189.2918"/>
<polygon fill="#c0c0c0" stroke="#c0c0c0" stroke-width="2" points="742.4735,-190.8546 744.2704,-180.4133 736.3544,-187.4551 742.4735,-190.8546"/>
</g>
<!-- 16 -->
<g id="node17" class="node">
<title>16</title>
<path fill="none" stroke="#afd856" stroke-width="2" d="M842,-324C842,-324 753,-324 753,-324 747,-324 741,-318 741,-312 741,-312 741,-300 741,-300 741,-294 747,-288 753,-288 753,-288 842,-288 842,-288 848,-288 854,-294 854,-300 854,-300 854,-312 854,-312 854,-318 848,-324 842,-324"/>
<text text-anchor="middle" x="797.5" y="-303.5" font-family="sans" font-size="10.00" fill="#000000">extract_goi_regions</text>
</g>
<!-- 16&#45;&gt;12 -->
<g id="edge18" class="edge">
<title>16&#45;&gt;12</title>
<path fill="none" stroke="#c0c0c0" stroke-width="2" d="M792.3485,-287.691C787.1919,-269.4791 778.9717,-240.7567 771.5,-216 768.9562,-207.5712 766.1111,-198.4294 763.4871,-190.1055"/>
<polygon fill="#c0c0c0" stroke="#c0c0c0" stroke-width="2" points="766.7882,-188.9365 760.4311,-180.4608 760.1152,-191.051 766.7882,-188.9365"/>
</g>
<!-- 16&#45;&gt;15 -->
<g id="edge28" class="edge">
<title>16&#45;&gt;15</title>
<path fill="none" stroke="#c0c0c0" stroke-width="2" d="M776.5556,-287.8314C766.4309,-279.0485 754.1223,-268.3712 743.1452,-258.8489"/>
<polygon fill="#c0c0c0" stroke="#c0c0c0" stroke-width="2" points="745.2851,-256.0718 735.4377,-252.1628 740.6981,-261.3595 745.2851,-256.0718"/>
</g>
<!-- 17 -->
<g id="node18" class="node">
<title>17</title>
<path fill="none" stroke="#56b1d8" stroke-width="2" d="M131,-396C131,-396 12,-396 12,-396 6,-396 0,-390 0,-384 0,-384 0,-372 0,-372 0,-366 6,-360 12,-360 12,-360 131,-360 131,-360 137,-360 143,-366 143,-372 143,-372 143,-384 143,-384 143,-390 137,-396 131,-396"/>
<text text-anchor="middle" x="71.5" y="-375.5" font-family="sans" font-size="10.00" fill="#000000">calculate_feature_lengths</text>
</g>
<!-- 17&#45;&gt;13 -->
<g id="edge21" class="edge">
<title>17&#45;&gt;13</title>
<path fill="none" stroke="#c0c0c0" stroke-width="2" d="M66.2982,-359.697C61.8006,-339.5842 58.4085,-307.5439 75.5,-288 103.4861,-255.9984 217.1268,-261.7456 274.6634,-251.709"/>
<polygon fill="#c0c0c0" stroke="#c0c0c0" stroke-width="2" points="275.6317,-255.0832 284.7205,-249.6387 274.2202,-248.227 275.6317,-255.0832"/>
</g>
<!-- 17&#45;&gt;18 -->
<g id="edge31" class="edge">
<title>17&#45;&gt;18</title>
<path fill="none" stroke="#c0c0c0" stroke-width="2" d="M139.2839,-359.9243C185.4163,-347.6223 245.608,-331.5712 288.2917,-320.1889"/>
<polygon fill="#c0c0c0" stroke="#c0c0c0" stroke-width="2" points="289.443,-323.5043 298.2035,-317.5457 287.6393,-316.7406 289.443,-323.5043"/>
</g>
<!-- 18&#45;&gt;13 -->
<g id="edge19" class="edge">
<title>18&#45;&gt;13</title>
<path fill="none" stroke="#c0c0c0" stroke-width="2" d="M339.7336,-287.8314C338.985,-280.131 338.0947,-270.9743 337.2627,-262.4166"/>
<polygon fill="#c0c0c0" stroke="#c0c0c0" stroke-width="2" points="340.7415,-262.0276 336.2902,-252.4133 333.7744,-262.7051 340.7415,-262.0276"/>
</g>
<!-- 19 -->
<g id="node20" class="node">
<title>19</title>
<path fill="none" stroke="#d8c356" stroke-width="2" d="M230.5,-324C230.5,-324 96.5,-324 96.5,-324 90.5,-324 84.5,-318 84.5,-312 84.5,-312 84.5,-300 84.5,-300 84.5,-294 90.5,-288 96.5,-288 96.5,-288 230.5,-288 230.5,-288 236.5,-288 242.5,-294 242.5,-300 242.5,-300 242.5,-312 242.5,-312 242.5,-318 236.5,-324 230.5,-324"/>
<text text-anchor="middle" x="163.5" y="-303.5" font-family="sans" font-size="10.00" fill="#000000">combine_background_counts</text>
</g>
<!-- 19&#45;&gt;13 -->
<g id="edge22" class="edge">
<title>19&#45;&gt;13</title>
<path fill="none" stroke="#c0c0c0" stroke-width="2" d="M206.6505,-287.8314C229.6224,-278.159 258.0509,-266.1891 282.2632,-255.9944"/>
<polygon fill="#c0c0c0" stroke="#c0c0c0" stroke-width="2" points="283.8016,-259.1443 291.6598,-252.038 281.0852,-252.6929 283.8016,-259.1443"/>
</g>
<!-- 20&#45;&gt;13 -->
<g id="edge20" class="edge">
<title>20&#45;&gt;13</title>
<path fill="none" stroke="#c0c0c0" stroke-width="2" d="M316.1091,-359.838C305.8667,-350.3937 294.9541,-337.9182 289.5,-324 283.6623,-309.103 284.0532,-303.0443 289.5,-288 293.2149,-277.7392 299.8252,-268.0579 306.8548,-259.8033"/>
<polygon fill="#c0c0c0" stroke="#c0c0c0" stroke-width="2" points="309.4944,-262.1031 313.6422,-252.3539 304.32,-257.3886 309.4944,-262.1031"/>
</g>
<!-- 20&#45;&gt;18 -->
<g id="edge33" class="edge">
<title>20&#45;&gt;18</title>
<path fill="none" stroke="#c0c0c0" stroke-width="2" d="M340.0047,-359.8314C340.2186,-352.131 340.4729,-342.9743 340.7106,-334.4166"/>
<polygon fill="#c0c0c0" stroke="#c0c0c0" stroke-width="2" points="344.2094,-334.5066 340.9885,-324.4133 337.2121,-334.3122 344.2094,-334.5066"/>
</g>
<!-- 21 -->
<g id="node22" class="node">
<title>21</title>
<path fill="none" stroke="#56a2d8" stroke-width="2" d="M372,-540C372,-540 313,-540 313,-540 307,-540 301,-534 301,-528 301,-528 301,-516 301,-516 301,-510 307,-504 313,-504 313,-504 372,-504 372,-504 378,-504 384,-510 384,-516 384,-516 384,-528 384,-528 384,-534 378,-540 372,-540"/>
<text text-anchor="middle" x="342.5" y="-519.5" font-family="sans" font-size="10.00" fill="#000000">first_mapping</text>
</g>
<!-- 21&#45;&gt;14 -->
<g id="edge24" class="edge">
<title>21&#45;&gt;14</title>
<path fill="none" stroke="#c0c0c0" stroke-width="2" d="M342.5,-503.8314C342.5,-496.131 342.5,-486.9743 342.5,-478.4166"/>
<polygon fill="#c0c0c0" stroke="#c0c0c0" stroke-width="2" points="346.0001,-478.4132 342.5,-468.4133 339.0001,-478.4133 346.0001,-478.4132"/>
</g>
<!-- 22 -->
<g id="node23" class="node">
<title>22</title>
<path fill="none" stroke="#5673d8" stroke-width="2" d="M406.5,-612C406.5,-612 376.5,-612 376.5,-612 370.5,-612 364.5,-606 364.5,-600 364.5,-600 364.5,-588 364.5,-588 364.5,-582 370.5,-576 376.5,-576 376.5,-576 406.5,-576 406.5,-576 412.5,-576 418.5,-582 418.5,-588 418.5,-588 418.5,-600 418.5,-600 418.5,-606 412.5,-612 406.5,-612"/>
<text text-anchor="middle" x="391.5" y="-591.5" font-family="sans" font-size="10.00" fill="#000000">gzip</text>
</g>
<!-- 22&#45;&gt;14 -->
<g id="edge26" class="edge">
<title>22&#45;&gt;14</title>
<path fill="none" stroke="#c0c0c0" stroke-width="2" d="M395.9624,-575.6767C399.6085,-556.9511 402.7963,-527.3822 393.5,-504 389.2324,-493.2659 381.7069,-483.4321 373.7261,-475.1828"/>
<polygon fill="#c0c0c0" stroke="#c0c0c0" stroke-width="2" points="375.9779,-472.4921 366.3491,-468.072 371.1199,-477.5319 375.9779,-472.4921"/>
</g>
<!-- 22&#45;&gt;21 -->
<g id="edge37" class="edge">
<title>22&#45;&gt;21</title>
<path fill="none" stroke="#c0c0c0" stroke-width="2" d="M379.1352,-575.8314C373.5491,-567.6232 366.837,-557.7606 360.6928,-548.7323"/>
<polygon fill="#c0c0c0" stroke="#c0c0c0" stroke-width="2" points="363.551,-546.7112 355.0313,-540.4133 357.764,-550.6496 363.551,-546.7112"/>
</g>
<!-- 23 -->
<g id="node24" class="node">
<title>23</title>
<path fill="none" stroke="#56d89a" stroke-width="2" d="M313,-612C313,-612 232,-612 232,-612 226,-612 220,-606 220,-600 220,-600 220,-588 220,-588 220,-582 226,-576 232,-576 232,-576 313,-576 313,-576 319,-576 325,-582 325,-588 325,-588 325,-600 325,-600 325,-606 319,-612 313,-612"/>
<text text-anchor="middle" x="272.5" y="-591.5" font-family="sans" font-size="10.00" fill="#000000">generate_genome</text>
</g>
<!-- 23&#45;&gt;14 -->
<g id="edge25" class="edge">
<title>23&#45;&gt;14</title>
<path fill="none" stroke="#c0c0c0" stroke-width="2" d="M273.74,-575.7973C275.6502,-556.9063 280.4614,-526.966 292.5,-504 297.9499,-493.6033 305.928,-483.7138 313.9176,-475.3067"/>
<polygon fill="#c0c0c0" stroke="#c0c0c0" stroke-width="2" points="316.5949,-477.5789 321.1861,-468.0305 311.6426,-472.6318 316.5949,-477.5789"/>
</g>
<!-- 23&#45;&gt;21 -->
<g id="edge36" class="edge">
<title>23&#45;&gt;21</title>
<path fill="none" stroke="#c0c0c0" stroke-width="2" d="M290.164,-575.8314C298.4732,-567.2848 308.5264,-556.9443 317.5918,-547.6198"/>
<polygon fill="#c0c0c0" stroke="#c0c0c0" stroke-width="2" points="320.1369,-550.023 324.5982,-540.4133 315.1179,-545.1435 320.1369,-550.023"/>
</g>
<!-- 29 -->
<g id="node30" class="node">
<title>29</title>
<path fill="none" stroke="#d89556" stroke-width="2" d="M232.5,-540C232.5,-540 188.5,-540 188.5,-540 182.5,-540 176.5,-534 176.5,-528 176.5,-528 176.5,-516 176.5,-516 176.5,-510 182.5,-504 188.5,-504 188.5,-504 232.5,-504 232.5,-504 238.5,-504 244.5,-510 244.5,-516 244.5,-516 244.5,-528 244.5,-528 244.5,-534 238.5,-540 232.5,-540"/>
<text text-anchor="middle" x="210.5" y="-519.5" font-family="sans" font-size="10.00" fill="#000000">shuffle_gtf</text>
</g>
<!-- 23&#45;&gt;29 -->
<g id="edge46" class="edge">
<title>23&#45;&gt;29</title>
<path fill="none" stroke="#c0c0c0" stroke-width="2" d="M256.8548,-575.8314C249.6409,-567.454 240.943,-557.3531 233.0395,-548.1749"/>
<polygon fill="#c0c0c0" stroke="#c0c0c0" stroke-width="2" points="235.5333,-545.7071 226.3559,-540.4133 230.2289,-550.2748 235.5333,-545.7071"/>
</g>
<!-- 24 -->
<g id="node25" class="node">
<title>24</title>
<path fill="none" stroke="#d88556" stroke-width="2" d="M672,-324C672,-324 605,-324 605,-324 599,-324 593,-318 593,-312 593,-312 593,-300 593,-300 593,-294 599,-288 605,-288 605,-288 672,-288 672,-288 678,-288 684,-294 684,-300 684,-300 684,-312 684,-312 684,-318 678,-324 672,-324"/>
<text text-anchor="middle" x="638.5" y="-303.5" font-family="sans" font-size="10.00" fill="#000000">index_bamfiles</text>
</g>
<!-- 24&#45;&gt;15 -->
<g id="edge27" class="edge">
<title>24&#45;&gt;15</title>
<path fill="none" stroke="#c0c0c0" stroke-width="2" d="M657.678,-287.8314C666.8588,-279.1337 678.0006,-268.5783 687.9776,-259.1265"/>
<polygon fill="#c0c0c0" stroke="#c0c0c0" stroke-width="2" points="690.4757,-261.5811 695.3281,-252.1628 685.6615,-256.4995 690.4757,-261.5811"/>
</g>
<!-- 25&#45;&gt;15 -->
<g id="edge29" class="edge">
<title>25&#45;&gt;15</title>
<path fill="none" stroke="#c0c0c0" stroke-width="2" d="M662.4733,-359.8432C673.4756,-350.3147 685.7654,-337.7662 693.5,-324 704.1432,-305.0572 709.4025,-280.9706 711.9958,-262.4832"/>
<polygon fill="#c0c0c0" stroke="#c0c0c0" stroke-width="2" points="715.498,-262.6766 713.2351,-252.3262 708.5496,-261.8287 715.498,-262.6766"/>
</g>
<!-- 25&#45;&gt;24 -->
<g id="edge40" class="edge">
<title>25&#45;&gt;24</title>
<path fill="none" stroke="#c0c0c0" stroke-width="2" d="M638.5,-359.8314C638.5,-352.131 638.5,-342.9743 638.5,-334.4166"/>
<polygon fill="#c0c0c0" stroke="#c0c0c0" stroke-width="2" points="642.0001,-334.4132 638.5,-324.4133 635.0001,-334.4133 642.0001,-334.4132"/>
</g>
<!-- 26 -->
<g id="node27" class="node">
<title>26</title>
<path fill="none" stroke="#d85656" stroke-width="2" d="M219,-684C219,-684 164,-684 164,-684 158,-684 152,-678 152,-672 152,-672 152,-660 152,-660 152,-654 158,-648 164,-648 164,-648 219,-648 219,-648 225,-648 231,-654 231,-660 231,-660 231,-672 231,-672 231,-678 225,-684 219,-684"/>
<text text-anchor="middle" x="191.5" y="-663.5" font-family="sans" font-size="10.00" fill="#000000">generate_gtf</text>
</g>
<!-- 26&#45;&gt;17 -->
<g id="edge30" class="edge">
<title>26&#45;&gt;17</title>
<path fill="none" stroke="#c0c0c0" stroke-width="2" d="M183.9935,-647.9843C163.6216,-599.0919 107.1994,-463.6785 82.8875,-405.33"/>
<polygon fill="#c0c0c0" stroke="#c0c0c0" stroke-width="2" points="86.0807,-403.8935 79.0037,-396.0089 79.6191,-406.5858 86.0807,-403.8935"/>
</g>
<!-- 26&#45;&gt;23 -->
<g id="edge39" class="edge">
<title>26&#45;&gt;23</title>
<path fill="none" stroke="#c0c0c0" stroke-width="2" d="M211.9397,-647.8314C221.8205,-639.0485 233.8324,-628.3712 244.545,-618.8489"/>
<polygon fill="#c0c0c0" stroke="#c0c0c0" stroke-width="2" points="246.918,-621.4224 252.0668,-612.1628 242.2674,-616.1906 246.918,-621.4224"/>
</g>
<!-- 26&#45;&gt;29 -->
<g id="edge45" class="edge">
<title>26&#45;&gt;29</title>
<path fill="none" stroke="#c0c0c0" stroke-width="2" d="M193.9064,-647.7623C197.1471,-623.201 202.9465,-579.2474 206.7588,-550.3541"/>
<polygon fill="#c0c0c0" stroke="#c0c0c0" stroke-width="2" points="210.2749,-550.4616 208.1132,-540.0896 203.3351,-549.5458 210.2749,-550.4616"/>
</g>
<!-- 27&#45;&gt;19 -->
<g id="edge34" class="edge">
<title>27&#45;&gt;19</title>
<path fill="none" stroke="#c0c0c0" stroke-width="2" d="M201.6305,-359.8314C195.8165,-351.6232 188.8304,-341.7606 182.4354,-332.7323"/>
<polygon fill="#c0c0c0" stroke="#c0c0c0" stroke-width="2" points="185.179,-330.5505 176.5427,-324.4133 179.4669,-334.5966 185.179,-330.5505"/>
</g>
<!-- 28 -->
<g id="node29" class="node">
<title>28</title>
<path fill="none" stroke="#56c1d8" stroke-width="2" d="M409,-684C409,-684 374,-684 374,-684 368,-684 362,-678 362,-672 362,-672 362,-660 362,-660 362,-654 368,-648 374,-648 374,-648 409,-648 409,-648 415,-648 421,-654 421,-660 421,-660 421,-672 421,-672 421,-678 415,-684 409,-684"/>
<text text-anchor="middle" x="391.5" y="-663.5" font-family="sans" font-size="10.00" fill="#000000">cutadapt</text>
</g>
<!-- 28&#45;&gt;22 -->
<g id="edge38" class="edge">
<title>28&#45;&gt;22</title>
<path fill="none" stroke="#c0c0c0" stroke-width="2" d="M391.5,-647.8314C391.5,-640.131 391.5,-630.9743 391.5,-622.4166"/>
<polygon fill="#c0c0c0" stroke="#c0c0c0" stroke-width="2" points="395.0001,-622.4132 391.5,-612.4133 388.0001,-622.4133 395.0001,-622.4132"/>
</g>
<!-- 29&#45;&gt;27 -->
<g id="edge42" class="edge">
<title>29&#45;&gt;27</title>
<path fill="none" stroke="#c0c0c0" stroke-width="2" d="M211.0066,-503.7623C211.6889,-479.201 212.9098,-435.2474 213.7124,-406.3541"/>
<polygon fill="#c0c0c0" stroke="#c0c0c0" stroke-width="2" points="217.2184,-406.183 213.9975,-396.0896 210.2211,-405.9885 217.2184,-406.183"/>
</g>
<!-- 30 -->
<g id="node31" class="node">
<title>30</title>
<path fill="none" stroke="#d8a456" stroke-width="2" d="M406.5,-756C406.5,-756 376.5,-756 376.5,-756 370.5,-756 364.5,-750 364.5,-744 364.5,-744 364.5,-732 364.5,-732 364.5,-726 370.5,-720 376.5,-720 376.5,-720 406.5,-720 406.5,-720 412.5,-720 418.5,-726 418.5,-732 418.5,-732 418.5,-744 418.5,-744 418.5,-750 412.5,-756 406.5,-756"/>
<text text-anchor="middle" x="391.5" y="-735.5" font-family="sans" font-size="10.00" fill="#000000">repair</text>
</g>
<!-- 30&#45;&gt;28 -->
<g id="edge44" class="edge">
<title>30&#45;&gt;28</title>
<path fill="none" stroke="#c0c0c0" stroke-width="2" d="M391.5,-719.8314C391.5,-712.131 391.5,-702.9743 391.5,-694.4166"/>
<polygon fill="#c0c0c0" stroke="#c0c0c0" stroke-width="2" points="395.0001,-694.4132 391.5,-684.4133 388.0001,-694.4133 395.0001,-694.4132"/>
</g>
</g>
</svg>
