<?xml version="1.0" encoding="UTF-8" standalone="no"?>
<!DOCTYPE svg PUBLIC "-//W3C//DTD SVG 1.1//EN"
 "http://www.w3.org/Graphics/SVG/1.1/DTD/svg11.dtd">
<!-- Generated by graphviz version 2.40.1 (20161225.0304)
 -->
<!-- Title: snakemake_dag Pages: 1 -->
<svg width="619pt" height="764pt"
 viewBox="0.00 0.00 619.00 764.00" xmlns="http://www.w3.org/2000/svg" xmlns:xlink="http://www.w3.org/1999/xlink">
<g id="graph0" class="graph" transform="scale(1 1) rotate(0) translate(4 760)">
<title>snakemake_dag</title>
<polygon fill="#ffffff" stroke="transparent" points="-4,4 -4,-760 615,-760 615,4 -4,4"/>
<!-- 0 -->
<g id="node1" class="node">
<title>0</title>
<path fill="none" stroke="#56b9d8" stroke-width="2" d="M310.5,-36C310.5,-36 278.5,-36 278.5,-36 272.5,-36 266.5,-30 266.5,-24 266.5,-24 266.5,-12 266.5,-12 266.5,-6 272.5,0 278.5,0 278.5,0 310.5,0 310.5,0 316.5,0 322.5,-6 322.5,-12 322.5,-12 322.5,-24 322.5,-24 322.5,-30 316.5,-36 310.5,-36"/>
<text text-anchor="middle" x="294.5" y="-15.5" font-family="sans" font-size="10.00" fill="#000000">cali_pca</text>
</g>
<!-- 1 -->
<g id="node2" class="node">
<title>1</title>
<path fill="none" stroke="#56a9d8" stroke-width="2" d="M188,-108C188,-108 149,-108 149,-108 143,-108 137,-102 137,-96 137,-96 137,-84 137,-84 137,-78 143,-72 149,-72 149,-72 188,-72 188,-72 194,-72 200,-78 200,-84 200,-84 200,-96 200,-96 200,-102 194,-108 188,-108"/>
<text text-anchor="middle" x="168.5" y="-87.5" font-family="sans" font-size="10.00" fill="#000000">deseq_all</text>
</g>
<!-- 2 -->
<g id="node3" class="node">
<title>2</title>
<path fill="none" stroke="#b6d856" stroke-width="2" d="M270.5,-108C270.5,-108 230.5,-108 230.5,-108 224.5,-108 218.5,-102 218.5,-96 218.5,-96 218.5,-84 218.5,-84 218.5,-78 224.5,-72 230.5,-72 230.5,-72 270.5,-72 270.5,-72 276.5,-72 282.5,-78 282.5,-84 282.5,-84 282.5,-96 282.5,-96 282.5,-102 276.5,-108 270.5,-108"/>
<text text-anchor="middle" x="250.5" y="-87.5" font-family="sans" font-size="10.00" fill="#000000">deseq_tfs</text>
</g>
<!-- 3 -->
<g id="node4" class="node">
<title>3</title>
<path fill="none" stroke="#68d856" stroke-width="2" d="M197,-36C197,-36 78,-36 78,-36 72,-36 66,-30 66,-24 66,-24 66,-12 66,-12 66,-6 72,0 78,0 78,0 197,0 197,0 203,0 209,-6 209,-12 209,-12 209,-24 209,-24 209,-30 203,-36 197,-36"/>
<text text-anchor="middle" x="137.5" y="-15.5" font-family="sans" font-size="10.00" fill="#000000">correlate_clusters_to_mtp</text>
</g>
<!-- 4 -->
<g id="node5" class="node">
<title>4</title>
<path fill="none" stroke="#56d0d8" stroke-width="2" d="M105.5,-324C105.5,-324 71.5,-324 71.5,-324 65.5,-324 59.5,-318 59.5,-312 59.5,-312 59.5,-300 59.5,-300 59.5,-294 65.5,-288 71.5,-288 71.5,-288 105.5,-288 105.5,-288 111.5,-288 117.5,-294 117.5,-300 117.5,-300 117.5,-312 117.5,-312 117.5,-318 111.5,-324 105.5,-324"/>
<text text-anchor="middle" x="88.5" y="-303.5" font-family="sans" font-size="10.00" fill="#000000">rlog_pca</text>
</g>
<!-- 5 -->
<g id="node6" class="node">
<title>5</title>
<path fill="none" stroke="#d8a456" stroke-width="2" d="M354,-108C354,-108 313,-108 313,-108 307,-108 301,-102 301,-96 301,-96 301,-84 301,-84 301,-78 307,-72 313,-72 313,-72 354,-72 354,-72 360,-72 366,-78 366,-84 366,-84 366,-96 366,-96 366,-102 360,-108 354,-108"/>
<text text-anchor="middle" x="333.5" y="-87.5" font-family="sans" font-size="10.00" fill="#000000">mfuzz_tfs</text>
</g>
<!-- 5&#45;&gt;0 -->
<g id="edge2" class="edge">
<title>5&#45;&gt;0</title>
<path fill="none" stroke="#c0c0c0" stroke-width="2" d="M323.6587,-71.8314C319.3043,-63.7925 314.0902,-54.1666 309.2831,-45.2918"/>
<polygon fill="#c0c0c0" stroke="#c0c0c0" stroke-width="2" points="312.3143,-43.5392 304.4739,-36.4133 306.1592,-46.8732 312.3143,-43.5392"/>
</g>
<!-- 5&#45;&gt;3 -->
<g id="edge6" class="edge">
<title>5&#45;&gt;3</title>
<path fill="none" stroke="#c0c0c0" stroke-width="2" d="M300.5717,-75.6386C297.5158,-74.3812 294.4573,-73.1507 291.5,-72 262.2124,-60.6043 229.3929,-48.9459 201.6007,-39.3919"/>
<polygon fill="#c0c0c0" stroke="#c0c0c0" stroke-width="2" points="202.5885,-36.0308 191.9939,-36.1042 200.3219,-42.6537 202.5885,-36.0308"/>
</g>
<!-- 6 -->
<g id="node7" class="node">
<title>6</title>
<path fill="none" stroke="#56d86b" stroke-width="2" d="M107,-108C107,-108 12,-108 12,-108 6,-108 0,-102 0,-96 0,-96 0,-84 0,-84 0,-78 6,-72 12,-72 12,-72 107,-72 107,-72 113,-72 119,-78 119,-84 119,-84 119,-96 119,-96 119,-102 113,-108 107,-108"/>
<text text-anchor="middle" x="59.5" y="-87.5" font-family="sans" font-size="10.00" fill="#000000">tidy_phenotype_data</text>
</g>
<!-- 6&#45;&gt;0 -->
<g id="edge1" class="edge">
<title>6&#45;&gt;0</title>
<path fill="none" stroke="#c0c0c0" stroke-width="2" d="M118.4971,-71.9243C161.7451,-58.6738 219.1896,-41.0738 256.4976,-29.6433"/>
<polygon fill="#c0c0c0" stroke="#c0c0c0" stroke-width="2" points="257.9219,-32.8676 266.4579,-26.5916 255.8713,-26.1747 257.9219,-32.8676"/>
</g>
<!-- 6&#45;&gt;3 -->
<g id="edge5" class="edge">
<title>6&#45;&gt;3</title>
<path fill="none" stroke="#c0c0c0" stroke-width="2" d="M79.1827,-71.8314C88.6051,-63.1337 100.0401,-52.5783 110.2796,-43.1265"/>
<polygon fill="#c0c0c0" stroke="#c0c0c0" stroke-width="2" points="112.8495,-45.5175 117.8236,-36.1628 108.1016,-40.3738 112.8495,-45.5175"/>
</g>
<!-- 7 -->
<g id="node8" class="node">
<title>7</title>
<path fill="none" stroke="#566bd8" stroke-width="2" d="M202,-180C202,-180 117,-180 117,-180 111,-180 105,-174 105,-168 105,-168 105,-156 105,-156 105,-150 111,-144 117,-144 117,-144 202,-144 202,-144 208,-144 214,-150 214,-156 214,-156 214,-168 214,-168 214,-174 208,-180 202,-180"/>
<text text-anchor="middle" x="159.5" y="-159.5" font-family="sans" font-size="10.00" fill="#000000">filter_deseq_object</text>
</g>
<!-- 7&#45;&gt;1 -->
<g id="edge3" class="edge">
<title>7&#45;&gt;1</title>
<path fill="none" stroke="#c0c0c0" stroke-width="2" d="M161.7711,-143.8314C162.7336,-136.131 163.8782,-126.9743 164.9479,-118.4166"/>
<polygon fill="#c0c0c0" stroke="#c0c0c0" stroke-width="2" points="168.4309,-118.7702 166.1983,-108.4133 161.4849,-117.9019 168.4309,-118.7702"/>
</g>
<!-- 8 -->
<g id="node9" class="node">
<title>8</title>
<path fill="none" stroke="#ced856" stroke-width="2" d="M277,-180C277,-180 244,-180 244,-180 238,-180 232,-174 232,-168 232,-168 232,-156 232,-156 232,-150 238,-144 244,-144 244,-144 277,-144 277,-144 283,-144 289,-150 289,-156 289,-156 289,-168 289,-168 289,-174 283,-180 277,-180"/>
<text text-anchor="middle" x="260.5" y="-159.5" font-family="sans" font-size="10.00" fill="#000000">filter_tfs</text>
</g>
<!-- 8&#45;&gt;2 -->
<g id="edge4" class="edge">
<title>8&#45;&gt;2</title>
<path fill="none" stroke="#c0c0c0" stroke-width="2" d="M257.9766,-143.8314C256.9071,-136.131 255.6353,-126.9743 254.4468,-118.4166"/>
<polygon fill="#c0c0c0" stroke="#c0c0c0" stroke-width="2" points="257.8999,-117.8367 253.0574,-108.4133 250.9664,-118.7997 257.8999,-117.8367"/>
</g>
<!-- 8&#45;&gt;5 -->
<g id="edge8" class="edge">
<title>8&#45;&gt;5</title>
<path fill="none" stroke="#c0c0c0" stroke-width="2" d="M278.921,-143.8314C287.6529,-135.219 298.2317,-124.7851 307.7423,-115.4048"/>
<polygon fill="#c0c0c0" stroke="#c0c0c0" stroke-width="2" points="310.423,-117.6769 315.0849,-108.1628 305.5075,-112.6931 310.423,-117.6769"/>
</g>
<!-- 9 -->
<g id="node10" class="node">
<title>9</title>
<path fill="none" stroke="#d87d56" stroke-width="2" d="M199.5,-396C199.5,-396 93.5,-396 93.5,-396 87.5,-396 81.5,-390 81.5,-384 81.5,-384 81.5,-372 81.5,-372 81.5,-366 87.5,-360 93.5,-360 93.5,-360 199.5,-360 199.5,-360 205.5,-360 211.5,-366 211.5,-372 211.5,-372 211.5,-384 211.5,-384 211.5,-390 205.5,-396 199.5,-396"/>
<text text-anchor="middle" x="146.5" y="-375.5" font-family="sans" font-size="10.00" fill="#000000">generate_deseq_object</text>
</g>
<!-- 9&#45;&gt;4 -->
<g id="edge7" class="edge">
<title>9&#45;&gt;4</title>
<path fill="none" stroke="#c0c0c0" stroke-width="2" d="M131.8642,-359.8314C125.1839,-351.5386 117.1432,-341.557 109.8096,-332.4533"/>
<polygon fill="#c0c0c0" stroke="#c0c0c0" stroke-width="2" points="112.3319,-330.0052 103.3329,-324.4133 106.8806,-334.3965 112.3319,-330.0052"/>
</g>
<!-- 9&#45;&gt;7 -->
<g id="edge10" class="edge">
<title>9&#45;&gt;7</title>
<path fill="none" stroke="#c0c0c0" stroke-width="2" d="M92.2405,-359.9128C75.9149,-351.642 59.8643,-340.0115 50.5,-324 42.4225,-310.1886 44.9147,-302.9935 50.5,-288 65.8727,-246.733 101.5135,-209.985 127.8772,-186.977"/>
<polygon fill="#c0c0c0" stroke="#c0c0c0" stroke-width="2" points="130.3863,-189.4373 135.7285,-180.2879 125.8467,-184.1089 130.3863,-189.4373"/>
</g>
<!-- 9&#45;&gt;8 -->
<g id="edge13" class="edge">
<title>9&#45;&gt;8</title>
<path fill="none" stroke="#c0c0c0" stroke-width="2" d="M148.5721,-359.526C152.8529,-327.8239 164.9663,-262.0352 195.5,-216 202.9224,-204.8093 213.3466,-194.7177 223.6772,-186.3699"/>
<polygon fill="#c0c0c0" stroke="#c0c0c0" stroke-width="2" points="226.0883,-188.931 231.8829,-180.0612 221.8217,-183.3815 226.0883,-188.931"/>
</g>
<!-- 11 -->
<g id="node12" class="node">
<title>11</title>
<path fill="none" stroke="#56d8d0" stroke-width="2" d="M292,-252C292,-252 217,-252 217,-252 211,-252 205,-246 205,-240 205,-240 205,-228 205,-228 205,-222 211,-216 217,-216 217,-216 292,-216 292,-216 298,-216 304,-222 304,-228 304,-228 304,-240 304,-240 304,-246 298,-252 292,-252"/>
<text text-anchor="middle" x="254.5" y="-231.5" font-family="sans" font-size="10.00" fill="#000000">calculate_cutoffs</text>
</g>
<!-- 9&#45;&gt;11 -->
<g id="edge20" class="edge">
<title>9&#45;&gt;11</title>
<path fill="none" stroke="#c0c0c0" stroke-width="2" d="M156.3918,-359.6749C166.8412,-340.9478 184.2977,-311.3778 202.5,-288 210.1685,-278.1511 219.3895,-268.1028 227.9234,-259.3867"/>
<polygon fill="#c0c0c0" stroke="#c0c0c0" stroke-width="2" points="230.6013,-261.6582 235.1898,-252.1086 225.6475,-256.7125 230.6013,-261.6582"/>
</g>
<!-- 14 -->
<g id="node15" class="node">
<title>14</title>
<path fill="none" stroke="#56d892" stroke-width="2" d="M285.5,-324C285.5,-324 223.5,-324 223.5,-324 217.5,-324 211.5,-318 211.5,-312 211.5,-312 211.5,-300 211.5,-300 211.5,-294 217.5,-288 223.5,-288 223.5,-288 285.5,-288 285.5,-288 291.5,-288 297.5,-294 297.5,-300 297.5,-300 297.5,-312 297.5,-312 297.5,-318 291.5,-324 285.5,-324"/>
<text text-anchor="middle" x="254.5" y="-303.5" font-family="sans" font-size="10.00" fill="#000000">calculate_tpm</text>
</g>
<!-- 9&#45;&gt;14 -->
<g id="edge25" class="edge">
<title>9&#45;&gt;14</title>
<path fill="none" stroke="#c0c0c0" stroke-width="2" d="M173.753,-359.8314C187.4389,-350.7074 204.1915,-339.539 218.8827,-329.7449"/>
<polygon fill="#c0c0c0" stroke="#c0c0c0" stroke-width="2" points="220.8767,-332.6221 227.2558,-324.1628 216.9938,-326.7977 220.8767,-332.6221"/>
</g>
<!-- 10 -->
<g id="node11" class="node">
<title>10</title>
<path fill="none" stroke="#d89556" stroke-width="2" d="M384.5,-252C384.5,-252 334.5,-252 334.5,-252 328.5,-252 322.5,-246 322.5,-240 322.5,-240 322.5,-228 322.5,-228 322.5,-222 328.5,-216 334.5,-216 334.5,-216 384.5,-216 384.5,-216 390.5,-216 396.5,-222 396.5,-228 396.5,-228 396.5,-240 396.5,-240 396.5,-246 390.5,-252 384.5,-252"/>
<text text-anchor="middle" x="359.5" y="-231.5" font-family="sans" font-size="10.00" fill="#000000">format_tfdb</text>
</g>
<!-- 10&#45;&gt;5 -->
<g id="edge9" class="edge">
<title>10&#45;&gt;5</title>
<path fill="none" stroke="#c0c0c0" stroke-width="2" d="M356.2071,-215.7623C351.7529,-191.0928 343.7663,-146.8598 338.5507,-117.9731"/>
<polygon fill="#c0c0c0" stroke="#c0c0c0" stroke-width="2" points="341.9874,-117.3086 336.7662,-108.0896 335.0988,-118.5524 341.9874,-117.3086"/>
</g>
<!-- 10&#45;&gt;8 -->
<g id="edge12" class="edge">
<title>10&#45;&gt;8</title>
<path fill="none" stroke="#c0c0c0" stroke-width="2" d="M334.5181,-215.8314C322.2072,-206.8779 307.1893,-195.9558 293.9063,-186.2955"/>
<polygon fill="#c0c0c0" stroke="#c0c0c0" stroke-width="2" points="295.6199,-183.214 285.4739,-180.1628 291.5027,-188.8752 295.6199,-183.214"/>
</g>
<!-- 11&#45;&gt;7 -->
<g id="edge11" class="edge">
<title>11&#45;&gt;7</title>
<path fill="none" stroke="#c0c0c0" stroke-width="2" d="M230.5275,-215.8314C218.7139,-206.8779 204.3028,-195.9558 191.5565,-186.2955"/>
<polygon fill="#c0c0c0" stroke="#c0c0c0" stroke-width="2" points="193.5486,-183.4137 183.4648,-180.1628 189.3205,-188.9925 193.5486,-183.4137"/>
</g>
<!-- 11&#45;&gt;8 -->
<g id="edge14" class="edge">
<title>11&#45;&gt;8</title>
<path fill="none" stroke="#c0c0c0" stroke-width="2" d="M256.0141,-215.8314C256.6558,-208.131 257.4188,-198.9743 258.1319,-190.4166"/>
<polygon fill="#c0c0c0" stroke="#c0c0c0" stroke-width="2" points="261.6229,-190.6694 258.9656,-180.4133 254.6471,-190.088 261.6229,-190.6694"/>
</g>
<!-- 12 -->
<g id="node13" class="node">
<title>12</title>
<path fill="none" stroke="#5692d8" stroke-width="2" d="M315,-468C315,-468 240,-468 240,-468 234,-468 228,-462 228,-456 228,-456 228,-444 228,-444 228,-438 234,-432 240,-432 240,-432 315,-432 315,-432 321,-432 327,-438 327,-444 327,-444 327,-456 327,-456 327,-462 321,-468 315,-468"/>
<text text-anchor="middle" x="277.5" y="-447.5" font-family="sans" font-size="10.00" fill="#000000">second_mapping</text>
</g>
<!-- 12&#45;&gt;9 -->
<g id="edge15" class="edge">
<title>12&#45;&gt;9</title>
<path fill="none" stroke="#c0c0c0" stroke-width="2" d="M244.4432,-431.8314C227.5323,-422.5368 206.7615,-411.1208 188.7059,-401.1971"/>
<polygon fill="#c0c0c0" stroke="#c0c0c0" stroke-width="2" points="189.9957,-397.9122 179.5463,-396.1628 186.624,-404.0468 189.9957,-397.9122"/>
</g>
<!-- 15 -->
<g id="node16" class="node">
<title>15</title>
<path fill="none" stroke="#56d8a9" stroke-width="2" d="M312,-396C312,-396 243,-396 243,-396 237,-396 231,-390 231,-384 231,-384 231,-372 231,-372 231,-366 237,-360 243,-360 243,-360 312,-360 312,-360 318,-360 324,-366 324,-372 324,-372 324,-384 324,-384 324,-390 318,-396 312,-396"/>
<text text-anchor="middle" x="277.5" y="-375.5" font-family="sans" font-size="10.00" fill="#000000">parse_star_logs</text>
</g>
<!-- 12&#45;&gt;15 -->
<g id="edge28" class="edge">
<title>12&#45;&gt;15</title>
<path fill="none" stroke="#c0c0c0" stroke-width="2" d="M277.5,-431.8314C277.5,-424.131 277.5,-414.9743 277.5,-406.4166"/>
<polygon fill="#c0c0c0" stroke="#c0c0c0" stroke-width="2" points="281.0001,-406.4132 277.5,-396.4133 274.0001,-406.4133 281.0001,-406.4132"/>
</g>
<!-- 20 -->
<g id="node21" class="node">
<title>20</title>
<path fill="none" stroke="#a7d856" stroke-width="2" d="M437.5,-396C437.5,-396 355.5,-396 355.5,-396 349.5,-396 343.5,-390 343.5,-384 343.5,-384 343.5,-372 343.5,-372 343.5,-366 349.5,-360 355.5,-360 355.5,-360 437.5,-360 437.5,-360 443.5,-360 449.5,-366 449.5,-372 449.5,-372 449.5,-384 449.5,-384 449.5,-390 443.5,-396 437.5,-396"/>
<text text-anchor="middle" x="396.5" y="-375.5" font-family="sans" font-size="10.00" fill="#000000">count_background</text>
</g>
<!-- 12&#45;&gt;20 -->
<g id="edge34" class="edge">
<title>12&#45;&gt;20</title>
<path fill="none" stroke="#c0c0c0" stroke-width="2" d="M307.5287,-431.8314C322.7496,-422.6221 341.4128,-411.3301 357.7083,-401.4706"/>
<polygon fill="#c0c0c0" stroke="#c0c0c0" stroke-width="2" points="359.7369,-404.3341 366.4809,-396.1628 356.1132,-398.345 359.7369,-404.3341"/>
</g>
<!-- 13 -->
<g id="node14" class="node">
<title>13</title>
<path fill="none" stroke="#d86e56" stroke-width="2" d="M499.5,-324C499.5,-324 365.5,-324 365.5,-324 359.5,-324 353.5,-318 353.5,-312 353.5,-312 353.5,-300 353.5,-300 353.5,-294 359.5,-288 365.5,-288 365.5,-288 499.5,-288 499.5,-288 505.5,-288 511.5,-294 511.5,-300 511.5,-300 511.5,-312 511.5,-312 511.5,-318 505.5,-324 499.5,-324"/>
<text text-anchor="middle" x="432.5" y="-303.5" font-family="sans" font-size="10.00" fill="#000000">combine_background_counts</text>
</g>
<!-- 13&#45;&gt;11 -->
<g id="edge16" class="edge">
<title>13&#45;&gt;11</title>
<path fill="none" stroke="#c0c0c0" stroke-width="2" d="M387.5831,-287.8314C363.565,-278.1162 333.8166,-266.0831 308.5408,-255.8592"/>
<polygon fill="#c0c0c0" stroke="#c0c0c0" stroke-width="2" points="309.6767,-252.5432 299.0939,-252.038 307.0518,-259.0325 309.6767,-252.5432"/>
</g>
<!-- 14&#45;&gt;11 -->
<g id="edge17" class="edge">
<title>14&#45;&gt;11</title>
<path fill="none" stroke="#c0c0c0" stroke-width="2" d="M254.5,-287.8314C254.5,-280.131 254.5,-270.9743 254.5,-262.4166"/>
<polygon fill="#c0c0c0" stroke="#c0c0c0" stroke-width="2" points="258.0001,-262.4132 254.5,-252.4133 251.0001,-262.4133 258.0001,-262.4132"/>
</g>
<!-- 15&#45;&gt;11 -->
<g id="edge18" class="edge">
<title>15&#45;&gt;11</title>
<path fill="none" stroke="#c0c0c0" stroke-width="2" d="M290.8195,-359.8004C302.5385,-341.4264 316.3221,-312.3602 306.5,-288 302.1775,-277.2796 294.5956,-267.4983 286.5361,-259.2948"/>
<polygon fill="#c0c0c0" stroke="#c0c0c0" stroke-width="2" points="288.7442,-256.5652 279.0801,-252.2228 283.927,-261.644 288.7442,-256.5652"/>
</g>
<!-- 15&#45;&gt;14 -->
<g id="edge26" class="edge">
<title>15&#45;&gt;14</title>
<path fill="none" stroke="#c0c0c0" stroke-width="2" d="M271.6961,-359.8314C269.2092,-352.0463 266.2469,-342.7729 263.4875,-334.1347"/>
<polygon fill="#c0c0c0" stroke="#c0c0c0" stroke-width="2" points="266.7591,-332.874 260.382,-324.4133 260.091,-335.0041 266.7591,-332.874"/>
</g>
<!-- 16 -->
<g id="node17" class="node">
<title>16</title>
<path fill="none" stroke="#80d856" stroke-width="2" d="M599,-396C599,-396 480,-396 480,-396 474,-396 468,-390 468,-384 468,-384 468,-372 468,-372 468,-366 474,-360 480,-360 480,-360 599,-360 599,-360 605,-360 611,-366 611,-372 611,-372 611,-384 611,-384 611,-390 605,-396 599,-396"/>
<text text-anchor="middle" x="539.5" y="-375.5" font-family="sans" font-size="10.00" fill="#000000">calculate_feature_lengths</text>
</g>
<!-- 16&#45;&gt;11 -->
<g id="edge19" class="edge">
<title>16&#45;&gt;11</title>
<path fill="none" stroke="#c0c0c0" stroke-width="2" d="M541.1667,-359.644C541.9305,-339.1745 539.6929,-306.5166 520.5,-288 455.5277,-225.3171 407.6043,-270.4397 314.0747,-251.8115"/>
<polygon fill="#c0c0c0" stroke="#c0c0c0" stroke-width="2" points="314.7924,-248.3858 304.2744,-249.6597 313.2911,-255.2229 314.7924,-248.3858"/>
</g>
<!-- 16&#45;&gt;14 -->
<g id="edge27" class="edge">
<title>16&#45;&gt;14</title>
<path fill="none" stroke="#c0c0c0" stroke-width="2" d="M467.9503,-359.9243C418.1298,-347.338 352.7751,-330.8274 307.571,-319.4074"/>
<polygon fill="#c0c0c0" stroke="#c0c0c0" stroke-width="2" points="308.2286,-315.9636 297.6759,-316.9076 306.514,-322.7504 308.2286,-315.9636"/>
</g>
<!-- 17 -->
<g id="node18" class="node">
<title>17</title>
<path fill="none" stroke="#d8cb56" stroke-width="2" d="M307,-540C307,-540 248,-540 248,-540 242,-540 236,-534 236,-528 236,-528 236,-516 236,-516 236,-510 242,-504 248,-504 248,-504 307,-504 307,-504 313,-504 319,-510 319,-516 319,-516 319,-528 319,-528 319,-534 313,-540 307,-540"/>
<text text-anchor="middle" x="277.5" y="-519.5" font-family="sans" font-size="10.00" fill="#000000">first_mapping</text>
</g>
<!-- 17&#45;&gt;12 -->
<g id="edge21" class="edge">
<title>17&#45;&gt;12</title>
<path fill="none" stroke="#c0c0c0" stroke-width="2" d="M277.5,-503.8314C277.5,-496.131 277.5,-486.9743 277.5,-478.4166"/>
<polygon fill="#c0c0c0" stroke="#c0c0c0" stroke-width="2" points="281.0001,-478.4132 277.5,-468.4133 274.0001,-478.4133 281.0001,-478.4132"/>
</g>
<!-- 18 -->
<g id="node19" class="node">
<title>18</title>
<path fill="none" stroke="#56d8b9" stroke-width="2" d="M243.5,-612C243.5,-612 213.5,-612 213.5,-612 207.5,-612 201.5,-606 201.5,-600 201.5,-600 201.5,-588 201.5,-588 201.5,-582 207.5,-576 213.5,-576 213.5,-576 243.5,-576 243.5,-576 249.5,-576 255.5,-582 255.5,-588 255.5,-588 255.5,-600 255.5,-600 255.5,-606 249.5,-612 243.5,-612"/>
<text text-anchor="middle" x="228.5" y="-591.5" font-family="sans" font-size="10.00" fill="#000000">gzip</text>
</g>
<!-- 18&#45;&gt;12 -->
<g id="edge22" class="edge">
<title>18&#45;&gt;12</title>
<path fill="none" stroke="#c0c0c0" stroke-width="2" d="M224.0376,-575.6767C220.3915,-556.9511 217.2037,-527.3822 226.5,-504 230.7676,-493.2659 238.2931,-483.4321 246.2739,-475.1828"/>
<polygon fill="#c0c0c0" stroke="#c0c0c0" stroke-width="2" points="248.8801,-477.5319 253.6509,-468.072 244.0221,-472.4921 248.8801,-477.5319"/>
</g>
<!-- 18&#45;&gt;17 -->
<g id="edge30" class="edge">
<title>18&#45;&gt;17</title>
<path fill="none" stroke="#c0c0c0" stroke-width="2" d="M240.8648,-575.8314C246.4509,-567.6232 253.163,-557.7606 259.3072,-548.7323"/>
<polygon fill="#c0c0c0" stroke="#c0c0c0" stroke-width="2" points="262.236,-550.6496 264.9687,-540.4133 256.449,-546.7112 262.236,-550.6496"/>
</g>
<!-- 19 -->
<g id="node20" class="node">
<title>19</title>
<path fill="none" stroke="#d8bc56" stroke-width="2" d="M388,-612C388,-612 307,-612 307,-612 301,-612 295,-606 295,-600 295,-600 295,-588 295,-588 295,-582 301,-576 307,-576 307,-576 388,-576 388,-576 394,-576 400,-582 400,-588 400,-588 400,-600 400,-600 400,-606 394,-612 388,-612"/>
<text text-anchor="middle" x="347.5" y="-591.5" font-family="sans" font-size="10.00" fill="#000000">generate_genome</text>
</g>
<!-- 19&#45;&gt;12 -->
<g id="edge23" class="edge">
<title>19&#45;&gt;12</title>
<path fill="none" stroke="#c0c0c0" stroke-width="2" d="M346.5509,-575.7777C344.9229,-556.8708 340.5025,-526.9176 328.5,-504 323.0492,-493.5922 315.0185,-483.7529 306.9346,-475.3956"/>
<polygon fill="#c0c0c0" stroke="#c0c0c0" stroke-width="2" points="309.156,-472.6717 299.5682,-468.1634 304.252,-477.6667 309.156,-472.6717"/>
</g>
<!-- 19&#45;&gt;17 -->
<g id="edge31" class="edge">
<title>19&#45;&gt;17</title>
<path fill="none" stroke="#c0c0c0" stroke-width="2" d="M329.836,-575.8314C321.5268,-567.2848 311.4736,-556.9443 302.4082,-547.6198"/>
<polygon fill="#c0c0c0" stroke="#c0c0c0" stroke-width="2" points="304.8821,-545.1435 295.4018,-540.4133 299.8631,-550.023 304.8821,-545.1435"/>
</g>
<!-- 23 -->
<g id="node24" class="node">
<title>23</title>
<path fill="none" stroke="#59d856" stroke-width="2" d="M431.5,-540C431.5,-540 387.5,-540 387.5,-540 381.5,-540 375.5,-534 375.5,-528 375.5,-528 375.5,-516 375.5,-516 375.5,-510 381.5,-504 387.5,-504 387.5,-504 431.5,-504 431.5,-504 437.5,-504 443.5,-510 443.5,-516 443.5,-516 443.5,-528 443.5,-528 443.5,-534 437.5,-540 431.5,-540"/>
<text text-anchor="middle" x="409.5" y="-519.5" font-family="sans" font-size="10.00" fill="#000000">shuffle_gtf</text>
</g>
<!-- 19&#45;&gt;23 -->
<g id="edge38" class="edge">
<title>19&#45;&gt;23</title>
<path fill="none" stroke="#c0c0c0" stroke-width="2" d="M363.1452,-575.8314C370.3591,-567.454 379.057,-557.3531 386.9605,-548.1749"/>
<polygon fill="#c0c0c0" stroke="#c0c0c0" stroke-width="2" points="389.7711,-550.2748 393.6441,-540.4133 384.4667,-545.7071 389.7711,-550.2748"/>
</g>
<!-- 20&#45;&gt;13 -->
<g id="edge24" class="edge">
<title>20&#45;&gt;13</title>
<path fill="none" stroke="#c0c0c0" stroke-width="2" d="M405.5843,-359.8314C409.5615,-351.8771 414.3155,-342.369 418.7139,-333.5723"/>
<polygon fill="#c0c0c0" stroke="#c0c0c0" stroke-width="2" points="421.9517,-334.9228 423.2934,-324.4133 415.6907,-331.7923 421.9517,-334.9228"/>
</g>
<!-- 21 -->
<g id="node22" class="node">
<title>21</title>
<path fill="none" stroke="#d85656" stroke-width="2" d="M456,-684C456,-684 401,-684 401,-684 395,-684 389,-678 389,-672 389,-672 389,-660 389,-660 389,-654 395,-648 401,-648 401,-648 456,-648 456,-648 462,-648 468,-654 468,-660 468,-660 468,-672 468,-672 468,-678 462,-684 456,-684"/>
<text text-anchor="middle" x="428.5" y="-663.5" font-family="sans" font-size="10.00" fill="#000000">generate_gtf</text>
</g>
<!-- 21&#45;&gt;16 -->
<g id="edge29" class="edge">
<title>21&#45;&gt;16</title>
<path fill="none" stroke="#c0c0c0" stroke-width="2" d="M435.4435,-647.9843C454.2486,-599.1929 506.2626,-464.2377 528.8268,-405.6927"/>
<polygon fill="#c0c0c0" stroke="#c0c0c0" stroke-width="2" points="532.2285,-406.5986 532.5591,-396.0089 525.6969,-404.0811 532.2285,-406.5986"/>
</g>
<!-- 21&#45;&gt;19 -->
<g id="edge33" class="edge">
<title>21&#45;&gt;19</title>
<path fill="none" stroke="#c0c0c0" stroke-width="2" d="M408.0603,-647.8314C398.1795,-639.0485 386.1676,-628.3712 375.455,-618.8489"/>
<polygon fill="#c0c0c0" stroke="#c0c0c0" stroke-width="2" points="377.7326,-616.1906 367.9332,-612.1628 373.082,-621.4224 377.7326,-616.1906"/>
</g>
<!-- 21&#45;&gt;23 -->
<g id="edge37" class="edge">
<title>21&#45;&gt;23</title>
<path fill="none" stroke="#c0c0c0" stroke-width="2" d="M426.0936,-647.7623C422.8529,-623.201 417.0535,-579.2474 413.2412,-550.3541"/>
<polygon fill="#c0c0c0" stroke="#c0c0c0" stroke-width="2" points="416.6649,-549.5458 411.8868,-540.0896 409.7251,-550.4616 416.6649,-549.5458"/>
</g>
<!-- 22 -->
<g id="node23" class="node">
<title>22</title>
<path fill="none" stroke="#567bd8" stroke-width="2" d="M246,-684C246,-684 211,-684 211,-684 205,-684 199,-678 199,-672 199,-672 199,-660 199,-660 199,-654 205,-648 211,-648 211,-648 246,-648 246,-648 252,-648 258,-654 258,-660 258,-660 258,-672 258,-672 258,-678 252,-684 246,-684"/>
<text text-anchor="middle" x="228.5" y="-663.5" font-family="sans" font-size="10.00" fill="#000000">cutadapt</text>
</g>
<!-- 22&#45;&gt;18 -->
<g id="edge32" class="edge">
<title>22&#45;&gt;18</title>
<path fill="none" stroke="#c0c0c0" stroke-width="2" d="M228.5,-647.8314C228.5,-640.131 228.5,-630.9743 228.5,-622.4166"/>
<polygon fill="#c0c0c0" stroke="#c0c0c0" stroke-width="2" points="232.0001,-622.4132 228.5,-612.4133 225.0001,-622.4133 232.0001,-622.4132"/>
</g>
<!-- 23&#45;&gt;20 -->
<g id="edge35" class="edge">
<title>23&#45;&gt;20</title>
<path fill="none" stroke="#c0c0c0" stroke-width="2" d="M407.8535,-503.7623C405.6362,-479.201 401.6682,-435.2474 399.0597,-406.3541"/>
<polygon fill="#c0c0c0" stroke="#c0c0c0" stroke-width="2" points="402.5181,-405.7344 398.1331,-396.0896 395.5465,-406.3638 402.5181,-405.7344"/>
</g>
<!-- 24 -->
<g id="node25" class="node">
<title>24</title>
<path fill="none" stroke="#8fd856" stroke-width="2" d="M243.5,-756C243.5,-756 213.5,-756 213.5,-756 207.5,-756 201.5,-750 201.5,-744 201.5,-744 201.5,-732 201.5,-732 201.5,-726 207.5,-720 213.5,-720 213.5,-720 243.5,-720 243.5,-720 249.5,-720 255.5,-726 255.5,-732 255.5,-732 255.5,-744 255.5,-744 255.5,-750 249.5,-756 243.5,-756"/>
<text text-anchor="middle" x="228.5" y="-735.5" font-family="sans" font-size="10.00" fill="#000000">repair</text>
</g>
<!-- 24&#45;&gt;22 -->
<g id="edge36" class="edge">
<title>24&#45;&gt;22</title>
<path fill="none" stroke="#c0c0c0" stroke-width="2" d="M228.5,-719.8314C228.5,-712.131 228.5,-702.9743 228.5,-694.4166"/>
<polygon fill="#c0c0c0" stroke="#c0c0c0" stroke-width="2" points="232.0001,-694.4132 228.5,-684.4133 225.0001,-694.4133 232.0001,-694.4132"/>
</g>
</g>
</svg>
