<?xml version="1.0" encoding="UTF-8" standalone="no"?>
<!DOCTYPE svg PUBLIC "-//W3C//DTD SVG 1.1//EN"
 "http://www.w3.org/Graphics/SVG/1.1/DTD/svg11.dtd">
<!-- Generated by graphviz version 2.38.0 (20140413.2041)
 -->
<!-- Title: snakemake_dag Pages: 1 -->
<svg width="618pt" height="764pt"
 viewBox="0.00 0.00 618.00 764.00" xmlns="http://www.w3.org/2000/svg" xmlns:xlink="http://www.w3.org/1999/xlink">
<g id="graph0" class="graph" transform="scale(1 1) rotate(0) translate(4 760)">
<title>snakemake_dag</title>
<polygon fill="white" stroke="none" points="-4,4 -4,-760 614,-760 614,4 -4,4"/>
<!-- 0 -->
<g id="node1" class="node"><title>0</title>
<path fill="none" stroke="#ced856" stroke-width="2" d="M367,-36C367,-36 248,-36 248,-36 242,-36 236,-30 236,-24 236,-24 236,-12 236,-12 236,-6 242,-0 248,-0 248,-0 367,-0 367,-0 373,-0 379,-6 379,-12 379,-12 379,-24 379,-24 379,-30 373,-36 367,-36"/>
<text text-anchor="middle" x="307.5" y="-15.5" font-family="sans" font-size="10.00">correlate_clusters_to_mtp</text>
</g>
<!-- 1 -->
<g id="node2" class="node"><title>1</title>
<path fill="none" stroke="#d85656" stroke-width="2" d="M273,-108C273,-108 232,-108 232,-108 226,-108 220,-102 220,-96 220,-96 220,-84 220,-84 220,-78 226,-72 232,-72 232,-72 273,-72 273,-72 279,-72 285,-78 285,-84 285,-84 285,-96 285,-96 285,-102 279,-108 273,-108"/>
<text text-anchor="middle" x="252.5" y="-87.5" font-family="sans" font-size="10.00">mfuzz_tfs</text>
</g>
<!-- 1&#45;&gt;0 -->
<g id="edge2" class="edge"><title>1&#45;&gt;0</title>
<path fill="none" stroke="grey" stroke-width="2" d="M266.096,-71.6966C272.623,-63.3893 280.568,-53.2771 287.747,-44.1407"/>
<polygon fill="grey" stroke="grey" stroke-width="2" points="290.635,-46.1299 294.061,-36.1043 285.131,-41.8051 290.635,-46.1299"/>
</g>
<!-- 2 -->
<g id="node3" class="node"><title>2</title>
<path fill="none" stroke="#566bd8" stroke-width="2" d="M584,-108C584,-108 535,-108 535,-108 529,-108 523,-102 523,-96 523,-96 523,-84 523,-84 523,-78 529,-72 535,-72 535,-72 584,-72 584,-72 590,-72 596,-78 596,-84 596,-84 596,-96 596,-96 596,-102 590,-108 584,-108"/>
<text text-anchor="middle" x="559.5" y="-87.5" font-family="sans" font-size="10.00">deseq_expr</text>
</g>
<!-- 3 -->
<g id="node4" class="node"><title>3</title>
<path fill="none" stroke="#d8cb56" stroke-width="2" d="M492.5,-108C492.5,-108 452.5,-108 452.5,-108 446.5,-108 440.5,-102 440.5,-96 440.5,-96 440.5,-84 440.5,-84 440.5,-78 446.5,-72 452.5,-72 452.5,-72 492.5,-72 492.5,-72 498.5,-72 504.5,-78 504.5,-84 504.5,-84 504.5,-96 504.5,-96 504.5,-102 498.5,-108 492.5,-108"/>
<text text-anchor="middle" x="472.5" y="-87.5" font-family="sans" font-size="10.00">deseq_tfs</text>
</g>
<!-- 4 -->
<g id="node5" class="node"><title>4</title>
<path fill="none" stroke="#56d87b" stroke-width="2" d="M410,-108C410,-108 315,-108 315,-108 309,-108 303,-102 303,-96 303,-96 303,-84 303,-84 303,-78 309,-72 315,-72 315,-72 410,-72 410,-72 416,-72 422,-78 422,-84 422,-84 422,-96 422,-96 422,-102 416,-108 410,-108"/>
<text text-anchor="middle" x="362.5" y="-87.5" font-family="sans" font-size="10.00">tidy_phenotype_data</text>
</g>
<!-- 4&#45;&gt;0 -->
<g id="edge1" class="edge"><title>4&#45;&gt;0</title>
<path fill="none" stroke="grey" stroke-width="2" d="M348.904,-71.6966C342.377,-63.3893 334.432,-53.2771 327.253,-44.1407"/>
<polygon fill="grey" stroke="grey" stroke-width="2" points="329.869,-41.8051 320.939,-36.1043 324.365,-46.1299 329.869,-41.8051"/>
</g>
<!-- 5 -->
<g id="node6" class="node"><title>5</title>
<path fill="none" stroke="#56a9d8" stroke-width="2" d="M422,-180C422,-180 389,-180 389,-180 383,-180 377,-174 377,-168 377,-168 377,-156 377,-156 377,-150 383,-144 389,-144 389,-144 422,-144 422,-144 428,-144 434,-150 434,-156 434,-156 434,-168 434,-168 434,-174 428,-180 422,-180"/>
<text text-anchor="middle" x="405.5" y="-159.5" font-family="sans" font-size="10.00">filter_tfs</text>
</g>
<!-- 5&#45;&gt;1 -->
<g id="edge3" class="edge"><title>5&#45;&gt;1</title>
<path fill="none" stroke="grey" stroke-width="2" d="M376.722,-147.834C353.516,-137.217 320.556,-122.137 294.418,-110.178"/>
<polygon fill="grey" stroke="grey" stroke-width="2" points="295.677,-106.905 285.127,-105.928 292.765,-113.271 295.677,-106.905"/>
</g>
<!-- 5&#45;&gt;3 -->
<g id="edge6" class="edge"><title>5&#45;&gt;3</title>
<path fill="none" stroke="grey" stroke-width="2" d="M422.062,-143.697C430.175,-135.22 440.088,-124.864 448.971,-115.583"/>
<polygon fill="grey" stroke="grey" stroke-width="2" points="451.743,-117.749 456.129,-108.104 446.686,-112.908 451.743,-117.749"/>
</g>
<!-- 6 -->
<g id="node7" class="node"><title>6</title>
<path fill="none" stroke="#d86e56" stroke-width="2" d="M318.5,-252C318.5,-252 268.5,-252 268.5,-252 262.5,-252 256.5,-246 256.5,-240 256.5,-240 256.5,-228 256.5,-228 256.5,-222 262.5,-216 268.5,-216 268.5,-216 318.5,-216 318.5,-216 324.5,-216 330.5,-222 330.5,-228 330.5,-228 330.5,-240 330.5,-240 330.5,-246 324.5,-252 318.5,-252"/>
<text text-anchor="middle" x="293.5" y="-231.5" font-family="sans" font-size="10.00">format_tfdb</text>
</g>
<!-- 6&#45;&gt;1 -->
<g id="edge4" class="edge"><title>6&#45;&gt;1</title>
<path fill="none" stroke="grey" stroke-width="2" d="M288.554,-215.871C281.536,-191.564 268.617,-146.819 260.3,-118.013"/>
<polygon fill="grey" stroke="grey" stroke-width="2" points="263.6,-116.826 257.463,-108.189 256.875,-118.768 263.6,-116.826"/>
</g>
<!-- 6&#45;&gt;5 -->
<g id="edge8" class="edge"><title>6&#45;&gt;5</title>
<path fill="none" stroke="grey" stroke-width="2" d="M320.898,-215.876C335.407,-206.808 353.416,-195.552 369.085,-185.759"/>
<polygon fill="grey" stroke="grey" stroke-width="2" points="371.371,-188.458 377.996,-180.19 367.661,-182.522 371.371,-188.458"/>
</g>
<!-- 7 -->
<g id="node8" class="node"><title>7</title>
<path fill="none" stroke="#b6d856" stroke-width="2" d="M598,-180C598,-180 513,-180 513,-180 507,-180 501,-174 501,-168 501,-168 501,-156 501,-156 501,-150 507,-144 513,-144 513,-144 598,-144 598,-144 604,-144 610,-150 610,-156 610,-156 610,-168 610,-168 610,-174 604,-180 598,-180"/>
<text text-anchor="middle" x="555.5" y="-159.5" font-family="sans" font-size="10.00">filter_deseq_object</text>
</g>
<!-- 7&#45;&gt;2 -->
<g id="edge5" class="edge"><title>7&#45;&gt;2</title>
<path fill="none" stroke="grey" stroke-width="2" d="M556.489,-143.697C556.93,-135.983 557.459,-126.712 557.951,-118.112"/>
<polygon fill="grey" stroke="grey" stroke-width="2" points="561.446,-118.288 558.523,-108.104 554.458,-117.888 561.446,-118.288"/>
</g>
<!-- 8 -->
<g id="node9" class="node"><title>8</title>
<path fill="none" stroke="#56d86b" stroke-width="2" d="M443,-252C443,-252 368,-252 368,-252 362,-252 356,-246 356,-240 356,-240 356,-228 356,-228 356,-222 362,-216 368,-216 368,-216 443,-216 443,-216 449,-216 455,-222 455,-228 455,-228 455,-240 455,-240 455,-246 449,-252 443,-252"/>
<text text-anchor="middle" x="405.5" y="-231.5" font-family="sans" font-size="10.00">calculate_cutoffs</text>
</g>
<!-- 8&#45;&gt;5 -->
<g id="edge7" class="edge"><title>8&#45;&gt;5</title>
<path fill="none" stroke="grey" stroke-width="2" d="M405.5,-215.697C405.5,-207.983 405.5,-198.712 405.5,-190.112"/>
<polygon fill="grey" stroke="grey" stroke-width="2" points="409,-190.104 405.5,-180.104 402,-190.104 409,-190.104"/>
</g>
<!-- 8&#45;&gt;7 -->
<g id="edge10" class="edge"><title>8&#45;&gt;7</title>
<path fill="none" stroke="grey" stroke-width="2" d="M442.194,-215.876C462.518,-206.392 487.971,-194.513 509.602,-184.419"/>
<polygon fill="grey" stroke="grey" stroke-width="2" points="511.343,-187.469 518.925,-180.068 508.383,-181.126 511.343,-187.469"/>
</g>
<!-- 9 -->
<g id="node10" class="node"><title>9</title>
<path fill="none" stroke="#d87d56" stroke-width="2" d="M591.5,-396C591.5,-396 485.5,-396 485.5,-396 479.5,-396 473.5,-390 473.5,-384 473.5,-384 473.5,-372 473.5,-372 473.5,-366 479.5,-360 485.5,-360 485.5,-360 591.5,-360 591.5,-360 597.5,-360 603.5,-366 603.5,-372 603.5,-372 603.5,-384 603.5,-384 603.5,-390 597.5,-396 591.5,-396"/>
<text text-anchor="middle" x="538.5" y="-375.5" font-family="sans" font-size="10.00">generate_deseq_object</text>
</g>
<!-- 9&#45;&gt;5 -->
<g id="edge9" class="edge"><title>9&#45;&gt;5</title>
<path fill="none" stroke="grey" stroke-width="2" d="M533.028,-359.832C522.688,-329.039 498.167,-263.23 463.5,-216 455.744,-205.433 445.639,-195.332 436.04,-186.835"/>
<polygon fill="grey" stroke="grey" stroke-width="2" points="438.036,-183.936 428.16,-180.1 433.488,-189.258 438.036,-183.936"/>
</g>
<!-- 9&#45;&gt;7 -->
<g id="edge11" class="edge"><title>9&#45;&gt;7</title>
<path fill="none" stroke="grey" stroke-width="2" d="M539.862,-359.849C542.803,-322.832 549.766,-235.181 553.324,-190.386"/>
<polygon fill="grey" stroke="grey" stroke-width="2" points="556.828,-190.478 554.131,-180.232 549.85,-189.924 556.828,-190.478"/>
</g>
<!-- 9&#45;&gt;8 -->
<g id="edge16" class="edge"><title>9&#45;&gt;8</title>
<path fill="none" stroke="grey" stroke-width="2" d="M524.249,-359.892C508.916,-341.689 483.614,-312.233 460.5,-288 451.276,-278.33 440.791,-268.059 431.466,-259.16"/>
<polygon fill="grey" stroke="grey" stroke-width="2" points="433.628,-256.386 423.961,-252.05 428.814,-261.468 433.628,-256.386"/>
</g>
<!-- 13 -->
<g id="node14" class="node"><title>13</title>
<path fill="none" stroke="#56d0d8" stroke-width="2" d="M439.5,-324C439.5,-324 377.5,-324 377.5,-324 371.5,-324 365.5,-318 365.5,-312 365.5,-312 365.5,-300 365.5,-300 365.5,-294 371.5,-288 377.5,-288 377.5,-288 439.5,-288 439.5,-288 445.5,-288 451.5,-294 451.5,-300 451.5,-300 451.5,-312 451.5,-312 451.5,-318 445.5,-324 439.5,-324"/>
<text text-anchor="middle" x="408.5" y="-303.5" font-family="sans" font-size="10.00">calculate_tpm</text>
</g>
<!-- 9&#45;&gt;13 -->
<g id="edge23" class="edge"><title>9&#45;&gt;13</title>
<path fill="none" stroke="grey" stroke-width="2" d="M506.698,-359.876C489.386,-350.554 467.779,-338.919 449.244,-328.939"/>
<polygon fill="grey" stroke="grey" stroke-width="2" points="450.888,-325.849 440.424,-324.19 447.569,-332.012 450.888,-325.849"/>
</g>
<!-- 10 -->
<g id="node11" class="node"><title>10</title>
<path fill="none" stroke="#68d856" stroke-width="2" d="M220.5,-324C220.5,-324 86.5,-324 86.5,-324 80.5,-324 74.5,-318 74.5,-312 74.5,-312 74.5,-300 74.5,-300 74.5,-294 80.5,-288 86.5,-288 86.5,-288 220.5,-288 220.5,-288 226.5,-288 232.5,-294 232.5,-300 232.5,-300 232.5,-312 232.5,-312 232.5,-318 226.5,-324 220.5,-324"/>
<text text-anchor="middle" x="153.5" y="-303.5" font-family="sans" font-size="10.00">combine_background_counts</text>
</g>
<!-- 10&#45;&gt;8 -->
<g id="edge15" class="edge"><title>10&#45;&gt;8</title>
<path fill="none" stroke="grey" stroke-width="2" d="M214.824,-287.966C254.713,-276.885 306.467,-262.509 345.99,-251.531"/>
<polygon fill="grey" stroke="grey" stroke-width="2" points="347.061,-254.866 355.759,-248.817 345.187,-248.121 347.061,-254.866"/>
</g>
<!-- 11 -->
<g id="node12" class="node"><title>11</title>
<path fill="none" stroke="#56d8a9" stroke-width="2" d="M332,-396C332,-396 213,-396 213,-396 207,-396 201,-390 201,-384 201,-384 201,-372 201,-372 201,-366 207,-360 213,-360 213,-360 332,-360 332,-360 338,-360 344,-366 344,-372 344,-372 344,-384 344,-384 344,-390 338,-396 332,-396"/>
<text text-anchor="middle" x="272.5" y="-375.5" font-family="sans" font-size="10.00">calculate_feature_lengths</text>
</g>
<!-- 11&#45;&gt;8 -->
<g id="edge12" class="edge"><title>11&#45;&gt;8</title>
<path fill="none" stroke="grey" stroke-width="2" d="M286.229,-359.763C301.037,-341.453 325.582,-311.908 348.5,-288 357.944,-278.148 368.809,-267.82 378.503,-258.925"/>
<polygon fill="grey" stroke="grey" stroke-width="2" points="380.928,-261.45 385.977,-252.135 376.222,-256.269 380.928,-261.45"/>
</g>
<!-- 11&#45;&gt;13 -->
<g id="edge22" class="edge"><title>11&#45;&gt;13</title>
<path fill="none" stroke="grey" stroke-width="2" d="M305.769,-359.876C323.963,-350.512 346.691,-338.814 366.14,-328.803"/>
<polygon fill="grey" stroke="grey" stroke-width="2" points="367.813,-331.878 375.103,-324.19 364.61,-325.654 367.813,-331.878"/>
</g>
<!-- 12 -->
<g id="node13" class="node"><title>12</title>
<path fill="none" stroke="#56b9d8" stroke-width="2" d="M443,-396C443,-396 374,-396 374,-396 368,-396 362,-390 362,-384 362,-384 362,-372 362,-372 362,-366 368,-360 374,-360 374,-360 443,-360 443,-360 449,-360 455,-366 455,-372 455,-372 455,-384 455,-384 455,-390 449,-396 443,-396"/>
<text text-anchor="middle" x="408.5" y="-375.5" font-family="sans" font-size="10.00">parse_star_logs</text>
</g>
<!-- 12&#45;&gt;8 -->
<g id="edge14" class="edge"><title>12&#45;&gt;8</title>
<path fill="none" stroke="grey" stroke-width="2" d="M384.748,-359.91C373.947,-350.651 362.303,-338.2 356.5,-324 350.448,-309.189 350.668,-302.899 356.5,-288 360.697,-277.279 368.192,-267.427 376.078,-259.201"/>
<polygon fill="grey" stroke="grey" stroke-width="2" points="378.623,-261.608 383.347,-252.125 373.74,-256.592 378.623,-261.608"/>
</g>
<!-- 12&#45;&gt;13 -->
<g id="edge21" class="edge"><title>12&#45;&gt;13</title>
<path fill="none" stroke="grey" stroke-width="2" d="M408.5,-359.697C408.5,-351.983 408.5,-342.712 408.5,-334.112"/>
<polygon fill="grey" stroke="grey" stroke-width="2" points="412,-334.104 408.5,-324.104 405,-334.104 412,-334.104"/>
</g>
<!-- 13&#45;&gt;8 -->
<g id="edge13" class="edge"><title>13&#45;&gt;8</title>
<path fill="none" stroke="grey" stroke-width="2" d="M407.758,-287.697C407.428,-279.983 407.031,-270.712 406.662,-262.112"/>
<polygon fill="grey" stroke="grey" stroke-width="2" points="410.158,-261.945 406.233,-252.104 403.165,-262.245 410.158,-261.945"/>
</g>
<!-- 14 -->
<g id="node15" class="node"><title>14</title>
<path fill="none" stroke="#d8a456" stroke-width="2" d="M168,-468C168,-468 93,-468 93,-468 87,-468 81,-462 81,-456 81,-456 81,-444 81,-444 81,-438 87,-432 93,-432 93,-432 168,-432 168,-432 174,-432 180,-438 180,-444 180,-444 180,-456 180,-456 180,-462 174,-468 168,-468"/>
<text text-anchor="middle" x="130.5" y="-447.5" font-family="sans" font-size="10.00">second_mapping</text>
</g>
<!-- 14&#45;&gt;9 -->
<g id="edge17" class="edge"><title>14&#45;&gt;9</title>
<path fill="none" stroke="grey" stroke-width="2" d="M180.043,-442.143C243.274,-433.163 356.235,-416.358 463.116,-396.003"/>
<polygon fill="grey" stroke="grey" stroke-width="2" points="463.945,-399.407 473.106,-394.086 462.626,-392.533 463.945,-399.407"/>
</g>
<!-- 14&#45;&gt;12 -->
<g id="edge20" class="edge"><title>14&#45;&gt;12</title>
<path fill="none" stroke="grey" stroke-width="2" d="M180.094,-438.062C223.024,-428.39 286.979,-413.498 351.82,-396.102"/>
<polygon fill="grey" stroke="grey" stroke-width="2" points="353.069,-399.391 361.81,-393.404 351.243,-392.633 353.069,-399.391"/>
</g>
<!-- 15 -->
<g id="node16" class="node"><title>15</title>
<path fill="none" stroke="#56d8b9" stroke-width="2" d="M170.5,-396C170.5,-396 88.5,-396 88.5,-396 82.5,-396 76.5,-390 76.5,-384 76.5,-384 76.5,-372 76.5,-372 76.5,-366 82.5,-360 88.5,-360 88.5,-360 170.5,-360 170.5,-360 176.5,-360 182.5,-366 182.5,-372 182.5,-372 182.5,-384 182.5,-384 182.5,-390 176.5,-396 170.5,-396"/>
<text text-anchor="middle" x="129.5" y="-375.5" font-family="sans" font-size="10.00">count_background</text>
</g>
<!-- 14&#45;&gt;15 -->
<g id="edge28" class="edge"><title>14&#45;&gt;15</title>
<path fill="none" stroke="grey" stroke-width="2" d="M130.253,-431.697C130.143,-423.983 130.01,-414.712 129.887,-406.112"/>
<polygon fill="grey" stroke="grey" stroke-width="2" points="133.387,-406.053 129.744,-396.104 126.388,-406.153 133.387,-406.053"/>
</g>
<!-- 15&#45;&gt;10 -->
<g id="edge18" class="edge"><title>15&#45;&gt;10</title>
<path fill="none" stroke="grey" stroke-width="2" d="M135.433,-359.697C138.106,-351.898 141.326,-342.509 144.301,-333.829"/>
<polygon fill="grey" stroke="grey" stroke-width="2" points="147.703,-334.699 147.636,-324.104 141.082,-332.429 147.703,-334.699"/>
</g>
<!-- 16 -->
<g id="node17" class="node"><title>16</title>
<path fill="none" stroke="#56d892" stroke-width="2" d="M257,-684C257,-684 202,-684 202,-684 196,-684 190,-678 190,-672 190,-672 190,-660 190,-660 190,-654 196,-648 202,-648 202,-648 257,-648 257,-648 263,-648 269,-654 269,-660 269,-660 269,-672 269,-672 269,-678 263,-684 257,-684"/>
<text text-anchor="middle" x="229.5" y="-663.5" font-family="sans" font-size="10.00">generate_gtf</text>
</g>
<!-- 16&#45;&gt;11 -->
<g id="edge19" class="edge"><title>16&#45;&gt;11</title>
<path fill="none" stroke="grey" stroke-width="2" d="M233.237,-647.678C238.334,-623.611 247.517,-578.653 253.5,-540 260.734,-493.27 266.656,-438.533 269.873,-406.425"/>
<polygon fill="grey" stroke="grey" stroke-width="2" points="273.358,-406.743 270.858,-396.448 266.392,-406.056 273.358,-406.743"/>
</g>
<!-- 17 -->
<g id="node18" class="node"><title>17</title>
<path fill="none" stroke="#d8bc56" stroke-width="2" d="M189,-612C189,-612 108,-612 108,-612 102,-612 96,-606 96,-600 96,-600 96,-588 96,-588 96,-582 102,-576 108,-576 108,-576 189,-576 189,-576 195,-576 201,-582 201,-588 201,-588 201,-600 201,-600 201,-606 195,-612 189,-612"/>
<text text-anchor="middle" x="148.5" y="-591.5" font-family="sans" font-size="10.00">generate_genome</text>
</g>
<!-- 16&#45;&gt;17 -->
<g id="edge29" class="edge"><title>16&#45;&gt;17</title>
<path fill="none" stroke="grey" stroke-width="2" d="M209.478,-647.697C199.374,-638.965 186.964,-628.24 175.982,-618.75"/>
<polygon fill="grey" stroke="grey" stroke-width="2" points="178.147,-615.995 168.292,-612.104 173.57,-621.291 178.147,-615.995"/>
</g>
<!-- 20 -->
<g id="node21" class="node"><title>20</title>
<path fill="none" stroke="#5692d8" stroke-width="2" d="M232.5,-540C232.5,-540 188.5,-540 188.5,-540 182.5,-540 176.5,-534 176.5,-528 176.5,-528 176.5,-516 176.5,-516 176.5,-510 182.5,-504 188.5,-504 188.5,-504 232.5,-504 232.5,-504 238.5,-504 244.5,-510 244.5,-516 244.5,-516 244.5,-528 244.5,-528 244.5,-534 238.5,-540 232.5,-540"/>
<text text-anchor="middle" x="210.5" y="-519.5" font-family="sans" font-size="10.00">shuffle_gtf</text>
</g>
<!-- 16&#45;&gt;20 -->
<g id="edge33" class="edge"><title>16&#45;&gt;20</title>
<path fill="none" stroke="grey" stroke-width="2" d="M227.208,-647.871C223.97,-623.67 218.021,-579.211 214.165,-550.393"/>
<polygon fill="grey" stroke="grey" stroke-width="2" points="217.595,-549.637 212.8,-540.189 210.657,-550.565 217.595,-549.637"/>
</g>
<!-- 17&#45;&gt;14 -->
<g id="edge25" class="edge"><title>17&#45;&gt;14</title>
<path fill="none" stroke="grey" stroke-width="2" d="M146.329,-575.871C143.261,-551.67 137.625,-507.211 133.972,-478.393"/>
<polygon fill="grey" stroke="grey" stroke-width="2" points="137.409,-477.67 132.679,-468.189 130.464,-478.55 137.409,-477.67"/>
</g>
<!-- 19 -->
<g id="node20" class="node"><title>19</title>
<path fill="none" stroke="#567bd8" stroke-width="2" d="M108,-540C108,-540 49,-540 49,-540 43,-540 37,-534 37,-528 37,-528 37,-516 37,-516 37,-510 43,-504 49,-504 49,-504 108,-504 108,-504 114,-504 120,-510 120,-516 120,-516 120,-528 120,-528 120,-534 114,-540 108,-540"/>
<text text-anchor="middle" x="78.5" y="-519.5" font-family="sans" font-size="10.00">first_mapping</text>
</g>
<!-- 17&#45;&gt;19 -->
<g id="edge32" class="edge"><title>17&#45;&gt;19</title>
<path fill="none" stroke="grey" stroke-width="2" d="M131.197,-575.697C122.635,-567.135 112.156,-556.656 102.804,-547.304"/>
<polygon fill="grey" stroke="grey" stroke-width="2" points="105.15,-544.701 95.6043,-540.104 100.201,-549.65 105.15,-544.701"/>
</g>
<!-- 17&#45;&gt;20 -->
<g id="edge34" class="edge"><title>17&#45;&gt;20</title>
<path fill="none" stroke="grey" stroke-width="2" d="M163.826,-575.697C171.259,-567.305 180.323,-557.07 188.48,-547.861"/>
<polygon fill="grey" stroke="grey" stroke-width="2" points="191.34,-549.911 195.35,-540.104 186.1,-545.27 191.34,-549.911"/>
</g>
<!-- 18 -->
<g id="node19" class="node"><title>18</title>
<path fill="none" stroke="#a7d856" stroke-width="2" d="M44.5,-612C44.5,-612 14.5,-612 14.5,-612 8.5,-612 2.5,-606 2.5,-600 2.5,-600 2.5,-588 2.5,-588 2.5,-582 8.5,-576 14.5,-576 14.5,-576 44.5,-576 44.5,-576 50.5,-576 56.5,-582 56.5,-588 56.5,-588 56.5,-600 56.5,-600 56.5,-606 50.5,-612 44.5,-612"/>
<text text-anchor="middle" x="29.5" y="-591.5" font-family="sans" font-size="10.00">gzip</text>
</g>
<!-- 18&#45;&gt;14 -->
<g id="edge24" class="edge"><title>18&#45;&gt;14</title>
<path fill="none" stroke="grey" stroke-width="2" d="M23.978,-575.855C18.9462,-556.822 14.1386,-525.902 27.5,-504 37.4416,-487.704 54.1716,-476.206 71.2891,-468.188"/>
<polygon fill="grey" stroke="grey" stroke-width="2" points="73.0038,-471.26 80.798,-464.084 70.2297,-464.834 73.0038,-471.26"/>
</g>
<!-- 18&#45;&gt;19 -->
<g id="edge31" class="edge"><title>18&#45;&gt;19</title>
<path fill="none" stroke="grey" stroke-width="2" d="M41.6124,-575.697C47.3681,-567.474 54.3617,-557.483 60.7055,-548.421"/>
<polygon fill="grey" stroke="grey" stroke-width="2" points="63.6596,-550.304 66.527,-540.104 57.925,-546.29 63.6596,-550.304"/>
</g>
<!-- 19&#45;&gt;14 -->
<g id="edge26" class="edge"><title>19&#45;&gt;14</title>
<path fill="none" stroke="grey" stroke-width="2" d="M91.3539,-503.697C97.5251,-495.389 105.037,-485.277 111.824,-476.141"/>
<polygon fill="grey" stroke="grey" stroke-width="2" points="114.64,-478.219 117.794,-468.104 109.021,-474.045 114.64,-478.219"/>
</g>
<!-- 20&#45;&gt;15 -->
<g id="edge27" class="edge"><title>20&#45;&gt;15</title>
<path fill="none" stroke="grey" stroke-width="2" d="M209.26,-503.793C207.249,-484.98 202.016,-454.517 188.5,-432 181.912,-421.025 172.327,-411.031 162.792,-402.754"/>
<polygon fill="grey" stroke="grey" stroke-width="2" points="164.805,-399.877 154.861,-396.22 160.354,-405.28 164.805,-399.877"/>
</g>
<!-- 21 -->
<g id="node22" class="node"><title>21</title>
<path fill="none" stroke="#56d8d0" stroke-width="2" d="M47,-684C47,-684 12,-684 12,-684 6,-684 0,-678 0,-672 0,-672 0,-660 0,-660 0,-654 6,-648 12,-648 12,-648 47,-648 47,-648 53,-648 59,-654 59,-660 59,-660 59,-672 59,-672 59,-678 53,-684 47,-684"/>
<text text-anchor="middle" x="29.5" y="-663.5" font-family="sans" font-size="10.00">cutadapt</text>
</g>
<!-- 21&#45;&gt;18 -->
<g id="edge30" class="edge"><title>21&#45;&gt;18</title>
<path fill="none" stroke="grey" stroke-width="2" d="M29.5,-647.697C29.5,-639.983 29.5,-630.712 29.5,-622.112"/>
<polygon fill="grey" stroke="grey" stroke-width="2" points="33.0001,-622.104 29.5,-612.104 26.0001,-622.104 33.0001,-622.104"/>
</g>
<!-- 22 -->
<g id="node23" class="node"><title>22</title>
<path fill="none" stroke="#80d856" stroke-width="2" d="M44.5,-756C44.5,-756 14.5,-756 14.5,-756 8.5,-756 2.5,-750 2.5,-744 2.5,-744 2.5,-732 2.5,-732 2.5,-726 8.5,-720 14.5,-720 14.5,-720 44.5,-720 44.5,-720 50.5,-720 56.5,-726 56.5,-732 56.5,-732 56.5,-744 56.5,-744 56.5,-750 50.5,-756 44.5,-756"/>
<text text-anchor="middle" x="29.5" y="-735.5" font-family="sans" font-size="10.00">repair</text>
</g>
<!-- 22&#45;&gt;21 -->
<g id="edge35" class="edge"><title>22&#45;&gt;21</title>
<path fill="none" stroke="grey" stroke-width="2" d="M29.5,-719.697C29.5,-711.983 29.5,-702.712 29.5,-694.112"/>
<polygon fill="grey" stroke="grey" stroke-width="2" points="33.0001,-694.104 29.5,-684.104 26.0001,-694.104 33.0001,-694.104"/>
</g>
</g>
</svg>
