<?xml version="1.0" encoding="UTF-8" standalone="no"?>
<!DOCTYPE svg PUBLIC "-//W3C//DTD SVG 1.1//EN"
 "http://www.w3.org/Graphics/SVG/1.1/DTD/svg11.dtd">
<!-- Generated by graphviz version 2.38.0 (20140413.2041)
 -->
<!-- Title: snakemake_dag Pages: 1 -->
<svg width="209pt" height="332pt"
 viewBox="0.00 0.00 209.00 332.00" xmlns="http://www.w3.org/2000/svg" xmlns:xlink="http://www.w3.org/1999/xlink">
<g id="graph0" class="graph" transform="scale(1 1) rotate(0) translate(4 328)">
<title>snakemake_dag</title>
<polygon fill="white" stroke="none" points="-4,4 -4,-328 205,-328 205,4 -4,4"/>
<!-- 0 -->
<g id="node1" class="node"><title>0</title>
<path fill="none" stroke="#59d856" stroke-width="2" d="M127,-36C127,-36 52,-36 52,-36 46,-36 40,-30 40,-24 40,-24 40,-12 40,-12 40,-6 46,-0 52,-0 52,-0 127,-0 127,-0 133,-0 139,-6 139,-12 139,-12 139,-24 139,-24 139,-30 133,-36 127,-36"/>
<text text-anchor="middle" x="89.5" y="-15.5" font-family="sans" font-size="10.00">second_mapping</text>
</g>
<!-- 1 -->
<g id="node2" class="node"><title>1</title>
<path fill="none" stroke="#56d8d8" stroke-width="2" d="M119,-108C119,-108 60,-108 60,-108 54,-108 48,-102 48,-96 48,-96 48,-84 48,-84 48,-78 54,-72 60,-72 60,-72 119,-72 119,-72 125,-72 131,-78 131,-84 131,-84 131,-96 131,-96 131,-102 125,-108 119,-108"/>
<text text-anchor="middle" x="89.5" y="-87.5" font-family="sans" font-size="10.00">first_mapping</text>
</g>
<!-- 1&#45;&gt;0 -->
<g id="edge2" class="edge"><title>1&#45;&gt;0</title>
<path fill="none" stroke="grey" stroke-width="2" d="M89.5,-71.6966C89.5,-63.9827 89.5,-54.7125 89.5,-46.1124"/>
<polygon fill="grey" stroke="grey" stroke-width="2" points="93.0001,-46.1043 89.5,-36.1043 86.0001,-46.1044 93.0001,-46.1043"/>
</g>
<!-- 2 -->
<g id="node3" class="node"><title>2</title>
<path fill="none" stroke="#d89556" stroke-width="2" d="M44.5,-180C44.5,-180 14.5,-180 14.5,-180 8.5,-180 2.5,-174 2.5,-168 2.5,-168 2.5,-156 2.5,-156 2.5,-150 8.5,-144 14.5,-144 14.5,-144 44.5,-144 44.5,-144 50.5,-144 56.5,-150 56.5,-156 56.5,-156 56.5,-168 56.5,-168 56.5,-174 50.5,-180 44.5,-180"/>
<text text-anchor="middle" x="29.5" y="-159.5" font-family="sans" font-size="10.00">gzip</text>
</g>
<!-- 2&#45;&gt;0 -->
<g id="edge3" class="edge"><title>2&#45;&gt;0</title>
<path fill="none" stroke="grey" stroke-width="2" d="M28.0067,-143.734C27.1173,-125.139 27.8021,-95.1139 38.5,-72 43.4278,-61.353 51.3873,-51.5218 59.5678,-43.2921"/>
<polygon fill="grey" stroke="grey" stroke-width="2" points="62.1998,-45.6203 67.062,-36.207 57.3908,-40.5337 62.1998,-45.6203"/>
</g>
<!-- 2&#45;&gt;1 -->
<g id="edge5" class="edge"><title>2&#45;&gt;1</title>
<path fill="none" stroke="grey" stroke-width="2" d="M44.3315,-143.697C51.5247,-135.305 60.2967,-125.07 68.1903,-115.861"/>
<polygon fill="grey" stroke="grey" stroke-width="2" points="70.9886,-117.975 74.8391,-108.104 65.6738,-113.419 70.9886,-117.975"/>
</g>
<!-- 3 -->
<g id="node4" class="node"><title>3</title>
<path fill="none" stroke="#569ad8" stroke-width="2" d="M189,-180C189,-180 108,-180 108,-180 102,-180 96,-174 96,-168 96,-168 96,-156 96,-156 96,-150 102,-144 108,-144 108,-144 189,-144 189,-144 195,-144 201,-150 201,-156 201,-156 201,-168 201,-168 201,-174 195,-180 189,-180"/>
<text text-anchor="middle" x="148.5" y="-159.5" font-family="sans" font-size="10.00">generate_genome</text>
</g>
<!-- 3&#45;&gt;0 -->
<g id="edge1" class="edge"><title>3&#45;&gt;0</title>
<path fill="none" stroke="grey" stroke-width="2" d="M149.949,-143.754C150.8,-125.177 150.083,-95.1665 139.5,-72 134.63,-61.3408 126.737,-51.4556 118.647,-43.1801"/>
<polygon fill="grey" stroke="grey" stroke-width="2" points="120.876,-40.4674 111.243,-36.0567 116.023,-45.512 120.876,-40.4674"/>
</g>
<!-- 3&#45;&gt;1 -->
<g id="edge4" class="edge"><title>3&#45;&gt;1</title>
<path fill="none" stroke="grey" stroke-width="2" d="M133.916,-143.697C126.842,-135.305 118.217,-125.07 110.455,-115.861"/>
<polygon fill="grey" stroke="grey" stroke-width="2" points="113.037,-113.495 103.917,-108.104 107.685,-118.006 113.037,-113.495"/>
</g>
<!-- 4 -->
<g id="node5" class="node"><title>4</title>
<path fill="none" stroke="#56d89a" stroke-width="2" d="M47,-252C47,-252 12,-252 12,-252 6,-252 0,-246 0,-240 0,-240 0,-228 0,-228 0,-222 6,-216 12,-216 12,-216 47,-216 47,-216 53,-216 59,-222 59,-228 59,-228 59,-240 59,-240 59,-246 53,-252 47,-252"/>
<text text-anchor="middle" x="29.5" y="-231.5" font-family="sans" font-size="10.00">cutadapt</text>
</g>
<!-- 4&#45;&gt;2 -->
<g id="edge6" class="edge"><title>4&#45;&gt;2</title>
<path fill="none" stroke="grey" stroke-width="2" d="M29.5,-215.697C29.5,-207.983 29.5,-198.712 29.5,-190.112"/>
<polygon fill="grey" stroke="grey" stroke-width="2" points="33.0001,-190.104 29.5,-180.104 26.0001,-190.104 33.0001,-190.104"/>
</g>
<!-- 5 -->
<g id="node6" class="node"><title>5</title>
<path fill="none" stroke="#97d856" stroke-width="2" d="M176,-252C176,-252 121,-252 121,-252 115,-252 109,-246 109,-240 109,-240 109,-228 109,-228 109,-222 115,-216 121,-216 121,-216 176,-216 176,-216 182,-216 188,-222 188,-228 188,-228 188,-240 188,-240 188,-246 182,-252 176,-252"/>
<text text-anchor="middle" x="148.5" y="-231.5" font-family="sans" font-size="10.00">generate_gtf</text>
</g>
<!-- 5&#45;&gt;3 -->
<g id="edge7" class="edge"><title>5&#45;&gt;3</title>
<path fill="none" stroke="grey" stroke-width="2" d="M148.5,-215.697C148.5,-207.983 148.5,-198.712 148.5,-190.112"/>
<polygon fill="grey" stroke="grey" stroke-width="2" points="152,-190.104 148.5,-180.104 145,-190.104 152,-190.104"/>
</g>
<!-- 6 -->
<g id="node7" class="node"><title>6</title>
<path fill="none" stroke="#d85656" stroke-width="2" d="M44.5,-324C44.5,-324 14.5,-324 14.5,-324 8.5,-324 2.5,-318 2.5,-312 2.5,-312 2.5,-300 2.5,-300 2.5,-294 8.5,-288 14.5,-288 14.5,-288 44.5,-288 44.5,-288 50.5,-288 56.5,-294 56.5,-300 56.5,-300 56.5,-312 56.5,-312 56.5,-318 50.5,-324 44.5,-324"/>
<text text-anchor="middle" x="29.5" y="-303.5" font-family="sans" font-size="10.00">repair</text>
</g>
<!-- 6&#45;&gt;4 -->
<g id="edge8" class="edge"><title>6&#45;&gt;4</title>
<path fill="none" stroke="grey" stroke-width="2" d="M29.5,-287.697C29.5,-279.983 29.5,-270.712 29.5,-262.112"/>
<polygon fill="grey" stroke="grey" stroke-width="2" points="33.0001,-262.104 29.5,-252.104 26.0001,-262.104 33.0001,-262.104"/>
</g>
</g>
</svg>
