<?xml version="1.0" encoding="UTF-8" standalone="no"?>
<!DOCTYPE svg PUBLIC "-//W3C//DTD SVG 1.1//EN"
 "http://www.w3.org/Graphics/SVG/1.1/DTD/svg11.dtd">
<!-- Generated by graphviz version 2.40.1 (20161225.0304)
 -->
<!-- Title: snakemake_dag Pages: 1 -->
<svg width="1095pt" height="836pt"
 viewBox="0.00 0.00 1094.50 836.00" xmlns="http://www.w3.org/2000/svg" xmlns:xlink="http://www.w3.org/1999/xlink">
<g id="graph0" class="graph" transform="scale(1 1) rotate(0) translate(4 832)">
<title>snakemake_dag</title>
<polygon fill="#ffffff" stroke="transparent" points="-4,4 -4,-832 1090.5,-832 1090.5,4 -4,4"/>
<!-- 0 -->
<g id="node1" class="node">
<title>0</title>
<path fill="none" stroke="#b6d856" stroke-width="2" d="M459,-36C459,-36 352,-36 352,-36 346,-36 340,-30 340,-24 340,-24 340,-12 340,-12 340,-6 346,0 352,0 352,0 459,0 459,0 465,0 471,-6 471,-12 471,-12 471,-24 471,-24 471,-30 465,-36 459,-36"/>
<text text-anchor="middle" x="405.5" y="-15.5" font-family="sans" font-size="10.00" fill="#000000">cluster_phenotype_corr</text>
</g>
<!-- 1 -->
<g id="node2" class="node">
<title>1</title>
<path fill="none" stroke="#d86e56" stroke-width="2" d="M494.5,-324C494.5,-324 402.5,-324 402.5,-324 396.5,-324 390.5,-318 390.5,-312 390.5,-312 390.5,-300 390.5,-300 390.5,-294 396.5,-288 402.5,-288 402.5,-288 494.5,-288 494.5,-288 500.5,-288 506.5,-294 506.5,-300 506.5,-300 506.5,-312 506.5,-312 506.5,-318 500.5,-324 494.5,-324"/>
<text text-anchor="middle" x="448.5" y="-303.5" font-family="sans" font-size="10.00" fill="#000000">mads_ap2_heatmap</text>
</g>
<!-- 2 -->
<g id="node3" class="node">
<title>2</title>
<path fill="none" stroke="#d87556" stroke-width="2" d="M79,-36C79,-36 12,-36 12,-36 6,-36 0,-30 0,-24 0,-24 0,-12 0,-12 0,-6 6,0 12,0 12,0 79,0 79,0 85,0 91,-6 91,-12 91,-12 91,-24 91,-24 91,-30 85,-36 79,-36"/>
<text text-anchor="middle" x="45.5" y="-15.5" font-family="sans" font-size="10.00" fill="#000000">phenotype_pca</text>
</g>
<!-- 3 -->
<g id="node4" class="node">
<title>3</title>
<path fill="none" stroke="#d88556" stroke-width="2" d="M838,-180C838,-180 755,-180 755,-180 749,-180 743,-174 743,-168 743,-168 743,-156 743,-156 743,-150 749,-144 755,-144 755,-144 838,-144 838,-144 844,-144 850,-150 850,-156 850,-156 850,-168 850,-168 850,-174 844,-180 838,-180"/>
<text text-anchor="middle" x="796.5" y="-159.5" font-family="sans" font-size="10.00" fill="#000000">distance_heatmap</text>
</g>
<!-- 4 -->
<g id="node5" class="node">
<title>4</title>
<path fill="none" stroke="#56b9d8" stroke-width="2" d="M776,-828C776,-828 699,-828 699,-828 693,-828 687,-822 687,-816 687,-816 687,-804 687,-804 687,-798 693,-792 699,-792 699,-792 776,-792 776,-792 782,-792 788,-798 788,-804 788,-804 788,-816 788,-816 788,-822 782,-828 776,-828"/>
<text text-anchor="middle" x="737.5" y="-807.5" font-family="sans" font-size="10.00" fill="#000000">phenotyping_mpl</text>
</g>
<!-- 5 -->
<g id="node6" class="node">
<title>5</title>
<path fill="none" stroke="#56d863" stroke-width="2" d="M365.5,-108C365.5,-108 293.5,-108 293.5,-108 287.5,-108 281.5,-102 281.5,-96 281.5,-96 281.5,-84 281.5,-84 281.5,-78 287.5,-72 293.5,-72 293.5,-72 365.5,-72 365.5,-72 371.5,-72 377.5,-78 377.5,-84 377.5,-84 377.5,-96 377.5,-96 377.5,-102 371.5,-108 365.5,-108"/>
<text text-anchor="middle" x="329.5" y="-87.5" font-family="sans" font-size="10.00" fill="#000000">clustered_genes</text>
</g>
<!-- 6 -->
<g id="node7" class="node">
<title>6</title>
<path fill="none" stroke="#56d86b" stroke-width="2" d="M892.5,-828C892.5,-828 818.5,-828 818.5,-828 812.5,-828 806.5,-822 806.5,-816 806.5,-816 806.5,-804 806.5,-804 806.5,-798 812.5,-792 818.5,-792 818.5,-792 892.5,-792 892.5,-792 898.5,-792 904.5,-798 904.5,-804 904.5,-804 904.5,-816 904.5,-816 904.5,-822 898.5,-828 892.5,-828"/>
<text text-anchor="middle" x="855.5" y="-807.5" font-family="sans" font-size="10.00" fill="#000000">panicle_mutants</text>
</g>
<!-- 7 -->
<g id="node8" class="node">
<title>7</title>
<path fill="none" stroke="#d88d56" stroke-width="2" d="M620,-324C620,-324 537,-324 537,-324 531,-324 525,-318 525,-312 525,-312 525,-300 525,-300 525,-294 531,-288 537,-288 537,-288 620,-288 620,-288 626,-288 632,-294 632,-300 632,-300 632,-312 632,-312 632,-318 626,-324 620,-324"/>
<text text-anchor="middle" x="578.5" y="-303.5" font-family="sans" font-size="10.00" fill="#000000">transcriptome_pca</text>
</g>
<!-- 8 -->
<g id="node9" class="node">
<title>8</title>
<path fill="none" stroke="#d8b456" stroke-width="2" d="M964.5,-828C964.5,-828 934.5,-828 934.5,-828 928.5,-828 922.5,-822 922.5,-816 922.5,-816 922.5,-804 922.5,-804 922.5,-798 928.5,-792 934.5,-792 934.5,-792 964.5,-792 964.5,-792 970.5,-792 976.5,-798 976.5,-804 976.5,-804 976.5,-816 976.5,-816 976.5,-822 970.5,-828 964.5,-828"/>
<text text-anchor="middle" x="949.5" y="-807.5" font-family="sans" font-size="10.00" fill="#000000">md5</text>
</g>
<!-- 9 -->
<g id="node10" class="node">
<title>9</title>
<path fill="none" stroke="#569ad8" stroke-width="2" d="M230,-396C230,-396 193,-396 193,-396 187,-396 181,-390 181,-384 181,-384 181,-372 181,-372 181,-366 187,-360 193,-360 193,-360 230,-360 230,-360 236,-360 242,-366 242,-372 242,-372 242,-384 242,-384 242,-390 236,-396 230,-396"/>
<text text-anchor="middle" x="211.5" y="-375.5" font-family="sans" font-size="10.00" fill="#000000">star_logs</text>
</g>
<!-- 10 -->
<g id="node11" class="node">
<title>10</title>
<path fill="none" stroke="#56d882" stroke-width="2" d="M935,-108C935,-108 864,-108 864,-108 858,-108 852,-102 852,-96 852,-96 852,-84 852,-84 852,-78 858,-72 864,-72 864,-72 935,-72 935,-72 941,-72 947,-78 947,-84 947,-84 947,-96 947,-96 947,-102 941,-108 935,-108"/>
<text text-anchor="middle" x="899.5" y="-87.5" font-family="sans" font-size="10.00" fill="#000000">de_genes_stage</text>
</g>
<!-- 11 -->
<g id="node12" class="node">
<title>11</title>
<path fill="none" stroke="#5682d8" stroke-width="2" d="M1074.5,-828C1074.5,-828 1006.5,-828 1006.5,-828 1000.5,-828 994.5,-822 994.5,-816 994.5,-816 994.5,-804 994.5,-804 994.5,-798 1000.5,-792 1006.5,-792 1006.5,-792 1074.5,-792 1074.5,-792 1080.5,-792 1086.5,-798 1086.5,-804 1086.5,-804 1086.5,-816 1086.5,-816 1086.5,-822 1080.5,-828 1074.5,-828"/>
<text text-anchor="middle" x="1040.5" y="-807.5" font-family="sans" font-size="10.00" fill="#000000">lmd_paper_ap2</text>
</g>
<!-- 12 -->
<g id="node13" class="node">
<title>12</title>
<path fill="none" stroke="#566bd8" stroke-width="2" d="M581,-108C581,-108 484,-108 484,-108 478,-108 472,-102 472,-96 472,-96 472,-84 472,-84 472,-78 478,-72 484,-72 484,-72 581,-72 581,-72 587,-72 593,-78 593,-84 593,-84 593,-96 593,-96 593,-102 587,-108 581,-108"/>
<text text-anchor="middle" x="532.5" y="-87.5" font-family="sans" font-size="10.00" fill="#000000">de_genes_interaction</text>
</g>
<!-- 13 -->
<g id="node14" class="node">
<title>13</title>
<path fill="none" stroke="#ced856" stroke-width="2" d="M672,-108C672,-108 623,-108 623,-108 617,-108 611,-102 611,-96 611,-96 611,-84 611,-84 611,-78 617,-72 623,-72 623,-72 672,-72 672,-72 678,-72 684,-78 684,-84 684,-84 684,-96 684,-96 684,-102 678,-108 672,-108"/>
<text text-anchor="middle" x="647.5" y="-87.5" font-family="sans" font-size="10.00" fill="#000000">dom_genes</text>
</g>
<!-- 14 -->
<g id="node15" class="node">
<title>14</title>
<path fill="none" stroke="#56a2d8" stroke-width="2" d="M507.5,-180C507.5,-180 467.5,-180 467.5,-180 461.5,-180 455.5,-174 455.5,-168 455.5,-168 455.5,-156 455.5,-156 455.5,-150 461.5,-144 467.5,-144 467.5,-144 507.5,-144 507.5,-144 513.5,-144 519.5,-150 519.5,-156 519.5,-156 519.5,-168 519.5,-168 519.5,-174 513.5,-180 507.5,-180"/>
<text text-anchor="middle" x="487.5" y="-159.5" font-family="sans" font-size="10.00" fill="#000000">deseq_tfs</text>
</g>
<!-- 14&#45;&gt;0 -->
<g id="edge2" class="edge">
<title>14&#45;&gt;0</title>
<path fill="none" stroke="#c0c0c0" stroke-width="2" d="M477.1146,-143.7623C462.8819,-118.7682 437.2137,-73.6924 420.7844,-44.8409"/>
<polygon fill="#c0c0c0" stroke="#c0c0c0" stroke-width="2" points="423.7909,-43.0475 415.801,-36.0896 417.708,-46.5114 423.7909,-43.0475"/>
</g>
<!-- 14&#45;&gt;12 -->
<g id="edge17" class="edge">
<title>14&#45;&gt;12</title>
<path fill="none" stroke="#c0c0c0" stroke-width="2" d="M498.8554,-143.8314C503.9326,-135.7079 510.0227,-125.9637 515.6176,-117.0118"/>
<polygon fill="#c0c0c0" stroke="#c0c0c0" stroke-width="2" points="518.6597,-118.7483 520.9917,-108.4133 512.7237,-115.0383 518.6597,-118.7483"/>
</g>
<!-- 14&#45;&gt;13 -->
<g id="edge18" class="edge">
<title>14&#45;&gt;13</title>
<path fill="none" stroke="#c0c0c0" stroke-width="2" d="M519.8784,-147.4297C543.3816,-136.8533 575.5069,-122.3969 601.6456,-110.6345"/>
<polygon fill="#c0c0c0" stroke="#c0c0c0" stroke-width="2" points="603.2947,-113.7305 610.9777,-106.4351 600.4221,-107.347 603.2947,-113.7305"/>
</g>
<!-- 15 -->
<g id="node16" class="node">
<title>15</title>
<path fill="none" stroke="#afd856" stroke-width="2" d="M89.5,-108C89.5,-108 57.5,-108 57.5,-108 51.5,-108 45.5,-102 45.5,-96 45.5,-96 45.5,-84 45.5,-84 45.5,-78 51.5,-72 57.5,-72 57.5,-72 89.5,-72 89.5,-72 95.5,-72 101.5,-78 101.5,-84 101.5,-84 101.5,-96 101.5,-96 101.5,-102 95.5,-108 89.5,-108"/>
<text text-anchor="middle" x="73.5" y="-87.5" font-family="sans" font-size="10.00" fill="#000000">cali_pca</text>
</g>
<!-- 15&#45;&gt;0 -->
<g id="edge1" class="edge">
<title>15&#45;&gt;0</title>
<path fill="none" stroke="#c0c0c0" stroke-width="2" d="M101.8626,-75.2546C104.7379,-74.0477 107.6492,-72.935 110.5,-72 182.9902,-48.2256 269.1397,-33.9761 329.5652,-26.1365"/>
<polygon fill="#c0c0c0" stroke="#c0c0c0" stroke-width="2" points="330.3065,-29.5706 339.7864,-24.8397 329.4254,-22.6263 330.3065,-29.5706"/>
</g>
<!-- 15&#45;&gt;2 -->
<g id="edge10" class="edge">
<title>15&#45;&gt;2</title>
<path fill="none" stroke="#c0c0c0" stroke-width="2" d="M66.4344,-71.8314C63.374,-63.9617 59.7221,-54.5712 56.3318,-45.8533"/>
<polygon fill="#c0c0c0" stroke="#c0c0c0" stroke-width="2" points="59.5473,-44.4647 52.6607,-36.4133 53.0232,-47.0019 59.5473,-44.4647"/>
</g>
<!-- 16 -->
<g id="node17" class="node">
<title>16</title>
<path fill="none" stroke="#567bd8" stroke-width="2" d="M793.5,-324C793.5,-324 717.5,-324 717.5,-324 711.5,-324 705.5,-318 705.5,-312 705.5,-312 705.5,-300 705.5,-300 705.5,-294 711.5,-288 717.5,-288 717.5,-288 793.5,-288 793.5,-288 799.5,-288 805.5,-294 805.5,-300 805.5,-300 805.5,-312 805.5,-312 805.5,-318 799.5,-324 793.5,-324"/>
<text text-anchor="middle" x="755.5" y="-303.5" font-family="sans" font-size="10.00" fill="#000000">calculate_cutoffs</text>
</g>
<!-- 16&#45;&gt;0 -->
<g id="edge3" class="edge">
<title>16&#45;&gt;0</title>
<path fill="none" stroke="#c0c0c0" stroke-width="2" d="M747.1844,-287.7861C742.6921,-277.4467 737.3032,-264.175 733.5,-252 709.0647,-173.7762 752.4058,-128.975 693.5,-72 663.9026,-43.3728 556.5706,-29.3574 481.653,-22.9215"/>
<polygon fill="#c0c0c0" stroke="#c0c0c0" stroke-width="2" points="481.5636,-19.4021 471.3084,-22.0629 480.9846,-26.3782 481.5636,-19.4021"/>
</g>
<!-- 24 -->
<g id="node25" class="node">
<title>24</title>
<path fill="none" stroke="#68d856" stroke-width="2" d="M840.5,-252C840.5,-252 754.5,-252 754.5,-252 748.5,-252 742.5,-246 742.5,-240 742.5,-240 742.5,-228 742.5,-228 742.5,-222 748.5,-216 754.5,-216 754.5,-216 840.5,-216 840.5,-216 846.5,-216 852.5,-222 852.5,-228 852.5,-228 852.5,-240 852.5,-240 852.5,-246 846.5,-252 840.5,-252"/>
<text text-anchor="middle" x="797.5" y="-231.5" font-family="sans" font-size="10.00" fill="#000000">filter_deseq_object</text>
</g>
<!-- 16&#45;&gt;24 -->
<g id="edge34" class="edge">
<title>16&#45;&gt;24</title>
<path fill="none" stroke="#c0c0c0" stroke-width="2" d="M766.0984,-287.8314C770.7877,-279.7925 776.4028,-270.1666 781.5798,-261.2918"/>
<polygon fill="#c0c0c0" stroke="#c0c0c0" stroke-width="2" points="784.7434,-262.8146 786.7589,-252.4133 778.6969,-259.2875 784.7434,-262.8146"/>
</g>
<!-- 27 -->
<g id="node28" class="node">
<title>27</title>
<path fill="none" stroke="#d8ac56" stroke-width="2" d="M379.5,-252C379.5,-252 345.5,-252 345.5,-252 339.5,-252 333.5,-246 333.5,-240 333.5,-240 333.5,-228 333.5,-228 333.5,-222 339.5,-216 345.5,-216 345.5,-216 379.5,-216 379.5,-216 385.5,-216 391.5,-222 391.5,-228 391.5,-228 391.5,-240 391.5,-240 391.5,-246 385.5,-252 379.5,-252"/>
<text text-anchor="middle" x="362.5" y="-231.5" font-family="sans" font-size="10.00" fill="#000000">filter_tfs</text>
</g>
<!-- 16&#45;&gt;27 -->
<g id="edge37" class="edge">
<title>16&#45;&gt;27</title>
<path fill="none" stroke="#c0c0c0" stroke-width="2" d="M705.3271,-296.808C626.0408,-282.2823 473.4289,-254.3228 401.6409,-241.1708"/>
<polygon fill="#c0c0c0" stroke="#c0c0c0" stroke-width="2" points="402.1211,-237.7006 391.654,-239.3412 400.8596,-244.586 402.1211,-237.7006"/>
</g>
<!-- 17 -->
<g id="node18" class="node">
<title>17</title>
<path fill="none" stroke="#5663d8" stroke-width="2" d="M251,-108C251,-108 132,-108 132,-108 126,-108 120,-102 120,-96 120,-96 120,-84 120,-84 120,-78 126,-72 132,-72 132,-72 251,-72 251,-72 257,-72 263,-78 263,-84 263,-84 263,-96 263,-96 263,-102 257,-108 251,-108"/>
<text text-anchor="middle" x="191.5" y="-87.5" font-family="sans" font-size="10.00" fill="#000000">correlate_clusters_to_mtp</text>
</g>
<!-- 17&#45;&gt;0 -->
<g id="edge5" class="edge">
<title>17&#45;&gt;0</title>
<path fill="none" stroke="#c0c0c0" stroke-width="2" d="M245.225,-71.9243C274.6073,-62.0387 311.1852,-49.7321 341.9758,-39.3726"/>
<polygon fill="#c0c0c0" stroke="#c0c0c0" stroke-width="2" points="343.3911,-42.5893 351.7529,-36.0831 341.1588,-35.9548 343.3911,-42.5893"/>
</g>
<!-- 18 -->
<g id="node19" class="node">
<title>18</title>
<path fill="none" stroke="#56d8c1" stroke-width="2" d="M307,-180C307,-180 266,-180 266,-180 260,-180 254,-174 254,-168 254,-168 254,-156 254,-156 254,-150 260,-144 266,-144 266,-144 307,-144 307,-144 313,-144 319,-150 319,-156 319,-156 319,-168 319,-168 319,-174 313,-180 307,-180"/>
<text text-anchor="middle" x="286.5" y="-159.5" font-family="sans" font-size="10.00" fill="#000000">mfuzz_tfs</text>
</g>
<!-- 18&#45;&gt;0 -->
<g id="edge4" class="edge">
<title>18&#45;&gt;0</title>
<path fill="none" stroke="#c0c0c0" stroke-width="2" d="M319.3028,-152.4143C341.6057,-144.2011 369.9625,-130.1255 386.5,-108 399.7486,-90.2747 404.2213,-65.3679 405.5371,-46.2482"/>
<polygon fill="#c0c0c0" stroke="#c0c0c0" stroke-width="2" points="409.0435,-46.1747 405.9843,-36.0312 402.0502,-45.8685 409.0435,-46.1747"/>
</g>
<!-- 18&#45;&gt;5 -->
<g id="edge13" class="edge">
<title>18&#45;&gt;5</title>
<path fill="none" stroke="#c0c0c0" stroke-width="2" d="M297.3507,-143.8314C302.2023,-135.7079 308.0217,-125.9637 313.368,-117.0118"/>
<polygon fill="#c0c0c0" stroke="#c0c0c0" stroke-width="2" points="316.3806,-118.7933 318.5032,-108.4133 310.3708,-115.2041 316.3806,-118.7933"/>
</g>
<!-- 18&#45;&gt;15 -->
<g id="edge21" class="edge">
<title>18&#45;&gt;15</title>
<path fill="none" stroke="#c0c0c0" stroke-width="2" d="M253.8684,-153.6207C220.0944,-144.5936 165.7722,-129.0851 111.0732,-107.9433"/>
<polygon fill="#c0c0c0" stroke="#c0c0c0" stroke-width="2" points="112.1675,-104.6129 101.5801,-104.2176 109.6102,-111.1291 112.1675,-104.6129"/>
</g>
<!-- 18&#45;&gt;17 -->
<g id="edge28" class="edge">
<title>18&#45;&gt;17</title>
<path fill="none" stroke="#c0c0c0" stroke-width="2" d="M262.5275,-143.8314C250.7139,-134.8779 236.3028,-123.9558 223.5565,-114.2955"/>
<polygon fill="#c0c0c0" stroke="#c0c0c0" stroke-width="2" points="225.5486,-111.4137 215.4648,-108.1628 221.3205,-116.9925 225.5486,-111.4137"/>
</g>
<!-- 19 -->
<g id="node20" class="node">
<title>19</title>
<path fill="none" stroke="#d8c356" stroke-width="2" d="M322.5,-396C322.5,-396 272.5,-396 272.5,-396 266.5,-396 260.5,-390 260.5,-384 260.5,-384 260.5,-372 260.5,-372 260.5,-366 266.5,-360 272.5,-360 272.5,-360 322.5,-360 322.5,-360 328.5,-360 334.5,-366 334.5,-372 334.5,-372 334.5,-384 334.5,-384 334.5,-390 328.5,-396 322.5,-396"/>
<text text-anchor="middle" x="297.5" y="-375.5" font-family="sans" font-size="10.00" fill="#000000">format_tfdb</text>
</g>
<!-- 19&#45;&gt;1 -->
<g id="edge9" class="edge">
<title>19&#45;&gt;1</title>
<path fill="none" stroke="#c0c0c0" stroke-width="2" d="M334.8259,-360.2022C354.9101,-350.6256 379.8853,-338.7169 401.306,-328.5031"/>
<polygon fill="#c0c0c0" stroke="#c0c0c0" stroke-width="2" points="403.0347,-331.5564 410.5547,-324.0931 400.0219,-325.2379 403.0347,-331.5564"/>
</g>
<!-- 19&#45;&gt;18 -->
<g id="edge30" class="edge">
<title>19&#45;&gt;18</title>
<path fill="none" stroke="#c0c0c0" stroke-width="2" d="M296.5811,-359.9555C294.6682,-322.3938 290.2458,-235.5541 287.9468,-190.4103"/>
<polygon fill="#c0c0c0" stroke="#c0c0c0" stroke-width="2" points="291.4282,-189.9541 287.4241,-180.1451 284.4373,-190.3102 291.4282,-189.9541"/>
</g>
<!-- 19&#45;&gt;27 -->
<g id="edge39" class="edge">
<title>19&#45;&gt;27</title>
<path fill="none" stroke="#c0c0c0" stroke-width="2" d="M305.7323,-359.7623C316.9655,-334.8764 337.1851,-290.0822 350.2148,-261.2165"/>
<polygon fill="#c0c0c0" stroke="#c0c0c0" stroke-width="2" points="353.4104,-262.6441 354.3345,-252.0896 347.0302,-259.7641 353.4104,-262.6441"/>
</g>
<!-- 20 -->
<g id="node21" class="node">
<title>20</title>
<path fill="none" stroke="#56d8d8" stroke-width="2" d="M460,-396C460,-396 403,-396 403,-396 397,-396 391,-390 391,-384 391,-384 391,-372 391,-372 391,-366 397,-360 403,-360 403,-360 460,-360 460,-360 466,-360 472,-366 472,-372 472,-372 472,-384 472,-384 472,-390 466,-396 460,-396"/>
<text text-anchor="middle" x="431.5" y="-375.5" font-family="sans" font-size="10.00" fill="#000000">tfdb_families</text>
</g>
<!-- 20&#45;&gt;1 -->
<g id="edge7" class="edge">
<title>20&#45;&gt;1</title>
<path fill="none" stroke="#c0c0c0" stroke-width="2" d="M435.7898,-359.8314C437.608,-352.131 439.7699,-342.9743 441.7905,-334.4166"/>
<polygon fill="#c0c0c0" stroke="#c0c0c0" stroke-width="2" points="445.2608,-334.95 444.1524,-324.4133 438.4481,-333.3414 445.2608,-334.95"/>
</g>
<!-- 21 -->
<g id="node22" class="node">
<title>21</title>
<path fill="none" stroke="#8fd856" stroke-width="2" d="M574.5,-396C574.5,-396 540.5,-396 540.5,-396 534.5,-396 528.5,-390 528.5,-384 528.5,-384 528.5,-372 528.5,-372 528.5,-366 534.5,-360 540.5,-360 540.5,-360 574.5,-360 574.5,-360 580.5,-360 586.5,-366 586.5,-372 586.5,-372 586.5,-384 586.5,-384 586.5,-390 580.5,-396 574.5,-396"/>
<text text-anchor="middle" x="557.5" y="-375.5" font-family="sans" font-size="10.00" fill="#000000">rlog_pca</text>
</g>
<!-- 21&#45;&gt;1 -->
<g id="edge8" class="edge">
<title>21&#45;&gt;1</title>
<path fill="none" stroke="#c0c0c0" stroke-width="2" d="M529.9947,-359.8314C516.182,-350.7074 499.2744,-339.539 484.4471,-329.7449"/>
<polygon fill="#c0c0c0" stroke="#c0c0c0" stroke-width="2" points="486.2696,-326.7541 475.9965,-324.1628 482.4114,-332.5949 486.2696,-326.7541"/>
</g>
<!-- 21&#45;&gt;7 -->
<g id="edge14" class="edge">
<title>21&#45;&gt;7</title>
<path fill="none" stroke="#c0c0c0" stroke-width="2" d="M562.7992,-359.8314C565.0698,-352.0463 567.7746,-342.7729 570.294,-334.1347"/>
<polygon fill="#c0c0c0" stroke="#c0c0c0" stroke-width="2" points="573.6894,-334.9933 573.1295,-324.4133 566.9694,-333.0332 573.6894,-334.9933"/>
</g>
<!-- 22 -->
<g id="node23" class="node">
<title>22</title>
<path fill="none" stroke="#d8cb56" stroke-width="2" d="M741.5,-468C741.5,-468 635.5,-468 635.5,-468 629.5,-468 623.5,-462 623.5,-456 623.5,-456 623.5,-444 623.5,-444 623.5,-438 629.5,-432 635.5,-432 635.5,-432 741.5,-432 741.5,-432 747.5,-432 753.5,-438 753.5,-444 753.5,-444 753.5,-456 753.5,-456 753.5,-462 747.5,-468 741.5,-468"/>
<text text-anchor="middle" x="688.5" y="-447.5" font-family="sans" font-size="10.00" fill="#000000">generate_deseq_object</text>
</g>
<!-- 22&#45;&gt;1 -->
<g id="edge6" class="edge">
<title>22&#45;&gt;1</title>
<path fill="none" stroke="#c0c0c0" stroke-width="2" d="M623.2591,-433.3928C583.335,-422.4258 536.7147,-407.9312 519.5,-396 495.8116,-379.5819 476.2029,-352.9374 463.6389,-332.891"/>
<polygon fill="#c0c0c0" stroke="#c0c0c0" stroke-width="2" points="466.5502,-330.9416 458.3727,-324.2052 460.5644,-334.5708 466.5502,-330.9416"/>
</g>
<!-- 22&#45;&gt;16 -->
<g id="edge25" class="edge">
<title>22&#45;&gt;16</title>
<path fill="none" stroke="#c0c0c0" stroke-width="2" d="M709.5016,-431.9561C719.4646,-422.2765 730.6588,-409.5636 737.5,-396 747.2177,-376.7333 751.6912,-352.6655 753.7495,-334.2676"/>
<polygon fill="#c0c0c0" stroke="#c0c0c0" stroke-width="2" points="757.2473,-334.4545 754.7037,-324.1695 750.2784,-333.7959 757.2473,-334.4545"/>
</g>
<!-- 22&#45;&gt;21 -->
<g id="edge31" class="edge">
<title>22&#45;&gt;21</title>
<path fill="none" stroke="#c0c0c0" stroke-width="2" d="M655.4432,-431.8314C637.2047,-421.8072 614.4764,-409.3153 595.5068,-398.8892"/>
<polygon fill="#c0c0c0" stroke="#c0c0c0" stroke-width="2" points="596.9819,-395.7062 586.5325,-393.9568 593.6103,-401.8407 596.9819,-395.7062"/>
</g>
<!-- 22&#45;&gt;24 -->
<g id="edge33" class="edge">
<title>22&#45;&gt;24</title>
<path fill="none" stroke="#c0c0c0" stroke-width="2" d="M753.8288,-433.9202C756.7565,-433.2592 759.6572,-432.6161 762.5,-432 804.2851,-422.9445 924.2423,-428.9396 951.5,-396 994.7978,-343.6765 906.917,-287.1793 846.9826,-256.6702"/>
<polygon fill="#c0c0c0" stroke="#c0c0c0" stroke-width="2" points="848.5051,-253.5184 837.995,-252.1812 845.3773,-259.7807 848.5051,-253.5184"/>
</g>
<!-- 22&#45;&gt;27 -->
<g id="edge38" class="edge">
<title>22&#45;&gt;27</title>
<path fill="none" stroke="#c0c0c0" stroke-width="2" d="M623.1971,-433.7955C620.2624,-433.1683 617.3531,-432.5663 614.5,-432 563.1105,-421.7992 417.8638,-433.7175 381.5,-396 347.2432,-360.4679 350.8259,-298.2252 356.6023,-262.1139"/>
<polygon fill="#c0c0c0" stroke="#c0c0c0" stroke-width="2" points="360.0545,-262.6903 358.3427,-252.2346 353.1607,-261.4757 360.0545,-262.6903"/>
</g>
<!-- 29 -->
<g id="node30" class="node">
<title>29</title>
<path fill="none" stroke="#d8a456" stroke-width="2" d="M716.5,-396C716.5,-396 654.5,-396 654.5,-396 648.5,-396 642.5,-390 642.5,-384 642.5,-384 642.5,-372 642.5,-372 642.5,-366 648.5,-360 654.5,-360 654.5,-360 716.5,-360 716.5,-360 722.5,-360 728.5,-366 728.5,-372 728.5,-372 728.5,-384 728.5,-384 728.5,-390 722.5,-396 716.5,-396"/>
<text text-anchor="middle" x="685.5" y="-375.5" font-family="sans" font-size="10.00" fill="#000000">calculate_tpm</text>
</g>
<!-- 22&#45;&gt;29 -->
<g id="edge42" class="edge">
<title>22&#45;&gt;29</title>
<path fill="none" stroke="#c0c0c0" stroke-width="2" d="M687.743,-431.8314C687.4221,-424.131 687.0406,-414.9743 686.684,-406.4166"/>
<polygon fill="#c0c0c0" stroke="#c0c0c0" stroke-width="2" points="690.1806,-406.2589 686.2672,-396.4133 683.1867,-406.5503 690.1806,-406.2589"/>
</g>
<!-- 23 -->
<g id="node24" class="node">
<title>23</title>
<path fill="none" stroke="#d85e56" stroke-width="2" d="M121,-180C121,-180 26,-180 26,-180 20,-180 14,-174 14,-168 14,-168 14,-156 14,-156 14,-150 20,-144 26,-144 26,-144 121,-144 121,-144 127,-144 133,-150 133,-156 133,-156 133,-168 133,-168 133,-174 127,-180 121,-180"/>
<text text-anchor="middle" x="73.5" y="-159.5" font-family="sans" font-size="10.00" fill="#000000">tidy_phenotype_data</text>
</g>
<!-- 23&#45;&gt;2 -->
<g id="edge11" class="edge">
<title>23&#45;&gt;2</title>
<path fill="none" stroke="#c0c0c0" stroke-width="2" d="M57.0719,-143.989C49.1975,-134.1289 40.602,-121.2441 36.5,-108 30.2473,-87.8122 33.0565,-63.976 37.1276,-45.9072"/>
<polygon fill="#c0c0c0" stroke="#c0c0c0" stroke-width="2" points="40.5729,-46.5573 39.6115,-36.0061 33.7833,-44.8539 40.5729,-46.5573"/>
</g>
<!-- 23&#45;&gt;15 -->
<g id="edge20" class="edge">
<title>23&#45;&gt;15</title>
<path fill="none" stroke="#c0c0c0" stroke-width="2" d="M73.5,-143.8314C73.5,-136.131 73.5,-126.9743 73.5,-118.4166"/>
<polygon fill="#c0c0c0" stroke="#c0c0c0" stroke-width="2" points="77.0001,-118.4132 73.5,-108.4133 70.0001,-118.4133 77.0001,-118.4132"/>
</g>
<!-- 23&#45;&gt;17 -->
<g id="edge27" class="edge">
<title>23&#45;&gt;17</title>
<path fill="none" stroke="#c0c0c0" stroke-width="2" d="M103.2764,-143.8314C118.3693,-134.6221 136.8757,-123.3301 153.0343,-113.4706"/>
<polygon fill="#c0c0c0" stroke="#c0c0c0" stroke-width="2" points="155.0198,-116.3593 161.7331,-108.1628 151.3737,-110.3838 155.0198,-116.3593"/>
</g>
<!-- 24&#45;&gt;3 -->
<g id="edge12" class="edge">
<title>24&#45;&gt;3</title>
<path fill="none" stroke="#c0c0c0" stroke-width="2" d="M797.2477,-215.8314C797.1407,-208.131 797.0135,-198.9743 796.8947,-190.4166"/>
<polygon fill="#c0c0c0" stroke="#c0c0c0" stroke-width="2" points="800.3944,-190.3637 796.7557,-180.4133 793.3951,-190.4609 800.3944,-190.3637"/>
</g>
<!-- 26 -->
<g id="node27" class="node">
<title>26</title>
<path fill="none" stroke="#d89556" stroke-width="2" d="M919,-180C919,-180 880,-180 880,-180 874,-180 868,-174 868,-168 868,-168 868,-156 868,-156 868,-150 874,-144 880,-144 880,-144 919,-144 919,-144 925,-144 931,-150 931,-156 931,-156 931,-168 931,-168 931,-174 925,-180 919,-180"/>
<text text-anchor="middle" x="899.5" y="-159.5" font-family="sans" font-size="10.00" fill="#000000">deseq_all</text>
</g>
<!-- 24&#45;&gt;26 -->
<g id="edge36" class="edge">
<title>24&#45;&gt;26</title>
<path fill="none" stroke="#c0c0c0" stroke-width="2" d="M823.2389,-215.8314C836.0437,-206.7927 851.6909,-195.7476 865.4719,-186.0198"/>
<polygon fill="#c0c0c0" stroke="#c0c0c0" stroke-width="2" points="867.618,-188.7891 873.7693,-180.1628 863.5812,-183.0703 867.618,-188.7891"/>
</g>
<!-- 25 -->
<g id="node26" class="node">
<title>25</title>
<path fill="none" stroke="#c6d856" stroke-width="2" d="M593,-468C593,-468 524,-468 524,-468 518,-468 512,-462 512,-456 512,-456 512,-444 512,-444 512,-438 518,-432 524,-432 524,-432 593,-432 593,-432 599,-432 605,-438 605,-444 605,-444 605,-456 605,-456 605,-462 599,-468 593,-468"/>
<text text-anchor="middle" x="558.5" y="-447.5" font-family="sans" font-size="10.00" fill="#000000">parse_star_logs</text>
</g>
<!-- 25&#45;&gt;9 -->
<g id="edge15" class="edge">
<title>25&#45;&gt;9</title>
<path fill="none" stroke="#c0c0c0" stroke-width="2" d="M511.8858,-445.4513C452.9451,-438.9041 348.5058,-424.6487 251.8434,-395.6772"/>
<polygon fill="#c0c0c0" stroke="#c0c0c0" stroke-width="2" points="252.8011,-392.3101 242.2148,-392.7337 250.7547,-399.0043 252.8011,-392.3101"/>
</g>
<!-- 25&#45;&gt;16 -->
<g id="edge26" class="edge">
<title>25&#45;&gt;16</title>
<path fill="none" stroke="#c0c0c0" stroke-width="2" d="M569.7979,-431.9905C583.014,-412.1408 606.548,-380.3355 633.5,-360 652.18,-345.9058 675.1165,-334.5259 696.0407,-325.913"/>
<polygon fill="#c0c0c0" stroke="#c0c0c0" stroke-width="2" points="697.4944,-329.1015 705.4904,-322.1506 694.905,-322.598 697.4944,-329.1015"/>
</g>
<!-- 25&#45;&gt;29 -->
<g id="edge43" class="edge">
<title>25&#45;&gt;29</title>
<path fill="none" stroke="#c0c0c0" stroke-width="2" d="M590.5475,-431.8314C606.942,-422.5368 627.0786,-411.1208 644.5829,-401.1971"/>
<polygon fill="#c0c0c0" stroke="#c0c0c0" stroke-width="2" points="646.4897,-404.1395 653.4628,-396.1628 643.0374,-398.05 646.4897,-404.1395"/>
</g>
<!-- 26&#45;&gt;10 -->
<g id="edge16" class="edge">
<title>26&#45;&gt;10</title>
<path fill="none" stroke="#c0c0c0" stroke-width="2" d="M899.5,-143.8314C899.5,-136.131 899.5,-126.9743 899.5,-118.4166"/>
<polygon fill="#c0c0c0" stroke="#c0c0c0" stroke-width="2" points="903.0001,-118.4132 899.5,-108.4133 896.0001,-118.4133 903.0001,-118.4132"/>
</g>
<!-- 27&#45;&gt;14 -->
<g id="edge19" class="edge">
<title>27&#45;&gt;14</title>
<path fill="none" stroke="#c0c0c0" stroke-width="2" d="M391.8069,-217.1192C408.2754,-207.6334 429.0752,-195.6527 447.0731,-185.2859"/>
<polygon fill="#c0c0c0" stroke="#c0c0c0" stroke-width="2" points="449.2732,-188.0578 456.1916,-180.0336 445.7793,-181.992 449.2732,-188.0578"/>
</g>
<!-- 27&#45;&gt;18 -->
<g id="edge29" class="edge">
<title>27&#45;&gt;18</title>
<path fill="none" stroke="#c0c0c0" stroke-width="2" d="M343.322,-215.8314C334.1412,-207.1337 322.9994,-196.5783 313.0224,-187.1265"/>
<polygon fill="#c0c0c0" stroke="#c0c0c0" stroke-width="2" points="315.3385,-184.4995 305.6719,-180.1628 310.5243,-189.5811 315.3385,-184.4995"/>
</g>
<!-- 28 -->
<g id="node29" class="node">
<title>28</title>
<path fill="none" stroke="#56d8a2" stroke-width="2" d="M930.5,-396C930.5,-396 796.5,-396 796.5,-396 790.5,-396 784.5,-390 784.5,-384 784.5,-384 784.5,-372 784.5,-372 784.5,-366 790.5,-360 796.5,-360 796.5,-360 930.5,-360 930.5,-360 936.5,-360 942.5,-366 942.5,-372 942.5,-372 942.5,-384 942.5,-384 942.5,-390 936.5,-396 930.5,-396"/>
<text text-anchor="middle" x="863.5" y="-375.5" font-family="sans" font-size="10.00" fill="#000000">combine_background_counts</text>
</g>
<!-- 28&#45;&gt;16 -->
<g id="edge24" class="edge">
<title>28&#45;&gt;16</title>
<path fill="none" stroke="#c0c0c0" stroke-width="2" d="M836.247,-359.8314C822.5611,-350.7074 805.8085,-339.539 791.1173,-329.7449"/>
<polygon fill="#c0c0c0" stroke="#c0c0c0" stroke-width="2" points="793.0062,-326.7977 782.7442,-324.1628 789.1233,-332.6221 793.0062,-326.7977"/>
</g>
<!-- 29&#45;&gt;16 -->
<g id="edge22" class="edge">
<title>29&#45;&gt;16</title>
<path fill="none" stroke="#c0c0c0" stroke-width="2" d="M703.164,-359.8314C711.4732,-351.2848 721.5264,-340.9443 730.5918,-331.6198"/>
<polygon fill="#c0c0c0" stroke="#c0c0c0" stroke-width="2" points="733.1369,-334.023 737.5982,-324.4133 728.1179,-329.1435 733.1369,-334.023"/>
</g>
<!-- 30 -->
<g id="node31" class="node">
<title>30</title>
<path fill="none" stroke="#56d88a" stroke-width="2" d="M1027,-468C1027,-468 908,-468 908,-468 902,-468 896,-462 896,-456 896,-456 896,-444 896,-444 896,-438 902,-432 908,-432 908,-432 1027,-432 1027,-432 1033,-432 1039,-438 1039,-444 1039,-444 1039,-456 1039,-456 1039,-462 1033,-468 1027,-468"/>
<text text-anchor="middle" x="967.5" y="-447.5" font-family="sans" font-size="10.00" fill="#000000">calculate_feature_lengths</text>
</g>
<!-- 30&#45;&gt;16 -->
<g id="edge23" class="edge">
<title>30&#45;&gt;16</title>
<path fill="none" stroke="#c0c0c0" stroke-width="2" d="M969.5368,-431.6707C970.7031,-411.5344 969.2431,-379.473 951.5,-360 933.2253,-339.9435 866.2038,-324.5003 815.5805,-315.3635"/>
<polygon fill="#c0c0c0" stroke="#c0c0c0" stroke-width="2" points="816.1496,-311.91 805.6938,-313.6207 814.9343,-318.8037 816.1496,-311.91"/>
</g>
<!-- 30&#45;&gt;29 -->
<g id="edge41" class="edge">
<title>30&#45;&gt;29</title>
<path fill="none" stroke="#c0c0c0" stroke-width="2" d="M896.7035,-431.9243C847.559,-419.3768 783.1384,-402.929 738.4258,-391.513"/>
<polygon fill="#c0c0c0" stroke="#c0c0c0" stroke-width="2" points="739.1893,-388.0957 728.6343,-389.013 737.4576,-394.8781 739.1893,-388.0957"/>
</g>
<!-- 31 -->
<g id="node32" class="node">
<title>31</title>
<path fill="none" stroke="#56d87b" stroke-width="2" d="M727,-540C727,-540 652,-540 652,-540 646,-540 640,-534 640,-528 640,-528 640,-516 640,-516 640,-510 646,-504 652,-504 652,-504 727,-504 727,-504 733,-504 739,-510 739,-516 739,-516 739,-528 739,-528 739,-534 733,-540 727,-540"/>
<text text-anchor="middle" x="689.5" y="-519.5" font-family="sans" font-size="10.00" fill="#000000">second_mapping</text>
</g>
<!-- 31&#45;&gt;22 -->
<g id="edge32" class="edge">
<title>31&#45;&gt;22</title>
<path fill="none" stroke="#c0c0c0" stroke-width="2" d="M689.2477,-503.8314C689.1407,-496.131 689.0135,-486.9743 688.8947,-478.4166"/>
<polygon fill="#c0c0c0" stroke="#c0c0c0" stroke-width="2" points="692.3944,-478.3637 688.7557,-468.4133 685.3951,-478.4609 692.3944,-478.3637"/>
</g>
<!-- 31&#45;&gt;25 -->
<g id="edge35" class="edge">
<title>31&#45;&gt;25</title>
<path fill="none" stroke="#c0c0c0" stroke-width="2" d="M656.4432,-503.8314C639.5323,-494.5368 618.7615,-483.1208 600.7059,-473.1971"/>
<polygon fill="#c0c0c0" stroke="#c0c0c0" stroke-width="2" points="601.9957,-469.9122 591.5463,-468.1628 598.624,-476.0468 601.9957,-469.9122"/>
</g>
<!-- 32 -->
<g id="node33" class="node">
<title>32</title>
<path fill="none" stroke="#56a9d8" stroke-width="2" d="M865.5,-468C865.5,-468 783.5,-468 783.5,-468 777.5,-468 771.5,-462 771.5,-456 771.5,-456 771.5,-444 771.5,-444 771.5,-438 777.5,-432 783.5,-432 783.5,-432 865.5,-432 865.5,-432 871.5,-432 877.5,-438 877.5,-444 877.5,-444 877.5,-456 877.5,-456 877.5,-462 871.5,-468 865.5,-468"/>
<text text-anchor="middle" x="824.5" y="-447.5" font-family="sans" font-size="10.00" fill="#000000">count_background</text>
</g>
<!-- 31&#45;&gt;32 -->
<g id="edge49" class="edge">
<title>31&#45;&gt;32</title>
<path fill="none" stroke="#c0c0c0" stroke-width="2" d="M723.5662,-503.8314C741.1533,-494.4516 762.7916,-482.9112 781.5168,-472.9244"/>
<polygon fill="#c0c0c0" stroke="#c0c0c0" stroke-width="2" points="783.2682,-475.957 790.4447,-468.1628 779.9741,-469.7805 783.2682,-475.957"/>
</g>
<!-- 32&#45;&gt;28 -->
<g id="edge40" class="edge">
<title>32&#45;&gt;28</title>
<path fill="none" stroke="#c0c0c0" stroke-width="2" d="M834.3413,-431.8314C838.6957,-423.7925 843.9098,-414.1666 848.7169,-405.2918"/>
<polygon fill="#c0c0c0" stroke="#c0c0c0" stroke-width="2" points="851.8408,-406.8732 853.5261,-396.4133 845.6857,-403.5392 851.8408,-406.8732"/>
</g>
<!-- 33 -->
<g id="node34" class="node">
<title>33</title>
<path fill="none" stroke="#80d856" stroke-width="2" d="M869,-756C869,-756 814,-756 814,-756 808,-756 802,-750 802,-744 802,-744 802,-732 802,-732 802,-726 808,-720 814,-720 814,-720 869,-720 869,-720 875,-720 881,-726 881,-732 881,-732 881,-744 881,-744 881,-750 875,-756 869,-756"/>
<text text-anchor="middle" x="841.5" y="-735.5" font-family="sans" font-size="10.00" fill="#000000">generate_gtf</text>
</g>
<!-- 33&#45;&gt;30 -->
<g id="edge44" class="edge">
<title>33&#45;&gt;30</title>
<path fill="none" stroke="#c0c0c0" stroke-width="2" d="M849.3819,-719.9843C870.7723,-671.0919 930.0157,-535.6785 955.5431,-477.33"/>
<polygon fill="#c0c0c0" stroke="#c0c0c0" stroke-width="2" points="958.8194,-478.5733 959.6211,-468.0089 952.4063,-475.7676 958.8194,-478.5733"/>
</g>
<!-- 34 -->
<g id="node35" class="node">
<title>34</title>
<path fill="none" stroke="#56d8a9" stroke-width="2" d="M801,-684C801,-684 720,-684 720,-684 714,-684 708,-678 708,-672 708,-672 708,-660 708,-660 708,-654 714,-648 720,-648 720,-648 801,-648 801,-648 807,-648 813,-654 813,-660 813,-660 813,-672 813,-672 813,-678 807,-684 801,-684"/>
<text text-anchor="middle" x="760.5" y="-663.5" font-family="sans" font-size="10.00" fill="#000000">generate_genome</text>
</g>
<!-- 33&#45;&gt;34 -->
<g id="edge50" class="edge">
<title>33&#45;&gt;34</title>
<path fill="none" stroke="#c0c0c0" stroke-width="2" d="M821.0603,-719.8314C811.1795,-711.0485 799.1676,-700.3712 788.455,-690.8489"/>
<polygon fill="#c0c0c0" stroke="#c0c0c0" stroke-width="2" points="790.7326,-688.1906 780.9332,-684.1628 786.082,-693.4224 790.7326,-688.1906"/>
</g>
<!-- 37 -->
<g id="node38" class="node">
<title>37</title>
<path fill="none" stroke="#d6d856" stroke-width="2" d="M847,-612C847,-612 802,-612 802,-612 796,-612 790,-606 790,-600 790,-600 790,-588 790,-588 790,-582 796,-576 802,-576 802,-576 847,-576 847,-576 853,-576 859,-582 859,-588 859,-588 859,-600 859,-600 859,-606 853,-612 847,-612"/>
<text text-anchor="middle" x="824.5" y="-591.5" font-family="sans" font-size="10.00" fill="#000000">shuffle_gtf</text>
</g>
<!-- 33&#45;&gt;37 -->
<g id="edge55" class="edge">
<title>33&#45;&gt;37</title>
<path fill="none" stroke="#c0c0c0" stroke-width="2" d="M839.3469,-719.7623C836.4473,-695.201 831.2584,-651.2474 827.8474,-622.3541"/>
<polygon fill="#c0c0c0" stroke="#c0c0c0" stroke-width="2" points="831.2839,-621.6103 826.6356,-612.0896 824.3322,-622.431 831.2839,-621.6103"/>
</g>
<!-- 34&#45;&gt;31 -->
<g id="edge45" class="edge">
<title>34&#45;&gt;31</title>
<path fill="none" stroke="#c0c0c0" stroke-width="2" d="M759.5958,-647.7541C758.0044,-628.8279 753.6135,-598.8592 741.5,-576 735.891,-565.4154 727.5937,-555.4616 719.2661,-547.0533"/>
<polygon fill="#c0c0c0" stroke="#c0c0c0" stroke-width="2" points="721.6448,-544.4851 712.0069,-540.085 716.7973,-549.535 721.6448,-544.4851"/>
</g>
<!-- 36 -->
<g id="node37" class="node">
<title>36</title>
<path fill="none" stroke="#61d856" stroke-width="2" d="M720.5,-612C720.5,-612 660.5,-612 660.5,-612 654.5,-612 648.5,-606 648.5,-600 648.5,-600 648.5,-588 648.5,-588 648.5,-582 654.5,-576 660.5,-576 660.5,-576 720.5,-576 720.5,-576 726.5,-576 732.5,-582 732.5,-588 732.5,-588 732.5,-600 732.5,-600 732.5,-606 726.5,-612 720.5,-612"/>
<text text-anchor="middle" x="690.5" y="-591.5" font-family="sans" font-size="10.00" fill="#000000">first_mapping</text>
</g>
<!-- 34&#45;&gt;36 -->
<g id="edge52" class="edge">
<title>34&#45;&gt;36</title>
<path fill="none" stroke="#c0c0c0" stroke-width="2" d="M742.836,-647.8314C734.5268,-639.2848 724.4736,-628.9443 715.4082,-619.6198"/>
<polygon fill="#c0c0c0" stroke="#c0c0c0" stroke-width="2" points="717.8821,-617.1435 708.4018,-612.4133 712.8631,-622.023 717.8821,-617.1435"/>
</g>
<!-- 34&#45;&gt;37 -->
<g id="edge54" class="edge">
<title>34&#45;&gt;37</title>
<path fill="none" stroke="#c0c0c0" stroke-width="2" d="M776.6499,-647.8314C784.1717,-639.3694 793.2565,-629.1489 801.4804,-619.8971"/>
<polygon fill="#c0c0c0" stroke="#c0c0c0" stroke-width="2" points="804.1049,-622.2127 808.1327,-612.4133 798.873,-617.5621 804.1049,-622.2127"/>
</g>
<!-- 35 -->
<g id="node36" class="node">
<title>35</title>
<path fill="none" stroke="#97d856" stroke-width="2" d="M656.5,-684C656.5,-684 626.5,-684 626.5,-684 620.5,-684 614.5,-678 614.5,-672 614.5,-672 614.5,-660 614.5,-660 614.5,-654 620.5,-648 626.5,-648 626.5,-648 656.5,-648 656.5,-648 662.5,-648 668.5,-654 668.5,-660 668.5,-660 668.5,-672 668.5,-672 668.5,-678 662.5,-684 656.5,-684"/>
<text text-anchor="middle" x="641.5" y="-663.5" font-family="sans" font-size="10.00" fill="#000000">gzip</text>
</g>
<!-- 35&#45;&gt;31 -->
<g id="edge46" class="edge">
<title>35&#45;&gt;31</title>
<path fill="none" stroke="#c0c0c0" stroke-width="2" d="M637.0853,-647.6956C633.4773,-628.9849 630.3193,-599.4279 639.5,-576 643.6758,-565.3439 651.0513,-555.5335 658.8759,-547.2816"/>
<polygon fill="#c0c0c0" stroke="#c0c0c0" stroke-width="2" points="661.4375,-549.6713 666.1091,-540.162 656.5271,-544.6825 661.4375,-549.6713"/>
</g>
<!-- 35&#45;&gt;36 -->
<g id="edge53" class="edge">
<title>35&#45;&gt;36</title>
<path fill="none" stroke="#c0c0c0" stroke-width="2" d="M653.8648,-647.8314C659.4509,-639.6232 666.163,-629.7606 672.3072,-620.7323"/>
<polygon fill="#c0c0c0" stroke="#c0c0c0" stroke-width="2" points="675.236,-622.6496 677.9687,-612.4133 669.449,-618.7112 675.236,-622.6496"/>
</g>
<!-- 36&#45;&gt;31 -->
<g id="edge47" class="edge">
<title>36&#45;&gt;31</title>
<path fill="none" stroke="#c0c0c0" stroke-width="2" d="M690.2477,-575.8314C690.1407,-568.131 690.0135,-558.9743 689.8947,-550.4166"/>
<polygon fill="#c0c0c0" stroke="#c0c0c0" stroke-width="2" points="693.3944,-550.3637 689.7557,-540.4133 686.3951,-550.4609 693.3944,-550.3637"/>
</g>
<!-- 37&#45;&gt;32 -->
<g id="edge48" class="edge">
<title>37&#45;&gt;32</title>
<path fill="none" stroke="#c0c0c0" stroke-width="2" d="M824.5,-575.7623C824.5,-551.201 824.5,-507.2474 824.5,-478.3541"/>
<polygon fill="#c0c0c0" stroke="#c0c0c0" stroke-width="2" points="828.0001,-478.0896 824.5,-468.0896 821.0001,-478.0897 828.0001,-478.0896"/>
</g>
<!-- 38 -->
<g id="node39" class="node">
<title>38</title>
<path fill="none" stroke="#d85656" stroke-width="2" d="M659,-756C659,-756 624,-756 624,-756 618,-756 612,-750 612,-744 612,-744 612,-732 612,-732 612,-726 618,-720 624,-720 624,-720 659,-720 659,-720 665,-720 671,-726 671,-732 671,-732 671,-744 671,-744 671,-750 665,-756 659,-756"/>
<text text-anchor="middle" x="641.5" y="-735.5" font-family="sans" font-size="10.00" fill="#000000">cutadapt</text>
</g>
<!-- 38&#45;&gt;35 -->
<g id="edge51" class="edge">
<title>38&#45;&gt;35</title>
<path fill="none" stroke="#c0c0c0" stroke-width="2" d="M641.5,-719.8314C641.5,-712.131 641.5,-702.9743 641.5,-694.4166"/>
<polygon fill="#c0c0c0" stroke="#c0c0c0" stroke-width="2" points="645.0001,-694.4132 641.5,-684.4133 638.0001,-694.4133 645.0001,-694.4132"/>
</g>
<!-- 39 -->
<g id="node40" class="node">
<title>39</title>
<path fill="none" stroke="#78d856" stroke-width="2" d="M656.5,-828C656.5,-828 626.5,-828 626.5,-828 620.5,-828 614.5,-822 614.5,-816 614.5,-816 614.5,-804 614.5,-804 614.5,-798 620.5,-792 626.5,-792 626.5,-792 656.5,-792 656.5,-792 662.5,-792 668.5,-798 668.5,-804 668.5,-804 668.5,-816 668.5,-816 668.5,-822 662.5,-828 656.5,-828"/>
<text text-anchor="middle" x="641.5" y="-807.5" font-family="sans" font-size="10.00" fill="#000000">repair</text>
</g>
<!-- 39&#45;&gt;38 -->
<g id="edge56" class="edge">
<title>39&#45;&gt;38</title>
<path fill="none" stroke="#c0c0c0" stroke-width="2" d="M641.5,-791.8314C641.5,-784.131 641.5,-774.9743 641.5,-766.4166"/>
<polygon fill="#c0c0c0" stroke="#c0c0c0" stroke-width="2" points="645.0001,-766.4132 641.5,-756.4133 638.0001,-766.4133 645.0001,-766.4132"/>
</g>
</g>
</svg>
