<?xml version="1.0" encoding="UTF-8" standalone="no"?>
<!DOCTYPE svg PUBLIC "-//W3C//DTD SVG 1.1//EN"
 "http://www.w3.org/Graphics/SVG/1.1/DTD/svg11.dtd">
<!-- Generated by graphviz version 2.38.0 (20140413.2041)
 -->
<!-- Title: snakemake_dag Pages: 1 -->
<svg width="539pt" height="692pt"
 viewBox="0.00 0.00 539.00 692.00" xmlns="http://www.w3.org/2000/svg" xmlns:xlink="http://www.w3.org/1999/xlink">
<g id="graph0" class="graph" transform="scale(1 1) rotate(0) translate(4 688)">
<title>snakemake_dag</title>
<polygon fill="white" stroke="none" points="-4,4 -4,-688 535,-688 535,4 -4,4"/>
<!-- 0 -->
<g id="node1" class="node"><title>0</title>
<path fill="none" stroke="#56d0d8" stroke-width="2" d="M519,-108C519,-108 434,-108 434,-108 428,-108 422,-102 422,-96 422,-96 422,-84 422,-84 422,-78 428,-72 434,-72 434,-72 519,-72 519,-72 525,-72 531,-78 531,-84 531,-84 531,-96 531,-96 531,-102 525,-108 519,-108"/>
<text text-anchor="middle" x="476.5" y="-87.5" font-family="sans" font-size="10.00">filter_deseq_object</text>
</g>
<!-- 1 -->
<g id="node2" class="node"><title>1</title>
<path fill="none" stroke="#d8a456" stroke-width="2" d="M329,-36C329,-36 288,-36 288,-36 282,-36 276,-30 276,-24 276,-24 276,-12 276,-12 276,-6 282,-0 288,-0 288,-0 329,-0 329,-0 335,-0 341,-6 341,-12 341,-12 341,-24 341,-24 341,-30 335,-36 329,-36"/>
<text text-anchor="middle" x="308.5" y="-15.5" font-family="sans" font-size="10.00">mfuzz_tfs</text>
</g>
<!-- 2 -->
<g id="node3" class="node"><title>2</title>
<path fill="none" stroke="#d86e56" stroke-width="2" d="M515.5,-324C515.5,-324 409.5,-324 409.5,-324 403.5,-324 397.5,-318 397.5,-312 397.5,-312 397.5,-300 397.5,-300 397.5,-294 403.5,-288 409.5,-288 409.5,-288 515.5,-288 515.5,-288 521.5,-288 527.5,-294 527.5,-300 527.5,-300 527.5,-312 527.5,-312 527.5,-318 521.5,-324 515.5,-324"/>
<text text-anchor="middle" x="462.5" y="-303.5" font-family="sans" font-size="10.00">generate_deseq_object</text>
</g>
<!-- 2&#45;&gt;0 -->
<g id="edge1" class="edge"><title>2&#45;&gt;0</title>
<path fill="none" stroke="grey" stroke-width="2" d="M469.566,-287.665C473.338,-277.47 477.588,-264.22 479.5,-252 486.799,-205.348 483.16,-150.17 479.84,-118.025"/>
<polygon fill="grey" stroke="grey" stroke-width="2" points="483.315,-117.61 478.742,-108.053 476.357,-118.376 483.315,-117.61"/>
</g>
<!-- 3 -->
<g id="node4" class="node"><title>3</title>
<path fill="none" stroke="#56d87b" stroke-width="2" d="M394,-180C394,-180 319,-180 319,-180 313,-180 307,-174 307,-168 307,-168 307,-156 307,-156 307,-150 313,-144 319,-144 319,-144 394,-144 394,-144 400,-144 406,-150 406,-156 406,-156 406,-168 406,-168 406,-174 400,-180 394,-180"/>
<text text-anchor="middle" x="356.5" y="-159.5" font-family="sans" font-size="10.00">calculate_cutoffs</text>
</g>
<!-- 2&#45;&gt;3 -->
<g id="edge7" class="edge"><title>2&#45;&gt;3</title>
<path fill="none" stroke="grey" stroke-width="2" d="M453.637,-287.846C443.734,-269.347 426.687,-239.404 408.5,-216 400.792,-206.081 391.417,-196.033 382.761,-187.392"/>
<polygon fill="grey" stroke="grey" stroke-width="2" points="384.998,-184.685 375.399,-180.199 380.106,-189.691 384.998,-184.685"/>
</g>
<!-- 5 -->
<g id="node6" class="node"><title>5</title>
<path fill="none" stroke="#61d856" stroke-width="2" d="M364.5,-108C364.5,-108 324.5,-108 324.5,-108 318.5,-108 312.5,-102 312.5,-96 312.5,-96 312.5,-84 312.5,-84 312.5,-78 318.5,-72 324.5,-72 324.5,-72 364.5,-72 364.5,-72 370.5,-72 376.5,-78 376.5,-84 376.5,-84 376.5,-96 376.5,-96 376.5,-102 370.5,-108 364.5,-108"/>
<text text-anchor="middle" x="344.5" y="-87.5" font-family="sans" font-size="10.00">deseq_tfs</text>
</g>
<!-- 2&#45;&gt;5 -->
<g id="edge12" class="edge"><title>2&#45;&gt;5</title>
<path fill="none" stroke="grey" stroke-width="2" d="M460.927,-287.987C457.339,-256.87 446.242,-189.782 414.5,-144 406.471,-132.421 395.114,-122.293 383.879,-114.079"/>
<polygon fill="grey" stroke="grey" stroke-width="2" points="385.58,-111 375.368,-108.178 381.592,-116.752 385.58,-111"/>
</g>
<!-- 10 -->
<g id="node11" class="node"><title>10</title>
<path fill="none" stroke="#afd856" stroke-width="2" d="M387.5,-252C387.5,-252 325.5,-252 325.5,-252 319.5,-252 313.5,-246 313.5,-240 313.5,-240 313.5,-228 313.5,-228 313.5,-222 319.5,-216 325.5,-216 325.5,-216 387.5,-216 387.5,-216 393.5,-216 399.5,-222 399.5,-228 399.5,-228 399.5,-240 399.5,-240 399.5,-246 393.5,-252 387.5,-252"/>
<text text-anchor="middle" x="356.5" y="-231.5" font-family="sans" font-size="10.00">calculate_tpm</text>
</g>
<!-- 2&#45;&gt;10 -->
<g id="edge22" class="edge"><title>2&#45;&gt;10</title>
<path fill="none" stroke="grey" stroke-width="2" d="M436.569,-287.876C422.838,-278.808 405.794,-267.552 390.964,-257.759"/>
<polygon fill="grey" stroke="grey" stroke-width="2" points="392.804,-254.78 382.53,-252.19 388.946,-260.621 392.804,-254.78"/>
</g>
<!-- 3&#45;&gt;0 -->
<g id="edge2" class="edge"><title>3&#45;&gt;0</title>
<path fill="none" stroke="grey" stroke-width="2" d="M385.855,-143.876C401.545,-134.724 421.057,-123.342 437.954,-113.485"/>
<polygon fill="grey" stroke="grey" stroke-width="2" points="440.158,-116.252 447.032,-108.19 436.63,-110.205 440.158,-116.252"/>
</g>
<!-- 3&#45;&gt;5 -->
<g id="edge13" class="edge"><title>3&#45;&gt;5</title>
<path fill="none" stroke="grey" stroke-width="2" d="M353.534,-143.697C352.211,-135.983 350.622,-126.712 349.148,-118.112"/>
<polygon fill="grey" stroke="grey" stroke-width="2" points="352.572,-117.369 347.432,-108.104 345.672,-118.552 352.572,-117.369"/>
</g>
<!-- 4 -->
<g id="node5" class="node"><title>4</title>
<path fill="none" stroke="#c6d856" stroke-width="2" d="M276.5,-180C276.5,-180 226.5,-180 226.5,-180 220.5,-180 214.5,-174 214.5,-168 214.5,-168 214.5,-156 214.5,-156 214.5,-150 220.5,-144 226.5,-144 226.5,-144 276.5,-144 276.5,-144 282.5,-144 288.5,-150 288.5,-156 288.5,-156 288.5,-168 288.5,-168 288.5,-174 282.5,-180 276.5,-180"/>
<text text-anchor="middle" x="251.5" y="-159.5" font-family="sans" font-size="10.00">format_tfdb</text>
</g>
<!-- 4&#45;&gt;1 -->
<g id="edge4" class="edge"><title>4&#45;&gt;1</title>
<path fill="none" stroke="grey" stroke-width="2" d="M258.376,-143.871C268.176,-119.457 286.252,-74.4258 297.808,-45.6351"/>
<polygon fill="grey" stroke="grey" stroke-width="2" points="301.123,-46.7734 301.6,-36.1893 294.627,-44.1657 301.123,-46.7734"/>
</g>
<!-- 4&#45;&gt;5 -->
<g id="edge11" class="edge"><title>4&#45;&gt;5</title>
<path fill="none" stroke="grey" stroke-width="2" d="M274.489,-143.697C286.314,-134.796 300.892,-123.823 313.679,-114.199"/>
<polygon fill="grey" stroke="grey" stroke-width="2" points="315.891,-116.915 321.776,-108.104 311.681,-111.322 315.891,-116.915"/>
</g>
<!-- 5&#45;&gt;1 -->
<g id="edge3" class="edge"><title>5&#45;&gt;1</title>
<path fill="none" stroke="grey" stroke-width="2" d="M335.601,-71.6966C331.503,-63.7284 326.551,-54.0995 322.007,-45.2641"/>
<polygon fill="grey" stroke="grey" stroke-width="2" points="324.983,-43.3965 317.297,-36.1043 318.758,-46.598 324.983,-43.3965"/>
</g>
<!-- 6 -->
<g id="node7" class="node"><title>6</title>
<path fill="none" stroke="#56a2d8" stroke-width="2" d="M370,-396C370,-396 295,-396 295,-396 289,-396 283,-390 283,-384 283,-384 283,-372 283,-372 283,-366 289,-360 295,-360 295,-360 370,-360 370,-360 376,-360 382,-366 382,-372 382,-372 382,-384 382,-384 382,-390 376,-396 370,-396"/>
<text text-anchor="middle" x="332.5" y="-375.5" font-family="sans" font-size="10.00">second_mapping</text>
</g>
<!-- 6&#45;&gt;2 -->
<g id="edge5" class="edge"><title>6&#45;&gt;2</title>
<path fill="none" stroke="grey" stroke-width="2" d="M364.302,-359.876C381.614,-350.554 403.221,-338.919 421.756,-328.939"/>
<polygon fill="grey" stroke="grey" stroke-width="2" points="423.431,-332.012 430.576,-324.19 420.112,-325.849 423.431,-332.012"/>
</g>
<!-- 9 -->
<g id="node10" class="node"><title>9</title>
<path fill="none" stroke="#56b9d8" stroke-width="2" d="M367,-324C367,-324 298,-324 298,-324 292,-324 286,-318 286,-312 286,-312 286,-300 286,-300 286,-294 292,-288 298,-288 298,-288 367,-288 367,-288 373,-288 379,-294 379,-300 379,-300 379,-312 379,-312 379,-318 373,-324 367,-324"/>
<text text-anchor="middle" x="332.5" y="-303.5" font-family="sans" font-size="10.00">parse_star_logs</text>
</g>
<!-- 6&#45;&gt;9 -->
<g id="edge19" class="edge"><title>6&#45;&gt;9</title>
<path fill="none" stroke="grey" stroke-width="2" d="M332.5,-359.697C332.5,-351.983 332.5,-342.712 332.5,-334.112"/>
<polygon fill="grey" stroke="grey" stroke-width="2" points="336,-334.104 332.5,-324.104 329,-334.104 336,-334.104"/>
</g>
<!-- 15 -->
<g id="node16" class="node"><title>15</title>
<path fill="none" stroke="#d85656" stroke-width="2" d="M255.5,-324C255.5,-324 173.5,-324 173.5,-324 167.5,-324 161.5,-318 161.5,-312 161.5,-312 161.5,-300 161.5,-300 161.5,-294 167.5,-288 173.5,-288 173.5,-288 255.5,-288 255.5,-288 261.5,-288 267.5,-294 267.5,-300 267.5,-300 267.5,-312 267.5,-312 267.5,-318 261.5,-324 255.5,-324"/>
<text text-anchor="middle" x="214.5" y="-303.5" font-family="sans" font-size="10.00">count_background</text>
</g>
<!-- 6&#45;&gt;15 -->
<g id="edge27" class="edge"><title>6&#45;&gt;15</title>
<path fill="none" stroke="grey" stroke-width="2" d="M303.634,-359.876C288.205,-350.724 269.019,-339.342 252.403,-329.485"/>
<polygon fill="grey" stroke="grey" stroke-width="2" points="253.863,-326.282 243.477,-324.19 250.292,-332.302 253.863,-326.282"/>
</g>
<!-- 7 -->
<g id="node8" class="node"><title>7</title>
<path fill="none" stroke="#d88556" stroke-width="2" d="M131,-324C131,-324 12,-324 12,-324 6,-324 0,-318 0,-312 0,-312 0,-300 0,-300 0,-294 6,-288 12,-288 12,-288 131,-288 131,-288 137,-288 143,-294 143,-300 143,-300 143,-312 143,-312 143,-318 137,-324 131,-324"/>
<text text-anchor="middle" x="71.5" y="-303.5" font-family="sans" font-size="10.00">calculate_feature_lengths</text>
</g>
<!-- 7&#45;&gt;3 -->
<g id="edge8" class="edge"><title>7&#45;&gt;3</title>
<path fill="none" stroke="grey" stroke-width="2" d="M69.9405,-287.923C69.1199,-267.762 71.149,-234.627 90.5,-216 155.543,-153.391 203.245,-197.783 296.892,-179.835"/>
<polygon fill="grey" stroke="grey" stroke-width="2" points="297.647,-183.253 306.706,-177.758 296.198,-176.405 297.647,-183.253"/>
</g>
<!-- 7&#45;&gt;10 -->
<g id="edge20" class="edge"><title>7&#45;&gt;10</title>
<path fill="none" stroke="grey" stroke-width="2" d="M140.854,-287.966C191.05,-275.637 257.859,-259.228 303.739,-247.959"/>
<polygon fill="grey" stroke="grey" stroke-width="2" points="304.61,-251.349 313.486,-245.565 302.94,-244.551 304.61,-251.349"/>
</g>
<!-- 8 -->
<g id="node9" class="node"><title>8</title>
<path fill="none" stroke="#568ad8" stroke-width="2" d="M245.5,-252C245.5,-252 111.5,-252 111.5,-252 105.5,-252 99.5,-246 99.5,-240 99.5,-240 99.5,-228 99.5,-228 99.5,-222 105.5,-216 111.5,-216 111.5,-216 245.5,-216 245.5,-216 251.5,-216 257.5,-222 257.5,-228 257.5,-228 257.5,-240 257.5,-240 257.5,-246 251.5,-252 245.5,-252"/>
<text text-anchor="middle" x="178.5" y="-231.5" font-family="sans" font-size="10.00">combine_background_counts</text>
</g>
<!-- 8&#45;&gt;3 -->
<g id="edge9" class="edge"><title>8&#45;&gt;3</title>
<path fill="none" stroke="grey" stroke-width="2" d="M222.044,-215.876C246.702,-206.179 277.723,-193.98 303.754,-183.743"/>
<polygon fill="grey" stroke="grey" stroke-width="2" points="305.072,-186.985 313.098,-180.068 302.511,-180.471 305.072,-186.985"/>
</g>
<!-- 9&#45;&gt;3 -->
<g id="edge6" class="edge"><title>9&#45;&gt;3</title>
<path fill="none" stroke="grey" stroke-width="2" d="M320.145,-287.974C308.595,-269.839 294.512,-240.441 304.5,-216 308.988,-205.017 316.97,-195.081 325.354,-186.858"/>
<polygon fill="grey" stroke="grey" stroke-width="2" points="327.735,-189.424 332.748,-180.09 323.008,-184.261 327.735,-189.424"/>
</g>
<!-- 9&#45;&gt;10 -->
<g id="edge21" class="edge"><title>9&#45;&gt;10</title>
<path fill="none" stroke="grey" stroke-width="2" d="M338.433,-287.697C341.106,-279.898 344.326,-270.509 347.301,-261.829"/>
<polygon fill="grey" stroke="grey" stroke-width="2" points="350.703,-262.699 350.636,-252.104 344.082,-260.429 350.703,-262.699"/>
</g>
<!-- 10&#45;&gt;3 -->
<g id="edge10" class="edge"><title>10&#45;&gt;3</title>
<path fill="none" stroke="grey" stroke-width="2" d="M356.5,-215.697C356.5,-207.983 356.5,-198.712 356.5,-190.112"/>
<polygon fill="grey" stroke="grey" stroke-width="2" points="360,-190.104 356.5,-180.104 353,-190.104 360,-190.104"/>
</g>
<!-- 11 -->
<g id="node12" class="node"><title>11</title>
<path fill="none" stroke="#5673d8" stroke-width="2" d="M362,-468C362,-468 303,-468 303,-468 297,-468 291,-462 291,-456 291,-456 291,-444 291,-444 291,-438 297,-432 303,-432 303,-432 362,-432 362,-432 368,-432 374,-438 374,-444 374,-444 374,-456 374,-456 374,-462 368,-468 362,-468"/>
<text text-anchor="middle" x="332.5" y="-447.5" font-family="sans" font-size="10.00">first_mapping</text>
</g>
<!-- 11&#45;&gt;6 -->
<g id="edge16" class="edge"><title>11&#45;&gt;6</title>
<path fill="none" stroke="grey" stroke-width="2" d="M332.5,-431.697C332.5,-423.983 332.5,-414.712 332.5,-406.112"/>
<polygon fill="grey" stroke="grey" stroke-width="2" points="336,-406.104 332.5,-396.104 329,-406.104 336,-406.104"/>
</g>
<!-- 12 -->
<g id="node13" class="node"><title>12</title>
<path fill="none" stroke="#97d856" stroke-width="2" d="M303,-540C303,-540 222,-540 222,-540 216,-540 210,-534 210,-528 210,-528 210,-516 210,-516 210,-510 216,-504 222,-504 222,-504 303,-504 303,-504 309,-504 315,-510 315,-516 315,-516 315,-528 315,-528 315,-534 309,-540 303,-540"/>
<text text-anchor="middle" x="262.5" y="-519.5" font-family="sans" font-size="10.00">generate_genome</text>
</g>
<!-- 12&#45;&gt;6 -->
<g id="edge15" class="edge"><title>12&#45;&gt;6</title>
<path fill="none" stroke="grey" stroke-width="2" d="M263.36,-503.985C264.913,-485.341 269.271,-455.023 281.5,-432 287.152,-421.359 295.566,-411.361 303.939,-402.979"/>
<polygon fill="grey" stroke="grey" stroke-width="2" points="306.385,-405.483 311.215,-396.053 301.559,-400.412 306.385,-405.483"/>
</g>
<!-- 12&#45;&gt;11 -->
<g id="edge24" class="edge"><title>12&#45;&gt;11</title>
<path fill="none" stroke="grey" stroke-width="2" d="M279.803,-503.697C288.365,-495.135 298.844,-484.656 308.196,-475.304"/>
<polygon fill="grey" stroke="grey" stroke-width="2" points="310.799,-477.65 315.396,-468.104 305.85,-472.701 310.799,-477.65"/>
</g>
<!-- 17 -->
<g id="node18" class="node"><title>17</title>
<path fill="none" stroke="#56d863" stroke-width="2" d="M222.5,-468C222.5,-468 178.5,-468 178.5,-468 172.5,-468 166.5,-462 166.5,-456 166.5,-456 166.5,-444 166.5,-444 166.5,-438 172.5,-432 178.5,-432 178.5,-432 222.5,-432 222.5,-432 228.5,-432 234.5,-438 234.5,-444 234.5,-444 234.5,-456 234.5,-456 234.5,-462 228.5,-468 222.5,-468"/>
<text text-anchor="middle" x="200.5" y="-447.5" font-family="sans" font-size="10.00">shuffle_gtf</text>
</g>
<!-- 12&#45;&gt;17 -->
<g id="edge30" class="edge"><title>12&#45;&gt;17</title>
<path fill="none" stroke="grey" stroke-width="2" d="M247.174,-503.697C239.741,-495.305 230.677,-485.07 222.52,-475.861"/>
<polygon fill="grey" stroke="grey" stroke-width="2" points="224.9,-473.27 215.65,-468.104 219.66,-477.911 224.9,-473.27"/>
</g>
<!-- 13 -->
<g id="node14" class="node"><title>13</title>
<path fill="none" stroke="#78d856" stroke-width="2" d="M396.5,-540C396.5,-540 366.5,-540 366.5,-540 360.5,-540 354.5,-534 354.5,-528 354.5,-528 354.5,-516 354.5,-516 354.5,-510 360.5,-504 366.5,-504 366.5,-504 396.5,-504 396.5,-504 402.5,-504 408.5,-510 408.5,-516 408.5,-516 408.5,-528 408.5,-528 408.5,-534 402.5,-540 396.5,-540"/>
<text text-anchor="middle" x="381.5" y="-519.5" font-family="sans" font-size="10.00">gzip</text>
</g>
<!-- 13&#45;&gt;6 -->
<g id="edge14" class="edge"><title>13&#45;&gt;6</title>
<path fill="none" stroke="grey" stroke-width="2" d="M385.42,-503.904C388.814,-485.453 391.856,-455.552 382.5,-432 378.209,-421.199 370.558,-411.324 362.512,-403.102"/>
<polygon fill="grey" stroke="grey" stroke-width="2" points="364.75,-400.401 355.096,-396.037 359.922,-405.469 364.75,-400.401"/>
</g>
<!-- 13&#45;&gt;11 -->
<g id="edge23" class="edge"><title>13&#45;&gt;11</title>
<path fill="none" stroke="grey" stroke-width="2" d="M369.388,-503.697C363.632,-495.474 356.638,-485.483 350.294,-476.421"/>
<polygon fill="grey" stroke="grey" stroke-width="2" points="353.075,-474.29 344.473,-468.104 347.34,-478.304 353.075,-474.29"/>
</g>
<!-- 14 -->
<g id="node15" class="node"><title>14</title>
<path fill="none" stroke="#56d8a9" stroke-width="2" d="M209,-612C209,-612 154,-612 154,-612 148,-612 142,-606 142,-600 142,-600 142,-588 142,-588 142,-582 148,-576 154,-576 154,-576 209,-576 209,-576 215,-576 221,-582 221,-588 221,-588 221,-600 221,-600 221,-606 215,-612 209,-612"/>
<text text-anchor="middle" x="181.5" y="-591.5" font-family="sans" font-size="10.00">generate_gtf</text>
</g>
<!-- 14&#45;&gt;7 -->
<g id="edge17" class="edge"><title>14&#45;&gt;7</title>
<path fill="none" stroke="grey" stroke-width="2" d="M174.948,-575.966C156.536,-528.093 104.215,-392.06 81.8475,-333.904"/>
<polygon fill="grey" stroke="grey" stroke-width="2" points="85.0129,-332.383 78.1563,-324.306 78.4795,-334.896 85.0129,-332.383"/>
</g>
<!-- 14&#45;&gt;12 -->
<g id="edge25" class="edge"><title>14&#45;&gt;12</title>
<path fill="none" stroke="grey" stroke-width="2" d="M201.522,-575.697C211.626,-566.965 224.036,-556.24 235.018,-546.75"/>
<polygon fill="grey" stroke="grey" stroke-width="2" points="237.43,-549.291 242.708,-540.104 232.853,-543.995 237.43,-549.291"/>
</g>
<!-- 14&#45;&gt;17 -->
<g id="edge31" class="edge"><title>14&#45;&gt;17</title>
<path fill="none" stroke="grey" stroke-width="2" d="M183.792,-575.871C187.03,-551.67 192.979,-507.211 196.835,-478.393"/>
<polygon fill="grey" stroke="grey" stroke-width="2" points="200.343,-478.565 198.2,-468.189 193.405,-477.637 200.343,-478.565"/>
</g>
<!-- 15&#45;&gt;8 -->
<g id="edge18" class="edge"><title>15&#45;&gt;8</title>
<path fill="none" stroke="grey" stroke-width="2" d="M205.601,-287.697C201.503,-279.728 196.551,-270.1 192.007,-261.264"/>
<polygon fill="grey" stroke="grey" stroke-width="2" points="194.983,-259.396 187.297,-252.104 188.758,-262.598 194.983,-259.396"/>
</g>
<!-- 16 -->
<g id="node17" class="node"><title>16</title>
<path fill="none" stroke="#56d892" stroke-width="2" d="M399,-612C399,-612 364,-612 364,-612 358,-612 352,-606 352,-600 352,-600 352,-588 352,-588 352,-582 358,-576 364,-576 364,-576 399,-576 399,-576 405,-576 411,-582 411,-588 411,-588 411,-600 411,-600 411,-606 405,-612 399,-612"/>
<text text-anchor="middle" x="381.5" y="-591.5" font-family="sans" font-size="10.00">cutadapt</text>
</g>
<!-- 16&#45;&gt;13 -->
<g id="edge26" class="edge"><title>16&#45;&gt;13</title>
<path fill="none" stroke="grey" stroke-width="2" d="M381.5,-575.697C381.5,-567.983 381.5,-558.712 381.5,-550.112"/>
<polygon fill="grey" stroke="grey" stroke-width="2" points="385,-550.104 381.5,-540.104 378,-550.104 385,-550.104"/>
</g>
<!-- 17&#45;&gt;15 -->
<g id="edge28" class="edge"><title>17&#45;&gt;15</title>
<path fill="none" stroke="grey" stroke-width="2" d="M202.189,-431.871C204.575,-407.67 208.958,-363.211 211.799,-334.393"/>
<polygon fill="grey" stroke="grey" stroke-width="2" points="215.307,-334.484 212.805,-324.189 208.341,-333.798 215.307,-334.484"/>
</g>
<!-- 18 -->
<g id="node19" class="node"><title>18</title>
<path fill="none" stroke="#d8bc56" stroke-width="2" d="M396.5,-684C396.5,-684 366.5,-684 366.5,-684 360.5,-684 354.5,-678 354.5,-672 354.5,-672 354.5,-660 354.5,-660 354.5,-654 360.5,-648 366.5,-648 366.5,-648 396.5,-648 396.5,-648 402.5,-648 408.5,-654 408.5,-660 408.5,-660 408.5,-672 408.5,-672 408.5,-678 402.5,-684 396.5,-684"/>
<text text-anchor="middle" x="381.5" y="-663.5" font-family="sans" font-size="10.00">repair</text>
</g>
<!-- 18&#45;&gt;16 -->
<g id="edge29" class="edge"><title>18&#45;&gt;16</title>
<path fill="none" stroke="grey" stroke-width="2" d="M381.5,-647.697C381.5,-639.983 381.5,-630.712 381.5,-622.112"/>
<polygon fill="grey" stroke="grey" stroke-width="2" points="385,-622.104 381.5,-612.104 378,-622.104 385,-622.104"/>
</g>
</g>
</svg>
