<?xml version="1.0" encoding="UTF-8" standalone="no"?>
<!DOCTYPE svg PUBLIC "-//W3C//DTD SVG 1.1//EN"
 "http://www.w3.org/Graphics/SVG/1.1/DTD/svg11.dtd">
<!-- Generated by graphviz version 2.40.1 (20161225.0304)
 -->
<!-- Title: snakemake_dag Pages: 1 -->
<svg width="1239pt" height="836pt"
 viewBox="0.00 0.00 1238.50 836.00" xmlns="http://www.w3.org/2000/svg" xmlns:xlink="http://www.w3.org/1999/xlink">
<g id="graph0" class="graph" transform="scale(1 1) rotate(0) translate(4 832)">
<title>snakemake_dag</title>
<polygon fill="#ffffff" stroke="transparent" points="-4,4 -4,-832 1234.5,-832 1234.5,4 -4,4"/>
<!-- 0 -->
<g id="node1" class="node">
<title>0</title>
<path fill="none" stroke="#d6d856" stroke-width="2" d="M83,-108C83,-108 12,-108 12,-108 6,-108 0,-102 0,-96 0,-96 0,-84 0,-84 0,-78 6,-72 12,-72 12,-72 83,-72 83,-72 89,-72 95,-78 95,-84 95,-84 95,-96 95,-96 95,-102 89,-108 83,-108"/>
<text text-anchor="middle" x="47.5" y="-87.5" font-family="sans" font-size="10.00" fill="#000000">de_genes_stage</text>
</g>
<!-- 1 -->
<g id="node2" class="node">
<title>1</title>
<path fill="none" stroke="#9fd856" stroke-width="2" d="M591.5,-828C591.5,-828 561.5,-828 561.5,-828 555.5,-828 549.5,-822 549.5,-816 549.5,-816 549.5,-804 549.5,-804 549.5,-798 555.5,-792 561.5,-792 561.5,-792 591.5,-792 591.5,-792 597.5,-792 603.5,-798 603.5,-804 603.5,-804 603.5,-816 603.5,-816 603.5,-822 597.5,-828 591.5,-828"/>
<text text-anchor="middle" x="576.5" y="-807.5" font-family="sans" font-size="10.00" fill="#000000">md5</text>
</g>
<!-- 2 -->
<g id="node3" class="node">
<title>2</title>
<path fill="none" stroke="#d8d356" stroke-width="2" d="M701.5,-828C701.5,-828 633.5,-828 633.5,-828 627.5,-828 621.5,-822 621.5,-816 621.5,-816 621.5,-804 621.5,-804 621.5,-798 627.5,-792 633.5,-792 633.5,-792 701.5,-792 701.5,-792 707.5,-792 713.5,-798 713.5,-804 713.5,-804 713.5,-816 713.5,-816 713.5,-822 707.5,-828 701.5,-828"/>
<text text-anchor="middle" x="667.5" y="-807.5" font-family="sans" font-size="10.00" fill="#000000">lmd_paper_ap2</text>
</g>
<!-- 3 -->
<g id="node4" class="node">
<title>3</title>
<path fill="none" stroke="#d85656" stroke-width="2" d="M817.5,-828C817.5,-828 743.5,-828 743.5,-828 737.5,-828 731.5,-822 731.5,-816 731.5,-816 731.5,-804 731.5,-804 731.5,-798 737.5,-792 743.5,-792 743.5,-792 817.5,-792 817.5,-792 823.5,-792 829.5,-798 829.5,-804 829.5,-804 829.5,-816 829.5,-816 829.5,-822 823.5,-828 817.5,-828"/>
<text text-anchor="middle" x="780.5" y="-807.5" font-family="sans" font-size="10.00" fill="#000000">panicle_mutants</text>
</g>
<!-- 4 -->
<g id="node5" class="node">
<title>4</title>
<path fill="none" stroke="#566bd8" stroke-width="2" d="M937,-828C937,-828 860,-828 860,-828 854,-828 848,-822 848,-816 848,-816 848,-804 848,-804 848,-798 854,-792 860,-792 860,-792 937,-792 937,-792 943,-792 949,-798 949,-804 949,-804 949,-816 949,-816 949,-822 943,-828 937,-828"/>
<text text-anchor="middle" x="898.5" y="-807.5" font-family="sans" font-size="10.00" fill="#000000">phenotyping_mpl</text>
</g>
<!-- 5 -->
<g id="node6" class="node">
<title>5</title>
<path fill="none" stroke="#56b1d8" stroke-width="2" d="M274,-324C274,-324 191,-324 191,-324 185,-324 179,-318 179,-312 179,-312 179,-300 179,-300 179,-294 185,-288 191,-288 191,-288 274,-288 274,-288 280,-288 286,-294 286,-300 286,-300 286,-312 286,-312 286,-318 280,-324 274,-324"/>
<text text-anchor="middle" x="232.5" y="-303.5" font-family="sans" font-size="10.00" fill="#000000">transcriptome_pca</text>
</g>
<!-- 6 -->
<g id="node7" class="node">
<title>6</title>
<path fill="none" stroke="#569ad8" stroke-width="2" d="M565,-396C565,-396 528,-396 528,-396 522,-396 516,-390 516,-384 516,-384 516,-372 516,-372 516,-366 522,-360 528,-360 528,-360 565,-360 565,-360 571,-360 577,-366 577,-372 577,-372 577,-384 577,-384 577,-390 571,-396 565,-396"/>
<text text-anchor="middle" x="546.5" y="-375.5" font-family="sans" font-size="10.00" fill="#000000">star_logs</text>
</g>
<!-- 7 -->
<g id="node8" class="node">
<title>7</title>
<path fill="none" stroke="#afd856" stroke-width="2" d="M217.5,-108C217.5,-108 125.5,-108 125.5,-108 119.5,-108 113.5,-102 113.5,-96 113.5,-96 113.5,-84 113.5,-84 113.5,-78 119.5,-72 125.5,-72 125.5,-72 217.5,-72 217.5,-72 223.5,-72 229.5,-78 229.5,-84 229.5,-84 229.5,-96 229.5,-96 229.5,-102 223.5,-108 217.5,-108"/>
<text text-anchor="middle" x="171.5" y="-87.5" font-family="sans" font-size="10.00" fill="#000000">mads_ap2_heatmap</text>
</g>
<!-- 8 -->
<g id="node9" class="node">
<title>8</title>
<path fill="none" stroke="#5692d8" stroke-width="2" d="M579,-108C579,-108 482,-108 482,-108 476,-108 470,-102 470,-96 470,-96 470,-84 470,-84 470,-78 476,-72 482,-72 482,-72 579,-72 579,-72 585,-72 591,-78 591,-84 591,-84 591,-96 591,-96 591,-102 585,-108 579,-108"/>
<text text-anchor="middle" x="530.5" y="-87.5" font-family="sans" font-size="10.00" fill="#000000">de_genes_interaction</text>
</g>
<!-- 9 -->
<g id="node10" class="node">
<title>9</title>
<path fill="none" stroke="#d87d56" stroke-width="2" d="M878,-36C878,-36 771,-36 771,-36 765,-36 759,-30 759,-24 759,-24 759,-12 759,-12 759,-6 765,0 771,0 771,0 878,0 878,0 884,0 890,-6 890,-12 890,-12 890,-24 890,-24 890,-30 884,-36 878,-36"/>
<text text-anchor="middle" x="824.5" y="-15.5" font-family="sans" font-size="10.00" fill="#000000">cluster_phenotype_corr</text>
</g>
<!-- 10 -->
<g id="node11" class="node">
<title>10</title>
<path fill="none" stroke="#d89556" stroke-width="2" d="M670,-108C670,-108 621,-108 621,-108 615,-108 609,-102 609,-96 609,-96 609,-84 609,-84 609,-78 615,-72 621,-72 621,-72 670,-72 670,-72 676,-72 682,-78 682,-84 682,-84 682,-96 682,-96 682,-102 676,-108 670,-108"/>
<text text-anchor="middle" x="645.5" y="-87.5" font-family="sans" font-size="10.00" fill="#000000">dom_genes</text>
</g>
<!-- 11 -->
<g id="node12" class="node">
<title>11</title>
<path fill="none" stroke="#5673d8" stroke-width="2" d="M1066,-36C1066,-36 999,-36 999,-36 993,-36 987,-30 987,-24 987,-24 987,-12 987,-12 987,-6 993,0 999,0 999,0 1066,0 1066,0 1072,0 1078,-6 1078,-12 1078,-12 1078,-24 1078,-24 1078,-30 1072,-36 1066,-36"/>
<text text-anchor="middle" x="1032.5" y="-15.5" font-family="sans" font-size="10.00" fill="#000000">phenotype_pca</text>
</g>
<!-- 12 -->
<g id="node13" class="node">
<title>12</title>
<path fill="none" stroke="#d89c56" stroke-width="2" d="M366.5,-36C366.5,-36 256.5,-36 256.5,-36 250.5,-36 244.5,-30 244.5,-24 244.5,-24 244.5,-12 244.5,-12 244.5,-6 250.5,0 256.5,0 256.5,0 366.5,0 366.5,0 372.5,0 378.5,-6 378.5,-12 378.5,-12 378.5,-24 378.5,-24 378.5,-30 372.5,-36 366.5,-36"/>
<text text-anchor="middle" x="311.5" y="-15.5" font-family="sans" font-size="10.00" fill="#000000">fgsea_enrichment_table</text>
</g>
<!-- 13 -->
<g id="node14" class="node">
<title>13</title>
<path fill="none" stroke="#d8bc56" stroke-width="2" d="M144,-180C144,-180 61,-180 61,-180 55,-180 49,-174 49,-168 49,-168 49,-156 49,-156 49,-150 55,-144 61,-144 61,-144 144,-144 144,-144 150,-144 156,-150 156,-156 156,-156 156,-168 156,-168 156,-174 150,-180 144,-180"/>
<text text-anchor="middle" x="102.5" y="-159.5" font-family="sans" font-size="10.00" fill="#000000">distance_heatmap</text>
</g>
<!-- 14 -->
<g id="node15" class="node">
<title>14</title>
<path fill="none" stroke="#97d856" stroke-width="2" d="M784.5,-108C784.5,-108 712.5,-108 712.5,-108 706.5,-108 700.5,-102 700.5,-96 700.5,-96 700.5,-84 700.5,-84 700.5,-78 706.5,-72 712.5,-72 712.5,-72 784.5,-72 784.5,-72 790.5,-72 796.5,-78 796.5,-84 796.5,-84 796.5,-96 796.5,-96 796.5,-102 790.5,-108 784.5,-108"/>
<text text-anchor="middle" x="748.5" y="-87.5" font-family="sans" font-size="10.00" fill="#000000">clustered_genes</text>
</g>
<!-- 15 -->
<g id="node16" class="node">
<title>15</title>
<path fill="none" stroke="#56d8b9" stroke-width="2" d="M1218.5,-36C1218.5,-36 1108.5,-36 1108.5,-36 1102.5,-36 1096.5,-30 1096.5,-24 1096.5,-24 1096.5,-12 1096.5,-12 1096.5,-6 1102.5,0 1108.5,0 1108.5,0 1218.5,0 1218.5,0 1224.5,0 1230.5,-6 1230.5,-12 1230.5,-12 1230.5,-24 1230.5,-24 1230.5,-30 1224.5,-36 1218.5,-36"/>
<text text-anchor="middle" x="1163.5" y="-15.5" font-family="sans" font-size="10.00" fill="#000000">phenotype_all_varieties</text>
</g>
<!-- 16 -->
<g id="node17" class="node">
<title>16</title>
<path fill="none" stroke="#56d85b" stroke-width="2" d="M225,-180C225,-180 186,-180 186,-180 180,-180 174,-174 174,-168 174,-168 174,-156 174,-156 174,-150 180,-144 186,-144 186,-144 225,-144 225,-144 231,-144 237,-150 237,-156 237,-156 237,-168 237,-168 237,-174 231,-180 225,-180"/>
<text text-anchor="middle" x="205.5" y="-159.5" font-family="sans" font-size="10.00" fill="#000000">deseq_all</text>
</g>
<!-- 16&#45;&gt;0 -->
<g id="edge1" class="edge">
<title>16&#45;&gt;0</title>
<path fill="none" stroke="#c0c0c0" stroke-width="2" d="M173.9061,-147.6028C151.7865,-137.523 121.7987,-123.8576 96.5825,-112.3667"/>
<polygon fill="#c0c0c0" stroke="#c0c0c0" stroke-width="2" points="97.7292,-109.043 87.1781,-108.0811 94.8264,-115.4128 97.7292,-109.043"/>
</g>
<!-- 16&#45;&gt;7 -->
<g id="edge7" class="edge">
<title>16&#45;&gt;7</title>
<path fill="none" stroke="#c0c0c0" stroke-width="2" d="M196.9204,-143.8314C193.1642,-135.8771 188.6743,-126.369 184.5202,-117.5723"/>
<polygon fill="#c0c0c0" stroke="#c0c0c0" stroke-width="2" points="187.6301,-115.9612 180.1952,-108.4133 181.3004,-118.9503 187.6301,-115.9612"/>
</g>
<!-- 28 -->
<g id="node29" class="node">
<title>28</title>
<path fill="none" stroke="#56d892" stroke-width="2" d="M363.5,-108C363.5,-108 259.5,-108 259.5,-108 253.5,-108 247.5,-102 247.5,-96 247.5,-96 247.5,-84 247.5,-84 247.5,-78 253.5,-72 259.5,-72 259.5,-72 363.5,-72 363.5,-72 369.5,-72 375.5,-78 375.5,-84 375.5,-84 375.5,-96 375.5,-96 375.5,-102 369.5,-108 363.5,-108"/>
<text text-anchor="middle" x="311.5" y="-87.5" font-family="sans" font-size="10.00" fill="#000000">fgsea_enrichment_test</text>
</g>
<!-- 16&#45;&gt;28 -->
<g id="edge39" class="edge">
<title>16&#45;&gt;28</title>
<path fill="none" stroke="#c0c0c0" stroke-width="2" d="M232.2483,-143.8314C245.5553,-134.7927 261.816,-123.7476 276.1375,-114.0198"/>
<polygon fill="#c0c0c0" stroke="#c0c0c0" stroke-width="2" points="278.4547,-116.677 284.7603,-108.1628 274.5215,-110.8864 278.4547,-116.677"/>
</g>
<!-- 17 -->
<g id="node18" class="node">
<title>17</title>
<path fill="none" stroke="#d87556" stroke-width="2" d="M255.5,-396C255.5,-396 221.5,-396 221.5,-396 215.5,-396 209.5,-390 209.5,-384 209.5,-384 209.5,-372 209.5,-372 209.5,-366 215.5,-360 221.5,-360 221.5,-360 255.5,-360 255.5,-360 261.5,-360 267.5,-366 267.5,-372 267.5,-372 267.5,-384 267.5,-384 267.5,-390 261.5,-396 255.5,-396"/>
<text text-anchor="middle" x="238.5" y="-375.5" font-family="sans" font-size="10.00" fill="#000000">rlog_pca</text>
</g>
<!-- 17&#45;&gt;5 -->
<g id="edge2" class="edge">
<title>17&#45;&gt;5</title>
<path fill="none" stroke="#c0c0c0" stroke-width="2" d="M236.9859,-359.8314C236.3442,-352.131 235.5812,-342.9743 234.8681,-334.4166"/>
<polygon fill="#c0c0c0" stroke="#c0c0c0" stroke-width="2" points="238.3529,-334.088 234.0344,-324.4133 231.3771,-334.6694 238.3529,-334.088"/>
</g>
<!-- 18 -->
<g id="node19" class="node">
<title>18</title>
<path fill="none" stroke="#d85e56" stroke-width="2" d="M601,-468C601,-468 532,-468 532,-468 526,-468 520,-462 520,-456 520,-456 520,-444 520,-444 520,-438 526,-432 532,-432 532,-432 601,-432 601,-432 607,-432 613,-438 613,-444 613,-444 613,-456 613,-456 613,-462 607,-468 601,-468"/>
<text text-anchor="middle" x="566.5" y="-447.5" font-family="sans" font-size="10.00" fill="#000000">parse_star_logs</text>
</g>
<!-- 18&#45;&gt;6 -->
<g id="edge3" class="edge">
<title>18&#45;&gt;6</title>
<path fill="none" stroke="#c0c0c0" stroke-width="2" d="M561.4532,-431.8314C559.2906,-424.0463 556.7147,-414.7729 554.3152,-406.1347"/>
<polygon fill="#c0c0c0" stroke="#c0c0c0" stroke-width="2" points="557.6636,-405.1117 551.6148,-396.4133 550.919,-406.9852 557.6636,-405.1117"/>
</g>
<!-- 23 -->
<g id="node24" class="node">
<title>23</title>
<path fill="none" stroke="#56d8d8" stroke-width="2" d="M452.5,-324C452.5,-324 376.5,-324 376.5,-324 370.5,-324 364.5,-318 364.5,-312 364.5,-312 364.5,-300 364.5,-300 364.5,-294 370.5,-288 376.5,-288 376.5,-288 452.5,-288 452.5,-288 458.5,-288 464.5,-294 464.5,-300 464.5,-300 464.5,-312 464.5,-312 464.5,-318 458.5,-324 452.5,-324"/>
<text text-anchor="middle" x="414.5" y="-303.5" font-family="sans" font-size="10.00" fill="#000000">calculate_cutoffs</text>
</g>
<!-- 18&#45;&gt;23 -->
<g id="edge28" class="edge">
<title>18&#45;&gt;23</title>
<path fill="none" stroke="#c0c0c0" stroke-width="2" d="M578.4115,-431.6822C589.4577,-412.1446 602.0349,-381.1597 586.5,-360 582.9693,-355.1909 522.6133,-336.9501 474.3843,-322.986"/>
<polygon fill="#c0c0c0" stroke="#c0c0c0" stroke-width="2" points="475.1898,-319.5757 464.6115,-320.1666 473.2494,-326.3014 475.1898,-319.5757"/>
</g>
<!-- 34 -->
<g id="node35" class="node">
<title>34</title>
<path fill="none" stroke="#56d8a2" stroke-width="2" d="M485.5,-396C485.5,-396 423.5,-396 423.5,-396 417.5,-396 411.5,-390 411.5,-384 411.5,-384 411.5,-372 411.5,-372 411.5,-366 417.5,-360 423.5,-360 423.5,-360 485.5,-360 485.5,-360 491.5,-360 497.5,-366 497.5,-372 497.5,-372 497.5,-384 497.5,-384 497.5,-390 491.5,-396 485.5,-396"/>
<text text-anchor="middle" x="454.5" y="-375.5" font-family="sans" font-size="10.00" fill="#000000">calculate_tpm</text>
</g>
<!-- 18&#45;&gt;34 -->
<g id="edge50" class="edge">
<title>18&#45;&gt;34</title>
<path fill="none" stroke="#c0c0c0" stroke-width="2" d="M538.2377,-431.8314C524.0448,-422.7074 506.6718,-411.539 491.4364,-401.7449"/>
<polygon fill="#c0c0c0" stroke="#c0c0c0" stroke-width="2" points="493.0578,-398.6263 482.7533,-396.1628 489.2724,-404.5146 493.0578,-398.6263"/>
</g>
<!-- 19 -->
<g id="node20" class="node">
<title>19</title>
<path fill="none" stroke="#56d8c1" stroke-width="2" d="M549.5,-324C549.5,-324 499.5,-324 499.5,-324 493.5,-324 487.5,-318 487.5,-312 487.5,-312 487.5,-300 487.5,-300 487.5,-294 493.5,-288 499.5,-288 499.5,-288 549.5,-288 549.5,-288 555.5,-288 561.5,-294 561.5,-300 561.5,-300 561.5,-312 561.5,-312 561.5,-318 555.5,-324 549.5,-324"/>
<text text-anchor="middle" x="524.5" y="-303.5" font-family="sans" font-size="10.00" fill="#000000">format_tfdb</text>
</g>
<!-- 19&#45;&gt;7 -->
<g id="edge6" class="edge">
<title>19&#45;&gt;7</title>
<path fill="none" stroke="#c0c0c0" stroke-width="2" d="M487.4162,-290.2144C438.7358,-268.6871 351.5998,-227.3415 284.5,-180 265.2254,-166.401 263.7243,-158.9773 245.5,-144 233.0209,-133.7443 218.7963,-123.1268 206.1753,-114.0488"/>
<polygon fill="#c0c0c0" stroke="#c0c0c0" stroke-width="2" points="207.9098,-110.987 197.7351,-108.0333 203.8471,-116.6874 207.9098,-110.987"/>
</g>
<!-- 24 -->
<g id="node25" class="node">
<title>24</title>
<path fill="none" stroke="#ced856" stroke-width="2" d="M807,-180C807,-180 766,-180 766,-180 760,-180 754,-174 754,-168 754,-168 754,-156 754,-156 754,-150 760,-144 766,-144 766,-144 807,-144 807,-144 813,-144 819,-150 819,-156 819,-156 819,-168 819,-168 819,-174 813,-180 807,-180"/>
<text text-anchor="middle" x="786.5" y="-159.5" font-family="sans" font-size="10.00" fill="#000000">mfuzz_tfs</text>
</g>
<!-- 19&#45;&gt;24 -->
<g id="edge32" class="edge">
<title>19&#45;&gt;24</title>
<path fill="none" stroke="#c0c0c0" stroke-width="2" d="M557.4172,-287.9081C604.9997,-261.7559 692.9783,-213.4013 744.9648,-184.8285"/>
<polygon fill="#c0c0c0" stroke="#c0c0c0" stroke-width="2" points="746.8453,-187.7888 753.923,-179.9049 743.4736,-181.6543 746.8453,-187.7888"/>
</g>
<!-- 31 -->
<g id="node32" class="node">
<title>31</title>
<path fill="none" stroke="#70d856" stroke-width="2" d="M541.5,-252C541.5,-252 507.5,-252 507.5,-252 501.5,-252 495.5,-246 495.5,-240 495.5,-240 495.5,-228 495.5,-228 495.5,-222 501.5,-216 507.5,-216 507.5,-216 541.5,-216 541.5,-216 547.5,-216 553.5,-222 553.5,-228 553.5,-228 553.5,-240 553.5,-240 553.5,-246 547.5,-252 541.5,-252"/>
<text text-anchor="middle" x="524.5" y="-231.5" font-family="sans" font-size="10.00" fill="#000000">filter_tfs</text>
</g>
<!-- 19&#45;&gt;31 -->
<g id="edge47" class="edge">
<title>19&#45;&gt;31</title>
<path fill="none" stroke="#c0c0c0" stroke-width="2" d="M524.5,-287.8314C524.5,-280.131 524.5,-270.9743 524.5,-262.4166"/>
<polygon fill="#c0c0c0" stroke="#c0c0c0" stroke-width="2" points="528.0001,-262.4132 524.5,-252.4133 521.0001,-262.4133 528.0001,-262.4132"/>
</g>
<!-- 20 -->
<g id="node21" class="node">
<title>20</title>
<path fill="none" stroke="#5682d8" stroke-width="2" d="M363,-180C363,-180 306,-180 306,-180 300,-180 294,-174 294,-168 294,-168 294,-156 294,-156 294,-150 300,-144 306,-144 306,-144 363,-144 363,-144 369,-144 375,-150 375,-156 375,-156 375,-168 375,-168 375,-174 369,-180 363,-180"/>
<text text-anchor="middle" x="334.5" y="-159.5" font-family="sans" font-size="10.00" fill="#000000">tfdb_families</text>
</g>
<!-- 20&#45;&gt;7 -->
<g id="edge4" class="edge">
<title>20&#45;&gt;7</title>
<path fill="none" stroke="#c0c0c0" stroke-width="2" d="M293.7887,-144.0171C271.9091,-134.3525 244.7452,-122.3537 221.5801,-112.1213"/>
<polygon fill="#c0c0c0" stroke="#c0c0c0" stroke-width="2" points="222.8188,-108.8422 212.2572,-108.0032 219.9904,-115.2454 222.8188,-108.8422"/>
</g>
<!-- 20&#45;&gt;28 -->
<g id="edge38" class="edge">
<title>20&#45;&gt;28</title>
<path fill="none" stroke="#c0c0c0" stroke-width="2" d="M328.6961,-143.8314C326.2092,-136.0463 323.2469,-126.7729 320.4875,-118.1347"/>
<polygon fill="#c0c0c0" stroke="#c0c0c0" stroke-width="2" points="323.7591,-116.874 317.382,-108.4133 317.091,-119.0041 323.7591,-116.874"/>
</g>
<!-- 21 -->
<g id="node22" class="node">
<title>21</title>
<path fill="none" stroke="#56c9d8" stroke-width="2" d="M328.5,-468C328.5,-468 222.5,-468 222.5,-468 216.5,-468 210.5,-462 210.5,-456 210.5,-456 210.5,-444 210.5,-444 210.5,-438 216.5,-432 222.5,-432 222.5,-432 328.5,-432 328.5,-432 334.5,-432 340.5,-438 340.5,-444 340.5,-444 340.5,-456 340.5,-456 340.5,-462 334.5,-468 328.5,-468"/>
<text text-anchor="middle" x="275.5" y="-447.5" font-family="sans" font-size="10.00" fill="#000000">generate_deseq_object</text>
</g>
<!-- 21&#45;&gt;7 -->
<g id="edge5" class="edge">
<title>21&#45;&gt;7</title>
<path fill="none" stroke="#c0c0c0" stroke-width="2" d="M210.4929,-441.7899C134.9428,-428.1882 20.5,-393.194 20.5,-306 20.5,-306 20.5,-306 20.5,-234 20.5,-193.1184 13.3116,-175.3923 39.5,-144 48.616,-133.0726 76.1584,-121.0712 103.742,-111.1634"/>
<polygon fill="#c0c0c0" stroke="#c0c0c0" stroke-width="2" points="105.1922,-114.3639 113.4702,-107.7514 102.8754,-107.7584 105.1922,-114.3639"/>
</g>
<!-- 21&#45;&gt;17 -->
<g id="edge23" class="edge">
<title>21&#45;&gt;17</title>
<path fill="none" stroke="#c0c0c0" stroke-width="2" d="M266.1633,-431.8314C262.0757,-423.8771 257.1896,-414.369 252.6691,-405.5723"/>
<polygon fill="#c0c0c0" stroke="#c0c0c0" stroke-width="2" points="255.6461,-403.7078 247.9624,-396.4133 249.4201,-406.9074 255.6461,-403.7078"/>
</g>
<!-- 21&#45;&gt;23 -->
<g id="edge27" class="edge">
<title>21&#45;&gt;23</title>
<path fill="none" stroke="#c0c0c0" stroke-width="2" d="M293.1044,-431.7623C317.6484,-406.3354 362.2541,-360.1253 390.0236,-331.3569"/>
<polygon fill="#c0c0c0" stroke="#c0c0c0" stroke-width="2" points="392.6116,-333.7153 397.0385,-324.0896 387.5752,-328.8537 392.6116,-333.7153"/>
</g>
<!-- 29 -->
<g id="node30" class="node">
<title>29</title>
<path fill="none" stroke="#8fd856" stroke-width="2" d="M221.5,-252C221.5,-252 135.5,-252 135.5,-252 129.5,-252 123.5,-246 123.5,-240 123.5,-240 123.5,-228 123.5,-228 123.5,-222 129.5,-216 135.5,-216 135.5,-216 221.5,-216 221.5,-216 227.5,-216 233.5,-222 233.5,-228 233.5,-228 233.5,-240 233.5,-240 233.5,-246 227.5,-252 221.5,-252"/>
<text text-anchor="middle" x="178.5" y="-231.5" font-family="sans" font-size="10.00" fill="#000000">filter_deseq_object</text>
</g>
<!-- 21&#45;&gt;29 -->
<g id="edge41" class="edge">
<title>21&#45;&gt;29</title>
<path fill="none" stroke="#c0c0c0" stroke-width="2" d="M242.8221,-431.9932C228.3626,-422.744 212.0543,-410.3859 200.5,-396 169.2287,-357.065 165.3811,-337.7681 169.5,-288 170.1945,-279.6085 171.4862,-270.5578 172.8786,-262.3092"/>
<polygon fill="#c0c0c0" stroke="#c0c0c0" stroke-width="2" points="176.3353,-262.8612 174.6587,-252.3999 169.4456,-261.6235 176.3353,-262.8612"/>
</g>
<!-- 21&#45;&gt;31 -->
<g id="edge46" class="edge">
<title>21&#45;&gt;31</title>
<path fill="none" stroke="#c0c0c0" stroke-width="2" d="M279.506,-431.7933C287.7928,-398.3971 309.9731,-327.186 355.5,-288 392.4161,-256.2254 448.2094,-243.1013 485.4731,-237.7105"/>
<polygon fill="#c0c0c0" stroke="#c0c0c0" stroke-width="2" points="486.0078,-241.1703 495.4609,-236.386 485.0875,-234.2311 486.0078,-241.1703"/>
</g>
<!-- 21&#45;&gt;34 -->
<g id="edge51" class="edge">
<title>21&#45;&gt;34</title>
<path fill="none" stroke="#c0c0c0" stroke-width="2" d="M320.6693,-431.8314C345.2814,-421.9315 375.8774,-409.6247 401.6003,-399.2781"/>
<polygon fill="#c0c0c0" stroke="#c0c0c0" stroke-width="2" points="403.2262,-402.3967 411.1976,-395.4177 400.6139,-395.9024 403.2262,-402.3967"/>
</g>
<!-- 22 -->
<g id="node23" class="node">
<title>22</title>
<path fill="none" stroke="#d86e56" stroke-width="2" d="M547.5,-180C547.5,-180 507.5,-180 507.5,-180 501.5,-180 495.5,-174 495.5,-168 495.5,-168 495.5,-156 495.5,-156 495.5,-150 501.5,-144 507.5,-144 507.5,-144 547.5,-144 547.5,-144 553.5,-144 559.5,-150 559.5,-156 559.5,-156 559.5,-168 559.5,-168 559.5,-174 553.5,-180 547.5,-180"/>
<text text-anchor="middle" x="527.5" y="-159.5" font-family="sans" font-size="10.00" fill="#000000">deseq_tfs</text>
</g>
<!-- 22&#45;&gt;8 -->
<g id="edge8" class="edge">
<title>22&#45;&gt;8</title>
<path fill="none" stroke="#c0c0c0" stroke-width="2" d="M528.257,-143.8314C528.5779,-136.131 528.9594,-126.9743 529.316,-118.4166"/>
<polygon fill="#c0c0c0" stroke="#c0c0c0" stroke-width="2" points="532.8133,-118.5503 529.7328,-108.4133 525.8194,-118.2589 532.8133,-118.5503"/>
</g>
<!-- 22&#45;&gt;9 -->
<g id="edge11" class="edge">
<title>22&#45;&gt;9</title>
<path fill="none" stroke="#c0c0c0" stroke-width="2" d="M498.563,-143.7773C472.4853,-125.1318 441.1288,-95.6258 461.5,-72 479.9784,-50.5695 647.6151,-32.8781 748.4977,-24.0563"/>
<polygon fill="#c0c0c0" stroke="#c0c0c0" stroke-width="2" points="748.9853,-27.5273 758.6467,-23.179 748.3824,-20.5533 748.9853,-27.5273"/>
</g>
<!-- 22&#45;&gt;10 -->
<g id="edge14" class="edge">
<title>22&#45;&gt;10</title>
<path fill="none" stroke="#c0c0c0" stroke-width="2" d="M557.2764,-143.8314C572.3693,-134.6221 590.8757,-123.3301 607.0343,-113.4706"/>
<polygon fill="#c0c0c0" stroke="#c0c0c0" stroke-width="2" points="609.0198,-116.3593 615.7331,-108.1628 605.3737,-110.3838 609.0198,-116.3593"/>
</g>
<!-- 23&#45;&gt;9 -->
<g id="edge9" class="edge">
<title>23&#45;&gt;9</title>
<path fill="none" stroke="#c0c0c0" stroke-width="2" d="M410.9242,-287.9403C403.3806,-244.0112 391.0813,-130.8713 450.5,-72 471.3311,-51.3608 645.4993,-33.2105 748.6552,-24.1401"/>
<polygon fill="#c0c0c0" stroke="#c0c0c0" stroke-width="2" points="749.057,-27.6185 758.7159,-23.2645 748.45,-20.6449 749.057,-27.6185"/>
</g>
<!-- 23&#45;&gt;29 -->
<g id="edge40" class="edge">
<title>23&#45;&gt;29</title>
<path fill="none" stroke="#c0c0c0" stroke-width="2" d="M364.4505,-290.7307C329.3005,-280.0069 281.9477,-265.5603 243.8247,-253.9296"/>
<polygon fill="#c0c0c0" stroke="#c0c0c0" stroke-width="2" points="244.427,-250.4541 233.8408,-250.8836 242.3843,-257.1494 244.427,-250.4541"/>
</g>
<!-- 23&#45;&gt;31 -->
<g id="edge45" class="edge">
<title>23&#45;&gt;31</title>
<path fill="none" stroke="#c0c0c0" stroke-width="2" d="M442.2576,-287.8314C456.197,-278.7074 473.2598,-267.539 488.2231,-257.7449"/>
<polygon fill="#c0c0c0" stroke="#c0c0c0" stroke-width="2" points="490.301,-260.5679 496.7512,-252.1628 486.4674,-254.711 490.301,-260.5679"/>
</g>
<!-- 24&#45;&gt;9 -->
<g id="edge10" class="edge">
<title>24&#45;&gt;9</title>
<path fill="none" stroke="#c0c0c0" stroke-width="2" d="M793.6089,-143.6955C797.4659,-133.3278 802.1214,-120.058 805.5,-108 811.2358,-87.5291 816.1442,-64.0109 819.5345,-46.1505"/>
<polygon fill="#c0c0c0" stroke="#c0c0c0" stroke-width="2" points="823.0168,-46.5672 821.3966,-36.097 816.1339,-45.2923 823.0168,-46.5672"/>
</g>
<!-- 24&#45;&gt;14 -->
<g id="edge19" class="edge">
<title>24&#45;&gt;14</title>
<path fill="none" stroke="#c0c0c0" stroke-width="2" d="M776.911,-143.8314C772.6683,-135.7925 767.5879,-126.1666 762.904,-117.2918"/>
<polygon fill="#c0c0c0" stroke="#c0c0c0" stroke-width="2" points="765.9811,-115.6235 758.2181,-108.4133 759.7904,-118.8908 765.9811,-115.6235"/>
</g>
<!-- 25 -->
<g id="node26" class="node">
<title>25</title>
<path fill="none" stroke="#56d87b" stroke-width="2" d="M984,-108C984,-108 865,-108 865,-108 859,-108 853,-102 853,-96 853,-96 853,-84 853,-84 853,-78 859,-72 865,-72 865,-72 984,-72 984,-72 990,-72 996,-78 996,-84 996,-84 996,-96 996,-96 996,-102 990,-108 984,-108"/>
<text text-anchor="middle" x="924.5" y="-87.5" font-family="sans" font-size="10.00" fill="#000000">correlate_clusters_to_mtp</text>
</g>
<!-- 24&#45;&gt;25 -->
<g id="edge34" class="edge">
<title>24&#45;&gt;25</title>
<path fill="none" stroke="#c0c0c0" stroke-width="2" d="M819.2041,-144.937C837.5896,-135.3446 860.7814,-123.2445 880.7168,-112.8434"/>
<polygon fill="#c0c0c0" stroke="#c0c0c0" stroke-width="2" points="882.3714,-115.9279 889.6183,-108.1992 879.1334,-109.7218 882.3714,-115.9279"/>
</g>
<!-- 26 -->
<g id="node27" class="node">
<title>26</title>
<path fill="none" stroke="#56d882" stroke-width="2" d="M1058.5,-108C1058.5,-108 1026.5,-108 1026.5,-108 1020.5,-108 1014.5,-102 1014.5,-96 1014.5,-96 1014.5,-84 1014.5,-84 1014.5,-78 1020.5,-72 1026.5,-72 1026.5,-72 1058.5,-72 1058.5,-72 1064.5,-72 1070.5,-78 1070.5,-84 1070.5,-84 1070.5,-96 1070.5,-96 1070.5,-102 1064.5,-108 1058.5,-108"/>
<text text-anchor="middle" x="1042.5" y="-87.5" font-family="sans" font-size="10.00" fill="#000000">cali_pca</text>
</g>
<!-- 24&#45;&gt;26 -->
<g id="edge36" class="edge">
<title>24&#45;&gt;26</title>
<path fill="none" stroke="#c0c0c0" stroke-width="2" d="M819.0465,-156.2074C860.5215,-148.3459 934.3653,-132.7394 1004.9934,-107.8023"/>
<polygon fill="#c0c0c0" stroke="#c0c0c0" stroke-width="2" points="1006.2598,-111.0663 1014.4839,-104.3868 1003.8894,-104.4799 1006.2598,-111.0663"/>
</g>
<!-- 25&#45;&gt;9 -->
<g id="edge12" class="edge">
<title>25&#45;&gt;9</title>
<path fill="none" stroke="#c0c0c0" stroke-width="2" d="M899.2658,-71.8314C886.712,-62.7927 871.3717,-51.7476 857.8609,-42.0198"/>
<polygon fill="#c0c0c0" stroke="#c0c0c0" stroke-width="2" points="859.8866,-39.1655 849.7261,-36.1628 855.7964,-44.8463 859.8866,-39.1655"/>
</g>
<!-- 26&#45;&gt;9 -->
<g id="edge13" class="edge">
<title>26&#45;&gt;9</title>
<path fill="none" stroke="#c0c0c0" stroke-width="2" d="M1014.4291,-75.759C1011.4439,-74.4208 1008.4289,-73.1406 1005.5,-72 971.5769,-58.7895 933.0374,-46.8815 900.2649,-37.6307"/>
<polygon fill="#c0c0c0" stroke="#c0c0c0" stroke-width="2" points="900.8635,-34.1641 890.2907,-34.8466 898.9815,-40.9064 900.8635,-34.1641"/>
</g>
<!-- 26&#45;&gt;11 -->
<g id="edge16" class="edge">
<title>26&#45;&gt;11</title>
<path fill="none" stroke="#c0c0c0" stroke-width="2" d="M1039.9766,-71.8314C1038.9071,-64.131 1037.6353,-54.9743 1036.4468,-46.4166"/>
<polygon fill="#c0c0c0" stroke="#c0c0c0" stroke-width="2" points="1039.8999,-45.8367 1035.0574,-36.4133 1032.9664,-46.7997 1039.8999,-45.8367"/>
</g>
<!-- 26&#45;&gt;15 -->
<g id="edge21" class="edge">
<title>26&#45;&gt;15</title>
<path fill="none" stroke="#c0c0c0" stroke-width="2" d="M1070.564,-73.3008C1086.4968,-63.8201 1106.6907,-51.8039 1124.1815,-41.3962"/>
<polygon fill="#c0c0c0" stroke="#c0c0c0" stroke-width="2" points="1126.2408,-44.2436 1133.0447,-36.1222 1122.6613,-38.228 1126.2408,-44.2436"/>
</g>
<!-- 27 -->
<g id="node28" class="node">
<title>27</title>
<path fill="none" stroke="#59d856" stroke-width="2" d="M1118,-180C1118,-180 1023,-180 1023,-180 1017,-180 1011,-174 1011,-168 1011,-168 1011,-156 1011,-156 1011,-150 1017,-144 1023,-144 1023,-144 1118,-144 1118,-144 1124,-144 1130,-150 1130,-156 1130,-156 1130,-168 1130,-168 1130,-174 1124,-180 1118,-180"/>
<text text-anchor="middle" x="1070.5" y="-159.5" font-family="sans" font-size="10.00" fill="#000000">tidy_phenotype_data</text>
</g>
<!-- 27&#45;&gt;11 -->
<g id="edge15" class="edge">
<title>27&#45;&gt;11</title>
<path fill="none" stroke="#c0c0c0" stroke-width="2" d="M1076.9591,-143.7989C1082.5169,-125.1706 1088.3611,-95.678 1079.5,-72 1075.6046,-61.5911 1068.6959,-51.8652 1061.3544,-43.6152"/>
<polygon fill="#c0c0c0" stroke="#c0c0c0" stroke-width="2" points="1063.7014,-41.0048 1054.2672,-36.1835 1058.6357,-45.8358 1063.7014,-41.0048"/>
</g>
<!-- 27&#45;&gt;15 -->
<g id="edge20" class="edge">
<title>27&#45;&gt;15</title>
<path fill="none" stroke="#c0c0c0" stroke-width="2" d="M1082.2785,-143.7623C1098.4205,-118.7682 1127.532,-73.6924 1146.1653,-44.8409"/>
<polygon fill="#c0c0c0" stroke="#c0c0c0" stroke-width="2" points="1149.332,-46.3889 1151.8171,-36.0896 1143.4517,-42.5912 1149.332,-46.3889"/>
</g>
<!-- 27&#45;&gt;25 -->
<g id="edge35" class="edge">
<title>27&#45;&gt;25</title>
<path fill="none" stroke="#c0c0c0" stroke-width="2" d="M1033.658,-143.8314C1014.3918,-134.3302 990.6301,-122.6121 970.2008,-112.5374"/>
<polygon fill="#c0c0c0" stroke="#c0c0c0" stroke-width="2" points="971.5938,-109.3219 961.077,-108.038 968.4977,-115.6 971.5938,-109.3219"/>
</g>
<!-- 27&#45;&gt;26 -->
<g id="edge37" class="edge">
<title>27&#45;&gt;26</title>
<path fill="none" stroke="#c0c0c0" stroke-width="2" d="M1063.4344,-143.8314C1060.374,-135.9617 1056.7221,-126.5712 1053.3318,-117.8533"/>
<polygon fill="#c0c0c0" stroke="#c0c0c0" stroke-width="2" points="1056.5473,-116.4647 1049.6607,-108.4133 1050.0232,-119.0019 1056.5473,-116.4647"/>
</g>
<!-- 28&#45;&gt;12 -->
<g id="edge17" class="edge">
<title>28&#45;&gt;12</title>
<path fill="none" stroke="#c0c0c0" stroke-width="2" d="M311.5,-71.8314C311.5,-64.131 311.5,-54.9743 311.5,-46.4166"/>
<polygon fill="#c0c0c0" stroke="#c0c0c0" stroke-width="2" points="315.0001,-46.4132 311.5,-36.4133 308.0001,-46.4133 315.0001,-46.4132"/>
</g>
<!-- 29&#45;&gt;13 -->
<g id="edge18" class="edge">
<title>29&#45;&gt;13</title>
<path fill="none" stroke="#c0c0c0" stroke-width="2" d="M159.322,-215.8314C150.1412,-207.1337 138.9994,-196.5783 129.0224,-187.1265"/>
<polygon fill="#c0c0c0" stroke="#c0c0c0" stroke-width="2" points="131.3385,-184.4995 121.6719,-180.1628 126.5243,-189.5811 131.3385,-184.4995"/>
</g>
<!-- 29&#45;&gt;16 -->
<g id="edge22" class="edge">
<title>29&#45;&gt;16</title>
<path fill="none" stroke="#c0c0c0" stroke-width="2" d="M185.3132,-215.8314C188.2644,-207.9617 191.7858,-198.5712 195.055,-189.8533"/>
<polygon fill="#c0c0c0" stroke="#c0c0c0" stroke-width="2" points="198.3609,-191.0055 198.595,-180.4133 191.8066,-188.5476 198.3609,-191.0055"/>
</g>
<!-- 30 -->
<g id="node31" class="node">
<title>30</title>
<path fill="none" stroke="#56b9d8" stroke-width="2" d="M600,-540C600,-540 525,-540 525,-540 519,-540 513,-534 513,-528 513,-528 513,-516 513,-516 513,-510 519,-504 525,-504 525,-504 600,-504 600,-504 606,-504 612,-510 612,-516 612,-516 612,-528 612,-528 612,-534 606,-540 600,-540"/>
<text text-anchor="middle" x="562.5" y="-519.5" font-family="sans" font-size="10.00" fill="#000000">second_mapping</text>
</g>
<!-- 30&#45;&gt;18 -->
<g id="edge24" class="edge">
<title>30&#45;&gt;18</title>
<path fill="none" stroke="#c0c0c0" stroke-width="2" d="M563.5094,-503.8314C563.9372,-496.131 564.4459,-486.9743 564.9213,-478.4166"/>
<polygon fill="#c0c0c0" stroke="#c0c0c0" stroke-width="2" points="568.4169,-478.592 565.477,-468.4133 561.4276,-478.2037 568.4169,-478.592"/>
</g>
<!-- 30&#45;&gt;21 -->
<g id="edge25" class="edge">
<title>30&#45;&gt;21</title>
<path fill="none" stroke="#c0c0c0" stroke-width="2" d="M512.8361,-509.5408C468.0717,-498.3107 401.6131,-481.6381 350.3992,-468.79"/>
<polygon fill="#c0c0c0" stroke="#c0c0c0" stroke-width="2" points="351.2481,-465.3946 340.6969,-466.356 349.5447,-472.1842 351.2481,-465.3946"/>
</g>
<!-- 38 -->
<g id="node39" class="node">
<title>38</title>
<path fill="none" stroke="#56d8a9" stroke-width="2" d="M732.5,-468C732.5,-468 650.5,-468 650.5,-468 644.5,-468 638.5,-462 638.5,-456 638.5,-456 638.5,-444 638.5,-444 638.5,-438 644.5,-432 650.5,-432 650.5,-432 732.5,-432 732.5,-432 738.5,-432 744.5,-438 744.5,-444 744.5,-444 744.5,-456 744.5,-456 744.5,-462 738.5,-468 732.5,-468"/>
<text text-anchor="middle" x="691.5" y="-447.5" font-family="sans" font-size="10.00" fill="#000000">count_background</text>
</g>
<!-- 30&#45;&gt;38 -->
<g id="edge58" class="edge">
<title>30&#45;&gt;38</title>
<path fill="none" stroke="#c0c0c0" stroke-width="2" d="M595.0521,-503.8314C611.7048,-494.5368 632.1585,-483.1208 649.9385,-473.1971"/>
<polygon fill="#c0c0c0" stroke="#c0c0c0" stroke-width="2" points="651.9321,-476.0927 658.9583,-468.1628 648.5205,-469.9803 651.9321,-476.0927"/>
</g>
<!-- 31&#45;&gt;22 -->
<g id="edge26" class="edge">
<title>31&#45;&gt;22</title>
<path fill="none" stroke="#c0c0c0" stroke-width="2" d="M525.257,-215.8314C525.5779,-208.131 525.9594,-198.9743 526.316,-190.4166"/>
<polygon fill="#c0c0c0" stroke="#c0c0c0" stroke-width="2" points="529.8133,-190.5503 526.7328,-180.4133 522.8194,-190.2589 529.8133,-190.5503"/>
</g>
<!-- 31&#45;&gt;24 -->
<g id="edge33" class="edge">
<title>31&#45;&gt;24</title>
<path fill="none" stroke="#c0c0c0" stroke-width="2" d="M553.5396,-226.0196C599.7257,-213.3273 690.1632,-188.4742 743.7572,-173.7461"/>
<polygon fill="#c0c0c0" stroke="#c0c0c0" stroke-width="2" points="744.9236,-177.0554 753.6387,-171.0306 743.0687,-170.3056 744.9236,-177.0554"/>
</g>
<!-- 32 -->
<g id="node33" class="node">
<title>32</title>
<path fill="none" stroke="#5663d8" stroke-width="2" d="M779.5,-396C779.5,-396 645.5,-396 645.5,-396 639.5,-396 633.5,-390 633.5,-384 633.5,-384 633.5,-372 633.5,-372 633.5,-366 639.5,-360 645.5,-360 645.5,-360 779.5,-360 779.5,-360 785.5,-360 791.5,-366 791.5,-372 791.5,-372 791.5,-384 791.5,-384 791.5,-390 785.5,-396 779.5,-396"/>
<text text-anchor="middle" x="712.5" y="-375.5" font-family="sans" font-size="10.00" fill="#000000">combine_background_counts</text>
</g>
<!-- 32&#45;&gt;23 -->
<g id="edge30" class="edge">
<title>32&#45;&gt;23</title>
<path fill="none" stroke="#c0c0c0" stroke-width="2" d="M633.4735,-360.7416C588.0159,-350.5699 529.8983,-337.1506 478.5,-324 477.242,-323.6781 475.971,-323.3498 474.6906,-323.0162"/>
<polygon fill="#c0c0c0" stroke="#c0c0c0" stroke-width="2" points="475.3115,-319.5598 464.748,-320.3748 473.5141,-326.3251 475.3115,-319.5598"/>
</g>
<!-- 33 -->
<g id="node34" class="node">
<title>33</title>
<path fill="none" stroke="#56d0d8" stroke-width="2" d="M490,-468C490,-468 371,-468 371,-468 365,-468 359,-462 359,-456 359,-456 359,-444 359,-444 359,-438 365,-432 371,-432 371,-432 490,-432 490,-432 496,-432 502,-438 502,-444 502,-444 502,-456 502,-456 502,-462 496,-468 490,-468"/>
<text text-anchor="middle" x="430.5" y="-447.5" font-family="sans" font-size="10.00" fill="#000000">calculate_feature_lengths</text>
</g>
<!-- 33&#45;&gt;23 -->
<g id="edge29" class="edge">
<title>33&#45;&gt;23</title>
<path fill="none" stroke="#c0c0c0" stroke-width="2" d="M418.3183,-431.882C412.2685,-421.7891 405.6022,-408.7221 402.5,-396 397.5053,-375.5168 401.0053,-351.87 405.487,-333.9566"/>
<polygon fill="#c0c0c0" stroke="#c0c0c0" stroke-width="2" points="408.9099,-334.7091 408.1824,-324.1392 402.1597,-332.8557 408.9099,-334.7091"/>
</g>
<!-- 33&#45;&gt;34 -->
<g id="edge52" class="edge">
<title>33&#45;&gt;34</title>
<path fill="none" stroke="#c0c0c0" stroke-width="2" d="M436.5562,-431.8314C439.1512,-424.0463 442.2424,-414.7729 445.1218,-406.1347"/>
<polygon fill="#c0c0c0" stroke="#c0c0c0" stroke-width="2" points="448.5203,-407.0069 448.3622,-396.4133 441.8795,-404.7933 448.5203,-407.0069"/>
</g>
<!-- 34&#45;&gt;23 -->
<g id="edge31" class="edge">
<title>34&#45;&gt;23</title>
<path fill="none" stroke="#c0c0c0" stroke-width="2" d="M444.4063,-359.8314C439.9403,-351.7925 434.5925,-342.1666 429.6621,-333.2918"/>
<polygon fill="#c0c0c0" stroke="#c0c0c0" stroke-width="2" points="432.6456,-331.4551 424.7296,-324.4133 426.5265,-334.8546 432.6456,-331.4551"/>
</g>
<!-- 35 -->
<g id="node36" class="node">
<title>35</title>
<path fill="none" stroke="#88d856" stroke-width="2" d="M519.5,-684C519.5,-684 489.5,-684 489.5,-684 483.5,-684 477.5,-678 477.5,-672 477.5,-672 477.5,-660 477.5,-660 477.5,-654 483.5,-648 489.5,-648 489.5,-648 519.5,-648 519.5,-648 525.5,-648 531.5,-654 531.5,-660 531.5,-660 531.5,-672 531.5,-672 531.5,-678 525.5,-684 519.5,-684"/>
<text text-anchor="middle" x="504.5" y="-663.5" font-family="sans" font-size="10.00" fill="#000000">gzip</text>
</g>
<!-- 35&#45;&gt;30 -->
<g id="edge44" class="edge">
<title>35&#45;&gt;30</title>
<path fill="none" stroke="#c0c0c0" stroke-width="2" d="M501.296,-647.8869C498.8176,-629.069 497.313,-599.1875 507.5,-576 512.329,-565.0082 520.5286,-555.0883 529.1432,-546.8391"/>
<polygon fill="#c0c0c0" stroke="#c0c0c0" stroke-width="2" points="531.6285,-549.3118 536.746,-540.0349 526.9603,-544.0957 531.6285,-549.3118"/>
</g>
<!-- 37 -->
<g id="node38" class="node">
<title>37</title>
<path fill="none" stroke="#68d856" stroke-width="2" d="M588.5,-612C588.5,-612 528.5,-612 528.5,-612 522.5,-612 516.5,-606 516.5,-600 516.5,-600 516.5,-588 516.5,-588 516.5,-582 522.5,-576 528.5,-576 528.5,-576 588.5,-576 588.5,-576 594.5,-576 600.5,-582 600.5,-588 600.5,-588 600.5,-600 600.5,-600 600.5,-606 594.5,-612 588.5,-612"/>
<text text-anchor="middle" x="558.5" y="-591.5" font-family="sans" font-size="10.00" fill="#000000">first_mapping</text>
</g>
<!-- 35&#45;&gt;37 -->
<g id="edge56" class="edge">
<title>35&#45;&gt;37</title>
<path fill="none" stroke="#c0c0c0" stroke-width="2" d="M518.1265,-647.8314C524.346,-639.5386 531.8322,-629.557 538.66,-620.4533"/>
<polygon fill="#c0c0c0" stroke="#c0c0c0" stroke-width="2" points="541.49,-622.5133 544.69,-612.4133 535.89,-618.3133 541.49,-622.5133"/>
</g>
<!-- 36 -->
<g id="node37" class="node">
<title>36</title>
<path fill="none" stroke="#56d873" stroke-width="2" d="M651,-684C651,-684 570,-684 570,-684 564,-684 558,-678 558,-672 558,-672 558,-660 558,-660 558,-654 564,-648 570,-648 570,-648 651,-648 651,-648 657,-648 663,-654 663,-660 663,-660 663,-672 663,-672 663,-678 657,-684 651,-684"/>
<text text-anchor="middle" x="610.5" y="-663.5" font-family="sans" font-size="10.00" fill="#000000">generate_genome</text>
</g>
<!-- 36&#45;&gt;30 -->
<g id="edge42" class="edge">
<title>36&#45;&gt;30</title>
<path fill="none" stroke="#c0c0c0" stroke-width="2" d="M613.886,-647.7306C616.537,-629.0478 618.4485,-599.5125 609.5,-576 605.5468,-565.6129 598.6208,-555.8936 591.281,-547.6429"/>
<polygon fill="#c0c0c0" stroke="#c0c0c0" stroke-width="2" points="593.6318,-545.0362 584.2007,-540.2086 588.5628,-549.8638 593.6318,-545.0362"/>
</g>
<!-- 36&#45;&gt;37 -->
<g id="edge55" class="edge">
<title>36&#45;&gt;37</title>
<path fill="none" stroke="#c0c0c0" stroke-width="2" d="M597.3782,-647.8314C591.4501,-639.6232 584.3271,-629.7606 577.8067,-620.7323"/>
<polygon fill="#c0c0c0" stroke="#c0c0c0" stroke-width="2" points="580.4908,-618.4708 571.7985,-612.4133 574.816,-622.5693 580.4908,-618.4708"/>
</g>
<!-- 41 -->
<g id="node42" class="node">
<title>41</title>
<path fill="none" stroke="#568ad8" stroke-width="2" d="M714,-612C714,-612 669,-612 669,-612 663,-612 657,-606 657,-600 657,-600 657,-588 657,-588 657,-582 663,-576 669,-576 669,-576 714,-576 714,-576 720,-576 726,-582 726,-588 726,-588 726,-600 726,-600 726,-606 720,-612 714,-612"/>
<text text-anchor="middle" x="691.5" y="-591.5" font-family="sans" font-size="10.00" fill="#000000">shuffle_gtf</text>
</g>
<!-- 36&#45;&gt;41 -->
<g id="edge60" class="edge">
<title>36&#45;&gt;41</title>
<path fill="none" stroke="#c0c0c0" stroke-width="2" d="M630.9397,-647.8314C640.8205,-639.0485 652.8324,-628.3712 663.545,-618.8489"/>
<polygon fill="#c0c0c0" stroke="#c0c0c0" stroke-width="2" points="665.918,-621.4224 671.0668,-612.1628 661.2674,-616.1906 665.918,-621.4224"/>
</g>
<!-- 37&#45;&gt;30 -->
<g id="edge43" class="edge">
<title>37&#45;&gt;30</title>
<path fill="none" stroke="#c0c0c0" stroke-width="2" d="M559.5094,-575.8314C559.9372,-568.131 560.4459,-558.9743 560.9213,-550.4166"/>
<polygon fill="#c0c0c0" stroke="#c0c0c0" stroke-width="2" points="564.4169,-550.592 561.477,-540.4133 557.4276,-550.2037 564.4169,-550.592"/>
</g>
<!-- 38&#45;&gt;32 -->
<g id="edge48" class="edge">
<title>38&#45;&gt;32</title>
<path fill="none" stroke="#c0c0c0" stroke-width="2" d="M696.7992,-431.8314C699.0698,-424.0463 701.7746,-414.7729 704.294,-406.1347"/>
<polygon fill="#c0c0c0" stroke="#c0c0c0" stroke-width="2" points="707.6894,-406.9933 707.1295,-396.4133 700.9694,-405.0332 707.6894,-406.9933"/>
</g>
<!-- 39 -->
<g id="node40" class="node">
<title>39</title>
<path fill="none" stroke="#56a9d8" stroke-width="2" d="M638,-756C638,-756 583,-756 583,-756 577,-756 571,-750 571,-744 571,-744 571,-732 571,-732 571,-726 577,-720 583,-720 583,-720 638,-720 638,-720 644,-720 650,-726 650,-732 650,-732 650,-744 650,-744 650,-750 644,-756 638,-756"/>
<text text-anchor="middle" x="610.5" y="-735.5" font-family="sans" font-size="10.00" fill="#000000">generate_gtf</text>
</g>
<!-- 39&#45;&gt;33 -->
<g id="edge49" class="edge">
<title>39&#45;&gt;33</title>
<path fill="none" stroke="#c0c0c0" stroke-width="2" d="M570.8472,-727.714C533.6455,-717.2508 481.7947,-700.3 468.5,-684 419.6477,-624.1044 422.0203,-526.1602 426.752,-478.2232"/>
<polygon fill="#c0c0c0" stroke="#c0c0c0" stroke-width="2" points="430.2354,-478.5646 427.8449,-468.243 423.277,-477.8025 430.2354,-478.5646"/>
</g>
<!-- 39&#45;&gt;36 -->
<g id="edge54" class="edge">
<title>39&#45;&gt;36</title>
<path fill="none" stroke="#c0c0c0" stroke-width="2" d="M610.5,-719.8314C610.5,-712.131 610.5,-702.9743 610.5,-694.4166"/>
<polygon fill="#c0c0c0" stroke="#c0c0c0" stroke-width="2" points="614.0001,-694.4132 610.5,-684.4133 607.0001,-694.4133 614.0001,-694.4132"/>
</g>
<!-- 39&#45;&gt;41 -->
<g id="edge61" class="edge">
<title>39&#45;&gt;41</title>
<path fill="none" stroke="#c0c0c0" stroke-width="2" d="M638.6393,-719.7818C650.8292,-710.4882 664.1852,-698.1536 672.5,-684 683.5219,-665.2384 688.1934,-640.952 690.1523,-622.3372"/>
<polygon fill="#c0c0c0" stroke="#c0c0c0" stroke-width="2" points="693.6613,-622.3772 691.0196,-612.117 686.6864,-621.7852 693.6613,-622.3772"/>
</g>
<!-- 40 -->
<g id="node41" class="node">
<title>40</title>
<path fill="none" stroke="#d8a456" stroke-width="2" d="M522,-756C522,-756 487,-756 487,-756 481,-756 475,-750 475,-744 475,-744 475,-732 475,-732 475,-726 481,-720 487,-720 487,-720 522,-720 522,-720 528,-720 534,-726 534,-732 534,-732 534,-744 534,-744 534,-750 528,-756 522,-756"/>
<text text-anchor="middle" x="504.5" y="-735.5" font-family="sans" font-size="10.00" fill="#000000">cutadapt</text>
</g>
<!-- 40&#45;&gt;35 -->
<g id="edge53" class="edge">
<title>40&#45;&gt;35</title>
<path fill="none" stroke="#c0c0c0" stroke-width="2" d="M504.5,-719.8314C504.5,-712.131 504.5,-702.9743 504.5,-694.4166"/>
<polygon fill="#c0c0c0" stroke="#c0c0c0" stroke-width="2" points="508.0001,-694.4132 504.5,-684.4133 501.0001,-694.4133 508.0001,-694.4132"/>
</g>
<!-- 41&#45;&gt;38 -->
<g id="edge57" class="edge">
<title>41&#45;&gt;38</title>
<path fill="none" stroke="#c0c0c0" stroke-width="2" d="M691.5,-575.7623C691.5,-551.201 691.5,-507.2474 691.5,-478.3541"/>
<polygon fill="#c0c0c0" stroke="#c0c0c0" stroke-width="2" points="695.0001,-478.0896 691.5,-468.0896 688.0001,-478.0897 695.0001,-478.0896"/>
</g>
<!-- 42 -->
<g id="node43" class="node">
<title>42</title>
<path fill="none" stroke="#bed856" stroke-width="2" d="M519.5,-828C519.5,-828 489.5,-828 489.5,-828 483.5,-828 477.5,-822 477.5,-816 477.5,-816 477.5,-804 477.5,-804 477.5,-798 483.5,-792 489.5,-792 489.5,-792 519.5,-792 519.5,-792 525.5,-792 531.5,-798 531.5,-804 531.5,-804 531.5,-816 531.5,-816 531.5,-822 525.5,-828 519.5,-828"/>
<text text-anchor="middle" x="504.5" y="-807.5" font-family="sans" font-size="10.00" fill="#000000">repair</text>
</g>
<!-- 42&#45;&gt;40 -->
<g id="edge59" class="edge">
<title>42&#45;&gt;40</title>
<path fill="none" stroke="#c0c0c0" stroke-width="2" d="M504.5,-791.8314C504.5,-784.131 504.5,-774.9743 504.5,-766.4166"/>
<polygon fill="#c0c0c0" stroke="#c0c0c0" stroke-width="2" points="508.0001,-766.4132 504.5,-756.4133 501.0001,-766.4133 508.0001,-766.4132"/>
</g>
</g>
</svg>
