<?xml version="1.0" encoding="UTF-8" standalone="no"?>
<!DOCTYPE svg PUBLIC "-//W3C//DTD SVG 1.1//EN"
 "http://www.w3.org/Graphics/SVG/1.1/DTD/svg11.dtd">
<!-- Generated by graphviz version 2.40.1 (20161225.0304)
 -->
<!-- Title: snakemake_dag Pages: 1 -->
<svg width="964pt" height="836pt"
 viewBox="0.00 0.00 963.50 836.00" xmlns="http://www.w3.org/2000/svg" xmlns:xlink="http://www.w3.org/1999/xlink">
<g id="graph0" class="graph" transform="scale(1 1) rotate(0) translate(4 832)">
<title>snakemake_dag</title>
<polygon fill="#ffffff" stroke="transparent" points="-4,4 -4,-832 959.5,-832 959.5,4 -4,4"/>
<!-- 0 -->
<g id="node1" class="node">
<title>0</title>
<path fill="none" stroke="#56d8b1" stroke-width="2" d="M83,-108C83,-108 12,-108 12,-108 6,-108 0,-102 0,-96 0,-96 0,-84 0,-84 0,-78 6,-72 12,-72 12,-72 83,-72 83,-72 89,-72 95,-78 95,-84 95,-84 95,-96 95,-96 95,-102 89,-108 83,-108"/>
<text text-anchor="middle" x="47.5" y="-87.5" font-family="sans" font-size="10.00" fill="#000000">de_genes_stage</text>
</g>
<!-- 1 -->
<g id="node2" class="node">
<title>1</title>
<path fill="none" stroke="#d88d56" stroke-width="2" d="M517.5,-108C517.5,-108 445.5,-108 445.5,-108 439.5,-108 433.5,-102 433.5,-96 433.5,-96 433.5,-84 433.5,-84 433.5,-78 439.5,-72 445.5,-72 445.5,-72 517.5,-72 517.5,-72 523.5,-72 529.5,-78 529.5,-84 529.5,-84 529.5,-96 529.5,-96 529.5,-102 523.5,-108 517.5,-108"/>
<text text-anchor="middle" x="481.5" y="-87.5" font-family="sans" font-size="10.00" fill="#000000">clustered_genes</text>
</g>
<!-- 2 -->
<g id="node3" class="node">
<title>2</title>
<path fill="none" stroke="#bed856" stroke-width="2" d="M673,-36C673,-36 566,-36 566,-36 560,-36 554,-30 554,-24 554,-24 554,-12 554,-12 554,-6 560,0 566,0 566,0 673,0 673,0 679,0 685,-6 685,-12 685,-12 685,-24 685,-24 685,-30 679,-36 673,-36"/>
<text text-anchor="middle" x="619.5" y="-15.5" font-family="sans" font-size="10.00" fill="#000000">cluster_phenotype_corr</text>
</g>
<!-- 3 -->
<g id="node4" class="node">
<title>3</title>
<path fill="none" stroke="#c6d856" stroke-width="2" d="M188,-108C188,-108 139,-108 139,-108 133,-108 127,-102 127,-96 127,-96 127,-84 127,-84 127,-78 133,-72 139,-72 139,-72 188,-72 188,-72 194,-72 200,-78 200,-84 200,-84 200,-96 200,-96 200,-102 194,-108 188,-108"/>
<text text-anchor="middle" x="163.5" y="-87.5" font-family="sans" font-size="10.00" fill="#000000">dom_genes</text>
</g>
<!-- 4 -->
<g id="node5" class="node">
<title>4</title>
<path fill="none" stroke="#56d86b" stroke-width="2" d="M791.5,-828C791.5,-828 717.5,-828 717.5,-828 711.5,-828 705.5,-822 705.5,-816 705.5,-816 705.5,-804 705.5,-804 705.5,-798 711.5,-792 717.5,-792 717.5,-792 791.5,-792 791.5,-792 797.5,-792 803.5,-798 803.5,-804 803.5,-804 803.5,-816 803.5,-816 803.5,-822 797.5,-828 791.5,-828"/>
<text text-anchor="middle" x="754.5" y="-807.5" font-family="sans" font-size="10.00" fill="#000000">panicle_mutants</text>
</g>
<!-- 5 -->
<g id="node6" class="node">
<title>5</title>
<path fill="none" stroke="#70d856" stroke-width="2" d="M327,-108C327,-108 230,-108 230,-108 224,-108 218,-102 218,-96 218,-96 218,-84 218,-84 218,-78 224,-72 230,-72 230,-72 327,-72 327,-72 333,-72 339,-78 339,-84 339,-84 339,-96 339,-96 339,-102 333,-108 327,-108"/>
<text text-anchor="middle" x="278.5" y="-87.5" font-family="sans" font-size="10.00" fill="#000000">de_genes_interaction</text>
</g>
<!-- 6 -->
<g id="node7" class="node">
<title>6</title>
<path fill="none" stroke="#59d856" stroke-width="2" d="M768,-396C768,-396 731,-396 731,-396 725,-396 719,-390 719,-384 719,-384 719,-372 719,-372 719,-366 725,-360 731,-360 731,-360 768,-360 768,-360 774,-360 780,-366 780,-372 780,-372 780,-384 780,-384 780,-390 774,-396 768,-396"/>
<text text-anchor="middle" x="749.5" y="-375.5" font-family="sans" font-size="10.00" fill="#000000">star_logs</text>
</g>
<!-- 7 -->
<g id="node8" class="node">
<title>7</title>
<path fill="none" stroke="#8fd856" stroke-width="2" d="M911,-828C911,-828 834,-828 834,-828 828,-828 822,-822 822,-816 822,-816 822,-804 822,-804 822,-798 828,-792 834,-792 834,-792 911,-792 911,-792 917,-792 923,-798 923,-804 923,-804 923,-816 923,-816 923,-822 917,-828 911,-828"/>
<text text-anchor="middle" x="872.5" y="-807.5" font-family="sans" font-size="10.00" fill="#000000">phenotyping_mpl</text>
</g>
<!-- 8 -->
<g id="node9" class="node">
<title>8</title>
<path fill="none" stroke="#5692d8" stroke-width="2" d="M414.5,-324C414.5,-324 322.5,-324 322.5,-324 316.5,-324 310.5,-318 310.5,-312 310.5,-312 310.5,-300 310.5,-300 310.5,-294 316.5,-288 322.5,-288 322.5,-288 414.5,-288 414.5,-288 420.5,-288 426.5,-294 426.5,-300 426.5,-300 426.5,-312 426.5,-312 426.5,-318 420.5,-324 414.5,-324"/>
<text text-anchor="middle" x="368.5" y="-303.5" font-family="sans" font-size="10.00" fill="#000000">mads_ap2_heatmap</text>
</g>
<!-- 9 -->
<g id="node10" class="node">
<title>9</title>
<path fill="none" stroke="#78d856" stroke-width="2" d="M192,-180C192,-180 109,-180 109,-180 103,-180 97,-174 97,-168 97,-168 97,-156 97,-156 97,-150 103,-144 109,-144 109,-144 192,-144 192,-144 198,-144 204,-150 204,-156 204,-156 204,-168 204,-168 204,-174 198,-180 192,-180"/>
<text text-anchor="middle" x="150.5" y="-159.5" font-family="sans" font-size="10.00" fill="#000000">distance_heatmap</text>
</g>
<!-- 10 -->
<g id="node11" class="node">
<title>10</title>
<path fill="none" stroke="#566bd8" stroke-width="2" d="M837,-36C837,-36 770,-36 770,-36 764,-36 758,-30 758,-24 758,-24 758,-12 758,-12 758,-6 764,0 770,0 770,0 837,0 837,0 843,0 849,-6 849,-12 849,-12 849,-24 849,-24 849,-30 843,-36 837,-36"/>
<text text-anchor="middle" x="803.5" y="-15.5" font-family="sans" font-size="10.00" fill="#000000">phenotype_pca</text>
</g>
<!-- 11 -->
<g id="node12" class="node">
<title>11</title>
<path fill="none" stroke="#d8d356" stroke-width="2" d="M280,-324C280,-324 197,-324 197,-324 191,-324 185,-318 185,-312 185,-312 185,-300 185,-300 185,-294 191,-288 197,-288 197,-288 280,-288 280,-288 286,-288 292,-294 292,-300 292,-300 292,-312 292,-312 292,-318 286,-324 280,-324"/>
<text text-anchor="middle" x="238.5" y="-303.5" font-family="sans" font-size="10.00" fill="#000000">transcriptome_pca</text>
</g>
<!-- 12 -->
<g id="node13" class="node">
<title>12</title>
<path fill="none" stroke="#d8c356" stroke-width="2" d="M67,-180C67,-180 28,-180 28,-180 22,-180 16,-174 16,-168 16,-168 16,-156 16,-156 16,-150 22,-144 28,-144 28,-144 67,-144 67,-144 73,-144 79,-150 79,-156 79,-156 79,-168 79,-168 79,-174 73,-180 67,-180"/>
<text text-anchor="middle" x="47.5" y="-159.5" font-family="sans" font-size="10.00" fill="#000000">deseq_all</text>
</g>
<!-- 12&#45;&gt;0 -->
<g id="edge1" class="edge">
<title>12&#45;&gt;0</title>
<path fill="none" stroke="#c0c0c0" stroke-width="2" d="M47.5,-143.8314C47.5,-136.131 47.5,-126.9743 47.5,-118.4166"/>
<polygon fill="#c0c0c0" stroke="#c0c0c0" stroke-width="2" points="51.0001,-118.4132 47.5,-108.4133 44.0001,-118.4133 51.0001,-118.4132"/>
</g>
<!-- 13 -->
<g id="node14" class="node">
<title>13</title>
<path fill="none" stroke="#56d8a2" stroke-width="2" d="M509,-180C509,-180 468,-180 468,-180 462,-180 456,-174 456,-168 456,-168 456,-156 456,-156 456,-150 462,-144 468,-144 468,-144 509,-144 509,-144 515,-144 521,-150 521,-156 521,-156 521,-168 521,-168 521,-174 515,-180 509,-180"/>
<text text-anchor="middle" x="488.5" y="-159.5" font-family="sans" font-size="10.00" fill="#000000">mfuzz_tfs</text>
</g>
<!-- 13&#45;&gt;1 -->
<g id="edge2" class="edge">
<title>13&#45;&gt;1</title>
<path fill="none" stroke="#c0c0c0" stroke-width="2" d="M486.7336,-143.8314C485.985,-136.131 485.0947,-126.9743 484.2627,-118.4166"/>
<polygon fill="#c0c0c0" stroke="#c0c0c0" stroke-width="2" points="487.7415,-118.0276 483.2902,-108.4133 480.7744,-118.7051 487.7415,-118.0276"/>
</g>
<!-- 13&#45;&gt;2 -->
<g id="edge4" class="edge">
<title>13&#45;&gt;2</title>
<path fill="none" stroke="#c0c0c0" stroke-width="2" d="M457.0439,-143.9802C444.4688,-134.9479 431.3611,-122.7662 424.5,-108 417.7579,-93.4899 414.8129,-84.7342 424.5,-72 439.2986,-52.5463 495.6316,-38.2855 543.9694,-29.3206"/>
<polygon fill="#c0c0c0" stroke="#c0c0c0" stroke-width="2" points="544.6094,-32.7617 553.8298,-27.5431 543.3675,-25.8727 544.6094,-32.7617"/>
</g>
<!-- 16 -->
<g id="node17" class="node">
<title>16</title>
<path fill="none" stroke="#d85e56" stroke-width="2" d="M791.5,-108C791.5,-108 759.5,-108 759.5,-108 753.5,-108 747.5,-102 747.5,-96 747.5,-96 747.5,-84 747.5,-84 747.5,-78 753.5,-72 759.5,-72 759.5,-72 791.5,-72 791.5,-72 797.5,-72 803.5,-78 803.5,-84 803.5,-84 803.5,-96 803.5,-96 803.5,-102 797.5,-108 791.5,-108"/>
<text text-anchor="middle" x="775.5" y="-87.5" font-family="sans" font-size="10.00" fill="#000000">cali_pca</text>
</g>
<!-- 13&#45;&gt;16 -->
<g id="edge29" class="edge">
<title>13&#45;&gt;16</title>
<path fill="none" stroke="#c0c0c0" stroke-width="2" d="M521.1431,-153.8108C574.5309,-140.4173 680.2612,-113.8927 737.1432,-99.6226"/>
<polygon fill="#c0c0c0" stroke="#c0c0c0" stroke-width="2" points="738.3245,-102.9348 747.1722,-97.1066 736.6211,-96.1452 738.3245,-102.9348"/>
</g>
<!-- 17 -->
<g id="node18" class="node">
<title>17</title>
<path fill="none" stroke="#5663d8" stroke-width="2" d="M679,-108C679,-108 560,-108 560,-108 554,-108 548,-102 548,-96 548,-96 548,-84 548,-84 548,-78 554,-72 560,-72 560,-72 679,-72 679,-72 685,-72 691,-78 691,-84 691,-84 691,-96 691,-96 691,-102 685,-108 679,-108"/>
<text text-anchor="middle" x="619.5" y="-87.5" font-family="sans" font-size="10.00" fill="#000000">correlate_clusters_to_mtp</text>
</g>
<!-- 13&#45;&gt;17 -->
<g id="edge31" class="edge">
<title>13&#45;&gt;17</title>
<path fill="none" stroke="#c0c0c0" stroke-width="2" d="M521.2189,-144.0171C538.3342,-134.6102 559.4729,-122.992 577.7554,-112.9436"/>
<polygon fill="#c0c0c0" stroke="#c0c0c0" stroke-width="2" points="579.6664,-115.8871 586.7442,-108.0032 576.2948,-109.7526 579.6664,-115.8871"/>
</g>
<!-- 14 -->
<g id="node15" class="node">
<title>14</title>
<path fill="none" stroke="#56d8c9" stroke-width="2" d="M654,-324C654,-324 579,-324 579,-324 573,-324 567,-318 567,-312 567,-312 567,-300 567,-300 567,-294 573,-288 579,-288 579,-288 654,-288 654,-288 660,-288 666,-294 666,-300 666,-300 666,-312 666,-312 666,-318 660,-324 654,-324"/>
<text text-anchor="middle" x="616.5" y="-303.5" font-family="sans" font-size="10.00" fill="#000000">calculate_cutoffs</text>
</g>
<!-- 14&#45;&gt;2 -->
<g id="edge5" class="edge">
<title>14&#45;&gt;2</title>
<path fill="none" stroke="#c0c0c0" stroke-width="2" d="M627.0964,-287.9711C646.3155,-254.1059 686.2507,-178.073 700.5,-108 703.6883,-92.3209 708.0497,-86.1068 700.5,-72 693.826,-59.5296 682.8594,-49.4416 671.1199,-41.5111"/>
<polygon fill="#c0c0c0" stroke="#c0c0c0" stroke-width="2" points="672.8204,-38.4466 662.4854,-36.1146 669.1104,-44.3826 672.8204,-38.4466"/>
</g>
<!-- 23 -->
<g id="node24" class="node">
<title>23</title>
<path fill="none" stroke="#56b1d8" stroke-width="2" d="M189,-252C189,-252 104,-252 104,-252 98,-252 92,-246 92,-240 92,-240 92,-228 92,-228 92,-222 98,-216 104,-216 104,-216 189,-216 189,-216 195,-216 201,-222 201,-228 201,-228 201,-240 201,-240 201,-246 195,-252 189,-252"/>
<text text-anchor="middle" x="146.5" y="-231.5" font-family="sans" font-size="10.00" fill="#000000">filter_deseq_object</text>
</g>
<!-- 14&#45;&gt;23 -->
<g id="edge35" class="edge">
<title>14&#45;&gt;23</title>
<path fill="none" stroke="#c0c0c0" stroke-width="2" d="M566.6467,-298.3629C481.0535,-285.2507 306.219,-258.4676 211.2982,-243.9265"/>
<polygon fill="#c0c0c0" stroke="#c0c0c0" stroke-width="2" points="211.6635,-240.4417 201.2488,-242.387 210.6034,-247.361 211.6635,-240.4417"/>
</g>
<!-- 25 -->
<g id="node26" class="node">
<title>25</title>
<path fill="none" stroke="#56d0d8" stroke-width="2" d="M452,-252C452,-252 419,-252 419,-252 413,-252 407,-246 407,-240 407,-240 407,-228 407,-228 407,-222 413,-216 419,-216 419,-216 452,-216 452,-216 458,-216 464,-222 464,-228 464,-228 464,-240 464,-240 464,-246 458,-252 452,-252"/>
<text text-anchor="middle" x="435.5" y="-231.5" font-family="sans" font-size="10.00" fill="#000000">filter_tfs</text>
</g>
<!-- 14&#45;&gt;25 -->
<g id="edge37" class="edge">
<title>14&#45;&gt;25</title>
<path fill="none" stroke="#c0c0c0" stroke-width="2" d="M570.8261,-287.8314C540.8482,-275.9065 502.0913,-260.4894 473.742,-249.2123"/>
<polygon fill="#c0c0c0" stroke="#c0c0c0" stroke-width="2" points="474.7655,-245.8527 464.18,-245.4086 472.1781,-252.357 474.7655,-245.8527"/>
</g>
<!-- 15 -->
<g id="node16" class="node">
<title>15</title>
<path fill="none" stroke="#56c9d8" stroke-width="2" d="M343.5,-180C343.5,-180 303.5,-180 303.5,-180 297.5,-180 291.5,-174 291.5,-168 291.5,-168 291.5,-156 291.5,-156 291.5,-150 297.5,-144 303.5,-144 303.5,-144 343.5,-144 343.5,-144 349.5,-144 355.5,-150 355.5,-156 355.5,-156 355.5,-168 355.5,-168 355.5,-174 349.5,-180 343.5,-180"/>
<text text-anchor="middle" x="323.5" y="-159.5" font-family="sans" font-size="10.00" fill="#000000">deseq_tfs</text>
</g>
<!-- 15&#45;&gt;2 -->
<g id="edge6" class="edge">
<title>15&#45;&gt;2</title>
<path fill="none" stroke="#c0c0c0" stroke-width="2" d="M336.6783,-143.9561C352.6028,-123.4608 381.3002,-90.4742 413.5,-72 453.4954,-49.0532 503.4132,-35.6483 544.0931,-27.9343"/>
<polygon fill="#c0c0c0" stroke="#c0c0c0" stroke-width="2" points="544.7442,-31.3734 553.9564,-26.1401 543.4914,-24.4864 544.7442,-31.3734"/>
</g>
<!-- 15&#45;&gt;3 -->
<g id="edge8" class="edge">
<title>15&#45;&gt;3</title>
<path fill="none" stroke="#c0c0c0" stroke-width="2" d="M291.1216,-147.4297C267.6184,-136.8533 235.4931,-122.3969 209.3544,-110.6345"/>
<polygon fill="#c0c0c0" stroke="#c0c0c0" stroke-width="2" points="210.5779,-107.347 200.0223,-106.4351 207.7053,-113.7305 210.5779,-107.347"/>
</g>
<!-- 15&#45;&gt;5 -->
<g id="edge9" class="edge">
<title>15&#45;&gt;5</title>
<path fill="none" stroke="#c0c0c0" stroke-width="2" d="M312.1446,-143.8314C307.0674,-135.7079 300.9773,-125.9637 295.3824,-117.0118"/>
<polygon fill="#c0c0c0" stroke="#c0c0c0" stroke-width="2" points="298.2763,-115.0383 290.0083,-108.4133 292.3403,-118.7483 298.2763,-115.0383"/>
</g>
<!-- 16&#45;&gt;2 -->
<g id="edge3" class="edge">
<title>16&#45;&gt;2</title>
<path fill="none" stroke="#c0c0c0" stroke-width="2" d="M747.2496,-76.9613C725.1974,-66.7834 694.0399,-52.403 668.0165,-40.3922"/>
<polygon fill="#c0c0c0" stroke="#c0c0c0" stroke-width="2" points="669.2339,-37.0994 658.6876,-36.0866 666.3005,-43.4551 669.2339,-37.0994"/>
</g>
<!-- 16&#45;&gt;10 -->
<g id="edge16" class="edge">
<title>16&#45;&gt;10</title>
<path fill="none" stroke="#c0c0c0" stroke-width="2" d="M782.5656,-71.8314C785.626,-63.9617 789.2779,-54.5712 792.6682,-45.8533"/>
<polygon fill="#c0c0c0" stroke="#c0c0c0" stroke-width="2" points="795.9768,-47.0019 796.3393,-36.4133 789.4527,-44.4647 795.9768,-47.0019"/>
</g>
<!-- 17&#45;&gt;2 -->
<g id="edge7" class="edge">
<title>17&#45;&gt;2</title>
<path fill="none" stroke="#c0c0c0" stroke-width="2" d="M619.5,-71.8314C619.5,-64.131 619.5,-54.9743 619.5,-46.4166"/>
<polygon fill="#c0c0c0" stroke="#c0c0c0" stroke-width="2" points="623.0001,-46.4132 619.5,-36.4133 616.0001,-46.4133 623.0001,-46.4132"/>
</g>
<!-- 18 -->
<g id="node19" class="node">
<title>18</title>
<path fill="none" stroke="#569ad8" stroke-width="2" d="M752,-468C752,-468 683,-468 683,-468 677,-468 671,-462 671,-456 671,-456 671,-444 671,-444 671,-438 677,-432 683,-432 683,-432 752,-432 752,-432 758,-432 764,-438 764,-444 764,-444 764,-456 764,-456 764,-462 758,-468 752,-468"/>
<text text-anchor="middle" x="717.5" y="-447.5" font-family="sans" font-size="10.00" fill="#000000">parse_star_logs</text>
</g>
<!-- 18&#45;&gt;6 -->
<g id="edge10" class="edge">
<title>18&#45;&gt;6</title>
<path fill="none" stroke="#c0c0c0" stroke-width="2" d="M725.575,-431.8314C729.1102,-423.8771 733.336,-414.369 737.2456,-405.5723"/>
<polygon fill="#c0c0c0" stroke="#c0c0c0" stroke-width="2" points="740.4532,-406.9729 741.3163,-396.4133 734.0565,-404.1299 740.4532,-406.9729"/>
</g>
<!-- 18&#45;&gt;14 -->
<g id="edge25" class="edge">
<title>18&#45;&gt;14</title>
<path fill="none" stroke="#c0c0c0" stroke-width="2" d="M704.7083,-431.7623C687.1018,-406.66 655.288,-361.3017 635.0637,-332.4671"/>
<polygon fill="#c0c0c0" stroke="#c0c0c0" stroke-width="2" points="637.7956,-330.2668 629.1879,-324.0896 632.0647,-334.2864 637.7956,-330.2668"/>
</g>
<!-- 28 -->
<g id="node29" class="node">
<title>28</title>
<path fill="none" stroke="#56d8b9" stroke-width="2" d="M612.5,-396C612.5,-396 550.5,-396 550.5,-396 544.5,-396 538.5,-390 538.5,-384 538.5,-384 538.5,-372 538.5,-372 538.5,-366 544.5,-360 550.5,-360 550.5,-360 612.5,-360 612.5,-360 618.5,-360 624.5,-366 624.5,-372 624.5,-372 624.5,-384 624.5,-384 624.5,-390 618.5,-396 612.5,-396"/>
<text text-anchor="middle" x="581.5" y="-375.5" font-family="sans" font-size="10.00" fill="#000000">calculate_tpm</text>
</g>
<!-- 18&#45;&gt;28 -->
<g id="edge42" class="edge">
<title>18&#45;&gt;28</title>
<path fill="none" stroke="#c0c0c0" stroke-width="2" d="M683.1815,-431.8314C665.4641,-422.4516 643.6655,-410.9112 624.8016,-400.9244"/>
<polygon fill="#c0c0c0" stroke="#c0c0c0" stroke-width="2" points="626.2831,-397.7485 615.8076,-396.1628 623.0078,-403.935 626.2831,-397.7485"/>
</g>
<!-- 19 -->
<g id="node20" class="node">
<title>19</title>
<path fill="none" stroke="#afd856" stroke-width="2" d="M433.5,-468C433.5,-468 327.5,-468 327.5,-468 321.5,-468 315.5,-462 315.5,-456 315.5,-456 315.5,-444 315.5,-444 315.5,-438 321.5,-432 327.5,-432 327.5,-432 433.5,-432 433.5,-432 439.5,-432 445.5,-438 445.5,-444 445.5,-444 445.5,-456 445.5,-456 445.5,-462 439.5,-468 433.5,-468"/>
<text text-anchor="middle" x="380.5" y="-447.5" font-family="sans" font-size="10.00" fill="#000000">generate_deseq_object</text>
</g>
<!-- 19&#45;&gt;8 -->
<g id="edge14" class="edge">
<title>19&#45;&gt;8</title>
<path fill="none" stroke="#c0c0c0" stroke-width="2" d="M378.9802,-431.7623C376.9334,-407.201 373.2706,-363.2474 370.8628,-334.3541"/>
<polygon fill="#c0c0c0" stroke="#c0c0c0" stroke-width="2" points="374.3259,-333.7644 370.0075,-324.0896 367.3501,-334.3458 374.3259,-333.7644"/>
</g>
<!-- 19&#45;&gt;14 -->
<g id="edge24" class="edge">
<title>19&#45;&gt;14</title>
<path fill="none" stroke="#c0c0c0" stroke-width="2" d="M425.4441,-431.9105C446.3546,-422.5648 471.0615,-410.1507 491.5,-396 510.6274,-382.757 511.0776,-374.2074 529.5,-360 543.7223,-349.0317 560.2692,-338.3101 575.0907,-329.349"/>
<polygon fill="#c0c0c0" stroke="#c0c0c0" stroke-width="2" points="577.2571,-332.1326 584.0601,-324.0104 573.6769,-326.1175 577.2571,-332.1326"/>
</g>
<!-- 21 -->
<g id="node22" class="node">
<title>21</title>
<path fill="none" stroke="#5682d8" stroke-width="2" d="M240.5,-396C240.5,-396 206.5,-396 206.5,-396 200.5,-396 194.5,-390 194.5,-384 194.5,-384 194.5,-372 194.5,-372 194.5,-366 200.5,-360 206.5,-360 206.5,-360 240.5,-360 240.5,-360 246.5,-360 252.5,-366 252.5,-372 252.5,-372 252.5,-384 252.5,-384 252.5,-390 246.5,-396 240.5,-396"/>
<text text-anchor="middle" x="223.5" y="-375.5" font-family="sans" font-size="10.00" fill="#000000">rlog_pca</text>
</g>
<!-- 19&#45;&gt;21 -->
<g id="edge34" class="edge">
<title>19&#45;&gt;21</title>
<path fill="none" stroke="#c0c0c0" stroke-width="2" d="M340.8829,-431.9087C317.9724,-421.4369 288.6005,-407.9953 262.5,-396 262.4026,-395.9552 262.3051,-395.9104 262.2074,-395.8655"/>
<polygon fill="#c0c0c0" stroke="#c0c0c0" stroke-width="2" points="263.4301,-392.5754 252.8827,-391.5736 260.5032,-398.9341 263.4301,-392.5754"/>
</g>
<!-- 19&#45;&gt;23 -->
<g id="edge36" class="edge">
<title>19&#45;&gt;23</title>
<path fill="none" stroke="#c0c0c0" stroke-width="2" d="M315.3321,-442.6377C257.317,-434.6345 178.6001,-419.7158 158.5,-396 126.9377,-358.76 132.5708,-297.817 139.5297,-262.2497"/>
<polygon fill="#c0c0c0" stroke="#c0c0c0" stroke-width="2" points="143.0355,-262.5899 141.6922,-252.0806 136.1886,-261.1339 143.0355,-262.5899"/>
</g>
<!-- 19&#45;&gt;25 -->
<g id="edge39" class="edge">
<title>19&#45;&gt;25</title>
<path fill="none" stroke="#c0c0c0" stroke-width="2" d="M315.4941,-439.9182C265.6477,-430.7975 202.5797,-415.7708 185.5,-396 154.0123,-359.551 146.1152,-325.3733 176.5,-288 203.8102,-254.4085 331.3337,-241.0078 396.6783,-236.2766"/>
<polygon fill="#c0c0c0" stroke="#c0c0c0" stroke-width="2" points="397.2502,-239.7455 406.9854,-235.565 396.768,-232.7621 397.2502,-239.7455"/>
</g>
<!-- 19&#45;&gt;28 -->
<g id="edge44" class="edge">
<title>19&#45;&gt;28</title>
<path fill="none" stroke="#c0c0c0" stroke-width="2" d="M430.9613,-431.9243C460.7623,-421.2493 498.4442,-407.7513 528.6522,-396.9306"/>
<polygon fill="#c0c0c0" stroke="#c0c0c0" stroke-width="2" points="529.9439,-400.1857 538.1779,-393.5184 527.5833,-393.5957 529.9439,-400.1857"/>
</g>
<!-- 20 -->
<g id="node21" class="node">
<title>20</title>
<path fill="none" stroke="#567bd8" stroke-width="2" d="M340,-396C340,-396 283,-396 283,-396 277,-396 271,-390 271,-384 271,-384 271,-372 271,-372 271,-366 277,-360 283,-360 283,-360 340,-360 340,-360 346,-360 352,-366 352,-372 352,-372 352,-384 352,-384 352,-390 346,-396 340,-396"/>
<text text-anchor="middle" x="311.5" y="-375.5" font-family="sans" font-size="10.00" fill="#000000">tfdb_families</text>
</g>
<!-- 20&#45;&gt;8 -->
<g id="edge11" class="edge">
<title>20&#45;&gt;8</title>
<path fill="none" stroke="#c0c0c0" stroke-width="2" d="M325.8835,-359.8314C332.4486,-351.5386 340.3507,-341.557 347.5578,-332.4533"/>
<polygon fill="#c0c0c0" stroke="#c0c0c0" stroke-width="2" points="350.4599,-334.4262 353.9228,-324.4133 344.9716,-330.0813 350.4599,-334.4262"/>
</g>
<!-- 21&#45;&gt;8 -->
<g id="edge13" class="edge">
<title>21&#45;&gt;8</title>
<path fill="none" stroke="#c0c0c0" stroke-width="2" d="M252.8429,-363.4297C272.9169,-353.4619 299.9312,-340.0479 322.8034,-328.6907"/>
<polygon fill="#c0c0c0" stroke="#c0c0c0" stroke-width="2" points="324.5923,-331.7102 331.9923,-324.128 321.4791,-325.4406 324.5923,-331.7102"/>
</g>
<!-- 21&#45;&gt;11 -->
<g id="edge18" class="edge">
<title>21&#45;&gt;11</title>
<path fill="none" stroke="#c0c0c0" stroke-width="2" d="M227.2851,-359.8314C228.8894,-352.131 230.797,-342.9743 232.5799,-334.4166"/>
<polygon fill="#c0c0c0" stroke="#c0c0c0" stroke-width="2" points="236.0507,-334.9169 234.6639,-324.4133 229.1979,-333.4892 236.0507,-334.9169"/>
</g>
<!-- 22 -->
<g id="node23" class="node">
<title>22</title>
<path fill="none" stroke="#a7d856" stroke-width="2" d="M470.5,-396C470.5,-396 420.5,-396 420.5,-396 414.5,-396 408.5,-390 408.5,-384 408.5,-384 408.5,-372 408.5,-372 408.5,-366 414.5,-360 420.5,-360 420.5,-360 470.5,-360 470.5,-360 476.5,-360 482.5,-366 482.5,-372 482.5,-372 482.5,-384 482.5,-384 482.5,-390 476.5,-396 470.5,-396"/>
<text text-anchor="middle" x="445.5" y="-375.5" font-family="sans" font-size="10.00" fill="#000000">format_tfdb</text>
</g>
<!-- 22&#45;&gt;8 -->
<g id="edge12" class="edge">
<title>22&#45;&gt;8</title>
<path fill="none" stroke="#c0c0c0" stroke-width="2" d="M426.0696,-359.8314C416.768,-351.1337 405.4796,-340.5783 395.3714,-331.1265"/>
<polygon fill="#c0c0c0" stroke="#c0c0c0" stroke-width="2" points="397.6189,-328.4363 387.9241,-324.1628 392.8379,-333.5493 397.6189,-328.4363"/>
</g>
<!-- 22&#45;&gt;13 -->
<g id="edge20" class="edge">
<title>22&#45;&gt;13</title>
<path fill="none" stroke="#c0c0c0" stroke-width="2" d="M449.8892,-359.7013C455.6824,-335.2401 466.0204,-290.4952 473.5,-252 477.497,-231.4288 481.3687,-208.0842 484.1772,-190.3261"/>
<polygon fill="#c0c0c0" stroke="#c0c0c0" stroke-width="2" points="487.6544,-190.7436 485.7404,-180.3231 480.7383,-189.6627 487.6544,-190.7436"/>
</g>
<!-- 22&#45;&gt;25 -->
<g id="edge38" class="edge">
<title>22&#45;&gt;25</title>
<path fill="none" stroke="#c0c0c0" stroke-width="2" d="M444.2335,-359.7623C442.5279,-335.201 439.4755,-291.2474 437.469,-262.3541"/>
<polygon fill="#c0c0c0" stroke="#c0c0c0" stroke-width="2" points="440.9407,-261.8231 436.7562,-252.0896 433.9575,-262.3081 440.9407,-261.8231"/>
</g>
<!-- 23&#45;&gt;9 -->
<g id="edge15" class="edge">
<title>23&#45;&gt;9</title>
<path fill="none" stroke="#c0c0c0" stroke-width="2" d="M147.5094,-215.8314C147.9372,-208.131 148.4459,-198.9743 148.9213,-190.4166"/>
<polygon fill="#c0c0c0" stroke="#c0c0c0" stroke-width="2" points="152.4169,-190.592 149.477,-180.4133 145.4276,-190.2037 152.4169,-190.592"/>
</g>
<!-- 23&#45;&gt;12 -->
<g id="edge19" class="edge">
<title>23&#45;&gt;12</title>
<path fill="none" stroke="#c0c0c0" stroke-width="2" d="M121.5181,-215.8314C109.2072,-206.8779 94.1893,-195.9558 80.9063,-186.2955"/>
<polygon fill="#c0c0c0" stroke="#c0c0c0" stroke-width="2" points="82.6199,-183.214 72.4739,-180.1628 78.5027,-188.8752 82.6199,-183.214"/>
</g>
<!-- 24 -->
<g id="node25" class="node">
<title>24</title>
<path fill="none" stroke="#d8a456" stroke-width="2" d="M855,-180C855,-180 760,-180 760,-180 754,-180 748,-174 748,-168 748,-168 748,-156 748,-156 748,-150 754,-144 760,-144 760,-144 855,-144 855,-144 861,-144 867,-150 867,-156 867,-156 867,-168 867,-168 867,-174 861,-180 855,-180"/>
<text text-anchor="middle" x="807.5" y="-159.5" font-family="sans" font-size="10.00" fill="#000000">tidy_phenotype_data</text>
</g>
<!-- 24&#45;&gt;10 -->
<g id="edge17" class="edge">
<title>24&#45;&gt;10</title>
<path fill="none" stroke="#c0c0c0" stroke-width="2" d="M809.9935,-143.7085C812.1265,-125.5099 814.5523,-96.7973 812.5,-72 811.8055,-63.6085 810.5138,-54.5578 809.1214,-46.3092"/>
<polygon fill="#c0c0c0" stroke="#c0c0c0" stroke-width="2" points="812.5544,-45.6235 807.3413,-36.3999 805.6647,-46.8612 812.5544,-45.6235"/>
</g>
<!-- 24&#45;&gt;16 -->
<g id="edge28" class="edge">
<title>24&#45;&gt;16</title>
<path fill="none" stroke="#c0c0c0" stroke-width="2" d="M799.425,-143.8314C795.8898,-135.8771 791.664,-126.369 787.7544,-117.5723"/>
<polygon fill="#c0c0c0" stroke="#c0c0c0" stroke-width="2" points="790.9435,-116.1299 783.6837,-108.4133 784.5468,-118.9729 790.9435,-116.1299"/>
</g>
<!-- 24&#45;&gt;17 -->
<g id="edge30" class="edge">
<title>24&#45;&gt;17</title>
<path fill="none" stroke="#c0c0c0" stroke-width="2" d="M760.0597,-143.8314C734.5805,-134.0734 702.9956,-121.977 676.2243,-111.7242"/>
<polygon fill="#c0c0c0" stroke="#c0c0c0" stroke-width="2" points="677.1896,-108.346 666.5992,-108.038 674.686,-114.883 677.1896,-108.346"/>
</g>
<!-- 25&#45;&gt;13 -->
<g id="edge21" class="edge">
<title>25&#45;&gt;13</title>
<path fill="none" stroke="#c0c0c0" stroke-width="2" d="M448.8741,-215.8314C454.9162,-207.6232 462.1763,-197.7606 468.8221,-188.7323"/>
<polygon fill="#c0c0c0" stroke="#c0c0c0" stroke-width="2" points="471.8363,-190.5415 474.9458,-180.4133 466.1989,-186.3918 471.8363,-190.5415"/>
</g>
<!-- 25&#45;&gt;15 -->
<g id="edge27" class="edge">
<title>25&#45;&gt;15</title>
<path fill="none" stroke="#c0c0c0" stroke-width="2" d="M407.2377,-215.8314C393.0448,-206.7074 375.6718,-195.539 360.4364,-185.7449"/>
<polygon fill="#c0c0c0" stroke="#c0c0c0" stroke-width="2" points="362.0578,-182.6263 351.7533,-180.1628 358.2724,-188.5146 362.0578,-182.6263"/>
</g>
<!-- 26 -->
<g id="node27" class="node">
<title>26</title>
<path fill="none" stroke="#80d856" stroke-width="2" d="M641,-468C641,-468 522,-468 522,-468 516,-468 510,-462 510,-456 510,-456 510,-444 510,-444 510,-438 516,-432 522,-432 522,-432 641,-432 641,-432 647,-432 653,-438 653,-444 653,-444 653,-456 653,-456 653,-462 647,-468 641,-468"/>
<text text-anchor="middle" x="581.5" y="-447.5" font-family="sans" font-size="10.00" fill="#000000">calculate_feature_lengths</text>
</g>
<!-- 26&#45;&gt;14 -->
<g id="edge26" class="edge">
<title>26&#45;&gt;14</title>
<path fill="none" stroke="#c0c0c0" stroke-width="2" d="M606.0801,-431.7772C616.6482,-422.4022 627.8543,-410.0021 633.5,-396 641.5777,-375.9663 636.2959,-351.8519 629.5582,-333.6286"/>
<polygon fill="#c0c0c0" stroke="#c0c0c0" stroke-width="2" points="632.7303,-332.1363 625.7409,-324.1739 626.2394,-334.7571 632.7303,-332.1363"/>
</g>
<!-- 26&#45;&gt;28 -->
<g id="edge43" class="edge">
<title>26&#45;&gt;28</title>
<path fill="none" stroke="#c0c0c0" stroke-width="2" d="M581.5,-431.8314C581.5,-424.131 581.5,-414.9743 581.5,-406.4166"/>
<polygon fill="#c0c0c0" stroke="#c0c0c0" stroke-width="2" points="585.0001,-406.4132 581.5,-396.4133 578.0001,-406.4133 585.0001,-406.4132"/>
</g>
<!-- 27 -->
<g id="node28" class="node">
<title>27</title>
<path fill="none" stroke="#56d89a" stroke-width="2" d="M943.5,-396C943.5,-396 809.5,-396 809.5,-396 803.5,-396 797.5,-390 797.5,-384 797.5,-384 797.5,-372 797.5,-372 797.5,-366 803.5,-360 809.5,-360 809.5,-360 943.5,-360 943.5,-360 949.5,-360 955.5,-366 955.5,-372 955.5,-372 955.5,-384 955.5,-384 955.5,-390 949.5,-396 943.5,-396"/>
<text text-anchor="middle" x="876.5" y="-375.5" font-family="sans" font-size="10.00" fill="#000000">combine_background_counts</text>
</g>
<!-- 27&#45;&gt;14 -->
<g id="edge22" class="edge">
<title>27&#45;&gt;14</title>
<path fill="none" stroke="#c0c0c0" stroke-width="2" d="M811.2266,-359.9243C769.6758,-348.4179 716.281,-333.6317 675.9157,-322.4536"/>
<polygon fill="#c0c0c0" stroke="#c0c0c0" stroke-width="2" points="676.7822,-319.0619 666.2108,-319.7661 674.914,-325.808 676.7822,-319.0619"/>
</g>
<!-- 28&#45;&gt;14 -->
<g id="edge23" class="edge">
<title>28&#45;&gt;14</title>
<path fill="none" stroke="#c0c0c0" stroke-width="2" d="M590.332,-359.8314C594.1986,-351.8771 598.8206,-342.369 603.0968,-333.5723"/>
<polygon fill="#c0c0c0" stroke="#c0c0c0" stroke-width="2" points="606.3249,-334.9371 607.5491,-324.4133 600.0293,-331.8768 606.3249,-334.9371"/>
</g>
<!-- 29 -->
<g id="node30" class="node">
<title>29</title>
<path fill="none" stroke="#d8b456" stroke-width="2" d="M751,-540C751,-540 676,-540 676,-540 670,-540 664,-534 664,-528 664,-528 664,-516 664,-516 664,-510 670,-504 676,-504 676,-504 751,-504 751,-504 757,-504 763,-510 763,-516 763,-516 763,-528 763,-528 763,-534 757,-540 751,-540"/>
<text text-anchor="middle" x="713.5" y="-519.5" font-family="sans" font-size="10.00" fill="#000000">second_mapping</text>
</g>
<!-- 29&#45;&gt;18 -->
<g id="edge32" class="edge">
<title>29&#45;&gt;18</title>
<path fill="none" stroke="#c0c0c0" stroke-width="2" d="M714.5094,-503.8314C714.9372,-496.131 715.4459,-486.9743 715.9213,-478.4166"/>
<polygon fill="#c0c0c0" stroke="#c0c0c0" stroke-width="2" points="719.4169,-478.592 716.477,-468.4133 712.4276,-478.2037 719.4169,-478.592"/>
</g>
<!-- 29&#45;&gt;19 -->
<g id="edge33" class="edge">
<title>29&#45;&gt;19</title>
<path fill="none" stroke="#c0c0c0" stroke-width="2" d="M663.6465,-511.2209C608.535,-499.3049 519.1585,-479.9802 455.5702,-466.2314"/>
<polygon fill="#c0c0c0" stroke="#c0c0c0" stroke-width="2" points="456.1091,-462.7671 445.5953,-464.0747 454.6298,-469.609 456.1091,-462.7671"/>
</g>
<!-- 31 -->
<g id="node32" class="node">
<title>31</title>
<path fill="none" stroke="#d88556" stroke-width="2" d="M883.5,-468C883.5,-468 801.5,-468 801.5,-468 795.5,-468 789.5,-462 789.5,-456 789.5,-456 789.5,-444 789.5,-444 789.5,-438 795.5,-432 801.5,-432 801.5,-432 883.5,-432 883.5,-432 889.5,-432 895.5,-438 895.5,-444 895.5,-444 895.5,-456 895.5,-456 895.5,-462 889.5,-468 883.5,-468"/>
<text text-anchor="middle" x="842.5" y="-447.5" font-family="sans" font-size="10.00" fill="#000000">count_background</text>
</g>
<!-- 29&#45;&gt;31 -->
<g id="edge49" class="edge">
<title>29&#45;&gt;31</title>
<path fill="none" stroke="#c0c0c0" stroke-width="2" d="M746.0521,-503.8314C762.7048,-494.5368 783.1585,-483.1208 800.9385,-473.1971"/>
<polygon fill="#c0c0c0" stroke="#c0c0c0" stroke-width="2" points="802.9321,-476.0927 809.9583,-468.1628 799.5205,-469.9803 802.9321,-476.0927"/>
</g>
<!-- 30 -->
<g id="node31" class="node">
<title>30</title>
<path fill="none" stroke="#56a2d8" stroke-width="2" d="M789,-756C789,-756 734,-756 734,-756 728,-756 722,-750 722,-744 722,-744 722,-732 722,-732 722,-726 728,-720 734,-720 734,-720 789,-720 789,-720 795,-720 801,-726 801,-732 801,-732 801,-744 801,-744 801,-750 795,-756 789,-756"/>
<text text-anchor="middle" x="761.5" y="-735.5" font-family="sans" font-size="10.00" fill="#000000">generate_gtf</text>
</g>
<!-- 30&#45;&gt;26 -->
<g id="edge40" class="edge">
<title>30&#45;&gt;26</title>
<path fill="none" stroke="#c0c0c0" stroke-width="2" d="M721.9588,-724.6159C683.8659,-711.3756 631.0587,-691.9705 624.5,-684 575.2116,-624.1022 575.0972,-526.159 578.5347,-478.2228"/>
<polygon fill="#c0c0c0" stroke="#c0c0c0" stroke-width="2" points="582.024,-478.496 579.3559,-468.2427 575.0475,-477.922 582.024,-478.496"/>
</g>
<!-- 32 -->
<g id="node33" class="node">
<title>32</title>
<path fill="none" stroke="#d8bc56" stroke-width="2" d="M802,-684C802,-684 721,-684 721,-684 715,-684 709,-678 709,-672 709,-672 709,-660 709,-660 709,-654 715,-648 721,-648 721,-648 802,-648 802,-648 808,-648 814,-654 814,-660 814,-660 814,-672 814,-672 814,-678 808,-684 802,-684"/>
<text text-anchor="middle" x="761.5" y="-663.5" font-family="sans" font-size="10.00" fill="#000000">generate_genome</text>
</g>
<!-- 30&#45;&gt;32 -->
<g id="edge50" class="edge">
<title>30&#45;&gt;32</title>
<path fill="none" stroke="#c0c0c0" stroke-width="2" d="M761.5,-719.8314C761.5,-712.131 761.5,-702.9743 761.5,-694.4166"/>
<polygon fill="#c0c0c0" stroke="#c0c0c0" stroke-width="2" points="765.0001,-694.4132 761.5,-684.4133 758.0001,-694.4133 765.0001,-694.4132"/>
</g>
<!-- 35 -->
<g id="node36" class="node">
<title>35</title>
<path fill="none" stroke="#97d856" stroke-width="2" d="M864.5,-612C864.5,-612 820.5,-612 820.5,-612 814.5,-612 808.5,-606 808.5,-600 808.5,-600 808.5,-588 808.5,-588 808.5,-582 814.5,-576 820.5,-576 820.5,-576 864.5,-576 864.5,-576 870.5,-576 876.5,-582 876.5,-588 876.5,-588 876.5,-600 876.5,-600 876.5,-606 870.5,-612 864.5,-612"/>
<text text-anchor="middle" x="842.5" y="-591.5" font-family="sans" font-size="10.00" fill="#000000">shuffle_gtf</text>
</g>
<!-- 30&#45;&gt;35 -->
<g id="edge55" class="edge">
<title>30&#45;&gt;35</title>
<path fill="none" stroke="#c0c0c0" stroke-width="2" d="M789.6393,-719.7818C801.8292,-710.4882 815.1852,-698.1536 823.5,-684 834.5219,-665.2384 839.1934,-640.952 841.1523,-622.3372"/>
<polygon fill="#c0c0c0" stroke="#c0c0c0" stroke-width="2" points="844.6613,-622.3772 842.0196,-612.117 837.6864,-621.7852 844.6613,-622.3772"/>
</g>
<!-- 31&#45;&gt;27 -->
<g id="edge41" class="edge">
<title>31&#45;&gt;27</title>
<path fill="none" stroke="#c0c0c0" stroke-width="2" d="M851.0796,-431.8314C854.8358,-423.8771 859.3257,-414.369 863.4798,-405.5723"/>
<polygon fill="#c0c0c0" stroke="#c0c0c0" stroke-width="2" points="866.6996,-406.9503 867.8048,-396.4133 860.3699,-403.9612 866.6996,-406.9503"/>
</g>
<!-- 32&#45;&gt;29 -->
<g id="edge47" class="edge">
<title>32&#45;&gt;29</title>
<path fill="none" stroke="#c0c0c0" stroke-width="2" d="M765.1934,-647.7312C768.1352,-629.0489 770.44,-599.5141 761.5,-576 757.4728,-565.4076 750.31,-555.5662 742.7263,-547.2649"/>
<polygon fill="#c0c0c0" stroke="#c0c0c0" stroke-width="2" points="745.2138,-544.8025 735.7213,-540.0968 740.2074,-549.695 745.2138,-544.8025"/>
</g>
<!-- 33 -->
<g id="node34" class="node">
<title>33</title>
<path fill="none" stroke="#d85656" stroke-width="2" d="M740,-612C740,-612 681,-612 681,-612 675,-612 669,-606 669,-600 669,-600 669,-588 669,-588 669,-582 675,-576 681,-576 681,-576 740,-576 740,-576 746,-576 752,-582 752,-588 752,-588 752,-600 752,-600 752,-606 746,-612 740,-612"/>
<text text-anchor="middle" x="710.5" y="-591.5" font-family="sans" font-size="10.00" fill="#000000">first_mapping</text>
</g>
<!-- 32&#45;&gt;33 -->
<g id="edge52" class="edge">
<title>32&#45;&gt;33</title>
<path fill="none" stroke="#c0c0c0" stroke-width="2" d="M748.6305,-647.8314C742.8165,-639.6232 735.8304,-629.7606 729.4354,-620.7323"/>
<polygon fill="#c0c0c0" stroke="#c0c0c0" stroke-width="2" points="732.179,-618.5505 723.5427,-612.4133 726.4669,-622.5966 732.179,-618.5505"/>
</g>
<!-- 32&#45;&gt;35 -->
<g id="edge54" class="edge">
<title>32&#45;&gt;35</title>
<path fill="none" stroke="#c0c0c0" stroke-width="2" d="M781.9397,-647.8314C791.8205,-639.0485 803.8324,-628.3712 814.545,-618.8489"/>
<polygon fill="#c0c0c0" stroke="#c0c0c0" stroke-width="2" points="816.918,-621.4224 822.0668,-612.1628 812.2674,-616.1906 816.918,-621.4224"/>
</g>
<!-- 33&#45;&gt;29 -->
<g id="edge45" class="edge">
<title>33&#45;&gt;29</title>
<path fill="none" stroke="#c0c0c0" stroke-width="2" d="M711.257,-575.8314C711.5779,-568.131 711.9594,-558.9743 712.316,-550.4166"/>
<polygon fill="#c0c0c0" stroke="#c0c0c0" stroke-width="2" points="715.8133,-550.5503 712.7328,-540.4133 708.8194,-550.2589 715.8133,-550.5503"/>
</g>
<!-- 34 -->
<g id="node35" class="node">
<title>34</title>
<path fill="none" stroke="#d87556" stroke-width="2" d="M675.5,-684C675.5,-684 645.5,-684 645.5,-684 639.5,-684 633.5,-678 633.5,-672 633.5,-672 633.5,-660 633.5,-660 633.5,-654 639.5,-648 645.5,-648 645.5,-648 675.5,-648 675.5,-648 681.5,-648 687.5,-654 687.5,-660 687.5,-660 687.5,-672 687.5,-672 687.5,-678 681.5,-684 675.5,-684"/>
<text text-anchor="middle" x="660.5" y="-663.5" font-family="sans" font-size="10.00" fill="#000000">gzip</text>
</g>
<!-- 34&#45;&gt;29 -->
<g id="edge46" class="edge">
<title>34&#45;&gt;29</title>
<path fill="none" stroke="#c0c0c0" stroke-width="2" d="M656.6262,-647.9853C653.4667,-629.2476 650.9227,-599.4307 660.5,-576 664.9592,-565.0907 672.8025,-555.1954 681.1103,-546.9434"/>
<polygon fill="#c0c0c0" stroke="#c0c0c0" stroke-width="2" points="683.5045,-549.4965 688.4572,-540.1305 678.7448,-544.3637 683.5045,-549.4965"/>
</g>
<!-- 34&#45;&gt;33 -->
<g id="edge51" class="edge">
<title>34&#45;&gt;33</title>
<path fill="none" stroke="#c0c0c0" stroke-width="2" d="M673.1171,-647.8314C678.8172,-639.6232 685.6663,-629.7606 691.9359,-620.7323"/>
<polygon fill="#c0c0c0" stroke="#c0c0c0" stroke-width="2" points="694.8838,-622.6234 697.713,-612.4133 689.1342,-618.6306 694.8838,-622.6234"/>
</g>
<!-- 35&#45;&gt;31 -->
<g id="edge48" class="edge">
<title>35&#45;&gt;31</title>
<path fill="none" stroke="#c0c0c0" stroke-width="2" d="M842.5,-575.7623C842.5,-551.201 842.5,-507.2474 842.5,-478.3541"/>
<polygon fill="#c0c0c0" stroke="#c0c0c0" stroke-width="2" points="846.0001,-478.0896 842.5,-468.0896 839.0001,-478.0897 846.0001,-478.0896"/>
</g>
<!-- 36 -->
<g id="node37" class="node">
<title>36</title>
<path fill="none" stroke="#56d87b" stroke-width="2" d="M678,-756C678,-756 643,-756 643,-756 637,-756 631,-750 631,-744 631,-744 631,-732 631,-732 631,-726 637,-720 643,-720 643,-720 678,-720 678,-720 684,-720 690,-726 690,-732 690,-732 690,-744 690,-744 690,-750 684,-756 678,-756"/>
<text text-anchor="middle" x="660.5" y="-735.5" font-family="sans" font-size="10.00" fill="#000000">cutadapt</text>
</g>
<!-- 36&#45;&gt;34 -->
<g id="edge53" class="edge">
<title>36&#45;&gt;34</title>
<path fill="none" stroke="#c0c0c0" stroke-width="2" d="M660.5,-719.8314C660.5,-712.131 660.5,-702.9743 660.5,-694.4166"/>
<polygon fill="#c0c0c0" stroke="#c0c0c0" stroke-width="2" points="664.0001,-694.4132 660.5,-684.4133 657.0001,-694.4133 664.0001,-694.4132"/>
</g>
<!-- 37 -->
<g id="node38" class="node">
<title>37</title>
<path fill="none" stroke="#61d856" stroke-width="2" d="M675.5,-828C675.5,-828 645.5,-828 645.5,-828 639.5,-828 633.5,-822 633.5,-816 633.5,-816 633.5,-804 633.5,-804 633.5,-798 639.5,-792 645.5,-792 645.5,-792 675.5,-792 675.5,-792 681.5,-792 687.5,-798 687.5,-804 687.5,-804 687.5,-816 687.5,-816 687.5,-822 681.5,-828 675.5,-828"/>
<text text-anchor="middle" x="660.5" y="-807.5" font-family="sans" font-size="10.00" fill="#000000">repair</text>
</g>
<!-- 37&#45;&gt;36 -->
<g id="edge56" class="edge">
<title>37&#45;&gt;36</title>
<path fill="none" stroke="#c0c0c0" stroke-width="2" d="M660.5,-791.8314C660.5,-784.131 660.5,-774.9743 660.5,-766.4166"/>
<polygon fill="#c0c0c0" stroke="#c0c0c0" stroke-width="2" points="664.0001,-766.4132 660.5,-756.4133 657.0001,-766.4133 664.0001,-766.4132"/>
</g>
</g>
</svg>
