<?xml version="1.0" encoding="UTF-8" standalone="no"?>
<!DOCTYPE svg PUBLIC "-//W3C//DTD SVG 1.1//EN"
 "http://www.w3.org/Graphics/SVG/1.1/DTD/svg11.dtd">
<!-- Generated by graphviz version 2.38.0 (20140413.2041)
 -->
<!-- Title: snakemake_dag Pages: 1 -->
<svg width="374pt" height="404pt"
 viewBox="0.00 0.00 373.50 404.00" xmlns="http://www.w3.org/2000/svg" xmlns:xlink="http://www.w3.org/1999/xlink">
<g id="graph0" class="graph" transform="scale(1 1) rotate(0) translate(4 400)">
<title>snakemake_dag</title>
<polygon fill="white" stroke="none" points="-4,4 -4,-400 369.5,-400 369.5,4 -4,4"/>
<!-- 0 -->
<g id="node1" class="node"><title>0</title>
<path fill="none" stroke="#56d8d8" stroke-width="2" d="M229.5,-36C229.5,-36 123.5,-36 123.5,-36 117.5,-36 111.5,-30 111.5,-24 111.5,-24 111.5,-12 111.5,-12 111.5,-6 117.5,-0 123.5,-0 123.5,-0 229.5,-0 229.5,-0 235.5,-0 241.5,-6 241.5,-12 241.5,-12 241.5,-24 241.5,-24 241.5,-30 235.5,-36 229.5,-36"/>
<text text-anchor="middle" x="176.5" y="-15.5" font-family="sans" font-size="10.00">generate_deseq_object</text>
</g>
<!-- 1 -->
<g id="node2" class="node"><title>1</title>
<path fill="none" stroke="#afd856" stroke-width="2" d="M81,-36C81,-36 12,-36 12,-36 6,-36 7.10543e-15,-30 7.10543e-15,-24 7.10543e-15,-24 7.10543e-15,-12 7.10543e-15,-12 7.10543e-15,-6 6,-0 12,-0 12,-0 81,-0 81,-0 87,-0 93,-6 93,-12 93,-12 93,-24 93,-24 93,-30 87,-36 81,-36"/>
<text text-anchor="middle" x="46.5" y="-15.5" font-family="sans" font-size="10.00">parse_star_logs</text>
</g>
<!-- 2 -->
<g id="node3" class="node"><title>2</title>
<path fill="none" stroke="#5682d8" stroke-width="2" d="M353.5,-36C353.5,-36 271.5,-36 271.5,-36 265.5,-36 259.5,-30 259.5,-24 259.5,-24 259.5,-12 259.5,-12 259.5,-6 265.5,-0 271.5,-0 271.5,-0 353.5,-0 353.5,-0 359.5,-0 365.5,-6 365.5,-12 365.5,-12 365.5,-24 365.5,-24 365.5,-30 359.5,-36 353.5,-36"/>
<text text-anchor="middle" x="312.5" y="-15.5" font-family="sans" font-size="10.00">count_background</text>
</g>
<!-- 3 -->
<g id="node4" class="node"><title>3</title>
<path fill="none" stroke="#d8ac56" stroke-width="2" d="M214,-108C214,-108 139,-108 139,-108 133,-108 127,-102 127,-96 127,-96 127,-84 127,-84 127,-78 133,-72 139,-72 139,-72 214,-72 214,-72 220,-72 226,-78 226,-84 226,-84 226,-96 226,-96 226,-102 220,-108 214,-108"/>
<text text-anchor="middle" x="176.5" y="-87.5" font-family="sans" font-size="10.00">second_mapping</text>
</g>
<!-- 3&#45;&gt;0 -->
<g id="edge1" class="edge"><title>3&#45;&gt;0</title>
<path fill="none" stroke="grey" stroke-width="2" d="M176.5,-71.6966C176.5,-63.9827 176.5,-54.7125 176.5,-46.1124"/>
<polygon fill="grey" stroke="grey" stroke-width="2" points="180,-46.1043 176.5,-36.1043 173,-46.1044 180,-46.1043"/>
</g>
<!-- 3&#45;&gt;1 -->
<g id="edge2" class="edge"><title>3&#45;&gt;1</title>
<path fill="none" stroke="grey" stroke-width="2" d="M144.698,-71.8761C127.386,-62.5541 105.779,-50.9194 87.2438,-40.939"/>
<polygon fill="grey" stroke="grey" stroke-width="2" points="88.8879,-37.8491 78.4238,-36.1898 85.5692,-44.0125 88.8879,-37.8491"/>
</g>
<!-- 3&#45;&gt;2 -->
<g id="edge3" class="edge"><title>3&#45;&gt;2</title>
<path fill="none" stroke="grey" stroke-width="2" d="M209.769,-71.8761C227.963,-62.5117 250.691,-50.8136 270.14,-40.803"/>
<polygon fill="grey" stroke="grey" stroke-width="2" points="271.813,-43.8782 279.103,-36.1898 268.61,-37.6543 271.813,-43.8782"/>
</g>
<!-- 4 -->
<g id="node5" class="node"><title>4</title>
<path fill="none" stroke="#d6d856" stroke-width="2" d="M334.5,-180C334.5,-180 290.5,-180 290.5,-180 284.5,-180 278.5,-174 278.5,-168 278.5,-168 278.5,-156 278.5,-156 278.5,-150 284.5,-144 290.5,-144 290.5,-144 334.5,-144 334.5,-144 340.5,-144 346.5,-150 346.5,-156 346.5,-156 346.5,-168 346.5,-168 346.5,-174 340.5,-180 334.5,-180"/>
<text text-anchor="middle" x="312.5" y="-159.5" font-family="sans" font-size="10.00">shuffle_gtf</text>
</g>
<!-- 4&#45;&gt;2 -->
<g id="edge4" class="edge"><title>4&#45;&gt;2</title>
<path fill="none" stroke="grey" stroke-width="2" d="M312.5,-143.871C312.5,-119.67 312.5,-75.2108 312.5,-46.3932"/>
<polygon fill="grey" stroke="grey" stroke-width="2" points="316,-46.1892 312.5,-36.1893 309,-46.1893 316,-46.1892"/>
</g>
<!-- 5 -->
<g id="node6" class="node"><title>5</title>
<path fill="none" stroke="#80d856" stroke-width="2" d="M206,-180C206,-180 147,-180 147,-180 141,-180 135,-174 135,-168 135,-168 135,-156 135,-156 135,-150 141,-144 147,-144 147,-144 206,-144 206,-144 212,-144 218,-150 218,-156 218,-156 218,-168 218,-168 218,-174 212,-180 206,-180"/>
<text text-anchor="middle" x="176.5" y="-159.5" font-family="sans" font-size="10.00">first_mapping</text>
</g>
<!-- 5&#45;&gt;3 -->
<g id="edge6" class="edge"><title>5&#45;&gt;3</title>
<path fill="none" stroke="grey" stroke-width="2" d="M176.5,-143.697C176.5,-135.983 176.5,-126.712 176.5,-118.112"/>
<polygon fill="grey" stroke="grey" stroke-width="2" points="180,-118.104 176.5,-108.104 173,-118.104 180,-118.104"/>
</g>
<!-- 6 -->
<g id="node7" class="node"><title>6</title>
<path fill="none" stroke="#56d882" stroke-width="2" d="M138.5,-252C138.5,-252 108.5,-252 108.5,-252 102.5,-252 96.5,-246 96.5,-240 96.5,-240 96.5,-228 96.5,-228 96.5,-222 102.5,-216 108.5,-216 108.5,-216 138.5,-216 138.5,-216 144.5,-216 150.5,-222 150.5,-228 150.5,-228 150.5,-240 150.5,-240 150.5,-246 144.5,-252 138.5,-252"/>
<text text-anchor="middle" x="123.5" y="-231.5" font-family="sans" font-size="10.00">gzip</text>
</g>
<!-- 6&#45;&gt;3 -->
<g id="edge7" class="edge"><title>6&#45;&gt;3</title>
<path fill="none" stroke="grey" stroke-width="2" d="M120.316,-215.845C117.68,-197.345 115.762,-167.402 125.5,-144 130.007,-133.168 137.848,-123.285 146.049,-115.064"/>
<polygon fill="grey" stroke="grey" stroke-width="2" points="148.686,-117.391 153.597,-108.003 143.903,-112.279 148.686,-117.391"/>
</g>
<!-- 6&#45;&gt;5 -->
<g id="edge11" class="edge"><title>6&#45;&gt;5</title>
<path fill="none" stroke="grey" stroke-width="2" d="M136.601,-215.697C142.891,-207.389 150.547,-197.277 157.465,-188.141"/>
<polygon fill="grey" stroke="grey" stroke-width="2" points="160.304,-190.19 163.55,-180.104 154.723,-185.964 160.304,-190.19"/>
</g>
<!-- 7 -->
<g id="node8" class="node"><title>7</title>
<path fill="none" stroke="#56a9d8" stroke-width="2" d="M279,-252C279,-252 198,-252 198,-252 192,-252 186,-246 186,-240 186,-240 186,-228 186,-228 186,-222 192,-216 198,-216 198,-216 279,-216 279,-216 285,-216 291,-222 291,-228 291,-228 291,-240 291,-240 291,-246 285,-252 279,-252"/>
<text text-anchor="middle" x="238.5" y="-231.5" font-family="sans" font-size="10.00">generate_genome</text>
</g>
<!-- 7&#45;&gt;3 -->
<g id="edge5" class="edge"><title>7&#45;&gt;3</title>
<path fill="none" stroke="grey" stroke-width="2" d="M239.23,-215.72C239.338,-197.113 237.51,-167.078 226.5,-144 221.454,-133.423 213.512,-123.561 205.431,-115.281"/>
<polygon fill="grey" stroke="grey" stroke-width="2" points="207.673,-112.58 198.05,-108.146 202.808,-117.613 207.673,-112.58"/>
</g>
<!-- 7&#45;&gt;4 -->
<g id="edge8" class="edge"><title>7&#45;&gt;4</title>
<path fill="none" stroke="grey" stroke-width="2" d="M256.792,-215.697C265.933,-207.05 277.14,-196.449 287.1,-187.027"/>
<polygon fill="grey" stroke="grey" stroke-width="2" points="289.559,-189.519 294.418,-180.104 284.748,-184.434 289.559,-189.519"/>
</g>
<!-- 7&#45;&gt;5 -->
<g id="edge10" class="edge"><title>7&#45;&gt;5</title>
<path fill="none" stroke="grey" stroke-width="2" d="M223.174,-215.697C215.741,-207.305 206.677,-197.07 198.52,-187.861"/>
<polygon fill="grey" stroke="grey" stroke-width="2" points="200.9,-185.27 191.65,-180.104 195.66,-189.911 200.9,-185.27"/>
</g>
<!-- 8 -->
<g id="node9" class="node"><title>8</title>
<path fill="none" stroke="#d85656" stroke-width="2" d="M306,-324C306,-324 251,-324 251,-324 245,-324 239,-318 239,-312 239,-312 239,-300 239,-300 239,-294 245,-288 251,-288 251,-288 306,-288 306,-288 312,-288 318,-294 318,-300 318,-300 318,-312 318,-312 318,-318 312,-324 306,-324"/>
<text text-anchor="middle" x="278.5" y="-303.5" font-family="sans" font-size="10.00">generate_gtf</text>
</g>
<!-- 8&#45;&gt;4 -->
<g id="edge9" class="edge"><title>8&#45;&gt;4</title>
<path fill="none" stroke="grey" stroke-width="2" d="M286.547,-287.679C290.979,-277.489 296.229,-264.239 299.5,-252 304.934,-231.666 308.25,-208.072 310.171,-190.287"/>
<polygon fill="grey" stroke="grey" stroke-width="2" points="313.658,-190.6 311.171,-180.301 306.692,-189.903 313.658,-190.6"/>
</g>
<!-- 8&#45;&gt;7 -->
<g id="edge13" class="edge"><title>8&#45;&gt;7</title>
<path fill="none" stroke="grey" stroke-width="2" d="M268.612,-287.697C264.011,-279.644 258.44,-269.894 253.347,-260.982"/>
<polygon fill="grey" stroke="grey" stroke-width="2" points="256.274,-259.05 248.274,-252.104 250.196,-262.523 256.274,-259.05"/>
</g>
<!-- 9 -->
<g id="node10" class="node"><title>9</title>
<path fill="none" stroke="#d88556" stroke-width="2" d="M141,-324C141,-324 106,-324 106,-324 100,-324 94,-318 94,-312 94,-312 94,-300 94,-300 94,-294 100,-288 106,-288 106,-288 141,-288 141,-288 147,-288 153,-294 153,-300 153,-300 153,-312 153,-312 153,-318 147,-324 141,-324"/>
<text text-anchor="middle" x="123.5" y="-303.5" font-family="sans" font-size="10.00">cutadapt</text>
</g>
<!-- 9&#45;&gt;6 -->
<g id="edge12" class="edge"><title>9&#45;&gt;6</title>
<path fill="none" stroke="grey" stroke-width="2" d="M123.5,-287.697C123.5,-279.983 123.5,-270.712 123.5,-262.112"/>
<polygon fill="grey" stroke="grey" stroke-width="2" points="127,-262.104 123.5,-252.104 120,-262.104 127,-262.104"/>
</g>
<!-- 10 -->
<g id="node11" class="node"><title>10</title>
<path fill="none" stroke="#59d856" stroke-width="2" d="M138.5,-396C138.5,-396 108.5,-396 108.5,-396 102.5,-396 96.5,-390 96.5,-384 96.5,-384 96.5,-372 96.5,-372 96.5,-366 102.5,-360 108.5,-360 108.5,-360 138.5,-360 138.5,-360 144.5,-360 150.5,-366 150.5,-372 150.5,-372 150.5,-384 150.5,-384 150.5,-390 144.5,-396 138.5,-396"/>
<text text-anchor="middle" x="123.5" y="-375.5" font-family="sans" font-size="10.00">repair</text>
</g>
<!-- 10&#45;&gt;9 -->
<g id="edge14" class="edge"><title>10&#45;&gt;9</title>
<path fill="none" stroke="grey" stroke-width="2" d="M123.5,-359.697C123.5,-351.983 123.5,-342.712 123.5,-334.112"/>
<polygon fill="grey" stroke="grey" stroke-width="2" points="127,-334.104 123.5,-324.104 120,-334.104 127,-334.104"/>
</g>
</g>
</svg>
