<?xml version="1.0" encoding="UTF-8" standalone="no"?>
<!DOCTYPE svg PUBLIC "-//W3C//DTD SVG 1.1//EN"
 "http://www.w3.org/Graphics/SVG/1.1/DTD/svg11.dtd">
<!-- Generated by graphviz version 2.38.0 (20140413.2041)
 -->
<!-- Title: snakemake_dag Pages: 1 -->
<svg width="556pt" height="548pt"
 viewBox="0.00 0.00 555.50 548.00" xmlns="http://www.w3.org/2000/svg" xmlns:xlink="http://www.w3.org/1999/xlink">
<g id="graph0" class="graph" transform="scale(1 1) rotate(0) translate(4 544)">
<title>snakemake_dag</title>
<polygon fill="white" stroke="none" points="-4,4 -4,-544 551.5,-544 551.5,4 -4,4"/>
<!-- 0 -->
<g id="node1" class="node"><title>0</title>
<path fill="none" stroke="#d89556" stroke-width="2" d="M323,-36C323,-36 248,-36 248,-36 242,-36 236,-30 236,-24 236,-24 236,-12 236,-12 236,-6 242,-0 248,-0 248,-0 323,-0 323,-0 329,-0 335,-6 335,-12 335,-12 335,-24 335,-24 335,-30 329,-36 323,-36"/>
<text text-anchor="middle" x="285.5" y="-15.5" font-family="sans" font-size="10.00">calculate_cutoffs</text>
</g>
<!-- 1 -->
<g id="node2" class="node"><title>1</title>
<path fill="none" stroke="#56d8d8" stroke-width="2" d="M391,-180C391,-180 322,-180 322,-180 316,-180 310,-174 310,-168 310,-168 310,-156 310,-156 310,-150 316,-144 322,-144 322,-144 391,-144 391,-144 397,-144 403,-150 403,-156 403,-156 403,-168 403,-168 403,-174 397,-180 391,-180"/>
<text text-anchor="middle" x="356.5" y="-159.5" font-family="sans" font-size="10.00">parse_star_logs</text>
</g>
<!-- 1&#45;&gt;0 -->
<g id="edge5" class="edge"><title>1&#45;&gt;0</title>
<path fill="none" stroke="grey" stroke-width="2" d="M355.682,-143.962C354.166,-125.298 349.84,-94.9636 337.5,-72 331.79,-61.3734 323.305,-51.4334 314.837,-43.098"/>
<polygon fill="grey" stroke="grey" stroke-width="2" points="317.166,-40.4832 307.471,-36.2092 312.384,-45.5959 317.166,-40.4832"/>
</g>
<!-- 4 -->
<g id="node5" class="node"><title>4</title>
<path fill="none" stroke="#97d856" stroke-width="2" d="M316.5,-108C316.5,-108 254.5,-108 254.5,-108 248.5,-108 242.5,-102 242.5,-96 242.5,-96 242.5,-84 242.5,-84 242.5,-78 248.5,-72 254.5,-72 254.5,-72 316.5,-72 316.5,-72 322.5,-72 328.5,-78 328.5,-84 328.5,-84 328.5,-96 328.5,-96 328.5,-102 322.5,-108 316.5,-108"/>
<text text-anchor="middle" x="285.5" y="-87.5" font-family="sans" font-size="10.00">calculate_tpm</text>
</g>
<!-- 1&#45;&gt;4 -->
<g id="edge11" class="edge"><title>1&#45;&gt;4</title>
<path fill="none" stroke="grey" stroke-width="2" d="M338.949,-143.697C330.266,-135.135 319.637,-124.656 310.152,-115.304"/>
<polygon fill="grey" stroke="grey" stroke-width="2" points="312.427,-112.633 302.849,-108.104 307.512,-117.617 312.427,-112.633"/>
</g>
<!-- 2 -->
<g id="node3" class="node"><title>2</title>
<path fill="none" stroke="#d87556" stroke-width="2" d="M535.5,-108C535.5,-108 401.5,-108 401.5,-108 395.5,-108 389.5,-102 389.5,-96 389.5,-96 389.5,-84 389.5,-84 389.5,-78 395.5,-72 401.5,-72 401.5,-72 535.5,-72 535.5,-72 541.5,-72 547.5,-78 547.5,-84 547.5,-84 547.5,-96 547.5,-96 547.5,-102 541.5,-108 535.5,-108"/>
<text text-anchor="middle" x="468.5" y="-87.5" font-family="sans" font-size="10.00">combine_background_counts</text>
</g>
<!-- 2&#45;&gt;0 -->
<g id="edge1" class="edge"><title>2&#45;&gt;0</title>
<path fill="none" stroke="grey" stroke-width="2" d="M423.733,-71.8761C398.382,-62.1791 366.489,-49.9795 339.727,-39.7427"/>
<polygon fill="grey" stroke="grey" stroke-width="2" points="340.712,-36.3721 330.121,-36.0683 338.211,-42.9101 340.712,-36.3721"/>
</g>
<!-- 3 -->
<g id="node4" class="node"><title>3</title>
<path fill="none" stroke="#56d89a" stroke-width="2" d="M279.5,-180C279.5,-180 173.5,-180 173.5,-180 167.5,-180 161.5,-174 161.5,-168 161.5,-168 161.5,-156 161.5,-156 161.5,-150 167.5,-144 173.5,-144 173.5,-144 279.5,-144 279.5,-144 285.5,-144 291.5,-150 291.5,-156 291.5,-156 291.5,-168 291.5,-168 291.5,-174 285.5,-180 279.5,-180"/>
<text text-anchor="middle" x="226.5" y="-159.5" font-family="sans" font-size="10.00">generate_deseq_object</text>
</g>
<!-- 3&#45;&gt;0 -->
<g id="edge3" class="edge"><title>3&#45;&gt;0</title>
<path fill="none" stroke="grey" stroke-width="2" d="M224.482,-143.742C223.058,-125.153 222.969,-95.1343 233.5,-72 238.457,-61.1111 246.654,-51.1513 255.091,-42.8782"/>
<polygon fill="grey" stroke="grey" stroke-width="2" points="257.508,-45.4106 262.492,-36.0611 252.765,-40.2621 257.508,-45.4106"/>
</g>
<!-- 3&#45;&gt;4 -->
<g id="edge9" class="edge"><title>3&#45;&gt;4</title>
<path fill="none" stroke="grey" stroke-width="2" d="M241.084,-143.697C248.158,-135.305 256.783,-125.07 264.545,-115.861"/>
<polygon fill="grey" stroke="grey" stroke-width="2" points="267.315,-118.006 271.083,-108.104 261.963,-113.495 267.315,-118.006"/>
</g>
<!-- 4&#45;&gt;0 -->
<g id="edge2" class="edge"><title>4&#45;&gt;0</title>
<path fill="none" stroke="grey" stroke-width="2" d="M285.5,-71.6966C285.5,-63.9827 285.5,-54.7125 285.5,-46.1124"/>
<polygon fill="grey" stroke="grey" stroke-width="2" points="289,-46.1043 285.5,-36.1043 282,-46.1044 289,-46.1043"/>
</g>
<!-- 5 -->
<g id="node6" class="node"><title>5</title>
<path fill="none" stroke="#56d8b9" stroke-width="2" d="M131,-180C131,-180 12,-180 12,-180 6,-180 0,-174 0,-168 0,-168 0,-156 0,-156 0,-150 6,-144 12,-144 12,-144 131,-144 131,-144 137,-144 143,-150 143,-156 143,-156 143,-168 143,-168 143,-174 137,-180 131,-180"/>
<text text-anchor="middle" x="71.5" y="-159.5" font-family="sans" font-size="10.00">calculate_feature_lengths</text>
</g>
<!-- 5&#45;&gt;0 -->
<g id="edge4" class="edge"><title>5&#45;&gt;0</title>
<path fill="none" stroke="grey" stroke-width="2" d="M97.3134,-143.871C135.794,-118.338 208.26,-70.253 251.168,-41.7808"/>
<polygon fill="grey" stroke="grey" stroke-width="2" points="253.198,-44.6347 259.595,-36.1893 249.327,-38.802 253.198,-44.6347"/>
</g>
<!-- 5&#45;&gt;4 -->
<g id="edge10" class="edge"><title>5&#45;&gt;4</title>
<path fill="none" stroke="grey" stroke-width="2" d="M123.577,-143.966C156.682,-133.137 199.412,-119.16 232.663,-108.283"/>
<polygon fill="grey" stroke="grey" stroke-width="2" points="233.799,-111.594 242.215,-105.159 231.622,-104.941 233.799,-111.594"/>
</g>
<!-- 6 -->
<g id="node7" class="node"><title>6</title>
<path fill="none" stroke="#d6d856" stroke-width="2" d="M387,-252C387,-252 312,-252 312,-252 306,-252 300,-246 300,-240 300,-240 300,-228 300,-228 300,-222 306,-216 312,-216 312,-216 387,-216 387,-216 393,-216 399,-222 399,-228 399,-228 399,-240 399,-240 399,-246 393,-252 387,-252"/>
<text text-anchor="middle" x="349.5" y="-231.5" font-family="sans" font-size="10.00">second_mapping</text>
</g>
<!-- 6&#45;&gt;1 -->
<g id="edge6" class="edge"><title>6&#45;&gt;1</title>
<path fill="none" stroke="grey" stroke-width="2" d="M351.23,-215.697C352.002,-207.983 352.929,-198.712 353.789,-190.112"/>
<polygon fill="grey" stroke="grey" stroke-width="2" points="357.277,-190.403 354.79,-180.104 350.312,-189.706 357.277,-190.403"/>
</g>
<!-- 6&#45;&gt;3 -->
<g id="edge8" class="edge"><title>6&#45;&gt;3</title>
<path fill="none" stroke="grey" stroke-width="2" d="M319.411,-215.876C303.18,-206.639 282.958,-195.131 265.529,-185.212"/>
<polygon fill="grey" stroke="grey" stroke-width="2" points="267.127,-182.094 256.705,-180.19 263.665,-188.178 267.127,-182.094"/>
</g>
<!-- 7 -->
<g id="node8" class="node"><title>7</title>
<path fill="none" stroke="#567bd8" stroke-width="2" d="M515.5,-180C515.5,-180 433.5,-180 433.5,-180 427.5,-180 421.5,-174 421.5,-168 421.5,-168 421.5,-156 421.5,-156 421.5,-150 427.5,-144 433.5,-144 433.5,-144 515.5,-144 515.5,-144 521.5,-144 527.5,-150 527.5,-156 527.5,-156 527.5,-168 527.5,-168 527.5,-174 521.5,-180 515.5,-180"/>
<text text-anchor="middle" x="474.5" y="-159.5" font-family="sans" font-size="10.00">count_background</text>
</g>
<!-- 6&#45;&gt;7 -->
<g id="edge17" class="edge"><title>6&#45;&gt;7</title>
<path fill="none" stroke="grey" stroke-width="2" d="M380.078,-215.876C396.574,-206.639 417.124,-195.131 434.836,-185.212"/>
<polygon fill="grey" stroke="grey" stroke-width="2" points="436.789,-188.13 443.804,-180.19 433.369,-182.022 436.789,-188.13"/>
</g>
<!-- 7&#45;&gt;2 -->
<g id="edge7" class="edge"><title>7&#45;&gt;2</title>
<path fill="none" stroke="grey" stroke-width="2" d="M473.017,-143.697C472.356,-135.983 471.561,-126.712 470.824,-118.112"/>
<polygon fill="grey" stroke="grey" stroke-width="2" points="474.307,-117.769 469.966,-108.104 467.333,-118.367 474.307,-117.769"/>
</g>
<!-- 8 -->
<g id="node9" class="node"><title>8</title>
<path fill="none" stroke="#56d87b" stroke-width="2" d="M421,-468C421,-468 366,-468 366,-468 360,-468 354,-462 354,-456 354,-456 354,-444 354,-444 354,-438 360,-432 366,-432 366,-432 421,-432 421,-432 427,-432 433,-438 433,-444 433,-444 433,-456 433,-456 433,-462 427,-468 421,-468"/>
<text text-anchor="middle" x="393.5" y="-447.5" font-family="sans" font-size="10.00">generate_gtf</text>
</g>
<!-- 8&#45;&gt;5 -->
<g id="edge12" class="edge"><title>8&#45;&gt;5</title>
<path fill="none" stroke="grey" stroke-width="2" d="M353.977,-441.163C322.795,-433.527 279.388,-419.547 247.5,-396 169.477,-338.387 109.774,-236.752 84.5862,-189.072"/>
<polygon fill="grey" stroke="grey" stroke-width="2" points="87.5965,-187.275 79.877,-180.018 81.3862,-190.505 87.5965,-187.275"/>
</g>
<!-- 11 -->
<g id="node12" class="node"><title>11</title>
<path fill="none" stroke="#d8b456" stroke-width="2" d="M434,-396C434,-396 353,-396 353,-396 347,-396 341,-390 341,-384 341,-384 341,-372 341,-372 341,-366 347,-360 353,-360 353,-360 434,-360 434,-360 440,-360 446,-366 446,-372 446,-372 446,-384 446,-384 446,-390 440,-396 434,-396"/>
<text text-anchor="middle" x="393.5" y="-375.5" font-family="sans" font-size="10.00">generate_genome</text>
</g>
<!-- 8&#45;&gt;11 -->
<g id="edge21" class="edge"><title>8&#45;&gt;11</title>
<path fill="none" stroke="grey" stroke-width="2" d="M393.5,-431.697C393.5,-423.983 393.5,-414.712 393.5,-406.112"/>
<polygon fill="grey" stroke="grey" stroke-width="2" points="397,-406.104 393.5,-396.104 390,-406.104 397,-406.104"/>
</g>
<!-- 12 -->
<g id="node13" class="node"><title>12</title>
<path fill="none" stroke="#78d856" stroke-width="2" d="M496.5,-324C496.5,-324 452.5,-324 452.5,-324 446.5,-324 440.5,-318 440.5,-312 440.5,-312 440.5,-300 440.5,-300 440.5,-294 446.5,-288 452.5,-288 452.5,-288 496.5,-288 496.5,-288 502.5,-288 508.5,-294 508.5,-300 508.5,-300 508.5,-312 508.5,-312 508.5,-318 502.5,-324 496.5,-324"/>
<text text-anchor="middle" x="474.5" y="-303.5" font-family="sans" font-size="10.00">shuffle_gtf</text>
</g>
<!-- 8&#45;&gt;12 -->
<g id="edge22" class="edge"><title>8&#45;&gt;12</title>
<path fill="none" stroke="grey" stroke-width="2" d="M420.169,-431.792C432.39,-422.585 446.014,-410.214 454.5,-396 465.698,-377.245 470.635,-352.864 472.807,-334.364"/>
<polygon fill="grey" stroke="grey" stroke-width="2" points="476.307,-334.53 473.793,-324.238 469.34,-333.851 476.307,-334.53"/>
</g>
<!-- 9 -->
<g id="node10" class="node"><title>9</title>
<path fill="none" stroke="#56b9d8" stroke-width="2" d="M372,-324C372,-324 313,-324 313,-324 307,-324 301,-318 301,-312 301,-312 301,-300 301,-300 301,-294 307,-288 313,-288 313,-288 372,-288 372,-288 378,-288 384,-294 384,-300 384,-300 384,-312 384,-312 384,-318 378,-324 372,-324"/>
<text text-anchor="middle" x="342.5" y="-303.5" font-family="sans" font-size="10.00">first_mapping</text>
</g>
<!-- 9&#45;&gt;6 -->
<g id="edge14" class="edge"><title>9&#45;&gt;6</title>
<path fill="none" stroke="grey" stroke-width="2" d="M344.23,-287.697C345.002,-279.983 345.929,-270.712 346.789,-262.112"/>
<polygon fill="grey" stroke="grey" stroke-width="2" points="350.277,-262.403 347.79,-252.104 343.312,-261.706 350.277,-262.403"/>
</g>
<!-- 10 -->
<g id="node11" class="node"><title>10</title>
<path fill="none" stroke="#d85656" stroke-width="2" d="M298.5,-396C298.5,-396 268.5,-396 268.5,-396 262.5,-396 256.5,-390 256.5,-384 256.5,-384 256.5,-372 256.5,-372 256.5,-366 262.5,-360 268.5,-360 268.5,-360 298.5,-360 298.5,-360 304.5,-360 310.5,-366 310.5,-372 310.5,-372 310.5,-384 310.5,-384 310.5,-390 304.5,-396 298.5,-396"/>
<text text-anchor="middle" x="283.5" y="-375.5" font-family="sans" font-size="10.00">gzip</text>
</g>
<!-- 10&#45;&gt;6 -->
<g id="edge13" class="edge"><title>10&#45;&gt;6</title>
<path fill="none" stroke="grey" stroke-width="2" d="M281.506,-359.952C280.097,-341.279 280.135,-310.936 291.5,-288 297.083,-276.733 306.166,-266.707 315.505,-258.49"/>
<polygon fill="grey" stroke="grey" stroke-width="2" points="317.853,-261.091 323.338,-252.026 313.398,-255.692 317.853,-261.091"/>
</g>
<!-- 10&#45;&gt;9 -->
<g id="edge18" class="edge"><title>10&#45;&gt;9</title>
<path fill="none" stroke="grey" stroke-width="2" d="M298.084,-359.697C305.158,-351.305 313.783,-341.07 321.545,-331.861"/>
<polygon fill="grey" stroke="grey" stroke-width="2" points="324.315,-334.006 328.083,-324.104 318.963,-329.495 324.315,-334.006"/>
</g>
<!-- 11&#45;&gt;6 -->
<g id="edge15" class="edge"><title>11&#45;&gt;6</title>
<path fill="none" stroke="grey" stroke-width="2" d="M396.586,-359.677C399.119,-341.295 401.052,-311.691 392.5,-288 388.781,-277.696 382.139,-267.922 375.172,-259.639"/>
<polygon fill="grey" stroke="grey" stroke-width="2" points="377.763,-257.286 368.476,-252.186 372.555,-261.964 377.763,-257.286"/>
</g>
<!-- 11&#45;&gt;9 -->
<g id="edge19" class="edge"><title>11&#45;&gt;9</title>
<path fill="none" stroke="grey" stroke-width="2" d="M380.893,-359.697C374.903,-351.474 367.624,-341.483 361.021,-332.421"/>
<polygon fill="grey" stroke="grey" stroke-width="2" points="363.679,-330.126 354.962,-324.104 358.022,-334.248 363.679,-330.126"/>
</g>
<!-- 11&#45;&gt;12 -->
<g id="edge23" class="edge"><title>11&#45;&gt;12</title>
<path fill="none" stroke="grey" stroke-width="2" d="M413.522,-359.697C423.626,-350.965 436.036,-340.24 447.018,-330.75"/>
<polygon fill="grey" stroke="grey" stroke-width="2" points="449.43,-333.291 454.708,-324.104 444.853,-327.995 449.43,-333.291"/>
</g>
<!-- 12&#45;&gt;7 -->
<g id="edge16" class="edge"><title>12&#45;&gt;7</title>
<path fill="none" stroke="grey" stroke-width="2" d="M474.5,-287.871C474.5,-263.67 474.5,-219.211 474.5,-190.393"/>
<polygon fill="grey" stroke="grey" stroke-width="2" points="478,-190.189 474.5,-180.189 471,-190.189 478,-190.189"/>
</g>
<!-- 13 -->
<g id="node14" class="node"><title>13</title>
<path fill="none" stroke="#59d856" stroke-width="2" d="M301,-468C301,-468 266,-468 266,-468 260,-468 254,-462 254,-456 254,-456 254,-444 254,-444 254,-438 260,-432 266,-432 266,-432 301,-432 301,-432 307,-432 313,-438 313,-444 313,-444 313,-456 313,-456 313,-462 307,-468 301,-468"/>
<text text-anchor="middle" x="283.5" y="-447.5" font-family="sans" font-size="10.00">cutadapt</text>
</g>
<!-- 13&#45;&gt;10 -->
<g id="edge20" class="edge"><title>13&#45;&gt;10</title>
<path fill="none" stroke="grey" stroke-width="2" d="M283.5,-431.697C283.5,-423.983 283.5,-414.712 283.5,-406.112"/>
<polygon fill="grey" stroke="grey" stroke-width="2" points="287,-406.104 283.5,-396.104 280,-406.104 287,-406.104"/>
</g>
<!-- 14 -->
<g id="node15" class="node"><title>14</title>
<path fill="none" stroke="#b6d856" stroke-width="2" d="M298.5,-540C298.5,-540 268.5,-540 268.5,-540 262.5,-540 256.5,-534 256.5,-528 256.5,-528 256.5,-516 256.5,-516 256.5,-510 262.5,-504 268.5,-504 268.5,-504 298.5,-504 298.5,-504 304.5,-504 310.5,-510 310.5,-516 310.5,-516 310.5,-528 310.5,-528 310.5,-534 304.5,-540 298.5,-540"/>
<text text-anchor="middle" x="283.5" y="-519.5" font-family="sans" font-size="10.00">repair</text>
</g>
<!-- 14&#45;&gt;13 -->
<g id="edge24" class="edge"><title>14&#45;&gt;13</title>
<path fill="none" stroke="grey" stroke-width="2" d="M283.5,-503.697C283.5,-495.983 283.5,-486.712 283.5,-478.112"/>
<polygon fill="grey" stroke="grey" stroke-width="2" points="287,-478.104 283.5,-468.104 280,-478.104 287,-478.104"/>
</g>
</g>
</svg>
