<?xml version="1.0" encoding="UTF-8" standalone="no"?>
<!DOCTYPE svg PUBLIC "-//W3C//DTD SVG 1.1//EN"
 "http://www.w3.org/Graphics/SVG/1.1/DTD/svg11.dtd">
<!-- Generated by graphviz version 2.40.1 (20161225.0304)
 -->
<!-- Title: snakemake_dag Pages: 1 -->
<svg width="1196pt" height="836pt"
 viewBox="0.00 0.00 1196.00 836.00" xmlns="http://www.w3.org/2000/svg" xmlns:xlink="http://www.w3.org/1999/xlink">
<g id="graph0" class="graph" transform="scale(1 1) rotate(0) translate(4 832)">
<title>snakemake_dag</title>
<polygon fill="#ffffff" stroke="transparent" points="-4,4 -4,-832 1192,-832 1192,4 -4,4"/>
<!-- 0 -->
<g id="node1" class="node">
<title>0</title>
<path fill="none" stroke="#bed856" stroke-width="2" d="M470,-108C470,-108 399,-108 399,-108 393,-108 387,-102 387,-96 387,-96 387,-84 387,-84 387,-78 393,-72 399,-72 399,-72 470,-72 470,-72 476,-72 482,-78 482,-84 482,-84 482,-96 482,-96 482,-102 476,-108 470,-108"/>
<text text-anchor="middle" x="434.5" y="-87.5" font-family="sans" font-size="10.00" fill="#000000">de_genes_stage</text>
</g>
<!-- 1 -->
<g id="node2" class="node">
<title>1</title>
<path fill="none" stroke="#56d8b9" stroke-width="2" d="M226,-396C226,-396 189,-396 189,-396 183,-396 177,-390 177,-384 177,-384 177,-372 177,-372 177,-366 183,-360 189,-360 189,-360 226,-360 226,-360 232,-360 238,-366 238,-372 238,-372 238,-384 238,-384 238,-390 232,-396 226,-396"/>
<text text-anchor="middle" x="207.5" y="-375.5" font-family="sans" font-size="10.00" fill="#000000">star_logs</text>
</g>
<!-- 2 -->
<g id="node3" class="node">
<title>2</title>
<path fill="none" stroke="#56d8c9" stroke-width="2" d="M565,-108C565,-108 516,-108 516,-108 510,-108 504,-102 504,-96 504,-96 504,-84 504,-84 504,-78 510,-72 516,-72 516,-72 565,-72 565,-72 571,-72 577,-78 577,-84 577,-84 577,-96 577,-96 577,-102 571,-108 565,-108"/>
<text text-anchor="middle" x="540.5" y="-87.5" font-family="sans" font-size="10.00" fill="#000000">dom_genes</text>
</g>
<!-- 3 -->
<g id="node4" class="node">
<title>3</title>
<path fill="none" stroke="#61d856" stroke-width="2" d="M715.5,-324C715.5,-324 623.5,-324 623.5,-324 617.5,-324 611.5,-318 611.5,-312 611.5,-312 611.5,-300 611.5,-300 611.5,-294 617.5,-288 623.5,-288 623.5,-288 715.5,-288 715.5,-288 721.5,-288 727.5,-294 727.5,-300 727.5,-300 727.5,-312 727.5,-312 727.5,-318 721.5,-324 715.5,-324"/>
<text text-anchor="middle" x="669.5" y="-303.5" font-family="sans" font-size="10.00" fill="#000000">mads_ap2_heatmap</text>
</g>
<!-- 4 -->
<g id="node5" class="node">
<title>4</title>
<path fill="none" stroke="#56d87b" stroke-width="2" d="M1176,-36C1176,-36 1109,-36 1109,-36 1103,-36 1097,-30 1097,-24 1097,-24 1097,-12 1097,-12 1097,-6 1103,0 1109,0 1109,0 1176,0 1176,0 1182,0 1188,-6 1188,-12 1188,-12 1188,-24 1188,-24 1188,-30 1182,-36 1176,-36"/>
<text text-anchor="middle" x="1142.5" y="-15.5" font-family="sans" font-size="10.00" fill="#000000">phenotype_pca</text>
</g>
<!-- 5 -->
<g id="node6" class="node">
<title>5</title>
<path fill="none" stroke="#d88d56" stroke-width="2" d="M894.5,-108C894.5,-108 822.5,-108 822.5,-108 816.5,-108 810.5,-102 810.5,-96 810.5,-96 810.5,-84 810.5,-84 810.5,-78 816.5,-72 822.5,-72 822.5,-72 894.5,-72 894.5,-72 900.5,-72 906.5,-78 906.5,-84 906.5,-84 906.5,-96 906.5,-96 906.5,-102 900.5,-108 894.5,-108"/>
<text text-anchor="middle" x="858.5" y="-87.5" font-family="sans" font-size="10.00" fill="#000000">clustered_genes</text>
</g>
<!-- 6 -->
<g id="node7" class="node">
<title>6</title>
<path fill="none" stroke="#97d856" stroke-width="2" d="M704,-108C704,-108 607,-108 607,-108 601,-108 595,-102 595,-96 595,-96 595,-84 595,-84 595,-78 601,-72 607,-72 607,-72 704,-72 704,-72 710,-72 716,-78 716,-84 716,-84 716,-96 716,-96 716,-102 710,-108 704,-108"/>
<text text-anchor="middle" x="655.5" y="-87.5" font-family="sans" font-size="10.00" fill="#000000">de_genes_interaction</text>
</g>
<!-- 7 -->
<g id="node8" class="node">
<title>7</title>
<path fill="none" stroke="#78d856" stroke-width="2" d="M581,-324C581,-324 498,-324 498,-324 492,-324 486,-318 486,-312 486,-312 486,-300 486,-300 486,-294 492,-288 498,-288 498,-288 581,-288 581,-288 587,-288 593,-294 593,-300 593,-300 593,-312 593,-312 593,-318 587,-324 581,-324"/>
<text text-anchor="middle" x="539.5" y="-303.5" font-family="sans" font-size="10.00" fill="#000000">transcriptome_pca</text>
</g>
<!-- 8 -->
<g id="node9" class="node">
<title>8</title>
<path fill="none" stroke="#5682d8" stroke-width="2" d="M836,-36C836,-36 729,-36 729,-36 723,-36 717,-30 717,-24 717,-24 717,-12 717,-12 717,-6 723,0 729,0 729,0 836,0 836,0 842,0 848,-6 848,-12 848,-12 848,-24 848,-24 848,-30 842,-36 836,-36"/>
<text text-anchor="middle" x="782.5" y="-15.5" font-family="sans" font-size="10.00" fill="#000000">cluster_phenotype_corr</text>
</g>
<!-- 9 -->
<g id="node10" class="node">
<title>9</title>
<path fill="none" stroke="#567bd8" stroke-width="2" d="M579,-180C579,-180 496,-180 496,-180 490,-180 484,-174 484,-168 484,-168 484,-156 484,-156 484,-150 490,-144 496,-144 496,-144 579,-144 579,-144 585,-144 591,-150 591,-156 591,-156 591,-168 591,-168 591,-174 585,-180 579,-180"/>
<text text-anchor="middle" x="537.5" y="-159.5" font-family="sans" font-size="10.00" fill="#000000">distance_heatmap</text>
</g>
<!-- 10 -->
<g id="node11" class="node">
<title>10</title>
<path fill="none" stroke="#d8b456" stroke-width="2" d="M279.5,-828C279.5,-828 205.5,-828 205.5,-828 199.5,-828 193.5,-822 193.5,-816 193.5,-816 193.5,-804 193.5,-804 193.5,-798 199.5,-792 205.5,-792 205.5,-792 279.5,-792 279.5,-792 285.5,-792 291.5,-798 291.5,-804 291.5,-804 291.5,-816 291.5,-816 291.5,-822 285.5,-828 279.5,-828"/>
<text text-anchor="middle" x="242.5" y="-807.5" font-family="sans" font-size="10.00" fill="#000000">panicle_mutants</text>
</g>
<!-- 11 -->
<g id="node12" class="node">
<title>11</title>
<path fill="none" stroke="#d8d356" stroke-width="2" d="M399,-828C399,-828 322,-828 322,-828 316,-828 310,-822 310,-816 310,-816 310,-804 310,-804 310,-798 316,-792 322,-792 322,-792 399,-792 399,-792 405,-792 411,-798 411,-804 411,-804 411,-816 411,-816 411,-822 405,-828 399,-828"/>
<text text-anchor="middle" x="360.5" y="-807.5" font-family="sans" font-size="10.00" fill="#000000">phenotyping_mpl</text>
</g>
<!-- 12 -->
<g id="node13" class="node">
<title>12</title>
<path fill="none" stroke="#d89c56" stroke-width="2" d="M454,-180C454,-180 415,-180 415,-180 409,-180 403,-174 403,-168 403,-168 403,-156 403,-156 403,-150 409,-144 415,-144 415,-144 454,-144 454,-144 460,-144 466,-150 466,-156 466,-156 466,-168 466,-168 466,-174 460,-180 454,-180"/>
<text text-anchor="middle" x="434.5" y="-159.5" font-family="sans" font-size="10.00" fill="#000000">deseq_all</text>
</g>
<!-- 12&#45;&gt;0 -->
<g id="edge1" class="edge">
<title>12&#45;&gt;0</title>
<path fill="none" stroke="#c0c0c0" stroke-width="2" d="M434.5,-143.8314C434.5,-136.131 434.5,-126.9743 434.5,-118.4166"/>
<polygon fill="#c0c0c0" stroke="#c0c0c0" stroke-width="2" points="438.0001,-118.4132 434.5,-108.4133 431.0001,-118.4133 438.0001,-118.4132"/>
</g>
<!-- 13 -->
<g id="node14" class="node">
<title>13</title>
<path fill="none" stroke="#d88556" stroke-width="2" d="M242,-468C242,-468 173,-468 173,-468 167,-468 161,-462 161,-456 161,-456 161,-444 161,-444 161,-438 167,-432 173,-432 173,-432 242,-432 242,-432 248,-432 254,-438 254,-444 254,-444 254,-456 254,-456 254,-462 248,-468 242,-468"/>
<text text-anchor="middle" x="207.5" y="-447.5" font-family="sans" font-size="10.00" fill="#000000">parse_star_logs</text>
</g>
<!-- 13&#45;&gt;1 -->
<g id="edge2" class="edge">
<title>13&#45;&gt;1</title>
<path fill="none" stroke="#c0c0c0" stroke-width="2" d="M207.5,-431.8314C207.5,-424.131 207.5,-414.9743 207.5,-406.4166"/>
<polygon fill="#c0c0c0" stroke="#c0c0c0" stroke-width="2" points="211.0001,-406.4132 207.5,-396.4133 204.0001,-406.4133 211.0001,-406.4132"/>
</g>
<!-- 23 -->
<g id="node24" class="node">
<title>23</title>
<path fill="none" stroke="#569ad8" stroke-width="2" d="M387,-324C387,-324 312,-324 312,-324 306,-324 300,-318 300,-312 300,-312 300,-300 300,-300 300,-294 306,-288 312,-288 312,-288 387,-288 387,-288 393,-288 399,-294 399,-300 399,-300 399,-312 399,-312 399,-318 393,-324 387,-324"/>
<text text-anchor="middle" x="349.5" y="-303.5" font-family="sans" font-size="10.00" fill="#000000">calculate_cutoffs</text>
</g>
<!-- 13&#45;&gt;23 -->
<g id="edge32" class="edge">
<title>13&#45;&gt;23</title>
<path fill="none" stroke="#c0c0c0" stroke-width="2" d="M188.8984,-431.8401C171.604,-412.715 150.8292,-382.3354 167.5,-360 182.362,-340.0881 242.8499,-324.8995 290.0642,-315.7775"/>
<polygon fill="#c0c0c0" stroke="#c0c0c0" stroke-width="2" points="290.7363,-319.2125 299.9166,-313.9235 289.4418,-312.3333 290.7363,-319.2125"/>
</g>
<!-- 29 -->
<g id="node30" class="node">
<title>29</title>
<path fill="none" stroke="#59d856" stroke-width="2" d="M108.5,-396C108.5,-396 46.5,-396 46.5,-396 40.5,-396 34.5,-390 34.5,-384 34.5,-384 34.5,-372 34.5,-372 34.5,-366 40.5,-360 46.5,-360 46.5,-360 108.5,-360 108.5,-360 114.5,-360 120.5,-366 120.5,-372 120.5,-372 120.5,-384 120.5,-384 120.5,-390 114.5,-396 108.5,-396"/>
<text text-anchor="middle" x="77.5" y="-375.5" font-family="sans" font-size="10.00" fill="#000000">calculate_tpm</text>
</g>
<!-- 13&#45;&gt;29 -->
<g id="edge47" class="edge">
<title>13&#45;&gt;29</title>
<path fill="none" stroke="#c0c0c0" stroke-width="2" d="M174.6955,-431.8314C157.9138,-422.5368 137.3015,-411.1208 119.3837,-401.1971"/>
<polygon fill="#c0c0c0" stroke="#c0c0c0" stroke-width="2" points="120.7377,-397.9461 110.294,-396.1628 117.3462,-404.0696 120.7377,-397.9461"/>
</g>
<!-- 14 -->
<g id="node15" class="node">
<title>14</title>
<path fill="none" stroke="#d85656" stroke-width="2" d="M720.5,-180C720.5,-180 680.5,-180 680.5,-180 674.5,-180 668.5,-174 668.5,-168 668.5,-168 668.5,-156 668.5,-156 668.5,-150 674.5,-144 680.5,-144 680.5,-144 720.5,-144 720.5,-144 726.5,-144 732.5,-150 732.5,-156 732.5,-156 732.5,-168 732.5,-168 732.5,-174 726.5,-180 720.5,-180"/>
<text text-anchor="middle" x="700.5" y="-159.5" font-family="sans" font-size="10.00" fill="#000000">deseq_tfs</text>
</g>
<!-- 14&#45;&gt;2 -->
<g id="edge3" class="edge">
<title>14&#45;&gt;2</title>
<path fill="none" stroke="#c0c0c0" stroke-width="2" d="M668.1216,-147.4297C644.6184,-136.8533 612.4931,-122.3969 586.3544,-110.6345"/>
<polygon fill="#c0c0c0" stroke="#c0c0c0" stroke-width="2" points="587.5779,-107.347 577.0223,-106.4351 584.7053,-113.7305 587.5779,-107.347"/>
</g>
<!-- 14&#45;&gt;6 -->
<g id="edge11" class="edge">
<title>14&#45;&gt;6</title>
<path fill="none" stroke="#c0c0c0" stroke-width="2" d="M689.1446,-143.8314C684.0674,-135.7079 677.9773,-125.9637 672.3824,-117.0118"/>
<polygon fill="#c0c0c0" stroke="#c0c0c0" stroke-width="2" points="675.2763,-115.0383 667.0083,-108.4133 669.3403,-118.7483 675.2763,-115.0383"/>
</g>
<!-- 14&#45;&gt;8 -->
<g id="edge13" class="edge">
<title>14&#45;&gt;8</title>
<path fill="none" stroke="#c0c0c0" stroke-width="2" d="M710.8854,-143.7623C725.1181,-118.7682 750.7863,-73.6924 767.2156,-44.8409"/>
<polygon fill="#c0c0c0" stroke="#c0c0c0" stroke-width="2" points="770.292,-46.5114 772.199,-36.0896 764.2091,-43.0475 770.292,-46.5114"/>
</g>
<!-- 15 -->
<g id="node16" class="node">
<title>15</title>
<path fill="none" stroke="#d8c356" stroke-width="2" d="M553.5,-396C553.5,-396 519.5,-396 519.5,-396 513.5,-396 507.5,-390 507.5,-384 507.5,-384 507.5,-372 507.5,-372 507.5,-366 513.5,-360 519.5,-360 519.5,-360 553.5,-360 553.5,-360 559.5,-360 565.5,-366 565.5,-372 565.5,-372 565.5,-384 565.5,-384 565.5,-390 559.5,-396 553.5,-396"/>
<text text-anchor="middle" x="536.5" y="-375.5" font-family="sans" font-size="10.00" fill="#000000">rlog_pca</text>
</g>
<!-- 15&#45;&gt;3 -->
<g id="edge6" class="edge">
<title>15&#45;&gt;3</title>
<path fill="none" stroke="#c0c0c0" stroke-width="2" d="M565.6874,-362.1993C583.7239,-352.4352 607.1748,-339.7399 627.2234,-328.8866"/>
<polygon fill="#c0c0c0" stroke="#c0c0c0" stroke-width="2" points="629.0359,-331.8854 636.1637,-324.0467 625.7034,-325.7295 629.0359,-331.8854"/>
</g>
<!-- 15&#45;&gt;7 -->
<g id="edge12" class="edge">
<title>15&#45;&gt;7</title>
<path fill="none" stroke="#c0c0c0" stroke-width="2" d="M537.257,-359.8314C537.5779,-352.131 537.9594,-342.9743 538.316,-334.4166"/>
<polygon fill="#c0c0c0" stroke="#c0c0c0" stroke-width="2" points="541.8133,-334.5503 538.7328,-324.4133 534.8194,-334.2589 541.8133,-334.5503"/>
</g>
<!-- 16 -->
<g id="node17" class="node">
<title>16</title>
<path fill="none" stroke="#56d8b1" stroke-width="2" d="M532.5,-468C532.5,-468 426.5,-468 426.5,-468 420.5,-468 414.5,-462 414.5,-456 414.5,-456 414.5,-444 414.5,-444 414.5,-438 420.5,-432 426.5,-432 426.5,-432 532.5,-432 532.5,-432 538.5,-432 544.5,-438 544.5,-444 544.5,-444 544.5,-456 544.5,-456 544.5,-462 538.5,-468 532.5,-468"/>
<text text-anchor="middle" x="479.5" y="-447.5" font-family="sans" font-size="10.00" fill="#000000">generate_deseq_object</text>
</g>
<!-- 16&#45;&gt;3 -->
<g id="edge5" class="edge">
<title>16&#45;&gt;3</title>
<path fill="none" stroke="#c0c0c0" stroke-width="2" d="M515.9595,-431.9464C534.1903,-422.2644 556.2076,-409.5521 574.5,-396 578.2384,-393.2304 616.0983,-357.147 642.8764,-331.5226"/>
<polygon fill="#c0c0c0" stroke="#c0c0c0" stroke-width="2" points="645.6362,-333.7258 650.439,-324.2821 640.7953,-328.6696 645.6362,-333.7258"/>
</g>
<!-- 16&#45;&gt;15 -->
<g id="edge22" class="edge">
<title>16&#45;&gt;15</title>
<path fill="none" stroke="#c0c0c0" stroke-width="2" d="M493.8835,-431.8314C500.4486,-423.5386 508.3507,-413.557 515.5578,-404.4533"/>
<polygon fill="#c0c0c0" stroke="#c0c0c0" stroke-width="2" points="518.4599,-406.4262 521.9228,-396.4133 512.9716,-402.0813 518.4599,-406.4262"/>
</g>
<!-- 16&#45;&gt;23 -->
<g id="edge34" class="edge">
<title>16&#45;&gt;23</title>
<path fill="none" stroke="#c0c0c0" stroke-width="2" d="M470.5273,-431.7365C460.5266,-412.525 443.0325,-382.0739 422.5,-360 412.2188,-348.9469 399.4151,-338.6073 387.4146,-329.9938"/>
<polygon fill="#c0c0c0" stroke="#c0c0c0" stroke-width="2" points="389.0724,-326.8833 378.8658,-324.0415 385.0725,-332.628 389.0724,-326.8833"/>
</g>
<!-- 24 -->
<g id="node25" class="node">
<title>24</title>
<path fill="none" stroke="#8fd856" stroke-width="2" d="M492,-252C492,-252 407,-252 407,-252 401,-252 395,-246 395,-240 395,-240 395,-228 395,-228 395,-222 401,-216 407,-216 407,-216 492,-216 492,-216 498,-216 504,-222 504,-228 504,-228 504,-240 504,-240 504,-246 498,-252 492,-252"/>
<text text-anchor="middle" x="449.5" y="-231.5" font-family="sans" font-size="10.00" fill="#000000">filter_deseq_object</text>
</g>
<!-- 16&#45;&gt;24 -->
<g id="edge35" class="edge">
<title>16&#45;&gt;24</title>
<path fill="none" stroke="#c0c0c0" stroke-width="2" d="M476.9938,-431.9555C471.7659,-394.3144 459.6648,-307.1867 453.4062,-262.1246"/>
<polygon fill="#c0c0c0" stroke="#c0c0c0" stroke-width="2" points="456.8626,-261.5685 452.0201,-252.1451 449.9292,-262.5315 456.8626,-261.5685"/>
</g>
<!-- 26 -->
<g id="node27" class="node">
<title>26</title>
<path fill="none" stroke="#d87556" stroke-width="2" d="M775,-252C775,-252 742,-252 742,-252 736,-252 730,-246 730,-240 730,-240 730,-228 730,-228 730,-222 736,-216 742,-216 742,-216 775,-216 775,-216 781,-216 787,-222 787,-228 787,-228 787,-240 787,-240 787,-246 781,-252 775,-252"/>
<text text-anchor="middle" x="758.5" y="-231.5" font-family="sans" font-size="10.00" fill="#000000">filter_tfs</text>
</g>
<!-- 16&#45;&gt;26 -->
<g id="edge40" class="edge">
<title>16&#45;&gt;26</title>
<path fill="none" stroke="#c0c0c0" stroke-width="2" d="M544.7748,-443.6611C634.7979,-434.2511 787.9045,-415.5805 804.5,-396 837.6979,-356.8311 803.7002,-295.1647 779.077,-260.3006"/>
<polygon fill="#c0c0c0" stroke="#c0c0c0" stroke-width="2" points="781.7811,-258.0682 773.0654,-252.0443 776.1222,-262.1886 781.7811,-258.0682"/>
</g>
<!-- 16&#45;&gt;29 -->
<g id="edge45" class="edge">
<title>16&#45;&gt;29</title>
<path fill="none" stroke="#c0c0c0" stroke-width="2" d="M414.4784,-436.2115C407.0752,-434.7414 399.6304,-433.3074 392.5,-432 292.8886,-413.7362 267.1713,-413.9339 167.5,-396 155.6155,-393.8616 142.8806,-391.4119 130.8402,-389.0227"/>
<polygon fill="#c0c0c0" stroke="#c0c0c0" stroke-width="2" points="131.4159,-385.5685 120.9235,-387.038 130.0422,-392.4324 131.4159,-385.5685"/>
</g>
<!-- 17 -->
<g id="node18" class="node">
<title>17</title>
<path fill="none" stroke="#566bd8" stroke-width="2" d="M783.5,-396C783.5,-396 733.5,-396 733.5,-396 727.5,-396 721.5,-390 721.5,-384 721.5,-384 721.5,-372 721.5,-372 721.5,-366 727.5,-360 733.5,-360 733.5,-360 783.5,-360 783.5,-360 789.5,-360 795.5,-366 795.5,-372 795.5,-372 795.5,-384 795.5,-384 795.5,-390 789.5,-396 783.5,-396"/>
<text text-anchor="middle" x="758.5" y="-375.5" font-family="sans" font-size="10.00" fill="#000000">format_tfdb</text>
</g>
<!-- 17&#45;&gt;3 -->
<g id="edge4" class="edge">
<title>17&#45;&gt;3</title>
<path fill="none" stroke="#c0c0c0" stroke-width="2" d="M736.0415,-359.8314C725.0795,-350.9632 711.7301,-340.1637 699.8735,-330.5718"/>
<polygon fill="#c0c0c0" stroke="#c0c0c0" stroke-width="2" points="701.9271,-327.7313 691.9513,-324.1628 697.5245,-333.1734 701.9271,-327.7313"/>
</g>
<!-- 21 -->
<g id="node22" class="node">
<title>21</title>
<path fill="none" stroke="#56d863" stroke-width="2" d="M880,-180C880,-180 839,-180 839,-180 833,-180 827,-174 827,-168 827,-168 827,-156 827,-156 827,-150 833,-144 839,-144 839,-144 880,-144 880,-144 886,-144 892,-150 892,-156 892,-156 892,-168 892,-168 892,-174 886,-180 880,-180"/>
<text text-anchor="middle" x="859.5" y="-159.5" font-family="sans" font-size="10.00" fill="#000000">mfuzz_tfs</text>
</g>
<!-- 17&#45;&gt;21 -->
<g id="edge26" class="edge">
<title>17&#45;&gt;21</title>
<path fill="none" stroke="#c0c0c0" stroke-width="2" d="M766.9375,-359.9555C784.6496,-322.0762 825.7951,-234.0818 846.7469,-189.274"/>
<polygon fill="#c0c0c0" stroke="#c0c0c0" stroke-width="2" points="849.9502,-190.6862 851.0155,-180.1451 843.6092,-187.7212 849.9502,-190.6862"/>
</g>
<!-- 17&#45;&gt;26 -->
<g id="edge42" class="edge">
<title>17&#45;&gt;26</title>
<path fill="none" stroke="#c0c0c0" stroke-width="2" d="M758.5,-359.7623C758.5,-335.201 758.5,-291.2474 758.5,-262.3541"/>
<polygon fill="#c0c0c0" stroke="#c0c0c0" stroke-width="2" points="762.0001,-262.0896 758.5,-252.0896 755.0001,-262.0897 762.0001,-262.0896"/>
</g>
<!-- 18 -->
<g id="node19" class="node">
<title>18</title>
<path fill="none" stroke="#afd856" stroke-width="2" d="M691,-396C691,-396 634,-396 634,-396 628,-396 622,-390 622,-384 622,-384 622,-372 622,-372 622,-366 628,-360 634,-360 634,-360 691,-360 691,-360 697,-360 703,-366 703,-372 703,-372 703,-384 703,-384 703,-390 697,-396 691,-396"/>
<text text-anchor="middle" x="662.5" y="-375.5" font-family="sans" font-size="10.00" fill="#000000">tfdb_families</text>
</g>
<!-- 18&#45;&gt;3 -->
<g id="edge7" class="edge">
<title>18&#45;&gt;3</title>
<path fill="none" stroke="#c0c0c0" stroke-width="2" d="M664.2664,-359.8314C665.015,-352.131 665.9053,-342.9743 666.7373,-334.4166"/>
<polygon fill="#c0c0c0" stroke="#c0c0c0" stroke-width="2" points="670.2256,-334.7051 667.7098,-324.4133 663.2585,-334.0276 670.2256,-334.7051"/>
</g>
<!-- 19 -->
<g id="node20" class="node">
<title>19</title>
<path fill="none" stroke="#56d0d8" stroke-width="2" d="M1130.5,-108C1130.5,-108 1098.5,-108 1098.5,-108 1092.5,-108 1086.5,-102 1086.5,-96 1086.5,-96 1086.5,-84 1086.5,-84 1086.5,-78 1092.5,-72 1098.5,-72 1098.5,-72 1130.5,-72 1130.5,-72 1136.5,-72 1142.5,-78 1142.5,-84 1142.5,-84 1142.5,-96 1142.5,-96 1142.5,-102 1136.5,-108 1130.5,-108"/>
<text text-anchor="middle" x="1114.5" y="-87.5" font-family="sans" font-size="10.00" fill="#000000">cali_pca</text>
</g>
<!-- 19&#45;&gt;4 -->
<g id="edge8" class="edge">
<title>19&#45;&gt;4</title>
<path fill="none" stroke="#c0c0c0" stroke-width="2" d="M1121.5656,-71.8314C1124.626,-63.9617 1128.2779,-54.5712 1131.6682,-45.8533"/>
<polygon fill="#c0c0c0" stroke="#c0c0c0" stroke-width="2" points="1134.9768,-47.0019 1135.3393,-36.4133 1128.4527,-44.4647 1134.9768,-47.0019"/>
</g>
<!-- 19&#45;&gt;8 -->
<g id="edge14" class="edge">
<title>19&#45;&gt;8</title>
<path fill="none" stroke="#c0c0c0" stroke-width="2" d="M1086.1374,-75.2546C1083.2621,-74.0477 1080.3508,-72.935 1077.5,-72 1005.0098,-48.2256 918.8603,-33.9761 858.4348,-26.1365"/>
<polygon fill="#c0c0c0" stroke="#c0c0c0" stroke-width="2" points="858.5746,-22.6263 848.2136,-24.8397 857.6935,-29.5706 858.5746,-22.6263"/>
</g>
<!-- 20 -->
<g id="node21" class="node">
<title>20</title>
<path fill="none" stroke="#80d856" stroke-width="2" d="M1162,-180C1162,-180 1067,-180 1067,-180 1061,-180 1055,-174 1055,-168 1055,-168 1055,-156 1055,-156 1055,-150 1061,-144 1067,-144 1067,-144 1162,-144 1162,-144 1168,-144 1174,-150 1174,-156 1174,-156 1174,-168 1174,-168 1174,-174 1168,-180 1162,-180"/>
<text text-anchor="middle" x="1114.5" y="-159.5" font-family="sans" font-size="10.00" fill="#000000">tidy_phenotype_data</text>
</g>
<!-- 20&#45;&gt;4 -->
<g id="edge9" class="edge">
<title>20&#45;&gt;4</title>
<path fill="none" stroke="#c0c0c0" stroke-width="2" d="M1130.9281,-143.989C1138.8025,-134.1289 1147.398,-121.2441 1151.5,-108 1157.7527,-87.8122 1154.9435,-63.976 1150.8724,-45.9072"/>
<polygon fill="#c0c0c0" stroke="#c0c0c0" stroke-width="2" points="1154.2167,-44.8539 1148.3885,-36.0061 1147.4271,-46.5573 1154.2167,-44.8539"/>
</g>
<!-- 20&#45;&gt;19 -->
<g id="edge25" class="edge">
<title>20&#45;&gt;19</title>
<path fill="none" stroke="#c0c0c0" stroke-width="2" d="M1114.5,-143.8314C1114.5,-136.131 1114.5,-126.9743 1114.5,-118.4166"/>
<polygon fill="#c0c0c0" stroke="#c0c0c0" stroke-width="2" points="1118.0001,-118.4132 1114.5,-108.4133 1111.0001,-118.4133 1118.0001,-118.4132"/>
</g>
<!-- 22 -->
<g id="node23" class="node">
<title>22</title>
<path fill="none" stroke="#56b9d8" stroke-width="2" d="M1056,-108C1056,-108 937,-108 937,-108 931,-108 925,-102 925,-96 925,-96 925,-84 925,-84 925,-78 931,-72 937,-72 937,-72 1056,-72 1056,-72 1062,-72 1068,-78 1068,-84 1068,-84 1068,-96 1068,-96 1068,-102 1062,-108 1056,-108"/>
<text text-anchor="middle" x="996.5" y="-87.5" font-family="sans" font-size="10.00" fill="#000000">correlate_clusters_to_mtp</text>
</g>
<!-- 20&#45;&gt;22 -->
<g id="edge29" class="edge">
<title>20&#45;&gt;22</title>
<path fill="none" stroke="#c0c0c0" stroke-width="2" d="M1084.7236,-143.8314C1069.6307,-134.6221 1051.1243,-123.3301 1034.9657,-113.4706"/>
<polygon fill="#c0c0c0" stroke="#c0c0c0" stroke-width="2" points="1036.6263,-110.3838 1026.2669,-108.1628 1032.9802,-116.3593 1036.6263,-110.3838"/>
</g>
<!-- 21&#45;&gt;5 -->
<g id="edge10" class="edge">
<title>21&#45;&gt;5</title>
<path fill="none" stroke="#c0c0c0" stroke-width="2" d="M859.2477,-143.8314C859.1407,-136.131 859.0135,-126.9743 858.8947,-118.4166"/>
<polygon fill="#c0c0c0" stroke="#c0c0c0" stroke-width="2" points="862.3944,-118.3637 858.7557,-108.4133 855.3951,-118.4609 862.3944,-118.3637"/>
</g>
<!-- 21&#45;&gt;8 -->
<g id="edge15" class="edge">
<title>21&#45;&gt;8</title>
<path fill="none" stroke="#c0c0c0" stroke-width="2" d="M833.7778,-143.9213C822.2181,-134.496 809.4224,-122.0124 801.5,-108 790.7907,-89.0583 786.0989,-64.7835 784.0529,-46.2189"/>
<polygon fill="#c0c0c0" stroke="#c0c0c0" stroke-width="2" points="787.5179,-45.6745 783.1284,-36.0317 780.5466,-46.3071 787.5179,-45.6745"/>
</g>
<!-- 21&#45;&gt;19 -->
<g id="edge24" class="edge">
<title>21&#45;&gt;19</title>
<path fill="none" stroke="#c0c0c0" stroke-width="2" d="M892.2672,-156.1167C933.6249,-148.2106 1006.8911,-132.6065 1077.0541,-107.783"/>
<polygon fill="#c0c0c0" stroke="#c0c0c0" stroke-width="2" points="1078.2626,-111.0679 1086.4827,-104.3836 1075.8883,-104.4829 1078.2626,-111.0679"/>
</g>
<!-- 21&#45;&gt;22 -->
<g id="edge28" class="edge">
<title>21&#45;&gt;22</title>
<path fill="none" stroke="#c0c0c0" stroke-width="2" d="M892.3149,-144.7542C910.4928,-135.2009 933.3223,-123.2029 952.9743,-112.8748"/>
<polygon fill="#c0c0c0" stroke="#c0c0c0" stroke-width="2" points="954.8173,-115.8602 962.0411,-108.1098 951.5608,-109.6638 954.8173,-115.8602"/>
</g>
<!-- 22&#45;&gt;8 -->
<g id="edge16" class="edge">
<title>22&#45;&gt;8</title>
<path fill="none" stroke="#c0c0c0" stroke-width="2" d="M942.775,-71.9243C913.3927,-62.0387 876.8148,-49.7321 846.0242,-39.3726"/>
<polygon fill="#c0c0c0" stroke="#c0c0c0" stroke-width="2" points="846.8412,-35.9548 836.2471,-36.0831 844.6089,-42.5893 846.8412,-35.9548"/>
</g>
<!-- 23&#45;&gt;8 -->
<g id="edge17" class="edge">
<title>23&#45;&gt;8</title>
<path fill="none" stroke="#c0c0c0" stroke-width="2" d="M345.2623,-287.9801C336.1305,-244.1404 319.8776,-131.1863 378.5,-72 401.1657,-49.1162 595.935,-31.469 706.5448,-23.1845"/>
<polygon fill="#c0c0c0" stroke="#c0c0c0" stroke-width="2" points="706.936,-26.6652 716.6501,-22.4361 706.4189,-19.6843 706.936,-26.6652"/>
</g>
<!-- 23&#45;&gt;24 -->
<g id="edge36" class="edge">
<title>23&#45;&gt;24</title>
<path fill="none" stroke="#c0c0c0" stroke-width="2" d="M374.7342,-287.8314C387.288,-278.7927 402.6283,-267.7476 416.1391,-258.0198"/>
<polygon fill="#c0c0c0" stroke="#c0c0c0" stroke-width="2" points="418.2036,-260.8463 424.2739,-252.1628 414.1134,-255.1655 418.2036,-260.8463"/>
</g>
<!-- 23&#45;&gt;26 -->
<g id="edge41" class="edge">
<title>23&#45;&gt;26</title>
<path fill="none" stroke="#c0c0c0" stroke-width="2" d="M399.2425,-297.2434C481.7928,-282.7113 645.3656,-253.9161 719.8879,-240.7972"/>
<polygon fill="#c0c0c0" stroke="#c0c0c0" stroke-width="2" points="720.5528,-244.2341 729.7946,-239.0533 719.3392,-237.3401 720.5528,-244.2341"/>
</g>
<!-- 24&#45;&gt;9 -->
<g id="edge18" class="edge">
<title>24&#45;&gt;9</title>
<path fill="none" stroke="#c0c0c0" stroke-width="2" d="M471.7061,-215.8314C482.545,-206.9632 495.7444,-196.1637 507.4678,-186.5718"/>
<polygon fill="#c0c0c0" stroke="#c0c0c0" stroke-width="2" points="509.7777,-189.2041 515.301,-180.1628 505.345,-183.7864 509.7777,-189.2041"/>
</g>
<!-- 24&#45;&gt;12 -->
<g id="edge19" class="edge">
<title>24&#45;&gt;12</title>
<path fill="none" stroke="#c0c0c0" stroke-width="2" d="M445.7149,-215.8314C444.1106,-208.131 442.203,-198.9743 440.4201,-190.4166"/>
<polygon fill="#c0c0c0" stroke="#c0c0c0" stroke-width="2" points="443.8021,-189.4892 438.3361,-180.4133 436.9493,-190.9169 443.8021,-189.4892"/>
</g>
<!-- 25 -->
<g id="node26" class="node">
<title>25</title>
<path fill="none" stroke="#56d882" stroke-width="2" d="M267,-540C267,-540 192,-540 192,-540 186,-540 180,-534 180,-528 180,-528 180,-516 180,-516 180,-510 186,-504 192,-504 192,-504 267,-504 267,-504 273,-504 279,-510 279,-516 279,-516 279,-528 279,-528 279,-534 273,-540 267,-540"/>
<text text-anchor="middle" x="229.5" y="-519.5" font-family="sans" font-size="10.00" fill="#000000">second_mapping</text>
</g>
<!-- 25&#45;&gt;13 -->
<g id="edge20" class="edge">
<title>25&#45;&gt;13</title>
<path fill="none" stroke="#c0c0c0" stroke-width="2" d="M223.9485,-503.8314C221.5697,-496.0463 218.7362,-486.7729 216.0967,-478.1347"/>
<polygon fill="#c0c0c0" stroke="#c0c0c0" stroke-width="2" points="219.3958,-476.954 213.1263,-468.4133 212.7013,-478.9996 219.3958,-476.954"/>
</g>
<!-- 25&#45;&gt;16 -->
<g id="edge23" class="edge">
<title>25&#45;&gt;16</title>
<path fill="none" stroke="#c0c0c0" stroke-width="2" d="M279.1909,-507.689C315.7075,-497.1722 365.8947,-482.7183 406.8976,-470.9095"/>
<polygon fill="#c0c0c0" stroke="#c0c0c0" stroke-width="2" points="407.9294,-474.2547 416.5702,-468.1238 405.9921,-467.5281 407.9294,-474.2547"/>
</g>
<!-- 33 -->
<g id="node34" class="node">
<title>33</title>
<path fill="none" stroke="#56d86b" stroke-width="2" d="M371.5,-468C371.5,-468 289.5,-468 289.5,-468 283.5,-468 277.5,-462 277.5,-456 277.5,-456 277.5,-444 277.5,-444 277.5,-438 283.5,-432 289.5,-432 289.5,-432 371.5,-432 371.5,-432 377.5,-432 383.5,-438 383.5,-444 383.5,-444 383.5,-456 383.5,-456 383.5,-462 377.5,-468 371.5,-468"/>
<text text-anchor="middle" x="330.5" y="-447.5" font-family="sans" font-size="10.00" fill="#000000">count_background</text>
</g>
<!-- 25&#45;&gt;33 -->
<g id="edge52" class="edge">
<title>25&#45;&gt;33</title>
<path fill="none" stroke="#c0c0c0" stroke-width="2" d="M254.9866,-503.8314C267.6659,-494.7927 283.1596,-483.7476 296.8055,-474.0198"/>
<polygon fill="#c0c0c0" stroke="#c0c0c0" stroke-width="2" points="298.9105,-476.8176 305.0216,-468.1628 294.8471,-471.1176 298.9105,-476.8176"/>
</g>
<!-- 26&#45;&gt;14 -->
<g id="edge21" class="edge">
<title>26&#45;&gt;14</title>
<path fill="none" stroke="#c0c0c0" stroke-width="2" d="M743.8642,-215.8314C737.1839,-207.5386 729.1432,-197.557 721.8096,-188.4533"/>
<polygon fill="#c0c0c0" stroke="#c0c0c0" stroke-width="2" points="724.3319,-186.0052 715.3329,-180.4133 718.8806,-190.3965 724.3319,-186.0052"/>
</g>
<!-- 26&#45;&gt;21 -->
<g id="edge27" class="edge">
<title>26&#45;&gt;21</title>
<path fill="none" stroke="#c0c0c0" stroke-width="2" d="M783.9866,-215.8314C796.6659,-206.7927 812.1596,-195.7476 825.8055,-186.0198"/>
<polygon fill="#c0c0c0" stroke="#c0c0c0" stroke-width="2" points="827.9105,-188.8176 834.0216,-180.1628 823.8471,-183.1176 827.9105,-188.8176"/>
</g>
<!-- 27 -->
<g id="node28" class="node">
<title>27</title>
<path fill="none" stroke="#56d8a2" stroke-width="2" d="M401.5,-396C401.5,-396 267.5,-396 267.5,-396 261.5,-396 255.5,-390 255.5,-384 255.5,-384 255.5,-372 255.5,-372 255.5,-366 261.5,-360 267.5,-360 267.5,-360 401.5,-360 401.5,-360 407.5,-360 413.5,-366 413.5,-372 413.5,-372 413.5,-384 413.5,-384 413.5,-390 407.5,-396 401.5,-396"/>
<text text-anchor="middle" x="334.5" y="-375.5" font-family="sans" font-size="10.00" fill="#000000">combine_background_counts</text>
</g>
<!-- 27&#45;&gt;23 -->
<g id="edge33" class="edge">
<title>27&#45;&gt;23</title>
<path fill="none" stroke="#c0c0c0" stroke-width="2" d="M338.2851,-359.8314C339.8894,-352.131 341.797,-342.9743 343.5799,-334.4166"/>
<polygon fill="#c0c0c0" stroke="#c0c0c0" stroke-width="2" points="347.0507,-334.9169 345.6639,-324.4133 340.1979,-333.4892 347.0507,-334.9169"/>
</g>
<!-- 28 -->
<g id="node29" class="node">
<title>28</title>
<path fill="none" stroke="#56c9d8" stroke-width="2" d="M131,-468C131,-468 12,-468 12,-468 6,-468 0,-462 0,-456 0,-456 0,-444 0,-444 0,-438 6,-432 12,-432 12,-432 131,-432 131,-432 137,-432 143,-438 143,-444 143,-444 143,-456 143,-456 143,-462 137,-468 131,-468"/>
<text text-anchor="middle" x="71.5" y="-447.5" font-family="sans" font-size="10.00" fill="#000000">calculate_feature_lengths</text>
</g>
<!-- 28&#45;&gt;23 -->
<g id="edge31" class="edge">
<title>28&#45;&gt;23</title>
<path fill="none" stroke="#c0c0c0" stroke-width="2" d="M50.7401,-431.9916C31.0086,-412.7185 6.8986,-381.9582 25.5,-360 42.381,-340.0726 201.0108,-321.0134 289.8784,-311.7838"/>
<polygon fill="#c0c0c0" stroke="#c0c0c0" stroke-width="2" points="290.2405,-315.2652 299.8302,-310.761 289.5247,-308.3018 290.2405,-315.2652"/>
</g>
<!-- 28&#45;&gt;29 -->
<g id="edge46" class="edge">
<title>28&#45;&gt;29</title>
<path fill="none" stroke="#c0c0c0" stroke-width="2" d="M73.0141,-431.8314C73.6558,-424.131 74.4188,-414.9743 75.1319,-406.4166"/>
<polygon fill="#c0c0c0" stroke="#c0c0c0" stroke-width="2" points="78.6229,-406.6694 75.9656,-396.4133 71.6471,-406.088 78.6229,-406.6694"/>
</g>
<!-- 29&#45;&gt;23 -->
<g id="edge30" class="edge">
<title>29&#45;&gt;23</title>
<path fill="none" stroke="#c0c0c0" stroke-width="2" d="M120.6783,-364.0663C125.332,-362.6538 130.0068,-361.2725 134.5,-360 186.7172,-345.212 246.6444,-330.3306 289.9435,-319.9458"/>
<polygon fill="#c0c0c0" stroke="#c0c0c0" stroke-width="2" points="290.8349,-323.3314 299.7476,-317.6031 289.2079,-316.5231 290.8349,-323.3314"/>
</g>
<!-- 30 -->
<g id="node31" class="node">
<title>30</title>
<path fill="none" stroke="#56d8d0" stroke-width="2" d="M228,-612C228,-612 169,-612 169,-612 163,-612 157,-606 157,-600 157,-600 157,-588 157,-588 157,-582 163,-576 169,-576 169,-576 228,-576 228,-576 234,-576 240,-582 240,-588 240,-588 240,-600 240,-600 240,-606 234,-612 228,-612"/>
<text text-anchor="middle" x="198.5" y="-591.5" font-family="sans" font-size="10.00" fill="#000000">first_mapping</text>
</g>
<!-- 30&#45;&gt;25 -->
<g id="edge37" class="edge">
<title>30&#45;&gt;25</title>
<path fill="none" stroke="#c0c0c0" stroke-width="2" d="M206.3226,-575.8314C209.7109,-567.9617 213.7541,-558.5712 217.5076,-549.8533"/>
<polygon fill="#c0c0c0" stroke="#c0c0c0" stroke-width="2" points="220.8321,-550.9822 221.5721,-540.4133 214.4027,-548.214 220.8321,-550.9822"/>
</g>
<!-- 31 -->
<g id="node32" class="node">
<title>31</title>
<path fill="none" stroke="#70d856" stroke-width="2" d="M163.5,-684C163.5,-684 133.5,-684 133.5,-684 127.5,-684 121.5,-678 121.5,-672 121.5,-672 121.5,-660 121.5,-660 121.5,-654 127.5,-648 133.5,-648 133.5,-648 163.5,-648 163.5,-648 169.5,-648 175.5,-654 175.5,-660 175.5,-660 175.5,-672 175.5,-672 175.5,-678 169.5,-684 163.5,-684"/>
<text text-anchor="middle" x="148.5" y="-663.5" font-family="sans" font-size="10.00" fill="#000000">gzip</text>
</g>
<!-- 31&#45;&gt;25 -->
<g id="edge38" class="edge">
<title>31&#45;&gt;25</title>
<path fill="none" stroke="#c0c0c0" stroke-width="2" d="M143.4166,-647.8745C139.1273,-628.7783 135.4182,-598.4225 147.5,-576 154.2016,-563.5626 165.1591,-553.5183 176.9142,-545.6213"/>
<polygon fill="#c0c0c0" stroke="#c0c0c0" stroke-width="2" points="178.9179,-548.497 185.5653,-540.247 175.224,-542.551 178.9179,-548.497"/>
</g>
<!-- 31&#45;&gt;30 -->
<g id="edge48" class="edge">
<title>31&#45;&gt;30</title>
<path fill="none" stroke="#c0c0c0" stroke-width="2" d="M161.1171,-647.8314C166.8172,-639.6232 173.6663,-629.7606 179.9359,-620.7323"/>
<polygon fill="#c0c0c0" stroke="#c0c0c0" stroke-width="2" points="182.8838,-622.6234 185.713,-612.4133 177.1342,-618.6306 182.8838,-622.6234"/>
</g>
<!-- 32 -->
<g id="node33" class="node">
<title>32</title>
<path fill="none" stroke="#5692d8" stroke-width="2" d="M290,-684C290,-684 209,-684 209,-684 203,-684 197,-678 197,-672 197,-672 197,-660 197,-660 197,-654 203,-648 209,-648 209,-648 290,-648 290,-648 296,-648 302,-654 302,-660 302,-660 302,-672 302,-672 302,-678 296,-684 290,-684"/>
<text text-anchor="middle" x="249.5" y="-663.5" font-family="sans" font-size="10.00" fill="#000000">generate_genome</text>
</g>
<!-- 32&#45;&gt;25 -->
<g id="edge39" class="edge">
<title>32&#45;&gt;25</title>
<path fill="none" stroke="#c0c0c0" stroke-width="2" d="M251.0171,-647.9104C252.1501,-629.6219 252.846,-600.6209 248.5,-576 246.9525,-567.2329 244.1616,-557.9895 241.1869,-549.6766"/>
<polygon fill="#c0c0c0" stroke="#c0c0c0" stroke-width="2" points="244.3674,-548.1933 237.5387,-540.0927 237.8253,-550.6836 244.3674,-548.1933"/>
</g>
<!-- 32&#45;&gt;30 -->
<g id="edge49" class="edge">
<title>32&#45;&gt;30</title>
<path fill="none" stroke="#c0c0c0" stroke-width="2" d="M236.6305,-647.8314C230.8165,-639.6232 223.8304,-629.7606 217.4354,-620.7323"/>
<polygon fill="#c0c0c0" stroke="#c0c0c0" stroke-width="2" points="220.179,-618.5505 211.5427,-612.4133 214.4669,-622.5966 220.179,-618.5505"/>
</g>
<!-- 36 -->
<g id="node37" class="node">
<title>36</title>
<path fill="none" stroke="#d85e56" stroke-width="2" d="M352.5,-612C352.5,-612 308.5,-612 308.5,-612 302.5,-612 296.5,-606 296.5,-600 296.5,-600 296.5,-588 296.5,-588 296.5,-582 302.5,-576 308.5,-576 308.5,-576 352.5,-576 352.5,-576 358.5,-576 364.5,-582 364.5,-588 364.5,-588 364.5,-600 364.5,-600 364.5,-606 358.5,-612 352.5,-612"/>
<text text-anchor="middle" x="330.5" y="-591.5" font-family="sans" font-size="10.00" fill="#000000">shuffle_gtf</text>
</g>
<!-- 32&#45;&gt;36 -->
<g id="edge55" class="edge">
<title>32&#45;&gt;36</title>
<path fill="none" stroke="#c0c0c0" stroke-width="2" d="M269.9397,-647.8314C279.8205,-639.0485 291.8324,-628.3712 302.545,-618.8489"/>
<polygon fill="#c0c0c0" stroke="#c0c0c0" stroke-width="2" points="304.918,-621.4224 310.0668,-612.1628 300.2674,-616.1906 304.918,-621.4224"/>
</g>
<!-- 33&#45;&gt;27 -->
<g id="edge43" class="edge">
<title>33&#45;&gt;27</title>
<path fill="none" stroke="#c0c0c0" stroke-width="2" d="M331.5094,-431.8314C331.9372,-424.131 332.4459,-414.9743 332.9213,-406.4166"/>
<polygon fill="#c0c0c0" stroke="#c0c0c0" stroke-width="2" points="336.4169,-406.592 333.477,-396.4133 329.4276,-406.2037 336.4169,-406.592"/>
</g>
<!-- 34 -->
<g id="node35" class="node">
<title>34</title>
<path fill="none" stroke="#a7d856" stroke-width="2" d="M277,-756C277,-756 222,-756 222,-756 216,-756 210,-750 210,-744 210,-744 210,-732 210,-732 210,-726 216,-720 222,-720 222,-720 277,-720 277,-720 283,-720 289,-726 289,-732 289,-732 289,-744 289,-744 289,-750 283,-756 277,-756"/>
<text text-anchor="middle" x="249.5" y="-735.5" font-family="sans" font-size="10.00" fill="#000000">generate_gtf</text>
</g>
<!-- 34&#45;&gt;28 -->
<g id="edge44" class="edge">
<title>34&#45;&gt;28</title>
<path fill="none" stroke="#c0c0c0" stroke-width="2" d="M209.9144,-727.0968C174.151,-716.4437 125.2281,-699.5991 112.5,-684 63.5329,-623.9879 64.3447,-526.0981 68.2529,-478.1984"/>
<polygon fill="#c0c0c0" stroke="#c0c0c0" stroke-width="2" points="71.7393,-478.5055 69.1726,-468.2263 64.7689,-477.8626 71.7393,-478.5055"/>
</g>
<!-- 34&#45;&gt;32 -->
<g id="edge51" class="edge">
<title>34&#45;&gt;32</title>
<path fill="none" stroke="#c0c0c0" stroke-width="2" d="M249.5,-719.8314C249.5,-712.131 249.5,-702.9743 249.5,-694.4166"/>
<polygon fill="#c0c0c0" stroke="#c0c0c0" stroke-width="2" points="253.0001,-694.4132 249.5,-684.4133 246.0001,-694.4133 253.0001,-694.4132"/>
</g>
<!-- 34&#45;&gt;36 -->
<g id="edge56" class="edge">
<title>34&#45;&gt;36</title>
<path fill="none" stroke="#c0c0c0" stroke-width="2" d="M276.804,-719.897C288.866,-710.5482 302.1715,-698.1356 310.5,-684 321.6229,-665.1215 326.5691,-640.6978 328.7638,-622.0576"/>
<polygon fill="#c0c0c0" stroke="#c0c0c0" stroke-width="2" points="332.2471,-622.3979 329.7429,-612.1033 325.2807,-621.7126 332.2471,-622.3979"/>
</g>
<!-- 35 -->
<g id="node36" class="node">
<title>35</title>
<path fill="none" stroke="#56d89a" stroke-width="2" d="M166,-756C166,-756 131,-756 131,-756 125,-756 119,-750 119,-744 119,-744 119,-732 119,-732 119,-726 125,-720 131,-720 131,-720 166,-720 166,-720 172,-720 178,-726 178,-732 178,-732 178,-744 178,-744 178,-750 172,-756 166,-756"/>
<text text-anchor="middle" x="148.5" y="-735.5" font-family="sans" font-size="10.00" fill="#000000">cutadapt</text>
</g>
<!-- 35&#45;&gt;31 -->
<g id="edge50" class="edge">
<title>35&#45;&gt;31</title>
<path fill="none" stroke="#c0c0c0" stroke-width="2" d="M148.5,-719.8314C148.5,-712.131 148.5,-702.9743 148.5,-694.4166"/>
<polygon fill="#c0c0c0" stroke="#c0c0c0" stroke-width="2" points="152.0001,-694.4132 148.5,-684.4133 145.0001,-694.4133 152.0001,-694.4132"/>
</g>
<!-- 36&#45;&gt;33 -->
<g id="edge53" class="edge">
<title>36&#45;&gt;33</title>
<path fill="none" stroke="#c0c0c0" stroke-width="2" d="M330.5,-575.7623C330.5,-551.201 330.5,-507.2474 330.5,-478.3541"/>
<polygon fill="#c0c0c0" stroke="#c0c0c0" stroke-width="2" points="334.0001,-478.0896 330.5,-468.0896 327.0001,-478.0897 334.0001,-478.0896"/>
</g>
<!-- 37 -->
<g id="node38" class="node">
<title>37</title>
<path fill="none" stroke="#5663d8" stroke-width="2" d="M163.5,-828C163.5,-828 133.5,-828 133.5,-828 127.5,-828 121.5,-822 121.5,-816 121.5,-816 121.5,-804 121.5,-804 121.5,-798 127.5,-792 133.5,-792 133.5,-792 163.5,-792 163.5,-792 169.5,-792 175.5,-798 175.5,-804 175.5,-804 175.5,-816 175.5,-816 175.5,-822 169.5,-828 163.5,-828"/>
<text text-anchor="middle" x="148.5" y="-807.5" font-family="sans" font-size="10.00" fill="#000000">repair</text>
</g>
<!-- 37&#45;&gt;35 -->
<g id="edge54" class="edge">
<title>37&#45;&gt;35</title>
<path fill="none" stroke="#c0c0c0" stroke-width="2" d="M148.5,-791.8314C148.5,-784.131 148.5,-774.9743 148.5,-766.4166"/>
<polygon fill="#c0c0c0" stroke="#c0c0c0" stroke-width="2" points="152.0001,-766.4132 148.5,-756.4133 145.0001,-766.4133 152.0001,-766.4132"/>
</g>
</g>
</svg>
