<?xml version="1.0" encoding="UTF-8" standalone="no"?>
<!DOCTYPE svg PUBLIC "-//W3C//DTD SVG 1.1//EN"
 "http://www.w3.org/Graphics/SVG/1.1/DTD/svg11.dtd">
<!-- Generated by graphviz version 2.40.1 (20161225.0304)
 -->
<!-- Title: snakemake_dag Pages: 1 -->
<svg width="603pt" height="764pt"
 viewBox="0.00 0.00 602.50 764.00" xmlns="http://www.w3.org/2000/svg" xmlns:xlink="http://www.w3.org/1999/xlink">
<g id="graph0" class="graph" transform="scale(1 1) rotate(0) translate(4 760)">
<title>snakemake_dag</title>
<polygon fill="#ffffff" stroke="transparent" points="-4,4 -4,-760 598.5,-760 598.5,4 -4,4"/>
<!-- 0 -->
<g id="node1" class="node">
<title>0</title>
<path fill="none" stroke="#56d8c9" stroke-width="2" d="M137.5,-108C137.5,-108 97.5,-108 97.5,-108 91.5,-108 85.5,-102 85.5,-96 85.5,-96 85.5,-84 85.5,-84 85.5,-78 91.5,-72 97.5,-72 97.5,-72 137.5,-72 137.5,-72 143.5,-72 149.5,-78 149.5,-84 149.5,-84 149.5,-96 149.5,-96 149.5,-102 143.5,-108 137.5,-108"/>
<text text-anchor="middle" x="117.5" y="-87.5" font-family="sans" font-size="10.00" fill="#000000">deseq_tfs</text>
</g>
<!-- 1 -->
<g id="node2" class="node">
<title>1</title>
<path fill="none" stroke="#d8d356" stroke-width="2" d="M131,-36C131,-36 12,-36 12,-36 6,-36 0,-30 0,-24 0,-24 0,-12 0,-12 0,-6 6,0 12,0 12,0 131,0 131,0 137,0 143,-6 143,-12 143,-12 143,-24 143,-24 143,-30 137,-36 131,-36"/>
<text text-anchor="middle" x="71.5" y="-15.5" font-family="sans" font-size="10.00" fill="#000000">correlate_clusters_to_mtp</text>
</g>
<!-- 2 -->
<g id="node3" class="node">
<title>2</title>
<path fill="none" stroke="#56d0d8" stroke-width="2" d="M356,-108C356,-108 317,-108 317,-108 311,-108 305,-102 305,-96 305,-96 305,-84 305,-84 305,-78 311,-72 317,-72 317,-72 356,-72 356,-72 362,-72 368,-78 368,-84 368,-84 368,-96 368,-96 368,-102 362,-108 356,-108"/>
<text text-anchor="middle" x="336.5" y="-87.5" font-family="sans" font-size="10.00" fill="#000000">deseq_all</text>
</g>
<!-- 3 -->
<g id="node4" class="node">
<title>3</title>
<path fill="none" stroke="#78d856" stroke-width="2" d="M55,-108C55,-108 14,-108 14,-108 8,-108 2,-102 2,-96 2,-96 2,-84 2,-84 2,-78 8,-72 14,-72 14,-72 55,-72 55,-72 61,-72 67,-78 67,-84 67,-84 67,-96 67,-96 67,-102 61,-108 55,-108"/>
<text text-anchor="middle" x="34.5" y="-87.5" font-family="sans" font-size="10.00" fill="#000000">mfuzz_tfs</text>
</g>
<!-- 3&#45;&gt;1 -->
<g id="edge2" class="edge">
<title>3&#45;&gt;1</title>
<path fill="none" stroke="#c0c0c0" stroke-width="2" d="M43.8367,-71.8314C47.9243,-63.8771 52.8104,-54.369 57.3309,-45.5723"/>
<polygon fill="#c0c0c0" stroke="#c0c0c0" stroke-width="2" points="60.5799,-46.9074 62.0376,-36.4133 54.3539,-43.7078 60.5799,-46.9074"/>
</g>
<!-- 4 -->
<g id="node5" class="node">
<title>4</title>
<path fill="none" stroke="#5692d8" stroke-width="2" d="M224.5,-36C224.5,-36 192.5,-36 192.5,-36 186.5,-36 180.5,-30 180.5,-24 180.5,-24 180.5,-12 180.5,-12 180.5,-6 186.5,0 192.5,0 192.5,0 224.5,0 224.5,0 230.5,0 236.5,-6 236.5,-12 236.5,-12 236.5,-24 236.5,-24 236.5,-30 230.5,-36 224.5,-36"/>
<text text-anchor="middle" x="208.5" y="-15.5" font-family="sans" font-size="10.00" fill="#000000">cali_pca</text>
</g>
<!-- 3&#45;&gt;4 -->
<g id="edge7" class="edge">
<title>3&#45;&gt;4</title>
<path fill="none" stroke="#c0c0c0" stroke-width="2" d="M67.0367,-75.9927C70.2314,-74.6363 73.4267,-73.2871 76.5,-72 108.3325,-58.6686 144.6319,-43.8463 171.0977,-33.1086"/>
<polygon fill="#c0c0c0" stroke="#c0c0c0" stroke-width="2" points="172.4238,-36.3477 180.3768,-29.3477 169.7944,-29.8603 172.4238,-36.3477"/>
</g>
<!-- 5 -->
<g id="node6" class="node">
<title>5</title>
<path fill="none" stroke="#c6d856" stroke-width="2" d="M131,-180C131,-180 98,-180 98,-180 92,-180 86,-174 86,-168 86,-168 86,-156 86,-156 86,-150 92,-144 98,-144 98,-144 131,-144 131,-144 137,-144 143,-150 143,-156 143,-156 143,-168 143,-168 143,-174 137,-180 131,-180"/>
<text text-anchor="middle" x="114.5" y="-159.5" font-family="sans" font-size="10.00" fill="#000000">filter_tfs</text>
</g>
<!-- 5&#45;&gt;0 -->
<g id="edge1" class="edge">
<title>5&#45;&gt;0</title>
<path fill="none" stroke="#c0c0c0" stroke-width="2" d="M115.257,-143.8314C115.5779,-136.131 115.9594,-126.9743 116.316,-118.4166"/>
<polygon fill="#c0c0c0" stroke="#c0c0c0" stroke-width="2" points="119.8133,-118.5503 116.7328,-108.4133 112.8194,-118.2589 119.8133,-118.5503"/>
</g>
<!-- 5&#45;&gt;3 -->
<g id="edge5" class="edge">
<title>5&#45;&gt;3</title>
<path fill="none" stroke="#c0c0c0" stroke-width="2" d="M94.3126,-143.8314C84.6486,-135.1337 72.9204,-124.5783 62.4184,-115.1265"/>
<polygon fill="#c0c0c0" stroke="#c0c0c0" stroke-width="2" points="64.4553,-112.251 54.6809,-108.1628 59.7725,-117.454 64.4553,-112.251"/>
</g>
<!-- 6 -->
<g id="node7" class="node">
<title>6</title>
<path fill="none" stroke="#d89556" stroke-width="2" d="M275,-108C275,-108 180,-108 180,-108 174,-108 168,-102 168,-96 168,-96 168,-84 168,-84 168,-78 174,-72 180,-72 180,-72 275,-72 275,-72 281,-72 287,-78 287,-84 287,-84 287,-96 287,-96 287,-102 281,-108 275,-108"/>
<text text-anchor="middle" x="227.5" y="-87.5" font-family="sans" font-size="10.00" fill="#000000">tidy_phenotype_data</text>
</g>
<!-- 6&#45;&gt;1 -->
<g id="edge3" class="edge">
<title>6&#45;&gt;1</title>
<path fill="none" stroke="#c0c0c0" stroke-width="2" d="M188.1346,-71.8314C167.3633,-62.2446 141.7017,-50.4008 119.7419,-40.2655"/>
<polygon fill="#c0c0c0" stroke="#c0c0c0" stroke-width="2" points="121.1286,-37.0508 110.5823,-36.038 118.1952,-43.4065 121.1286,-37.0508"/>
</g>
<!-- 6&#45;&gt;4 -->
<g id="edge8" class="edge">
<title>6&#45;&gt;4</title>
<path fill="none" stroke="#c0c0c0" stroke-width="2" d="M222.7055,-71.8314C220.6511,-64.0463 218.204,-54.7729 215.9244,-46.1347"/>
<polygon fill="#c0c0c0" stroke="#c0c0c0" stroke-width="2" points="219.2948,-45.1892 213.3591,-36.4133 212.5265,-46.9753 219.2948,-45.1892"/>
</g>
<!-- 7 -->
<g id="node8" class="node">
<title>7</title>
<path fill="none" stroke="#b6d856" stroke-width="2" d="M339,-180C339,-180 254,-180 254,-180 248,-180 242,-174 242,-168 242,-168 242,-156 242,-156 242,-150 248,-144 254,-144 254,-144 339,-144 339,-144 345,-144 351,-150 351,-156 351,-156 351,-168 351,-168 351,-174 345,-180 339,-180"/>
<text text-anchor="middle" x="296.5" y="-159.5" font-family="sans" font-size="10.00" fill="#000000">filter_deseq_object</text>
</g>
<!-- 7&#45;&gt;2 -->
<g id="edge4" class="edge">
<title>7&#45;&gt;2</title>
<path fill="none" stroke="#c0c0c0" stroke-width="2" d="M306.5937,-143.8314C311.0597,-135.7925 316.4075,-126.1666 321.3379,-117.2918"/>
<polygon fill="#c0c0c0" stroke="#c0c0c0" stroke-width="2" points="324.4735,-118.8546 326.2704,-108.4133 318.3544,-115.4551 324.4735,-118.8546"/>
</g>
<!-- 8 -->
<g id="node9" class="node">
<title>8</title>
<path fill="none" stroke="#61d856" stroke-width="2" d="M72.5,-252C72.5,-252 22.5,-252 22.5,-252 16.5,-252 10.5,-246 10.5,-240 10.5,-240 10.5,-228 10.5,-228 10.5,-222 16.5,-216 22.5,-216 22.5,-216 72.5,-216 72.5,-216 78.5,-216 84.5,-222 84.5,-228 84.5,-228 84.5,-240 84.5,-240 84.5,-246 78.5,-252 72.5,-252"/>
<text text-anchor="middle" x="47.5" y="-231.5" font-family="sans" font-size="10.00" fill="#000000">format_tfdb</text>
</g>
<!-- 8&#45;&gt;3 -->
<g id="edge6" class="edge">
<title>8&#45;&gt;3</title>
<path fill="none" stroke="#c0c0c0" stroke-width="2" d="M45.8535,-215.7623C43.6362,-191.201 39.6682,-147.2474 37.0597,-118.3541"/>
<polygon fill="#c0c0c0" stroke="#c0c0c0" stroke-width="2" points="40.5181,-117.7344 36.1331,-108.0896 33.5465,-118.3638 40.5181,-117.7344"/>
</g>
<!-- 8&#45;&gt;5 -->
<g id="edge10" class="edge">
<title>8&#45;&gt;5</title>
<path fill="none" stroke="#c0c0c0" stroke-width="2" d="M64.4069,-215.8314C72.2813,-207.3694 81.792,-197.1489 90.4013,-187.8971"/>
<polygon fill="#c0c0c0" stroke="#c0c0c0" stroke-width="2" points="93.1153,-190.1183 97.3654,-180.4133 87.9908,-185.3497 93.1153,-190.1183"/>
</g>
<!-- 9 -->
<g id="node10" class="node">
<title>9</title>
<path fill="none" stroke="#d86e56" stroke-width="2" d="M184.5,-396C184.5,-396 78.5,-396 78.5,-396 72.5,-396 66.5,-390 66.5,-384 66.5,-384 66.5,-372 66.5,-372 66.5,-366 72.5,-360 78.5,-360 78.5,-360 184.5,-360 184.5,-360 190.5,-360 196.5,-366 196.5,-372 196.5,-372 196.5,-384 196.5,-384 196.5,-390 190.5,-396 184.5,-396"/>
<text text-anchor="middle" x="131.5" y="-375.5" font-family="sans" font-size="10.00" fill="#000000">generate_deseq_object</text>
</g>
<!-- 9&#45;&gt;5 -->
<g id="edge11" class="edge">
<title>9&#45;&gt;5</title>
<path fill="none" stroke="#c0c0c0" stroke-width="2" d="M130.0798,-359.9555C127.1173,-322.3144 120.2601,-235.1867 116.7135,-190.1246"/>
<polygon fill="#c0c0c0" stroke="#c0c0c0" stroke-width="2" points="120.202,-189.8396 115.9281,-180.1451 113.2236,-190.3889 120.202,-189.8396"/>
</g>
<!-- 9&#45;&gt;7 -->
<g id="edge13" class="edge">
<title>9&#45;&gt;7</title>
<path fill="none" stroke="#c0c0c0" stroke-width="2" d="M137.5778,-359.8793C144.3325,-341.0551 156.3178,-311.1686 171.5,-288 197.6313,-248.1226 237.8376,-210.4212 265.5592,-186.8327"/>
<polygon fill="#c0c0c0" stroke="#c0c0c0" stroke-width="2" points="267.9678,-189.3806 273.3781,-180.2713 263.468,-184.0185 267.9678,-189.3806"/>
</g>
<!-- 10 -->
<g id="node11" class="node">
<title>10</title>
<path fill="none" stroke="#d8bc56" stroke-width="2" d="M334,-252C334,-252 259,-252 259,-252 253,-252 247,-246 247,-240 247,-240 247,-228 247,-228 247,-222 253,-216 259,-216 259,-216 334,-216 334,-216 340,-216 346,-222 346,-228 346,-228 346,-240 346,-240 346,-246 340,-252 334,-252"/>
<text text-anchor="middle" x="296.5" y="-231.5" font-family="sans" font-size="10.00" fill="#000000">calculate_cutoffs</text>
</g>
<!-- 9&#45;&gt;10 -->
<g id="edge17" class="edge">
<title>9&#45;&gt;10</title>
<path fill="none" stroke="#c0c0c0" stroke-width="2" d="M144.7495,-359.6553C159.2458,-340.3759 183.8557,-309.8687 209.5,-288 222.83,-276.6326 238.7895,-266.0149 253.3786,-257.2542"/>
<polygon fill="#c0c0c0" stroke="#c0c0c0" stroke-width="2" points="255.3957,-260.1287 262.2495,-252.0493 251.8533,-254.0912 255.3957,-260.1287"/>
</g>
<!-- 14 -->
<g id="node15" class="node">
<title>14</title>
<path fill="none" stroke="#9fd856" stroke-width="2" d="M292.5,-324C292.5,-324 230.5,-324 230.5,-324 224.5,-324 218.5,-318 218.5,-312 218.5,-312 218.5,-300 218.5,-300 218.5,-294 224.5,-288 230.5,-288 230.5,-288 292.5,-288 292.5,-288 298.5,-288 304.5,-294 304.5,-300 304.5,-300 304.5,-312 304.5,-312 304.5,-318 298.5,-324 292.5,-324"/>
<text text-anchor="middle" x="261.5" y="-303.5" font-family="sans" font-size="10.00" fill="#000000">calculate_tpm</text>
</g>
<!-- 9&#45;&gt;14 -->
<g id="edge27" class="edge">
<title>9&#45;&gt;14</title>
<path fill="none" stroke="#c0c0c0" stroke-width="2" d="M164.3045,-359.8314C181.0862,-350.5368 201.6985,-339.1208 219.6163,-329.1971"/>
<polygon fill="#c0c0c0" stroke="#c0c0c0" stroke-width="2" points="221.6538,-332.0696 228.706,-324.1628 218.2623,-325.9461 221.6538,-332.0696"/>
</g>
<!-- 10&#45;&gt;5 -->
<g id="edge9" class="edge">
<title>10&#45;&gt;5</title>
<path fill="none" stroke="#c0c0c0" stroke-width="2" d="M250.5737,-215.8314C220.336,-203.8692 181.2155,-188.393 152.6863,-177.1067"/>
<polygon fill="#c0c0c0" stroke="#c0c0c0" stroke-width="2" points="153.6552,-173.7261 143.0688,-173.302 151.0801,-180.2352 153.6552,-173.7261"/>
</g>
<!-- 10&#45;&gt;7 -->
<g id="edge12" class="edge">
<title>10&#45;&gt;7</title>
<path fill="none" stroke="#c0c0c0" stroke-width="2" d="M296.5,-215.8314C296.5,-208.131 296.5,-198.9743 296.5,-190.4166"/>
<polygon fill="#c0c0c0" stroke="#c0c0c0" stroke-width="2" points="300.0001,-190.4132 296.5,-180.4133 293.0001,-190.4133 300.0001,-190.4132"/>
</g>
<!-- 11 -->
<g id="node12" class="node">
<title>11</title>
<path fill="none" stroke="#5682d8" stroke-width="2" d="M299,-468C299,-468 224,-468 224,-468 218,-468 212,-462 212,-456 212,-456 212,-444 212,-444 212,-438 218,-432 224,-432 224,-432 299,-432 299,-432 305,-432 311,-438 311,-444 311,-444 311,-456 311,-456 311,-462 305,-468 299,-468"/>
<text text-anchor="middle" x="261.5" y="-447.5" font-family="sans" font-size="10.00" fill="#000000">second_mapping</text>
</g>
<!-- 11&#45;&gt;9 -->
<g id="edge14" class="edge">
<title>11&#45;&gt;9</title>
<path fill="none" stroke="#c0c0c0" stroke-width="2" d="M228.6955,-431.8314C211.9138,-422.5368 191.3015,-411.1208 173.3837,-401.1971"/>
<polygon fill="#c0c0c0" stroke="#c0c0c0" stroke-width="2" points="174.7377,-397.9461 164.294,-396.1628 171.3462,-404.0696 174.7377,-397.9461"/>
</g>
<!-- 13 -->
<g id="node14" class="node">
<title>13</title>
<path fill="none" stroke="#56d88a" stroke-width="2" d="M296,-396C296,-396 227,-396 227,-396 221,-396 215,-390 215,-384 215,-384 215,-372 215,-372 215,-366 221,-360 227,-360 227,-360 296,-360 296,-360 302,-360 308,-366 308,-372 308,-372 308,-384 308,-384 308,-390 302,-396 296,-396"/>
<text text-anchor="middle" x="261.5" y="-375.5" font-family="sans" font-size="10.00" fill="#000000">parse_star_logs</text>
</g>
<!-- 11&#45;&gt;13 -->
<g id="edge24" class="edge">
<title>11&#45;&gt;13</title>
<path fill="none" stroke="#c0c0c0" stroke-width="2" d="M261.5,-431.8314C261.5,-424.131 261.5,-414.9743 261.5,-406.4166"/>
<polygon fill="#c0c0c0" stroke="#c0c0c0" stroke-width="2" points="265.0001,-406.4132 261.5,-396.4133 258.0001,-406.4133 265.0001,-406.4132"/>
</g>
<!-- 20 -->
<g id="node21" class="node">
<title>20</title>
<path fill="none" stroke="#56d863" stroke-width="2" d="M581.5,-396C581.5,-396 499.5,-396 499.5,-396 493.5,-396 487.5,-390 487.5,-384 487.5,-384 487.5,-372 487.5,-372 487.5,-366 493.5,-360 499.5,-360 499.5,-360 581.5,-360 581.5,-360 587.5,-360 593.5,-366 593.5,-372 593.5,-372 593.5,-384 593.5,-384 593.5,-390 587.5,-396 581.5,-396"/>
<text text-anchor="middle" x="540.5" y="-375.5" font-family="sans" font-size="10.00" fill="#000000">count_background</text>
</g>
<!-- 11&#45;&gt;20 -->
<g id="edge33" class="edge">
<title>11&#45;&gt;20</title>
<path fill="none" stroke="#c0c0c0" stroke-width="2" d="M311.1971,-438.2113C353.1194,-428.1359 414.9358,-412.9747 477.7578,-396.1544"/>
<polygon fill="#c0c0c0" stroke="#c0c0c0" stroke-width="2" points="478.6899,-399.5281 487.438,-393.5513 476.8721,-392.7682 478.6899,-399.5281"/>
</g>
<!-- 12 -->
<g id="node13" class="node">
<title>12</title>
<path fill="none" stroke="#d87d56" stroke-width="2" d="M457,-396C457,-396 338,-396 338,-396 332,-396 326,-390 326,-384 326,-384 326,-372 326,-372 326,-366 332,-360 338,-360 338,-360 457,-360 457,-360 463,-360 469,-366 469,-372 469,-372 469,-384 469,-384 469,-390 463,-396 457,-396"/>
<text text-anchor="middle" x="397.5" y="-375.5" font-family="sans" font-size="10.00" fill="#000000">calculate_feature_lengths</text>
</g>
<!-- 12&#45;&gt;10 -->
<g id="edge19" class="edge">
<title>12&#45;&gt;10</title>
<path fill="none" stroke="#c0c0c0" stroke-width="2" d="M384.7083,-359.7623C367.1018,-334.66 335.288,-289.3017 315.0637,-260.4671"/>
<polygon fill="#c0c0c0" stroke="#c0c0c0" stroke-width="2" points="317.7956,-258.2668 309.1879,-252.0896 312.0647,-262.2864 317.7956,-258.2668"/>
</g>
<!-- 12&#45;&gt;14 -->
<g id="edge26" class="edge">
<title>12&#45;&gt;14</title>
<path fill="none" stroke="#c0c0c0" stroke-width="2" d="M363.1815,-359.8314C345.4641,-350.4516 323.6655,-338.9112 304.8016,-328.9244"/>
<polygon fill="#c0c0c0" stroke="#c0c0c0" stroke-width="2" points="306.2831,-325.7485 295.8076,-324.1628 303.0078,-331.935 306.2831,-325.7485"/>
</g>
<!-- 13&#45;&gt;10 -->
<g id="edge15" class="edge">
<title>13&#45;&gt;10</title>
<path fill="none" stroke="#c0c0c0" stroke-width="2" d="M286.0801,-359.7772C296.6482,-350.4022 307.8543,-338.0021 313.5,-324 321.5777,-303.9663 316.2959,-279.8519 309.5582,-261.6286"/>
<polygon fill="#c0c0c0" stroke="#c0c0c0" stroke-width="2" points="312.7303,-260.1363 305.7409,-252.1739 306.2394,-262.7571 312.7303,-260.1363"/>
</g>
<!-- 13&#45;&gt;14 -->
<g id="edge25" class="edge">
<title>13&#45;&gt;14</title>
<path fill="none" stroke="#c0c0c0" stroke-width="2" d="M261.5,-359.8314C261.5,-352.131 261.5,-342.9743 261.5,-334.4166"/>
<polygon fill="#c0c0c0" stroke="#c0c0c0" stroke-width="2" points="265.0001,-334.4132 261.5,-324.4133 258.0001,-334.4133 265.0001,-334.4132"/>
</g>
<!-- 14&#45;&gt;10 -->
<g id="edge16" class="edge">
<title>14&#45;&gt;10</title>
<path fill="none" stroke="#c0c0c0" stroke-width="2" d="M270.332,-287.8314C274.1986,-279.8771 278.8206,-270.369 283.0968,-261.5723"/>
<polygon fill="#c0c0c0" stroke="#c0c0c0" stroke-width="2" points="286.3249,-262.9371 287.5491,-252.4133 280.0293,-259.8768 286.3249,-262.9371"/>
</g>
<!-- 15 -->
<g id="node16" class="node">
<title>15</title>
<path fill="none" stroke="#56a9d8" stroke-width="2" d="M582.5,-324C582.5,-324 448.5,-324 448.5,-324 442.5,-324 436.5,-318 436.5,-312 436.5,-312 436.5,-300 436.5,-300 436.5,-294 442.5,-288 448.5,-288 448.5,-288 582.5,-288 582.5,-288 588.5,-288 594.5,-294 594.5,-300 594.5,-300 594.5,-312 594.5,-312 594.5,-318 588.5,-324 582.5,-324"/>
<text text-anchor="middle" x="515.5" y="-303.5" font-family="sans" font-size="10.00" fill="#000000">combine_background_counts</text>
</g>
<!-- 15&#45;&gt;10 -->
<g id="edge18" class="edge">
<title>15&#45;&gt;10</title>
<path fill="none" stroke="#c0c0c0" stroke-width="2" d="M460.5197,-287.9243C428.7133,-277.4674 388.6673,-264.3016 356.1073,-253.5969"/>
<polygon fill="#c0c0c0" stroke="#c0c0c0" stroke-width="2" points="356.8532,-250.1579 346.2603,-250.3595 354.6669,-256.8077 356.8532,-250.1579"/>
</g>
<!-- 16 -->
<g id="node17" class="node">
<title>16</title>
<path fill="none" stroke="#56d873" stroke-width="2" d="M227.5,-612C227.5,-612 197.5,-612 197.5,-612 191.5,-612 185.5,-606 185.5,-600 185.5,-600 185.5,-588 185.5,-588 185.5,-582 191.5,-576 197.5,-576 197.5,-576 227.5,-576 227.5,-576 233.5,-576 239.5,-582 239.5,-588 239.5,-588 239.5,-600 239.5,-600 239.5,-606 233.5,-612 227.5,-612"/>
<text text-anchor="middle" x="212.5" y="-591.5" font-family="sans" font-size="10.00" fill="#000000">gzip</text>
</g>
<!-- 16&#45;&gt;11 -->
<g id="edge21" class="edge">
<title>16&#45;&gt;11</title>
<path fill="none" stroke="#c0c0c0" stroke-width="2" d="M208.0376,-575.6767C204.3915,-556.9511 201.2037,-527.3822 210.5,-504 214.7676,-493.2659 222.2931,-483.4321 230.2739,-475.1828"/>
<polygon fill="#c0c0c0" stroke="#c0c0c0" stroke-width="2" points="232.8801,-477.5319 237.6509,-468.072 228.0221,-472.4921 232.8801,-477.5319"/>
</g>
<!-- 17 -->
<g id="node18" class="node">
<title>17</title>
<path fill="none" stroke="#56d8b1" stroke-width="2" d="M291,-540C291,-540 232,-540 232,-540 226,-540 220,-534 220,-528 220,-528 220,-516 220,-516 220,-510 226,-504 232,-504 232,-504 291,-504 291,-504 297,-504 303,-510 303,-516 303,-516 303,-528 303,-528 303,-534 297,-540 291,-540"/>
<text text-anchor="middle" x="261.5" y="-519.5" font-family="sans" font-size="10.00" fill="#000000">first_mapping</text>
</g>
<!-- 16&#45;&gt;17 -->
<g id="edge31" class="edge">
<title>16&#45;&gt;17</title>
<path fill="none" stroke="#c0c0c0" stroke-width="2" d="M224.8648,-575.8314C230.4509,-567.6232 237.163,-557.7606 243.3072,-548.7323"/>
<polygon fill="#c0c0c0" stroke="#c0c0c0" stroke-width="2" points="246.236,-550.6496 248.9687,-540.4133 240.449,-546.7112 246.236,-550.6496"/>
</g>
<!-- 17&#45;&gt;11 -->
<g id="edge22" class="edge">
<title>17&#45;&gt;11</title>
<path fill="none" stroke="#c0c0c0" stroke-width="2" d="M261.5,-503.8314C261.5,-496.131 261.5,-486.9743 261.5,-478.4166"/>
<polygon fill="#c0c0c0" stroke="#c0c0c0" stroke-width="2" points="265.0001,-478.4132 261.5,-468.4133 258.0001,-478.4133 265.0001,-478.4132"/>
</g>
<!-- 18 -->
<g id="node19" class="node">
<title>18</title>
<path fill="none" stroke="#d8ac56" stroke-width="2" d="M364,-612C364,-612 283,-612 283,-612 277,-612 271,-606 271,-600 271,-600 271,-588 271,-588 271,-582 277,-576 283,-576 283,-576 364,-576 364,-576 370,-576 376,-582 376,-588 376,-588 376,-600 376,-600 376,-606 370,-612 364,-612"/>
<text text-anchor="middle" x="323.5" y="-591.5" font-family="sans" font-size="10.00" fill="#000000">generate_genome</text>
</g>
<!-- 18&#45;&gt;11 -->
<g id="edge20" class="edge">
<title>18&#45;&gt;11</title>
<path fill="none" stroke="#c0c0c0" stroke-width="2" d="M324.2316,-575.8543C324.289,-557.0098 322.3713,-527.1069 311.5,-504 306.5444,-493.4668 298.783,-483.5913 290.8407,-475.2395"/>
<polygon fill="#c0c0c0" stroke="#c0c0c0" stroke-width="2" points="293.1338,-472.5842 283.5712,-468.0227 288.2021,-477.5519 293.1338,-472.5842"/>
</g>
<!-- 18&#45;&gt;17 -->
<g id="edge30" class="edge">
<title>18&#45;&gt;17</title>
<path fill="none" stroke="#c0c0c0" stroke-width="2" d="M307.8548,-575.8314C300.6409,-567.454 291.943,-557.3531 284.0395,-548.1749"/>
<polygon fill="#c0c0c0" stroke="#c0c0c0" stroke-width="2" points="286.5333,-545.7071 277.3559,-540.4133 281.2289,-550.2748 286.5333,-545.7071"/>
</g>
<!-- 22 -->
<g id="node23" class="node">
<title>22</title>
<path fill="none" stroke="#566bd8" stroke-width="2" d="M488.5,-540C488.5,-540 444.5,-540 444.5,-540 438.5,-540 432.5,-534 432.5,-528 432.5,-528 432.5,-516 432.5,-516 432.5,-510 438.5,-504 444.5,-504 444.5,-504 488.5,-504 488.5,-504 494.5,-504 500.5,-510 500.5,-516 500.5,-516 500.5,-528 500.5,-528 500.5,-534 494.5,-540 488.5,-540"/>
<text text-anchor="middle" x="466.5" y="-519.5" font-family="sans" font-size="10.00" fill="#000000">shuffle_gtf</text>
</g>
<!-- 18&#45;&gt;22 -->
<g id="edge36" class="edge">
<title>18&#45;&gt;22</title>
<path fill="none" stroke="#c0c0c0" stroke-width="2" d="M359.5849,-575.8314C378.9576,-566.0773 402.9708,-553.9867 423.3289,-543.7365"/>
<polygon fill="#c0c0c0" stroke="#c0c0c0" stroke-width="2" points="425.0378,-546.7947 432.3956,-539.1715 421.8898,-540.5425 425.0378,-546.7947"/>
</g>
<!-- 19 -->
<g id="node20" class="node">
<title>19</title>
<path fill="none" stroke="#d85656" stroke-width="2" d="M432,-684C432,-684 377,-684 377,-684 371,-684 365,-678 365,-672 365,-672 365,-660 365,-660 365,-654 371,-648 377,-648 377,-648 432,-648 432,-648 438,-648 444,-654 444,-660 444,-660 444,-672 444,-672 444,-678 438,-684 432,-684"/>
<text text-anchor="middle" x="404.5" y="-663.5" font-family="sans" font-size="10.00" fill="#000000">generate_gtf</text>
</g>
<!-- 19&#45;&gt;12 -->
<g id="edge23" class="edge">
<title>19&#45;&gt;12</title>
<path fill="none" stroke="#c0c0c0" stroke-width="2" d="M404.0621,-647.9843C402.8787,-599.2939 399.6096,-464.7961 398.1819,-406.0573"/>
<polygon fill="#c0c0c0" stroke="#c0c0c0" stroke-width="2" points="401.6798,-405.9208 397.9377,-396.0089 394.6818,-406.091 401.6798,-405.9208"/>
</g>
<!-- 19&#45;&gt;18 -->
<g id="edge32" class="edge">
<title>19&#45;&gt;18</title>
<path fill="none" stroke="#c0c0c0" stroke-width="2" d="M384.0603,-647.8314C374.1795,-639.0485 362.1676,-628.3712 351.455,-618.8489"/>
<polygon fill="#c0c0c0" stroke="#c0c0c0" stroke-width="2" points="353.7326,-616.1906 343.9332,-612.1628 349.082,-621.4224 353.7326,-616.1906"/>
</g>
<!-- 19&#45;&gt;22 -->
<g id="edge37" class="edge">
<title>19&#45;&gt;22</title>
<path fill="none" stroke="#c0c0c0" stroke-width="2" d="M412.3523,-647.7623C423.0205,-622.9846 442.1859,-578.4714 454.6193,-549.5939"/>
<polygon fill="#c0c0c0" stroke="#c0c0c0" stroke-width="2" points="457.9715,-550.6586 458.7114,-540.0896 451.5421,-547.8903 457.9715,-550.6586"/>
</g>
<!-- 20&#45;&gt;15 -->
<g id="edge28" class="edge">
<title>20&#45;&gt;15</title>
<path fill="none" stroke="#c0c0c0" stroke-width="2" d="M534.1914,-359.8314C531.4883,-352.0463 528.2684,-342.7729 525.269,-334.1347"/>
<polygon fill="#c0c0c0" stroke="#c0c0c0" stroke-width="2" points="528.48,-332.7119 521.8935,-324.4133 521.8673,-335.0081 528.48,-332.7119"/>
</g>
<!-- 21 -->
<g id="node22" class="node">
<title>21</title>
<path fill="none" stroke="#56d8a2" stroke-width="2" d="M230,-684C230,-684 195,-684 195,-684 189,-684 183,-678 183,-672 183,-672 183,-660 183,-660 183,-654 189,-648 195,-648 195,-648 230,-648 230,-648 236,-648 242,-654 242,-660 242,-660 242,-672 242,-672 242,-678 236,-684 230,-684"/>
<text text-anchor="middle" x="212.5" y="-663.5" font-family="sans" font-size="10.00" fill="#000000">cutadapt</text>
</g>
<!-- 21&#45;&gt;16 -->
<g id="edge29" class="edge">
<title>21&#45;&gt;16</title>
<path fill="none" stroke="#c0c0c0" stroke-width="2" d="M212.5,-647.8314C212.5,-640.131 212.5,-630.9743 212.5,-622.4166"/>
<polygon fill="#c0c0c0" stroke="#c0c0c0" stroke-width="2" points="216.0001,-622.4132 212.5,-612.4133 209.0001,-622.4133 216.0001,-622.4132"/>
</g>
<!-- 22&#45;&gt;20 -->
<g id="edge34" class="edge">
<title>22&#45;&gt;20</title>
<path fill="none" stroke="#c0c0c0" stroke-width="2" d="M475.8722,-503.7623C488.6607,-478.8764 511.68,-434.0822 526.5138,-405.2165"/>
<polygon fill="#c0c0c0" stroke="#c0c0c0" stroke-width="2" points="529.7462,-406.5837 531.2039,-396.0896 523.5202,-403.3842 529.7462,-406.5837"/>
</g>
<!-- 23 -->
<g id="node24" class="node">
<title>23</title>
<path fill="none" stroke="#88d856" stroke-width="2" d="M227.5,-756C227.5,-756 197.5,-756 197.5,-756 191.5,-756 185.5,-750 185.5,-744 185.5,-744 185.5,-732 185.5,-732 185.5,-726 191.5,-720 197.5,-720 197.5,-720 227.5,-720 227.5,-720 233.5,-720 239.5,-726 239.5,-732 239.5,-732 239.5,-744 239.5,-744 239.5,-750 233.5,-756 227.5,-756"/>
<text text-anchor="middle" x="212.5" y="-735.5" font-family="sans" font-size="10.00" fill="#000000">repair</text>
</g>
<!-- 23&#45;&gt;21 -->
<g id="edge35" class="edge">
<title>23&#45;&gt;21</title>
<path fill="none" stroke="#c0c0c0" stroke-width="2" d="M212.5,-719.8314C212.5,-712.131 212.5,-702.9743 212.5,-694.4166"/>
<polygon fill="#c0c0c0" stroke="#c0c0c0" stroke-width="2" points="216.0001,-694.4132 212.5,-684.4133 209.0001,-694.4133 216.0001,-694.4132"/>
</g>
</g>
</svg>
