<?xml version="1.0" encoding="UTF-8" standalone="no"?>
<!DOCTYPE svg PUBLIC "-//W3C//DTD SVG 1.1//EN"
 "http://www.w3.org/Graphics/SVG/1.1/DTD/svg11.dtd">
<!-- Generated by graphviz version 2.38.0 (20140413.2041)
 -->
<!-- Title: snakemake_dag Pages: 1 -->
<svg width="253pt" height="332pt"
 viewBox="0.00 0.00 252.50 332.00" xmlns="http://www.w3.org/2000/svg" xmlns:xlink="http://www.w3.org/1999/xlink">
<g id="graph0" class="graph" transform="scale(1 1) rotate(0) translate(4 328)">
<title>snakemake_dag</title>
<polygon fill="white" stroke="none" points="-4,4 -4,-328 248.5,-328 248.5,4 -4,4"/>
<!-- 0 -->
<g id="node1" class="node"><title>0</title>
<path fill="none" stroke="#56d873" stroke-width="2" d="M56,-108C56,-108 12,-108 12,-108 6,-108 0,-102 0,-96 0,-96 0,-84 0,-84 0,-78 6,-72 12,-72 12,-72 56,-72 56,-72 62,-72 68,-78 68,-84 68,-84 68,-96 68,-96 68,-102 62,-108 56,-108"/>
<text text-anchor="middle" x="34" y="-87.5" font-family="sans" font-size="10.00">shuffle_gtf</text>
</g>
<!-- 1 -->
<g id="node2" class="node"><title>1</title>
<path fill="none" stroke="#70d856" stroke-width="2" d="M208.5,-36C208.5,-36 133.5,-36 133.5,-36 127.5,-36 121.5,-30 121.5,-24 121.5,-24 121.5,-12 121.5,-12 121.5,-6 127.5,-0 133.5,-0 133.5,-0 208.5,-0 208.5,-0 214.5,-0 220.5,-6 220.5,-12 220.5,-12 220.5,-24 220.5,-24 220.5,-30 214.5,-36 208.5,-36"/>
<text text-anchor="middle" x="171" y="-15.5" font-family="sans" font-size="10.00">second_mapping</text>
</g>
<!-- 2 -->
<g id="node3" class="node"><title>2</title>
<path fill="none" stroke="#d8cb56" stroke-width="2" d="M92.5,-252C92.5,-252 37.5,-252 37.5,-252 31.5,-252 25.5,-246 25.5,-240 25.5,-240 25.5,-228 25.5,-228 25.5,-222 31.5,-216 37.5,-216 37.5,-216 92.5,-216 92.5,-216 98.5,-216 104.5,-222 104.5,-228 104.5,-228 104.5,-240 104.5,-240 104.5,-246 98.5,-252 92.5,-252"/>
<text text-anchor="middle" x="65" y="-231.5" font-family="sans" font-size="10.00">generate_gtf</text>
</g>
<!-- 2&#45;&gt;0 -->
<g id="edge2" class="edge"><title>2&#45;&gt;0</title>
<path fill="none" stroke="grey" stroke-width="2" d="M56.8007,-215.719C52.3176,-205.542 47.0676,-192.292 44,-180 38.9253,-159.666 36.4222,-136.071 35.1896,-118.287"/>
<polygon fill="grey" stroke="grey" stroke-width="2" points="38.6831,-118.073 34.5877,-108.301 31.6958,-118.494 38.6831,-118.073"/>
</g>
<!-- 3 -->
<g id="node4" class="node"><title>3</title>
<path fill="none" stroke="#56d8a9" stroke-width="2" d="M146.5,-180C146.5,-180 65.5,-180 65.5,-180 59.5,-180 53.5,-174 53.5,-168 53.5,-168 53.5,-156 53.5,-156 53.5,-150 59.5,-144 65.5,-144 65.5,-144 146.5,-144 146.5,-144 152.5,-144 158.5,-150 158.5,-156 158.5,-156 158.5,-168 158.5,-168 158.5,-174 152.5,-180 146.5,-180"/>
<text text-anchor="middle" x="106" y="-159.5" font-family="sans" font-size="10.00">generate_genome</text>
</g>
<!-- 2&#45;&gt;3 -->
<g id="edge6" class="edge"><title>2&#45;&gt;3</title>
<path fill="none" stroke="grey" stroke-width="2" d="M75.1348,-215.697C79.8516,-207.644 85.5618,-197.894 90.7817,-188.982"/>
<polygon fill="grey" stroke="grey" stroke-width="2" points="93.9478,-190.502 95.9817,-180.104 87.9076,-186.964 93.9478,-190.502"/>
</g>
<!-- 3&#45;&gt;0 -->
<g id="edge1" class="edge"><title>3&#45;&gt;0</title>
<path fill="none" stroke="grey" stroke-width="2" d="M88.2022,-143.697C79.396,-135.135 68.6179,-124.656 58.9989,-115.304"/>
<polygon fill="grey" stroke="grey" stroke-width="2" points="61.2028,-112.566 51.593,-108.104 56.3232,-117.585 61.2028,-112.566"/>
</g>
<!-- 3&#45;&gt;1 -->
<g id="edge3" class="edge"><title>3&#45;&gt;1</title>
<path fill="none" stroke="grey" stroke-width="2" d="M105.703,-143.679C106.051,-125.037 108.587,-94.9729 120,-72 125.317,-61.2975 133.562,-51.3371 141.884,-43.0064"/>
<polygon fill="grey" stroke="grey" stroke-width="2" points="144.293,-45.5457 149.146,-36.1274 139.479,-40.4639 144.293,-45.5457"/>
</g>
<!-- 5 -->
<g id="node6" class="node"><title>5</title>
<path fill="none" stroke="#56c9d8" stroke-width="2" d="M200.5,-108C200.5,-108 141.5,-108 141.5,-108 135.5,-108 129.5,-102 129.5,-96 129.5,-96 129.5,-84 129.5,-84 129.5,-78 135.5,-72 141.5,-72 141.5,-72 200.5,-72 200.5,-72 206.5,-72 212.5,-78 212.5,-84 212.5,-84 212.5,-96 212.5,-96 212.5,-102 206.5,-108 200.5,-108"/>
<text text-anchor="middle" x="171" y="-87.5" font-family="sans" font-size="10.00">first_mapping</text>
</g>
<!-- 3&#45;&gt;5 -->
<g id="edge8" class="edge"><title>3&#45;&gt;5</title>
<path fill="none" stroke="grey" stroke-width="2" d="M122.067,-143.697C129.939,-135.22 139.555,-124.864 148.173,-115.583"/>
<polygon fill="grey" stroke="grey" stroke-width="2" points="150.878,-117.814 155.117,-108.104 145.748,-113.051 150.878,-117.814"/>
</g>
<!-- 4 -->
<g id="node5" class="node"><title>4</title>
<path fill="none" stroke="#d85656" stroke-width="2" d="M230,-180C230,-180 200,-180 200,-180 194,-180 188,-174 188,-168 188,-168 188,-156 188,-156 188,-150 194,-144 200,-144 200,-144 230,-144 230,-144 236,-144 242,-150 242,-156 242,-156 242,-168 242,-168 242,-174 236,-180 230,-180"/>
<text text-anchor="middle" x="215" y="-159.5" font-family="sans" font-size="10.00">gzip</text>
</g>
<!-- 4&#45;&gt;1 -->
<g id="edge5" class="edge"><title>4&#45;&gt;1</title>
<path fill="none" stroke="grey" stroke-width="2" d="M220.401,-143.924C225.277,-125.491 230.377,-95.6035 221,-72 216.709,-61.1991 209.058,-51.3244 201.012,-43.1022"/>
<polygon fill="grey" stroke="grey" stroke-width="2" points="203.25,-40.4006 193.596,-36.0367 198.422,-45.4687 203.25,-40.4006"/>
</g>
<!-- 4&#45;&gt;5 -->
<g id="edge9" class="edge"><title>4&#45;&gt;5</title>
<path fill="none" stroke="grey" stroke-width="2" d="M204.124,-143.697C199.008,-135.559 192.805,-125.689 187.155,-116.701"/>
<polygon fill="grey" stroke="grey" stroke-width="2" points="190.036,-114.708 181.751,-108.104 184.11,-118.433 190.036,-114.708"/>
</g>
<!-- 5&#45;&gt;1 -->
<g id="edge4" class="edge"><title>5&#45;&gt;1</title>
<path fill="none" stroke="grey" stroke-width="2" d="M171,-71.6966C171,-63.9827 171,-54.7125 171,-46.1124"/>
<polygon fill="grey" stroke="grey" stroke-width="2" points="174.5,-46.1043 171,-36.1043 167.5,-46.1044 174.5,-46.1043"/>
</g>
<!-- 6 -->
<g id="node7" class="node"><title>6</title>
<path fill="none" stroke="#afd856" stroke-width="2" d="M232.5,-252C232.5,-252 197.5,-252 197.5,-252 191.5,-252 185.5,-246 185.5,-240 185.5,-240 185.5,-228 185.5,-228 185.5,-222 191.5,-216 197.5,-216 197.5,-216 232.5,-216 232.5,-216 238.5,-216 244.5,-222 244.5,-228 244.5,-228 244.5,-240 244.5,-240 244.5,-246 238.5,-252 232.5,-252"/>
<text text-anchor="middle" x="215" y="-231.5" font-family="sans" font-size="10.00">cutadapt</text>
</g>
<!-- 6&#45;&gt;4 -->
<g id="edge7" class="edge"><title>6&#45;&gt;4</title>
<path fill="none" stroke="grey" stroke-width="2" d="M215,-215.697C215,-207.983 215,-198.712 215,-190.112"/>
<polygon fill="grey" stroke="grey" stroke-width="2" points="218.5,-190.104 215,-180.104 211.5,-190.104 218.5,-190.104"/>
</g>
<!-- 7 -->
<g id="node8" class="node"><title>7</title>
<path fill="none" stroke="#d88d56" stroke-width="2" d="M230,-324C230,-324 200,-324 200,-324 194,-324 188,-318 188,-312 188,-312 188,-300 188,-300 188,-294 194,-288 200,-288 200,-288 230,-288 230,-288 236,-288 242,-294 242,-300 242,-300 242,-312 242,-312 242,-318 236,-324 230,-324"/>
<text text-anchor="middle" x="215" y="-303.5" font-family="sans" font-size="10.00">repair</text>
</g>
<!-- 7&#45;&gt;6 -->
<g id="edge10" class="edge"><title>7&#45;&gt;6</title>
<path fill="none" stroke="grey" stroke-width="2" d="M215,-287.697C215,-279.983 215,-270.712 215,-262.112"/>
<polygon fill="grey" stroke="grey" stroke-width="2" points="218.5,-262.104 215,-252.104 211.5,-262.104 218.5,-262.104"/>
</g>
</g>
</svg>
