<?xml version="1.0" encoding="UTF-8" standalone="no"?>
<!DOCTYPE svg PUBLIC "-//W3C//DTD SVG 1.1//EN"
 "http://www.w3.org/Graphics/SVG/1.1/DTD/svg11.dtd">
<!-- Generated by graphviz version 2.40.1 (20161225.0304)
 -->
<!-- Title: snakemake_dag Pages: 1 -->
<svg width="1352pt" height="836pt"
 viewBox="0.00 0.00 1352.00 836.00" xmlns="http://www.w3.org/2000/svg" xmlns:xlink="http://www.w3.org/1999/xlink">
<g id="graph0" class="graph" transform="scale(1 1) rotate(0) translate(4 832)">
<title>snakemake_dag</title>
<polygon fill="#ffffff" stroke="transparent" points="-4,4 -4,-832 1348,-832 1348,4 -4,4"/>
<!-- 0 -->
<g id="node1" class="node">
<title>0</title>
<path fill="none" stroke="#d89556" stroke-width="2" d="M352,-828C352,-828 322,-828 322,-828 316,-828 310,-822 310,-816 310,-816 310,-804 310,-804 310,-798 316,-792 322,-792 322,-792 352,-792 352,-792 358,-792 364,-798 364,-804 364,-804 364,-816 364,-816 364,-822 358,-828 352,-828"/>
<text text-anchor="middle" x="337" y="-807.5" font-family="sans" font-size="10.00" fill="#000000">md5</text>
</g>
<!-- 1 -->
<g id="node2" class="node">
<title>1</title>
<path fill="none" stroke="#70d856" stroke-width="2" d="M384,-36C384,-36 274,-36 274,-36 268,-36 262,-30 262,-24 262,-24 262,-12 262,-12 262,-6 268,0 274,0 274,0 384,0 384,0 390,0 396,-6 396,-12 396,-12 396,-24 396,-24 396,-30 390,-36 384,-36"/>
<text text-anchor="middle" x="329" y="-15.5" font-family="sans" font-size="10.00" fill="#000000">fgsea_enrichment_table</text>
</g>
<!-- 2 -->
<g id="node3" class="node">
<title>2</title>
<path fill="none" stroke="#56d8c9" stroke-width="2" d="M234.5,-108C234.5,-108 163.5,-108 163.5,-108 157.5,-108 151.5,-102 151.5,-96 151.5,-96 151.5,-84 151.5,-84 151.5,-78 157.5,-72 163.5,-72 163.5,-72 234.5,-72 234.5,-72 240.5,-72 246.5,-78 246.5,-84 246.5,-84 246.5,-96 246.5,-96 246.5,-102 240.5,-108 234.5,-108"/>
<text text-anchor="middle" x="199" y="-87.5" font-family="sans" font-size="10.00" fill="#000000">de_genes_stage</text>
</g>
<!-- 3 -->
<g id="node4" class="node">
<title>3</title>
<path fill="none" stroke="#d6d856" stroke-width="2" d="M877.5,-36C877.5,-36 770.5,-36 770.5,-36 764.5,-36 758.5,-30 758.5,-24 758.5,-24 758.5,-12 758.5,-12 758.5,-6 764.5,0 770.5,0 770.5,0 877.5,0 877.5,0 883.5,0 889.5,-6 889.5,-12 889.5,-12 889.5,-24 889.5,-24 889.5,-30 883.5,-36 877.5,-36"/>
<text text-anchor="middle" x="824" y="-15.5" font-family="sans" font-size="10.00" fill="#000000">cluster_phenotype_corr</text>
</g>
<!-- 4 -->
<g id="node5" class="node">
<title>4</title>
<path fill="none" stroke="#56b1d8" stroke-width="2" d="M1332,-36C1332,-36 1222,-36 1222,-36 1216,-36 1210,-30 1210,-24 1210,-24 1210,-12 1210,-12 1210,-6 1216,0 1222,0 1222,0 1332,0 1332,0 1338,0 1344,-6 1344,-12 1344,-12 1344,-24 1344,-24 1344,-30 1338,-36 1332,-36"/>
<text text-anchor="middle" x="1277" y="-15.5" font-family="sans" font-size="10.00" fill="#000000">phenotype_all_varieties</text>
</g>
<!-- 5 -->
<g id="node6" class="node">
<title>5</title>
<path fill="none" stroke="#d85e56" stroke-width="2" d="M515,-108C515,-108 423,-108 423,-108 417,-108 411,-102 411,-96 411,-96 411,-84 411,-84 411,-78 417,-72 423,-72 423,-72 515,-72 515,-72 521,-72 527,-78 527,-84 527,-84 527,-96 527,-96 527,-102 521,-108 515,-108"/>
<text text-anchor="middle" x="469" y="-87.5" font-family="sans" font-size="10.00" fill="#000000">mads_ap2_heatmap</text>
</g>
<!-- 6 -->
<g id="node7" class="node">
<title>6</title>
<path fill="none" stroke="#5682d8" stroke-width="2" d="M482.5,-180C482.5,-180 399.5,-180 399.5,-180 393.5,-180 387.5,-174 387.5,-168 387.5,-168 387.5,-156 387.5,-156 387.5,-150 393.5,-144 399.5,-144 399.5,-144 482.5,-144 482.5,-144 488.5,-144 494.5,-150 494.5,-156 494.5,-156 494.5,-168 494.5,-168 494.5,-174 488.5,-180 482.5,-180"/>
<text text-anchor="middle" x="441" y="-159.5" font-family="sans" font-size="10.00" fill="#000000">distance_heatmap</text>
</g>
<!-- 7 -->
<g id="node8" class="node">
<title>7</title>
<path fill="none" stroke="#56d873" stroke-width="2" d="M692.5,-108C692.5,-108 595.5,-108 595.5,-108 589.5,-108 583.5,-102 583.5,-96 583.5,-96 583.5,-84 583.5,-84 583.5,-78 589.5,-72 595.5,-72 595.5,-72 692.5,-72 692.5,-72 698.5,-72 704.5,-78 704.5,-84 704.5,-84 704.5,-96 704.5,-96 704.5,-102 698.5,-108 692.5,-108"/>
<text text-anchor="middle" x="644" y="-87.5" font-family="sans" font-size="10.00" fill="#000000">de_genes_interaction</text>
</g>
<!-- 8 -->
<g id="node9" class="node">
<title>8</title>
<path fill="none" stroke="#569ad8" stroke-width="2" d="M543.5,-828C543.5,-828 466.5,-828 466.5,-828 460.5,-828 454.5,-822 454.5,-816 454.5,-816 454.5,-804 454.5,-804 454.5,-798 460.5,-792 466.5,-792 466.5,-792 543.5,-792 543.5,-792 549.5,-792 555.5,-798 555.5,-804 555.5,-804 555.5,-816 555.5,-816 555.5,-822 549.5,-828 543.5,-828"/>
<text text-anchor="middle" x="505" y="-807.5" font-family="sans" font-size="10.00" fill="#000000">phenotyping_mpl</text>
</g>
<!-- 9 -->
<g id="node10" class="node">
<title>9</title>
<path fill="none" stroke="#56d882" stroke-width="2" d="M936,-108C936,-108 864,-108 864,-108 858,-108 852,-102 852,-96 852,-96 852,-84 852,-84 852,-78 858,-72 864,-72 864,-72 936,-72 936,-72 942,-72 948,-78 948,-84 948,-84 948,-96 948,-96 948,-102 942,-108 936,-108"/>
<text text-anchor="middle" x="900" y="-87.5" font-family="sans" font-size="10.00" fill="#000000">clustered_genes</text>
</g>
<!-- 10 -->
<g id="node11" class="node">
<title>10</title>
<path fill="none" stroke="#9fd856" stroke-width="2" d="M660,-828C660,-828 586,-828 586,-828 580,-828 574,-822 574,-816 574,-816 574,-804 574,-804 574,-798 580,-792 586,-792 586,-792 660,-792 660,-792 666,-792 672,-798 672,-804 672,-804 672,-816 672,-816 672,-822 666,-828 660,-828"/>
<text text-anchor="middle" x="623" y="-807.5" font-family="sans" font-size="10.00" fill="#000000">panicle_mutants</text>
</g>
<!-- 11 -->
<g id="node12" class="node">
<title>11</title>
<path fill="none" stroke="#56d8a9" stroke-width="2" d="M368.5,-396C368.5,-396 331.5,-396 331.5,-396 325.5,-396 319.5,-390 319.5,-384 319.5,-384 319.5,-372 319.5,-372 319.5,-366 325.5,-360 331.5,-360 331.5,-360 368.5,-360 368.5,-360 374.5,-360 380.5,-366 380.5,-372 380.5,-372 380.5,-384 380.5,-384 380.5,-390 374.5,-396 368.5,-396"/>
<text text-anchor="middle" x="350" y="-375.5" font-family="sans" font-size="10.00" fill="#000000">star_logs</text>
</g>
<!-- 12 -->
<g id="node13" class="node">
<title>12</title>
<path fill="none" stroke="#56d8b9" stroke-width="2" d="M1179.5,-36C1179.5,-36 1112.5,-36 1112.5,-36 1106.5,-36 1100.5,-30 1100.5,-24 1100.5,-24 1100.5,-12 1100.5,-12 1100.5,-6 1106.5,0 1112.5,0 1112.5,0 1179.5,0 1179.5,0 1185.5,0 1191.5,-6 1191.5,-12 1191.5,-12 1191.5,-24 1191.5,-24 1191.5,-30 1185.5,-36 1179.5,-36"/>
<text text-anchor="middle" x="1146" y="-15.5" font-family="sans" font-size="10.00" fill="#000000">phenotype_pca</text>
</g>
<!-- 13 -->
<g id="node14" class="node">
<title>13</title>
<path fill="none" stroke="#8fd856" stroke-width="2" d="M684.5,-324C684.5,-324 601.5,-324 601.5,-324 595.5,-324 589.5,-318 589.5,-312 589.5,-312 589.5,-300 589.5,-300 589.5,-294 595.5,-288 601.5,-288 601.5,-288 684.5,-288 684.5,-288 690.5,-288 696.5,-294 696.5,-300 696.5,-300 696.5,-312 696.5,-312 696.5,-318 690.5,-324 684.5,-324"/>
<text text-anchor="middle" x="643" y="-303.5" font-family="sans" font-size="10.00" fill="#000000">transcriptome_pca</text>
</g>
<!-- 14 -->
<g id="node15" class="node">
<title>14</title>
<path fill="none" stroke="#56d0d8" stroke-width="2" d="M783.5,-108C783.5,-108 734.5,-108 734.5,-108 728.5,-108 722.5,-102 722.5,-96 722.5,-96 722.5,-84 722.5,-84 722.5,-78 728.5,-72 734.5,-72 734.5,-72 783.5,-72 783.5,-72 789.5,-72 795.5,-78 795.5,-84 795.5,-84 795.5,-96 795.5,-96 795.5,-102 789.5,-108 783.5,-108"/>
<text text-anchor="middle" x="759" y="-87.5" font-family="sans" font-size="10.00" fill="#000000">dom_genes</text>
</g>
<!-- 15 -->
<g id="node16" class="node">
<title>15</title>
<path fill="none" stroke="#d89c56" stroke-width="2" d="M770,-828C770,-828 702,-828 702,-828 696,-828 690,-822 690,-816 690,-816 690,-804 690,-804 690,-798 696,-792 702,-792 702,-792 770,-792 770,-792 776,-792 782,-798 782,-804 782,-804 782,-816 782,-816 782,-822 776,-828 770,-828"/>
<text text-anchor="middle" x="736" y="-807.5" font-family="sans" font-size="10.00" fill="#000000">lmd_paper_ap2</text>
</g>
<!-- 16 -->
<g id="node17" class="node">
<title>16</title>
<path fill="none" stroke="#d8c356" stroke-width="2" d="M381,-108C381,-108 277,-108 277,-108 271,-108 265,-102 265,-96 265,-96 265,-84 265,-84 265,-78 271,-72 277,-72 277,-72 381,-72 381,-72 387,-72 393,-78 393,-84 393,-84 393,-96 393,-96 393,-102 387,-108 381,-108"/>
<text text-anchor="middle" x="329" y="-87.5" font-family="sans" font-size="10.00" fill="#000000">fgsea_enrichment_test</text>
</g>
<!-- 16&#45;&gt;1 -->
<g id="edge1" class="edge">
<title>16&#45;&gt;1</title>
<path fill="none" stroke="#c0c0c0" stroke-width="2" d="M329,-71.8314C329,-64.131 329,-54.9743 329,-46.4166"/>
<polygon fill="#c0c0c0" stroke="#c0c0c0" stroke-width="2" points="332.5001,-46.4132 329,-36.4133 325.5001,-46.4133 332.5001,-46.4132"/>
</g>
<!-- 17 -->
<g id="node18" class="node">
<title>17</title>
<path fill="none" stroke="#d87d56" stroke-width="2" d="M258.5,-180C258.5,-180 219.5,-180 219.5,-180 213.5,-180 207.5,-174 207.5,-168 207.5,-168 207.5,-156 207.5,-156 207.5,-150 213.5,-144 219.5,-144 219.5,-144 258.5,-144 258.5,-144 264.5,-144 270.5,-150 270.5,-156 270.5,-156 270.5,-168 270.5,-168 270.5,-174 264.5,-180 258.5,-180"/>
<text text-anchor="middle" x="239" y="-159.5" font-family="sans" font-size="10.00" fill="#000000">deseq_all</text>
</g>
<!-- 17&#45;&gt;2 -->
<g id="edge2" class="edge">
<title>17&#45;&gt;2</title>
<path fill="none" stroke="#c0c0c0" stroke-width="2" d="M228.9063,-143.8314C224.4403,-135.7925 219.0925,-126.1666 214.1621,-117.2918"/>
<polygon fill="#c0c0c0" stroke="#c0c0c0" stroke-width="2" points="217.1456,-115.4551 209.2296,-108.4133 211.0265,-118.8546 217.1456,-115.4551"/>
</g>
<!-- 17&#45;&gt;5 -->
<g id="edge12" class="edge">
<title>17&#45;&gt;5</title>
<path fill="none" stroke="#c0c0c0" stroke-width="2" d="M270.7037,-147.23C273.4888,-146.086 276.2816,-144.9919 279,-144 290.8163,-139.6883 351.4969,-122.5816 401.1504,-108.7624"/>
<polygon fill="#c0c0c0" stroke="#c0c0c0" stroke-width="2" points="402.2194,-112.098 410.9163,-106.0471 400.3442,-105.3538 402.2194,-112.098"/>
</g>
<!-- 17&#45;&gt;16 -->
<g id="edge23" class="edge">
<title>17&#45;&gt;16</title>
<path fill="none" stroke="#c0c0c0" stroke-width="2" d="M261.7108,-143.8314C272.796,-134.9632 286.2954,-124.1637 298.2852,-114.5718"/>
<polygon fill="#c0c0c0" stroke="#c0c0c0" stroke-width="2" points="300.6742,-117.1429 306.2965,-108.1628 296.3013,-111.6768 300.6742,-117.1429"/>
</g>
<!-- 18 -->
<g id="node19" class="node">
<title>18</title>
<path fill="none" stroke="#56d892" stroke-width="2" d="M341,-324C341,-324 265,-324 265,-324 259,-324 253,-318 253,-312 253,-312 253,-300 253,-300 253,-294 259,-288 265,-288 265,-288 341,-288 341,-288 347,-288 353,-294 353,-300 353,-300 353,-312 353,-312 353,-318 347,-324 341,-324"/>
<text text-anchor="middle" x="303" y="-303.5" font-family="sans" font-size="10.00" fill="#000000">calculate_cutoffs</text>
</g>
<!-- 18&#45;&gt;3 -->
<g id="edge6" class="edge">
<title>18&#45;&gt;3</title>
<path fill="none" stroke="#c0c0c0" stroke-width="2" d="M273.6503,-287.7058C210.9852,-246.5137 75.0712,-144.4377 142,-72 162.3498,-49.9752 575.1169,-29.0906 748.4223,-21.2569"/>
<polygon fill="#c0c0c0" stroke="#c0c0c0" stroke-width="2" points="748.6564,-24.75 758.4891,-20.8044 748.342,-17.7571 748.6564,-24.75"/>
</g>
<!-- 27 -->
<g id="node28" class="node">
<title>27</title>
<path fill="none" stroke="#56d89a" stroke-width="2" d="M392,-252C392,-252 306,-252 306,-252 300,-252 294,-246 294,-240 294,-240 294,-228 294,-228 294,-222 300,-216 306,-216 306,-216 392,-216 392,-216 398,-216 404,-222 404,-228 404,-228 404,-240 404,-240 404,-246 398,-252 392,-252"/>
<text text-anchor="middle" x="349" y="-231.5" font-family="sans" font-size="10.00" fill="#000000">filter_deseq_object</text>
</g>
<!-- 18&#45;&gt;27 -->
<g id="edge39" class="edge">
<title>18&#45;&gt;27</title>
<path fill="none" stroke="#c0c0c0" stroke-width="2" d="M314.6077,-287.8314C319.7978,-279.7079 326.0232,-269.9637 331.7425,-261.0118"/>
<polygon fill="#c0c0c0" stroke="#c0c0c0" stroke-width="2" points="334.8015,-262.7246 337.236,-252.4133 328.9026,-258.9559 334.8015,-262.7246"/>
</g>
<!-- 33 -->
<g id="node34" class="node">
<title>33</title>
<path fill="none" stroke="#5663d8" stroke-width="2" d="M597,-252C597,-252 563,-252 563,-252 557,-252 551,-246 551,-240 551,-240 551,-228 551,-228 551,-222 557,-216 563,-216 563,-216 597,-216 597,-216 603,-216 609,-222 609,-228 609,-228 609,-240 609,-240 609,-246 603,-252 597,-252"/>
<text text-anchor="middle" x="580" y="-231.5" font-family="sans" font-size="10.00" fill="#000000">filter_tfs</text>
</g>
<!-- 18&#45;&gt;33 -->
<g id="edge49" class="edge">
<title>18&#45;&gt;33</title>
<path fill="none" stroke="#c0c0c0" stroke-width="2" d="M353.1626,-292.9613C407.0171,-278.9631 491.4548,-257.0154 540.6955,-244.2163"/>
<polygon fill="#c0c0c0" stroke="#c0c0c0" stroke-width="2" points="541.8471,-247.5334 550.645,-241.6302 540.0861,-240.7585 541.8471,-247.5334"/>
</g>
<!-- 19 -->
<g id="node20" class="node">
<title>19</title>
<path fill="none" stroke="#78d856" stroke-width="2" d="M882.5,-180C882.5,-180 841.5,-180 841.5,-180 835.5,-180 829.5,-174 829.5,-168 829.5,-168 829.5,-156 829.5,-156 829.5,-150 835.5,-144 841.5,-144 841.5,-144 882.5,-144 882.5,-144 888.5,-144 894.5,-150 894.5,-156 894.5,-156 894.5,-168 894.5,-168 894.5,-174 888.5,-180 882.5,-180"/>
<text text-anchor="middle" x="862" y="-159.5" font-family="sans" font-size="10.00" fill="#000000">mfuzz_tfs</text>
</g>
<!-- 19&#45;&gt;3 -->
<g id="edge7" class="edge">
<title>19&#45;&gt;3</title>
<path fill="none" stroke="#c0c0c0" stroke-width="2" d="M854.8911,-143.6955C851.0341,-133.3278 846.3786,-120.058 843,-108 837.2642,-87.5291 832.3558,-64.0109 828.9655,-46.1505"/>
<polygon fill="#c0c0c0" stroke="#c0c0c0" stroke-width="2" points="832.3661,-45.2923 827.1034,-36.097 825.4832,-46.5672 832.3661,-45.2923"/>
</g>
<!-- 19&#45;&gt;9 -->
<g id="edge16" class="edge">
<title>19&#45;&gt;9</title>
<path fill="none" stroke="#c0c0c0" stroke-width="2" d="M871.589,-143.8314C875.8317,-135.7925 880.9121,-126.1666 885.596,-117.2918"/>
<polygon fill="#c0c0c0" stroke="#c0c0c0" stroke-width="2" points="888.7096,-118.8908 890.2819,-108.4133 882.5189,-115.6235 888.7096,-118.8908"/>
</g>
<!-- 21 -->
<g id="node22" class="node">
<title>21</title>
<path fill="none" stroke="#56d863" stroke-width="2" d="M1097.5,-108C1097.5,-108 978.5,-108 978.5,-108 972.5,-108 966.5,-102 966.5,-96 966.5,-96 966.5,-84 966.5,-84 966.5,-78 972.5,-72 978.5,-72 978.5,-72 1097.5,-72 1097.5,-72 1103.5,-72 1109.5,-78 1109.5,-84 1109.5,-84 1109.5,-96 1109.5,-96 1109.5,-102 1103.5,-108 1097.5,-108"/>
<text text-anchor="middle" x="1038" y="-87.5" font-family="sans" font-size="10.00" fill="#000000">correlate_clusters_to_mtp</text>
</g>
<!-- 19&#45;&gt;21 -->
<g id="edge34" class="edge">
<title>19&#45;&gt;21</title>
<path fill="none" stroke="#c0c0c0" stroke-width="2" d="M894.6918,-148.6261C919.898,-138.3144 955.2854,-123.8378 984.5879,-111.8504"/>
<polygon fill="#c0c0c0" stroke="#c0c0c0" stroke-width="2" points="985.937,-115.0801 993.8673,-108.0543 983.2865,-108.6013 985.937,-115.0801"/>
</g>
<!-- 22 -->
<g id="node23" class="node">
<title>22</title>
<path fill="none" stroke="#d87556" stroke-width="2" d="M1172,-108C1172,-108 1140,-108 1140,-108 1134,-108 1128,-102 1128,-96 1128,-96 1128,-84 1128,-84 1128,-78 1134,-72 1140,-72 1140,-72 1172,-72 1172,-72 1178,-72 1184,-78 1184,-84 1184,-84 1184,-96 1184,-96 1184,-102 1178,-108 1172,-108"/>
<text text-anchor="middle" x="1156" y="-87.5" font-family="sans" font-size="10.00" fill="#000000">cali_pca</text>
</g>
<!-- 19&#45;&gt;22 -->
<g id="edge36" class="edge">
<title>19&#45;&gt;22</title>
<path fill="none" stroke="#c0c0c0" stroke-width="2" d="M894.7376,-157.7536C942.414,-151.0078 1033.6187,-135.9806 1117.9005,-107.965"/>
<polygon fill="#c0c0c0" stroke="#c0c0c0" stroke-width="2" points="1119.2676,-111.1971 1127.6113,-104.6677 1117.0169,-104.5688 1119.2676,-111.1971"/>
</g>
<!-- 20 -->
<g id="node21" class="node">
<title>20</title>
<path fill="none" stroke="#d85656" stroke-width="2" d="M717,-180C717,-180 677,-180 677,-180 671,-180 665,-174 665,-168 665,-168 665,-156 665,-156 665,-150 671,-144 677,-144 677,-144 717,-144 717,-144 723,-144 729,-150 729,-156 729,-156 729,-168 729,-168 729,-174 723,-180 717,-180"/>
<text text-anchor="middle" x="697" y="-159.5" font-family="sans" font-size="10.00" fill="#000000">deseq_tfs</text>
</g>
<!-- 20&#45;&gt;3 -->
<g id="edge3" class="edge">
<title>20&#45;&gt;3</title>
<path fill="none" stroke="#c0c0c0" stroke-width="2" d="M664.9178,-148.8198C629.6736,-134.1895 577.6615,-112.0887 575,-108 566.2712,-94.5908 564.9565,-84.4551 575,-72 596.4805,-45.3617 682.9512,-31.1978 748.0073,-24.1601"/>
<polygon fill="#c0c0c0" stroke="#c0c0c0" stroke-width="2" points="748.6687,-27.6101 758.2513,-23.0909 747.942,-20.648 748.6687,-27.6101"/>
</g>
<!-- 20&#45;&gt;7 -->
<g id="edge15" class="edge">
<title>20&#45;&gt;7</title>
<path fill="none" stroke="#c0c0c0" stroke-width="2" d="M683.6259,-143.8314C677.5838,-135.6232 670.3237,-125.7606 663.6779,-116.7323"/>
<polygon fill="#c0c0c0" stroke="#c0c0c0" stroke-width="2" points="666.3011,-114.3918 657.5542,-108.4133 660.6637,-118.5415 666.3011,-114.3918"/>
</g>
<!-- 20&#45;&gt;14 -->
<g id="edge21" class="edge">
<title>20&#45;&gt;14</title>
<path fill="none" stroke="#c0c0c0" stroke-width="2" d="M712.6452,-143.8314C719.8591,-135.454 728.557,-125.3531 736.4605,-116.1749"/>
<polygon fill="#c0c0c0" stroke="#c0c0c0" stroke-width="2" points="739.2711,-118.2748 743.1441,-108.4133 733.9667,-113.7071 739.2711,-118.2748"/>
</g>
<!-- 21&#45;&gt;3 -->
<g id="edge4" class="edge">
<title>21&#45;&gt;3</title>
<path fill="none" stroke="#c0c0c0" stroke-width="2" d="M984.275,-71.9243C954.8927,-62.0387 918.3148,-49.7321 887.5242,-39.3726"/>
<polygon fill="#c0c0c0" stroke="#c0c0c0" stroke-width="2" points="888.3412,-35.9548 877.7471,-36.0831 886.1089,-42.5893 888.3412,-35.9548"/>
</g>
<!-- 22&#45;&gt;3 -->
<g id="edge5" class="edge">
<title>22&#45;&gt;3</title>
<path fill="none" stroke="#c0c0c0" stroke-width="2" d="M1127.6374,-75.2546C1124.7621,-74.0477 1121.8508,-72.935 1119,-72 1046.5098,-48.2256 960.3603,-33.9761 899.9348,-26.1365"/>
<polygon fill="#c0c0c0" stroke="#c0c0c0" stroke-width="2" points="900.0746,-22.6263 889.7136,-24.8397 899.1935,-29.5706 900.0746,-22.6263"/>
</g>
<!-- 22&#45;&gt;4 -->
<g id="edge9" class="edge">
<title>22&#45;&gt;4</title>
<path fill="none" stroke="#c0c0c0" stroke-width="2" d="M1184.064,-73.3008C1199.9968,-63.8201 1220.1907,-51.8039 1237.6815,-41.3962"/>
<polygon fill="#c0c0c0" stroke="#c0c0c0" stroke-width="2" points="1239.7408,-44.2436 1246.5447,-36.1222 1236.1613,-38.228 1239.7408,-44.2436"/>
</g>
<!-- 22&#45;&gt;12 -->
<g id="edge19" class="edge">
<title>22&#45;&gt;12</title>
<path fill="none" stroke="#c0c0c0" stroke-width="2" d="M1153.4766,-71.8314C1152.4071,-64.131 1151.1353,-54.9743 1149.9468,-46.4166"/>
<polygon fill="#c0c0c0" stroke="#c0c0c0" stroke-width="2" points="1153.3999,-45.8367 1148.5574,-36.4133 1146.4664,-46.7997 1153.3999,-45.8367"/>
</g>
<!-- 23 -->
<g id="node24" class="node">
<title>23</title>
<path fill="none" stroke="#59d856" stroke-width="2" d="M1231.5,-180C1231.5,-180 1136.5,-180 1136.5,-180 1130.5,-180 1124.5,-174 1124.5,-168 1124.5,-168 1124.5,-156 1124.5,-156 1124.5,-150 1130.5,-144 1136.5,-144 1136.5,-144 1231.5,-144 1231.5,-144 1237.5,-144 1243.5,-150 1243.5,-156 1243.5,-156 1243.5,-168 1243.5,-168 1243.5,-174 1237.5,-180 1231.5,-180"/>
<text text-anchor="middle" x="1184" y="-159.5" font-family="sans" font-size="10.00" fill="#000000">tidy_phenotype_data</text>
</g>
<!-- 23&#45;&gt;4 -->
<g id="edge8" class="edge">
<title>23&#45;&gt;4</title>
<path fill="none" stroke="#c0c0c0" stroke-width="2" d="M1195.7785,-143.7623C1211.9205,-118.7682 1241.032,-73.6924 1259.6653,-44.8409"/>
<polygon fill="#c0c0c0" stroke="#c0c0c0" stroke-width="2" points="1262.832,-46.3889 1265.3171,-36.0896 1256.9517,-42.5912 1262.832,-46.3889"/>
</g>
<!-- 23&#45;&gt;12 -->
<g id="edge18" class="edge">
<title>23&#45;&gt;12</title>
<path fill="none" stroke="#c0c0c0" stroke-width="2" d="M1190.4591,-143.7989C1196.0169,-125.1706 1201.8611,-95.678 1193,-72 1189.1046,-61.5911 1182.1959,-51.8652 1174.8544,-43.6152"/>
<polygon fill="#c0c0c0" stroke="#c0c0c0" stroke-width="2" points="1177.2014,-41.0048 1167.7672,-36.1835 1172.1357,-45.8358 1177.2014,-41.0048"/>
</g>
<!-- 23&#45;&gt;21 -->
<g id="edge33" class="edge">
<title>23&#45;&gt;21</title>
<path fill="none" stroke="#c0c0c0" stroke-width="2" d="M1147.158,-143.8314C1127.8918,-134.3302 1104.1301,-122.6121 1083.7008,-112.5374"/>
<polygon fill="#c0c0c0" stroke="#c0c0c0" stroke-width="2" points="1085.0938,-109.3219 1074.577,-108.038 1081.9977,-115.6 1085.0938,-109.3219"/>
</g>
<!-- 23&#45;&gt;22 -->
<g id="edge35" class="edge">
<title>23&#45;&gt;22</title>
<path fill="none" stroke="#c0c0c0" stroke-width="2" d="M1176.9344,-143.8314C1173.874,-135.9617 1170.2221,-126.5712 1166.8318,-117.8533"/>
<polygon fill="#c0c0c0" stroke="#c0c0c0" stroke-width="2" points="1170.0473,-116.4647 1163.1607,-108.4133 1163.5232,-119.0019 1170.0473,-116.4647"/>
</g>
<!-- 24 -->
<g id="node25" class="node">
<title>24</title>
<path fill="none" stroke="#88d856" stroke-width="2" d="M777,-324C777,-324 727,-324 727,-324 721,-324 715,-318 715,-312 715,-312 715,-300 715,-300 715,-294 721,-288 727,-288 727,-288 777,-288 777,-288 783,-288 789,-294 789,-300 789,-300 789,-312 789,-312 789,-318 783,-324 777,-324"/>
<text text-anchor="middle" x="752" y="-303.5" font-family="sans" font-size="10.00" fill="#000000">format_tfdb</text>
</g>
<!-- 24&#45;&gt;5 -->
<g id="edge11" class="edge">
<title>24&#45;&gt;5</title>
<path fill="none" stroke="#c0c0c0" stroke-width="2" d="M728.3583,-287.9555C677.5849,-249.2026 558.0883,-157.9967 500.7643,-114.2442"/>
<polygon fill="#c0c0c0" stroke="#c0c0c0" stroke-width="2" points="502.8461,-111.4301 492.7734,-108.1451 498.599,-116.9945 502.8461,-111.4301"/>
</g>
<!-- 24&#45;&gt;19 -->
<g id="edge30" class="edge">
<title>24&#45;&gt;19</title>
<path fill="none" stroke="#c0c0c0" stroke-width="2" d="M765.9316,-287.7623C785.1896,-262.5518 820.0546,-216.9103 842.0662,-188.0952"/>
<polygon fill="#c0c0c0" stroke="#c0c0c0" stroke-width="2" points="844.8925,-190.161 848.1815,-180.0896 839.3297,-185.9117 844.8925,-190.161"/>
</g>
<!-- 24&#45;&gt;33 -->
<g id="edge48" class="edge">
<title>24&#45;&gt;33</title>
<path fill="none" stroke="#c0c0c0" stroke-width="2" d="M714.6786,-290.3771C686.1842,-278.4492 647.0593,-262.0713 618.3204,-250.0411"/>
<polygon fill="#c0c0c0" stroke="#c0c0c0" stroke-width="2" points="619.5786,-246.7736 609.0027,-246.1407 616.8756,-253.2306 619.5786,-246.7736"/>
</g>
<!-- 25 -->
<g id="node26" class="node">
<title>25</title>
<path fill="none" stroke="#afd856" stroke-width="2" d="M357.5,-180C357.5,-180 300.5,-180 300.5,-180 294.5,-180 288.5,-174 288.5,-168 288.5,-168 288.5,-156 288.5,-156 288.5,-150 294.5,-144 300.5,-144 300.5,-144 357.5,-144 357.5,-144 363.5,-144 369.5,-150 369.5,-156 369.5,-156 369.5,-168 369.5,-168 369.5,-174 363.5,-180 357.5,-180"/>
<text text-anchor="middle" x="329" y="-159.5" font-family="sans" font-size="10.00" fill="#000000">tfdb_families</text>
</g>
<!-- 25&#45;&gt;5 -->
<g id="edge13" class="edge">
<title>25&#45;&gt;5</title>
<path fill="none" stroke="#c0c0c0" stroke-width="2" d="M364.3279,-143.8314C382.6493,-134.4089 405.2102,-122.8062 424.6895,-112.7883"/>
<polygon fill="#c0c0c0" stroke="#c0c0c0" stroke-width="2" points="426.3912,-115.8489 433.6834,-108.1628 423.1898,-109.6239 426.3912,-115.8489"/>
</g>
<!-- 25&#45;&gt;16 -->
<g id="edge22" class="edge">
<title>25&#45;&gt;16</title>
<path fill="none" stroke="#c0c0c0" stroke-width="2" d="M329,-143.8314C329,-136.131 329,-126.9743 329,-118.4166"/>
<polygon fill="#c0c0c0" stroke="#c0c0c0" stroke-width="2" points="332.5001,-118.4132 329,-108.4133 325.5001,-118.4133 332.5001,-118.4132"/>
</g>
<!-- 26 -->
<g id="node27" class="node">
<title>26</title>
<path fill="none" stroke="#56d8d8" stroke-width="2" d="M539,-468C539,-468 433,-468 433,-468 427,-468 421,-462 421,-456 421,-456 421,-444 421,-444 421,-438 427,-432 433,-432 433,-432 539,-432 539,-432 545,-432 551,-438 551,-444 551,-444 551,-456 551,-456 551,-462 545,-468 539,-468"/>
<text text-anchor="middle" x="486" y="-447.5" font-family="sans" font-size="10.00" fill="#000000">generate_deseq_object</text>
</g>
<!-- 26&#45;&gt;5 -->
<g id="edge10" class="edge">
<title>26&#45;&gt;5</title>
<path fill="none" stroke="#c0c0c0" stroke-width="2" d="M493.8467,-431.746C504.7078,-404.7781 523,-352.4617 523,-306 523,-306 523,-306 523,-234 523,-193.1184 519.6019,-181.7874 504,-144 500.0761,-134.4965 494.4502,-124.8471 488.853,-116.3849"/>
<polygon fill="#c0c0c0" stroke="#c0c0c0" stroke-width="2" points="491.6634,-114.295 483.1032,-108.0521 485.9018,-118.2706 491.6634,-114.295"/>
</g>
<!-- 26&#45;&gt;18 -->
<g id="edge28" class="edge">
<title>26&#45;&gt;18</title>
<path fill="none" stroke="#c0c0c0" stroke-width="2" d="M472.8955,-431.6652C458.2461,-412.113 433.0109,-381.1158 406,-360 390.5655,-347.9341 372.034,-337.257 354.9706,-328.6494"/>
<polygon fill="#c0c0c0" stroke="#c0c0c0" stroke-width="2" points="356.19,-325.3491 345.6709,-324.0847 353.1056,-331.633 356.19,-325.3491"/>
</g>
<!-- 26&#45;&gt;27 -->
<g id="edge38" class="edge">
<title>26&#45;&gt;27</title>
<path fill="none" stroke="#c0c0c0" stroke-width="2" d="M476.815,-431.7353C467.3742,-413.3106 451.9781,-384.2058 437,-360 415.1473,-324.6842 387.337,-285.7346 368.8917,-260.625"/>
<polygon fill="#c0c0c0" stroke="#c0c0c0" stroke-width="2" points="371.5378,-258.3163 362.783,-252.3492 365.9058,-262.4734 371.5378,-258.3163"/>
</g>
<!-- 29 -->
<g id="node30" class="node">
<title>29</title>
<path fill="none" stroke="#56d87b" stroke-width="2" d="M648,-396C648,-396 614,-396 614,-396 608,-396 602,-390 602,-384 602,-384 602,-372 602,-372 602,-366 608,-360 614,-360 614,-360 648,-360 648,-360 654,-360 660,-366 660,-372 660,-372 660,-384 660,-384 660,-390 654,-396 648,-396"/>
<text text-anchor="middle" x="631" y="-375.5" font-family="sans" font-size="10.00" fill="#000000">rlog_pca</text>
</g>
<!-- 26&#45;&gt;29 -->
<g id="edge41" class="edge">
<title>26&#45;&gt;29</title>
<path fill="none" stroke="#c0c0c0" stroke-width="2" d="M522.5896,-431.8314C543.9295,-421.235 570.8226,-407.8812 592.4845,-397.125"/>
<polygon fill="#c0c0c0" stroke="#c0c0c0" stroke-width="2" points="594.3225,-400.1201 601.7225,-392.5378 591.2093,-393.8504 594.3225,-400.1201"/>
</g>
<!-- 32 -->
<g id="node33" class="node">
<title>32</title>
<path fill="none" stroke="#97d856" stroke-width="2" d="M289,-396C289,-396 227,-396 227,-396 221,-396 215,-390 215,-384 215,-384 215,-372 215,-372 215,-366 221,-360 227,-360 227,-360 289,-360 289,-360 295,-360 301,-366 301,-372 301,-372 301,-384 301,-384 301,-390 295,-396 289,-396"/>
<text text-anchor="middle" x="258" y="-375.5" font-family="sans" font-size="10.00" fill="#000000">calculate_tpm</text>
</g>
<!-- 26&#45;&gt;32 -->
<g id="edge44" class="edge">
<title>26&#45;&gt;32</title>
<path fill="none" stroke="#c0c0c0" stroke-width="2" d="M425.1493,-431.9112C393.4974,-422.3665 353.9745,-410.2389 310.68,-396.1748"/>
<polygon fill="#c0c0c0" stroke="#c0c0c0" stroke-width="2" points="311.6828,-392.8205 301.0904,-393.048 309.5127,-399.4757 311.6828,-392.8205"/>
</g>
<!-- 26&#45;&gt;33 -->
<g id="edge47" class="edge">
<title>26&#45;&gt;33</title>
<path fill="none" stroke="#c0c0c0" stroke-width="2" d="M507.5128,-431.9184C517.7943,-422.2293 529.4709,-409.5191 537,-396 561.0181,-352.8735 572.0866,-295.7664 576.8211,-262.145"/>
<polygon fill="#c0c0c0" stroke="#c0c0c0" stroke-width="2" points="580.308,-262.4732 578.1441,-252.1017 573.368,-261.5589 580.308,-262.4732"/>
</g>
<!-- 27&#45;&gt;6 -->
<g id="edge14" class="edge">
<title>27&#45;&gt;6</title>
<path fill="none" stroke="#c0c0c0" stroke-width="2" d="M372.2155,-215.8314C383.547,-206.9632 397.3464,-196.1637 409.6027,-186.5718"/>
<polygon fill="#c0c0c0" stroke="#c0c0c0" stroke-width="2" points="412.074,-189.0822 417.7919,-180.1628 407.7598,-183.5697 412.074,-189.0822"/>
</g>
<!-- 27&#45;&gt;17 -->
<g id="edge24" class="edge">
<title>27&#45;&gt;17</title>
<path fill="none" stroke="#c0c0c0" stroke-width="2" d="M321.2424,-215.8314C307.303,-206.7074 290.2402,-195.539 275.2769,-185.7449"/>
<polygon fill="#c0c0c0" stroke="#c0c0c0" stroke-width="2" points="277.0326,-182.711 266.7488,-180.1628 273.199,-188.5679 277.0326,-182.711"/>
</g>
<!-- 28 -->
<g id="node29" class="node">
<title>28</title>
<path fill="none" stroke="#56b9d8" stroke-width="2" d="M390.5,-468C390.5,-468 321.5,-468 321.5,-468 315.5,-468 309.5,-462 309.5,-456 309.5,-456 309.5,-444 309.5,-444 309.5,-438 315.5,-432 321.5,-432 321.5,-432 390.5,-432 390.5,-432 396.5,-432 402.5,-438 402.5,-444 402.5,-444 402.5,-456 402.5,-456 402.5,-462 396.5,-468 390.5,-468"/>
<text text-anchor="middle" x="356" y="-447.5" font-family="sans" font-size="10.00" fill="#000000">parse_star_logs</text>
</g>
<!-- 28&#45;&gt;11 -->
<g id="edge17" class="edge">
<title>28&#45;&gt;11</title>
<path fill="none" stroke="#c0c0c0" stroke-width="2" d="M354.4859,-431.8314C353.8442,-424.131 353.0812,-414.9743 352.3681,-406.4166"/>
<polygon fill="#c0c0c0" stroke="#c0c0c0" stroke-width="2" points="355.8529,-406.088 351.5344,-396.4133 348.8771,-406.6694 355.8529,-406.088"/>
</g>
<!-- 28&#45;&gt;18 -->
<g id="edge29" class="edge">
<title>28&#45;&gt;18</title>
<path fill="none" stroke="#c0c0c0" stroke-width="2" d="M371.9722,-431.7255C386.2546,-413.0386 403.0727,-383.5002 390,-360 382.9082,-347.2514 371.4233,-337.1272 359.0904,-329.255"/>
<polygon fill="#c0c0c0" stroke="#c0c0c0" stroke-width="2" points="360.851,-326.23 350.4603,-324.1601 357.2923,-332.2579 360.851,-326.23"/>
</g>
<!-- 28&#45;&gt;32 -->
<g id="edge46" class="edge">
<title>28&#45;&gt;32</title>
<path fill="none" stroke="#c0c0c0" stroke-width="2" d="M331.2705,-431.8314C319.0838,-422.8779 304.2177,-411.9558 291.0688,-402.2955"/>
<polygon fill="#c0c0c0" stroke="#c0c0c0" stroke-width="2" points="292.8527,-399.263 282.7216,-396.1628 288.7082,-404.9042 292.8527,-399.263"/>
</g>
<!-- 29&#45;&gt;13 -->
<g id="edge20" class="edge">
<title>29&#45;&gt;13</title>
<path fill="none" stroke="#c0c0c0" stroke-width="2" d="M634.0281,-359.8314C635.3115,-352.131 636.8376,-342.9743 638.2639,-334.4166"/>
<polygon fill="#c0c0c0" stroke="#c0c0c0" stroke-width="2" points="641.7394,-334.8526 639.9311,-324.4133 634.8347,-333.7018 641.7394,-334.8526"/>
</g>
<!-- 30 -->
<g id="node31" class="node">
<title>30</title>
<path fill="none" stroke="#d86e56" stroke-width="2" d="M146,-396C146,-396 12,-396 12,-396 6,-396 0,-390 0,-384 0,-384 0,-372 0,-372 0,-366 6,-360 12,-360 12,-360 146,-360 146,-360 152,-360 158,-366 158,-372 158,-372 158,-384 158,-384 158,-390 152,-396 146,-396"/>
<text text-anchor="middle" x="79" y="-375.5" font-family="sans" font-size="10.00" fill="#000000">combine_background_counts</text>
</g>
<!-- 30&#45;&gt;18 -->
<g id="edge26" class="edge">
<title>30&#45;&gt;18</title>
<path fill="none" stroke="#c0c0c0" stroke-width="2" d="M135.2355,-359.9243C168.1443,-349.3465 209.6767,-335.9968 243.1838,-325.2266"/>
<polygon fill="#c0c0c0" stroke="#c0c0c0" stroke-width="2" points="244.4066,-328.51 252.8559,-322.1178 242.2645,-321.8458 244.4066,-328.51"/>
</g>
<!-- 31 -->
<g id="node32" class="node">
<title>31</title>
<path fill="none" stroke="#bed856" stroke-width="2" d="M279.5,-468C279.5,-468 160.5,-468 160.5,-468 154.5,-468 148.5,-462 148.5,-456 148.5,-456 148.5,-444 148.5,-444 148.5,-438 154.5,-432 160.5,-432 160.5,-432 279.5,-432 279.5,-432 285.5,-432 291.5,-438 291.5,-444 291.5,-444 291.5,-456 291.5,-456 291.5,-462 285.5,-468 279.5,-468"/>
<text text-anchor="middle" x="220" y="-447.5" font-family="sans" font-size="10.00" fill="#000000">calculate_feature_lengths</text>
</g>
<!-- 31&#45;&gt;18 -->
<g id="edge25" class="edge">
<title>31&#45;&gt;18</title>
<path fill="none" stroke="#c0c0c0" stroke-width="2" d="M210.6282,-431.7946C202.1857,-412.6315 192.9385,-382.2205 206,-360 214.5737,-345.4143 228.6726,-334.4822 243.4995,-326.413"/>
<polygon fill="#c0c0c0" stroke="#c0c0c0" stroke-width="2" points="245.4166,-329.3669 252.7826,-321.7517 242.2754,-323.1113 245.4166,-329.3669"/>
</g>
<!-- 31&#45;&gt;32 -->
<g id="edge45" class="edge">
<title>31&#45;&gt;32</title>
<path fill="none" stroke="#c0c0c0" stroke-width="2" d="M229.589,-431.8314C233.8317,-423.7925 238.9121,-414.1666 243.596,-405.2918"/>
<polygon fill="#c0c0c0" stroke="#c0c0c0" stroke-width="2" points="246.7096,-406.8908 248.2819,-396.4133 240.5189,-403.6235 246.7096,-406.8908"/>
</g>
<!-- 32&#45;&gt;18 -->
<g id="edge27" class="edge">
<title>32&#45;&gt;18</title>
<path fill="none" stroke="#c0c0c0" stroke-width="2" d="M269.3554,-359.8314C274.4326,-351.7079 280.5227,-341.9637 286.1176,-333.0118"/>
<polygon fill="#c0c0c0" stroke="#c0c0c0" stroke-width="2" points="289.1597,-334.7483 291.4917,-324.4133 283.2237,-331.0383 289.1597,-334.7483"/>
</g>
<!-- 33&#45;&gt;19 -->
<g id="edge31" class="edge">
<title>33&#45;&gt;19</title>
<path fill="none" stroke="#c0c0c0" stroke-width="2" d="M609.1168,-226.5659C659.0319,-213.8216 761.1563,-187.7473 819.1946,-172.9291"/>
<polygon fill="#c0c0c0" stroke="#c0c0c0" stroke-width="2" points="820.3277,-176.2521 829.151,-170.387 818.596,-169.4697 820.3277,-176.2521"/>
</g>
<!-- 33&#45;&gt;20 -->
<g id="edge32" class="edge">
<title>33&#45;&gt;20</title>
<path fill="none" stroke="#c0c0c0" stroke-width="2" d="M609.2222,-216.0171C624.299,-206.7391 642.8714,-195.3099 659.0442,-185.3574"/>
<polygon fill="#c0c0c0" stroke="#c0c0c0" stroke-width="2" points="661.0626,-188.225 667.7448,-180.0032 657.3938,-182.2634 661.0626,-188.225"/>
</g>
<!-- 34 -->
<g id="node35" class="node">
<title>34</title>
<path fill="none" stroke="#5673d8" stroke-width="2" d="M393.5,-540C393.5,-540 318.5,-540 318.5,-540 312.5,-540 306.5,-534 306.5,-528 306.5,-528 306.5,-516 306.5,-516 306.5,-510 312.5,-504 318.5,-504 318.5,-504 393.5,-504 393.5,-504 399.5,-504 405.5,-510 405.5,-516 405.5,-516 405.5,-528 405.5,-528 405.5,-534 399.5,-540 393.5,-540"/>
<text text-anchor="middle" x="356" y="-519.5" font-family="sans" font-size="10.00" fill="#000000">second_mapping</text>
</g>
<!-- 34&#45;&gt;26 -->
<g id="edge37" class="edge">
<title>34&#45;&gt;26</title>
<path fill="none" stroke="#c0c0c0" stroke-width="2" d="M388.8045,-503.8314C405.5862,-494.5368 426.1985,-483.1208 444.1163,-473.1971"/>
<polygon fill="#c0c0c0" stroke="#c0c0c0" stroke-width="2" points="446.1538,-476.0696 453.206,-468.1628 442.7623,-469.9461 446.1538,-476.0696"/>
</g>
<!-- 34&#45;&gt;28 -->
<g id="edge40" class="edge">
<title>34&#45;&gt;28</title>
<path fill="none" stroke="#c0c0c0" stroke-width="2" d="M356,-503.8314C356,-496.131 356,-486.9743 356,-478.4166"/>
<polygon fill="#c0c0c0" stroke="#c0c0c0" stroke-width="2" points="359.5001,-478.4132 356,-468.4133 352.5001,-478.4133 359.5001,-478.4132"/>
</g>
<!-- 35 -->
<g id="node36" class="node">
<title>35</title>
<path fill="none" stroke="#56d8c1" stroke-width="2" d="M118,-468C118,-468 36,-468 36,-468 30,-468 24,-462 24,-456 24,-456 24,-444 24,-444 24,-438 30,-432 36,-432 36,-432 118,-432 118,-432 124,-432 130,-438 130,-444 130,-444 130,-456 130,-456 130,-462 124,-468 118,-468"/>
<text text-anchor="middle" x="77" y="-447.5" font-family="sans" font-size="10.00" fill="#000000">count_background</text>
</g>
<!-- 34&#45;&gt;35 -->
<g id="edge53" class="edge">
<title>34&#45;&gt;35</title>
<path fill="none" stroke="#c0c0c0" stroke-width="2" d="M306.3029,-510.2113C264.3806,-500.1359 202.5642,-484.9747 139.7422,-468.1544"/>
<polygon fill="#c0c0c0" stroke="#c0c0c0" stroke-width="2" points="140.6279,-464.7682 130.062,-465.5513 138.8101,-471.5281 140.6279,-464.7682"/>
</g>
<!-- 35&#45;&gt;30 -->
<g id="edge42" class="edge">
<title>35&#45;&gt;30</title>
<path fill="none" stroke="#c0c0c0" stroke-width="2" d="M77.5047,-431.8314C77.7186,-424.131 77.9729,-414.9743 78.2106,-406.4166"/>
<polygon fill="#c0c0c0" stroke="#c0c0c0" stroke-width="2" points="81.7094,-406.5066 78.4885,-396.4133 74.7121,-406.3122 81.7094,-406.5066"/>
</g>
<!-- 36 -->
<g id="node37" class="node">
<title>36</title>
<path fill="none" stroke="#56d85b" stroke-width="2" d="M240.5,-756C240.5,-756 185.5,-756 185.5,-756 179.5,-756 173.5,-750 173.5,-744 173.5,-744 173.5,-732 173.5,-732 173.5,-726 179.5,-720 185.5,-720 185.5,-720 240.5,-720 240.5,-720 246.5,-720 252.5,-726 252.5,-732 252.5,-732 252.5,-744 252.5,-744 252.5,-750 246.5,-756 240.5,-756"/>
<text text-anchor="middle" x="213" y="-735.5" font-family="sans" font-size="10.00" fill="#000000">generate_gtf</text>
</g>
<!-- 36&#45;&gt;31 -->
<g id="edge43" class="edge">
<title>36&#45;&gt;31</title>
<path fill="none" stroke="#c0c0c0" stroke-width="2" d="M213.4379,-719.9843C214.6213,-671.2939 217.8904,-536.7961 219.3181,-478.0573"/>
<polygon fill="#c0c0c0" stroke="#c0c0c0" stroke-width="2" points="222.8182,-478.091 219.5623,-468.0089 215.8202,-477.9208 222.8182,-478.091"/>
</g>
<!-- 38 -->
<g id="node39" class="node">
<title>38</title>
<path fill="none" stroke="#d8a456" stroke-width="2" d="M334.5,-684C334.5,-684 253.5,-684 253.5,-684 247.5,-684 241.5,-678 241.5,-672 241.5,-672 241.5,-660 241.5,-660 241.5,-654 247.5,-648 253.5,-648 253.5,-648 334.5,-648 334.5,-648 340.5,-648 346.5,-654 346.5,-660 346.5,-660 346.5,-672 346.5,-672 346.5,-678 340.5,-684 334.5,-684"/>
<text text-anchor="middle" x="294" y="-663.5" font-family="sans" font-size="10.00" fill="#000000">generate_genome</text>
</g>
<!-- 36&#45;&gt;38 -->
<g id="edge56" class="edge">
<title>36&#45;&gt;38</title>
<path fill="none" stroke="#c0c0c0" stroke-width="2" d="M233.4397,-719.8314C243.3205,-711.0485 255.3324,-700.3712 266.045,-690.8489"/>
<polygon fill="#c0c0c0" stroke="#c0c0c0" stroke-width="2" points="268.418,-693.4224 273.5668,-684.1628 263.7674,-688.1906 268.418,-693.4224"/>
</g>
<!-- 40 -->
<g id="node41" class="node">
<title>40</title>
<path fill="none" stroke="#5692d8" stroke-width="2" d="M172.5,-612C172.5,-612 127.5,-612 127.5,-612 121.5,-612 115.5,-606 115.5,-600 115.5,-600 115.5,-588 115.5,-588 115.5,-582 121.5,-576 127.5,-576 127.5,-576 172.5,-576 172.5,-576 178.5,-576 184.5,-582 184.5,-588 184.5,-588 184.5,-600 184.5,-600 184.5,-606 178.5,-612 172.5,-612"/>
<text text-anchor="middle" x="150" y="-591.5" font-family="sans" font-size="10.00" fill="#000000">shuffle_gtf</text>
</g>
<!-- 36&#45;&gt;40 -->
<g id="edge60" class="edge">
<title>36&#45;&gt;40</title>
<path fill="none" stroke="#c0c0c0" stroke-width="2" d="M205.021,-719.7623C194.1808,-694.9846 174.7062,-650.4714 162.0723,-621.5939"/>
<polygon fill="#c0c0c0" stroke="#c0c0c0" stroke-width="2" points="165.129,-619.8483 157.9142,-612.0896 158.7159,-622.6541 165.129,-619.8483"/>
</g>
<!-- 37 -->
<g id="node38" class="node">
<title>37</title>
<path fill="none" stroke="#ced856" stroke-width="2" d="M424,-684C424,-684 394,-684 394,-684 388,-684 382,-678 382,-672 382,-672 382,-660 382,-660 382,-654 388,-648 394,-648 394,-648 424,-648 424,-648 430,-648 436,-654 436,-660 436,-660 436,-672 436,-672 436,-678 430,-684 424,-684"/>
<text text-anchor="middle" x="409" y="-663.5" font-family="sans" font-size="10.00" fill="#000000">gzip</text>
</g>
<!-- 37&#45;&gt;34 -->
<g id="edge51" class="edge">
<title>37&#45;&gt;34</title>
<path fill="none" stroke="#c0c0c0" stroke-width="2" d="M412.2781,-647.9818C414.8618,-629.2413 416.6148,-599.4221 407,-576 402.6134,-565.314 395.0522,-555.4946 387.0752,-547.2438"/>
<polygon fill="#c0c0c0" stroke="#c0c0c0" stroke-width="2" points="389.3347,-544.56 379.7116,-540.1275 384.4702,-549.5936 389.3347,-544.56"/>
</g>
<!-- 39 -->
<g id="node40" class="node">
<title>39</title>
<path fill="none" stroke="#56d8a2" stroke-width="2" d="M386,-612C386,-612 326,-612 326,-612 320,-612 314,-606 314,-600 314,-600 314,-588 314,-588 314,-582 320,-576 326,-576 326,-576 386,-576 386,-576 392,-576 398,-582 398,-588 398,-588 398,-600 398,-600 398,-606 392,-612 386,-612"/>
<text text-anchor="middle" x="356" y="-591.5" font-family="sans" font-size="10.00" fill="#000000">first_mapping</text>
</g>
<!-- 37&#45;&gt;39 -->
<g id="edge57" class="edge">
<title>37&#45;&gt;39</title>
<path fill="none" stroke="#c0c0c0" stroke-width="2" d="M395.6259,-647.8314C389.5838,-639.6232 382.3237,-629.7606 375.6779,-620.7323"/>
<polygon fill="#c0c0c0" stroke="#c0c0c0" stroke-width="2" points="378.3011,-618.3918 369.5542,-612.4133 372.6637,-622.5415 378.3011,-618.3918"/>
</g>
<!-- 38&#45;&gt;34 -->
<g id="edge52" class="edge">
<title>38&#45;&gt;34</title>
<path fill="none" stroke="#c0c0c0" stroke-width="2" d="M292.974,-647.8435C292.6315,-628.9903 294.156,-599.0803 305,-576 309.9541,-565.4558 317.7631,-555.6285 325.7951,-547.3254"/>
<polygon fill="#c0c0c0" stroke="#c0c0c0" stroke-width="2" points="328.4382,-549.6368 333.1586,-540.1516 323.5535,-544.6228 328.4382,-549.6368"/>
</g>
<!-- 38&#45;&gt;39 -->
<g id="edge58" class="edge">
<title>38&#45;&gt;39</title>
<path fill="none" stroke="#c0c0c0" stroke-width="2" d="M309.6452,-647.8314C316.8591,-639.454 325.557,-629.3531 333.4605,-620.1749"/>
<polygon fill="#c0c0c0" stroke="#c0c0c0" stroke-width="2" points="336.2711,-622.2748 340.1441,-612.4133 330.9667,-617.7071 336.2711,-622.2748"/>
</g>
<!-- 38&#45;&gt;40 -->
<g id="edge59" class="edge">
<title>38&#45;&gt;40</title>
<path fill="none" stroke="#c0c0c0" stroke-width="2" d="M257.6627,-647.8314C238.2991,-638.1495 214.3314,-626.1657 193.9292,-615.9646"/>
<polygon fill="#c0c0c0" stroke="#c0c0c0" stroke-width="2" points="195.345,-612.7594 184.8354,-611.4177 192.2144,-619.0204 195.345,-612.7594"/>
</g>
<!-- 39&#45;&gt;34 -->
<g id="edge50" class="edge">
<title>39&#45;&gt;34</title>
<path fill="none" stroke="#c0c0c0" stroke-width="2" d="M356,-575.8314C356,-568.131 356,-558.9743 356,-550.4166"/>
<polygon fill="#c0c0c0" stroke="#c0c0c0" stroke-width="2" points="359.5001,-550.4132 356,-540.4133 352.5001,-550.4133 359.5001,-550.4132"/>
</g>
<!-- 40&#45;&gt;35 -->
<g id="edge54" class="edge">
<title>40&#45;&gt;35</title>
<path fill="none" stroke="#c0c0c0" stroke-width="2" d="M140.7545,-575.7623C128.1388,-550.8764 105.4306,-506.0822 90.7972,-477.2165"/>
<polygon fill="#c0c0c0" stroke="#c0c0c0" stroke-width="2" points="93.8139,-475.4264 86.1704,-468.0896 87.5703,-478.5916 93.8139,-475.4264"/>
</g>
<!-- 41 -->
<g id="node42" class="node">
<title>41</title>
<path fill="none" stroke="#d88d56" stroke-width="2" d="M426.5,-756C426.5,-756 391.5,-756 391.5,-756 385.5,-756 379.5,-750 379.5,-744 379.5,-744 379.5,-732 379.5,-732 379.5,-726 385.5,-720 391.5,-720 391.5,-720 426.5,-720 426.5,-720 432.5,-720 438.5,-726 438.5,-732 438.5,-732 438.5,-744 438.5,-744 438.5,-750 432.5,-756 426.5,-756"/>
<text text-anchor="middle" x="409" y="-735.5" font-family="sans" font-size="10.00" fill="#000000">cutadapt</text>
</g>
<!-- 41&#45;&gt;37 -->
<g id="edge55" class="edge">
<title>41&#45;&gt;37</title>
<path fill="none" stroke="#c0c0c0" stroke-width="2" d="M409,-719.8314C409,-712.131 409,-702.9743 409,-694.4166"/>
<polygon fill="#c0c0c0" stroke="#c0c0c0" stroke-width="2" points="412.5001,-694.4132 409,-684.4133 405.5001,-694.4133 412.5001,-694.4132"/>
</g>
<!-- 42 -->
<g id="node43" class="node">
<title>42</title>
<path fill="none" stroke="#568ad8" stroke-width="2" d="M424,-828C424,-828 394,-828 394,-828 388,-828 382,-822 382,-816 382,-816 382,-804 382,-804 382,-798 388,-792 394,-792 394,-792 424,-792 424,-792 430,-792 436,-798 436,-804 436,-804 436,-816 436,-816 436,-822 430,-828 424,-828"/>
<text text-anchor="middle" x="409" y="-807.5" font-family="sans" font-size="10.00" fill="#000000">repair</text>
</g>
<!-- 42&#45;&gt;41 -->
<g id="edge61" class="edge">
<title>42&#45;&gt;41</title>
<path fill="none" stroke="#c0c0c0" stroke-width="2" d="M409,-791.8314C409,-784.131 409,-774.9743 409,-766.4166"/>
<polygon fill="#c0c0c0" stroke="#c0c0c0" stroke-width="2" points="412.5001,-766.4132 409,-756.4133 405.5001,-766.4133 412.5001,-766.4132"/>
</g>
</g>
</svg>
