<?xml version="1.0" encoding="UTF-8" standalone="no"?>
<!DOCTYPE svg PUBLIC "-//W3C//DTD SVG 1.1//EN"
 "http://www.w3.org/Graphics/SVG/1.1/DTD/svg11.dtd">
<!-- Generated by graphviz version 2.38.0 (20140413.2041)
 -->
<!-- Title: snakemake_dag Pages: 1 -->
<svg width="441pt" height="476pt"
 viewBox="0.00 0.00 440.50 476.00" xmlns="http://www.w3.org/2000/svg" xmlns:xlink="http://www.w3.org/1999/xlink">
<g id="graph0" class="graph" transform="scale(1 1) rotate(0) translate(4 472)">
<title>snakemake_dag</title>
<polygon fill="white" stroke="none" points="-4,4 -4,-472 436.5,-472 436.5,4 -4,4"/>
<!-- 0 -->
<g id="node1" class="node"><title>0</title>
<path fill="none" stroke="#d85656" stroke-width="2" d="M94,-108C94,-108 12,-108 12,-108 6,-108 7.10543e-15,-102 7.10543e-15,-96 7.10543e-15,-96 7.10543e-15,-84 7.10543e-15,-84 7.10543e-15,-78 6,-72 12,-72 12,-72 94,-72 94,-72 100,-72 106,-78 106,-84 106,-84 106,-96 106,-96 106,-102 100,-108 94,-108"/>
<text text-anchor="middle" x="53" y="-87.5" font-family="sans" font-size="10.00">count_background</text>
</g>
<!-- 1 -->
<g id="node2" class="node"><title>1</title>
<path fill="none" stroke="#56a2d8" stroke-width="2" d="M350,-36C350,-36 288,-36 288,-36 282,-36 276,-30 276,-24 276,-24 276,-12 276,-12 276,-6 282,-0 288,-0 288,-0 350,-0 350,-0 356,-0 362,-6 362,-12 362,-12 362,-24 362,-24 362,-30 356,-36 350,-36"/>
<text text-anchor="middle" x="319" y="-15.5" font-family="sans" font-size="10.00">calculate_tpm</text>
</g>
<!-- 2 -->
<g id="node3" class="node"><title>2</title>
<path fill="none" stroke="#c6d856" stroke-width="2" d="M78,-252C78,-252 34,-252 34,-252 28,-252 22,-246 22,-240 22,-240 22,-228 22,-228 22,-222 28,-216 34,-216 34,-216 78,-216 78,-216 84,-216 90,-222 90,-228 90,-228 90,-240 90,-240 90,-246 84,-252 78,-252"/>
<text text-anchor="middle" x="56" y="-231.5" font-family="sans" font-size="10.00">shuffle_gtf</text>
</g>
<!-- 2&#45;&gt;0 -->
<g id="edge1" class="edge"><title>2&#45;&gt;0</title>
<path fill="none" stroke="grey" stroke-width="2" d="M55.6381,-215.871C55.1268,-191.67 54.1876,-147.211 53.5787,-118.393"/>
<polygon fill="grey" stroke="grey" stroke-width="2" points="57.0737,-118.113 53.3632,-108.189 50.0753,-118.261 57.0737,-118.113"/>
</g>
<!-- 3 -->
<g id="node4" class="node"><title>3</title>
<path fill="none" stroke="#56d8c9" stroke-width="2" d="M226.5,-180C226.5,-180 151.5,-180 151.5,-180 145.5,-180 139.5,-174 139.5,-168 139.5,-168 139.5,-156 139.5,-156 139.5,-150 145.5,-144 151.5,-144 151.5,-144 226.5,-144 226.5,-144 232.5,-144 238.5,-150 238.5,-156 238.5,-156 238.5,-168 238.5,-168 238.5,-174 232.5,-180 226.5,-180"/>
<text text-anchor="middle" x="189" y="-159.5" font-family="sans" font-size="10.00">second_mapping</text>
</g>
<!-- 3&#45;&gt;0 -->
<g id="edge2" class="edge"><title>3&#45;&gt;0</title>
<path fill="none" stroke="grey" stroke-width="2" d="M155.731,-143.876C137.537,-134.512 114.809,-122.814 95.3601,-112.803"/>
<polygon fill="grey" stroke="grey" stroke-width="2" points="96.8904,-109.654 86.3972,-108.19 93.6868,-115.878 96.8904,-109.654"/>
</g>
<!-- 4 -->
<g id="node5" class="node"><title>4</title>
<path fill="none" stroke="#59d856" stroke-width="2" d="M353.5,-108C353.5,-108 284.5,-108 284.5,-108 278.5,-108 272.5,-102 272.5,-96 272.5,-96 272.5,-84 272.5,-84 272.5,-78 278.5,-72 284.5,-72 284.5,-72 353.5,-72 353.5,-72 359.5,-72 365.5,-78 365.5,-84 365.5,-84 365.5,-96 365.5,-96 365.5,-102 359.5,-108 353.5,-108"/>
<text text-anchor="middle" x="319" y="-87.5" font-family="sans" font-size="10.00">parse_star_logs</text>
</g>
<!-- 3&#45;&gt;4 -->
<g id="edge11" class="edge"><title>3&#45;&gt;4</title>
<path fill="none" stroke="grey" stroke-width="2" d="M220.802,-143.876C238.114,-134.554 259.721,-122.919 278.256,-112.939"/>
<polygon fill="grey" stroke="grey" stroke-width="2" points="279.931,-116.012 287.076,-108.19 276.612,-109.849 279.931,-116.012"/>
</g>
<!-- 6 -->
<g id="node7" class="node"><title>6</title>
<path fill="none" stroke="#d87d56" stroke-width="2" d="M242,-108C242,-108 136,-108 136,-108 130,-108 124,-102 124,-96 124,-96 124,-84 124,-84 124,-78 130,-72 136,-72 136,-72 242,-72 242,-72 248,-72 254,-78 254,-84 254,-84 254,-96 254,-96 254,-102 248,-108 242,-108"/>
<text text-anchor="middle" x="189" y="-87.5" font-family="sans" font-size="10.00">generate_deseq_object</text>
</g>
<!-- 3&#45;&gt;6 -->
<g id="edge13" class="edge"><title>3&#45;&gt;6</title>
<path fill="none" stroke="grey" stroke-width="2" d="M189,-143.697C189,-135.983 189,-126.712 189,-118.112"/>
<polygon fill="grey" stroke="grey" stroke-width="2" points="192.5,-118.104 189,-108.104 185.5,-118.104 192.5,-118.104"/>
</g>
<!-- 4&#45;&gt;1 -->
<g id="edge4" class="edge"><title>4&#45;&gt;1</title>
<path fill="none" stroke="grey" stroke-width="2" d="M319,-71.6966C319,-63.9827 319,-54.7125 319,-46.1124"/>
<polygon fill="grey" stroke="grey" stroke-width="2" points="322.5,-46.1043 319,-36.1043 315.5,-46.1044 322.5,-46.1043"/>
</g>
<!-- 5 -->
<g id="node6" class="node"><title>5</title>
<path fill="none" stroke="#d8c356" stroke-width="2" d="M420.5,-180C420.5,-180 301.5,-180 301.5,-180 295.5,-180 289.5,-174 289.5,-168 289.5,-168 289.5,-156 289.5,-156 289.5,-150 295.5,-144 301.5,-144 301.5,-144 420.5,-144 420.5,-144 426.5,-144 432.5,-150 432.5,-156 432.5,-156 432.5,-168 432.5,-168 432.5,-174 426.5,-180 420.5,-180"/>
<text text-anchor="middle" x="361" y="-159.5" font-family="sans" font-size="10.00">calculate_feature_lengths</text>
</g>
<!-- 5&#45;&gt;1 -->
<g id="edge3" class="edge"><title>5&#45;&gt;1</title>
<path fill="none" stroke="grey" stroke-width="2" d="M368.712,-143.91C375.866,-125.465 384.019,-95.568 374,-72 369.265,-60.8623 360.916,-50.9298 352.132,-42.7587"/>
<polygon fill="grey" stroke="grey" stroke-width="2" points="354.23,-39.9461 344.38,-36.0455 349.648,-45.2377 354.23,-39.9461"/>
</g>
<!-- 6&#45;&gt;1 -->
<g id="edge5" class="edge"><title>6&#45;&gt;1</title>
<path fill="none" stroke="grey" stroke-width="2" d="M220.802,-71.8761C238.114,-62.5541 259.721,-50.9194 278.256,-40.939"/>
<polygon fill="grey" stroke="grey" stroke-width="2" points="279.931,-44.0125 287.076,-36.1898 276.612,-37.8491 279.931,-44.0125"/>
</g>
<!-- 7 -->
<g id="node8" class="node"><title>7</title>
<path fill="none" stroke="#9fd856" stroke-width="2" d="M177.5,-324C177.5,-324 96.5,-324 96.5,-324 90.5,-324 84.5,-318 84.5,-312 84.5,-312 84.5,-300 84.5,-300 84.5,-294 90.5,-288 96.5,-288 96.5,-288 177.5,-288 177.5,-288 183.5,-288 189.5,-294 189.5,-300 189.5,-300 189.5,-312 189.5,-312 189.5,-318 183.5,-324 177.5,-324"/>
<text text-anchor="middle" x="137" y="-303.5" font-family="sans" font-size="10.00">generate_genome</text>
</g>
<!-- 7&#45;&gt;2 -->
<g id="edge7" class="edge"><title>7&#45;&gt;2</title>
<path fill="none" stroke="grey" stroke-width="2" d="M116.978,-287.697C106.874,-278.965 94.464,-268.24 83.4825,-258.75"/>
<polygon fill="grey" stroke="grey" stroke-width="2" points="85.6468,-255.995 75.7922,-252.104 81.0698,-261.291 85.6468,-255.995"/>
</g>
<!-- 7&#45;&gt;3 -->
<g id="edge8" class="edge"><title>7&#45;&gt;3</title>
<path fill="none" stroke="grey" stroke-width="2" d="M133.573,-287.865C130.687,-269.381 128.396,-239.451 138,-216 142.409,-205.234 150.14,-195.418 158.269,-187.239"/>
<polygon fill="grey" stroke="grey" stroke-width="2" points="160.865,-189.603 165.763,-180.208 156.075,-184.498 160.865,-189.603"/>
</g>
<!-- 9 -->
<g id="node10" class="node"><title>9</title>
<path fill="none" stroke="#d8a456" stroke-width="2" d="M218.5,-252C218.5,-252 159.5,-252 159.5,-252 153.5,-252 147.5,-246 147.5,-240 147.5,-240 147.5,-228 147.5,-228 147.5,-222 153.5,-216 159.5,-216 159.5,-216 218.5,-216 218.5,-216 224.5,-216 230.5,-222 230.5,-228 230.5,-228 230.5,-240 230.5,-240 230.5,-246 224.5,-252 218.5,-252"/>
<text text-anchor="middle" x="189" y="-231.5" font-family="sans" font-size="10.00">first_mapping</text>
</g>
<!-- 7&#45;&gt;9 -->
<g id="edge15" class="edge"><title>7&#45;&gt;9</title>
<path fill="none" stroke="grey" stroke-width="2" d="M149.854,-287.697C156.025,-279.389 163.537,-269.277 170.324,-260.141"/>
<polygon fill="grey" stroke="grey" stroke-width="2" points="173.14,-262.219 176.294,-252.104 167.521,-258.045 173.14,-262.219"/>
</g>
<!-- 8 -->
<g id="node9" class="node"><title>8</title>
<path fill="none" stroke="#56d87b" stroke-width="2" d="M164.5,-396C164.5,-396 109.5,-396 109.5,-396 103.5,-396 97.5,-390 97.5,-384 97.5,-384 97.5,-372 97.5,-372 97.5,-366 103.5,-360 109.5,-360 109.5,-360 164.5,-360 164.5,-360 170.5,-360 176.5,-366 176.5,-372 176.5,-372 176.5,-384 176.5,-384 176.5,-390 170.5,-396 164.5,-396"/>
<text text-anchor="middle" x="137" y="-375.5" font-family="sans" font-size="10.00">generate_gtf</text>
</g>
<!-- 8&#45;&gt;2 -->
<g id="edge6" class="edge"><title>8&#45;&gt;2</title>
<path fill="none" stroke="grey" stroke-width="2" d="M109.825,-359.918C97.3872,-350.741 83.5468,-338.358 75,-324 63.8536,-305.274 59.2027,-280.891 57.2837,-262.382"/>
<polygon fill="grey" stroke="grey" stroke-width="2" points="60.7579,-261.926 56.441,-252.251 53.782,-262.507 60.7579,-261.926"/>
</g>
<!-- 8&#45;&gt;5 -->
<g id="edge12" class="edge"><title>8&#45;&gt;5</title>
<path fill="none" stroke="grey" stroke-width="2" d="M176.722,-366.373C214.507,-355.623 267.905,-338.56 284,-324 324.188,-287.645 345.405,-225.813 354.814,-190.287"/>
<polygon fill="grey" stroke="grey" stroke-width="2" points="358.315,-190.716 357.362,-180.164 351.527,-189.007 358.315,-190.716"/>
</g>
<!-- 8&#45;&gt;7 -->
<g id="edge14" class="edge"><title>8&#45;&gt;7</title>
<path fill="none" stroke="grey" stroke-width="2" d="M137,-359.697C137,-351.983 137,-342.712 137,-334.112"/>
<polygon fill="grey" stroke="grey" stroke-width="2" points="140.5,-334.104 137,-324.104 133.5,-334.104 140.5,-334.104"/>
</g>
<!-- 9&#45;&gt;3 -->
<g id="edge10" class="edge"><title>9&#45;&gt;3</title>
<path fill="none" stroke="grey" stroke-width="2" d="M189,-215.697C189,-207.983 189,-198.712 189,-190.112"/>
<polygon fill="grey" stroke="grey" stroke-width="2" points="192.5,-190.104 189,-180.104 185.5,-190.104 192.5,-190.104"/>
</g>
<!-- 10 -->
<g id="node11" class="node"><title>10</title>
<path fill="none" stroke="#56c9d8" stroke-width="2" d="M263,-324C263,-324 233,-324 233,-324 227,-324 221,-318 221,-312 221,-312 221,-300 221,-300 221,-294 227,-288 233,-288 233,-288 263,-288 263,-288 269,-288 275,-294 275,-300 275,-300 275,-312 275,-312 275,-318 269,-324 263,-324"/>
<text text-anchor="middle" x="248" y="-303.5" font-family="sans" font-size="10.00">gzip</text>
</g>
<!-- 10&#45;&gt;3 -->
<g id="edge9" class="edge"><title>10&#45;&gt;3</title>
<path fill="none" stroke="grey" stroke-width="2" d="M249.449,-287.754C250.3,-269.177 249.583,-239.166 239,-216 234.13,-205.341 226.237,-195.456 218.147,-187.18"/>
<polygon fill="grey" stroke="grey" stroke-width="2" points="220.376,-184.467 210.743,-180.057 215.523,-189.512 220.376,-184.467"/>
</g>
<!-- 10&#45;&gt;9 -->
<g id="edge16" class="edge"><title>10&#45;&gt;9</title>
<path fill="none" stroke="grey" stroke-width="2" d="M233.416,-287.697C226.342,-279.305 217.717,-269.07 209.955,-259.861"/>
<polygon fill="grey" stroke="grey" stroke-width="2" points="212.537,-257.495 203.417,-252.104 207.185,-262.006 212.537,-257.495"/>
</g>
<!-- 11 -->
<g id="node12" class="node"><title>11</title>
<path fill="none" stroke="#567bd8" stroke-width="2" d="M265.5,-396C265.5,-396 230.5,-396 230.5,-396 224.5,-396 218.5,-390 218.5,-384 218.5,-384 218.5,-372 218.5,-372 218.5,-366 224.5,-360 230.5,-360 230.5,-360 265.5,-360 265.5,-360 271.5,-360 277.5,-366 277.5,-372 277.5,-372 277.5,-384 277.5,-384 277.5,-390 271.5,-396 265.5,-396"/>
<text text-anchor="middle" x="248" y="-375.5" font-family="sans" font-size="10.00">cutadapt</text>
</g>
<!-- 11&#45;&gt;10 -->
<g id="edge17" class="edge"><title>11&#45;&gt;10</title>
<path fill="none" stroke="grey" stroke-width="2" d="M248,-359.697C248,-351.983 248,-342.712 248,-334.112"/>
<polygon fill="grey" stroke="grey" stroke-width="2" points="251.5,-334.104 248,-324.104 244.5,-334.104 251.5,-334.104"/>
</g>
<!-- 12 -->
<g id="node13" class="node"><title>12</title>
<path fill="none" stroke="#56d8a2" stroke-width="2" d="M263,-468C263,-468 233,-468 233,-468 227,-468 221,-462 221,-456 221,-456 221,-444 221,-444 221,-438 227,-432 233,-432 233,-432 263,-432 263,-432 269,-432 275,-438 275,-444 275,-444 275,-456 275,-456 275,-462 269,-468 263,-468"/>
<text text-anchor="middle" x="248" y="-447.5" font-family="sans" font-size="10.00">repair</text>
</g>
<!-- 12&#45;&gt;11 -->
<g id="edge18" class="edge"><title>12&#45;&gt;11</title>
<path fill="none" stroke="grey" stroke-width="2" d="M248,-431.697C248,-423.983 248,-414.712 248,-406.112"/>
<polygon fill="grey" stroke="grey" stroke-width="2" points="251.5,-406.104 248,-396.104 244.5,-406.104 251.5,-406.104"/>
</g>
</g>
</svg>
