<?xml version="1.0" encoding="UTF-8" standalone="no"?>
<!DOCTYPE svg PUBLIC "-//W3C//DTD SVG 1.1//EN"
 "http://www.w3.org/Graphics/SVG/1.1/DTD/svg11.dtd">
<!-- Generated by graphviz version 2.40.1 (20161225.0304)
 -->
<!-- Title: snakemake_dag Pages: 1 -->
<svg width="576pt" height="764pt"
 viewBox="0.00 0.00 576.00 764.00" xmlns="http://www.w3.org/2000/svg" xmlns:xlink="http://www.w3.org/1999/xlink">
<g id="graph0" class="graph" transform="scale(1 1) rotate(0) translate(4 760)">
<title>snakemake_dag</title>
<polygon fill="#ffffff" stroke="transparent" points="-4,4 -4,-760 572,-760 572,4 -4,4"/>
<!-- 0 -->
<g id="node1" class="node">
<title>0</title>
<path fill="none" stroke="#56d8d0" stroke-width="2" d="M327.5,-108C327.5,-108 287.5,-108 287.5,-108 281.5,-108 275.5,-102 275.5,-96 275.5,-96 275.5,-84 275.5,-84 275.5,-78 281.5,-72 287.5,-72 287.5,-72 327.5,-72 327.5,-72 333.5,-72 339.5,-78 339.5,-84 339.5,-84 339.5,-96 339.5,-96 339.5,-102 333.5,-108 327.5,-108"/>
<text text-anchor="middle" x="307.5" y="-87.5" font-family="sans" font-size="10.00" fill="#000000">deseq_tfs</text>
</g>
<!-- 1 -->
<g id="node2" class="node">
<title>1</title>
<path fill="none" stroke="#56d873" stroke-width="2" d="M245,-108C245,-108 204,-108 204,-108 198,-108 192,-102 192,-96 192,-96 192,-84 192,-84 192,-78 198,-72 204,-72 204,-72 245,-72 245,-72 251,-72 257,-78 257,-84 257,-84 257,-96 257,-96 257,-102 251,-108 245,-108"/>
<text text-anchor="middle" x="224.5" y="-87.5" font-family="sans" font-size="10.00" fill="#000000">mfuzz_tfs</text>
</g>
<!-- 2 -->
<g id="node3" class="node">
<title>2</title>
<path fill="none" stroke="#56a2d8" stroke-width="2" d="M414.5,-36C414.5,-36 382.5,-36 382.5,-36 376.5,-36 370.5,-30 370.5,-24 370.5,-24 370.5,-12 370.5,-12 370.5,-6 376.5,0 382.5,0 382.5,0 414.5,0 414.5,0 420.5,0 426.5,-6 426.5,-12 426.5,-12 426.5,-24 426.5,-24 426.5,-30 420.5,-36 414.5,-36"/>
<text text-anchor="middle" x="398.5" y="-15.5" font-family="sans" font-size="10.00" fill="#000000">cali_pca</text>
</g>
<!-- 1&#45;&gt;2 -->
<g id="edge5" class="edge">
<title>1&#45;&gt;2</title>
<path fill="none" stroke="#c0c0c0" stroke-width="2" d="M257.0367,-75.9927C260.2314,-74.6363 263.4267,-73.2871 266.5,-72 298.3325,-58.6686 334.6319,-43.8463 361.0977,-33.1086"/>
<polygon fill="#c0c0c0" stroke="#c0c0c0" stroke-width="2" points="362.4238,-36.3477 370.3768,-29.3477 359.7944,-29.8603 362.4238,-36.3477"/>
</g>
<!-- 4 -->
<g id="node5" class="node">
<title>4</title>
<path fill="none" stroke="#56d8c1" stroke-width="2" d="M321,-36C321,-36 202,-36 202,-36 196,-36 190,-30 190,-24 190,-24 190,-12 190,-12 190,-6 196,0 202,0 202,0 321,0 321,0 327,0 333,-6 333,-12 333,-12 333,-24 333,-24 333,-30 327,-36 321,-36"/>
<text text-anchor="middle" x="261.5" y="-15.5" font-family="sans" font-size="10.00" fill="#000000">correlate_clusters_to_mtp</text>
</g>
<!-- 1&#45;&gt;4 -->
<g id="edge8" class="edge">
<title>1&#45;&gt;4</title>
<path fill="none" stroke="#c0c0c0" stroke-width="2" d="M233.8367,-71.8314C237.9243,-63.8771 242.8104,-54.369 247.3309,-45.5723"/>
<polygon fill="#c0c0c0" stroke="#c0c0c0" stroke-width="2" points="250.5799,-46.9074 252.0376,-36.4133 244.3539,-43.7078 250.5799,-46.9074"/>
</g>
<!-- 3 -->
<g id="node4" class="node">
<title>3</title>
<path fill="none" stroke="#d8cb56" stroke-width="2" d="M556,-108C556,-108 507,-108 507,-108 501,-108 495,-102 495,-96 495,-96 495,-84 495,-84 495,-78 501,-72 507,-72 507,-72 556,-72 556,-72 562,-72 568,-78 568,-84 568,-84 568,-96 568,-96 568,-102 562,-108 556,-108"/>
<text text-anchor="middle" x="531.5" y="-87.5" font-family="sans" font-size="10.00" fill="#000000">deseq_expr</text>
</g>
<!-- 5 -->
<g id="node6" class="node">
<title>5</title>
<path fill="none" stroke="#566bd8" stroke-width="2" d="M324,-180C324,-180 291,-180 291,-180 285,-180 279,-174 279,-168 279,-168 279,-156 279,-156 279,-150 285,-144 291,-144 291,-144 324,-144 324,-144 330,-144 336,-150 336,-156 336,-156 336,-168 336,-168 336,-174 330,-180 324,-180"/>
<text text-anchor="middle" x="307.5" y="-159.5" font-family="sans" font-size="10.00" fill="#000000">filter_tfs</text>
</g>
<!-- 5&#45;&gt;0 -->
<g id="edge1" class="edge">
<title>5&#45;&gt;0</title>
<path fill="none" stroke="#c0c0c0" stroke-width="2" d="M307.5,-143.8314C307.5,-136.131 307.5,-126.9743 307.5,-118.4166"/>
<polygon fill="#c0c0c0" stroke="#c0c0c0" stroke-width="2" points="311.0001,-118.4132 307.5,-108.4133 304.0001,-118.4133 311.0001,-118.4132"/>
</g>
<!-- 5&#45;&gt;1 -->
<g id="edge2" class="edge">
<title>5&#45;&gt;1</title>
<path fill="none" stroke="#c0c0c0" stroke-width="2" d="M286.5556,-143.8314C276.4309,-135.0485 264.1223,-124.3712 253.1452,-114.8489"/>
<polygon fill="#c0c0c0" stroke="#c0c0c0" stroke-width="2" points="255.2851,-112.0718 245.4377,-108.1628 250.6981,-117.3595 255.2851,-112.0718"/>
</g>
<!-- 6 -->
<g id="node7" class="node">
<title>6</title>
<path fill="none" stroke="#56d88a" stroke-width="2" d="M249.5,-252C249.5,-252 199.5,-252 199.5,-252 193.5,-252 187.5,-246 187.5,-240 187.5,-240 187.5,-228 187.5,-228 187.5,-222 193.5,-216 199.5,-216 199.5,-216 249.5,-216 249.5,-216 255.5,-216 261.5,-222 261.5,-228 261.5,-228 261.5,-240 261.5,-240 261.5,-246 255.5,-252 249.5,-252"/>
<text text-anchor="middle" x="224.5" y="-231.5" font-family="sans" font-size="10.00" fill="#000000">format_tfdb</text>
</g>
<!-- 6&#45;&gt;1 -->
<g id="edge3" class="edge">
<title>6&#45;&gt;1</title>
<path fill="none" stroke="#c0c0c0" stroke-width="2" d="M224.5,-215.7623C224.5,-191.201 224.5,-147.2474 224.5,-118.3541"/>
<polygon fill="#c0c0c0" stroke="#c0c0c0" stroke-width="2" points="228.0001,-118.0896 224.5,-108.0896 221.0001,-118.0897 228.0001,-118.0896"/>
</g>
<!-- 6&#45;&gt;5 -->
<g id="edge10" class="edge">
<title>6&#45;&gt;5</title>
<path fill="none" stroke="#c0c0c0" stroke-width="2" d="M245.4444,-215.8314C255.5691,-207.0485 267.8777,-196.3712 278.8548,-186.8489"/>
<polygon fill="#c0c0c0" stroke="#c0c0c0" stroke-width="2" points="281.3019,-189.3595 286.5623,-180.1628 276.7149,-184.0718 281.3019,-189.3595"/>
</g>
<!-- 7 -->
<g id="node8" class="node">
<title>7</title>
<path fill="none" stroke="#d85656" stroke-width="2" d="M465,-108C465,-108 370,-108 370,-108 364,-108 358,-102 358,-96 358,-96 358,-84 358,-84 358,-78 364,-72 370,-72 370,-72 465,-72 465,-72 471,-72 477,-78 477,-84 477,-84 477,-96 477,-96 477,-102 471,-108 465,-108"/>
<text text-anchor="middle" x="417.5" y="-87.5" font-family="sans" font-size="10.00" fill="#000000">tidy_phenotype_data</text>
</g>
<!-- 7&#45;&gt;2 -->
<g id="edge4" class="edge">
<title>7&#45;&gt;2</title>
<path fill="none" stroke="#c0c0c0" stroke-width="2" d="M412.7055,-71.8314C410.6511,-64.0463 408.204,-54.7729 405.9244,-46.1347"/>
<polygon fill="#c0c0c0" stroke="#c0c0c0" stroke-width="2" points="409.2948,-45.1892 403.3591,-36.4133 402.5265,-46.9753 409.2948,-45.1892"/>
</g>
<!-- 7&#45;&gt;4 -->
<g id="edge7" class="edge">
<title>7&#45;&gt;4</title>
<path fill="none" stroke="#c0c0c0" stroke-width="2" d="M378.1346,-71.8314C357.3633,-62.2446 331.7017,-50.4008 309.7419,-40.2655"/>
<polygon fill="#c0c0c0" stroke="#c0c0c0" stroke-width="2" points="311.1286,-37.0508 300.5823,-36.038 308.1952,-43.4065 311.1286,-37.0508"/>
</g>
<!-- 8 -->
<g id="node9" class="node">
<title>8</title>
<path fill="none" stroke="#61d856" stroke-width="2" d="M546,-180C546,-180 461,-180 461,-180 455,-180 449,-174 449,-168 449,-168 449,-156 449,-156 449,-150 455,-144 461,-144 461,-144 546,-144 546,-144 552,-144 558,-150 558,-156 558,-156 558,-168 558,-168 558,-174 552,-180 546,-180"/>
<text text-anchor="middle" x="503.5" y="-159.5" font-family="sans" font-size="10.00" fill="#000000">filter_deseq_object</text>
</g>
<!-- 8&#45;&gt;3 -->
<g id="edge6" class="edge">
<title>8&#45;&gt;3</title>
<path fill="none" stroke="#c0c0c0" stroke-width="2" d="M510.5656,-143.8314C513.626,-135.9617 517.2779,-126.5712 520.6682,-117.8533"/>
<polygon fill="#c0c0c0" stroke="#c0c0c0" stroke-width="2" points="523.9768,-119.0019 524.3393,-108.4133 517.4527,-116.4647 523.9768,-119.0019"/>
</g>
<!-- 9 -->
<g id="node10" class="node">
<title>9</title>
<path fill="none" stroke="#5692d8" stroke-width="2" d="M515.5,-396C515.5,-396 409.5,-396 409.5,-396 403.5,-396 397.5,-390 397.5,-384 397.5,-384 397.5,-372 397.5,-372 397.5,-366 403.5,-360 409.5,-360 409.5,-360 515.5,-360 515.5,-360 521.5,-360 527.5,-366 527.5,-372 527.5,-372 527.5,-384 527.5,-384 527.5,-390 521.5,-396 515.5,-396"/>
<text text-anchor="middle" x="462.5" y="-375.5" font-family="sans" font-size="10.00" fill="#000000">generate_deseq_object</text>
</g>
<!-- 9&#45;&gt;5 -->
<g id="edge9" class="edge">
<title>9&#45;&gt;5</title>
<path fill="none" stroke="#c0c0c0" stroke-width="2" d="M458.5458,-359.8705C450.5821,-327.2268 429.7433,-258.0545 388.5,-216 375.8581,-203.1094 359.662,-191.5739 345.0793,-182.5071"/>
<polygon fill="#c0c0c0" stroke="#c0c0c0" stroke-width="2" points="346.6262,-179.353 336.2543,-177.1908 343.0141,-185.3491 346.6262,-179.353"/>
</g>
<!-- 9&#45;&gt;8 -->
<g id="edge12" class="edge">
<title>9&#45;&gt;8</title>
<path fill="none" stroke="#c0c0c0" stroke-width="2" d="M469.0521,-359.7041C472.563,-349.339 476.7245,-336.069 479.5,-324 490.1483,-277.6961 497.1214,-222.8141 500.6801,-190.2836"/>
<polygon fill="#c0c0c0" stroke="#c0c0c0" stroke-width="2" points="504.1803,-190.4669 501.7565,-180.1531 497.2195,-189.7273 504.1803,-190.4669"/>
</g>
<!-- 10 -->
<g id="node11" class="node">
<title>10</title>
<path fill="none" stroke="#56d8a9" stroke-width="2" d="M367,-252C367,-252 292,-252 292,-252 286,-252 280,-246 280,-240 280,-240 280,-228 280,-228 280,-222 286,-216 292,-216 292,-216 367,-216 367,-216 373,-216 379,-222 379,-228 379,-228 379,-240 379,-240 379,-246 373,-252 367,-252"/>
<text text-anchor="middle" x="329.5" y="-231.5" font-family="sans" font-size="10.00" fill="#000000">calculate_cutoffs</text>
</g>
<!-- 9&#45;&gt;10 -->
<g id="edge19" class="edge">
<title>9&#45;&gt;10</title>
<path fill="none" stroke="#c0c0c0" stroke-width="2" d="M454.5317,-359.9096C445.3935,-340.5666 428.9965,-309.7468 408.5,-288 397.7605,-276.6054 384.2208,-266.2816 371.3984,-257.7845"/>
<polygon fill="#c0c0c0" stroke="#c0c0c0" stroke-width="2" points="372.9884,-254.6467 362.6792,-252.2031 369.2144,-260.5423 372.9884,-254.6467"/>
</g>
<!-- 13 -->
<g id="node14" class="node">
<title>13</title>
<path fill="none" stroke="#d8a456" stroke-width="2" d="M387.5,-324C387.5,-324 325.5,-324 325.5,-324 319.5,-324 313.5,-318 313.5,-312 313.5,-312 313.5,-300 313.5,-300 313.5,-294 319.5,-288 325.5,-288 325.5,-288 387.5,-288 387.5,-288 393.5,-288 399.5,-294 399.5,-300 399.5,-300 399.5,-312 399.5,-312 399.5,-318 393.5,-324 387.5,-324"/>
<text text-anchor="middle" x="356.5" y="-303.5" font-family="sans" font-size="10.00" fill="#000000">calculate_tpm</text>
</g>
<!-- 9&#45;&gt;13 -->
<g id="edge24" class="edge">
<title>9&#45;&gt;13</title>
<path fill="none" stroke="#c0c0c0" stroke-width="2" d="M435.7517,-359.8314C422.4447,-350.7927 406.184,-339.7476 391.8625,-330.0198"/>
<polygon fill="#c0c0c0" stroke="#c0c0c0" stroke-width="2" points="393.4785,-326.8864 383.2397,-324.1628 389.5453,-332.677 393.4785,-326.8864"/>
</g>
<!-- 10&#45;&gt;5 -->
<g id="edge11" class="edge">
<title>10&#45;&gt;5</title>
<path fill="none" stroke="#c0c0c0" stroke-width="2" d="M323.9485,-215.8314C321.5697,-208.0463 318.7362,-198.7729 316.0967,-190.1347"/>
<polygon fill="#c0c0c0" stroke="#c0c0c0" stroke-width="2" points="319.3958,-188.954 313.1263,-180.4133 312.7013,-190.9996 319.3958,-188.954"/>
</g>
<!-- 10&#45;&gt;8 -->
<g id="edge13" class="edge">
<title>10&#45;&gt;8</title>
<path fill="none" stroke="#c0c0c0" stroke-width="2" d="M373.4075,-215.8314C396.7824,-206.159 425.7097,-194.1891 450.3468,-183.9944"/>
<polygon fill="#c0c0c0" stroke="#c0c0c0" stroke-width="2" points="452.0063,-187.0956 459.9082,-180.038 449.3298,-180.6275 452.0063,-187.0956"/>
</g>
<!-- 11 -->
<g id="node12" class="node">
<title>11</title>
<path fill="none" stroke="#567bd8" stroke-width="2" d="M370,-468C370,-468 295,-468 295,-468 289,-468 283,-462 283,-456 283,-456 283,-444 283,-444 283,-438 289,-432 295,-432 295,-432 370,-432 370,-432 376,-432 382,-438 382,-444 382,-444 382,-456 382,-456 382,-462 376,-468 370,-468"/>
<text text-anchor="middle" x="332.5" y="-447.5" font-family="sans" font-size="10.00" fill="#000000">second_mapping</text>
</g>
<!-- 11&#45;&gt;9 -->
<g id="edge14" class="edge">
<title>11&#45;&gt;9</title>
<path fill="none" stroke="#c0c0c0" stroke-width="2" d="M365.3045,-431.8314C382.0862,-422.5368 402.6985,-411.1208 420.6163,-401.1971"/>
<polygon fill="#c0c0c0" stroke="#c0c0c0" stroke-width="2" points="422.6538,-404.0696 429.706,-396.1628 419.2623,-397.9461 422.6538,-404.0696"/>
</g>
<!-- 15 -->
<g id="node16" class="node">
<title>15</title>
<path fill="none" stroke="#afd856" stroke-width="2" d="M367,-396C367,-396 298,-396 298,-396 292,-396 286,-390 286,-384 286,-384 286,-372 286,-372 286,-366 292,-360 298,-360 298,-360 367,-360 367,-360 373,-360 379,-366 379,-372 379,-372 379,-384 379,-384 379,-390 373,-396 367,-396"/>
<text text-anchor="middle" x="332.5" y="-375.5" font-family="sans" font-size="10.00" fill="#000000">parse_star_logs</text>
</g>
<!-- 11&#45;&gt;15 -->
<g id="edge28" class="edge">
<title>11&#45;&gt;15</title>
<path fill="none" stroke="#c0c0c0" stroke-width="2" d="M332.5,-431.8314C332.5,-424.131 332.5,-414.9743 332.5,-406.4166"/>
<polygon fill="#c0c0c0" stroke="#c0c0c0" stroke-width="2" points="336.0001,-406.4132 332.5,-396.4133 329.0001,-406.4133 336.0001,-406.4132"/>
</g>
<!-- 19 -->
<g id="node20" class="node">
<title>19</title>
<path fill="none" stroke="#70d856" stroke-width="2" d="M255.5,-396C255.5,-396 173.5,-396 173.5,-396 167.5,-396 161.5,-390 161.5,-384 161.5,-384 161.5,-372 161.5,-372 161.5,-366 167.5,-360 173.5,-360 173.5,-360 255.5,-360 255.5,-360 261.5,-360 267.5,-366 267.5,-372 267.5,-372 267.5,-384 267.5,-384 267.5,-390 261.5,-396 255.5,-396"/>
<text text-anchor="middle" x="214.5" y="-375.5" font-family="sans" font-size="10.00" fill="#000000">count_background</text>
</g>
<!-- 11&#45;&gt;19 -->
<g id="edge33" class="edge">
<title>11&#45;&gt;19</title>
<path fill="none" stroke="#c0c0c0" stroke-width="2" d="M302.7236,-431.8314C287.6307,-422.6221 269.1243,-411.3301 252.9657,-401.4706"/>
<polygon fill="#c0c0c0" stroke="#c0c0c0" stroke-width="2" points="254.6263,-398.3838 244.2669,-396.1628 250.9802,-404.3593 254.6263,-398.3838"/>
</g>
<!-- 12 -->
<g id="node13" class="node">
<title>12</title>
<path fill="none" stroke="#d86656" stroke-width="2" d="M245.5,-324C245.5,-324 111.5,-324 111.5,-324 105.5,-324 99.5,-318 99.5,-312 99.5,-312 99.5,-300 99.5,-300 99.5,-294 105.5,-288 111.5,-288 111.5,-288 245.5,-288 245.5,-288 251.5,-288 257.5,-294 257.5,-300 257.5,-300 257.5,-312 257.5,-312 257.5,-318 251.5,-324 245.5,-324"/>
<text text-anchor="middle" x="178.5" y="-303.5" font-family="sans" font-size="10.00" fill="#000000">combine_background_counts</text>
</g>
<!-- 12&#45;&gt;10 -->
<g id="edge17" class="edge">
<title>12&#45;&gt;10</title>
<path fill="none" stroke="#c0c0c0" stroke-width="2" d="M216.6037,-287.8314C236.6195,-278.2874 261.3267,-266.5065 282.5194,-256.4013"/>
<polygon fill="#c0c0c0" stroke="#c0c0c0" stroke-width="2" points="284.1503,-259.5013 291.6703,-252.038 281.1375,-253.1828 284.1503,-259.5013"/>
</g>
<!-- 13&#45;&gt;10 -->
<g id="edge18" class="edge">
<title>13&#45;&gt;10</title>
<path fill="none" stroke="#c0c0c0" stroke-width="2" d="M349.6868,-287.8314C346.7356,-279.9617 343.2142,-270.5712 339.945,-261.8533"/>
<polygon fill="#c0c0c0" stroke="#c0c0c0" stroke-width="2" points="343.1934,-260.5476 336.405,-252.4133 336.6391,-263.0055 343.1934,-260.5476"/>
</g>
<!-- 14 -->
<g id="node15" class="node">
<title>14</title>
<path fill="none" stroke="#56d89a" stroke-width="2" d="M131,-396C131,-396 12,-396 12,-396 6,-396 0,-390 0,-384 0,-384 0,-372 0,-372 0,-366 6,-360 12,-360 12,-360 131,-360 131,-360 137,-360 143,-366 143,-372 143,-372 143,-384 143,-384 143,-390 137,-396 131,-396"/>
<text text-anchor="middle" x="71.5" y="-375.5" font-family="sans" font-size="10.00" fill="#000000">calculate_feature_lengths</text>
</g>
<!-- 14&#45;&gt;10 -->
<g id="edge16" class="edge">
<title>14&#45;&gt;10</title>
<path fill="none" stroke="#c0c0c0" stroke-width="2" d="M69.9185,-359.7312C69.2328,-339.3417 71.542,-306.757 90.5,-288 146.23,-232.8609 188.0129,-268.8511 269.5583,-251.9083"/>
<polygon fill="#c0c0c0" stroke="#c0c0c0" stroke-width="2" points="270.7452,-255.2266 279.7036,-249.57 269.173,-248.4054 270.7452,-255.2266"/>
</g>
<!-- 14&#45;&gt;13 -->
<g id="edge26" class="edge">
<title>14&#45;&gt;13</title>
<path fill="none" stroke="#c0c0c0" stroke-width="2" d="M143.0497,-359.9243C192.8702,-347.338 258.2249,-330.8274 303.429,-319.4074"/>
<polygon fill="#c0c0c0" stroke="#c0c0c0" stroke-width="2" points="304.486,-322.7504 313.3241,-316.9076 302.7714,-315.9636 304.486,-322.7504"/>
</g>
<!-- 15&#45;&gt;10 -->
<g id="edge15" class="edge">
<title>15&#45;&gt;10</title>
<path fill="none" stroke="#c0c0c0" stroke-width="2" d="M320.3183,-359.882C314.2685,-349.7891 307.6022,-336.7221 304.5,-324 300.7096,-308.4555 301.0585,-303.6255 304.5,-288 306.4805,-279.0081 310.1121,-269.7321 314.0051,-261.4596"/>
<polygon fill="#c0c0c0" stroke="#c0c0c0" stroke-width="2" points="317.2516,-262.7939 318.612,-252.2867 310.9962,-259.6522 317.2516,-262.7939"/>
</g>
<!-- 15&#45;&gt;13 -->
<g id="edge25" class="edge">
<title>15&#45;&gt;13</title>
<path fill="none" stroke="#c0c0c0" stroke-width="2" d="M338.5562,-359.8314C341.1512,-352.0463 344.2424,-342.7729 347.1218,-334.1347"/>
<polygon fill="#c0c0c0" stroke="#c0c0c0" stroke-width="2" points="350.5203,-335.0069 350.3622,-324.4133 343.8795,-332.7933 350.5203,-335.0069"/>
</g>
<!-- 16 -->
<g id="node17" class="node">
<title>16</title>
<path fill="none" stroke="#97d856" stroke-width="2" d="M303,-612C303,-612 222,-612 222,-612 216,-612 210,-606 210,-600 210,-600 210,-588 210,-588 210,-582 216,-576 222,-576 222,-576 303,-576 303,-576 309,-576 315,-582 315,-588 315,-588 315,-600 315,-600 315,-606 309,-612 303,-612"/>
<text text-anchor="middle" x="262.5" y="-591.5" font-family="sans" font-size="10.00" fill="#000000">generate_genome</text>
</g>
<!-- 16&#45;&gt;11 -->
<g id="edge21" class="edge">
<title>16&#45;&gt;11</title>
<path fill="none" stroke="#c0c0c0" stroke-width="2" d="M263.74,-575.7973C265.6502,-556.9063 270.4614,-526.966 282.5,-504 287.9499,-493.6033 295.928,-483.7138 303.9176,-475.3067"/>
<polygon fill="#c0c0c0" stroke="#c0c0c0" stroke-width="2" points="306.5949,-477.5789 311.1861,-468.0305 301.6426,-472.6318 306.5949,-477.5789"/>
</g>
<!-- 17 -->
<g id="node18" class="node">
<title>17</title>
<path fill="none" stroke="#56d863" stroke-width="2" d="M362,-540C362,-540 303,-540 303,-540 297,-540 291,-534 291,-528 291,-528 291,-516 291,-516 291,-510 297,-504 303,-504 303,-504 362,-504 362,-504 368,-504 374,-510 374,-516 374,-516 374,-528 374,-528 374,-534 368,-540 362,-540"/>
<text text-anchor="middle" x="332.5" y="-519.5" font-family="sans" font-size="10.00" fill="#000000">first_mapping</text>
</g>
<!-- 16&#45;&gt;17 -->
<g id="edge30" class="edge">
<title>16&#45;&gt;17</title>
<path fill="none" stroke="#c0c0c0" stroke-width="2" d="M280.164,-575.8314C288.4732,-567.2848 298.5264,-556.9443 307.5918,-547.6198"/>
<polygon fill="#c0c0c0" stroke="#c0c0c0" stroke-width="2" points="310.1369,-550.023 314.5982,-540.4133 305.1179,-545.1435 310.1369,-550.023"/>
</g>
<!-- 22 -->
<g id="node23" class="node">
<title>22</title>
<path fill="none" stroke="#56b9d8" stroke-width="2" d="M222.5,-540C222.5,-540 178.5,-540 178.5,-540 172.5,-540 166.5,-534 166.5,-528 166.5,-528 166.5,-516 166.5,-516 166.5,-510 172.5,-504 178.5,-504 178.5,-504 222.5,-504 222.5,-504 228.5,-504 234.5,-510 234.5,-516 234.5,-516 234.5,-528 234.5,-528 234.5,-534 228.5,-540 222.5,-540"/>
<text text-anchor="middle" x="200.5" y="-519.5" font-family="sans" font-size="10.00" fill="#000000">shuffle_gtf</text>
</g>
<!-- 16&#45;&gt;22 -->
<g id="edge37" class="edge">
<title>16&#45;&gt;22</title>
<path fill="none" stroke="#c0c0c0" stroke-width="2" d="M246.8548,-575.8314C239.6409,-567.454 230.943,-557.3531 223.0395,-548.1749"/>
<polygon fill="#c0c0c0" stroke="#c0c0c0" stroke-width="2" points="225.5333,-545.7071 216.3559,-540.4133 220.2289,-550.2748 225.5333,-545.7071"/>
</g>
<!-- 17&#45;&gt;11 -->
<g id="edge20" class="edge">
<title>17&#45;&gt;11</title>
<path fill="none" stroke="#c0c0c0" stroke-width="2" d="M332.5,-503.8314C332.5,-496.131 332.5,-486.9743 332.5,-478.4166"/>
<polygon fill="#c0c0c0" stroke="#c0c0c0" stroke-width="2" points="336.0001,-478.4132 332.5,-468.4133 329.0001,-478.4133 336.0001,-478.4132"/>
</g>
<!-- 18 -->
<g id="node19" class="node">
<title>18</title>
<path fill="none" stroke="#d8b456" stroke-width="2" d="M396.5,-612C396.5,-612 366.5,-612 366.5,-612 360.5,-612 354.5,-606 354.5,-600 354.5,-600 354.5,-588 354.5,-588 354.5,-582 360.5,-576 366.5,-576 366.5,-576 396.5,-576 396.5,-576 402.5,-576 408.5,-582 408.5,-588 408.5,-588 408.5,-600 408.5,-600 408.5,-606 402.5,-612 396.5,-612"/>
<text text-anchor="middle" x="381.5" y="-591.5" font-family="sans" font-size="10.00" fill="#000000">gzip</text>
</g>
<!-- 18&#45;&gt;11 -->
<g id="edge22" class="edge">
<title>18&#45;&gt;11</title>
<path fill="none" stroke="#c0c0c0" stroke-width="2" d="M385.9624,-575.6767C389.6085,-556.9511 392.7963,-527.3822 383.5,-504 379.2324,-493.2659 371.7069,-483.4321 363.7261,-475.1828"/>
<polygon fill="#c0c0c0" stroke="#c0c0c0" stroke-width="2" points="365.9779,-472.4921 356.3491,-468.072 361.1199,-477.5319 365.9779,-472.4921"/>
</g>
<!-- 18&#45;&gt;17 -->
<g id="edge31" class="edge">
<title>18&#45;&gt;17</title>
<path fill="none" stroke="#c0c0c0" stroke-width="2" d="M369.1352,-575.8314C363.5491,-567.6232 356.837,-557.7606 350.6928,-548.7323"/>
<polygon fill="#c0c0c0" stroke="#c0c0c0" stroke-width="2" points="353.551,-546.7112 345.0313,-540.4133 347.764,-550.6496 353.551,-546.7112"/>
</g>
<!-- 19&#45;&gt;12 -->
<g id="edge23" class="edge">
<title>19&#45;&gt;12</title>
<path fill="none" stroke="#c0c0c0" stroke-width="2" d="M205.4157,-359.8314C201.4385,-351.8771 196.6845,-342.369 192.2861,-333.5723"/>
<polygon fill="#c0c0c0" stroke="#c0c0c0" stroke-width="2" points="195.3093,-331.7923 187.7066,-324.4133 189.0483,-334.9228 195.3093,-331.7923"/>
</g>
<!-- 20 -->
<g id="node21" class="node">
<title>20</title>
<path fill="none" stroke="#bed856" stroke-width="2" d="M209,-684C209,-684 154,-684 154,-684 148,-684 142,-678 142,-672 142,-672 142,-660 142,-660 142,-654 148,-648 154,-648 154,-648 209,-648 209,-648 215,-648 221,-654 221,-660 221,-660 221,-672 221,-672 221,-678 215,-684 209,-684"/>
<text text-anchor="middle" x="181.5" y="-663.5" font-family="sans" font-size="10.00" fill="#000000">generate_gtf</text>
</g>
<!-- 20&#45;&gt;14 -->
<g id="edge27" class="edge">
<title>20&#45;&gt;14</title>
<path fill="none" stroke="#c0c0c0" stroke-width="2" d="M174.619,-647.9843C155.9834,-599.1929 104.438,-464.2377 82.0771,-405.6927"/>
<polygon fill="#c0c0c0" stroke="#c0c0c0" stroke-width="2" points="85.2161,-404.1018 78.3784,-396.0089 78.6769,-406.5995 85.2161,-404.1018"/>
</g>
<!-- 20&#45;&gt;16 -->
<g id="edge29" class="edge">
<title>20&#45;&gt;16</title>
<path fill="none" stroke="#c0c0c0" stroke-width="2" d="M201.9397,-647.8314C211.8205,-639.0485 223.8324,-628.3712 234.545,-618.8489"/>
<polygon fill="#c0c0c0" stroke="#c0c0c0" stroke-width="2" points="236.918,-621.4224 242.0668,-612.1628 232.2674,-616.1906 236.918,-621.4224"/>
</g>
<!-- 20&#45;&gt;22 -->
<g id="edge36" class="edge">
<title>20&#45;&gt;22</title>
<path fill="none" stroke="#c0c0c0" stroke-width="2" d="M183.9064,-647.7623C187.1471,-623.201 192.9465,-579.2474 196.7588,-550.3541"/>
<polygon fill="#c0c0c0" stroke="#c0c0c0" stroke-width="2" points="200.2749,-550.4616 198.1132,-540.0896 193.3351,-549.5458 200.2749,-550.4616"/>
</g>
<!-- 21 -->
<g id="node22" class="node">
<title>21</title>
<path fill="none" stroke="#56c9d8" stroke-width="2" d="M399,-684C399,-684 364,-684 364,-684 358,-684 352,-678 352,-672 352,-672 352,-660 352,-660 352,-654 358,-648 364,-648 364,-648 399,-648 399,-648 405,-648 411,-654 411,-660 411,-660 411,-672 411,-672 411,-678 405,-684 399,-684"/>
<text text-anchor="middle" x="381.5" y="-663.5" font-family="sans" font-size="10.00" fill="#000000">cutadapt</text>
</g>
<!-- 21&#45;&gt;18 -->
<g id="edge32" class="edge">
<title>21&#45;&gt;18</title>
<path fill="none" stroke="#c0c0c0" stroke-width="2" d="M381.5,-647.8314C381.5,-640.131 381.5,-630.9743 381.5,-622.4166"/>
<polygon fill="#c0c0c0" stroke="#c0c0c0" stroke-width="2" points="385.0001,-622.4132 381.5,-612.4133 378.0001,-622.4133 385.0001,-622.4132"/>
</g>
<!-- 22&#45;&gt;19 -->
<g id="edge34" class="edge">
<title>22&#45;&gt;19</title>
<path fill="none" stroke="#c0c0c0" stroke-width="2" d="M202.2731,-503.7623C204.661,-479.201 208.9343,-435.2474 211.7434,-406.3541"/>
<polygon fill="#c0c0c0" stroke="#c0c0c0" stroke-width="2" points="215.2571,-406.3814 212.7413,-396.0896 208.29,-405.704 215.2571,-406.3814"/>
</g>
<!-- 23 -->
<g id="node24" class="node">
<title>23</title>
<path fill="none" stroke="#d6d856" stroke-width="2" d="M396.5,-756C396.5,-756 366.5,-756 366.5,-756 360.5,-756 354.5,-750 354.5,-744 354.5,-744 354.5,-732 354.5,-732 354.5,-726 360.5,-720 366.5,-720 366.5,-720 396.5,-720 396.5,-720 402.5,-720 408.5,-726 408.5,-732 408.5,-732 408.5,-744 408.5,-744 408.5,-750 402.5,-756 396.5,-756"/>
<text text-anchor="middle" x="381.5" y="-735.5" font-family="sans" font-size="10.00" fill="#000000">repair</text>
</g>
<!-- 23&#45;&gt;21 -->
<g id="edge35" class="edge">
<title>23&#45;&gt;21</title>
<path fill="none" stroke="#c0c0c0" stroke-width="2" d="M381.5,-719.8314C381.5,-712.131 381.5,-702.9743 381.5,-694.4166"/>
<polygon fill="#c0c0c0" stroke="#c0c0c0" stroke-width="2" points="385.0001,-694.4132 381.5,-684.4133 378.0001,-694.4133 385.0001,-694.4132"/>
</g>
</g>
</svg>
