<?xml version="1.0" encoding="UTF-8" standalone="no"?>
<!DOCTYPE svg PUBLIC "-//W3C//DTD SVG 1.1//EN"
 "http://www.w3.org/Graphics/SVG/1.1/DTD/svg11.dtd">
<!-- Generated by graphviz version 2.38.0 (20140413.2041)
 -->
<!-- Title: snakemake_dag Pages: 1 -->
<svg width="545pt" height="620pt"
 viewBox="0.00 0.00 545.00 620.00" xmlns="http://www.w3.org/2000/svg" xmlns:xlink="http://www.w3.org/1999/xlink">
<g id="graph0" class="graph" transform="scale(1 1) rotate(0) translate(4 616)">
<title>snakemake_dag</title>
<polygon fill="white" stroke="none" points="-4,4 -4,-616 541,-616 541,4 -4,4"/>
<!-- 0 -->
<g id="node1" class="node"><title>0</title>
<path fill="none" stroke="#d87556" stroke-width="2" d="M376.5,-36C376.5,-36 336.5,-36 336.5,-36 330.5,-36 324.5,-30 324.5,-24 324.5,-24 324.5,-12 324.5,-12 324.5,-6 330.5,-0 336.5,-0 336.5,-0 376.5,-0 376.5,-0 382.5,-0 388.5,-6 388.5,-12 388.5,-12 388.5,-24 388.5,-24 388.5,-30 382.5,-36 376.5,-36"/>
<text text-anchor="middle" x="356.5" y="-15.5" font-family="sans" font-size="10.00">deseq_tfs</text>
</g>
<!-- 1 -->
<g id="node2" class="node"><title>1</title>
<path fill="none" stroke="#56a9d8" stroke-width="2" d="M525,-36C525,-36 440,-36 440,-36 434,-36 428,-30 428,-24 428,-24 428,-12 428,-12 428,-6 434,-0 440,-0 440,-0 525,-0 525,-0 531,-0 537,-6 537,-12 537,-12 537,-24 537,-24 537,-30 531,-36 525,-36"/>
<text text-anchor="middle" x="482.5" y="-15.5" font-family="sans" font-size="10.00">filter_deseq_object</text>
</g>
<!-- 2 -->
<g id="node3" class="node"><title>2</title>
<path fill="none" stroke="#56d8b9" stroke-width="2" d="M276.5,-108C276.5,-108 226.5,-108 226.5,-108 220.5,-108 214.5,-102 214.5,-96 214.5,-96 214.5,-84 214.5,-84 214.5,-78 220.5,-72 226.5,-72 226.5,-72 276.5,-72 276.5,-72 282.5,-72 288.5,-78 288.5,-84 288.5,-84 288.5,-96 288.5,-96 288.5,-102 282.5,-108 276.5,-108"/>
<text text-anchor="middle" x="251.5" y="-87.5" font-family="sans" font-size="10.00">format_tfdb</text>
</g>
<!-- 2&#45;&gt;0 -->
<g id="edge2" class="edge"><title>2&#45;&gt;0</title>
<path fill="none" stroke="grey" stroke-width="2" d="M277.186,-71.8761C290.788,-62.8083 307.672,-51.5523 322.361,-41.7592"/>
<polygon fill="grey" stroke="grey" stroke-width="2" points="324.336,-44.649 330.715,-36.1898 320.453,-38.8246 324.336,-44.649"/>
</g>
<!-- 3 -->
<g id="node4" class="node"><title>3</title>
<path fill="none" stroke="#56d863" stroke-width="2" d="M515.5,-252C515.5,-252 409.5,-252 409.5,-252 403.5,-252 397.5,-246 397.5,-240 397.5,-240 397.5,-228 397.5,-228 397.5,-222 403.5,-216 409.5,-216 409.5,-216 515.5,-216 515.5,-216 521.5,-216 527.5,-222 527.5,-228 527.5,-228 527.5,-240 527.5,-240 527.5,-246 521.5,-252 515.5,-252"/>
<text text-anchor="middle" x="462.5" y="-231.5" font-family="sans" font-size="10.00">generate_deseq_object</text>
</g>
<!-- 3&#45;&gt;0 -->
<g id="edge1" class="edge"><title>3&#45;&gt;0</title>
<path fill="none" stroke="grey" stroke-width="2" d="M460.444,-215.776C456.121,-184.894 443.941,-118.951 414.5,-72 407.65,-61.0757 397.95,-50.9925 388.439,-42.6187"/>
<polygon fill="grey" stroke="grey" stroke-width="2" points="390.471,-39.7545 380.561,-36.0059 385.97,-45.116 390.471,-39.7545"/>
</g>
<!-- 3&#45;&gt;1 -->
<g id="edge4" class="edge"><title>3&#45;&gt;1</title>
<path fill="none" stroke="grey" stroke-width="2" d="M469.481,-215.651C473.224,-205.452 477.474,-192.202 479.5,-180 487.199,-133.62 486.078,-78.6973 484.402,-46.4706"/>
<polygon fill="grey" stroke="grey" stroke-width="2" points="487.872,-45.8502 483.799,-36.0694 480.883,-46.255 487.872,-45.8502"/>
</g>
<!-- 4 -->
<g id="node5" class="node"><title>4</title>
<path fill="none" stroke="#b6d856" stroke-width="2" d="M394,-108C394,-108 319,-108 319,-108 313,-108 307,-102 307,-96 307,-96 307,-84 307,-84 307,-78 313,-72 319,-72 319,-72 394,-72 394,-72 400,-72 406,-78 406,-84 406,-84 406,-96 406,-96 406,-102 400,-108 394,-108"/>
<text text-anchor="middle" x="356.5" y="-87.5" font-family="sans" font-size="10.00">calculate_cutoffs</text>
</g>
<!-- 3&#45;&gt;4 -->
<g id="edge9" class="edge"><title>3&#45;&gt;4</title>
<path fill="none" stroke="grey" stroke-width="2" d="M453.637,-215.846C443.734,-197.347 426.687,-167.404 408.5,-144 400.792,-134.081 391.417,-124.033 382.761,-115.392"/>
<polygon fill="grey" stroke="grey" stroke-width="2" points="384.998,-112.685 375.399,-108.199 380.106,-117.691 384.998,-112.685"/>
</g>
<!-- 8 -->
<g id="node9" class="node"><title>8</title>
<path fill="none" stroke="#d8c356" stroke-width="2" d="M387.5,-180C387.5,-180 325.5,-180 325.5,-180 319.5,-180 313.5,-174 313.5,-168 313.5,-168 313.5,-156 313.5,-156 313.5,-150 319.5,-144 325.5,-144 325.5,-144 387.5,-144 387.5,-144 393.5,-144 399.5,-150 399.5,-156 399.5,-156 399.5,-168 399.5,-168 399.5,-174 393.5,-180 387.5,-180"/>
<text text-anchor="middle" x="356.5" y="-159.5" font-family="sans" font-size="10.00">calculate_tpm</text>
</g>
<!-- 3&#45;&gt;8 -->
<g id="edge17" class="edge"><title>3&#45;&gt;8</title>
<path fill="none" stroke="grey" stroke-width="2" d="M436.569,-215.876C422.838,-206.808 405.794,-195.552 390.964,-185.759"/>
<polygon fill="grey" stroke="grey" stroke-width="2" points="392.804,-182.78 382.53,-180.19 388.946,-188.621 392.804,-182.78"/>
</g>
<!-- 4&#45;&gt;0 -->
<g id="edge3" class="edge"><title>4&#45;&gt;0</title>
<path fill="none" stroke="grey" stroke-width="2" d="M356.5,-71.6966C356.5,-63.9827 356.5,-54.7125 356.5,-46.1124"/>
<polygon fill="grey" stroke="grey" stroke-width="2" points="360,-46.1043 356.5,-36.1043 353,-46.1044 360,-46.1043"/>
</g>
<!-- 4&#45;&gt;1 -->
<g id="edge5" class="edge"><title>4&#45;&gt;1</title>
<path fill="none" stroke="grey" stroke-width="2" d="M387.323,-71.8761C403.95,-62.6388 424.665,-51.1308 442.519,-41.2116"/>
<polygon fill="grey" stroke="grey" stroke-width="2" points="444.517,-44.1058 451.558,-36.1898 441.117,-37.9867 444.517,-44.1058"/>
</g>
<!-- 5 -->
<g id="node6" class="node"><title>5</title>
<path fill="none" stroke="#d85656" stroke-width="2" d="M370,-324C370,-324 295,-324 295,-324 289,-324 283,-318 283,-312 283,-312 283,-300 283,-300 283,-294 289,-288 295,-288 295,-288 370,-288 370,-288 376,-288 382,-294 382,-300 382,-300 382,-312 382,-312 382,-318 376,-324 370,-324"/>
<text text-anchor="middle" x="332.5" y="-303.5" font-family="sans" font-size="10.00">second_mapping</text>
</g>
<!-- 5&#45;&gt;3 -->
<g id="edge6" class="edge"><title>5&#45;&gt;3</title>
<path fill="none" stroke="grey" stroke-width="2" d="M364.302,-287.876C381.614,-278.554 403.221,-266.919 421.756,-256.939"/>
<polygon fill="grey" stroke="grey" stroke-width="2" points="423.431,-260.012 430.576,-252.19 420.112,-253.849 423.431,-260.012"/>
</g>
<!-- 6 -->
<g id="node7" class="node"><title>6</title>
<path fill="none" stroke="#56d89a" stroke-width="2" d="M367,-252C367,-252 298,-252 298,-252 292,-252 286,-246 286,-240 286,-240 286,-228 286,-228 286,-222 292,-216 298,-216 298,-216 367,-216 367,-216 373,-216 379,-222 379,-228 379,-228 379,-240 379,-240 379,-246 373,-252 367,-252"/>
<text text-anchor="middle" x="332.5" y="-231.5" font-family="sans" font-size="10.00">parse_star_logs</text>
</g>
<!-- 5&#45;&gt;6 -->
<g id="edge15" class="edge"><title>5&#45;&gt;6</title>
<path fill="none" stroke="grey" stroke-width="2" d="M332.5,-287.697C332.5,-279.983 332.5,-270.712 332.5,-262.112"/>
<polygon fill="grey" stroke="grey" stroke-width="2" points="336,-262.104 332.5,-252.104 329,-262.104 336,-262.104"/>
</g>
<!-- 13 -->
<g id="node14" class="node"><title>13</title>
<path fill="none" stroke="#97d856" stroke-width="2" d="M255.5,-252C255.5,-252 173.5,-252 173.5,-252 167.5,-252 161.5,-246 161.5,-240 161.5,-240 161.5,-228 161.5,-228 161.5,-222 167.5,-216 173.5,-216 173.5,-216 255.5,-216 255.5,-216 261.5,-216 267.5,-222 267.5,-228 267.5,-228 267.5,-240 267.5,-240 267.5,-246 261.5,-252 255.5,-252"/>
<text text-anchor="middle" x="214.5" y="-231.5" font-family="sans" font-size="10.00">count_background</text>
</g>
<!-- 5&#45;&gt;13 -->
<g id="edge25" class="edge"><title>5&#45;&gt;13</title>
<path fill="none" stroke="grey" stroke-width="2" d="M303.634,-287.876C288.205,-278.724 269.019,-267.342 252.403,-257.485"/>
<polygon fill="grey" stroke="grey" stroke-width="2" points="253.863,-254.282 243.477,-252.19 250.292,-260.302 253.863,-254.282"/>
</g>
<!-- 6&#45;&gt;4 -->
<g id="edge10" class="edge"><title>6&#45;&gt;4</title>
<path fill="none" stroke="grey" stroke-width="2" d="M320.145,-215.974C308.595,-197.839 294.512,-168.441 304.5,-144 308.988,-133.017 316.97,-123.081 325.354,-114.858"/>
<polygon fill="grey" stroke="grey" stroke-width="2" points="327.735,-117.424 332.748,-108.09 323.008,-112.261 327.735,-117.424"/>
</g>
<!-- 6&#45;&gt;8 -->
<g id="edge19" class="edge"><title>6&#45;&gt;8</title>
<path fill="none" stroke="grey" stroke-width="2" d="M338.433,-215.697C341.106,-207.898 344.326,-198.509 347.301,-189.829"/>
<polygon fill="grey" stroke="grey" stroke-width="2" points="350.703,-190.699 350.636,-180.104 344.082,-188.429 350.703,-190.699"/>
</g>
<!-- 7 -->
<g id="node8" class="node"><title>7</title>
<path fill="none" stroke="#5673d8" stroke-width="2" d="M245.5,-180C245.5,-180 111.5,-180 111.5,-180 105.5,-180 99.5,-174 99.5,-168 99.5,-168 99.5,-156 99.5,-156 99.5,-150 105.5,-144 111.5,-144 111.5,-144 245.5,-144 245.5,-144 251.5,-144 257.5,-150 257.5,-156 257.5,-156 257.5,-168 257.5,-168 257.5,-174 251.5,-180 245.5,-180"/>
<text text-anchor="middle" x="178.5" y="-159.5" font-family="sans" font-size="10.00">combine_background_counts</text>
</g>
<!-- 7&#45;&gt;4 -->
<g id="edge11" class="edge"><title>7&#45;&gt;4</title>
<path fill="none" stroke="grey" stroke-width="2" d="M222.044,-143.876C246.702,-134.179 277.723,-121.98 303.754,-111.743"/>
<polygon fill="grey" stroke="grey" stroke-width="2" points="305.072,-114.985 313.098,-108.068 302.511,-108.471 305.072,-114.985"/>
</g>
<!-- 8&#45;&gt;4 -->
<g id="edge8" class="edge"><title>8&#45;&gt;4</title>
<path fill="none" stroke="grey" stroke-width="2" d="M356.5,-143.697C356.5,-135.983 356.5,-126.712 356.5,-118.112"/>
<polygon fill="grey" stroke="grey" stroke-width="2" points="360,-118.104 356.5,-108.104 353,-118.104 360,-118.104"/>
</g>
<!-- 9 -->
<g id="node10" class="node"><title>9</title>
<path fill="none" stroke="#d8ac56" stroke-width="2" d="M131,-252C131,-252 12,-252 12,-252 6,-252 0,-246 0,-240 0,-240 0,-228 0,-228 0,-222 6,-216 12,-216 12,-216 131,-216 131,-216 137,-216 143,-222 143,-228 143,-228 143,-240 143,-240 143,-246 137,-252 131,-252"/>
<text text-anchor="middle" x="71.5" y="-231.5" font-family="sans" font-size="10.00">calculate_feature_lengths</text>
</g>
<!-- 9&#45;&gt;4 -->
<g id="edge7" class="edge"><title>9&#45;&gt;4</title>
<path fill="none" stroke="grey" stroke-width="2" d="M69.9405,-215.923C69.1199,-195.762 71.149,-162.627 90.5,-144 155.543,-81.3909 203.245,-125.783 296.892,-107.835"/>
<polygon fill="grey" stroke="grey" stroke-width="2" points="297.647,-111.253 306.706,-105.758 296.198,-104.405 297.647,-111.253"/>
</g>
<!-- 9&#45;&gt;8 -->
<g id="edge18" class="edge"><title>9&#45;&gt;8</title>
<path fill="none" stroke="grey" stroke-width="2" d="M140.854,-215.966C191.05,-203.637 257.859,-187.228 303.739,-175.959"/>
<polygon fill="grey" stroke="grey" stroke-width="2" points="304.61,-179.349 313.486,-173.565 302.94,-172.551 304.61,-179.349"/>
</g>
<!-- 10 -->
<g id="node11" class="node"><title>10</title>
<path fill="none" stroke="#d88d56" stroke-width="2" d="M362,-396C362,-396 303,-396 303,-396 297,-396 291,-390 291,-384 291,-384 291,-372 291,-372 291,-366 297,-360 303,-360 303,-360 362,-360 362,-360 368,-360 374,-366 374,-372 374,-372 374,-384 374,-384 374,-390 368,-396 362,-396"/>
<text text-anchor="middle" x="332.5" y="-375.5" font-family="sans" font-size="10.00">first_mapping</text>
</g>
<!-- 10&#45;&gt;5 -->
<g id="edge13" class="edge"><title>10&#45;&gt;5</title>
<path fill="none" stroke="grey" stroke-width="2" d="M332.5,-359.697C332.5,-351.983 332.5,-342.712 332.5,-334.112"/>
<polygon fill="grey" stroke="grey" stroke-width="2" points="336,-334.104 332.5,-324.104 329,-334.104 336,-334.104"/>
</g>
<!-- 11 -->
<g id="node12" class="node"><title>11</title>
<path fill="none" stroke="#56c1d8" stroke-width="2" d="M303,-468C303,-468 222,-468 222,-468 216,-468 210,-462 210,-456 210,-456 210,-444 210,-444 210,-438 216,-432 222,-432 222,-432 303,-432 303,-432 309,-432 315,-438 315,-444 315,-444 315,-456 315,-456 315,-462 309,-468 303,-468"/>
<text text-anchor="middle" x="262.5" y="-447.5" font-family="sans" font-size="10.00">generate_genome</text>
</g>
<!-- 11&#45;&gt;5 -->
<g id="edge12" class="edge"><title>11&#45;&gt;5</title>
<path fill="none" stroke="grey" stroke-width="2" d="M263.36,-431.985C264.913,-413.341 269.271,-383.023 281.5,-360 287.152,-349.359 295.566,-339.361 303.939,-330.979"/>
<polygon fill="grey" stroke="grey" stroke-width="2" points="306.385,-333.483 311.215,-324.053 301.559,-328.412 306.385,-333.483"/>
</g>
<!-- 11&#45;&gt;10 -->
<g id="edge21" class="edge"><title>11&#45;&gt;10</title>
<path fill="none" stroke="grey" stroke-width="2" d="M279.803,-431.697C288.365,-423.135 298.844,-412.656 308.196,-403.304"/>
<polygon fill="grey" stroke="grey" stroke-width="2" points="310.799,-405.65 315.396,-396.104 305.85,-400.701 310.799,-405.65"/>
</g>
<!-- 16 -->
<g id="node17" class="node"><title>16</title>
<path fill="none" stroke="#56d8d0" stroke-width="2" d="M222.5,-396C222.5,-396 178.5,-396 178.5,-396 172.5,-396 166.5,-390 166.5,-384 166.5,-384 166.5,-372 166.5,-372 166.5,-366 172.5,-360 178.5,-360 178.5,-360 222.5,-360 222.5,-360 228.5,-360 234.5,-366 234.5,-372 234.5,-372 234.5,-384 234.5,-384 234.5,-390 228.5,-396 222.5,-396"/>
<text text-anchor="middle" x="200.5" y="-375.5" font-family="sans" font-size="10.00">shuffle_gtf</text>
</g>
<!-- 11&#45;&gt;16 -->
<g id="edge28" class="edge"><title>11&#45;&gt;16</title>
<path fill="none" stroke="grey" stroke-width="2" d="M247.174,-431.697C239.741,-423.305 230.677,-413.07 222.52,-403.861"/>
<polygon fill="grey" stroke="grey" stroke-width="2" points="224.9,-401.27 215.65,-396.104 219.66,-405.911 224.9,-401.27"/>
</g>
<!-- 12 -->
<g id="node13" class="node"><title>12</title>
<path fill="none" stroke="#80d856" stroke-width="2" d="M396.5,-468C396.5,-468 366.5,-468 366.5,-468 360.5,-468 354.5,-462 354.5,-456 354.5,-456 354.5,-444 354.5,-444 354.5,-438 360.5,-432 366.5,-432 366.5,-432 396.5,-432 396.5,-432 402.5,-432 408.5,-438 408.5,-444 408.5,-444 408.5,-456 408.5,-456 408.5,-462 402.5,-468 396.5,-468"/>
<text text-anchor="middle" x="381.5" y="-447.5" font-family="sans" font-size="10.00">gzip</text>
</g>
<!-- 12&#45;&gt;5 -->
<g id="edge14" class="edge"><title>12&#45;&gt;5</title>
<path fill="none" stroke="grey" stroke-width="2" d="M385.42,-431.904C388.814,-413.453 391.856,-383.552 382.5,-360 378.209,-349.199 370.558,-339.324 362.512,-331.102"/>
<polygon fill="grey" stroke="grey" stroke-width="2" points="364.75,-328.401 355.096,-324.037 359.922,-333.469 364.75,-328.401"/>
</g>
<!-- 12&#45;&gt;10 -->
<g id="edge22" class="edge"><title>12&#45;&gt;10</title>
<path fill="none" stroke="grey" stroke-width="2" d="M369.388,-431.697C363.632,-423.474 356.638,-413.483 350.294,-404.421"/>
<polygon fill="grey" stroke="grey" stroke-width="2" points="353.075,-402.29 344.473,-396.104 347.34,-406.304 353.075,-402.29"/>
</g>
<!-- 13&#45;&gt;7 -->
<g id="edge16" class="edge"><title>13&#45;&gt;7</title>
<path fill="none" stroke="grey" stroke-width="2" d="M205.601,-215.697C201.503,-207.728 196.551,-198.1 192.007,-189.264"/>
<polygon fill="grey" stroke="grey" stroke-width="2" points="194.983,-187.396 187.297,-180.104 188.758,-190.598 194.983,-187.396"/>
</g>
<!-- 14 -->
<g id="node15" class="node"><title>14</title>
<path fill="none" stroke="#61d856" stroke-width="2" d="M209,-540C209,-540 154,-540 154,-540 148,-540 142,-534 142,-528 142,-528 142,-516 142,-516 142,-510 148,-504 154,-504 154,-504 209,-504 209,-504 215,-504 221,-510 221,-516 221,-516 221,-528 221,-528 221,-534 215,-540 209,-540"/>
<text text-anchor="middle" x="181.5" y="-519.5" font-family="sans" font-size="10.00">generate_gtf</text>
</g>
<!-- 14&#45;&gt;9 -->
<g id="edge20" class="edge"><title>14&#45;&gt;9</title>
<path fill="none" stroke="grey" stroke-width="2" d="M174.948,-503.966C156.536,-456.093 104.215,-320.06 81.8475,-261.904"/>
<polygon fill="grey" stroke="grey" stroke-width="2" points="85.0129,-260.383 78.1563,-252.306 78.4795,-262.896 85.0129,-260.383"/>
</g>
<!-- 14&#45;&gt;11 -->
<g id="edge23" class="edge"><title>14&#45;&gt;11</title>
<path fill="none" stroke="grey" stroke-width="2" d="M201.522,-503.697C211.626,-494.965 224.036,-484.24 235.018,-474.75"/>
<polygon fill="grey" stroke="grey" stroke-width="2" points="237.43,-477.291 242.708,-468.104 232.853,-471.995 237.43,-477.291"/>
</g>
<!-- 14&#45;&gt;16 -->
<g id="edge29" class="edge"><title>14&#45;&gt;16</title>
<path fill="none" stroke="grey" stroke-width="2" d="M183.792,-503.871C187.03,-479.67 192.979,-435.211 196.835,-406.393"/>
<polygon fill="grey" stroke="grey" stroke-width="2" points="200.343,-406.565 198.2,-396.189 193.405,-405.637 200.343,-406.565"/>
</g>
<!-- 15 -->
<g id="node16" class="node"><title>15</title>
<path fill="none" stroke="#568ad8" stroke-width="2" d="M399,-540C399,-540 364,-540 364,-540 358,-540 352,-534 352,-528 352,-528 352,-516 352,-516 352,-510 358,-504 364,-504 364,-504 399,-504 399,-504 405,-504 411,-510 411,-516 411,-516 411,-528 411,-528 411,-534 405,-540 399,-540"/>
<text text-anchor="middle" x="381.5" y="-519.5" font-family="sans" font-size="10.00">cutadapt</text>
</g>
<!-- 15&#45;&gt;12 -->
<g id="edge24" class="edge"><title>15&#45;&gt;12</title>
<path fill="none" stroke="grey" stroke-width="2" d="M381.5,-503.697C381.5,-495.983 381.5,-486.712 381.5,-478.112"/>
<polygon fill="grey" stroke="grey" stroke-width="2" points="385,-478.104 381.5,-468.104 378,-478.104 385,-478.104"/>
</g>
<!-- 16&#45;&gt;13 -->
<g id="edge26" class="edge"><title>16&#45;&gt;13</title>
<path fill="none" stroke="grey" stroke-width="2" d="M202.189,-359.871C204.575,-335.67 208.958,-291.211 211.799,-262.393"/>
<polygon fill="grey" stroke="grey" stroke-width="2" points="215.307,-262.484 212.805,-252.189 208.341,-261.798 215.307,-262.484"/>
</g>
<!-- 17 -->
<g id="node18" class="node"><title>17</title>
<path fill="none" stroke="#ced856" stroke-width="2" d="M396.5,-612C396.5,-612 366.5,-612 366.5,-612 360.5,-612 354.5,-606 354.5,-600 354.5,-600 354.5,-588 354.5,-588 354.5,-582 360.5,-576 366.5,-576 366.5,-576 396.5,-576 396.5,-576 402.5,-576 408.5,-582 408.5,-588 408.5,-588 408.5,-600 408.5,-600 408.5,-606 402.5,-612 396.5,-612"/>
<text text-anchor="middle" x="381.5" y="-591.5" font-family="sans" font-size="10.00">repair</text>
</g>
<!-- 17&#45;&gt;15 -->
<g id="edge27" class="edge"><title>17&#45;&gt;15</title>
<path fill="none" stroke="grey" stroke-width="2" d="M381.5,-575.697C381.5,-567.983 381.5,-558.712 381.5,-550.112"/>
<polygon fill="grey" stroke="grey" stroke-width="2" points="385,-550.104 381.5,-540.104 378,-550.104 385,-550.104"/>
</g>
</g>
</svg>
