<?xml version="1.0" encoding="UTF-8" standalone="no"?>
<!DOCTYPE svg PUBLIC "-//W3C//DTD SVG 1.1//EN"
 "http://www.w3.org/Graphics/SVG/1.1/DTD/svg11.dtd">
<!-- Generated by graphviz version 2.40.1 (20161225.0304)
 -->
<!-- Title: snakemake_dag Pages: 1 -->
<svg width="874pt" height="764pt"
 viewBox="0.00 0.00 874.00 764.00" xmlns="http://www.w3.org/2000/svg" xmlns:xlink="http://www.w3.org/1999/xlink">
<g id="graph0" class="graph" transform="scale(1 1) rotate(0) translate(4 760)">
<title>snakemake_dag</title>
<polygon fill="#ffffff" stroke="transparent" points="-4,4 -4,-760 870,-760 870,4 -4,4"/>
<!-- 0 -->
<g id="node1" class="node">
<title>0</title>
<path fill="none" stroke="#56c1d8" stroke-width="2" d="M270,-108C270,-108 229,-108 229,-108 223,-108 217,-102 217,-96 217,-96 217,-84 217,-84 217,-78 223,-72 229,-72 229,-72 270,-72 270,-72 276,-72 282,-78 282,-84 282,-84 282,-96 282,-96 282,-102 276,-108 270,-108"/>
<text text-anchor="middle" x="249.5" y="-87.5" font-family="sans" font-size="10.00" fill="#000000">mfuzz_tfs</text>
</g>
<!-- 1 -->
<g id="node2" class="node">
<title>1</title>
<path fill="none" stroke="#56b1d8" stroke-width="2" d="M379.5,-36C379.5,-36 347.5,-36 347.5,-36 341.5,-36 335.5,-30 335.5,-24 335.5,-24 335.5,-12 335.5,-12 335.5,-6 341.5,0 347.5,0 347.5,0 379.5,0 379.5,0 385.5,0 391.5,-6 391.5,-12 391.5,-12 391.5,-24 391.5,-24 391.5,-30 385.5,-36 379.5,-36"/>
<text text-anchor="middle" x="363.5" y="-15.5" font-family="sans" font-size="10.00" fill="#000000">cali_pca</text>
</g>
<!-- 0&#45;&gt;1 -->
<g id="edge3" class="edge">
<title>0&#45;&gt;1</title>
<path fill="none" stroke="#c0c0c0" stroke-width="2" d="M278.267,-71.8314C292.8236,-62.6377 310.6667,-51.3684 326.2587,-41.5208"/>
<polygon fill="#c0c0c0" stroke="#c0c0c0" stroke-width="2" points="328.5512,-44.2126 335.1371,-35.9134 324.8132,-38.2942 328.5512,-44.2126"/>
</g>
<!-- 2 -->
<g id="node3" class="node">
<title>2</title>
<path fill="none" stroke="#56d892" stroke-width="2" d="M305,-36C305,-36 186,-36 186,-36 180,-36 174,-30 174,-24 174,-24 174,-12 174,-12 174,-6 180,0 186,0 186,0 305,0 305,0 311,0 317,-6 317,-12 317,-12 317,-24 317,-24 317,-30 311,-36 305,-36"/>
<text text-anchor="middle" x="245.5" y="-15.5" font-family="sans" font-size="10.00" fill="#000000">correlate_clusters_to_mtp</text>
</g>
<!-- 0&#45;&gt;2 -->
<g id="edge5" class="edge">
<title>0&#45;&gt;2</title>
<path fill="none" stroke="#c0c0c0" stroke-width="2" d="M248.4906,-71.8314C248.0628,-64.131 247.5541,-54.9743 247.0787,-46.4166"/>
<polygon fill="#c0c0c0" stroke="#c0c0c0" stroke-width="2" points="250.5724,-46.2037 246.523,-36.4133 243.5831,-46.592 250.5724,-46.2037"/>
</g>
<!-- 3 -->
<g id="node4" class="node">
<title>3</title>
<path fill="none" stroke="#d88556" stroke-width="2" d="M584,-108C584,-108 545,-108 545,-108 539,-108 533,-102 533,-96 533,-96 533,-84 533,-84 533,-78 539,-72 545,-72 545,-72 584,-72 584,-72 590,-72 596,-78 596,-84 596,-84 596,-96 596,-96 596,-102 590,-108 584,-108"/>
<text text-anchor="middle" x="564.5" y="-87.5" font-family="sans" font-size="10.00" fill="#000000">deseq_all</text>
</g>
<!-- 4 -->
<g id="node5" class="node">
<title>4</title>
<path fill="none" stroke="#88d856" stroke-width="2" d="M489.5,-108C489.5,-108 449.5,-108 449.5,-108 443.5,-108 437.5,-102 437.5,-96 437.5,-96 437.5,-84 437.5,-84 437.5,-78 443.5,-72 449.5,-72 449.5,-72 489.5,-72 489.5,-72 495.5,-72 501.5,-78 501.5,-84 501.5,-84 501.5,-96 501.5,-96 501.5,-102 495.5,-108 489.5,-108"/>
<text text-anchor="middle" x="469.5" y="-87.5" font-family="sans" font-size="10.00" fill="#000000">deseq_tfs</text>
</g>
<!-- 5 -->
<g id="node6" class="node">
<title>5</title>
<path fill="none" stroke="#59d856" stroke-width="2" d="M777,-108C777,-108 722,-108 722,-108 716,-108 710,-102 710,-96 710,-96 710,-84 710,-84 710,-78 716,-72 722,-72 722,-72 777,-72 777,-72 783,-72 789,-78 789,-84 789,-84 789,-96 789,-96 789,-102 783,-108 777,-108"/>
<text text-anchor="middle" x="749.5" y="-87.5" font-family="sans" font-size="10.00" fill="#000000">call_variants</text>
</g>
<!-- 6 -->
<g id="node7" class="node">
<title>6</title>
<path fill="none" stroke="#5682d8" stroke-width="2" d="M537.5,-324C537.5,-324 503.5,-324 503.5,-324 497.5,-324 491.5,-318 491.5,-312 491.5,-312 491.5,-300 491.5,-300 491.5,-294 497.5,-288 503.5,-288 503.5,-288 537.5,-288 537.5,-288 543.5,-288 549.5,-294 549.5,-300 549.5,-300 549.5,-312 549.5,-312 549.5,-318 543.5,-324 537.5,-324"/>
<text text-anchor="middle" x="520.5" y="-303.5" font-family="sans" font-size="10.00" fill="#000000">rlog_pca</text>
</g>
<!-- 7 -->
<g id="node8" class="node">
<title>7</title>
<path fill="none" stroke="#d8c356" stroke-width="2" d="M274.5,-252C274.5,-252 224.5,-252 224.5,-252 218.5,-252 212.5,-246 212.5,-240 212.5,-240 212.5,-228 212.5,-228 212.5,-222 218.5,-216 224.5,-216 224.5,-216 274.5,-216 274.5,-216 280.5,-216 286.5,-222 286.5,-228 286.5,-228 286.5,-240 286.5,-240 286.5,-246 280.5,-252 274.5,-252"/>
<text text-anchor="middle" x="249.5" y="-231.5" font-family="sans" font-size="10.00" fill="#000000">format_tfdb</text>
</g>
<!-- 7&#45;&gt;0 -->
<g id="edge2" class="edge">
<title>7&#45;&gt;0</title>
<path fill="none" stroke="#c0c0c0" stroke-width="2" d="M249.5,-215.7623C249.5,-191.201 249.5,-147.2474 249.5,-118.3541"/>
<polygon fill="#c0c0c0" stroke="#c0c0c0" stroke-width="2" points="253.0001,-118.0896 249.5,-108.0896 246.0001,-118.0897 253.0001,-118.0896"/>
</g>
<!-- 8 -->
<g id="node9" class="node">
<title>8</title>
<path fill="none" stroke="#68d856" stroke-width="2" d="M371,-180C371,-180 338,-180 338,-180 332,-180 326,-174 326,-168 326,-168 326,-156 326,-156 326,-150 332,-144 338,-144 338,-144 371,-144 371,-144 377,-144 383,-150 383,-156 383,-156 383,-168 383,-168 383,-174 377,-180 371,-180"/>
<text text-anchor="middle" x="354.5" y="-159.5" font-family="sans" font-size="10.00" fill="#000000">filter_tfs</text>
</g>
<!-- 7&#45;&gt;8 -->
<g id="edge12" class="edge">
<title>7&#45;&gt;8</title>
<path fill="none" stroke="#c0c0c0" stroke-width="2" d="M275.9959,-215.8314C289.1774,-206.7927 305.2847,-195.7476 319.4711,-186.0198"/>
<polygon fill="#c0c0c0" stroke="#c0c0c0" stroke-width="2" points="321.7446,-188.7047 328.0125,-180.1628 317.7859,-182.9316 321.7446,-188.7047"/>
</g>
<!-- 8&#45;&gt;0 -->
<g id="edge1" class="edge">
<title>8&#45;&gt;0</title>
<path fill="none" stroke="#c0c0c0" stroke-width="2" d="M328.0041,-143.8314C314.8226,-134.7927 298.7153,-123.7476 284.5289,-114.0198"/>
<polygon fill="#c0c0c0" stroke="#c0c0c0" stroke-width="2" points="286.2141,-110.9316 275.9875,-108.1628 282.2554,-116.7047 286.2141,-110.9316"/>
</g>
<!-- 8&#45;&gt;4 -->
<g id="edge8" class="edge">
<title>8&#45;&gt;4</title>
<path fill="none" stroke="#c0c0c0" stroke-width="2" d="M383.2227,-144.0171C398.0418,-134.7391 416.2967,-123.3099 432.1931,-113.3574"/>
<polygon fill="#c0c0c0" stroke="#c0c0c0" stroke-width="2" points="434.1264,-116.2764 440.7449,-108.0032 430.4117,-110.3433 434.1264,-116.2764"/>
</g>
<!-- 9 -->
<g id="node10" class="node">
<title>9</title>
<path fill="none" stroke="#d8a456" stroke-width="2" d="M407,-108C407,-108 312,-108 312,-108 306,-108 300,-102 300,-96 300,-96 300,-84 300,-84 300,-78 306,-72 312,-72 312,-72 407,-72 407,-72 413,-72 419,-78 419,-84 419,-84 419,-96 419,-96 419,-102 413,-108 407,-108"/>
<text text-anchor="middle" x="359.5" y="-87.5" font-family="sans" font-size="10.00" fill="#000000">tidy_phenotype_data</text>
</g>
<!-- 9&#45;&gt;1 -->
<g id="edge4" class="edge">
<title>9&#45;&gt;1</title>
<path fill="none" stroke="#c0c0c0" stroke-width="2" d="M360.5094,-71.8314C360.9372,-64.131 361.4459,-54.9743 361.9213,-46.4166"/>
<polygon fill="#c0c0c0" stroke="#c0c0c0" stroke-width="2" points="365.4169,-46.592 362.477,-36.4133 358.4276,-46.2037 365.4169,-46.592"/>
</g>
<!-- 9&#45;&gt;2 -->
<g id="edge6" class="edge">
<title>9&#45;&gt;2</title>
<path fill="none" stroke="#c0c0c0" stroke-width="2" d="M330.733,-71.8314C316.2867,-62.7074 298.6035,-51.539 283.096,-41.7449"/>
<polygon fill="#c0c0c0" stroke="#c0c0c0" stroke-width="2" points="284.5817,-38.5436 274.2578,-36.1628 280.8437,-44.462 284.5817,-38.5436"/>
</g>
<!-- 10 -->
<g id="node11" class="node">
<title>10</title>
<path fill="none" stroke="#5663d8" stroke-width="2" d="M607,-180C607,-180 522,-180 522,-180 516,-180 510,-174 510,-168 510,-168 510,-156 510,-156 510,-150 516,-144 522,-144 522,-144 607,-144 607,-144 613,-144 619,-150 619,-156 619,-156 619,-168 619,-168 619,-174 613,-180 607,-180"/>
<text text-anchor="middle" x="564.5" y="-159.5" font-family="sans" font-size="10.00" fill="#000000">filter_deseq_object</text>
</g>
<!-- 10&#45;&gt;3 -->
<g id="edge7" class="edge">
<title>10&#45;&gt;3</title>
<path fill="none" stroke="#c0c0c0" stroke-width="2" d="M564.5,-143.8314C564.5,-136.131 564.5,-126.9743 564.5,-118.4166"/>
<polygon fill="#c0c0c0" stroke="#c0c0c0" stroke-width="2" points="568.0001,-118.4132 564.5,-108.4133 561.0001,-118.4133 568.0001,-118.4132"/>
</g>
<!-- 11 -->
<g id="node12" class="node">
<title>11</title>
<path fill="none" stroke="#afd856" stroke-width="2" d="M765.5,-180C765.5,-180 733.5,-180 733.5,-180 727.5,-180 721.5,-174 721.5,-168 721.5,-168 721.5,-156 721.5,-156 721.5,-150 727.5,-144 733.5,-144 733.5,-144 765.5,-144 765.5,-144 771.5,-144 777.5,-150 777.5,-156 777.5,-156 777.5,-168 777.5,-168 777.5,-174 771.5,-180 765.5,-180"/>
<text text-anchor="middle" x="749.5" y="-159.5" font-family="sans" font-size="10.00" fill="#000000">mpileup</text>
</g>
<!-- 11&#45;&gt;5 -->
<g id="edge9" class="edge">
<title>11&#45;&gt;5</title>
<path fill="none" stroke="#c0c0c0" stroke-width="2" d="M749.5,-143.8314C749.5,-136.131 749.5,-126.9743 749.5,-118.4166"/>
<polygon fill="#c0c0c0" stroke="#c0c0c0" stroke-width="2" points="753.0001,-118.4132 749.5,-108.4133 746.0001,-118.4133 753.0001,-118.4132"/>
</g>
<!-- 12 -->
<g id="node13" class="node">
<title>12</title>
<path fill="none" stroke="#d86656" stroke-width="2" d="M516.5,-396C516.5,-396 410.5,-396 410.5,-396 404.5,-396 398.5,-390 398.5,-384 398.5,-384 398.5,-372 398.5,-372 398.5,-366 404.5,-360 410.5,-360 410.5,-360 516.5,-360 516.5,-360 522.5,-360 528.5,-366 528.5,-372 528.5,-372 528.5,-384 528.5,-384 528.5,-390 522.5,-396 516.5,-396"/>
<text text-anchor="middle" x="463.5" y="-375.5" font-family="sans" font-size="10.00" fill="#000000">generate_deseq_object</text>
</g>
<!-- 12&#45;&gt;6 -->
<g id="edge10" class="edge">
<title>12&#45;&gt;6</title>
<path fill="none" stroke="#c0c0c0" stroke-width="2" d="M477.8835,-359.8314C484.4486,-351.5386 492.3507,-341.557 499.5578,-332.4533"/>
<polygon fill="#c0c0c0" stroke="#c0c0c0" stroke-width="2" points="502.4599,-334.4262 505.9228,-324.4133 496.9716,-330.0813 502.4599,-334.4262"/>
</g>
<!-- 12&#45;&gt;8 -->
<g id="edge11" class="edge">
<title>12&#45;&gt;8</title>
<path fill="none" stroke="#c0c0c0" stroke-width="2" d="M460.8794,-359.704C455.7234,-328.2707 442.0883,-262.8763 412.5,-216 405.7302,-205.2746 396.3148,-195.2713 387.0371,-186.8607"/>
<polygon fill="#c0c0c0" stroke="#c0c0c0" stroke-width="2" points="389.1871,-184.0926 379.3373,-180.1896 384.6034,-189.3831 389.1871,-184.0926"/>
</g>
<!-- 12&#45;&gt;10 -->
<g id="edge14" class="edge">
<title>12&#45;&gt;10</title>
<path fill="none" stroke="#c0c0c0" stroke-width="2" d="M516.3705,-359.8446C532.6716,-351.5325 548.8541,-339.8939 558.5,-324 583.5102,-282.7896 577.7393,-224.2048 571.1807,-189.9427"/>
<polygon fill="#c0c0c0" stroke="#c0c0c0" stroke-width="2" points="574.6056,-189.2209 569.1532,-180.1367 567.7505,-190.6383 574.6056,-189.2209"/>
</g>
<!-- 13 -->
<g id="node14" class="node">
<title>13</title>
<path fill="none" stroke="#bed856" stroke-width="2" d="M392,-252C392,-252 317,-252 317,-252 311,-252 305,-246 305,-240 305,-240 305,-228 305,-228 305,-222 311,-216 317,-216 317,-216 392,-216 392,-216 398,-216 404,-222 404,-228 404,-228 404,-240 404,-240 404,-246 398,-252 392,-252"/>
<text text-anchor="middle" x="354.5" y="-231.5" font-family="sans" font-size="10.00" fill="#000000">calculate_cutoffs</text>
</g>
<!-- 12&#45;&gt;13 -->
<g id="edge19" class="edge">
<title>12&#45;&gt;13</title>
<path fill="none" stroke="#c0c0c0" stroke-width="2" d="M453.3736,-359.6931C442.6915,-340.9806 424.8871,-311.422 406.5,-288 398.7923,-278.1818 389.5615,-268.1411 381.0306,-259.4226"/>
<polygon fill="#c0c0c0" stroke="#c0c0c0" stroke-width="2" points="383.3089,-256.7506 373.7698,-252.1402 378.3518,-261.693 383.3089,-256.7506"/>
</g>
<!-- 20 -->
<g id="node21" class="node">
<title>20</title>
<path fill="none" stroke="#9fd856" stroke-width="2" d="M385.5,-324C385.5,-324 323.5,-324 323.5,-324 317.5,-324 311.5,-318 311.5,-312 311.5,-312 311.5,-300 311.5,-300 311.5,-294 317.5,-288 323.5,-288 323.5,-288 385.5,-288 385.5,-288 391.5,-288 397.5,-294 397.5,-300 397.5,-300 397.5,-312 397.5,-312 397.5,-318 391.5,-324 385.5,-324"/>
<text text-anchor="middle" x="354.5" y="-303.5" font-family="sans" font-size="10.00" fill="#000000">calculate_tpm</text>
</g>
<!-- 12&#45;&gt;20 -->
<g id="edge35" class="edge">
<title>12&#45;&gt;20</title>
<path fill="none" stroke="#c0c0c0" stroke-width="2" d="M435.9947,-359.8314C422.182,-350.7074 405.2744,-339.539 390.4471,-329.7449"/>
<polygon fill="#c0c0c0" stroke="#c0c0c0" stroke-width="2" points="392.2696,-326.7541 381.9965,-324.1628 388.4114,-332.5949 392.2696,-326.7541"/>
</g>
<!-- 13&#45;&gt;8 -->
<g id="edge13" class="edge">
<title>13&#45;&gt;8</title>
<path fill="none" stroke="#c0c0c0" stroke-width="2" d="M354.5,-215.8314C354.5,-208.131 354.5,-198.9743 354.5,-190.4166"/>
<polygon fill="#c0c0c0" stroke="#c0c0c0" stroke-width="2" points="358.0001,-190.4132 354.5,-180.4133 351.0001,-190.4133 358.0001,-190.4132"/>
</g>
<!-- 13&#45;&gt;10 -->
<g id="edge15" class="edge">
<title>13&#45;&gt;10</title>
<path fill="none" stroke="#c0c0c0" stroke-width="2" d="M404.0011,-217.0282C433.3423,-206.9684 470.7973,-194.1266 502.1438,-183.3793"/>
<polygon fill="#c0c0c0" stroke="#c0c0c0" stroke-width="2" points="503.3358,-186.6707 511.6601,-180.1165 501.0655,-180.049 503.3358,-186.6707"/>
</g>
<!-- 14 -->
<g id="node15" class="node">
<title>14</title>
<path fill="none" stroke="#56d882" stroke-width="2" d="M736.5,-252C736.5,-252 664.5,-252 664.5,-252 658.5,-252 652.5,-246 652.5,-240 652.5,-240 652.5,-228 652.5,-228 652.5,-222 658.5,-216 664.5,-216 664.5,-216 736.5,-216 736.5,-216 742.5,-216 748.5,-222 748.5,-228 748.5,-228 748.5,-240 748.5,-240 748.5,-246 742.5,-252 736.5,-252"/>
<text text-anchor="middle" x="700.5" y="-231.5" font-family="sans" font-size="10.00" fill="#000000">subset_bamfiles</text>
</g>
<!-- 14&#45;&gt;11 -->
<g id="edge16" class="edge">
<title>14&#45;&gt;11</title>
<path fill="none" stroke="#c0c0c0" stroke-width="2" d="M712.8648,-215.8314C718.4509,-207.6232 725.163,-197.7606 731.3072,-188.7323"/>
<polygon fill="#c0c0c0" stroke="#c0c0c0" stroke-width="2" points="734.236,-190.6496 736.9687,-180.4133 728.449,-186.7112 734.236,-190.6496"/>
</g>
<!-- 15 -->
<g id="node16" class="node">
<title>15</title>
<path fill="none" stroke="#56d0d8" stroke-width="2" d="M854,-324C854,-324 765,-324 765,-324 759,-324 753,-318 753,-312 753,-312 753,-300 753,-300 753,-294 759,-288 765,-288 765,-288 854,-288 854,-288 860,-288 866,-294 866,-300 866,-300 866,-312 866,-312 866,-318 860,-324 854,-324"/>
<text text-anchor="middle" x="809.5" y="-303.5" font-family="sans" font-size="10.00" fill="#000000">extract_goi_regions</text>
</g>
<!-- 15&#45;&gt;11 -->
<g id="edge17" class="edge">
<title>15&#45;&gt;11</title>
<path fill="none" stroke="#c0c0c0" stroke-width="2" d="M801.901,-287.7623C791.5769,-262.9846 773.0297,-218.4714 760.9975,-189.5939"/>
<polygon fill="#c0c0c0" stroke="#c0c0c0" stroke-width="2" points="764.1143,-187.9742 757.0373,-180.0896 757.6528,-190.6666 764.1143,-187.9742"/>
</g>
<!-- 15&#45;&gt;14 -->
<g id="edge25" class="edge">
<title>15&#45;&gt;14</title>
<path fill="none" stroke="#c0c0c0" stroke-width="2" d="M781.9947,-287.8314C768.182,-278.7074 751.2744,-267.539 736.4471,-257.7449"/>
<polygon fill="#c0c0c0" stroke="#c0c0c0" stroke-width="2" points="738.2696,-254.7541 727.9965,-252.1628 734.4114,-260.5949 738.2696,-254.7541"/>
</g>
<!-- 16 -->
<g id="node17" class="node">
<title>16</title>
<path fill="none" stroke="#56d8c1" stroke-width="2" d="M377,-468C377,-468 302,-468 302,-468 296,-468 290,-462 290,-456 290,-456 290,-444 290,-444 290,-438 296,-432 302,-432 302,-432 377,-432 377,-432 383,-432 389,-438 389,-444 389,-444 389,-456 389,-456 389,-462 383,-468 377,-468"/>
<text text-anchor="middle" x="339.5" y="-447.5" font-family="sans" font-size="10.00" fill="#000000">second_mapping</text>
</g>
<!-- 16&#45;&gt;12 -->
<g id="edge18" class="edge">
<title>16&#45;&gt;12</title>
<path fill="none" stroke="#c0c0c0" stroke-width="2" d="M370.7904,-431.8314C386.7977,-422.5368 406.4586,-411.1208 423.5494,-401.1971"/>
<polygon fill="#c0c0c0" stroke="#c0c0c0" stroke-width="2" points="425.3292,-404.211 432.2196,-396.1628 421.8142,-398.1575 425.3292,-404.211"/>
</g>
<!-- 18 -->
<g id="node19" class="node">
<title>18</title>
<path fill="none" stroke="#56d8b1" stroke-width="2" d="M368,-396C368,-396 299,-396 299,-396 293,-396 287,-390 287,-384 287,-384 287,-372 287,-372 287,-366 293,-360 299,-360 299,-360 368,-360 368,-360 374,-360 380,-366 380,-372 380,-372 380,-384 380,-384 380,-390 374,-396 368,-396"/>
<text text-anchor="middle" x="333.5" y="-375.5" font-family="sans" font-size="10.00" fill="#000000">parse_star_logs</text>
</g>
<!-- 16&#45;&gt;18 -->
<g id="edge31" class="edge">
<title>16&#45;&gt;18</title>
<path fill="none" stroke="#c0c0c0" stroke-width="2" d="M337.9859,-431.8314C337.3442,-424.131 336.5812,-414.9743 335.8681,-406.4166"/>
<polygon fill="#c0c0c0" stroke="#c0c0c0" stroke-width="2" points="339.3529,-406.088 335.0344,-396.4133 332.3771,-406.6694 339.3529,-406.088"/>
</g>
<!-- 22 -->
<g id="node23" class="node">
<title>22</title>
<path fill="none" stroke="#5673d8" stroke-width="2" d="M645,-396C645,-396 586,-396 586,-396 580,-396 574,-390 574,-384 574,-384 574,-372 574,-372 574,-366 580,-360 586,-360 586,-360 645,-360 645,-360 651,-360 657,-366 657,-372 657,-372 657,-384 657,-384 657,-390 651,-396 645,-396"/>
<text text-anchor="middle" x="615.5" y="-375.5" font-family="sans" font-size="10.00" fill="#000000">sort_bamfiles</text>
</g>
<!-- 16&#45;&gt;22 -->
<g id="edge37" class="edge">
<title>16&#45;&gt;22</title>
<path fill="none" stroke="#c0c0c0" stroke-width="2" d="M389.162,-437.0447C438.5288,-424.1664 513.915,-404.5004 563.9369,-391.4512"/>
<polygon fill="#c0c0c0" stroke="#c0c0c0" stroke-width="2" points="565.1049,-394.7638 573.8975,-388.8528 563.3379,-387.9904 565.1049,-394.7638"/>
</g>
<!-- 26 -->
<g id="node27" class="node">
<title>26</title>
<path fill="none" stroke="#d85656" stroke-width="2" d="M255.5,-396C255.5,-396 173.5,-396 173.5,-396 167.5,-396 161.5,-390 161.5,-384 161.5,-384 161.5,-372 161.5,-372 161.5,-366 167.5,-360 173.5,-360 173.5,-360 255.5,-360 255.5,-360 261.5,-360 267.5,-366 267.5,-372 267.5,-372 267.5,-384 267.5,-384 267.5,-390 261.5,-396 255.5,-396"/>
<text text-anchor="middle" x="214.5" y="-375.5" font-family="sans" font-size="10.00" fill="#000000">count_background</text>
</g>
<!-- 16&#45;&gt;26 -->
<g id="edge42" class="edge">
<title>16&#45;&gt;26</title>
<path fill="none" stroke="#c0c0c0" stroke-width="2" d="M307.9572,-431.8314C291.8209,-422.5368 272.0014,-411.1208 254.7728,-401.1971"/>
<polygon fill="#c0c0c0" stroke="#c0c0c0" stroke-width="2" points="256.445,-398.1212 246.0327,-396.1628 252.9511,-404.187 256.445,-398.1212"/>
</g>
<!-- 17 -->
<g id="node18" class="node">
<title>17</title>
<path fill="none" stroke="#d87556" stroke-width="2" d="M243.5,-324C243.5,-324 109.5,-324 109.5,-324 103.5,-324 97.5,-318 97.5,-312 97.5,-312 97.5,-300 97.5,-300 97.5,-294 103.5,-288 109.5,-288 109.5,-288 243.5,-288 243.5,-288 249.5,-288 255.5,-294 255.5,-300 255.5,-300 255.5,-312 255.5,-312 255.5,-318 249.5,-324 243.5,-324"/>
<text text-anchor="middle" x="176.5" y="-303.5" font-family="sans" font-size="10.00" fill="#000000">combine_background_counts</text>
</g>
<!-- 17&#45;&gt;13 -->
<g id="edge21" class="edge">
<title>17&#45;&gt;13</title>
<path fill="none" stroke="#c0c0c0" stroke-width="2" d="M221.4169,-287.8314C245.435,-278.1162 275.1834,-266.0831 300.4592,-255.8592"/>
<polygon fill="#c0c0c0" stroke="#c0c0c0" stroke-width="2" points="301.9482,-259.0325 309.9061,-252.038 299.3233,-252.5432 301.9482,-259.0325"/>
</g>
<!-- 18&#45;&gt;13 -->
<g id="edge22" class="edge">
<title>18&#45;&gt;13</title>
<path fill="none" stroke="#c0c0c0" stroke-width="2" d="M319.52,-359.8691C307.1935,-341.5486 292.6122,-312.5231 302.5,-288 306.8225,-277.2796 314.4044,-267.4983 322.4639,-259.2948"/>
<polygon fill="#c0c0c0" stroke="#c0c0c0" stroke-width="2" points="325.073,-261.644 329.9199,-252.2228 320.2558,-256.5652 325.073,-261.644"/>
</g>
<!-- 18&#45;&gt;20 -->
<g id="edge33" class="edge">
<title>18&#45;&gt;20</title>
<path fill="none" stroke="#c0c0c0" stroke-width="2" d="M338.7992,-359.8314C341.0698,-352.0463 343.7746,-342.7729 346.294,-334.1347"/>
<polygon fill="#c0c0c0" stroke="#c0c0c0" stroke-width="2" points="349.6894,-334.9933 349.1295,-324.4133 342.9694,-333.0332 349.6894,-334.9933"/>
</g>
<!-- 19 -->
<g id="node20" class="node">
<title>19</title>
<path fill="none" stroke="#56d863" stroke-width="2" d="M131,-396C131,-396 12,-396 12,-396 6,-396 0,-390 0,-384 0,-384 0,-372 0,-372 0,-366 6,-360 12,-360 12,-360 131,-360 131,-360 137,-360 143,-366 143,-372 143,-372 143,-384 143,-384 143,-390 137,-396 131,-396"/>
<text text-anchor="middle" x="71.5" y="-375.5" font-family="sans" font-size="10.00" fill="#000000">calculate_feature_lengths</text>
</g>
<!-- 19&#45;&gt;13 -->
<g id="edge23" class="edge">
<title>19&#45;&gt;13</title>
<path fill="none" stroke="#c0c0c0" stroke-width="2" d="M69.3777,-359.689C68.1152,-339.2608 69.587,-306.6407 88.5,-288 152.799,-224.6266 201.351,-270.3938 294.9231,-251.8092"/>
<polygon fill="#c0c0c0" stroke="#c0c0c0" stroke-width="2" points="295.7074,-255.2205 304.7256,-249.6597 294.208,-248.3829 295.7074,-255.2205"/>
</g>
<!-- 19&#45;&gt;20 -->
<g id="edge34" class="edge">
<title>19&#45;&gt;20</title>
<path fill="none" stroke="#c0c0c0" stroke-width="2" d="M142.5476,-359.9243C191.8663,-347.3768 256.5154,-330.929 301.3865,-319.513"/>
<polygon fill="#c0c0c0" stroke="#c0c0c0" stroke-width="2" points="302.3845,-322.8707 311.2127,-317.013 300.6585,-316.0868 302.3845,-322.8707"/>
</g>
<!-- 20&#45;&gt;13 -->
<g id="edge20" class="edge">
<title>20&#45;&gt;13</title>
<path fill="none" stroke="#c0c0c0" stroke-width="2" d="M354.5,-287.8314C354.5,-280.131 354.5,-270.9743 354.5,-262.4166"/>
<polygon fill="#c0c0c0" stroke="#c0c0c0" stroke-width="2" points="358.0001,-262.4132 354.5,-252.4133 351.0001,-262.4133 358.0001,-262.4132"/>
</g>
<!-- 21 -->
<g id="node22" class="node">
<title>21</title>
<path fill="none" stroke="#78d856" stroke-width="2" d="M723,-324C723,-324 656,-324 656,-324 650,-324 644,-318 644,-312 644,-312 644,-300 644,-300 644,-294 650,-288 656,-288 656,-288 723,-288 723,-288 729,-288 735,-294 735,-300 735,-300 735,-312 735,-312 735,-318 729,-324 723,-324"/>
<text text-anchor="middle" x="689.5" y="-303.5" font-family="sans" font-size="10.00" fill="#000000">index_bamfiles</text>
</g>
<!-- 21&#45;&gt;14 -->
<g id="edge24" class="edge">
<title>21&#45;&gt;14</title>
<path fill="none" stroke="#c0c0c0" stroke-width="2" d="M692.2758,-287.8314C693.4522,-280.131 694.8511,-270.9743 696.1586,-262.4166"/>
<polygon fill="#c0c0c0" stroke="#c0c0c0" stroke-width="2" points="699.6364,-262.8272 697.6869,-252.4133 692.7167,-261.7699 699.6364,-262.8272"/>
</g>
<!-- 22&#45;&gt;14 -->
<g id="edge26" class="edge">
<title>22&#45;&gt;14</title>
<path fill="none" stroke="#c0c0c0" stroke-width="2" d="M615.8441,-359.8015C616.9674,-340.6442 620.9708,-310.238 634.5,-288 641.4218,-276.6227 651.6281,-266.5736 661.956,-258.3241"/>
<polygon fill="#c0c0c0" stroke="#c0c0c0" stroke-width="2" points="664.3282,-260.9189 670.2045,-252.103 660.1131,-255.3302 664.3282,-260.9189"/>
</g>
<!-- 22&#45;&gt;21 -->
<g id="edge36" class="edge">
<title>22&#45;&gt;21</title>
<path fill="none" stroke="#c0c0c0" stroke-width="2" d="M634.1733,-359.8314C643.0249,-351.219 653.7486,-340.7851 663.3895,-331.4048"/>
<polygon fill="#c0c0c0" stroke="#c0c0c0" stroke-width="2" points="666.1061,-333.645 670.8326,-324.1628 661.2246,-328.6279 666.1061,-333.645"/>
</g>
<!-- 23 -->
<g id="node24" class="node">
<title>23</title>
<path fill="none" stroke="#56a2d8" stroke-width="2" d="M369,-540C369,-540 310,-540 310,-540 304,-540 298,-534 298,-528 298,-528 298,-516 298,-516 298,-510 304,-504 310,-504 310,-504 369,-504 369,-504 375,-504 381,-510 381,-516 381,-516 381,-528 381,-528 381,-534 375,-540 369,-540"/>
<text text-anchor="middle" x="339.5" y="-519.5" font-family="sans" font-size="10.00" fill="#000000">first_mapping</text>
</g>
<!-- 23&#45;&gt;16 -->
<g id="edge28" class="edge">
<title>23&#45;&gt;16</title>
<path fill="none" stroke="#c0c0c0" stroke-width="2" d="M339.5,-503.8314C339.5,-496.131 339.5,-486.9743 339.5,-478.4166"/>
<polygon fill="#c0c0c0" stroke="#c0c0c0" stroke-width="2" points="343.0001,-478.4132 339.5,-468.4133 336.0001,-478.4133 343.0001,-478.4132"/>
</g>
<!-- 24 -->
<g id="node25" class="node">
<title>24</title>
<path fill="none" stroke="#56d8d0" stroke-width="2" d="M403.5,-612C403.5,-612 373.5,-612 373.5,-612 367.5,-612 361.5,-606 361.5,-600 361.5,-600 361.5,-588 361.5,-588 361.5,-582 367.5,-576 373.5,-576 373.5,-576 403.5,-576 403.5,-576 409.5,-576 415.5,-582 415.5,-588 415.5,-588 415.5,-600 415.5,-600 415.5,-606 409.5,-612 403.5,-612"/>
<text text-anchor="middle" x="388.5" y="-591.5" font-family="sans" font-size="10.00" fill="#000000">gzip</text>
</g>
<!-- 24&#45;&gt;16 -->
<g id="edge29" class="edge">
<title>24&#45;&gt;16</title>
<path fill="none" stroke="#c0c0c0" stroke-width="2" d="M392.603,-575.6938C395.917,-556.9817 398.679,-527.4235 389.5,-504 385.3242,-493.3439 377.9487,-483.5335 370.1241,-475.2816"/>
<polygon fill="#c0c0c0" stroke="#c0c0c0" stroke-width="2" points="372.4729,-472.6825 362.8909,-468.162 367.5625,-477.6713 372.4729,-472.6825"/>
</g>
<!-- 24&#45;&gt;23 -->
<g id="edge39" class="edge">
<title>24&#45;&gt;23</title>
<path fill="none" stroke="#c0c0c0" stroke-width="2" d="M376.1352,-575.8314C370.5491,-567.6232 363.837,-557.7606 357.6928,-548.7323"/>
<polygon fill="#c0c0c0" stroke="#c0c0c0" stroke-width="2" points="360.551,-546.7112 352.0313,-540.4133 354.764,-550.6496 360.551,-546.7112"/>
</g>
<!-- 25 -->
<g id="node26" class="node">
<title>25</title>
<path fill="none" stroke="#97d856" stroke-width="2" d="M310,-612C310,-612 229,-612 229,-612 223,-612 217,-606 217,-600 217,-600 217,-588 217,-588 217,-582 223,-576 229,-576 229,-576 310,-576 310,-576 316,-576 322,-582 322,-588 322,-588 322,-600 322,-600 322,-606 316,-612 310,-612"/>
<text text-anchor="middle" x="269.5" y="-591.5" font-family="sans" font-size="10.00" fill="#000000">generate_genome</text>
</g>
<!-- 25&#45;&gt;16 -->
<g id="edge27" class="edge">
<title>25&#45;&gt;16</title>
<path fill="none" stroke="#c0c0c0" stroke-width="2" d="M270.4491,-575.7777C272.0771,-556.8708 276.4975,-526.9176 288.5,-504 293.9508,-493.5922 301.9815,-483.7529 310.0654,-475.3956"/>
<polygon fill="#c0c0c0" stroke="#c0c0c0" stroke-width="2" points="312.748,-477.6667 317.4318,-468.1634 307.844,-472.6717 312.748,-477.6667"/>
</g>
<!-- 25&#45;&gt;23 -->
<g id="edge38" class="edge">
<title>25&#45;&gt;23</title>
<path fill="none" stroke="#c0c0c0" stroke-width="2" d="M287.164,-575.8314C295.4732,-567.2848 305.5264,-556.9443 314.5918,-547.6198"/>
<polygon fill="#c0c0c0" stroke="#c0c0c0" stroke-width="2" points="317.1369,-550.023 321.5982,-540.4133 312.1179,-545.1435 317.1369,-550.023"/>
</g>
<!-- 29 -->
<g id="node30" class="node">
<title>29</title>
<path fill="none" stroke="#56d8a2" stroke-width="2" d="M229.5,-540C229.5,-540 185.5,-540 185.5,-540 179.5,-540 173.5,-534 173.5,-528 173.5,-528 173.5,-516 173.5,-516 173.5,-510 179.5,-504 185.5,-504 185.5,-504 229.5,-504 229.5,-504 235.5,-504 241.5,-510 241.5,-516 241.5,-516 241.5,-528 241.5,-528 241.5,-534 235.5,-540 229.5,-540"/>
<text text-anchor="middle" x="207.5" y="-519.5" font-family="sans" font-size="10.00" fill="#000000">shuffle_gtf</text>
</g>
<!-- 25&#45;&gt;29 -->
<g id="edge45" class="edge">
<title>25&#45;&gt;29</title>
<path fill="none" stroke="#c0c0c0" stroke-width="2" d="M253.8548,-575.8314C246.6409,-567.454 237.943,-557.3531 230.0395,-548.1749"/>
<polygon fill="#c0c0c0" stroke="#c0c0c0" stroke-width="2" points="232.5333,-545.7071 223.3559,-540.4133 227.2289,-550.2748 232.5333,-545.7071"/>
</g>
<!-- 26&#45;&gt;17 -->
<g id="edge30" class="edge">
<title>26&#45;&gt;17</title>
<path fill="none" stroke="#c0c0c0" stroke-width="2" d="M204.911,-359.8314C200.6683,-351.7925 195.5879,-342.1666 190.904,-333.2918"/>
<polygon fill="#c0c0c0" stroke="#c0c0c0" stroke-width="2" points="193.9811,-331.6235 186.2181,-324.4133 187.7904,-334.8908 193.9811,-331.6235"/>
</g>
<!-- 27 -->
<g id="node28" class="node">
<title>27</title>
<path fill="none" stroke="#56d873" stroke-width="2" d="M216,-684C216,-684 161,-684 161,-684 155,-684 149,-678 149,-672 149,-672 149,-660 149,-660 149,-654 155,-648 161,-648 161,-648 216,-648 216,-648 222,-648 228,-654 228,-660 228,-660 228,-672 228,-672 228,-678 222,-684 216,-684"/>
<text text-anchor="middle" x="188.5" y="-663.5" font-family="sans" font-size="10.00" fill="#000000">generate_gtf</text>
</g>
<!-- 27&#45;&gt;19 -->
<g id="edge32" class="edge">
<title>27&#45;&gt;19</title>
<path fill="none" stroke="#c0c0c0" stroke-width="2" d="M181.1811,-647.9843C161.3186,-599.0919 106.3069,-463.6785 82.6028,-405.33"/>
<polygon fill="#c0c0c0" stroke="#c0c0c0" stroke-width="2" points="85.8226,-403.9562 78.8161,-396.0089 79.3373,-406.5909 85.8226,-403.9562"/>
</g>
<!-- 27&#45;&gt;25 -->
<g id="edge41" class="edge">
<title>27&#45;&gt;25</title>
<path fill="none" stroke="#c0c0c0" stroke-width="2" d="M208.9397,-647.8314C218.8205,-639.0485 230.8324,-628.3712 241.545,-618.8489"/>
<polygon fill="#c0c0c0" stroke="#c0c0c0" stroke-width="2" points="243.918,-621.4224 249.0668,-612.1628 239.2674,-616.1906 243.918,-621.4224"/>
</g>
<!-- 27&#45;&gt;29 -->
<g id="edge46" class="edge">
<title>27&#45;&gt;29</title>
<path fill="none" stroke="#c0c0c0" stroke-width="2" d="M190.9064,-647.7623C194.1471,-623.201 199.9465,-579.2474 203.7588,-550.3541"/>
<polygon fill="#c0c0c0" stroke="#c0c0c0" stroke-width="2" points="207.2749,-550.4616 205.1132,-540.0896 200.3351,-549.5458 207.2749,-550.4616"/>
</g>
<!-- 28 -->
<g id="node29" class="node">
<title>28</title>
<path fill="none" stroke="#d8b456" stroke-width="2" d="M406,-684C406,-684 371,-684 371,-684 365,-684 359,-678 359,-672 359,-672 359,-660 359,-660 359,-654 365,-648 371,-648 371,-648 406,-648 406,-648 412,-648 418,-654 418,-660 418,-660 418,-672 418,-672 418,-678 412,-684 406,-684"/>
<text text-anchor="middle" x="388.5" y="-663.5" font-family="sans" font-size="10.00" fill="#000000">cutadapt</text>
</g>
<!-- 28&#45;&gt;24 -->
<g id="edge40" class="edge">
<title>28&#45;&gt;24</title>
<path fill="none" stroke="#c0c0c0" stroke-width="2" d="M388.5,-647.8314C388.5,-640.131 388.5,-630.9743 388.5,-622.4166"/>
<polygon fill="#c0c0c0" stroke="#c0c0c0" stroke-width="2" points="392.0001,-622.4132 388.5,-612.4133 385.0001,-622.4133 392.0001,-622.4132"/>
</g>
<!-- 29&#45;&gt;26 -->
<g id="edge43" class="edge">
<title>29&#45;&gt;26</title>
<path fill="none" stroke="#c0c0c0" stroke-width="2" d="M208.3866,-503.7623C209.5805,-479.201 211.7171,-435.2474 213.1217,-406.3541"/>
<polygon fill="#c0c0c0" stroke="#c0c0c0" stroke-width="2" points="216.6309,-406.2478 213.6206,-396.0896 209.6391,-405.9079 216.6309,-406.2478"/>
</g>
<!-- 30 -->
<g id="node31" class="node">
<title>30</title>
<path fill="none" stroke="#d8d356" stroke-width="2" d="M403.5,-756C403.5,-756 373.5,-756 373.5,-756 367.5,-756 361.5,-750 361.5,-744 361.5,-744 361.5,-732 361.5,-732 361.5,-726 367.5,-720 373.5,-720 373.5,-720 403.5,-720 403.5,-720 409.5,-720 415.5,-726 415.5,-732 415.5,-732 415.5,-744 415.5,-744 415.5,-750 409.5,-756 403.5,-756"/>
<text text-anchor="middle" x="388.5" y="-735.5" font-family="sans" font-size="10.00" fill="#000000">repair</text>
</g>
<!-- 30&#45;&gt;28 -->
<g id="edge44" class="edge">
<title>30&#45;&gt;28</title>
<path fill="none" stroke="#c0c0c0" stroke-width="2" d="M388.5,-719.8314C388.5,-712.131 388.5,-702.9743 388.5,-694.4166"/>
<polygon fill="#c0c0c0" stroke="#c0c0c0" stroke-width="2" points="392.0001,-694.4132 388.5,-684.4133 385.0001,-694.4133 392.0001,-694.4132"/>
</g>
</g>
</svg>
