<?xml version="1.0" encoding="UTF-8" standalone="no"?>
<!DOCTYPE svg PUBLIC "-//W3C//DTD SVG 1.1//EN"
 "http://www.w3.org/Graphics/SVG/1.1/DTD/svg11.dtd">
<!-- Generated by graphviz version 2.38.0 (20140413.2041)
 -->
<!-- Title: snakemake_dag Pages: 1 -->
<svg width="978pt" height="348pt"
 viewBox="0.00 0.00 978.00 348.00" xmlns="http://www.w3.org/2000/svg" xmlns:xlink="http://www.w3.org/1999/xlink">
<g id="graph0" class="graph" transform="scale(1 1) rotate(0) translate(4 344)">
<title>snakemake_dag</title>
<polygon fill="white" stroke="none" points="-4,4 -4,-344 974,-344 974,4 -4,4"/>
<!-- 0 -->
<g id="node1" class="node"><title>0</title>
<path fill="none" stroke="#d89556" stroke-width="2" d="M424.5,-36C424.5,-36 349.5,-36 349.5,-36 343.5,-36 337.5,-30 337.5,-24 337.5,-24 337.5,-12 337.5,-12 337.5,-6 343.5,-0 349.5,-0 349.5,-0 424.5,-0 424.5,-0 430.5,-0 436.5,-6 436.5,-12 436.5,-12 436.5,-24 436.5,-24 436.5,-30 430.5,-36 424.5,-36"/>
<text text-anchor="middle" x="387" y="-15.5" font-family="sans" font-size="10.00">second_mapping</text>
</g>
<!-- 1 -->
<g id="node2" class="node"><title>1</title>
<path fill="none" stroke="#97d856" stroke-width="2" d="M862.5,-108C862.5,-108 803.5,-108 803.5,-108 797.5,-108 791.5,-102 791.5,-96 791.5,-96 791.5,-84 791.5,-84 791.5,-78 797.5,-72 803.5,-72 803.5,-72 862.5,-72 862.5,-72 868.5,-72 874.5,-78 874.5,-84 874.5,-84 874.5,-96 874.5,-96 874.5,-102 868.5,-108 862.5,-108"/>
<text text-anchor="middle" x="833" y="-87.5" font-family="sans" font-size="10.00">first_mapping</text>
</g>
<!-- 1&#45;&gt;0 -->
<g id="edge1" class="edge"><title>1&#45;&gt;0</title>
<path fill="none" stroke="grey" stroke-width="2" d="M791.437,-80.5827C776.786,-77.7186 760.185,-74.5896 745,-72 640.364,-54.1566 517.922,-36.7822 446.745,-27.0286"/>
<polygon fill="grey" stroke="grey" stroke-width="2" points="447.005,-23.5318 436.623,-25.6457 446.057,-30.4673 447.005,-23.5318"/>
</g>
<!-- 2 -->
<g id="node3" class="node"><title>2</title>
<path fill="none" stroke="#56d89a" stroke-width="2" d="M525.5,-180C525.5,-180 444.5,-180 444.5,-180 438.5,-180 432.5,-174 432.5,-168 432.5,-168 432.5,-156 432.5,-156 432.5,-150 438.5,-144 444.5,-144 444.5,-144 525.5,-144 525.5,-144 531.5,-144 537.5,-150 537.5,-156 537.5,-156 537.5,-168 537.5,-168 537.5,-174 531.5,-180 525.5,-180"/>
<text text-anchor="middle" x="485" y="-159.5" font-family="sans" font-size="10.00">generate_genome</text>
</g>
<!-- 2&#45;&gt;0 -->
<g id="edge2" class="edge"><title>2&#45;&gt;0</title>
<path fill="none" stroke="grey" stroke-width="2" d="M477.389,-143.822C468.814,-125.302 453.856,-95.3407 437,-72 429.783,-62.006 420.815,-51.9404 412.475,-43.3062"/>
<polygon fill="grey" stroke="grey" stroke-width="2" points="414.889,-40.7701 405.367,-36.1246 409.914,-45.6942 414.889,-40.7701"/>
</g>
<!-- 2&#45;&gt;1 -->
<g id="edge10" class="edge"><title>2&#45;&gt;1</title>
<path fill="none" stroke="grey" stroke-width="2" d="M537.686,-146.216C540.83,-145.438 543.953,-144.693 547,-144 634.213,-124.155 657.089,-124.483 745,-108 756.829,-105.782 769.543,-103.353 781.527,-101.042"/>
<polygon fill="grey" stroke="grey" stroke-width="2" points="782.233,-104.47 791.387,-99.1361 780.904,-97.5976 782.233,-104.47"/>
</g>
<!-- 3 -->
<g id="node4" class="node"><title>3</title>
<path fill="none" stroke="#97d856" stroke-width="2" d="M129.5,-108C129.5,-108 70.5,-108 70.5,-108 64.5,-108 58.5,-102 58.5,-96 58.5,-96 58.5,-84 58.5,-84 58.5,-78 64.5,-72 70.5,-72 70.5,-72 129.5,-72 129.5,-72 135.5,-72 141.5,-78 141.5,-84 141.5,-84 141.5,-96 141.5,-96 141.5,-102 135.5,-108 129.5,-108"/>
<text text-anchor="middle" x="100" y="-87.5" font-family="sans" font-size="10.00">first_mapping</text>
</g>
<!-- 2&#45;&gt;3 -->
<g id="edge14" class="edge"><title>2&#45;&gt;3</title>
<path fill="none" stroke="grey" stroke-width="2" d="M432.334,-146.126C429.184,-145.372 426.056,-144.656 423,-144 321.837,-122.286 295.01,-125.304 193,-108 179.589,-105.725 165.115,-103.141 151.671,-100.687"/>
<polygon fill="grey" stroke="grey" stroke-width="2" points="152.093,-97.2066 141.626,-98.8433 150.829,-104.092 152.093,-97.2066"/>
</g>
<!-- 6 -->
<g id="node7" class="node"><title>6</title>
<path fill="none" stroke="#97d856" stroke-width="2" d="M273.5,-108C273.5,-108 214.5,-108 214.5,-108 208.5,-108 202.5,-102 202.5,-96 202.5,-96 202.5,-84 202.5,-84 202.5,-78 208.5,-72 214.5,-72 214.5,-72 273.5,-72 273.5,-72 279.5,-72 285.5,-78 285.5,-84 285.5,-84 285.5,-96 285.5,-96 285.5,-102 279.5,-108 273.5,-108"/>
<text text-anchor="middle" x="244" y="-87.5" font-family="sans" font-size="10.00">first_mapping</text>
</g>
<!-- 2&#45;&gt;6 -->
<g id="edge19" class="edge"><title>2&#45;&gt;6</title>
<path fill="none" stroke="grey" stroke-width="2" d="M432.409,-145.725C391.721,-133.907 335.696,-117.634 295.33,-105.909"/>
<polygon fill="grey" stroke="grey" stroke-width="2" points="296.261,-102.535 285.681,-103.107 294.308,-109.257 296.261,-102.535"/>
</g>
<!-- 7 -->
<g id="node8" class="node"><title>7</title>
<path fill="none" stroke="#97d856" stroke-width="2" d="M416.5,-108C416.5,-108 357.5,-108 357.5,-108 351.5,-108 345.5,-102 345.5,-96 345.5,-96 345.5,-84 345.5,-84 345.5,-78 351.5,-72 357.5,-72 357.5,-72 416.5,-72 416.5,-72 422.5,-72 428.5,-78 428.5,-84 428.5,-84 428.5,-96 428.5,-96 428.5,-102 422.5,-108 416.5,-108"/>
<text text-anchor="middle" x="387" y="-87.5" font-family="sans" font-size="10.00">first_mapping</text>
</g>
<!-- 2&#45;&gt;7 -->
<g id="edge22" class="edge"><title>2&#45;&gt;7</title>
<path fill="none" stroke="grey" stroke-width="2" d="M461.027,-143.876C448.45,-134.893 432.868,-123.763 419.248,-114.034"/>
<polygon fill="grey" stroke="grey" stroke-width="2" points="421.237,-111.154 411.066,-108.19 417.169,-116.85 421.237,-111.154"/>
</g>
<!-- 8 -->
<g id="node9" class="node"><title>8</title>
<path fill="none" stroke="#97d856" stroke-width="2" d="M591.5,-108C591.5,-108 532.5,-108 532.5,-108 526.5,-108 520.5,-102 520.5,-96 520.5,-96 520.5,-84 520.5,-84 520.5,-78 526.5,-72 532.5,-72 532.5,-72 591.5,-72 591.5,-72 597.5,-72 603.5,-78 603.5,-84 603.5,-84 603.5,-96 603.5,-96 603.5,-102 597.5,-108 591.5,-108"/>
<text text-anchor="middle" x="562" y="-87.5" font-family="sans" font-size="10.00">first_mapping</text>
</g>
<!-- 2&#45;&gt;8 -->
<g id="edge25" class="edge"><title>2&#45;&gt;8</title>
<path fill="none" stroke="grey" stroke-width="2" d="M504.034,-143.697C513.545,-135.05 525.207,-124.449 535.57,-115.027"/>
<polygon fill="grey" stroke="grey" stroke-width="2" points="538.14,-117.421 543.185,-108.104 533.431,-112.241 538.14,-117.421"/>
</g>
<!-- 9 -->
<g id="node10" class="node"><title>9</title>
<path fill="none" stroke="#97d856" stroke-width="2" d="M724.5,-108C724.5,-108 665.5,-108 665.5,-108 659.5,-108 653.5,-102 653.5,-96 653.5,-96 653.5,-84 653.5,-84 653.5,-78 659.5,-72 665.5,-72 665.5,-72 724.5,-72 724.5,-72 730.5,-72 736.5,-78 736.5,-84 736.5,-84 736.5,-96 736.5,-96 736.5,-102 730.5,-108 724.5,-108"/>
<text text-anchor="middle" x="695" y="-87.5" font-family="sans" font-size="10.00">first_mapping</text>
</g>
<!-- 2&#45;&gt;9 -->
<g id="edge28" class="edge"><title>2&#45;&gt;9</title>
<path fill="none" stroke="grey" stroke-width="2" d="M536.103,-143.966C568.671,-133.11 610.729,-119.09 643.394,-108.202"/>
<polygon fill="grey" stroke="grey" stroke-width="2" points="644.829,-111.413 653.209,-104.93 642.615,-104.772 644.829,-111.413"/>
</g>
<!-- 3&#45;&gt;0 -->
<g id="edge3" class="edge"><title>3&#45;&gt;0</title>
<path fill="none" stroke="grey" stroke-width="2" d="M141.738,-76.4541C147.195,-74.9057 152.722,-73.3831 158,-72 215.188,-57.0146 280.986,-42.0168 327.335,-31.8197"/>
<polygon fill="grey" stroke="grey" stroke-width="2" points="328.194,-35.2146 337.213,-29.6544 326.695,-28.3769 328.194,-35.2146"/>
</g>
<!-- 4 -->
<g id="node5" class="node"><title>4</title>
<path fill="none" stroke="#569ad8" stroke-width="2" d="M258,-180C258,-180 228,-180 228,-180 222,-180 216,-174 216,-168 216,-168 216,-156 216,-156 216,-150 222,-144 228,-144 228,-144 258,-144 258,-144 264,-144 270,-150 270,-156 270,-156 270,-168 270,-168 270,-174 264,-180 258,-180"/>
<text text-anchor="middle" x="243" y="-165" font-family="sans" font-size="10.00">gzip</text>
<text text-anchor="middle" x="243" y="-154" font-family="sans" font-size="10.00">n: 2</text>
</g>
<!-- 4&#45;&gt;0 -->
<g id="edge4" class="edge"><title>4&#45;&gt;0</title>
<path fill="none" stroke="grey" stroke-width="2" d="M260.37,-143.871C285.777,-118.817 333.201,-72.0519 362.25,-43.4062"/>
<polygon fill="grey" stroke="grey" stroke-width="2" points="364.906,-45.7029 369.569,-36.1893 359.991,-40.7186 364.906,-45.7029"/>
</g>
<!-- 4&#45;&gt;6 -->
<g id="edge20" class="edge"><title>4&#45;&gt;6</title>
<path fill="none" stroke="grey" stroke-width="2" d="M243.247,-143.697C243.357,-135.983 243.49,-126.712 243.613,-118.112"/>
<polygon fill="grey" stroke="grey" stroke-width="2" points="247.112,-118.153 243.756,-108.104 240.113,-118.053 247.112,-118.153"/>
</g>
<!-- 5 -->
<g id="node6" class="node"><title>5</title>
<path fill="none" stroke="#569ad8" stroke-width="2" d="M186,-180C186,-180 156,-180 156,-180 150,-180 144,-174 144,-168 144,-168 144,-156 144,-156 144,-150 150,-144 156,-144 156,-144 186,-144 186,-144 192,-144 198,-150 198,-156 198,-156 198,-168 198,-168 198,-174 192,-180 186,-180"/>
<text text-anchor="middle" x="171" y="-165" font-family="sans" font-size="10.00">gzip</text>
<text text-anchor="middle" x="171" y="-154" font-family="sans" font-size="10.00">n: 1</text>
</g>
<!-- 5&#45;&gt;0 -->
<g id="edge5" class="edge"><title>5&#45;&gt;0</title>
<path fill="none" stroke="grey" stroke-width="2" d="M170.386,-143.82C170.643,-123.871 174.213,-91.2505 193,-72 227.88,-36.2598 284.345,-23.9123 327.386,-19.9744"/>
<polygon fill="grey" stroke="grey" stroke-width="2" points="327.766,-23.4554 337.461,-19.1818 327.217,-16.477 327.766,-23.4554"/>
</g>
<!-- 5&#45;&gt;6 -->
<g id="edge21" class="edge"><title>5&#45;&gt;6</title>
<path fill="none" stroke="grey" stroke-width="2" d="M189.045,-143.697C198.062,-135.05 209.118,-124.449 218.943,-115.027"/>
<polygon fill="grey" stroke="grey" stroke-width="2" points="221.367,-117.552 226.163,-108.104 216.522,-112.499 221.367,-117.552"/>
</g>
<!-- 6&#45;&gt;0 -->
<g id="edge6" class="edge"><title>6&#45;&gt;0</title>
<path fill="none" stroke="grey" stroke-width="2" d="M278.982,-71.8761C298.198,-62.4693 322.226,-50.7077 342.737,-40.6672"/>
<polygon fill="grey" stroke="grey" stroke-width="2" points="344.441,-43.73 351.884,-36.1898 341.363,-37.4428 344.441,-43.73"/>
</g>
<!-- 7&#45;&gt;0 -->
<g id="edge7" class="edge"><title>7&#45;&gt;0</title>
<path fill="none" stroke="grey" stroke-width="2" d="M387,-71.6966C387,-63.9827 387,-54.7125 387,-46.1124"/>
<polygon fill="grey" stroke="grey" stroke-width="2" points="390.5,-46.1043 387,-36.1043 383.5,-46.1044 390.5,-46.1043"/>
</g>
<!-- 8&#45;&gt;0 -->
<g id="edge8" class="edge"><title>8&#45;&gt;0</title>
<path fill="none" stroke="grey" stroke-width="2" d="M520.083,-72.2333C495.874,-62.5497 465.206,-50.2826 439.414,-39.9654"/>
<polygon fill="grey" stroke="grey" stroke-width="2" points="440.375,-36.5805 429.791,-36.1162 437.775,-43.0799 440.375,-36.5805"/>
</g>
<!-- 9&#45;&gt;0 -->
<g id="edge9" class="edge"><title>9&#45;&gt;0</title>
<path fill="none" stroke="grey" stroke-width="2" d="M653.462,-79.5595C600.111,-67.4343 507.166,-46.3104 446.364,-32.4917"/>
<polygon fill="grey" stroke="grey" stroke-width="2" points="447.047,-29.0579 436.52,-30.2546 445.496,-35.8839 447.047,-29.0579"/>
</g>
<!-- 10 -->
<g id="node11" class="node"><title>10</title>
<path fill="none" stroke="#569ad8" stroke-width="2" d="M886,-180C886,-180 856,-180 856,-180 850,-180 844,-174 844,-168 844,-168 844,-156 844,-156 844,-150 850,-144 856,-144 856,-144 886,-144 886,-144 892,-144 898,-150 898,-156 898,-156 898,-168 898,-168 898,-174 892,-180 886,-180"/>
<text text-anchor="middle" x="871" y="-165" font-family="sans" font-size="10.00">gzip</text>
<text text-anchor="middle" x="871" y="-154" font-family="sans" font-size="10.00">n: 1</text>
</g>
<!-- 10&#45;&gt;1 -->
<g id="edge11" class="edge"><title>10&#45;&gt;1</title>
<path fill="none" stroke="grey" stroke-width="2" d="M861.607,-143.697C857.235,-135.644 851.943,-125.894 847.105,-116.982"/>
<polygon fill="grey" stroke="grey" stroke-width="2" points="850.132,-115.223 842.285,-108.104 843.98,-118.563 850.132,-115.223"/>
</g>
<!-- 11 -->
<g id="node12" class="node"><title>11</title>
<path fill="none" stroke="#569ad8" stroke-width="2" d="M958,-180C958,-180 928,-180 928,-180 922,-180 916,-174 916,-168 916,-168 916,-156 916,-156 916,-150 922,-144 928,-144 928,-144 958,-144 958,-144 964,-144 970,-150 970,-156 970,-156 970,-168 970,-168 970,-174 964,-180 958,-180"/>
<text text-anchor="middle" x="943" y="-165" font-family="sans" font-size="10.00">gzip</text>
<text text-anchor="middle" x="943" y="-154" font-family="sans" font-size="10.00">n: 2</text>
</g>
<!-- 11&#45;&gt;1 -->
<g id="edge12" class="edge"><title>11&#45;&gt;1</title>
<path fill="none" stroke="grey" stroke-width="2" d="M916.091,-143.876C901.842,-134.808 884.154,-123.552 868.764,-113.759"/>
<polygon fill="grey" stroke="grey" stroke-width="2" points="870.328,-110.606 860.012,-108.19 866.57,-116.511 870.328,-110.606"/>
</g>
<!-- 12 -->
<g id="node13" class="node"><title>12</title>
<path fill="none" stroke="#59d856" stroke-width="2" d="M512.5,-252C512.5,-252 457.5,-252 457.5,-252 451.5,-252 445.5,-246 445.5,-240 445.5,-240 445.5,-228 445.5,-228 445.5,-222 451.5,-216 457.5,-216 457.5,-216 512.5,-216 512.5,-216 518.5,-216 524.5,-222 524.5,-228 524.5,-228 524.5,-240 524.5,-240 524.5,-246 518.5,-252 512.5,-252"/>
<text text-anchor="middle" x="485" y="-231.5" font-family="sans" font-size="10.00">generate_gtf</text>
</g>
<!-- 12&#45;&gt;2 -->
<g id="edge13" class="edge"><title>12&#45;&gt;2</title>
<path fill="none" stroke="grey" stroke-width="2" d="M485,-215.697C485,-207.983 485,-198.712 485,-190.112"/>
<polygon fill="grey" stroke="grey" stroke-width="2" points="488.5,-190.104 485,-180.104 481.5,-190.104 488.5,-190.104"/>
</g>
<!-- 13 -->
<g id="node14" class="node"><title>13</title>
<path fill="none" stroke="#569ad8" stroke-width="2" d="M42,-180C42,-180 12,-180 12,-180 6,-180 0,-174 0,-168 0,-168 0,-156 0,-156 0,-150 6,-144 12,-144 12,-144 42,-144 42,-144 48,-144 54,-150 54,-156 54,-156 54,-168 54,-168 54,-174 48,-180 42,-180"/>
<text text-anchor="middle" x="27" y="-165" font-family="sans" font-size="10.00">gzip</text>
<text text-anchor="middle" x="27" y="-154" font-family="sans" font-size="10.00">n: 1</text>
</g>
<!-- 13&#45;&gt;3 -->
<g id="edge15" class="edge"><title>13&#45;&gt;3</title>
<path fill="none" stroke="grey" stroke-width="2" d="M45.0449,-143.697C54.0619,-135.05 65.1179,-124.449 74.9432,-115.027"/>
<polygon fill="grey" stroke="grey" stroke-width="2" points="77.3672,-117.552 82.1626,-108.104 72.5223,-112.499 77.3672,-117.552"/>
</g>
<!-- 14 -->
<g id="node15" class="node"><title>14</title>
<path fill="none" stroke="#569ad8" stroke-width="2" d="M114,-180C114,-180 84,-180 84,-180 78,-180 72,-174 72,-168 72,-168 72,-156 72,-156 72,-150 78,-144 84,-144 84,-144 114,-144 114,-144 120,-144 126,-150 126,-156 126,-156 126,-168 126,-168 126,-174 120,-180 114,-180"/>
<text text-anchor="middle" x="99" y="-165" font-family="sans" font-size="10.00">gzip</text>
<text text-anchor="middle" x="99" y="-154" font-family="sans" font-size="10.00">n: 2</text>
</g>
<!-- 14&#45;&gt;3 -->
<g id="edge16" class="edge"><title>14&#45;&gt;3</title>
<path fill="none" stroke="grey" stroke-width="2" d="M99.2472,-143.697C99.3574,-135.983 99.4898,-126.712 99.6127,-118.112"/>
<polygon fill="grey" stroke="grey" stroke-width="2" points="103.112,-118.153 99.7557,-108.104 96.1131,-118.053 103.112,-118.153"/>
</g>
<!-- 15 -->
<g id="node16" class="node"><title>15</title>
<path fill="none" stroke="#d85656" stroke-width="2" d="M234.5,-252C234.5,-252 199.5,-252 199.5,-252 193.5,-252 187.5,-246 187.5,-240 187.5,-240 187.5,-228 187.5,-228 187.5,-222 193.5,-216 199.5,-216 199.5,-216 234.5,-216 234.5,-216 240.5,-216 246.5,-222 246.5,-228 246.5,-228 246.5,-240 246.5,-240 246.5,-246 240.5,-252 234.5,-252"/>
<text text-anchor="middle" x="217" y="-231.5" font-family="sans" font-size="10.00">cutadapt</text>
</g>
<!-- 15&#45;&gt;4 -->
<g id="edge17" class="edge"><title>15&#45;&gt;4</title>
<path fill="none" stroke="grey" stroke-width="2" d="M223.427,-215.697C226.355,-207.813 229.887,-198.304 233.14,-189.546"/>
<polygon fill="grey" stroke="grey" stroke-width="2" points="236.446,-190.697 236.647,-180.104 229.884,-188.26 236.446,-190.697"/>
</g>
<!-- 15&#45;&gt;5 -->
<g id="edge18" class="edge"><title>15&#45;&gt;5</title>
<path fill="none" stroke="grey" stroke-width="2" d="M205.629,-215.697C200.282,-207.559 193.796,-197.689 187.889,-188.701"/>
<polygon fill="grey" stroke="grey" stroke-width="2" points="190.657,-186.539 182.24,-180.104 184.807,-190.384 190.657,-186.539"/>
</g>
<!-- 16 -->
<g id="node17" class="node"><title>16</title>
<path fill="none" stroke="#569ad8" stroke-width="2" d="M330,-180C330,-180 300,-180 300,-180 294,-180 288,-174 288,-168 288,-168 288,-156 288,-156 288,-150 294,-144 300,-144 300,-144 330,-144 330,-144 336,-144 342,-150 342,-156 342,-156 342,-168 342,-168 342,-174 336,-180 330,-180"/>
<text text-anchor="middle" x="315" y="-165" font-family="sans" font-size="10.00">gzip</text>
<text text-anchor="middle" x="315" y="-154" font-family="sans" font-size="10.00">n: 1</text>
</g>
<!-- 16&#45;&gt;7 -->
<g id="edge23" class="edge"><title>16&#45;&gt;7</title>
<path fill="none" stroke="grey" stroke-width="2" d="M332.798,-143.697C341.604,-135.135 352.382,-124.656 362.001,-115.304"/>
<polygon fill="grey" stroke="grey" stroke-width="2" points="364.677,-117.585 369.407,-108.104 359.797,-112.566 364.677,-117.585"/>
</g>
<!-- 17 -->
<g id="node18" class="node"><title>17</title>
<path fill="none" stroke="#569ad8" stroke-width="2" d="M402,-180C402,-180 372,-180 372,-180 366,-180 360,-174 360,-168 360,-168 360,-156 360,-156 360,-150 366,-144 372,-144 372,-144 402,-144 402,-144 408,-144 414,-150 414,-156 414,-156 414,-168 414,-168 414,-174 408,-180 402,-180"/>
<text text-anchor="middle" x="387" y="-165" font-family="sans" font-size="10.00">gzip</text>
<text text-anchor="middle" x="387" y="-154" font-family="sans" font-size="10.00">n: 2</text>
</g>
<!-- 17&#45;&gt;7 -->
<g id="edge24" class="edge"><title>17&#45;&gt;7</title>
<path fill="none" stroke="grey" stroke-width="2" d="M387,-143.697C387,-135.983 387,-126.712 387,-118.112"/>
<polygon fill="grey" stroke="grey" stroke-width="2" points="390.5,-118.104 387,-108.104 383.5,-118.104 390.5,-118.104"/>
</g>
<!-- 18 -->
<g id="node19" class="node"><title>18</title>
<path fill="none" stroke="#569ad8" stroke-width="2" d="M598,-180C598,-180 568,-180 568,-180 562,-180 556,-174 556,-168 556,-168 556,-156 556,-156 556,-150 562,-144 568,-144 568,-144 598,-144 598,-144 604,-144 610,-150 610,-156 610,-156 610,-168 610,-168 610,-174 604,-180 598,-180"/>
<text text-anchor="middle" x="583" y="-165" font-family="sans" font-size="10.00">gzip</text>
<text text-anchor="middle" x="583" y="-154" font-family="sans" font-size="10.00">n: 2</text>
</g>
<!-- 18&#45;&gt;8 -->
<g id="edge26" class="edge"><title>18&#45;&gt;8</title>
<path fill="none" stroke="grey" stroke-width="2" d="M577.809,-143.697C575.469,-135.898 572.653,-126.509 570.049,-117.829"/>
<polygon fill="grey" stroke="grey" stroke-width="2" points="573.357,-116.677 567.131,-108.104 566.652,-118.688 573.357,-116.677"/>
</g>
<!-- 19 -->
<g id="node20" class="node"><title>19</title>
<path fill="none" stroke="#569ad8" stroke-width="2" d="M670,-180C670,-180 640,-180 640,-180 634,-180 628,-174 628,-168 628,-168 628,-156 628,-156 628,-150 634,-144 640,-144 640,-144 670,-144 670,-144 676,-144 682,-150 682,-156 682,-156 682,-168 682,-168 682,-174 676,-180 670,-180"/>
<text text-anchor="middle" x="655" y="-165" font-family="sans" font-size="10.00">gzip</text>
<text text-anchor="middle" x="655" y="-154" font-family="sans" font-size="10.00">n: 1</text>
</g>
<!-- 19&#45;&gt;8 -->
<g id="edge27" class="edge"><title>19&#45;&gt;8</title>
<path fill="none" stroke="grey" stroke-width="2" d="M632.011,-143.697C620.186,-134.796 605.608,-123.823 592.821,-114.199"/>
<polygon fill="grey" stroke="grey" stroke-width="2" points="594.819,-111.322 584.724,-108.104 590.609,-116.915 594.819,-111.322"/>
</g>
<!-- 20 -->
<g id="node21" class="node"><title>20</title>
<path fill="none" stroke="#569ad8" stroke-width="2" d="M742,-180C742,-180 712,-180 712,-180 706,-180 700,-174 700,-168 700,-168 700,-156 700,-156 700,-150 706,-144 712,-144 712,-144 742,-144 742,-144 748,-144 754,-150 754,-156 754,-156 754,-168 754,-168 754,-174 748,-180 742,-180"/>
<text text-anchor="middle" x="727" y="-165" font-family="sans" font-size="10.00">gzip</text>
<text text-anchor="middle" x="727" y="-154" font-family="sans" font-size="10.00">n: 2</text>
</g>
<!-- 20&#45;&gt;9 -->
<g id="edge29" class="edge"><title>20&#45;&gt;9</title>
<path fill="none" stroke="grey" stroke-width="2" d="M719.09,-143.697C715.447,-135.728 711.046,-126.1 707.006,-117.264"/>
<polygon fill="grey" stroke="grey" stroke-width="2" points="710.16,-115.744 702.819,-108.104 703.794,-118.654 710.16,-115.744"/>
</g>
<!-- 21 -->
<g id="node22" class="node"><title>21</title>
<path fill="none" stroke="#569ad8" stroke-width="2" d="M814,-180C814,-180 784,-180 784,-180 778,-180 772,-174 772,-168 772,-168 772,-156 772,-156 772,-150 778,-144 784,-144 784,-144 814,-144 814,-144 820,-144 826,-150 826,-156 826,-156 826,-168 826,-168 826,-174 820,-180 814,-180"/>
<text text-anchor="middle" x="799" y="-165" font-family="sans" font-size="10.00">gzip</text>
<text text-anchor="middle" x="799" y="-154" font-family="sans" font-size="10.00">n: 1</text>
</g>
<!-- 21&#45;&gt;9 -->
<g id="edge30" class="edge"><title>21&#45;&gt;9</title>
<path fill="none" stroke="grey" stroke-width="2" d="M773.559,-143.876C760.213,-134.893 743.676,-123.763 729.222,-114.034"/>
<polygon fill="grey" stroke="grey" stroke-width="2" points="730.789,-110.87 720.539,-108.19 726.881,-116.677 730.789,-110.87"/>
</g>
<!-- 22 -->
<g id="node23" class="node"><title>22</title>
<path fill="none" stroke="#d85656" stroke-width="2" d="M924.5,-252C924.5,-252 889.5,-252 889.5,-252 883.5,-252 877.5,-246 877.5,-240 877.5,-240 877.5,-228 877.5,-228 877.5,-222 883.5,-216 889.5,-216 889.5,-216 924.5,-216 924.5,-216 930.5,-216 936.5,-222 936.5,-228 936.5,-228 936.5,-240 936.5,-240 936.5,-246 930.5,-252 924.5,-252"/>
<text text-anchor="middle" x="907" y="-231.5" font-family="sans" font-size="10.00">cutadapt</text>
</g>
<!-- 22&#45;&gt;10 -->
<g id="edge31" class="edge"><title>22&#45;&gt;10</title>
<path fill="none" stroke="grey" stroke-width="2" d="M898.101,-215.697C894.003,-207.728 889.051,-198.1 884.507,-189.264"/>
<polygon fill="grey" stroke="grey" stroke-width="2" points="887.483,-187.396 879.797,-180.104 881.258,-190.598 887.483,-187.396"/>
</g>
<!-- 22&#45;&gt;11 -->
<g id="edge32" class="edge"><title>22&#45;&gt;11</title>
<path fill="none" stroke="grey" stroke-width="2" d="M915.899,-215.697C919.997,-207.728 924.949,-198.1 929.493,-189.264"/>
<polygon fill="grey" stroke="grey" stroke-width="2" points="932.742,-190.598 934.203,-180.104 926.517,-187.396 932.742,-190.598"/>
</g>
<!-- 23 -->
<g id="node24" class="node"><title>23</title>
<path fill="none" stroke="#d85656" stroke-width="2" d="M80.5,-252C80.5,-252 45.5,-252 45.5,-252 39.5,-252 33.5,-246 33.5,-240 33.5,-240 33.5,-228 33.5,-228 33.5,-222 39.5,-216 45.5,-216 45.5,-216 80.5,-216 80.5,-216 86.5,-216 92.5,-222 92.5,-228 92.5,-228 92.5,-240 92.5,-240 92.5,-246 86.5,-252 80.5,-252"/>
<text text-anchor="middle" x="63" y="-231.5" font-family="sans" font-size="10.00">cutadapt</text>
</g>
<!-- 23&#45;&gt;13 -->
<g id="edge33" class="edge"><title>23&#45;&gt;13</title>
<path fill="none" stroke="grey" stroke-width="2" d="M54.1011,-215.697C50.0032,-207.728 45.0512,-198.1 40.5073,-189.264"/>
<polygon fill="grey" stroke="grey" stroke-width="2" points="43.4826,-187.396 35.7965,-180.104 37.2575,-190.598 43.4826,-187.396"/>
</g>
<!-- 23&#45;&gt;14 -->
<g id="edge34" class="edge"><title>23&#45;&gt;14</title>
<path fill="none" stroke="grey" stroke-width="2" d="M71.8989,-215.697C75.9968,-207.728 80.9488,-198.1 85.4927,-189.264"/>
<polygon fill="grey" stroke="grey" stroke-width="2" points="88.7425,-190.598 90.2035,-180.104 82.5174,-187.396 88.7425,-190.598"/>
</g>
<!-- 24 -->
<g id="node25" class="node"><title>24</title>
<path fill="none" stroke="#56d8d8" stroke-width="2" d="M242,-340C242,-340 192,-340 192,-340 186,-340 180,-334 180,-328 180,-328 180,-300 180,-300 180,-294 186,-288 192,-288 192,-288 242,-288 242,-288 248,-288 254,-294 254,-300 254,-300 254,-328 254,-328 254,-334 248,-340 242,-340"/>
<text text-anchor="middle" x="217" y="-328" font-family="sans" font-size="10.00">repair</text>
<text text-anchor="middle" x="217" y="-317" font-family="sans" font-size="10.00">rep: 1</text>
<text text-anchor="middle" x="217" y="-306" font-family="sans" font-size="10.00">species: osj</text>
<text text-anchor="middle" x="217" y="-295" font-family="sans" font-size="10.00">stage: SM</text>
</g>
<!-- 24&#45;&gt;15 -->
<g id="edge35" class="edge"><title>24&#45;&gt;15</title>
<path fill="none" stroke="grey" stroke-width="2" d="M217,-287.891C217,-279.84 217,-270.88 217,-262.658"/>
<polygon fill="grey" stroke="grey" stroke-width="2" points="220.5,-262.411 217,-252.411 213.5,-262.411 220.5,-262.411"/>
</g>
<!-- 25 -->
<g id="node26" class="node"><title>25</title>
<path fill="none" stroke="#d85656" stroke-width="2" d="M378.5,-252C378.5,-252 343.5,-252 343.5,-252 337.5,-252 331.5,-246 331.5,-240 331.5,-240 331.5,-228 331.5,-228 331.5,-222 337.5,-216 343.5,-216 343.5,-216 378.5,-216 378.5,-216 384.5,-216 390.5,-222 390.5,-228 390.5,-228 390.5,-240 390.5,-240 390.5,-246 384.5,-252 378.5,-252"/>
<text text-anchor="middle" x="361" y="-231.5" font-family="sans" font-size="10.00">cutadapt</text>
</g>
<!-- 25&#45;&gt;16 -->
<g id="edge36" class="edge"><title>25&#45;&gt;16</title>
<path fill="none" stroke="grey" stroke-width="2" d="M349.629,-215.697C344.282,-207.559 337.796,-197.689 331.889,-188.701"/>
<polygon fill="grey" stroke="grey" stroke-width="2" points="334.657,-186.539 326.24,-180.104 328.807,-190.384 334.657,-186.539"/>
</g>
<!-- 25&#45;&gt;17 -->
<g id="edge37" class="edge"><title>25&#45;&gt;17</title>
<path fill="none" stroke="grey" stroke-width="2" d="M367.427,-215.697C370.355,-207.813 373.887,-198.304 377.14,-189.546"/>
<polygon fill="grey" stroke="grey" stroke-width="2" points="380.446,-190.697 380.647,-180.104 373.884,-188.26 380.446,-190.697"/>
</g>
<!-- 26 -->
<g id="node27" class="node"><title>26</title>
<path fill="none" stroke="#d85656" stroke-width="2" d="M636.5,-252C636.5,-252 601.5,-252 601.5,-252 595.5,-252 589.5,-246 589.5,-240 589.5,-240 589.5,-228 589.5,-228 589.5,-222 595.5,-216 601.5,-216 601.5,-216 636.5,-216 636.5,-216 642.5,-216 648.5,-222 648.5,-228 648.5,-228 648.5,-240 648.5,-240 648.5,-246 642.5,-252 636.5,-252"/>
<text text-anchor="middle" x="619" y="-231.5" font-family="sans" font-size="10.00">cutadapt</text>
</g>
<!-- 26&#45;&gt;18 -->
<g id="edge38" class="edge"><title>26&#45;&gt;18</title>
<path fill="none" stroke="grey" stroke-width="2" d="M610.101,-215.697C606.003,-207.728 601.051,-198.1 596.507,-189.264"/>
<polygon fill="grey" stroke="grey" stroke-width="2" points="599.483,-187.396 591.797,-180.104 593.258,-190.598 599.483,-187.396"/>
</g>
<!-- 26&#45;&gt;19 -->
<g id="edge39" class="edge"><title>26&#45;&gt;19</title>
<path fill="none" stroke="grey" stroke-width="2" d="M627.899,-215.697C631.997,-207.728 636.949,-198.1 641.493,-189.264"/>
<polygon fill="grey" stroke="grey" stroke-width="2" points="644.742,-190.598 646.203,-180.104 638.517,-187.396 644.742,-190.598"/>
</g>
<!-- 27 -->
<g id="node28" class="node"><title>27</title>
<path fill="none" stroke="#d85656" stroke-width="2" d="M780.5,-252C780.5,-252 745.5,-252 745.5,-252 739.5,-252 733.5,-246 733.5,-240 733.5,-240 733.5,-228 733.5,-228 733.5,-222 739.5,-216 745.5,-216 745.5,-216 780.5,-216 780.5,-216 786.5,-216 792.5,-222 792.5,-228 792.5,-228 792.5,-240 792.5,-240 792.5,-246 786.5,-252 780.5,-252"/>
<text text-anchor="middle" x="763" y="-231.5" font-family="sans" font-size="10.00">cutadapt</text>
</g>
<!-- 27&#45;&gt;20 -->
<g id="edge40" class="edge"><title>27&#45;&gt;20</title>
<path fill="none" stroke="grey" stroke-width="2" d="M754.101,-215.697C750.003,-207.728 745.051,-198.1 740.507,-189.264"/>
<polygon fill="grey" stroke="grey" stroke-width="2" points="743.483,-187.396 735.797,-180.104 737.258,-190.598 743.483,-187.396"/>
</g>
<!-- 27&#45;&gt;21 -->
<g id="edge41" class="edge"><title>27&#45;&gt;21</title>
<path fill="none" stroke="grey" stroke-width="2" d="M771.899,-215.697C775.997,-207.728 780.949,-198.1 785.493,-189.264"/>
<polygon fill="grey" stroke="grey" stroke-width="2" points="788.742,-190.598 790.203,-180.104 782.517,-187.396 788.742,-190.598"/>
</g>
<!-- 28 -->
<g id="node29" class="node"><title>28</title>
<path fill="none" stroke="#56d8d8" stroke-width="2" d="M932,-340C932,-340 882,-340 882,-340 876,-340 870,-334 870,-328 870,-328 870,-300 870,-300 870,-294 876,-288 882,-288 882,-288 932,-288 932,-288 938,-288 944,-294 944,-300 944,-300 944,-328 944,-328 944,-334 938,-340 932,-340"/>
<text text-anchor="middle" x="907" y="-328" font-family="sans" font-size="10.00">repair</text>
<text text-anchor="middle" x="907" y="-317" font-family="sans" font-size="10.00">rep: 2</text>
<text text-anchor="middle" x="907" y="-306" font-family="sans" font-size="10.00">species: osj</text>
<text text-anchor="middle" x="907" y="-295" font-family="sans" font-size="10.00">stage: SM</text>
</g>
<!-- 28&#45;&gt;22 -->
<g id="edge42" class="edge"><title>28&#45;&gt;22</title>
<path fill="none" stroke="grey" stroke-width="2" d="M907,-287.891C907,-279.84 907,-270.88 907,-262.658"/>
<polygon fill="grey" stroke="grey" stroke-width="2" points="910.5,-262.411 907,-252.411 903.5,-262.411 910.5,-262.411"/>
</g>
<!-- 29 -->
<g id="node30" class="node"><title>29</title>
<path fill="none" stroke="#56d8d8" stroke-width="2" d="M88,-340C88,-340 38,-340 38,-340 32,-340 26,-334 26,-328 26,-328 26,-300 26,-300 26,-294 32,-288 38,-288 38,-288 88,-288 88,-288 94,-288 100,-294 100,-300 100,-300 100,-328 100,-328 100,-334 94,-340 88,-340"/>
<text text-anchor="middle" x="63" y="-328" font-family="sans" font-size="10.00">repair</text>
<text text-anchor="middle" x="63" y="-317" font-family="sans" font-size="10.00">rep: 3</text>
<text text-anchor="middle" x="63" y="-306" font-family="sans" font-size="10.00">species: osj</text>
<text text-anchor="middle" x="63" y="-295" font-family="sans" font-size="10.00">stage: PBM</text>
</g>
<!-- 29&#45;&gt;23 -->
<g id="edge43" class="edge"><title>29&#45;&gt;23</title>
<path fill="none" stroke="grey" stroke-width="2" d="M63,-287.891C63,-279.84 63,-270.88 63,-262.658"/>
<polygon fill="grey" stroke="grey" stroke-width="2" points="66.5001,-262.411 63,-252.411 59.5001,-262.411 66.5001,-262.411"/>
</g>
<!-- 30 -->
<g id="node31" class="node"><title>30</title>
<path fill="none" stroke="#56d8d8" stroke-width="2" d="M386,-340C386,-340 336,-340 336,-340 330,-340 324,-334 324,-328 324,-328 324,-300 324,-300 324,-294 330,-288 336,-288 336,-288 386,-288 386,-288 392,-288 398,-294 398,-300 398,-300 398,-328 398,-328 398,-334 392,-340 386,-340"/>
<text text-anchor="middle" x="361" y="-328" font-family="sans" font-size="10.00">repair</text>
<text text-anchor="middle" x="361" y="-317" font-family="sans" font-size="10.00">rep: 2</text>
<text text-anchor="middle" x="361" y="-306" font-family="sans" font-size="10.00">species: osj</text>
<text text-anchor="middle" x="361" y="-295" font-family="sans" font-size="10.00">stage: PBM</text>
</g>
<!-- 30&#45;&gt;25 -->
<g id="edge44" class="edge"><title>30&#45;&gt;25</title>
<path fill="none" stroke="grey" stroke-width="2" d="M361,-287.891C361,-279.84 361,-270.88 361,-262.658"/>
<polygon fill="grey" stroke="grey" stroke-width="2" points="364.5,-262.411 361,-252.411 357.5,-262.411 364.5,-262.411"/>
</g>
<!-- 31 -->
<g id="node32" class="node"><title>31</title>
<path fill="none" stroke="#56d8d8" stroke-width="2" d="M644,-340C644,-340 594,-340 594,-340 588,-340 582,-334 582,-328 582,-328 582,-300 582,-300 582,-294 588,-288 594,-288 594,-288 644,-288 644,-288 650,-288 656,-294 656,-300 656,-300 656,-328 656,-328 656,-334 650,-340 644,-340"/>
<text text-anchor="middle" x="619" y="-328" font-family="sans" font-size="10.00">repair</text>
<text text-anchor="middle" x="619" y="-317" font-family="sans" font-size="10.00">rep: 1</text>
<text text-anchor="middle" x="619" y="-306" font-family="sans" font-size="10.00">species: osj</text>
<text text-anchor="middle" x="619" y="-295" font-family="sans" font-size="10.00">stage: PBM</text>
</g>
<!-- 31&#45;&gt;26 -->
<g id="edge45" class="edge"><title>31&#45;&gt;26</title>
<path fill="none" stroke="grey" stroke-width="2" d="M619,-287.891C619,-279.84 619,-270.88 619,-262.658"/>
<polygon fill="grey" stroke="grey" stroke-width="2" points="622.5,-262.411 619,-252.411 615.5,-262.411 622.5,-262.411"/>
</g>
<!-- 32 -->
<g id="node33" class="node"><title>32</title>
<path fill="none" stroke="#56d8d8" stroke-width="2" d="M788,-340C788,-340 738,-340 738,-340 732,-340 726,-334 726,-328 726,-328 726,-300 726,-300 726,-294 732,-288 738,-288 738,-288 788,-288 788,-288 794,-288 800,-294 800,-300 800,-300 800,-328 800,-328 800,-334 794,-340 788,-340"/>
<text text-anchor="middle" x="763" y="-328" font-family="sans" font-size="10.00">repair</text>
<text text-anchor="middle" x="763" y="-317" font-family="sans" font-size="10.00">rep: 3</text>
<text text-anchor="middle" x="763" y="-306" font-family="sans" font-size="10.00">species: osj</text>
<text text-anchor="middle" x="763" y="-295" font-family="sans" font-size="10.00">stage: SM</text>
</g>
<!-- 32&#45;&gt;27 -->
<g id="edge46" class="edge"><title>32&#45;&gt;27</title>
<path fill="none" stroke="grey" stroke-width="2" d="M763,-287.891C763,-279.84 763,-270.88 763,-262.658"/>
<polygon fill="grey" stroke="grey" stroke-width="2" points="766.5,-262.411 763,-252.411 759.5,-262.411 766.5,-262.411"/>
</g>
</g>
</svg>
