<?xml version="1.0" encoding="UTF-8" standalone="no"?>
<!DOCTYPE svg PUBLIC "-//W3C//DTD SVG 1.1//EN"
 "http://www.w3.org/Graphics/SVG/1.1/DTD/svg11.dtd">
<!-- Generated by graphviz version 2.38.0 (20140413.2041)
 -->
<!-- Title: snakemake_dag Pages: 1 -->
<svg width="673pt" height="276pt"
 viewBox="0.00 0.00 672.50 276.00" xmlns="http://www.w3.org/2000/svg" xmlns:xlink="http://www.w3.org/1999/xlink">
<g id="graph0" class="graph" transform="scale(1 1) rotate(0) translate(4 272)">
<title>snakemake_dag</title>
<polygon fill="white" stroke="none" points="-4,4 -4,-272 668.5,-272 668.5,4 -4,4"/>
<!-- 0 -->
<g id="node1" class="node"><title>0</title>
<path fill="none" stroke="#56a2d8" stroke-width="2" d="M353.5,-36C353.5,-36 278.5,-36 278.5,-36 272.5,-36 266.5,-30 266.5,-24 266.5,-24 266.5,-12 266.5,-12 266.5,-6 272.5,-0 278.5,-0 278.5,-0 353.5,-0 353.5,-0 359.5,-0 365.5,-6 365.5,-12 365.5,-12 365.5,-24 365.5,-24 365.5,-30 359.5,-36 353.5,-36"/>
<text text-anchor="middle" x="316" y="-15.5" font-family="sans" font-size="10.00">second_mapping</text>
</g>
<!-- 1 -->
<g id="node2" class="node"><title>1</title>
<path fill="none" stroke="#56d87b" stroke-width="2" d="M209.5,-108C209.5,-108 150.5,-108 150.5,-108 144.5,-108 138.5,-102 138.5,-96 138.5,-96 138.5,-84 138.5,-84 138.5,-78 144.5,-72 150.5,-72 150.5,-72 209.5,-72 209.5,-72 215.5,-72 221.5,-78 221.5,-84 221.5,-84 221.5,-96 221.5,-96 221.5,-102 215.5,-108 209.5,-108"/>
<text text-anchor="middle" x="180" y="-87.5" font-family="sans" font-size="10.00">first_mapping</text>
</g>
<!-- 1&#45;&gt;0 -->
<g id="edge1" class="edge"><title>1&#45;&gt;0</title>
<path fill="none" stroke="grey" stroke-width="2" d="M213.269,-71.8761C231.463,-62.5117 254.191,-50.8136 273.64,-40.803"/>
<polygon fill="grey" stroke="grey" stroke-width="2" points="275.313,-43.8782 282.603,-36.1898 272.11,-37.6543 275.313,-43.8782"/>
</g>
<!-- 2 -->
<g id="node3" class="node"><title>2</title>
<path fill="none" stroke="#c6d856" stroke-width="2" d="M54.5,-180C54.5,-180 19.5,-180 19.5,-180 13.5,-180 7.5,-174 7.5,-168 7.5,-168 7.5,-156 7.5,-156 7.5,-150 13.5,-144 19.5,-144 19.5,-144 54.5,-144 54.5,-144 60.5,-144 66.5,-150 66.5,-156 66.5,-156 66.5,-168 66.5,-168 66.5,-174 60.5,-180 54.5,-180"/>
<text text-anchor="middle" x="37" y="-159.5" font-family="sans" font-size="10.00">cutadapt</text>
</g>
<!-- 2&#45;&gt;0 -->
<g id="edge2" class="edge"><title>2&#45;&gt;0</title>
<path fill="none" stroke="grey" stroke-width="2" d="M28.6221,-143.788C20.3974,-124.113 11.3039,-92.0491 28,-72 56.431,-37.8595 180.284,-25.6321 256.011,-21.3099"/>
<polygon fill="grey" stroke="grey" stroke-width="2" points="256.565,-24.7852 266.362,-20.7511 256.188,-17.7954 256.565,-24.7852"/>
</g>
<!-- 5 -->
<g id="node6" class="node"><title>5</title>
<path fill="none" stroke="#56d87b" stroke-width="2" d="M108.5,-108C108.5,-108 49.5,-108 49.5,-108 43.5,-108 37.5,-102 37.5,-96 37.5,-96 37.5,-84 37.5,-84 37.5,-78 43.5,-72 49.5,-72 49.5,-72 108.5,-72 108.5,-72 114.5,-72 120.5,-78 120.5,-84 120.5,-84 120.5,-96 120.5,-96 120.5,-102 114.5,-108 108.5,-108"/>
<text text-anchor="middle" x="79" y="-87.5" font-family="sans" font-size="10.00">first_mapping</text>
</g>
<!-- 2&#45;&gt;5 -->
<g id="edge17" class="edge"><title>2&#45;&gt;5</title>
<path fill="none" stroke="grey" stroke-width="2" d="M47.382,-143.697C52.2647,-135.559 58.1866,-125.689 63.5792,-116.701"/>
<polygon fill="grey" stroke="grey" stroke-width="2" points="66.5936,-118.48 68.7374,-108.104 60.5912,-114.879 66.5936,-118.48"/>
</g>
<!-- 3 -->
<g id="node4" class="node"><title>3</title>
<path fill="none" stroke="#56d87b" stroke-width="2" d="M310.5,-108C310.5,-108 251.5,-108 251.5,-108 245.5,-108 239.5,-102 239.5,-96 239.5,-96 239.5,-84 239.5,-84 239.5,-78 245.5,-72 251.5,-72 251.5,-72 310.5,-72 310.5,-72 316.5,-72 322.5,-78 322.5,-84 322.5,-84 322.5,-96 322.5,-96 322.5,-102 316.5,-108 310.5,-108"/>
<text text-anchor="middle" x="281" y="-87.5" font-family="sans" font-size="10.00">first_mapping</text>
</g>
<!-- 3&#45;&gt;0 -->
<g id="edge3" class="edge"><title>3&#45;&gt;0</title>
<path fill="none" stroke="grey" stroke-width="2" d="M289.652,-71.6966C293.636,-63.7284 298.45,-54.0995 302.868,-45.2641"/>
<polygon fill="grey" stroke="grey" stroke-width="2" points="306.106,-46.6139 307.448,-36.1043 299.845,-43.4833 306.106,-46.6139"/>
</g>
<!-- 4 -->
<g id="node5" class="node"><title>4</title>
<path fill="none" stroke="#56d87b" stroke-width="2" d="M450.5,-108C450.5,-108 391.5,-108 391.5,-108 385.5,-108 379.5,-102 379.5,-96 379.5,-96 379.5,-84 379.5,-84 379.5,-78 385.5,-72 391.5,-72 391.5,-72 450.5,-72 450.5,-72 456.5,-72 462.5,-78 462.5,-84 462.5,-84 462.5,-96 462.5,-96 462.5,-102 456.5,-108 450.5,-108"/>
<text text-anchor="middle" x="421" y="-87.5" font-family="sans" font-size="10.00">first_mapping</text>
</g>
<!-- 4&#45;&gt;0 -->
<g id="edge4" class="edge"><title>4&#45;&gt;0</title>
<path fill="none" stroke="grey" stroke-width="2" d="M395.314,-71.8761C381.712,-62.8083 364.828,-51.5523 350.139,-41.7592"/>
<polygon fill="grey" stroke="grey" stroke-width="2" points="352.047,-38.8246 341.785,-36.1898 348.164,-44.649 352.047,-38.8246"/>
</g>
<!-- 5&#45;&gt;0 -->
<g id="edge5" class="edge"><title>5&#45;&gt;0</title>
<path fill="none" stroke="grey" stroke-width="2" d="M120.689,-74.6463C123.497,-73.7351 126.286,-72.8453 129,-72 171.259,-58.8371 219.306,-45.2489 256.115,-35.1268"/>
<polygon fill="grey" stroke="grey" stroke-width="2" points="257.466,-38.3858 266.185,-32.367 255.616,-31.6347 257.466,-38.3858"/>
</g>
<!-- 6 -->
<g id="node7" class="node"><title>6</title>
<path fill="none" stroke="#56d87b" stroke-width="2" d="M551.5,-108C551.5,-108 492.5,-108 492.5,-108 486.5,-108 480.5,-102 480.5,-96 480.5,-96 480.5,-84 480.5,-84 480.5,-78 486.5,-72 492.5,-72 492.5,-72 551.5,-72 551.5,-72 557.5,-72 563.5,-78 563.5,-84 563.5,-84 563.5,-96 563.5,-96 563.5,-102 557.5,-108 551.5,-108"/>
<text text-anchor="middle" x="522" y="-87.5" font-family="sans" font-size="10.00">first_mapping</text>
</g>
<!-- 6&#45;&gt;0 -->
<g id="edge6" class="edge"><title>6&#45;&gt;0</title>
<path fill="none" stroke="grey" stroke-width="2" d="M480.313,-74.8345C450.138,-64.5808 408.925,-50.5763 375.323,-39.1582"/>
<polygon fill="grey" stroke="grey" stroke-width="2" points="376.207,-35.7622 365.612,-35.8586 373.955,-42.39 376.207,-35.7622"/>
</g>
<!-- 7 -->
<g id="node8" class="node"><title>7</title>
<path fill="none" stroke="#56d87b" stroke-width="2" d="M652.5,-108C652.5,-108 593.5,-108 593.5,-108 587.5,-108 581.5,-102 581.5,-96 581.5,-96 581.5,-84 581.5,-84 581.5,-78 587.5,-72 593.5,-72 593.5,-72 652.5,-72 652.5,-72 658.5,-72 664.5,-78 664.5,-84 664.5,-84 664.5,-96 664.5,-96 664.5,-102 658.5,-108 652.5,-108"/>
<text text-anchor="middle" x="623" y="-87.5" font-family="sans" font-size="10.00">first_mapping</text>
</g>
<!-- 7&#45;&gt;0 -->
<g id="edge7" class="edge"><title>7&#45;&gt;0</title>
<path fill="none" stroke="grey" stroke-width="2" d="M581.373,-74.6808C578.214,-73.7304 575.064,-72.8248 572,-72 505.643,-54.138 428.231,-38.8654 376.051,-29.3672"/>
<polygon fill="grey" stroke="grey" stroke-width="2" points="376.425,-25.8783 365.963,-27.5455 375.182,-32.7669 376.425,-25.8783"/>
</g>
<!-- 8 -->
<g id="node9" class="node"><title>8</title>
<path fill="none" stroke="#d8a456" stroke-width="2" d="M387.5,-180C387.5,-180 306.5,-180 306.5,-180 300.5,-180 294.5,-174 294.5,-168 294.5,-168 294.5,-156 294.5,-156 294.5,-150 300.5,-144 306.5,-144 306.5,-144 387.5,-144 387.5,-144 393.5,-144 399.5,-150 399.5,-156 399.5,-156 399.5,-168 399.5,-168 399.5,-174 393.5,-180 387.5,-180"/>
<text text-anchor="middle" x="347" y="-159.5" font-family="sans" font-size="10.00">generate_genome</text>
</g>
<!-- 8&#45;&gt;0 -->
<g id="edge8" class="edge"><title>8&#45;&gt;0</title>
<path fill="none" stroke="grey" stroke-width="2" d="M344.426,-143.837C341.608,-125.839 336.72,-96.781 331,-72 329.012,-63.3883 326.505,-54.0867 324.112,-45.7159"/>
<polygon fill="grey" stroke="grey" stroke-width="2" points="327.459,-44.6912 321.292,-36.0758 320.74,-46.6562 327.459,-44.6912"/>
</g>
<!-- 8&#45;&gt;1 -->
<g id="edge10" class="edge"><title>8&#45;&gt;1</title>
<path fill="none" stroke="grey" stroke-width="2" d="M306.147,-143.876C283.216,-134.264 254.418,-122.193 230.13,-112.013"/>
<polygon fill="grey" stroke="grey" stroke-width="2" points="231.296,-108.706 220.72,-108.068 228.59,-115.162 231.296,-108.706"/>
</g>
<!-- 8&#45;&gt;3 -->
<g id="edge13" class="edge"><title>8&#45;&gt;3</title>
<path fill="none" stroke="grey" stroke-width="2" d="M330.685,-143.697C322.693,-135.22 312.928,-124.864 304.178,-115.583"/>
<polygon fill="grey" stroke="grey" stroke-width="2" points="306.534,-112.979 297.127,-108.104 301.441,-117.781 306.534,-112.979"/>
</g>
<!-- 8&#45;&gt;4 -->
<g id="edge14" class="edge"><title>8&#45;&gt;4</title>
<path fill="none" stroke="grey" stroke-width="2" d="M365.292,-143.697C374.433,-135.05 385.64,-124.449 395.6,-115.027"/>
<polygon fill="grey" stroke="grey" stroke-width="2" points="398.059,-117.519 402.918,-108.104 393.248,-112.434 398.059,-117.519"/>
</g>
<!-- 8&#45;&gt;5 -->
<g id="edge16" class="edge"><title>8&#45;&gt;5</title>
<path fill="none" stroke="grey" stroke-width="2" d="M294.273,-146.385C291.139,-145.566 288.03,-144.765 285,-144 219.107,-127.371 199.208,-127.434 130.65,-108.335"/>
<polygon fill="grey" stroke="grey" stroke-width="2" points="131.218,-104.859 120.643,-105.51 129.315,-111.596 131.218,-104.859"/>
</g>
<!-- 8&#45;&gt;6 -->
<g id="edge19" class="edge"><title>8&#45;&gt;6</title>
<path fill="none" stroke="grey" stroke-width="2" d="M389.81,-143.876C414.215,-134.114 444.961,-121.816 470.658,-111.537"/>
<polygon fill="grey" stroke="grey" stroke-width="2" points="472.251,-114.669 480.236,-107.706 469.651,-108.17 472.251,-114.669"/>
</g>
<!-- 8&#45;&gt;7 -->
<g id="edge20" class="edge"><title>8&#45;&gt;7</title>
<path fill="none" stroke="grey" stroke-width="2" d="M399.523,-146.162C402.387,-145.416 405.226,-144.69 408,-144 477.445,-126.716 498.358,-127.708 571.661,-107.932"/>
<polygon fill="grey" stroke="grey" stroke-width="2" points="572.64,-111.293 581.362,-105.278 570.792,-104.541 572.64,-111.293"/>
</g>
<!-- 9 -->
<g id="node10" class="node"><title>9</title>
<path fill="none" stroke="#c6d856" stroke-width="2" d="M180.5,-180C180.5,-180 145.5,-180 145.5,-180 139.5,-180 133.5,-174 133.5,-168 133.5,-168 133.5,-156 133.5,-156 133.5,-150 139.5,-144 145.5,-144 145.5,-144 180.5,-144 180.5,-144 186.5,-144 192.5,-150 192.5,-156 192.5,-156 192.5,-168 192.5,-168 192.5,-174 186.5,-180 180.5,-180"/>
<text text-anchor="middle" x="163" y="-159.5" font-family="sans" font-size="10.00">cutadapt</text>
</g>
<!-- 9&#45;&gt;1 -->
<g id="edge9" class="edge"><title>9&#45;&gt;1</title>
<path fill="none" stroke="grey" stroke-width="2" d="M167.202,-143.697C169.096,-135.898 171.377,-126.509 173.484,-117.829"/>
<polygon fill="grey" stroke="grey" stroke-width="2" points="176.887,-118.648 175.846,-108.104 170.085,-116.996 176.887,-118.648"/>
</g>
<!-- 10 -->
<g id="node11" class="node"><title>10</title>
<path fill="none" stroke="#56d8c9" stroke-width="2" d="M62,-268C62,-268 12,-268 12,-268 6,-268 0,-262 0,-256 0,-256 0,-228 0,-228 0,-222 6,-216 12,-216 12,-216 62,-216 62,-216 68,-216 74,-222 74,-228 74,-228 74,-256 74,-256 74,-262 68,-268 62,-268"/>
<text text-anchor="middle" x="37" y="-256" font-family="sans" font-size="10.00">repair</text>
<text text-anchor="middle" x="37" y="-245" font-family="sans" font-size="10.00">rep: 1</text>
<text text-anchor="middle" x="37" y="-234" font-family="sans" font-size="10.00">species: osj</text>
<text text-anchor="middle" x="37" y="-223" font-family="sans" font-size="10.00">stage: SM</text>
</g>
<!-- 10&#45;&gt;2 -->
<g id="edge11" class="edge"><title>10&#45;&gt;2</title>
<path fill="none" stroke="grey" stroke-width="2" d="M37,-215.891C37,-207.84 37,-198.88 37,-190.658"/>
<polygon fill="grey" stroke="grey" stroke-width="2" points="40.5001,-190.411 37,-180.411 33.5001,-190.411 40.5001,-190.411"/>
</g>
<!-- 11 -->
<g id="node12" class="node"><title>11</title>
<path fill="none" stroke="#c6d856" stroke-width="2" d="M264.5,-180C264.5,-180 229.5,-180 229.5,-180 223.5,-180 217.5,-174 217.5,-168 217.5,-168 217.5,-156 217.5,-156 217.5,-150 223.5,-144 229.5,-144 229.5,-144 264.5,-144 264.5,-144 270.5,-144 276.5,-150 276.5,-156 276.5,-156 276.5,-168 276.5,-168 276.5,-174 270.5,-180 264.5,-180"/>
<text text-anchor="middle" x="247" y="-159.5" font-family="sans" font-size="10.00">cutadapt</text>
</g>
<!-- 11&#45;&gt;3 -->
<g id="edge12" class="edge"><title>11&#45;&gt;3</title>
<path fill="none" stroke="grey" stroke-width="2" d="M255.404,-143.697C259.275,-135.728 263.952,-126.1 268.243,-117.264"/>
<polygon fill="grey" stroke="grey" stroke-width="2" points="271.471,-118.629 272.692,-108.104 265.175,-115.57 271.471,-118.629"/>
</g>
<!-- 12 -->
<g id="node13" class="node"><title>12</title>
<path fill="none" stroke="#c6d856" stroke-width="2" d="M464.5,-180C464.5,-180 429.5,-180 429.5,-180 423.5,-180 417.5,-174 417.5,-168 417.5,-168 417.5,-156 417.5,-156 417.5,-150 423.5,-144 429.5,-144 429.5,-144 464.5,-144 464.5,-144 470.5,-144 476.5,-150 476.5,-156 476.5,-156 476.5,-168 476.5,-168 476.5,-174 470.5,-180 464.5,-180"/>
<text text-anchor="middle" x="447" y="-159.5" font-family="sans" font-size="10.00">cutadapt</text>
</g>
<!-- 12&#45;&gt;4 -->
<g id="edge15" class="edge"><title>12&#45;&gt;4</title>
<path fill="none" stroke="grey" stroke-width="2" d="M440.573,-143.697C437.645,-135.813 434.113,-126.304 430.86,-117.546"/>
<polygon fill="grey" stroke="grey" stroke-width="2" points="434.116,-116.26 427.353,-108.104 427.554,-118.697 434.116,-116.26"/>
</g>
<!-- 13 -->
<g id="node14" class="node"><title>13</title>
<path fill="none" stroke="#c6d856" stroke-width="2" d="M543.5,-180C543.5,-180 508.5,-180 508.5,-180 502.5,-180 496.5,-174 496.5,-168 496.5,-168 496.5,-156 496.5,-156 496.5,-150 502.5,-144 508.5,-144 508.5,-144 543.5,-144 543.5,-144 549.5,-144 555.5,-150 555.5,-156 555.5,-156 555.5,-168 555.5,-168 555.5,-174 549.5,-180 543.5,-180"/>
<text text-anchor="middle" x="526" y="-159.5" font-family="sans" font-size="10.00">cutadapt</text>
</g>
<!-- 13&#45;&gt;6 -->
<g id="edge18" class="edge"><title>13&#45;&gt;6</title>
<path fill="none" stroke="grey" stroke-width="2" d="M525.011,-143.697C524.57,-135.983 524.041,-126.712 523.549,-118.112"/>
<polygon fill="grey" stroke="grey" stroke-width="2" points="527.042,-117.888 522.977,-108.104 520.054,-118.288 527.042,-117.888"/>
</g>
<!-- 14 -->
<g id="node15" class="node"><title>14</title>
<path fill="none" stroke="#c6d856" stroke-width="2" d="M640.5,-180C640.5,-180 605.5,-180 605.5,-180 599.5,-180 593.5,-174 593.5,-168 593.5,-168 593.5,-156 593.5,-156 593.5,-150 599.5,-144 605.5,-144 605.5,-144 640.5,-144 640.5,-144 646.5,-144 652.5,-150 652.5,-156 652.5,-156 652.5,-168 652.5,-168 652.5,-174 646.5,-180 640.5,-180"/>
<text text-anchor="middle" x="623" y="-159.5" font-family="sans" font-size="10.00">cutadapt</text>
</g>
<!-- 14&#45;&gt;7 -->
<g id="edge21" class="edge"><title>14&#45;&gt;7</title>
<path fill="none" stroke="grey" stroke-width="2" d="M623,-143.697C623,-135.983 623,-126.712 623,-118.112"/>
<polygon fill="grey" stroke="grey" stroke-width="2" points="626.5,-118.104 623,-108.104 619.5,-118.104 626.5,-118.104"/>
</g>
<!-- 15 -->
<g id="node16" class="node"><title>15</title>
<path fill="none" stroke="#78d856" stroke-width="2" d="M372.5,-260C372.5,-260 317.5,-260 317.5,-260 311.5,-260 305.5,-254 305.5,-248 305.5,-248 305.5,-236 305.5,-236 305.5,-230 311.5,-224 317.5,-224 317.5,-224 372.5,-224 372.5,-224 378.5,-224 384.5,-230 384.5,-236 384.5,-236 384.5,-248 384.5,-248 384.5,-254 378.5,-260 372.5,-260"/>
<text text-anchor="middle" x="345" y="-239.5" font-family="sans" font-size="10.00">generate_gtf</text>
</g>
<!-- 15&#45;&gt;8 -->
<g id="edge22" class="edge"><title>15&#45;&gt;8</title>
<path fill="none" stroke="grey" stroke-width="2" d="M345.444,-223.689C345.695,-213.894 346.015,-201.422 346.299,-190.335"/>
<polygon fill="grey" stroke="grey" stroke-width="2" points="349.8,-190.349 346.557,-180.262 342.802,-190.169 349.8,-190.349"/>
</g>
<!-- 16 -->
<g id="node17" class="node"><title>16</title>
<path fill="none" stroke="#56d8c9" stroke-width="2" d="M182,-268C182,-268 132,-268 132,-268 126,-268 120,-262 120,-256 120,-256 120,-228 120,-228 120,-222 126,-216 132,-216 132,-216 182,-216 182,-216 188,-216 194,-222 194,-228 194,-228 194,-256 194,-256 194,-262 188,-268 182,-268"/>
<text text-anchor="middle" x="157" y="-256" font-family="sans" font-size="10.00">repair</text>
<text text-anchor="middle" x="157" y="-245" font-family="sans" font-size="10.00">rep: 2</text>
<text text-anchor="middle" x="157" y="-234" font-family="sans" font-size="10.00">species: osj</text>
<text text-anchor="middle" x="157" y="-223" font-family="sans" font-size="10.00">stage: SM</text>
</g>
<!-- 16&#45;&gt;9 -->
<g id="edge23" class="edge"><title>16&#45;&gt;9</title>
<path fill="none" stroke="grey" stroke-width="2" d="M158.931,-215.891C159.551,-207.84 160.24,-198.88 160.872,-190.658"/>
<polygon fill="grey" stroke="grey" stroke-width="2" points="164.383,-190.65 161.661,-180.411 157.404,-190.113 164.383,-190.65"/>
</g>
<!-- 17 -->
<g id="node18" class="node"><title>17</title>
<path fill="none" stroke="#56d8c9" stroke-width="2" d="M274,-268C274,-268 224,-268 224,-268 218,-268 212,-262 212,-256 212,-256 212,-228 212,-228 212,-222 218,-216 224,-216 224,-216 274,-216 274,-216 280,-216 286,-222 286,-228 286,-228 286,-256 286,-256 286,-262 280,-268 274,-268"/>
<text text-anchor="middle" x="249" y="-256" font-family="sans" font-size="10.00">repair</text>
<text text-anchor="middle" x="249" y="-245" font-family="sans" font-size="10.00">rep: 3</text>
<text text-anchor="middle" x="249" y="-234" font-family="sans" font-size="10.00">species: osj</text>
<text text-anchor="middle" x="249" y="-223" font-family="sans" font-size="10.00">stage: PBM</text>
</g>
<!-- 17&#45;&gt;11 -->
<g id="edge24" class="edge"><title>17&#45;&gt;11</title>
<path fill="none" stroke="grey" stroke-width="2" d="M248.356,-215.891C248.15,-207.84 247.92,-198.88 247.709,-190.658"/>
<polygon fill="grey" stroke="grey" stroke-width="2" points="251.202,-190.318 247.446,-180.411 244.204,-190.497 251.202,-190.318"/>
</g>
<!-- 18 -->
<g id="node19" class="node"><title>18</title>
<path fill="none" stroke="#56d8c9" stroke-width="2" d="M465,-268C465,-268 415,-268 415,-268 409,-268 403,-262 403,-256 403,-256 403,-228 403,-228 403,-222 409,-216 415,-216 415,-216 465,-216 465,-216 471,-216 477,-222 477,-228 477,-228 477,-256 477,-256 477,-262 471,-268 465,-268"/>
<text text-anchor="middle" x="440" y="-256" font-family="sans" font-size="10.00">repair</text>
<text text-anchor="middle" x="440" y="-245" font-family="sans" font-size="10.00">rep: 3</text>
<text text-anchor="middle" x="440" y="-234" font-family="sans" font-size="10.00">species: osj</text>
<text text-anchor="middle" x="440" y="-223" font-family="sans" font-size="10.00">stage: SM</text>
</g>
<!-- 18&#45;&gt;12 -->
<g id="edge25" class="edge"><title>18&#45;&gt;12</title>
<path fill="none" stroke="grey" stroke-width="2" d="M442.253,-215.891C442.984,-207.749 443.798,-198.679 444.543,-190.381"/>
<polygon fill="grey" stroke="grey" stroke-width="2" points="448.03,-190.684 445.438,-180.411 441.058,-190.058 448.03,-190.684"/>
</g>
<!-- 19 -->
<g id="node20" class="node"><title>19</title>
<path fill="none" stroke="#56d8c9" stroke-width="2" d="M557,-268C557,-268 507,-268 507,-268 501,-268 495,-262 495,-256 495,-256 495,-228 495,-228 495,-222 501,-216 507,-216 507,-216 557,-216 557,-216 563,-216 569,-222 569,-228 569,-228 569,-256 569,-256 569,-262 563,-268 557,-268"/>
<text text-anchor="middle" x="532" y="-256" font-family="sans" font-size="10.00">repair</text>
<text text-anchor="middle" x="532" y="-245" font-family="sans" font-size="10.00">rep: 1</text>
<text text-anchor="middle" x="532" y="-234" font-family="sans" font-size="10.00">species: osj</text>
<text text-anchor="middle" x="532" y="-223" font-family="sans" font-size="10.00">stage: PBM</text>
</g>
<!-- 19&#45;&gt;13 -->
<g id="edge26" class="edge"><title>19&#45;&gt;13</title>
<path fill="none" stroke="grey" stroke-width="2" d="M530.069,-215.891C529.449,-207.84 528.76,-198.88 528.128,-190.658"/>
<polygon fill="grey" stroke="grey" stroke-width="2" points="531.596,-190.113 527.339,-180.411 524.617,-190.65 531.596,-190.113"/>
</g>
<!-- 20 -->
<g id="node21" class="node"><title>20</title>
<path fill="none" stroke="#56d8c9" stroke-width="2" d="M649,-268C649,-268 599,-268 599,-268 593,-268 587,-262 587,-256 587,-256 587,-228 587,-228 587,-222 593,-216 599,-216 599,-216 649,-216 649,-216 655,-216 661,-222 661,-228 661,-228 661,-256 661,-256 661,-262 655,-268 649,-268"/>
<text text-anchor="middle" x="624" y="-256" font-family="sans" font-size="10.00">repair</text>
<text text-anchor="middle" x="624" y="-245" font-family="sans" font-size="10.00">rep: 2</text>
<text text-anchor="middle" x="624" y="-234" font-family="sans" font-size="10.00">species: osj</text>
<text text-anchor="middle" x="624" y="-223" font-family="sans" font-size="10.00">stage: PBM</text>
</g>
<!-- 20&#45;&gt;14 -->
<g id="edge27" class="edge"><title>20&#45;&gt;14</title>
<path fill="none" stroke="grey" stroke-width="2" d="M623.678,-215.891C623.575,-207.84 623.46,-198.88 623.355,-190.658"/>
<polygon fill="grey" stroke="grey" stroke-width="2" points="626.851,-190.365 623.223,-180.411 619.852,-190.455 626.851,-190.365"/>
</g>
</g>
</svg>
